M48
; DRILL file {KiCad 8.0.8} date 2025-02-08T12:45:13+0100
; FORMAT={-:-/ absolute / metric / decimal}
; #@! TF.CreationDate,2025-02-08T12:45:13+01:00
; #@! TF.GenerationSoftware,Kicad,Pcbnew,8.0.8
; #@! TF.FileFunction,Plated,1,2,PTH
FMAT,2
METRIC
; #@! TA.AperFunction,Plated,PTH,ViaDrill
T1C0.400
; #@! TA.AperFunction,Plated,PTH,ComponentDrill
T2C0.800
; #@! TA.AperFunction,Plated,PTH,ComponentDrill
T3C0.900
; #@! TA.AperFunction,Plated,PTH,ComponentDrill
T4C1.000
; #@! TA.AperFunction,Plated,PTH,ComponentDrill
T5C3.200
%
G90
G05
T1
X76.93Y-74.31
X76.93Y-76.85
X76.93Y-79.39
X76.93Y-81.93
X76.93Y-84.47
X76.93Y-87.01
X76.93Y-89.55
X76.93Y-92.09
X76.93Y-94.63
X76.93Y-97.17
X76.93Y-99.71
X76.93Y-102.25
X76.93Y-104.79
X76.93Y-107.33
X76.93Y-109.87
X76.93Y-112.41
X79.47Y-74.31
X79.47Y-112.41
X82.01Y-74.31
X82.01Y-112.41
X84.55Y-74.31
X84.55Y-112.41
X87.09Y-74.31
X87.09Y-112.41
X89.63Y-74.31
X89.63Y-112.41
X92.17Y-74.31
X92.17Y-112.41
X94.71Y-74.31
X94.71Y-112.41
X97.25Y-74.31
X97.25Y-112.41
X99.79Y-74.31
X99.79Y-112.41
X102.33Y-74.31
X102.33Y-112.41
X104.87Y-74.31
X104.87Y-112.41
X107.41Y-74.31
X107.41Y-112.41
X109.95Y-74.31
X109.95Y-112.41
X112.49Y-74.31
X112.49Y-112.41
X115.03Y-74.31
X115.03Y-112.41
X117.57Y-74.31
X117.57Y-112.41
X120.11Y-74.31
X120.11Y-112.41
X122.65Y-74.31
X122.65Y-112.41
X125.19Y-74.31
X125.19Y-112.41
X127.73Y-74.31
X127.73Y-112.41
X130.27Y-74.31
X130.27Y-112.41
X132.81Y-74.31
X132.81Y-112.41
X135.35Y-74.31
X135.35Y-112.41
X137.89Y-74.31
X137.89Y-112.41
X140.43Y-74.31
X140.43Y-112.41
X142.97Y-74.31
X142.97Y-112.41
X145.51Y-74.31
X145.51Y-112.41
X148.05Y-74.31
X148.05Y-112.41
X150.59Y-74.31
X150.59Y-112.41
X153.13Y-74.31
X153.13Y-112.41
X155.67Y-74.31
X155.67Y-112.41
X158.21Y-74.31
X158.21Y-112.41
X160.75Y-74.31
X160.75Y-112.41
X163.29Y-74.31
X163.29Y-112.41
X165.83Y-74.31
X165.83Y-112.41
X168.37Y-74.31
X168.37Y-112.41
X170.91Y-74.31
X170.91Y-112.41
X173.45Y-74.31
X173.45Y-112.41
X175.99Y-74.31
X175.99Y-112.41
X178.53Y-74.31
X178.53Y-112.41
X181.07Y-74.31
X181.07Y-112.41
X183.61Y-74.31
X183.61Y-112.41
X186.15Y-74.31
X186.15Y-112.41
X188.69Y-74.31
X188.69Y-112.41
X191.23Y-74.31
X191.23Y-112.41
X193.77Y-74.31
X193.77Y-112.41
X196.31Y-74.31
X196.31Y-112.41
X198.85Y-74.31
X198.85Y-112.41
X201.39Y-74.31
X201.39Y-112.41
X203.93Y-74.31
X203.93Y-112.41
X206.47Y-74.31
X206.47Y-112.41
X209.01Y-74.31
X209.01Y-112.41
X211.55Y-74.31
X211.55Y-112.41
X214.09Y-74.31
X214.09Y-112.41
X216.63Y-74.31
X216.63Y-112.41
X219.17Y-74.31
X219.17Y-112.41
X221.71Y-74.31
X221.71Y-112.41
X224.25Y-74.31
X224.25Y-112.41
X226.79Y-74.31
X226.79Y-112.41
X229.33Y-74.31
X229.33Y-76.85
X229.33Y-79.39
X229.33Y-81.93
X229.33Y-84.47
X229.33Y-87.01
X229.33Y-89.55
X229.33Y-92.09
X229.33Y-94.63
X229.33Y-97.17
X229.33Y-99.71
X229.33Y-102.25
X229.33Y-104.79
X229.33Y-107.33
X229.33Y-109.87
X229.33Y-112.41
T2
X206.82Y-103.19
X208.09Y-105.73
X209.36Y-103.19
X210.63Y-105.73
X211.9Y-103.19
X213.17Y-105.73
X214.44Y-103.19
X215.71Y-105.73
X216.98Y-103.19
X218.25Y-105.73
X219.52Y-103.19
X220.79Y-105.73
T3
X201.83Y-91.055
X201.83Y-93.595
X211.83Y-91.055
X211.83Y-93.595
X221.83Y-91.055
X221.83Y-93.595
T4
X98.77Y-87.655
X98.77Y-90.425
X98.77Y-93.195
X98.77Y-95.965
X98.77Y-98.735
X101.61Y-89.04
X101.61Y-91.81
X101.61Y-94.58
X101.61Y-97.35
X125.733Y-87.655
X125.733Y-90.425
X125.733Y-93.195
X125.733Y-95.965
X125.733Y-98.735
X128.573Y-89.04
X128.573Y-91.81
X128.573Y-94.58
X128.573Y-97.35
X152.697Y-87.655
X152.697Y-90.425
X152.697Y-93.195
X152.697Y-95.965
X152.697Y-98.735
X155.537Y-89.04
X155.537Y-91.81
X155.537Y-94.58
X155.537Y-97.35
X179.66Y-87.655
X179.66Y-90.425
X179.66Y-93.195
X179.66Y-95.965
X179.66Y-98.735
X182.5Y-89.04
X182.5Y-91.81
X182.5Y-94.58
X182.5Y-97.35
T5
X100.19Y-80.695
X100.19Y-105.695
X127.153Y-80.695
X127.153Y-105.695
X154.117Y-80.695
X154.117Y-105.695
X181.08Y-80.695
X181.08Y-105.695
M30
