G04 #@! TF.GenerationSoftware,KiCad,Pcbnew,8.0.8*
G04 #@! TF.CreationDate,2025-02-08T12:44:00+01:00*
G04 #@! TF.ProjectId,OverlordInterface,4f766572-6c6f-4726-9449-6e7465726661,rev?*
G04 #@! TF.SameCoordinates,Original*
G04 #@! TF.FileFunction,Legend,Top*
G04 #@! TF.FilePolarity,Positive*
%FSLAX46Y46*%
G04 Gerber Fmt 4.6, Leading zero omitted, Abs format (unit mm)*
G04 Created by KiCad (PCBNEW 8.0.8) date 2025-02-08 12:44:00*
%MOMM*%
%LPD*%
G01*
G04 APERTURE LIST*
G04 Aperture macros list*
%AMRoundRect*
0 Rectangle with rounded corners*
0 $1 Rounding radius*
0 $2 $3 $4 $5 $6 $7 $8 $9 X,Y pos of 4 corners*
0 Add a 4 corners polygon primitive as box body*
4,1,4,$2,$3,$4,$5,$6,$7,$8,$9,$2,$3,0*
0 Add four circle primitives for the rounded corners*
1,1,$1+$1,$2,$3*
1,1,$1+$1,$4,$5*
1,1,$1+$1,$6,$7*
1,1,$1+$1,$8,$9*
0 Add four rect primitives between the rounded corners*
20,1,$1+$1,$2,$3,$4,$5,0*
20,1,$1+$1,$4,$5,$6,$7,0*
20,1,$1+$1,$6,$7,$8,$9,0*
20,1,$1+$1,$8,$9,$2,$3,0*%
%AMFreePoly0*
4,1,19,0.500000,-0.750000,0.000000,-0.750000,0.000000,-0.744911,-0.071157,-0.744911,-0.207708,-0.704816,-0.327430,-0.627875,-0.420627,-0.520320,-0.479746,-0.390866,-0.500000,-0.250000,-0.500000,0.250000,-0.479746,0.390866,-0.420627,0.520320,-0.327430,0.627875,-0.207708,0.704816,-0.071157,0.744911,0.000000,0.744911,0.000000,0.750000,0.500000,0.750000,0.500000,-0.750000,0.500000,-0.750000,
$1*%
%AMFreePoly1*
4,1,19,0.000000,0.744911,0.071157,0.744911,0.207708,0.704816,0.327430,0.627875,0.420627,0.520320,0.479746,0.390866,0.500000,0.250000,0.500000,-0.250000,0.479746,-0.390866,0.420627,-0.520320,0.327430,-0.627875,0.207708,-0.704816,0.071157,-0.744911,0.000000,-0.744911,0.000000,-0.750000,-0.500000,-0.750000,-0.500000,0.750000,0.000000,0.750000,0.000000,0.744911,0.000000,0.744911,
$1*%
G04 Aperture macros list end*
%ADD10C,0.150000*%
%ADD11C,0.120000*%
%ADD12FreePoly0,180.000000*%
%ADD13FreePoly1,180.000000*%
%ADD14R,1.800000X1.800000*%
%ADD15C,1.800000*%
%ADD16C,4.000000*%
%ADD17R,1.600000X1.600000*%
%ADD18C,1.600000*%
%ADD19C,1.500000*%
%ADD20RoundRect,0.250000X-0.400000X0.650000X-0.400000X-0.650000X0.400000X-0.650000X0.400000X0.650000X0*%
%ADD21O,1.300000X1.800000*%
G04 APERTURE END LIST*
D10*
X161365057Y-97524173D02*
X163793628Y-97524173D01*
X163793628Y-97524173D02*
X164079342Y-97381316D01*
X164079342Y-97381316D02*
X164222200Y-97238459D01*
X164222200Y-97238459D02*
X164365057Y-96952744D01*
X164365057Y-96952744D02*
X164365057Y-96381316D01*
X164365057Y-96381316D02*
X164222200Y-96095601D01*
X164222200Y-96095601D02*
X164079342Y-95952744D01*
X164079342Y-95952744D02*
X163793628Y-95809887D01*
X163793628Y-95809887D02*
X161365057Y-95809887D01*
X163507914Y-94524173D02*
X163507914Y-93095602D01*
X164365057Y-94809887D02*
X161365057Y-93809887D01*
X161365057Y-93809887D02*
X164365057Y-92809887D01*
X164365057Y-90095601D02*
X162936485Y-91095601D01*
X164365057Y-91809887D02*
X161365057Y-91809887D01*
X161365057Y-91809887D02*
X161365057Y-90667030D01*
X161365057Y-90667030D02*
X161507914Y-90381315D01*
X161507914Y-90381315D02*
X161650771Y-90238458D01*
X161650771Y-90238458D02*
X161936485Y-90095601D01*
X161936485Y-90095601D02*
X162365057Y-90095601D01*
X162365057Y-90095601D02*
X162650771Y-90238458D01*
X162650771Y-90238458D02*
X162793628Y-90381315D01*
X162793628Y-90381315D02*
X162936485Y-90667030D01*
X162936485Y-90667030D02*
X162936485Y-91809887D01*
X161365057Y-89238458D02*
X161365057Y-87524173D01*
X164365057Y-88381315D02*
X161365057Y-88381315D01*
X191099342Y-94667030D02*
X191242200Y-94809887D01*
X191242200Y-94809887D02*
X191385057Y-95238459D01*
X191385057Y-95238459D02*
X191385057Y-95524173D01*
X191385057Y-95524173D02*
X191242200Y-95952744D01*
X191242200Y-95952744D02*
X190956485Y-96238459D01*
X190956485Y-96238459D02*
X190670771Y-96381316D01*
X190670771Y-96381316D02*
X190099342Y-96524173D01*
X190099342Y-96524173D02*
X189670771Y-96524173D01*
X189670771Y-96524173D02*
X189099342Y-96381316D01*
X189099342Y-96381316D02*
X188813628Y-96238459D01*
X188813628Y-96238459D02*
X188527914Y-95952744D01*
X188527914Y-95952744D02*
X188385057Y-95524173D01*
X188385057Y-95524173D02*
X188385057Y-95238459D01*
X188385057Y-95238459D02*
X188527914Y-94809887D01*
X188527914Y-94809887D02*
X188670771Y-94667030D01*
X190527914Y-93524173D02*
X190527914Y-92095602D01*
X191385057Y-93809887D02*
X188385057Y-92809887D01*
X188385057Y-92809887D02*
X191385057Y-91809887D01*
X191385057Y-90809887D02*
X188385057Y-90809887D01*
X188385057Y-90809887D02*
X191385057Y-89095601D01*
X191385057Y-89095601D02*
X188385057Y-89095601D01*
X119625057Y-103877030D02*
X116625057Y-103877030D01*
X116625057Y-103877030D02*
X118767914Y-102877030D01*
X118767914Y-102877030D02*
X116625057Y-101877030D01*
X116625057Y-101877030D02*
X119625057Y-101877030D01*
X116625057Y-99877030D02*
X116625057Y-99305602D01*
X116625057Y-99305602D02*
X116767914Y-99019887D01*
X116767914Y-99019887D02*
X117053628Y-98734173D01*
X117053628Y-98734173D02*
X117625057Y-98591316D01*
X117625057Y-98591316D02*
X118625057Y-98591316D01*
X118625057Y-98591316D02*
X119196485Y-98734173D01*
X119196485Y-98734173D02*
X119482200Y-99019887D01*
X119482200Y-99019887D02*
X119625057Y-99305602D01*
X119625057Y-99305602D02*
X119625057Y-99877030D01*
X119625057Y-99877030D02*
X119482200Y-100162745D01*
X119482200Y-100162745D02*
X119196485Y-100448459D01*
X119196485Y-100448459D02*
X118625057Y-100591316D01*
X118625057Y-100591316D02*
X117625057Y-100591316D01*
X117625057Y-100591316D02*
X117053628Y-100448459D01*
X117053628Y-100448459D02*
X116767914Y-100162745D01*
X116767914Y-100162745D02*
X116625057Y-99877030D01*
X119625057Y-97305602D02*
X116625057Y-97305602D01*
X116625057Y-97305602D02*
X116625057Y-96591316D01*
X116625057Y-96591316D02*
X116767914Y-96162745D01*
X116767914Y-96162745D02*
X117053628Y-95877030D01*
X117053628Y-95877030D02*
X117339342Y-95734173D01*
X117339342Y-95734173D02*
X117910771Y-95591316D01*
X117910771Y-95591316D02*
X118339342Y-95591316D01*
X118339342Y-95591316D02*
X118910771Y-95734173D01*
X118910771Y-95734173D02*
X119196485Y-95877030D01*
X119196485Y-95877030D02*
X119482200Y-96162745D01*
X119482200Y-96162745D02*
X119625057Y-96591316D01*
X119625057Y-96591316D02*
X119625057Y-97305602D01*
X118053628Y-93305602D02*
X118196485Y-92877030D01*
X118196485Y-92877030D02*
X118339342Y-92734173D01*
X118339342Y-92734173D02*
X118625057Y-92591316D01*
X118625057Y-92591316D02*
X119053628Y-92591316D01*
X119053628Y-92591316D02*
X119339342Y-92734173D01*
X119339342Y-92734173D02*
X119482200Y-92877030D01*
X119482200Y-92877030D02*
X119625057Y-93162745D01*
X119625057Y-93162745D02*
X119625057Y-94305602D01*
X119625057Y-94305602D02*
X116625057Y-94305602D01*
X116625057Y-94305602D02*
X116625057Y-93305602D01*
X116625057Y-93305602D02*
X116767914Y-93019888D01*
X116767914Y-93019888D02*
X116910771Y-92877030D01*
X116910771Y-92877030D02*
X117196485Y-92734173D01*
X117196485Y-92734173D02*
X117482200Y-92734173D01*
X117482200Y-92734173D02*
X117767914Y-92877030D01*
X117767914Y-92877030D02*
X117910771Y-93019888D01*
X117910771Y-93019888D02*
X118053628Y-93305602D01*
X118053628Y-93305602D02*
X118053628Y-94305602D01*
X116625057Y-91305602D02*
X119053628Y-91305602D01*
X119053628Y-91305602D02*
X119339342Y-91162745D01*
X119339342Y-91162745D02*
X119482200Y-91019888D01*
X119482200Y-91019888D02*
X119625057Y-90734173D01*
X119625057Y-90734173D02*
X119625057Y-90162745D01*
X119625057Y-90162745D02*
X119482200Y-89877030D01*
X119482200Y-89877030D02*
X119339342Y-89734173D01*
X119339342Y-89734173D02*
X119053628Y-89591316D01*
X119053628Y-89591316D02*
X116625057Y-89591316D01*
X119482200Y-88305602D02*
X119625057Y-87877031D01*
X119625057Y-87877031D02*
X119625057Y-87162745D01*
X119625057Y-87162745D02*
X119482200Y-86877031D01*
X119482200Y-86877031D02*
X119339342Y-86734173D01*
X119339342Y-86734173D02*
X119053628Y-86591316D01*
X119053628Y-86591316D02*
X118767914Y-86591316D01*
X118767914Y-86591316D02*
X118482200Y-86734173D01*
X118482200Y-86734173D02*
X118339342Y-86877031D01*
X118339342Y-86877031D02*
X118196485Y-87162745D01*
X118196485Y-87162745D02*
X118053628Y-87734173D01*
X118053628Y-87734173D02*
X117910771Y-88019888D01*
X117910771Y-88019888D02*
X117767914Y-88162745D01*
X117767914Y-88162745D02*
X117482200Y-88305602D01*
X117482200Y-88305602D02*
X117196485Y-88305602D01*
X117196485Y-88305602D02*
X116910771Y-88162745D01*
X116910771Y-88162745D02*
X116767914Y-88019888D01*
X116767914Y-88019888D02*
X116625057Y-87734173D01*
X116625057Y-87734173D02*
X116625057Y-87019888D01*
X116625057Y-87019888D02*
X116767914Y-86591316D01*
X119625057Y-81448459D02*
X119625057Y-83162745D01*
X119625057Y-82305602D02*
X116625057Y-82305602D01*
X116625057Y-82305602D02*
X117053628Y-82591316D01*
X117053628Y-82591316D02*
X117339342Y-82877031D01*
X117339342Y-82877031D02*
X117482200Y-83162745D01*
X92485057Y-103877030D02*
X89485057Y-103877030D01*
X89485057Y-103877030D02*
X91627914Y-102877030D01*
X91627914Y-102877030D02*
X89485057Y-101877030D01*
X89485057Y-101877030D02*
X92485057Y-101877030D01*
X89485057Y-99877030D02*
X89485057Y-99305602D01*
X89485057Y-99305602D02*
X89627914Y-99019887D01*
X89627914Y-99019887D02*
X89913628Y-98734173D01*
X89913628Y-98734173D02*
X90485057Y-98591316D01*
X90485057Y-98591316D02*
X91485057Y-98591316D01*
X91485057Y-98591316D02*
X92056485Y-98734173D01*
X92056485Y-98734173D02*
X92342200Y-99019887D01*
X92342200Y-99019887D02*
X92485057Y-99305602D01*
X92485057Y-99305602D02*
X92485057Y-99877030D01*
X92485057Y-99877030D02*
X92342200Y-100162745D01*
X92342200Y-100162745D02*
X92056485Y-100448459D01*
X92056485Y-100448459D02*
X91485057Y-100591316D01*
X91485057Y-100591316D02*
X90485057Y-100591316D01*
X90485057Y-100591316D02*
X89913628Y-100448459D01*
X89913628Y-100448459D02*
X89627914Y-100162745D01*
X89627914Y-100162745D02*
X89485057Y-99877030D01*
X92485057Y-97305602D02*
X89485057Y-97305602D01*
X89485057Y-97305602D02*
X89485057Y-96591316D01*
X89485057Y-96591316D02*
X89627914Y-96162745D01*
X89627914Y-96162745D02*
X89913628Y-95877030D01*
X89913628Y-95877030D02*
X90199342Y-95734173D01*
X90199342Y-95734173D02*
X90770771Y-95591316D01*
X90770771Y-95591316D02*
X91199342Y-95591316D01*
X91199342Y-95591316D02*
X91770771Y-95734173D01*
X91770771Y-95734173D02*
X92056485Y-95877030D01*
X92056485Y-95877030D02*
X92342200Y-96162745D01*
X92342200Y-96162745D02*
X92485057Y-96591316D01*
X92485057Y-96591316D02*
X92485057Y-97305602D01*
X90913628Y-93305602D02*
X91056485Y-92877030D01*
X91056485Y-92877030D02*
X91199342Y-92734173D01*
X91199342Y-92734173D02*
X91485057Y-92591316D01*
X91485057Y-92591316D02*
X91913628Y-92591316D01*
X91913628Y-92591316D02*
X92199342Y-92734173D01*
X92199342Y-92734173D02*
X92342200Y-92877030D01*
X92342200Y-92877030D02*
X92485057Y-93162745D01*
X92485057Y-93162745D02*
X92485057Y-94305602D01*
X92485057Y-94305602D02*
X89485057Y-94305602D01*
X89485057Y-94305602D02*
X89485057Y-93305602D01*
X89485057Y-93305602D02*
X89627914Y-93019888D01*
X89627914Y-93019888D02*
X89770771Y-92877030D01*
X89770771Y-92877030D02*
X90056485Y-92734173D01*
X90056485Y-92734173D02*
X90342200Y-92734173D01*
X90342200Y-92734173D02*
X90627914Y-92877030D01*
X90627914Y-92877030D02*
X90770771Y-93019888D01*
X90770771Y-93019888D02*
X90913628Y-93305602D01*
X90913628Y-93305602D02*
X90913628Y-94305602D01*
X89485057Y-91305602D02*
X91913628Y-91305602D01*
X91913628Y-91305602D02*
X92199342Y-91162745D01*
X92199342Y-91162745D02*
X92342200Y-91019888D01*
X92342200Y-91019888D02*
X92485057Y-90734173D01*
X92485057Y-90734173D02*
X92485057Y-90162745D01*
X92485057Y-90162745D02*
X92342200Y-89877030D01*
X92342200Y-89877030D02*
X92199342Y-89734173D01*
X92199342Y-89734173D02*
X91913628Y-89591316D01*
X91913628Y-89591316D02*
X89485057Y-89591316D01*
X92342200Y-88305602D02*
X92485057Y-87877031D01*
X92485057Y-87877031D02*
X92485057Y-87162745D01*
X92485057Y-87162745D02*
X92342200Y-86877031D01*
X92342200Y-86877031D02*
X92199342Y-86734173D01*
X92199342Y-86734173D02*
X91913628Y-86591316D01*
X91913628Y-86591316D02*
X91627914Y-86591316D01*
X91627914Y-86591316D02*
X91342200Y-86734173D01*
X91342200Y-86734173D02*
X91199342Y-86877031D01*
X91199342Y-86877031D02*
X91056485Y-87162745D01*
X91056485Y-87162745D02*
X90913628Y-87734173D01*
X90913628Y-87734173D02*
X90770771Y-88019888D01*
X90770771Y-88019888D02*
X90627914Y-88162745D01*
X90627914Y-88162745D02*
X90342200Y-88305602D01*
X90342200Y-88305602D02*
X90056485Y-88305602D01*
X90056485Y-88305602D02*
X89770771Y-88162745D01*
X89770771Y-88162745D02*
X89627914Y-88019888D01*
X89627914Y-88019888D02*
X89485057Y-87734173D01*
X89485057Y-87734173D02*
X89485057Y-87019888D01*
X89485057Y-87019888D02*
X89627914Y-86591316D01*
X89770771Y-83162745D02*
X89627914Y-83019888D01*
X89627914Y-83019888D02*
X89485057Y-82734174D01*
X89485057Y-82734174D02*
X89485057Y-82019888D01*
X89485057Y-82019888D02*
X89627914Y-81734174D01*
X89627914Y-81734174D02*
X89770771Y-81591316D01*
X89770771Y-81591316D02*
X90056485Y-81448459D01*
X90056485Y-81448459D02*
X90342200Y-81448459D01*
X90342200Y-81448459D02*
X90770771Y-81591316D01*
X90770771Y-81591316D02*
X92485057Y-83305602D01*
X92485057Y-83305602D02*
X92485057Y-81448459D01*
X215244819Y-93063094D02*
X214244819Y-93063094D01*
X214244819Y-93063094D02*
X214244819Y-92824999D01*
X214244819Y-92824999D02*
X214292438Y-92682142D01*
X214292438Y-92682142D02*
X214387676Y-92586904D01*
X214387676Y-92586904D02*
X214482914Y-92539285D01*
X214482914Y-92539285D02*
X214673390Y-92491666D01*
X214673390Y-92491666D02*
X214816247Y-92491666D01*
X214816247Y-92491666D02*
X215006723Y-92539285D01*
X215006723Y-92539285D02*
X215101961Y-92586904D01*
X215101961Y-92586904D02*
X215197200Y-92682142D01*
X215197200Y-92682142D02*
X215244819Y-92824999D01*
X215244819Y-92824999D02*
X215244819Y-93063094D01*
X214340057Y-92110713D02*
X214292438Y-92063094D01*
X214292438Y-92063094D02*
X214244819Y-91967856D01*
X214244819Y-91967856D02*
X214244819Y-91729761D01*
X214244819Y-91729761D02*
X214292438Y-91634523D01*
X214292438Y-91634523D02*
X214340057Y-91586904D01*
X214340057Y-91586904D02*
X214435295Y-91539285D01*
X214435295Y-91539285D02*
X214530533Y-91539285D01*
X214530533Y-91539285D02*
X214673390Y-91586904D01*
X214673390Y-91586904D02*
X215244819Y-92158332D01*
X215244819Y-92158332D02*
X215244819Y-91539285D01*
X225244819Y-93063094D02*
X224244819Y-93063094D01*
X224244819Y-93063094D02*
X224244819Y-92824999D01*
X224244819Y-92824999D02*
X224292438Y-92682142D01*
X224292438Y-92682142D02*
X224387676Y-92586904D01*
X224387676Y-92586904D02*
X224482914Y-92539285D01*
X224482914Y-92539285D02*
X224673390Y-92491666D01*
X224673390Y-92491666D02*
X224816247Y-92491666D01*
X224816247Y-92491666D02*
X225006723Y-92539285D01*
X225006723Y-92539285D02*
X225101961Y-92586904D01*
X225101961Y-92586904D02*
X225197200Y-92682142D01*
X225197200Y-92682142D02*
X225244819Y-92824999D01*
X225244819Y-92824999D02*
X225244819Y-93063094D01*
X225244819Y-91539285D02*
X225244819Y-92110713D01*
X225244819Y-91824999D02*
X224244819Y-91824999D01*
X224244819Y-91824999D02*
X224387676Y-91920237D01*
X224387676Y-91920237D02*
X224482914Y-92015475D01*
X224482914Y-92015475D02*
X224530533Y-92110713D01*
X205244819Y-93063094D02*
X204244819Y-93063094D01*
X204244819Y-93063094D02*
X204244819Y-92824999D01*
X204244819Y-92824999D02*
X204292438Y-92682142D01*
X204292438Y-92682142D02*
X204387676Y-92586904D01*
X204387676Y-92586904D02*
X204482914Y-92539285D01*
X204482914Y-92539285D02*
X204673390Y-92491666D01*
X204673390Y-92491666D02*
X204816247Y-92491666D01*
X204816247Y-92491666D02*
X205006723Y-92539285D01*
X205006723Y-92539285D02*
X205101961Y-92586904D01*
X205101961Y-92586904D02*
X205197200Y-92682142D01*
X205197200Y-92682142D02*
X205244819Y-92824999D01*
X205244819Y-92824999D02*
X205244819Y-93063094D01*
X204244819Y-92158332D02*
X204244819Y-91539285D01*
X204244819Y-91539285D02*
X204625771Y-91872618D01*
X204625771Y-91872618D02*
X204625771Y-91729761D01*
X204625771Y-91729761D02*
X204673390Y-91634523D01*
X204673390Y-91634523D02*
X204721009Y-91586904D01*
X204721009Y-91586904D02*
X204816247Y-91539285D01*
X204816247Y-91539285D02*
X205054342Y-91539285D01*
X205054342Y-91539285D02*
X205149580Y-91586904D01*
X205149580Y-91586904D02*
X205197200Y-91634523D01*
X205197200Y-91634523D02*
X205244819Y-91729761D01*
X205244819Y-91729761D02*
X205244819Y-92015475D01*
X205244819Y-92015475D02*
X205197200Y-92110713D01*
X205197200Y-92110713D02*
X205149580Y-92158332D01*
D11*
X138800000Y-96005001D02*
X138800000Y-95404999D01*
X139500000Y-94705000D02*
X140900000Y-94705000D01*
X140900000Y-96705000D02*
X139500000Y-96705000D01*
X141600000Y-95404999D02*
X141600000Y-96005001D01*
X138800000Y-95404999D02*
G75*
G02*
X139500000Y-94705000I700000J-1D01*
G01*
X139500000Y-96705000D02*
G75*
G02*
X138800000Y-96005001I0J700000D01*
G01*
X140900000Y-94705000D02*
G75*
G02*
X141600000Y-95404999I1J-699999D01*
G01*
X141600000Y-96005001D02*
G75*
G02*
X140900000Y-96705000I-699999J0D01*
G01*
X111650000Y-82768376D02*
X111650000Y-82168374D01*
X112350000Y-81468375D02*
X113750000Y-81468375D01*
X113750000Y-83468375D02*
X112350000Y-83468375D01*
X114450000Y-82168374D02*
X114450000Y-82768376D01*
X111650000Y-82168374D02*
G75*
G02*
X112350000Y-81468375I700000J-1D01*
G01*
X112350000Y-83468375D02*
G75*
G02*
X111650000Y-82768376I0J700000D01*
G01*
X113750000Y-81468375D02*
G75*
G02*
X114450000Y-82168374I1J-699999D01*
G01*
X114450000Y-82768376D02*
G75*
G02*
X113750000Y-83468375I-699999J0D01*
G01*
X210750000Y-90765000D02*
X210594000Y-90765000D01*
X213066000Y-90765000D02*
X212910000Y-90765000D01*
X210749939Y-93996397D02*
G75*
G02*
X210594484Y-90765000I1080061J1671397D01*
G01*
X210749951Y-93365910D02*
G75*
G02*
X210750000Y-91284039I1080049J1040910D01*
G01*
X212910000Y-91284039D02*
G75*
G02*
X212910049Y-93365910I-1080000J-1040961D01*
G01*
X213065516Y-90765000D02*
G75*
G02*
X212910061Y-93996397I-1235516J-1560000D01*
G01*
X138800000Y-88505001D02*
X138800000Y-87904999D01*
X139500000Y-87205000D02*
X140900000Y-87205000D01*
X140900000Y-89205000D02*
X139500000Y-89205000D01*
X141600000Y-87904999D02*
X141600000Y-88505001D01*
X138800000Y-87904999D02*
G75*
G02*
X139500000Y-87205000I700000J-1D01*
G01*
X139500000Y-89205000D02*
G75*
G02*
X138800000Y-88505001I0J700000D01*
G01*
X140900000Y-87205000D02*
G75*
G02*
X141600000Y-87904999I1J-699999D01*
G01*
X141600000Y-88505001D02*
G75*
G02*
X140900000Y-89205000I-699999J0D01*
G01*
X111650000Y-92768374D02*
X111650000Y-92168372D01*
X112350000Y-91468373D02*
X113750000Y-91468373D01*
X113750000Y-93468373D02*
X112350000Y-93468373D01*
X114450000Y-92168372D02*
X114450000Y-92768374D01*
X111650000Y-92168372D02*
G75*
G02*
X112350000Y-91468373I700000J-1D01*
G01*
X112350000Y-93468373D02*
G75*
G02*
X111650000Y-92768374I0J700000D01*
G01*
X113750000Y-91468373D02*
G75*
G02*
X114450000Y-92168372I1J-699999D01*
G01*
X114450000Y-92768374D02*
G75*
G02*
X113750000Y-93468373I-699999J0D01*
G01*
X165349999Y-98540001D02*
X165349999Y-97939999D01*
X166049999Y-97240000D02*
X167449999Y-97240000D01*
X167449999Y-99240000D02*
X166049999Y-99240000D01*
X168149999Y-97939999D02*
X168149999Y-98540001D01*
X165349999Y-97939999D02*
G75*
G02*
X166049999Y-97240000I700000J-1D01*
G01*
X166049999Y-99240000D02*
G75*
G02*
X165349999Y-98540001I0J700000D01*
G01*
X167449999Y-97240000D02*
G75*
G02*
X168149999Y-97939999I1J-699999D01*
G01*
X168149999Y-98540001D02*
G75*
G02*
X167449999Y-99240000I-699999J0D01*
G01*
X192849999Y-101040001D02*
X192849999Y-100439999D01*
X193549999Y-99740000D02*
X194949999Y-99740000D01*
X194949999Y-101740000D02*
X193549999Y-101740000D01*
X195649999Y-100439999D02*
X195649999Y-101040001D01*
X192849999Y-100439999D02*
G75*
G02*
X193549999Y-99740000I700000J-1D01*
G01*
X193549999Y-101740000D02*
G75*
G02*
X192849999Y-101040001I0J700000D01*
G01*
X194949999Y-99740000D02*
G75*
G02*
X195649999Y-100439999I1J-699999D01*
G01*
X195649999Y-101040001D02*
G75*
G02*
X194949999Y-101740000I-699999J0D01*
G01*
X220750000Y-90765000D02*
X220594000Y-90765000D01*
X223066000Y-90765000D02*
X222910000Y-90765000D01*
X220749939Y-93996397D02*
G75*
G02*
X220594484Y-90765000I1080061J1671397D01*
G01*
X220749951Y-93365910D02*
G75*
G02*
X220750000Y-91284039I1080049J1040910D01*
G01*
X222910000Y-91284039D02*
G75*
G02*
X222910049Y-93365910I-1080000J-1040961D01*
G01*
X223065516Y-90765000D02*
G75*
G02*
X222910061Y-93996397I-1235516J-1560000D01*
G01*
X192849999Y-88540001D02*
X192849999Y-87939999D01*
X193549999Y-87240000D02*
X194949999Y-87240000D01*
X194949999Y-89240000D02*
X193549999Y-89240000D01*
X195649999Y-87939999D02*
X195649999Y-88540001D01*
X192849999Y-87939999D02*
G75*
G02*
X193549999Y-87240000I700000J-1D01*
G01*
X193549999Y-89240000D02*
G75*
G02*
X192849999Y-88540001I0J700000D01*
G01*
X194949999Y-87240000D02*
G75*
G02*
X195649999Y-87939999I1J-699999D01*
G01*
X195649999Y-88540001D02*
G75*
G02*
X194949999Y-89240000I-699999J0D01*
G01*
X192849999Y-91040001D02*
X192849999Y-90439999D01*
X193549999Y-89740000D02*
X194949999Y-89740000D01*
X194949999Y-91740000D02*
X193549999Y-91740000D01*
X195649999Y-90439999D02*
X195649999Y-91040001D01*
X192849999Y-90439999D02*
G75*
G02*
X193549999Y-89740000I700000J-1D01*
G01*
X193549999Y-91740000D02*
G75*
G02*
X192849999Y-91040001I0J700000D01*
G01*
X194949999Y-89740000D02*
G75*
G02*
X195649999Y-90439999I1J-699999D01*
G01*
X195649999Y-91040001D02*
G75*
G02*
X194949999Y-91740000I-699999J0D01*
G01*
X192849999Y-93540001D02*
X192849999Y-92939999D01*
X193549999Y-92240000D02*
X194949999Y-92240000D01*
X194949999Y-94240000D02*
X193549999Y-94240000D01*
X195649999Y-92939999D02*
X195649999Y-93540001D01*
X192849999Y-92939999D02*
G75*
G02*
X193549999Y-92240000I700000J-1D01*
G01*
X193549999Y-94240000D02*
G75*
G02*
X192849999Y-93540001I0J700000D01*
G01*
X194949999Y-92240000D02*
G75*
G02*
X195649999Y-92939999I1J-699999D01*
G01*
X195649999Y-93540001D02*
G75*
G02*
X194949999Y-94240000I-699999J0D01*
G01*
X138800000Y-98505001D02*
X138800000Y-97904999D01*
X139500000Y-97205000D02*
X140900000Y-97205000D01*
X140900000Y-99205000D02*
X139500000Y-99205000D01*
X141600000Y-97904999D02*
X141600000Y-98505001D01*
X138800000Y-97904999D02*
G75*
G02*
X139500000Y-97205000I700000J-1D01*
G01*
X139500000Y-99205000D02*
G75*
G02*
X138800000Y-98505001I0J700000D01*
G01*
X140900000Y-97205000D02*
G75*
G02*
X141600000Y-97904999I1J-699999D01*
G01*
X141600000Y-98505001D02*
G75*
G02*
X140900000Y-99205000I-699999J0D01*
G01*
X138800000Y-91005001D02*
X138800000Y-90404999D01*
X139500000Y-89705000D02*
X140900000Y-89705000D01*
X140900000Y-91705000D02*
X139500000Y-91705000D01*
X141600000Y-90404999D02*
X141600000Y-91005001D01*
X138800000Y-90404999D02*
G75*
G02*
X139500000Y-89705000I700000J-1D01*
G01*
X139500000Y-91705000D02*
G75*
G02*
X138800000Y-91005001I0J700000D01*
G01*
X140900000Y-89705000D02*
G75*
G02*
X141600000Y-90404999I1J-699999D01*
G01*
X141600000Y-91005001D02*
G75*
G02*
X140900000Y-91705000I-699999J0D01*
G01*
X92985662Y-87405000D02*
X93418675Y-87655000D01*
X92985662Y-87905000D02*
X92985662Y-87405000D01*
X93418675Y-87655000D02*
X92985662Y-87905000D01*
X93880000Y-107620000D02*
X93880000Y-78770000D01*
X94940000Y-77710000D02*
X105440000Y-77710000D01*
X96180000Y-99426689D02*
X96180000Y-86963311D01*
X98128256Y-85328530D02*
X102828256Y-86157267D01*
X98128256Y-101061470D02*
X102828256Y-100232733D01*
X104200000Y-98597952D02*
X104200000Y-87792048D01*
X105440000Y-108680000D02*
X94940000Y-108680000D01*
X106500000Y-78770000D02*
X106500000Y-107620000D01*
X93880000Y-78770000D02*
G75*
G02*
X94940000Y-77710000I1060000J0D01*
G01*
X94940000Y-108680000D02*
G75*
G02*
X93880000Y-107620000I1J1060001D01*
G01*
X96180000Y-86963311D02*
G75*
G02*
X98128256Y-85328529I1660000J1D01*
G01*
X98128256Y-101061470D02*
G75*
G02*
X96180000Y-99426689I-288257J1634780D01*
G01*
X102828256Y-86157267D02*
G75*
G02*
X104200000Y-87792048I-288255J-1634780D01*
G01*
X104200000Y-98597952D02*
G75*
G02*
X102828256Y-100232733I-1659999J-1D01*
G01*
X105440000Y-77710000D02*
G75*
G02*
X106500000Y-78770000I0J-1060000D01*
G01*
X106500000Y-107620000D02*
G75*
G02*
X105440000Y-108680000I-1060001J1D01*
G01*
X173875662Y-87405000D02*
X174308675Y-87655000D01*
X173875662Y-87905000D02*
X173875662Y-87405000D01*
X174308675Y-87655000D02*
X173875662Y-87905000D01*
X174770000Y-107620000D02*
X174770000Y-78770000D01*
X175830000Y-77710000D02*
X186330000Y-77710000D01*
X177070000Y-99426689D02*
X177070000Y-86963311D01*
X179018256Y-85328530D02*
X183718256Y-86157267D01*
X179018256Y-101061470D02*
X183718256Y-100232733D01*
X185090000Y-98597952D02*
X185090000Y-87792048D01*
X186330000Y-108680000D02*
X175830000Y-108680000D01*
X187390000Y-78770000D02*
X187390000Y-107620000D01*
X174770000Y-78770000D02*
G75*
G02*
X175830000Y-77710000I1060000J0D01*
G01*
X175830000Y-108680000D02*
G75*
G02*
X174770000Y-107620000I1J1060001D01*
G01*
X177070000Y-86963311D02*
G75*
G02*
X179018256Y-85328529I1660000J1D01*
G01*
X179018256Y-101061470D02*
G75*
G02*
X177070000Y-99426689I-288257J1634780D01*
G01*
X183718256Y-86157267D02*
G75*
G02*
X185090000Y-87792048I-288255J-1634780D01*
G01*
X185090000Y-98597952D02*
G75*
G02*
X183718256Y-100232733I-1659999J-1D01*
G01*
X186330000Y-77710000D02*
G75*
G02*
X187390000Y-78770000I0J-1060000D01*
G01*
X187390000Y-107620000D02*
G75*
G02*
X186330000Y-108680000I-1060001J1D01*
G01*
X192849999Y-98540001D02*
X192849999Y-97939999D01*
X193549999Y-97240000D02*
X194949999Y-97240000D01*
X194949999Y-99240000D02*
X193549999Y-99240000D01*
X195649999Y-97939999D02*
X195649999Y-98540001D01*
X192849999Y-97939999D02*
G75*
G02*
X193549999Y-97240000I700000J-1D01*
G01*
X193549999Y-99240000D02*
G75*
G02*
X192849999Y-98540001I0J700000D01*
G01*
X194949999Y-97240000D02*
G75*
G02*
X195649999Y-97939999I1J-699999D01*
G01*
X195649999Y-98540001D02*
G75*
G02*
X194949999Y-99240000I-699999J0D01*
G01*
X119948995Y-87405000D02*
X120382008Y-87655000D01*
X119948995Y-87905000D02*
X119948995Y-87405000D01*
X120382008Y-87655000D02*
X119948995Y-87905000D01*
X120843333Y-107620000D02*
X120843333Y-78770000D01*
X121903333Y-77710000D02*
X132403333Y-77710000D01*
X123143333Y-99426689D02*
X123143333Y-86963311D01*
X125091589Y-85328530D02*
X129791589Y-86157267D01*
X125091589Y-101061470D02*
X129791589Y-100232733D01*
X131163333Y-98597952D02*
X131163333Y-87792048D01*
X132403333Y-108680000D02*
X121903333Y-108680000D01*
X133463333Y-78770000D02*
X133463333Y-107620000D01*
X120843333Y-78770000D02*
G75*
G02*
X121903333Y-77710000I1060000J0D01*
G01*
X121903333Y-108680000D02*
G75*
G02*
X120843333Y-107620000I1J1060001D01*
G01*
X123143333Y-86963311D02*
G75*
G02*
X125091589Y-85328529I1660000J1D01*
G01*
X125091589Y-101061470D02*
G75*
G02*
X123143333Y-99426689I-288257J1634780D01*
G01*
X129791589Y-86157267D02*
G75*
G02*
X131163333Y-87792048I-288255J-1634780D01*
G01*
X131163333Y-98597952D02*
G75*
G02*
X129791589Y-100232733I-1659999J-1D01*
G01*
X132403333Y-77710000D02*
G75*
G02*
X133463333Y-78770000I0J-1060000D01*
G01*
X133463333Y-107620000D02*
G75*
G02*
X132403333Y-108680000I-1060001J1D01*
G01*
X165349999Y-101040001D02*
X165349999Y-100439999D01*
X166049999Y-99740000D02*
X167449999Y-99740000D01*
X167449999Y-101740000D02*
X166049999Y-101740000D01*
X168149999Y-100439999D02*
X168149999Y-101040001D01*
X165349999Y-100439999D02*
G75*
G02*
X166049999Y-99740000I700000J-1D01*
G01*
X166049999Y-101740000D02*
G75*
G02*
X165349999Y-101040001I0J700000D01*
G01*
X167449999Y-99740000D02*
G75*
G02*
X168149999Y-100439999I1J-699999D01*
G01*
X168149999Y-101040001D02*
G75*
G02*
X167449999Y-101740000I-699999J0D01*
G01*
X165349999Y-88540001D02*
X165349999Y-87939999D01*
X166049999Y-87240000D02*
X167449999Y-87240000D01*
X167449999Y-89240000D02*
X166049999Y-89240000D01*
X168149999Y-87939999D02*
X168149999Y-88540001D01*
X165349999Y-87939999D02*
G75*
G02*
X166049999Y-87240000I700000J-1D01*
G01*
X166049999Y-89240000D02*
G75*
G02*
X165349999Y-88540001I0J700000D01*
G01*
X167449999Y-87240000D02*
G75*
G02*
X168149999Y-87939999I1J-699999D01*
G01*
X168149999Y-88540001D02*
G75*
G02*
X167449999Y-89240000I-699999J0D01*
G01*
X192849999Y-86040001D02*
X192849999Y-85439999D01*
X193549999Y-84740000D02*
X194949999Y-84740000D01*
X194949999Y-86740000D02*
X193549999Y-86740000D01*
X195649999Y-85439999D02*
X195649999Y-86040001D01*
X192849999Y-85439999D02*
G75*
G02*
X193549999Y-84740000I700000J-1D01*
G01*
X193549999Y-86740000D02*
G75*
G02*
X192849999Y-86040001I0J700000D01*
G01*
X194949999Y-84740000D02*
G75*
G02*
X195649999Y-85439999I1J-699999D01*
G01*
X195649999Y-86040001D02*
G75*
G02*
X194949999Y-86740000I-699999J0D01*
G01*
X111650000Y-87768377D02*
X111650000Y-87168375D01*
X112350000Y-86468376D02*
X113750000Y-86468376D01*
X113750000Y-88468376D02*
X112350000Y-88468376D01*
X114450000Y-87168375D02*
X114450000Y-87768377D01*
X111650000Y-87168375D02*
G75*
G02*
X112350000Y-86468376I700000J-1D01*
G01*
X112350000Y-88468376D02*
G75*
G02*
X111650000Y-87768377I0J700000D01*
G01*
X113750000Y-86468376D02*
G75*
G02*
X114450000Y-87168375I1J-699999D01*
G01*
X114450000Y-87768377D02*
G75*
G02*
X113750000Y-88468376I-699999J0D01*
G01*
X138800000Y-101005001D02*
X138800000Y-100404999D01*
X139500000Y-99705000D02*
X140900000Y-99705000D01*
X140900000Y-101705000D02*
X139500000Y-101705000D01*
X141600000Y-100404999D02*
X141600000Y-101005001D01*
X138800000Y-100404999D02*
G75*
G02*
X139500000Y-99705000I700000J-1D01*
G01*
X139500000Y-101705000D02*
G75*
G02*
X138800000Y-101005001I0J700000D01*
G01*
X140900000Y-99705000D02*
G75*
G02*
X141600000Y-100404999I1J-699999D01*
G01*
X141600000Y-101005001D02*
G75*
G02*
X140900000Y-101705000I-699999J0D01*
G01*
X111650000Y-90268374D02*
X111650000Y-89668372D01*
X112350000Y-88968373D02*
X113750000Y-88968373D01*
X113750000Y-90968373D02*
X112350000Y-90968373D01*
X114450000Y-89668372D02*
X114450000Y-90268374D01*
X111650000Y-89668372D02*
G75*
G02*
X112350000Y-88968373I700000J-1D01*
G01*
X112350000Y-90968373D02*
G75*
G02*
X111650000Y-90268374I0J700000D01*
G01*
X113750000Y-88968373D02*
G75*
G02*
X114450000Y-89668372I1J-699999D01*
G01*
X114450000Y-90268374D02*
G75*
G02*
X113750000Y-90968373I-699999J0D01*
G01*
X165349998Y-103540001D02*
X165349998Y-102939999D01*
X166049998Y-102240000D02*
X167449998Y-102240000D01*
X167449998Y-104240000D02*
X166049998Y-104240000D01*
X168149998Y-102939999D02*
X168149998Y-103540001D01*
X165349998Y-102939999D02*
G75*
G02*
X166049998Y-102240000I700000J-1D01*
G01*
X166049998Y-104240000D02*
G75*
G02*
X165349998Y-103540001I0J700000D01*
G01*
X167449998Y-102240000D02*
G75*
G02*
X168149998Y-102939999I1J-699999D01*
G01*
X168149998Y-103540001D02*
G75*
G02*
X167449998Y-104240000I-699999J0D01*
G01*
X138800000Y-103505001D02*
X138800000Y-102904999D01*
X139500000Y-102205000D02*
X140900000Y-102205000D01*
X140900000Y-104205000D02*
X139500000Y-104205000D01*
X141600000Y-102904999D02*
X141600000Y-103505001D01*
X138800000Y-102904999D02*
G75*
G02*
X139500000Y-102205000I700000J-1D01*
G01*
X139500000Y-104205000D02*
G75*
G02*
X138800000Y-103505001I0J700000D01*
G01*
X140900000Y-102205000D02*
G75*
G02*
X141600000Y-102904999I1J-699999D01*
G01*
X141600000Y-103505001D02*
G75*
G02*
X140900000Y-104205000I-699999J0D01*
G01*
X146912328Y-87405000D02*
X147345341Y-87655000D01*
X146912328Y-87905000D02*
X146912328Y-87405000D01*
X147345341Y-87655000D02*
X146912328Y-87905000D01*
X147806666Y-107620000D02*
X147806666Y-78770000D01*
X148866666Y-77710000D02*
X159366666Y-77710000D01*
X150106666Y-99426689D02*
X150106666Y-86963311D01*
X152054922Y-85328530D02*
X156754922Y-86157267D01*
X152054922Y-101061470D02*
X156754922Y-100232733D01*
X158126666Y-98597952D02*
X158126666Y-87792048D01*
X159366666Y-108680000D02*
X148866666Y-108680000D01*
X160426666Y-78770000D02*
X160426666Y-107620000D01*
X147806666Y-78770000D02*
G75*
G02*
X148866666Y-77710000I1060000J0D01*
G01*
X148866666Y-108680000D02*
G75*
G02*
X147806666Y-107620000I1J1060001D01*
G01*
X150106666Y-86963311D02*
G75*
G02*
X152054922Y-85328529I1660000J1D01*
G01*
X152054922Y-101061470D02*
G75*
G02*
X150106666Y-99426689I-288257J1634780D01*
G01*
X156754922Y-86157267D02*
G75*
G02*
X158126666Y-87792048I-288255J-1634780D01*
G01*
X158126666Y-98597952D02*
G75*
G02*
X156754922Y-100232733I-1659999J-1D01*
G01*
X159366666Y-77710000D02*
G75*
G02*
X160426666Y-78770000I0J-1060000D01*
G01*
X160426666Y-107620000D02*
G75*
G02*
X159366666Y-108680000I-1060001J1D01*
G01*
X165349999Y-86040001D02*
X165349999Y-85439999D01*
X166049999Y-84740000D02*
X167449999Y-84740000D01*
X167449999Y-86740000D02*
X166049999Y-86740000D01*
X168149999Y-85439999D02*
X168149999Y-86040001D01*
X165349999Y-85439999D02*
G75*
G02*
X166049999Y-84740000I700000J-1D01*
G01*
X166049999Y-86740000D02*
G75*
G02*
X165349999Y-86040001I0J700000D01*
G01*
X167449999Y-84740000D02*
G75*
G02*
X168149999Y-85439999I1J-699999D01*
G01*
X168149999Y-86040001D02*
G75*
G02*
X167449999Y-86740000I-699999J0D01*
G01*
X192849999Y-83540001D02*
X192849999Y-82939999D01*
X193549999Y-82240000D02*
X194949999Y-82240000D01*
X194949999Y-84240000D02*
X193549999Y-84240000D01*
X195649999Y-82939999D02*
X195649999Y-83540001D01*
X192849999Y-82939999D02*
G75*
G02*
X193549999Y-82240000I700000J-1D01*
G01*
X193549999Y-84240000D02*
G75*
G02*
X192849999Y-83540001I0J700000D01*
G01*
X194949999Y-82240000D02*
G75*
G02*
X195649999Y-82939999I1J-699999D01*
G01*
X195649999Y-83540001D02*
G75*
G02*
X194949999Y-84240000I-699999J0D01*
G01*
X138800000Y-86005001D02*
X138800000Y-85404999D01*
X139500000Y-84705000D02*
X140900000Y-84705000D01*
X140900000Y-86705000D02*
X139500000Y-86705000D01*
X141600000Y-85404999D02*
X141600000Y-86005001D01*
X138800000Y-85404999D02*
G75*
G02*
X139500000Y-84705000I700000J-1D01*
G01*
X139500000Y-86705000D02*
G75*
G02*
X138800000Y-86005001I0J700000D01*
G01*
X140900000Y-84705000D02*
G75*
G02*
X141600000Y-85404999I1J-699999D01*
G01*
X141600000Y-86005001D02*
G75*
G02*
X140900000Y-86705000I-699999J0D01*
G01*
X111700001Y-102768376D02*
X111700001Y-102168374D01*
X112400001Y-101468375D02*
X113800001Y-101468375D01*
X113800001Y-103468375D02*
X112400001Y-103468375D01*
X114500001Y-102168374D02*
X114500001Y-102768376D01*
X111700001Y-102168374D02*
G75*
G02*
X112400001Y-101468375I700000J-1D01*
G01*
X112400001Y-103468375D02*
G75*
G02*
X111700001Y-102768376I0J700000D01*
G01*
X113800001Y-101468375D02*
G75*
G02*
X114500001Y-102168374I1J-699999D01*
G01*
X114500001Y-102768376D02*
G75*
G02*
X113800001Y-103468375I-699999J0D01*
G01*
X192849999Y-103540001D02*
X192849999Y-102939999D01*
X193549999Y-102240000D02*
X194949999Y-102240000D01*
X194949999Y-104240000D02*
X193549999Y-104240000D01*
X195649999Y-102939999D02*
X195649999Y-103540001D01*
X192849999Y-102939999D02*
G75*
G02*
X193549999Y-102240000I700000J-1D01*
G01*
X193549999Y-104240000D02*
G75*
G02*
X192849999Y-103540001I0J700000D01*
G01*
X194949999Y-102240000D02*
G75*
G02*
X195649999Y-102939999I1J-699999D01*
G01*
X195649999Y-103540001D02*
G75*
G02*
X194949999Y-104240000I-699999J0D01*
G01*
X165349999Y-96040001D02*
X165349999Y-95439999D01*
X166049999Y-94740000D02*
X167449999Y-94740000D01*
X167449999Y-96740000D02*
X166049999Y-96740000D01*
X168149999Y-95439999D02*
X168149999Y-96040001D01*
X165349999Y-95439999D02*
G75*
G02*
X166049999Y-94740000I700000J-1D01*
G01*
X166049999Y-96740000D02*
G75*
G02*
X165349999Y-96040001I0J700000D01*
G01*
X167449999Y-94740000D02*
G75*
G02*
X168149999Y-95439999I1J-699999D01*
G01*
X168149999Y-96040001D02*
G75*
G02*
X167449999Y-96740000I-699999J0D01*
G01*
X165349999Y-93540001D02*
X165349999Y-92939999D01*
X166049999Y-92240000D02*
X167449999Y-92240000D01*
X167449999Y-94240000D02*
X166049999Y-94240000D01*
X168149999Y-92939999D02*
X168149999Y-93540001D01*
X165349999Y-92939999D02*
G75*
G02*
X166049999Y-92240000I700000J-1D01*
G01*
X166049999Y-94240000D02*
G75*
G02*
X165349999Y-93540001I0J700000D01*
G01*
X167449999Y-92240000D02*
G75*
G02*
X168149999Y-92939999I1J-699999D01*
G01*
X168149999Y-93540001D02*
G75*
G02*
X167449999Y-94240000I-699999J0D01*
G01*
X165349999Y-91040001D02*
X165349999Y-90439999D01*
X166049999Y-89740000D02*
X167449999Y-89740000D01*
X167449999Y-91740000D02*
X166049999Y-91740000D01*
X168149999Y-90439999D02*
X168149999Y-91040001D01*
X165349999Y-90439999D02*
G75*
G02*
X166049999Y-89740000I700000J-1D01*
G01*
X166049999Y-91740000D02*
G75*
G02*
X165349999Y-91040001I0J700000D01*
G01*
X167449999Y-89740000D02*
G75*
G02*
X168149999Y-90439999I1J-699999D01*
G01*
X168149999Y-91040001D02*
G75*
G02*
X167449999Y-91740000I-699999J0D01*
G01*
X200750000Y-90765000D02*
X200594000Y-90765000D01*
X203066000Y-90765000D02*
X202910000Y-90765000D01*
X200749939Y-93996397D02*
G75*
G02*
X200594484Y-90765000I1080061J1671397D01*
G01*
X200749951Y-93365910D02*
G75*
G02*
X200750000Y-91284039I1080049J1040910D01*
G01*
X202910000Y-91284039D02*
G75*
G02*
X202910049Y-93365910I-1080000J-1040961D01*
G01*
X203065516Y-90765000D02*
G75*
G02*
X202910061Y-93996397I-1235516J-1560000D01*
G01*
X111700001Y-100268376D02*
X111700001Y-99668374D01*
X112400001Y-98968375D02*
X113800001Y-98968375D01*
X113800001Y-100968375D02*
X112400001Y-100968375D01*
X114500001Y-99668374D02*
X114500001Y-100268376D01*
X111700001Y-99668374D02*
G75*
G02*
X112400001Y-98968375I700000J-1D01*
G01*
X112400001Y-100968375D02*
G75*
G02*
X111700001Y-100268376I0J700000D01*
G01*
X113800001Y-98968375D02*
G75*
G02*
X114500001Y-99668374I1J-699999D01*
G01*
X114500001Y-100268376D02*
G75*
G02*
X113800001Y-100968375I-699999J0D01*
G01*
X111700000Y-97768377D02*
X111700000Y-97168375D01*
X112400000Y-96468376D02*
X113800000Y-96468376D01*
X113800000Y-98468376D02*
X112400000Y-98468376D01*
X114500000Y-97168375D02*
X114500000Y-97768377D01*
X111700000Y-97168375D02*
G75*
G02*
X112400000Y-96468376I700000J-1D01*
G01*
X112400000Y-98468376D02*
G75*
G02*
X111700000Y-97768377I0J700000D01*
G01*
X113800000Y-96468376D02*
G75*
G02*
X114500000Y-97168375I1J-699999D01*
G01*
X114500000Y-97768377D02*
G75*
G02*
X113800000Y-98468376I-699999J0D01*
G01*
X138800000Y-83505001D02*
X138800000Y-82904999D01*
X139500000Y-82205000D02*
X140900000Y-82205000D01*
X140900000Y-84205000D02*
X139500000Y-84205000D01*
X141600000Y-82904999D02*
X141600000Y-83505001D01*
X138800000Y-82904999D02*
G75*
G02*
X139500000Y-82205000I700000J-1D01*
G01*
X139500000Y-84205000D02*
G75*
G02*
X138800000Y-83505001I0J700000D01*
G01*
X140900000Y-82205000D02*
G75*
G02*
X141600000Y-82904999I1J-699999D01*
G01*
X141600000Y-83505001D02*
G75*
G02*
X140900000Y-84205000I-699999J0D01*
G01*
X138800000Y-93505001D02*
X138800000Y-92904999D01*
X139500000Y-92205000D02*
X140900000Y-92205000D01*
X140900000Y-94205000D02*
X139500000Y-94205000D01*
X141600000Y-92904999D02*
X141600000Y-93505001D01*
X138800000Y-92904999D02*
G75*
G02*
X139500000Y-92205000I700000J-1D01*
G01*
X139500000Y-94205000D02*
G75*
G02*
X138800000Y-93505001I0J700000D01*
G01*
X140900000Y-92205000D02*
G75*
G02*
X141600000Y-92904999I1J-699999D01*
G01*
X141600000Y-93505001D02*
G75*
G02*
X140900000Y-94205000I-699999J0D01*
G01*
X111650000Y-95268374D02*
X111650000Y-94668372D01*
X112350000Y-93968373D02*
X113750000Y-93968373D01*
X113750000Y-95968373D02*
X112350000Y-95968373D01*
X114450000Y-94668372D02*
X114450000Y-95268374D01*
X111650000Y-94668372D02*
G75*
G02*
X112350000Y-93968373I700000J-1D01*
G01*
X112350000Y-95968373D02*
G75*
G02*
X111650000Y-95268374I0J700000D01*
G01*
X113750000Y-93968373D02*
G75*
G02*
X114450000Y-94668372I1J-699999D01*
G01*
X114450000Y-95268374D02*
G75*
G02*
X113750000Y-95968373I-699999J0D01*
G01*
X165349999Y-83540001D02*
X165349999Y-82939999D01*
X166049999Y-82240000D02*
X167449999Y-82240000D01*
X167449999Y-84240000D02*
X166049999Y-84240000D01*
X168149999Y-82939999D02*
X168149999Y-83540001D01*
X165349999Y-82939999D02*
G75*
G02*
X166049999Y-82240000I700000J-1D01*
G01*
X166049999Y-84240000D02*
G75*
G02*
X165349999Y-83540001I0J700000D01*
G01*
X167449999Y-82240000D02*
G75*
G02*
X168149999Y-82939999I1J-699999D01*
G01*
X168149999Y-83540001D02*
G75*
G02*
X167449999Y-84240000I-699999J0D01*
G01*
X192849999Y-96040001D02*
X192849999Y-95439999D01*
X193549999Y-94740000D02*
X194949999Y-94740000D01*
X194949999Y-96740000D02*
X193549999Y-96740000D01*
X195649999Y-95439999D02*
X195649999Y-96040001D01*
X192849999Y-95439999D02*
G75*
G02*
X193549999Y-94740000I700000J-1D01*
G01*
X193549999Y-96740000D02*
G75*
G02*
X192849999Y-96040001I0J700000D01*
G01*
X194949999Y-94740000D02*
G75*
G02*
X195649999Y-95439999I1J-699999D01*
G01*
X195649999Y-96040001D02*
G75*
G02*
X194949999Y-96740000I-699999J0D01*
G01*
X111650000Y-85268377D02*
X111650000Y-84668375D01*
X112350000Y-83968376D02*
X113750000Y-83968376D01*
X113750000Y-85968376D02*
X112350000Y-85968376D01*
X114450000Y-84668375D02*
X114450000Y-85268377D01*
X111650000Y-84668375D02*
G75*
G02*
X112350000Y-83968376I700000J-1D01*
G01*
X112350000Y-85968376D02*
G75*
G02*
X111650000Y-85268377I0J700000D01*
G01*
X113750000Y-83968376D02*
G75*
G02*
X114450000Y-84668375I1J-699999D01*
G01*
X114450000Y-85268377D02*
G75*
G02*
X113750000Y-85968376I-699999J0D01*
G01*
%LPC*%
D12*
X140849999Y-95705000D03*
D13*
X139550001Y-95705000D03*
D12*
X113699999Y-82468375D03*
D13*
X112400001Y-82468375D03*
D14*
X211830000Y-91055000D03*
D15*
X211830000Y-93595000D03*
D12*
X140849999Y-88205000D03*
D13*
X139550001Y-88205000D03*
D12*
X113699999Y-92468373D03*
D13*
X112400001Y-92468373D03*
D12*
X167399998Y-98240000D03*
D13*
X166100000Y-98240000D03*
D12*
X194899998Y-100740000D03*
D13*
X193600000Y-100740000D03*
D14*
X221830000Y-91055000D03*
D15*
X221830000Y-93595000D03*
D12*
X194899998Y-88240000D03*
D13*
X193600000Y-88240000D03*
D12*
X194899998Y-90740000D03*
D13*
X193600000Y-90740000D03*
D12*
X194899998Y-93240000D03*
D13*
X193600000Y-93240000D03*
D12*
X140849999Y-98205000D03*
D13*
X139550001Y-98205000D03*
D12*
X140849999Y-90705000D03*
D13*
X139550001Y-90705000D03*
D16*
X100190000Y-105695000D03*
X100190000Y-80695000D03*
D17*
X98770000Y-87655000D03*
D18*
X98770000Y-90425000D03*
X98770000Y-93195000D03*
X98770000Y-95965000D03*
X98770000Y-98735000D03*
X101610000Y-89040000D03*
X101610000Y-91810000D03*
X101610000Y-94580000D03*
X101610000Y-97350000D03*
D16*
X181080000Y-105695000D03*
X181080000Y-80695000D03*
D17*
X179660000Y-87655000D03*
D18*
X179660000Y-90425000D03*
X179660000Y-93195000D03*
X179660000Y-95965000D03*
X179660000Y-98735000D03*
X182500000Y-89040000D03*
X182500000Y-91810000D03*
X182500000Y-94580000D03*
X182500000Y-97350000D03*
D12*
X194899998Y-98240000D03*
D13*
X193600000Y-98240000D03*
D16*
X127153333Y-105695000D03*
X127153333Y-80695000D03*
D17*
X125733333Y-87655000D03*
D18*
X125733333Y-90425000D03*
X125733333Y-93195000D03*
X125733333Y-95965000D03*
X125733333Y-98735000D03*
X128573333Y-89040000D03*
X128573333Y-91810000D03*
X128573333Y-94580000D03*
X128573333Y-97350000D03*
D12*
X167399998Y-100740000D03*
D13*
X166100000Y-100740000D03*
D12*
X167399998Y-88240000D03*
D13*
X166100000Y-88240000D03*
D12*
X194899998Y-85740000D03*
D13*
X193600000Y-85740000D03*
D12*
X113699999Y-87468376D03*
D13*
X112400001Y-87468376D03*
D12*
X140849999Y-100705000D03*
D13*
X139550001Y-100705000D03*
D12*
X113699999Y-89968373D03*
D13*
X112400001Y-89968373D03*
D12*
X167399997Y-103240000D03*
D13*
X166099999Y-103240000D03*
D12*
X140849999Y-103205000D03*
D13*
X139550001Y-103205000D03*
D16*
X154116666Y-105695000D03*
X154116666Y-80695000D03*
D17*
X152696666Y-87655000D03*
D18*
X152696666Y-90425000D03*
X152696666Y-93195000D03*
X152696666Y-95965000D03*
X152696666Y-98735000D03*
X155536666Y-89040000D03*
X155536666Y-91810000D03*
X155536666Y-94580000D03*
X155536666Y-97350000D03*
D12*
X167399998Y-85740000D03*
D13*
X166100000Y-85740000D03*
D12*
X194899998Y-83240000D03*
D13*
X193600000Y-83240000D03*
D12*
X140849999Y-85705000D03*
D13*
X139550001Y-85705000D03*
D12*
X113750000Y-102468375D03*
D13*
X112450002Y-102468375D03*
D12*
X194899998Y-103240000D03*
D13*
X193600000Y-103240000D03*
D12*
X167399998Y-95740000D03*
D13*
X166100000Y-95740000D03*
D12*
X167399998Y-93240000D03*
D13*
X166100000Y-93240000D03*
D12*
X167399998Y-90740000D03*
D13*
X166100000Y-90740000D03*
D14*
X201830000Y-91055000D03*
D15*
X201830000Y-93595000D03*
D12*
X113750000Y-99968375D03*
D13*
X112450002Y-99968375D03*
D12*
X113749999Y-97468376D03*
D13*
X112450001Y-97468376D03*
D12*
X140849999Y-83205000D03*
D13*
X139550001Y-83205000D03*
D12*
X140849999Y-93205000D03*
D13*
X139550001Y-93205000D03*
D12*
X113699999Y-94968373D03*
D13*
X112400001Y-94968373D03*
D12*
X167399998Y-83240000D03*
D13*
X166100000Y-83240000D03*
D12*
X194899998Y-95740000D03*
D13*
X193600000Y-95740000D03*
D12*
X113699999Y-84968376D03*
D13*
X112400001Y-84968376D03*
D19*
X222590001Y-101710000D03*
X205020001Y-101710000D03*
D20*
X206820001Y-103190000D03*
D21*
X208090001Y-105730000D03*
X209360001Y-103190000D03*
X210630001Y-105730000D03*
X211900000Y-103190000D03*
X213170001Y-105730000D03*
X214440001Y-103190000D03*
X215710001Y-105730000D03*
X216980001Y-103190000D03*
X218250001Y-105730000D03*
X219520001Y-103190000D03*
X220790001Y-105730000D03*
%LPD*%
M02*
