M48
METRIC,TZ
T1C0.400
T2C0.600
T3C0.800
T4C0.890
T5C1.000
T6C1.570
T7C1.600
%
G90
G05
T1
X32650Y-78650
X36000Y-85600
X36650Y-78400
X37400Y-85650
X37400Y-90150
X38150Y-37400
X40400Y-40400
X42650Y-85900
X43150Y-98900
X43400Y-92650
X44400Y-67150
X44900Y-50150
X45400Y-40400
X45650Y-74900
X46150Y-92650
X46900Y-97150
X48150Y-49650
X50650Y-40400
X50650Y-84150
X51400Y-92650
X51900Y-99900
X53650Y-50150
X55150Y-92650
X55400Y-87400
X55650Y-81400
X55900Y-91400
X57900Y-92650
X59463Y-86212
X59475Y-90650
X61650Y-85900
X61900Y-90650
X65150Y-85900
X69650Y-91650
X70650Y-86400
X72450Y-95400
X75150Y-85400
X78900Y-43650
X80400Y-84150
X87150Y-84150
X87150Y-85400
X87150Y-86900
X87223Y-87900
X87900Y-97650
X92900Y-89450
X97150Y-89650
X97150Y-95650
X97300Y-86500
X97400Y-44650
X97525Y-97025
X97900Y-91900
X99900Y-79100
X100150Y-85650
X101900Y-70400
X101900Y-85650
X101900Y-88900
X102900Y-78150
X102900Y-80400
X103900Y-70400
X104450Y-52100
X104750Y-40300
X106400Y-73900
X106650Y-39650
X106900Y-45900
X107150Y-50650
X107150Y-93150
X107300Y-86700
X109650Y-73900
X111500Y-90000
X111650Y-41650
X111650Y-44400
X111650Y-48900
X111900Y-86650
X112050Y-92350
X112400Y-73900
X113650Y-78400
X114900Y-73900
X116150Y-48400
X116150Y-78400
X116650Y-72900
X117650Y-50650
X118150Y-72150
X119400Y-41650
X119650Y-78400
X120900Y-44150
X122150Y-45150
X125400Y-75650
X126900Y-49400
X128150Y-47400
X128900Y-75650
X129400Y-51900
X131650Y-96150
X132650Y-75650
X133150Y-44900
X135150Y-98150
X137900Y-89400
X138650Y-75650
X139150Y-98150
X142400Y-91900
X142650Y-42400
X142650Y-44650
X142650Y-85900
X142650Y-87400
X143900Y-98150
X145650Y-58900
X145650Y-63150
X145650Y-66400
X145650Y-69900
X145650Y-76400
X145650Y-78900
X148650Y-39150
X148900Y-72900
X148900Y-76400
X150840Y-41090
X152100Y-96500
X152150Y-45650
X152150Y-93400
X152400Y-43400
X157100Y-47400
X157150Y-89400
X161900Y-47400
X166400Y-48900
T2
X34800Y-100100
X34800Y-101600
X48500Y-83800
X48500Y-85300
X61500Y-61840
X62200Y-55940
X62200Y-57440
X63000Y-61840
X75240Y-55920
X75240Y-57420
T3
X84100Y-84000
X84100Y-89000
X87900Y-55400
X87900Y-60400
X90400Y-41400
X90400Y-44400
X90400Y-47400
X90400Y-50400
X90400Y-86400
X90400Y-89400
X90400Y-92400
X90400Y-95400
X91400Y-78400
X94900Y-78400
X95400Y-41400
X95400Y-44400
X95400Y-47400
X95400Y-50400
X95400Y-86400
X95400Y-89400
X95400Y-92400
X95400Y-95400
X109150Y-41400
X109150Y-44400
X109150Y-47400
X109150Y-50400
X109400Y-86400
X109400Y-89400
X109400Y-92400
X109400Y-95400
X114150Y-41400
X114150Y-44400
X114150Y-47400
X114150Y-50400
X114400Y-86400
X114400Y-89400
X114400Y-92400
X114400Y-95400
X124400Y-47400
X124400Y-50900
X135400Y-41400
X135400Y-44400
X135400Y-47400
X135400Y-50400
X135400Y-86400
X135400Y-89400
X135400Y-92400
X135400Y-95400
X140400Y-41400
X140400Y-44400
X140400Y-47400
X140400Y-50400
X140400Y-86400
X140400Y-89400
X140400Y-92400
X140400Y-95400
X141740Y-62400
X141740Y-65900
X141740Y-69400
X141740Y-72900
X141740Y-76400
X151900Y-62400
X151900Y-65900
X151900Y-69400
X151900Y-72900
X151900Y-76400
X154400Y-41400
X154400Y-44400
X154400Y-47400
X154400Y-50400
X154400Y-86400
X154400Y-89400
X154400Y-92400
X154400Y-95400
X159400Y-41400
X159400Y-44400
X159400Y-47400
X159400Y-50400
X159400Y-86400
X159400Y-89400
X159400Y-92400
X159400Y-95400
X162900Y-55900
X166400Y-55900
X169900Y-91900
X173400Y-91900
T4
X40580Y-96170
X42870Y-96170
X43888Y-100990
X44904Y-102770
X45920Y-100990
X46936Y-102770
X47952Y-100990
X48968Y-102770
X49984Y-100990
X51000Y-102770
X52010Y-96170
X54300Y-96170
X56330Y-96170
X58620Y-96170
X59638Y-100990
X60654Y-102770
X61670Y-100990
X62686Y-102770
X63702Y-100990
X64718Y-102770
X65734Y-100990
X66750Y-102770
X67760Y-96170
X70050Y-96170
T5
X36915Y-63900
X65415Y-48650
X71315Y-48565
X82530Y-93070
X82530Y-95610
X83400Y-52150
X107540Y-55750
X107540Y-81150
X110080Y-55750
X110080Y-81150
X112620Y-55750
X112620Y-81150
X115160Y-55750
X115160Y-81150
X117700Y-55750
X117700Y-81150
X120240Y-55750
X120240Y-81150
X122780Y-55750
X122780Y-81150
X125320Y-55750
X125320Y-81150
X127860Y-55750
X127860Y-81150
X129400Y-32400
X130400Y-55750
X130400Y-81150
X132940Y-55750
X132940Y-81150
X135480Y-55750
X135480Y-81150
X138020Y-55750
X138020Y-81150
X140560Y-55750
X140560Y-81150
X143100Y-55750
X143100Y-81150
X145640Y-55750
X145640Y-81150
X148180Y-55750
X148180Y-81150
X150720Y-55750
X150720Y-81150
X153260Y-55750
X153260Y-81150
X157400Y-64400
X157400Y-66940
X157400Y-69480
X157400Y-72020
X157400Y-74560
X157400Y-77100
T6
X39320Y-101880
X71320Y-101880
T7
X29580Y-35450
X34660Y-35450
X39740Y-35450
X44820Y-35450
X49900Y-35450
X54980Y-35450
X60060Y-35450
X65140Y-35450
X70220Y-35450
X82580Y-35450
X82580Y-101450
X87660Y-35450
X87660Y-101450
X92740Y-35450
X92740Y-101450
X97820Y-35450
X97820Y-101450
X102900Y-35450
X102900Y-101450
X107980Y-35450
X107980Y-101450
X113060Y-35450
X113060Y-101450
X118140Y-35450
X118140Y-101450
X123220Y-35450
X123220Y-101450
X135580Y-35450
X136080Y-101450
X140660Y-35450
X141160Y-101450
X145740Y-35450
X146240Y-101450
X150820Y-35450
X151320Y-101450
X155900Y-35450
X156400Y-101450
X160980Y-35450
X161480Y-101450
X166060Y-35450
X166560Y-101450
X171140Y-35450
X171640Y-101450
X176220Y-35450
X176720Y-101450
T0
M30
