%TF.GenerationSoftware,KiCad,Pcbnew,(5.1.12)-1*%
%TF.CreationDate,2023-05-21T12:59:29+02:00*%
%TF.ProjectId,roomcontroller,726f6f6d-636f-46e7-9472-6f6c6c65722e,rev?*%
%TF.SameCoordinates,Original*%
%TF.FileFunction,Paste,Top*%
%TF.FilePolarity,Positive*%
%FSLAX46Y46*%
G04 Gerber Fmt 4.6, Leading zero omitted, Abs format (unit mm)*
G04 Created by KiCad (PCBNEW (5.1.12)-1) date 2023-05-21 12:59:29*
%MOMM*%
%LPD*%
G01*
G04 APERTURE LIST*
%ADD10R,0.700000X0.640000*%
%ADD11R,0.700000X0.500000*%
%ADD12R,5.400000X2.900000*%
%ADD13R,3.200000X2.000000*%
%ADD14R,0.650000X1.220000*%
%ADD15R,0.800000X0.900000*%
%ADD16R,4.550000X5.250000*%
%ADD17R,4.600000X1.100000*%
%ADD18R,0.900000X1.200000*%
G04 APERTURE END LIST*
%TO.C,D6*%
G36*
G01*
X161450000Y-63693750D02*
X161450000Y-64606250D01*
G75*
G02*
X161206250Y-64850000I-243750J0D01*
G01*
X160718750Y-64850000D01*
G75*
G02*
X160475000Y-64606250I0J243750D01*
G01*
X160475000Y-63693750D01*
G75*
G02*
X160718750Y-63450000I243750J0D01*
G01*
X161206250Y-63450000D01*
G75*
G02*
X161450000Y-63693750I0J-243750D01*
G01*
G37*
G36*
G01*
X163325000Y-63693750D02*
X163325000Y-64606250D01*
G75*
G02*
X163081250Y-64850000I-243750J0D01*
G01*
X162593750Y-64850000D01*
G75*
G02*
X162350000Y-64606250I0J243750D01*
G01*
X162350000Y-63693750D01*
G75*
G02*
X162593750Y-63450000I243750J0D01*
G01*
X163081250Y-63450000D01*
G75*
G02*
X163325000Y-63693750I0J-243750D01*
G01*
G37*
%TD*%
%TO.C,D5*%
G36*
G01*
X161512500Y-66443750D02*
X161512500Y-67356250D01*
G75*
G02*
X161268750Y-67600000I-243750J0D01*
G01*
X160781250Y-67600000D01*
G75*
G02*
X160537500Y-67356250I0J243750D01*
G01*
X160537500Y-66443750D01*
G75*
G02*
X160781250Y-66200000I243750J0D01*
G01*
X161268750Y-66200000D01*
G75*
G02*
X161512500Y-66443750I0J-243750D01*
G01*
G37*
G36*
G01*
X163387500Y-66443750D02*
X163387500Y-67356250D01*
G75*
G02*
X163143750Y-67600000I-243750J0D01*
G01*
X162656250Y-67600000D01*
G75*
G02*
X162412500Y-67356250I0J243750D01*
G01*
X162412500Y-66443750D01*
G75*
G02*
X162656250Y-66200000I243750J0D01*
G01*
X163143750Y-66200000D01*
G75*
G02*
X163387500Y-66443750I0J-243750D01*
G01*
G37*
%TD*%
%TO.C,D4*%
G36*
G01*
X161450000Y-69193750D02*
X161450000Y-70106250D01*
G75*
G02*
X161206250Y-70350000I-243750J0D01*
G01*
X160718750Y-70350000D01*
G75*
G02*
X160475000Y-70106250I0J243750D01*
G01*
X160475000Y-69193750D01*
G75*
G02*
X160718750Y-68950000I243750J0D01*
G01*
X161206250Y-68950000D01*
G75*
G02*
X161450000Y-69193750I0J-243750D01*
G01*
G37*
G36*
G01*
X163325000Y-69193750D02*
X163325000Y-70106250D01*
G75*
G02*
X163081250Y-70350000I-243750J0D01*
G01*
X162593750Y-70350000D01*
G75*
G02*
X162350000Y-70106250I0J243750D01*
G01*
X162350000Y-69193750D01*
G75*
G02*
X162593750Y-68950000I243750J0D01*
G01*
X163081250Y-68950000D01*
G75*
G02*
X163325000Y-69193750I0J-243750D01*
G01*
G37*
%TD*%
%TO.C,D3*%
G36*
G01*
X161450000Y-74193750D02*
X161450000Y-75106250D01*
G75*
G02*
X161206250Y-75350000I-243750J0D01*
G01*
X160718750Y-75350000D01*
G75*
G02*
X160475000Y-75106250I0J243750D01*
G01*
X160475000Y-74193750D01*
G75*
G02*
X160718750Y-73950000I243750J0D01*
G01*
X161206250Y-73950000D01*
G75*
G02*
X161450000Y-74193750I0J-243750D01*
G01*
G37*
G36*
G01*
X163325000Y-74193750D02*
X163325000Y-75106250D01*
G75*
G02*
X163081250Y-75350000I-243750J0D01*
G01*
X162593750Y-75350000D01*
G75*
G02*
X162350000Y-75106250I0J243750D01*
G01*
X162350000Y-74193750D01*
G75*
G02*
X162593750Y-73950000I243750J0D01*
G01*
X163081250Y-73950000D01*
G75*
G02*
X163325000Y-74193750I0J-243750D01*
G01*
G37*
%TD*%
%TO.C,D2*%
G36*
G01*
X161450000Y-76693750D02*
X161450000Y-77606250D01*
G75*
G02*
X161206250Y-77850000I-243750J0D01*
G01*
X160718750Y-77850000D01*
G75*
G02*
X160475000Y-77606250I0J243750D01*
G01*
X160475000Y-76693750D01*
G75*
G02*
X160718750Y-76450000I243750J0D01*
G01*
X161206250Y-76450000D01*
G75*
G02*
X161450000Y-76693750I0J-243750D01*
G01*
G37*
G36*
G01*
X163325000Y-76693750D02*
X163325000Y-77606250D01*
G75*
G02*
X163081250Y-77850000I-243750J0D01*
G01*
X162593750Y-77850000D01*
G75*
G02*
X162350000Y-77606250I0J243750D01*
G01*
X162350000Y-76693750D01*
G75*
G02*
X162593750Y-76450000I243750J0D01*
G01*
X163081250Y-76450000D01*
G75*
G02*
X163325000Y-76693750I0J-243750D01*
G01*
G37*
%TD*%
%TO.C,U4*%
G36*
G01*
X149100000Y-42105000D02*
X149100000Y-41805000D01*
G75*
G02*
X149250000Y-41655000I150000J0D01*
G01*
X150700000Y-41655000D01*
G75*
G02*
X150850000Y-41805000I0J-150000D01*
G01*
X150850000Y-42105000D01*
G75*
G02*
X150700000Y-42255000I-150000J0D01*
G01*
X149250000Y-42255000D01*
G75*
G02*
X149100000Y-42105000I0J150000D01*
G01*
G37*
G36*
G01*
X149100000Y-43375000D02*
X149100000Y-43075000D01*
G75*
G02*
X149250000Y-42925000I150000J0D01*
G01*
X150700000Y-42925000D01*
G75*
G02*
X150850000Y-43075000I0J-150000D01*
G01*
X150850000Y-43375000D01*
G75*
G02*
X150700000Y-43525000I-150000J0D01*
G01*
X149250000Y-43525000D01*
G75*
G02*
X149100000Y-43375000I0J150000D01*
G01*
G37*
G36*
G01*
X149100000Y-44645000D02*
X149100000Y-44345000D01*
G75*
G02*
X149250000Y-44195000I150000J0D01*
G01*
X150700000Y-44195000D01*
G75*
G02*
X150850000Y-44345000I0J-150000D01*
G01*
X150850000Y-44645000D01*
G75*
G02*
X150700000Y-44795000I-150000J0D01*
G01*
X149250000Y-44795000D01*
G75*
G02*
X149100000Y-44645000I0J150000D01*
G01*
G37*
G36*
G01*
X149100000Y-45915000D02*
X149100000Y-45615000D01*
G75*
G02*
X149250000Y-45465000I150000J0D01*
G01*
X150700000Y-45465000D01*
G75*
G02*
X150850000Y-45615000I0J-150000D01*
G01*
X150850000Y-45915000D01*
G75*
G02*
X150700000Y-46065000I-150000J0D01*
G01*
X149250000Y-46065000D01*
G75*
G02*
X149100000Y-45915000I0J150000D01*
G01*
G37*
G36*
G01*
X149100000Y-47185000D02*
X149100000Y-46885000D01*
G75*
G02*
X149250000Y-46735000I150000J0D01*
G01*
X150700000Y-46735000D01*
G75*
G02*
X150850000Y-46885000I0J-150000D01*
G01*
X150850000Y-47185000D01*
G75*
G02*
X150700000Y-47335000I-150000J0D01*
G01*
X149250000Y-47335000D01*
G75*
G02*
X149100000Y-47185000I0J150000D01*
G01*
G37*
G36*
G01*
X149100000Y-48455000D02*
X149100000Y-48155000D01*
G75*
G02*
X149250000Y-48005000I150000J0D01*
G01*
X150700000Y-48005000D01*
G75*
G02*
X150850000Y-48155000I0J-150000D01*
G01*
X150850000Y-48455000D01*
G75*
G02*
X150700000Y-48605000I-150000J0D01*
G01*
X149250000Y-48605000D01*
G75*
G02*
X149100000Y-48455000I0J150000D01*
G01*
G37*
G36*
G01*
X149100000Y-49725000D02*
X149100000Y-49425000D01*
G75*
G02*
X149250000Y-49275000I150000J0D01*
G01*
X150700000Y-49275000D01*
G75*
G02*
X150850000Y-49425000I0J-150000D01*
G01*
X150850000Y-49725000D01*
G75*
G02*
X150700000Y-49875000I-150000J0D01*
G01*
X149250000Y-49875000D01*
G75*
G02*
X149100000Y-49725000I0J150000D01*
G01*
G37*
G36*
G01*
X149100000Y-50995000D02*
X149100000Y-50695000D01*
G75*
G02*
X149250000Y-50545000I150000J0D01*
G01*
X150700000Y-50545000D01*
G75*
G02*
X150850000Y-50695000I0J-150000D01*
G01*
X150850000Y-50995000D01*
G75*
G02*
X150700000Y-51145000I-150000J0D01*
G01*
X149250000Y-51145000D01*
G75*
G02*
X149100000Y-50995000I0J150000D01*
G01*
G37*
G36*
G01*
X143950000Y-50995000D02*
X143950000Y-50695000D01*
G75*
G02*
X144100000Y-50545000I150000J0D01*
G01*
X145550000Y-50545000D01*
G75*
G02*
X145700000Y-50695000I0J-150000D01*
G01*
X145700000Y-50995000D01*
G75*
G02*
X145550000Y-51145000I-150000J0D01*
G01*
X144100000Y-51145000D01*
G75*
G02*
X143950000Y-50995000I0J150000D01*
G01*
G37*
G36*
G01*
X143950000Y-49725000D02*
X143950000Y-49425000D01*
G75*
G02*
X144100000Y-49275000I150000J0D01*
G01*
X145550000Y-49275000D01*
G75*
G02*
X145700000Y-49425000I0J-150000D01*
G01*
X145700000Y-49725000D01*
G75*
G02*
X145550000Y-49875000I-150000J0D01*
G01*
X144100000Y-49875000D01*
G75*
G02*
X143950000Y-49725000I0J150000D01*
G01*
G37*
G36*
G01*
X143950000Y-48455000D02*
X143950000Y-48155000D01*
G75*
G02*
X144100000Y-48005000I150000J0D01*
G01*
X145550000Y-48005000D01*
G75*
G02*
X145700000Y-48155000I0J-150000D01*
G01*
X145700000Y-48455000D01*
G75*
G02*
X145550000Y-48605000I-150000J0D01*
G01*
X144100000Y-48605000D01*
G75*
G02*
X143950000Y-48455000I0J150000D01*
G01*
G37*
G36*
G01*
X143950000Y-47185000D02*
X143950000Y-46885000D01*
G75*
G02*
X144100000Y-46735000I150000J0D01*
G01*
X145550000Y-46735000D01*
G75*
G02*
X145700000Y-46885000I0J-150000D01*
G01*
X145700000Y-47185000D01*
G75*
G02*
X145550000Y-47335000I-150000J0D01*
G01*
X144100000Y-47335000D01*
G75*
G02*
X143950000Y-47185000I0J150000D01*
G01*
G37*
G36*
G01*
X143950000Y-45915000D02*
X143950000Y-45615000D01*
G75*
G02*
X144100000Y-45465000I150000J0D01*
G01*
X145550000Y-45465000D01*
G75*
G02*
X145700000Y-45615000I0J-150000D01*
G01*
X145700000Y-45915000D01*
G75*
G02*
X145550000Y-46065000I-150000J0D01*
G01*
X144100000Y-46065000D01*
G75*
G02*
X143950000Y-45915000I0J150000D01*
G01*
G37*
G36*
G01*
X143950000Y-44645000D02*
X143950000Y-44345000D01*
G75*
G02*
X144100000Y-44195000I150000J0D01*
G01*
X145550000Y-44195000D01*
G75*
G02*
X145700000Y-44345000I0J-150000D01*
G01*
X145700000Y-44645000D01*
G75*
G02*
X145550000Y-44795000I-150000J0D01*
G01*
X144100000Y-44795000D01*
G75*
G02*
X143950000Y-44645000I0J150000D01*
G01*
G37*
G36*
G01*
X143950000Y-43375000D02*
X143950000Y-43075000D01*
G75*
G02*
X144100000Y-42925000I150000J0D01*
G01*
X145550000Y-42925000D01*
G75*
G02*
X145700000Y-43075000I0J-150000D01*
G01*
X145700000Y-43375000D01*
G75*
G02*
X145550000Y-43525000I-150000J0D01*
G01*
X144100000Y-43525000D01*
G75*
G02*
X143950000Y-43375000I0J150000D01*
G01*
G37*
G36*
G01*
X143950000Y-42105000D02*
X143950000Y-41805000D01*
G75*
G02*
X144100000Y-41655000I150000J0D01*
G01*
X145550000Y-41655000D01*
G75*
G02*
X145700000Y-41805000I0J-150000D01*
G01*
X145700000Y-42105000D01*
G75*
G02*
X145550000Y-42255000I-150000J0D01*
G01*
X144100000Y-42255000D01*
G75*
G02*
X143950000Y-42105000I0J150000D01*
G01*
G37*
%TD*%
D10*
%TO.C,RN8*%
X129700000Y-45130000D03*
D11*
X129700000Y-46800000D03*
X129700000Y-46000000D03*
D10*
X129700000Y-47670000D03*
D11*
X131100000Y-46000000D03*
D10*
X131100000Y-45130000D03*
D11*
X131100000Y-46800000D03*
D10*
X131100000Y-47670000D03*
%TD*%
%TO.C,RN7*%
X163400000Y-44730000D03*
D11*
X163400000Y-46400000D03*
X163400000Y-45600000D03*
D10*
X163400000Y-47270000D03*
D11*
X164800000Y-45600000D03*
D10*
X164800000Y-44730000D03*
D11*
X164800000Y-46400000D03*
D10*
X164800000Y-47270000D03*
%TD*%
%TO.C,RN6*%
X119100000Y-93670000D03*
D11*
X119100000Y-92000000D03*
X119100000Y-92800000D03*
D10*
X119100000Y-91130000D03*
D11*
X117700000Y-92800000D03*
D10*
X117700000Y-93670000D03*
D11*
X117700000Y-92000000D03*
D10*
X117700000Y-91130000D03*
%TD*%
%TO.C,RN5*%
X87100000Y-95670000D03*
D11*
X87100000Y-94000000D03*
X87100000Y-94800000D03*
D10*
X87100000Y-93130000D03*
D11*
X85700000Y-94800000D03*
D10*
X85700000Y-95670000D03*
D11*
X85700000Y-94000000D03*
D10*
X85700000Y-93130000D03*
%TD*%
%TO.C,RN4*%
X165100000Y-93670000D03*
D11*
X165100000Y-92000000D03*
X165100000Y-92800000D03*
D10*
X165100000Y-91130000D03*
D11*
X163700000Y-92800000D03*
D10*
X163700000Y-93670000D03*
D11*
X163700000Y-92000000D03*
D10*
X163700000Y-91130000D03*
%TD*%
%TO.C,RN3*%
X131100000Y-93670000D03*
D11*
X131100000Y-92000000D03*
X131100000Y-92800000D03*
D10*
X131100000Y-91130000D03*
D11*
X129700000Y-92800000D03*
D10*
X129700000Y-93670000D03*
D11*
X129700000Y-92000000D03*
D10*
X129700000Y-91130000D03*
%TD*%
%TO.C,RN2*%
X85700000Y-45130000D03*
D11*
X85700000Y-46800000D03*
X85700000Y-46000000D03*
D10*
X85700000Y-47670000D03*
D11*
X87100000Y-46000000D03*
D10*
X87100000Y-45130000D03*
D11*
X87100000Y-46800000D03*
D10*
X87100000Y-47670000D03*
%TD*%
%TO.C,RN1*%
X117700000Y-45130000D03*
D11*
X117700000Y-46800000D03*
X117700000Y-46000000D03*
D10*
X117700000Y-47670000D03*
D11*
X119100000Y-46000000D03*
D10*
X119100000Y-45130000D03*
D11*
X119100000Y-46800000D03*
D10*
X119100000Y-47670000D03*
%TD*%
%TO.C,U3*%
G36*
G01*
X100700000Y-95695000D02*
X100700000Y-95995000D01*
G75*
G02*
X100550000Y-96145000I-150000J0D01*
G01*
X99100000Y-96145000D01*
G75*
G02*
X98950000Y-95995000I0J150000D01*
G01*
X98950000Y-95695000D01*
G75*
G02*
X99100000Y-95545000I150000J0D01*
G01*
X100550000Y-95545000D01*
G75*
G02*
X100700000Y-95695000I0J-150000D01*
G01*
G37*
G36*
G01*
X100700000Y-94425000D02*
X100700000Y-94725000D01*
G75*
G02*
X100550000Y-94875000I-150000J0D01*
G01*
X99100000Y-94875000D01*
G75*
G02*
X98950000Y-94725000I0J150000D01*
G01*
X98950000Y-94425000D01*
G75*
G02*
X99100000Y-94275000I150000J0D01*
G01*
X100550000Y-94275000D01*
G75*
G02*
X100700000Y-94425000I0J-150000D01*
G01*
G37*
G36*
G01*
X100700000Y-93155000D02*
X100700000Y-93455000D01*
G75*
G02*
X100550000Y-93605000I-150000J0D01*
G01*
X99100000Y-93605000D01*
G75*
G02*
X98950000Y-93455000I0J150000D01*
G01*
X98950000Y-93155000D01*
G75*
G02*
X99100000Y-93005000I150000J0D01*
G01*
X100550000Y-93005000D01*
G75*
G02*
X100700000Y-93155000I0J-150000D01*
G01*
G37*
G36*
G01*
X100700000Y-91885000D02*
X100700000Y-92185000D01*
G75*
G02*
X100550000Y-92335000I-150000J0D01*
G01*
X99100000Y-92335000D01*
G75*
G02*
X98950000Y-92185000I0J150000D01*
G01*
X98950000Y-91885000D01*
G75*
G02*
X99100000Y-91735000I150000J0D01*
G01*
X100550000Y-91735000D01*
G75*
G02*
X100700000Y-91885000I0J-150000D01*
G01*
G37*
G36*
G01*
X100700000Y-90615000D02*
X100700000Y-90915000D01*
G75*
G02*
X100550000Y-91065000I-150000J0D01*
G01*
X99100000Y-91065000D01*
G75*
G02*
X98950000Y-90915000I0J150000D01*
G01*
X98950000Y-90615000D01*
G75*
G02*
X99100000Y-90465000I150000J0D01*
G01*
X100550000Y-90465000D01*
G75*
G02*
X100700000Y-90615000I0J-150000D01*
G01*
G37*
G36*
G01*
X100700000Y-89345000D02*
X100700000Y-89645000D01*
G75*
G02*
X100550000Y-89795000I-150000J0D01*
G01*
X99100000Y-89795000D01*
G75*
G02*
X98950000Y-89645000I0J150000D01*
G01*
X98950000Y-89345000D01*
G75*
G02*
X99100000Y-89195000I150000J0D01*
G01*
X100550000Y-89195000D01*
G75*
G02*
X100700000Y-89345000I0J-150000D01*
G01*
G37*
G36*
G01*
X100700000Y-88075000D02*
X100700000Y-88375000D01*
G75*
G02*
X100550000Y-88525000I-150000J0D01*
G01*
X99100000Y-88525000D01*
G75*
G02*
X98950000Y-88375000I0J150000D01*
G01*
X98950000Y-88075000D01*
G75*
G02*
X99100000Y-87925000I150000J0D01*
G01*
X100550000Y-87925000D01*
G75*
G02*
X100700000Y-88075000I0J-150000D01*
G01*
G37*
G36*
G01*
X100700000Y-86805000D02*
X100700000Y-87105000D01*
G75*
G02*
X100550000Y-87255000I-150000J0D01*
G01*
X99100000Y-87255000D01*
G75*
G02*
X98950000Y-87105000I0J150000D01*
G01*
X98950000Y-86805000D01*
G75*
G02*
X99100000Y-86655000I150000J0D01*
G01*
X100550000Y-86655000D01*
G75*
G02*
X100700000Y-86805000I0J-150000D01*
G01*
G37*
G36*
G01*
X105850000Y-86805000D02*
X105850000Y-87105000D01*
G75*
G02*
X105700000Y-87255000I-150000J0D01*
G01*
X104250000Y-87255000D01*
G75*
G02*
X104100000Y-87105000I0J150000D01*
G01*
X104100000Y-86805000D01*
G75*
G02*
X104250000Y-86655000I150000J0D01*
G01*
X105700000Y-86655000D01*
G75*
G02*
X105850000Y-86805000I0J-150000D01*
G01*
G37*
G36*
G01*
X105850000Y-88075000D02*
X105850000Y-88375000D01*
G75*
G02*
X105700000Y-88525000I-150000J0D01*
G01*
X104250000Y-88525000D01*
G75*
G02*
X104100000Y-88375000I0J150000D01*
G01*
X104100000Y-88075000D01*
G75*
G02*
X104250000Y-87925000I150000J0D01*
G01*
X105700000Y-87925000D01*
G75*
G02*
X105850000Y-88075000I0J-150000D01*
G01*
G37*
G36*
G01*
X105850000Y-89345000D02*
X105850000Y-89645000D01*
G75*
G02*
X105700000Y-89795000I-150000J0D01*
G01*
X104250000Y-89795000D01*
G75*
G02*
X104100000Y-89645000I0J150000D01*
G01*
X104100000Y-89345000D01*
G75*
G02*
X104250000Y-89195000I150000J0D01*
G01*
X105700000Y-89195000D01*
G75*
G02*
X105850000Y-89345000I0J-150000D01*
G01*
G37*
G36*
G01*
X105850000Y-90615000D02*
X105850000Y-90915000D01*
G75*
G02*
X105700000Y-91065000I-150000J0D01*
G01*
X104250000Y-91065000D01*
G75*
G02*
X104100000Y-90915000I0J150000D01*
G01*
X104100000Y-90615000D01*
G75*
G02*
X104250000Y-90465000I150000J0D01*
G01*
X105700000Y-90465000D01*
G75*
G02*
X105850000Y-90615000I0J-150000D01*
G01*
G37*
G36*
G01*
X105850000Y-91885000D02*
X105850000Y-92185000D01*
G75*
G02*
X105700000Y-92335000I-150000J0D01*
G01*
X104250000Y-92335000D01*
G75*
G02*
X104100000Y-92185000I0J150000D01*
G01*
X104100000Y-91885000D01*
G75*
G02*
X104250000Y-91735000I150000J0D01*
G01*
X105700000Y-91735000D01*
G75*
G02*
X105850000Y-91885000I0J-150000D01*
G01*
G37*
G36*
G01*
X105850000Y-93155000D02*
X105850000Y-93455000D01*
G75*
G02*
X105700000Y-93605000I-150000J0D01*
G01*
X104250000Y-93605000D01*
G75*
G02*
X104100000Y-93455000I0J150000D01*
G01*
X104100000Y-93155000D01*
G75*
G02*
X104250000Y-93005000I150000J0D01*
G01*
X105700000Y-93005000D01*
G75*
G02*
X105850000Y-93155000I0J-150000D01*
G01*
G37*
G36*
G01*
X105850000Y-94425000D02*
X105850000Y-94725000D01*
G75*
G02*
X105700000Y-94875000I-150000J0D01*
G01*
X104250000Y-94875000D01*
G75*
G02*
X104100000Y-94725000I0J150000D01*
G01*
X104100000Y-94425000D01*
G75*
G02*
X104250000Y-94275000I150000J0D01*
G01*
X105700000Y-94275000D01*
G75*
G02*
X105850000Y-94425000I0J-150000D01*
G01*
G37*
G36*
G01*
X105850000Y-95695000D02*
X105850000Y-95995000D01*
G75*
G02*
X105700000Y-96145000I-150000J0D01*
G01*
X104250000Y-96145000D01*
G75*
G02*
X104100000Y-95995000I0J150000D01*
G01*
X104100000Y-95695000D01*
G75*
G02*
X104250000Y-95545000I150000J0D01*
G01*
X105700000Y-95545000D01*
G75*
G02*
X105850000Y-95695000I0J-150000D01*
G01*
G37*
%TD*%
%TO.C,U2*%
G36*
G01*
X145700000Y-95695000D02*
X145700000Y-95995000D01*
G75*
G02*
X145550000Y-96145000I-150000J0D01*
G01*
X144100000Y-96145000D01*
G75*
G02*
X143950000Y-95995000I0J150000D01*
G01*
X143950000Y-95695000D01*
G75*
G02*
X144100000Y-95545000I150000J0D01*
G01*
X145550000Y-95545000D01*
G75*
G02*
X145700000Y-95695000I0J-150000D01*
G01*
G37*
G36*
G01*
X145700000Y-94425000D02*
X145700000Y-94725000D01*
G75*
G02*
X145550000Y-94875000I-150000J0D01*
G01*
X144100000Y-94875000D01*
G75*
G02*
X143950000Y-94725000I0J150000D01*
G01*
X143950000Y-94425000D01*
G75*
G02*
X144100000Y-94275000I150000J0D01*
G01*
X145550000Y-94275000D01*
G75*
G02*
X145700000Y-94425000I0J-150000D01*
G01*
G37*
G36*
G01*
X145700000Y-93155000D02*
X145700000Y-93455000D01*
G75*
G02*
X145550000Y-93605000I-150000J0D01*
G01*
X144100000Y-93605000D01*
G75*
G02*
X143950000Y-93455000I0J150000D01*
G01*
X143950000Y-93155000D01*
G75*
G02*
X144100000Y-93005000I150000J0D01*
G01*
X145550000Y-93005000D01*
G75*
G02*
X145700000Y-93155000I0J-150000D01*
G01*
G37*
G36*
G01*
X145700000Y-91885000D02*
X145700000Y-92185000D01*
G75*
G02*
X145550000Y-92335000I-150000J0D01*
G01*
X144100000Y-92335000D01*
G75*
G02*
X143950000Y-92185000I0J150000D01*
G01*
X143950000Y-91885000D01*
G75*
G02*
X144100000Y-91735000I150000J0D01*
G01*
X145550000Y-91735000D01*
G75*
G02*
X145700000Y-91885000I0J-150000D01*
G01*
G37*
G36*
G01*
X145700000Y-90615000D02*
X145700000Y-90915000D01*
G75*
G02*
X145550000Y-91065000I-150000J0D01*
G01*
X144100000Y-91065000D01*
G75*
G02*
X143950000Y-90915000I0J150000D01*
G01*
X143950000Y-90615000D01*
G75*
G02*
X144100000Y-90465000I150000J0D01*
G01*
X145550000Y-90465000D01*
G75*
G02*
X145700000Y-90615000I0J-150000D01*
G01*
G37*
G36*
G01*
X145700000Y-89345000D02*
X145700000Y-89645000D01*
G75*
G02*
X145550000Y-89795000I-150000J0D01*
G01*
X144100000Y-89795000D01*
G75*
G02*
X143950000Y-89645000I0J150000D01*
G01*
X143950000Y-89345000D01*
G75*
G02*
X144100000Y-89195000I150000J0D01*
G01*
X145550000Y-89195000D01*
G75*
G02*
X145700000Y-89345000I0J-150000D01*
G01*
G37*
G36*
G01*
X145700000Y-88075000D02*
X145700000Y-88375000D01*
G75*
G02*
X145550000Y-88525000I-150000J0D01*
G01*
X144100000Y-88525000D01*
G75*
G02*
X143950000Y-88375000I0J150000D01*
G01*
X143950000Y-88075000D01*
G75*
G02*
X144100000Y-87925000I150000J0D01*
G01*
X145550000Y-87925000D01*
G75*
G02*
X145700000Y-88075000I0J-150000D01*
G01*
G37*
G36*
G01*
X145700000Y-86805000D02*
X145700000Y-87105000D01*
G75*
G02*
X145550000Y-87255000I-150000J0D01*
G01*
X144100000Y-87255000D01*
G75*
G02*
X143950000Y-87105000I0J150000D01*
G01*
X143950000Y-86805000D01*
G75*
G02*
X144100000Y-86655000I150000J0D01*
G01*
X145550000Y-86655000D01*
G75*
G02*
X145700000Y-86805000I0J-150000D01*
G01*
G37*
G36*
G01*
X150850000Y-86805000D02*
X150850000Y-87105000D01*
G75*
G02*
X150700000Y-87255000I-150000J0D01*
G01*
X149250000Y-87255000D01*
G75*
G02*
X149100000Y-87105000I0J150000D01*
G01*
X149100000Y-86805000D01*
G75*
G02*
X149250000Y-86655000I150000J0D01*
G01*
X150700000Y-86655000D01*
G75*
G02*
X150850000Y-86805000I0J-150000D01*
G01*
G37*
G36*
G01*
X150850000Y-88075000D02*
X150850000Y-88375000D01*
G75*
G02*
X150700000Y-88525000I-150000J0D01*
G01*
X149250000Y-88525000D01*
G75*
G02*
X149100000Y-88375000I0J150000D01*
G01*
X149100000Y-88075000D01*
G75*
G02*
X149250000Y-87925000I150000J0D01*
G01*
X150700000Y-87925000D01*
G75*
G02*
X150850000Y-88075000I0J-150000D01*
G01*
G37*
G36*
G01*
X150850000Y-89345000D02*
X150850000Y-89645000D01*
G75*
G02*
X150700000Y-89795000I-150000J0D01*
G01*
X149250000Y-89795000D01*
G75*
G02*
X149100000Y-89645000I0J150000D01*
G01*
X149100000Y-89345000D01*
G75*
G02*
X149250000Y-89195000I150000J0D01*
G01*
X150700000Y-89195000D01*
G75*
G02*
X150850000Y-89345000I0J-150000D01*
G01*
G37*
G36*
G01*
X150850000Y-90615000D02*
X150850000Y-90915000D01*
G75*
G02*
X150700000Y-91065000I-150000J0D01*
G01*
X149250000Y-91065000D01*
G75*
G02*
X149100000Y-90915000I0J150000D01*
G01*
X149100000Y-90615000D01*
G75*
G02*
X149250000Y-90465000I150000J0D01*
G01*
X150700000Y-90465000D01*
G75*
G02*
X150850000Y-90615000I0J-150000D01*
G01*
G37*
G36*
G01*
X150850000Y-91885000D02*
X150850000Y-92185000D01*
G75*
G02*
X150700000Y-92335000I-150000J0D01*
G01*
X149250000Y-92335000D01*
G75*
G02*
X149100000Y-92185000I0J150000D01*
G01*
X149100000Y-91885000D01*
G75*
G02*
X149250000Y-91735000I150000J0D01*
G01*
X150700000Y-91735000D01*
G75*
G02*
X150850000Y-91885000I0J-150000D01*
G01*
G37*
G36*
G01*
X150850000Y-93155000D02*
X150850000Y-93455000D01*
G75*
G02*
X150700000Y-93605000I-150000J0D01*
G01*
X149250000Y-93605000D01*
G75*
G02*
X149100000Y-93455000I0J150000D01*
G01*
X149100000Y-93155000D01*
G75*
G02*
X149250000Y-93005000I150000J0D01*
G01*
X150700000Y-93005000D01*
G75*
G02*
X150850000Y-93155000I0J-150000D01*
G01*
G37*
G36*
G01*
X150850000Y-94425000D02*
X150850000Y-94725000D01*
G75*
G02*
X150700000Y-94875000I-150000J0D01*
G01*
X149250000Y-94875000D01*
G75*
G02*
X149100000Y-94725000I0J150000D01*
G01*
X149100000Y-94425000D01*
G75*
G02*
X149250000Y-94275000I150000J0D01*
G01*
X150700000Y-94275000D01*
G75*
G02*
X150850000Y-94425000I0J-150000D01*
G01*
G37*
G36*
G01*
X150850000Y-95695000D02*
X150850000Y-95995000D01*
G75*
G02*
X150700000Y-96145000I-150000J0D01*
G01*
X149250000Y-96145000D01*
G75*
G02*
X149100000Y-95995000I0J150000D01*
G01*
X149100000Y-95695000D01*
G75*
G02*
X149250000Y-95545000I150000J0D01*
G01*
X150700000Y-95545000D01*
G75*
G02*
X150850000Y-95695000I0J-150000D01*
G01*
G37*
%TD*%
%TO.C,U1*%
G36*
G01*
X103850000Y-42105000D02*
X103850000Y-41805000D01*
G75*
G02*
X104000000Y-41655000I150000J0D01*
G01*
X105450000Y-41655000D01*
G75*
G02*
X105600000Y-41805000I0J-150000D01*
G01*
X105600000Y-42105000D01*
G75*
G02*
X105450000Y-42255000I-150000J0D01*
G01*
X104000000Y-42255000D01*
G75*
G02*
X103850000Y-42105000I0J150000D01*
G01*
G37*
G36*
G01*
X103850000Y-43375000D02*
X103850000Y-43075000D01*
G75*
G02*
X104000000Y-42925000I150000J0D01*
G01*
X105450000Y-42925000D01*
G75*
G02*
X105600000Y-43075000I0J-150000D01*
G01*
X105600000Y-43375000D01*
G75*
G02*
X105450000Y-43525000I-150000J0D01*
G01*
X104000000Y-43525000D01*
G75*
G02*
X103850000Y-43375000I0J150000D01*
G01*
G37*
G36*
G01*
X103850000Y-44645000D02*
X103850000Y-44345000D01*
G75*
G02*
X104000000Y-44195000I150000J0D01*
G01*
X105450000Y-44195000D01*
G75*
G02*
X105600000Y-44345000I0J-150000D01*
G01*
X105600000Y-44645000D01*
G75*
G02*
X105450000Y-44795000I-150000J0D01*
G01*
X104000000Y-44795000D01*
G75*
G02*
X103850000Y-44645000I0J150000D01*
G01*
G37*
G36*
G01*
X103850000Y-45915000D02*
X103850000Y-45615000D01*
G75*
G02*
X104000000Y-45465000I150000J0D01*
G01*
X105450000Y-45465000D01*
G75*
G02*
X105600000Y-45615000I0J-150000D01*
G01*
X105600000Y-45915000D01*
G75*
G02*
X105450000Y-46065000I-150000J0D01*
G01*
X104000000Y-46065000D01*
G75*
G02*
X103850000Y-45915000I0J150000D01*
G01*
G37*
G36*
G01*
X103850000Y-47185000D02*
X103850000Y-46885000D01*
G75*
G02*
X104000000Y-46735000I150000J0D01*
G01*
X105450000Y-46735000D01*
G75*
G02*
X105600000Y-46885000I0J-150000D01*
G01*
X105600000Y-47185000D01*
G75*
G02*
X105450000Y-47335000I-150000J0D01*
G01*
X104000000Y-47335000D01*
G75*
G02*
X103850000Y-47185000I0J150000D01*
G01*
G37*
G36*
G01*
X103850000Y-48455000D02*
X103850000Y-48155000D01*
G75*
G02*
X104000000Y-48005000I150000J0D01*
G01*
X105450000Y-48005000D01*
G75*
G02*
X105600000Y-48155000I0J-150000D01*
G01*
X105600000Y-48455000D01*
G75*
G02*
X105450000Y-48605000I-150000J0D01*
G01*
X104000000Y-48605000D01*
G75*
G02*
X103850000Y-48455000I0J150000D01*
G01*
G37*
G36*
G01*
X103850000Y-49725000D02*
X103850000Y-49425000D01*
G75*
G02*
X104000000Y-49275000I150000J0D01*
G01*
X105450000Y-49275000D01*
G75*
G02*
X105600000Y-49425000I0J-150000D01*
G01*
X105600000Y-49725000D01*
G75*
G02*
X105450000Y-49875000I-150000J0D01*
G01*
X104000000Y-49875000D01*
G75*
G02*
X103850000Y-49725000I0J150000D01*
G01*
G37*
G36*
G01*
X103850000Y-50995000D02*
X103850000Y-50695000D01*
G75*
G02*
X104000000Y-50545000I150000J0D01*
G01*
X105450000Y-50545000D01*
G75*
G02*
X105600000Y-50695000I0J-150000D01*
G01*
X105600000Y-50995000D01*
G75*
G02*
X105450000Y-51145000I-150000J0D01*
G01*
X104000000Y-51145000D01*
G75*
G02*
X103850000Y-50995000I0J150000D01*
G01*
G37*
G36*
G01*
X98700000Y-50995000D02*
X98700000Y-50695000D01*
G75*
G02*
X98850000Y-50545000I150000J0D01*
G01*
X100300000Y-50545000D01*
G75*
G02*
X100450000Y-50695000I0J-150000D01*
G01*
X100450000Y-50995000D01*
G75*
G02*
X100300000Y-51145000I-150000J0D01*
G01*
X98850000Y-51145000D01*
G75*
G02*
X98700000Y-50995000I0J150000D01*
G01*
G37*
G36*
G01*
X98700000Y-49725000D02*
X98700000Y-49425000D01*
G75*
G02*
X98850000Y-49275000I150000J0D01*
G01*
X100300000Y-49275000D01*
G75*
G02*
X100450000Y-49425000I0J-150000D01*
G01*
X100450000Y-49725000D01*
G75*
G02*
X100300000Y-49875000I-150000J0D01*
G01*
X98850000Y-49875000D01*
G75*
G02*
X98700000Y-49725000I0J150000D01*
G01*
G37*
G36*
G01*
X98700000Y-48455000D02*
X98700000Y-48155000D01*
G75*
G02*
X98850000Y-48005000I150000J0D01*
G01*
X100300000Y-48005000D01*
G75*
G02*
X100450000Y-48155000I0J-150000D01*
G01*
X100450000Y-48455000D01*
G75*
G02*
X100300000Y-48605000I-150000J0D01*
G01*
X98850000Y-48605000D01*
G75*
G02*
X98700000Y-48455000I0J150000D01*
G01*
G37*
G36*
G01*
X98700000Y-47185000D02*
X98700000Y-46885000D01*
G75*
G02*
X98850000Y-46735000I150000J0D01*
G01*
X100300000Y-46735000D01*
G75*
G02*
X100450000Y-46885000I0J-150000D01*
G01*
X100450000Y-47185000D01*
G75*
G02*
X100300000Y-47335000I-150000J0D01*
G01*
X98850000Y-47335000D01*
G75*
G02*
X98700000Y-47185000I0J150000D01*
G01*
G37*
G36*
G01*
X98700000Y-45915000D02*
X98700000Y-45615000D01*
G75*
G02*
X98850000Y-45465000I150000J0D01*
G01*
X100300000Y-45465000D01*
G75*
G02*
X100450000Y-45615000I0J-150000D01*
G01*
X100450000Y-45915000D01*
G75*
G02*
X100300000Y-46065000I-150000J0D01*
G01*
X98850000Y-46065000D01*
G75*
G02*
X98700000Y-45915000I0J150000D01*
G01*
G37*
G36*
G01*
X98700000Y-44645000D02*
X98700000Y-44345000D01*
G75*
G02*
X98850000Y-44195000I150000J0D01*
G01*
X100300000Y-44195000D01*
G75*
G02*
X100450000Y-44345000I0J-150000D01*
G01*
X100450000Y-44645000D01*
G75*
G02*
X100300000Y-44795000I-150000J0D01*
G01*
X98850000Y-44795000D01*
G75*
G02*
X98700000Y-44645000I0J150000D01*
G01*
G37*
G36*
G01*
X98700000Y-43375000D02*
X98700000Y-43075000D01*
G75*
G02*
X98850000Y-42925000I150000J0D01*
G01*
X100300000Y-42925000D01*
G75*
G02*
X100450000Y-43075000I0J-150000D01*
G01*
X100450000Y-43375000D01*
G75*
G02*
X100300000Y-43525000I-150000J0D01*
G01*
X98850000Y-43525000D01*
G75*
G02*
X98700000Y-43375000I0J150000D01*
G01*
G37*
G36*
G01*
X98700000Y-42105000D02*
X98700000Y-41805000D01*
G75*
G02*
X98850000Y-41655000I150000J0D01*
G01*
X100300000Y-41655000D01*
G75*
G02*
X100450000Y-41805000I0J-150000D01*
G01*
X100450000Y-42105000D01*
G75*
G02*
X100300000Y-42255000I-150000J0D01*
G01*
X98850000Y-42255000D01*
G75*
G02*
X98700000Y-42105000I0J150000D01*
G01*
G37*
%TD*%
%TO.C,C1*%
G36*
G01*
X32635000Y-68350000D02*
X32635000Y-67250000D01*
G75*
G02*
X32885000Y-67000000I250000J0D01*
G01*
X35710000Y-67000000D01*
G75*
G02*
X35960000Y-67250000I0J-250000D01*
G01*
X35960000Y-68350000D01*
G75*
G02*
X35710000Y-68600000I-250000J0D01*
G01*
X32885000Y-68600000D01*
G75*
G02*
X32635000Y-68350000I0J250000D01*
G01*
G37*
G36*
G01*
X27560000Y-68350000D02*
X27560000Y-67250000D01*
G75*
G02*
X27810000Y-67000000I250000J0D01*
G01*
X30635000Y-67000000D01*
G75*
G02*
X30885000Y-67250000I0J-250000D01*
G01*
X30885000Y-68350000D01*
G75*
G02*
X30635000Y-68600000I-250000J0D01*
G01*
X27810000Y-68600000D01*
G75*
G02*
X27560000Y-68350000I0J250000D01*
G01*
G37*
%TD*%
%TO.C,U9*%
G36*
G01*
X44255000Y-88500000D02*
X44555000Y-88500000D01*
G75*
G02*
X44705000Y-88650000I0J-150000D01*
G01*
X44705000Y-90100000D01*
G75*
G02*
X44555000Y-90250000I-150000J0D01*
G01*
X44255000Y-90250000D01*
G75*
G02*
X44105000Y-90100000I0J150000D01*
G01*
X44105000Y-88650000D01*
G75*
G02*
X44255000Y-88500000I150000J0D01*
G01*
G37*
G36*
G01*
X42985000Y-88500000D02*
X43285000Y-88500000D01*
G75*
G02*
X43435000Y-88650000I0J-150000D01*
G01*
X43435000Y-90100000D01*
G75*
G02*
X43285000Y-90250000I-150000J0D01*
G01*
X42985000Y-90250000D01*
G75*
G02*
X42835000Y-90100000I0J150000D01*
G01*
X42835000Y-88650000D01*
G75*
G02*
X42985000Y-88500000I150000J0D01*
G01*
G37*
G36*
G01*
X41715000Y-88500000D02*
X42015000Y-88500000D01*
G75*
G02*
X42165000Y-88650000I0J-150000D01*
G01*
X42165000Y-90100000D01*
G75*
G02*
X42015000Y-90250000I-150000J0D01*
G01*
X41715000Y-90250000D01*
G75*
G02*
X41565000Y-90100000I0J150000D01*
G01*
X41565000Y-88650000D01*
G75*
G02*
X41715000Y-88500000I150000J0D01*
G01*
G37*
G36*
G01*
X40445000Y-88500000D02*
X40745000Y-88500000D01*
G75*
G02*
X40895000Y-88650000I0J-150000D01*
G01*
X40895000Y-90100000D01*
G75*
G02*
X40745000Y-90250000I-150000J0D01*
G01*
X40445000Y-90250000D01*
G75*
G02*
X40295000Y-90100000I0J150000D01*
G01*
X40295000Y-88650000D01*
G75*
G02*
X40445000Y-88500000I150000J0D01*
G01*
G37*
G36*
G01*
X40445000Y-83350000D02*
X40745000Y-83350000D01*
G75*
G02*
X40895000Y-83500000I0J-150000D01*
G01*
X40895000Y-84950000D01*
G75*
G02*
X40745000Y-85100000I-150000J0D01*
G01*
X40445000Y-85100000D01*
G75*
G02*
X40295000Y-84950000I0J150000D01*
G01*
X40295000Y-83500000D01*
G75*
G02*
X40445000Y-83350000I150000J0D01*
G01*
G37*
G36*
G01*
X41715000Y-83350000D02*
X42015000Y-83350000D01*
G75*
G02*
X42165000Y-83500000I0J-150000D01*
G01*
X42165000Y-84950000D01*
G75*
G02*
X42015000Y-85100000I-150000J0D01*
G01*
X41715000Y-85100000D01*
G75*
G02*
X41565000Y-84950000I0J150000D01*
G01*
X41565000Y-83500000D01*
G75*
G02*
X41715000Y-83350000I150000J0D01*
G01*
G37*
G36*
G01*
X42985000Y-83350000D02*
X43285000Y-83350000D01*
G75*
G02*
X43435000Y-83500000I0J-150000D01*
G01*
X43435000Y-84950000D01*
G75*
G02*
X43285000Y-85100000I-150000J0D01*
G01*
X42985000Y-85100000D01*
G75*
G02*
X42835000Y-84950000I0J150000D01*
G01*
X42835000Y-83500000D01*
G75*
G02*
X42985000Y-83350000I150000J0D01*
G01*
G37*
G36*
G01*
X44255000Y-83350000D02*
X44555000Y-83350000D01*
G75*
G02*
X44705000Y-83500000I0J-150000D01*
G01*
X44705000Y-84950000D01*
G75*
G02*
X44555000Y-85100000I-150000J0D01*
G01*
X44255000Y-85100000D01*
G75*
G02*
X44105000Y-84950000I0J150000D01*
G01*
X44105000Y-83500000D01*
G75*
G02*
X44255000Y-83350000I150000J0D01*
G01*
G37*
%TD*%
%TO.C,R30*%
G36*
G01*
X50775000Y-91450001D02*
X50775000Y-88549999D01*
G75*
G02*
X51024999Y-88300000I249999J0D01*
G01*
X51825001Y-88300000D01*
G75*
G02*
X52075000Y-88549999I0J-249999D01*
G01*
X52075000Y-91450001D01*
G75*
G02*
X51825001Y-91700000I-249999J0D01*
G01*
X51024999Y-91700000D01*
G75*
G02*
X50775000Y-91450001I0J249999D01*
G01*
G37*
G36*
G01*
X46325000Y-91450001D02*
X46325000Y-88549999D01*
G75*
G02*
X46574999Y-88300000I249999J0D01*
G01*
X47375001Y-88300000D01*
G75*
G02*
X47625000Y-88549999I0J-249999D01*
G01*
X47625000Y-91450001D01*
G75*
G02*
X47375001Y-91700000I-249999J0D01*
G01*
X46574999Y-91700000D01*
G75*
G02*
X46325000Y-91450001I0J249999D01*
G01*
G37*
%TD*%
%TO.C,R29*%
G36*
G01*
X31049999Y-86975000D02*
X33950001Y-86975000D01*
G75*
G02*
X34200000Y-87224999I0J-249999D01*
G01*
X34200000Y-88025001D01*
G75*
G02*
X33950001Y-88275000I-249999J0D01*
G01*
X31049999Y-88275000D01*
G75*
G02*
X30800000Y-88025001I0J249999D01*
G01*
X30800000Y-87224999D01*
G75*
G02*
X31049999Y-86975000I249999J0D01*
G01*
G37*
G36*
G01*
X31049999Y-82525000D02*
X33950001Y-82525000D01*
G75*
G02*
X34200000Y-82774999I0J-249999D01*
G01*
X34200000Y-83575001D01*
G75*
G02*
X33950001Y-83825000I-249999J0D01*
G01*
X31049999Y-83825000D01*
G75*
G02*
X30800000Y-83575001I0J249999D01*
G01*
X30800000Y-82774999D01*
G75*
G02*
X31049999Y-82525000I249999J0D01*
G01*
G37*
%TD*%
%TO.C,R28*%
G36*
G01*
X38350001Y-77125000D02*
X35449999Y-77125000D01*
G75*
G02*
X35200000Y-76875001I0J249999D01*
G01*
X35200000Y-76074999D01*
G75*
G02*
X35449999Y-75825000I249999J0D01*
G01*
X38350001Y-75825000D01*
G75*
G02*
X38600000Y-76074999I0J-249999D01*
G01*
X38600000Y-76875001D01*
G75*
G02*
X38350001Y-77125000I-249999J0D01*
G01*
G37*
G36*
G01*
X38350001Y-81575000D02*
X35449999Y-81575000D01*
G75*
G02*
X35200000Y-81325001I0J249999D01*
G01*
X35200000Y-80524999D01*
G75*
G02*
X35449999Y-80275000I249999J0D01*
G01*
X38350001Y-80275000D01*
G75*
G02*
X38600000Y-80524999I0J-249999D01*
G01*
X38600000Y-81325001D01*
G75*
G02*
X38350001Y-81575000I-249999J0D01*
G01*
G37*
%TD*%
%TO.C,R27*%
G36*
G01*
X33950001Y-77125000D02*
X31049999Y-77125000D01*
G75*
G02*
X30800000Y-76875001I0J249999D01*
G01*
X30800000Y-76074999D01*
G75*
G02*
X31049999Y-75825000I249999J0D01*
G01*
X33950001Y-75825000D01*
G75*
G02*
X34200000Y-76074999I0J-249999D01*
G01*
X34200000Y-76875001D01*
G75*
G02*
X33950001Y-77125000I-249999J0D01*
G01*
G37*
G36*
G01*
X33950001Y-81575000D02*
X31049999Y-81575000D01*
G75*
G02*
X30800000Y-81325001I0J249999D01*
G01*
X30800000Y-80524999D01*
G75*
G02*
X31049999Y-80275000I249999J0D01*
G01*
X33950001Y-80275000D01*
G75*
G02*
X34200000Y-80524999I0J-249999D01*
G01*
X34200000Y-81325001D01*
G75*
G02*
X33950001Y-81575000I-249999J0D01*
G01*
G37*
%TD*%
%TO.C,R26*%
G36*
G01*
X47049999Y-80175000D02*
X49950001Y-80175000D01*
G75*
G02*
X50200000Y-80424999I0J-249999D01*
G01*
X50200000Y-81225001D01*
G75*
G02*
X49950001Y-81475000I-249999J0D01*
G01*
X47049999Y-81475000D01*
G75*
G02*
X46800000Y-81225001I0J249999D01*
G01*
X46800000Y-80424999D01*
G75*
G02*
X47049999Y-80175000I249999J0D01*
G01*
G37*
G36*
G01*
X47049999Y-75725000D02*
X49950001Y-75725000D01*
G75*
G02*
X50200000Y-75974999I0J-249999D01*
G01*
X50200000Y-76775001D01*
G75*
G02*
X49950001Y-77025000I-249999J0D01*
G01*
X47049999Y-77025000D01*
G75*
G02*
X46800000Y-76775001I0J249999D01*
G01*
X46800000Y-75974999D01*
G75*
G02*
X47049999Y-75725000I249999J0D01*
G01*
G37*
%TD*%
%TO.C,R25*%
G36*
G01*
X44350001Y-77025000D02*
X41449999Y-77025000D01*
G75*
G02*
X41200000Y-76775001I0J249999D01*
G01*
X41200000Y-75974999D01*
G75*
G02*
X41449999Y-75725000I249999J0D01*
G01*
X44350001Y-75725000D01*
G75*
G02*
X44600000Y-75974999I0J-249999D01*
G01*
X44600000Y-76775001D01*
G75*
G02*
X44350001Y-77025000I-249999J0D01*
G01*
G37*
G36*
G01*
X44350001Y-81475000D02*
X41449999Y-81475000D01*
G75*
G02*
X41200000Y-81225001I0J249999D01*
G01*
X41200000Y-80424999D01*
G75*
G02*
X41449999Y-80175000I249999J0D01*
G01*
X44350001Y-80175000D01*
G75*
G02*
X44600000Y-80424999I0J-249999D01*
G01*
X44600000Y-81225001D01*
G75*
G02*
X44350001Y-81475000I-249999J0D01*
G01*
G37*
%TD*%
%TO.C,R24*%
G36*
G01*
X35449999Y-86975000D02*
X38350001Y-86975000D01*
G75*
G02*
X38600000Y-87224999I0J-249999D01*
G01*
X38600000Y-88025001D01*
G75*
G02*
X38350001Y-88275000I-249999J0D01*
G01*
X35449999Y-88275000D01*
G75*
G02*
X35200000Y-88025001I0J249999D01*
G01*
X35200000Y-87224999D01*
G75*
G02*
X35449999Y-86975000I249999J0D01*
G01*
G37*
G36*
G01*
X35449999Y-82525000D02*
X38350001Y-82525000D01*
G75*
G02*
X38600000Y-82774999I0J-249999D01*
G01*
X38600000Y-83575001D01*
G75*
G02*
X38350001Y-83825000I-249999J0D01*
G01*
X35449999Y-83825000D01*
G75*
G02*
X35200000Y-83575001I0J249999D01*
G01*
X35200000Y-82774999D01*
G75*
G02*
X35449999Y-82525000I249999J0D01*
G01*
G37*
%TD*%
%TO.C,R23*%
G36*
G01*
X80850001Y-42105000D02*
X77949999Y-42105000D01*
G75*
G02*
X77700000Y-41855001I0J249999D01*
G01*
X77700000Y-41054999D01*
G75*
G02*
X77949999Y-40805000I249999J0D01*
G01*
X80850001Y-40805000D01*
G75*
G02*
X81100000Y-41054999I0J-249999D01*
G01*
X81100000Y-41855001D01*
G75*
G02*
X80850001Y-42105000I-249999J0D01*
G01*
G37*
G36*
G01*
X80850001Y-46555000D02*
X77949999Y-46555000D01*
G75*
G02*
X77700000Y-46305001I0J249999D01*
G01*
X77700000Y-45504999D01*
G75*
G02*
X77949999Y-45255000I249999J0D01*
G01*
X80850001Y-45255000D01*
G75*
G02*
X81100000Y-45504999I0J-249999D01*
G01*
X81100000Y-46305001D01*
G75*
G02*
X80850001Y-46555000I-249999J0D01*
G01*
G37*
%TD*%
%TO.C,R22*%
G36*
G01*
X75230001Y-42105000D02*
X72329999Y-42105000D01*
G75*
G02*
X72080000Y-41855001I0J249999D01*
G01*
X72080000Y-41054999D01*
G75*
G02*
X72329999Y-40805000I249999J0D01*
G01*
X75230001Y-40805000D01*
G75*
G02*
X75480000Y-41054999I0J-249999D01*
G01*
X75480000Y-41855001D01*
G75*
G02*
X75230001Y-42105000I-249999J0D01*
G01*
G37*
G36*
G01*
X75230001Y-46555000D02*
X72329999Y-46555000D01*
G75*
G02*
X72080000Y-46305001I0J249999D01*
G01*
X72080000Y-45504999D01*
G75*
G02*
X72329999Y-45255000I249999J0D01*
G01*
X75230001Y-45255000D01*
G75*
G02*
X75480000Y-45504999I0J-249999D01*
G01*
X75480000Y-46305001D01*
G75*
G02*
X75230001Y-46555000I-249999J0D01*
G01*
G37*
%TD*%
%TO.C,R21*%
G36*
G01*
X69610001Y-42105000D02*
X66709999Y-42105000D01*
G75*
G02*
X66460000Y-41855001I0J249999D01*
G01*
X66460000Y-41054999D01*
G75*
G02*
X66709999Y-40805000I249999J0D01*
G01*
X69610001Y-40805000D01*
G75*
G02*
X69860000Y-41054999I0J-249999D01*
G01*
X69860000Y-41855001D01*
G75*
G02*
X69610001Y-42105000I-249999J0D01*
G01*
G37*
G36*
G01*
X69610001Y-46555000D02*
X66709999Y-46555000D01*
G75*
G02*
X66460000Y-46305001I0J249999D01*
G01*
X66460000Y-45504999D01*
G75*
G02*
X66709999Y-45255000I249999J0D01*
G01*
X69610001Y-45255000D01*
G75*
G02*
X69860000Y-45504999I0J-249999D01*
G01*
X69860000Y-46305001D01*
G75*
G02*
X69610001Y-46555000I-249999J0D01*
G01*
G37*
%TD*%
D12*
%TO.C,L1*%
X51730000Y-55830000D03*
X51730000Y-65730000D03*
%TD*%
D13*
%TO.C,L2*%
X77460000Y-60780000D03*
X77460000Y-68580000D03*
%TD*%
%TO.C,C4*%
G36*
G01*
X70240000Y-69430002D02*
X70240000Y-66529998D01*
G75*
G02*
X70489998Y-66280000I249998J0D01*
G01*
X71565002Y-66280000D01*
G75*
G02*
X71815000Y-66529998I0J-249998D01*
G01*
X71815000Y-69430002D01*
G75*
G02*
X71565002Y-69680000I-249998J0D01*
G01*
X70489998Y-69680000D01*
G75*
G02*
X70240000Y-69430002I0J249998D01*
G01*
G37*
G36*
G01*
X65965000Y-69430002D02*
X65965000Y-66529998D01*
G75*
G02*
X66214998Y-66280000I249998J0D01*
G01*
X67290002Y-66280000D01*
G75*
G02*
X67540000Y-66529998I0J-249998D01*
G01*
X67540000Y-69430002D01*
G75*
G02*
X67290002Y-69680000I-249998J0D01*
G01*
X66214998Y-69680000D01*
G75*
G02*
X65965000Y-69430002I0J249998D01*
G01*
G37*
%TD*%
D14*
%TO.C,U8*%
X68550000Y-60150000D03*
X67600000Y-60150000D03*
X66650000Y-60150000D03*
X66650000Y-57530000D03*
X67600000Y-57530000D03*
X68550000Y-57530000D03*
%TD*%
%TO.C,R20*%
G36*
G01*
X39065836Y-43887520D02*
X36165834Y-43887520D01*
G75*
G02*
X35915835Y-43637521I0J249999D01*
G01*
X35915835Y-42837519D01*
G75*
G02*
X36165834Y-42587520I249999J0D01*
G01*
X39065836Y-42587520D01*
G75*
G02*
X39315835Y-42837519I0J-249999D01*
G01*
X39315835Y-43637521D01*
G75*
G02*
X39065836Y-43887520I-249999J0D01*
G01*
G37*
G36*
G01*
X39065836Y-48337520D02*
X36165834Y-48337520D01*
G75*
G02*
X35915835Y-48087521I0J249999D01*
G01*
X35915835Y-47287519D01*
G75*
G02*
X36165834Y-47037520I249999J0D01*
G01*
X39065836Y-47037520D01*
G75*
G02*
X39315835Y-47287519I0J-249999D01*
G01*
X39315835Y-48087521D01*
G75*
G02*
X39065836Y-48337520I-249999J0D01*
G01*
G37*
%TD*%
%TO.C,R19*%
G36*
G01*
X43546669Y-43887520D02*
X40646667Y-43887520D01*
G75*
G02*
X40396668Y-43637521I0J249999D01*
G01*
X40396668Y-42837519D01*
G75*
G02*
X40646667Y-42587520I249999J0D01*
G01*
X43546669Y-42587520D01*
G75*
G02*
X43796668Y-42837519I0J-249999D01*
G01*
X43796668Y-43637521D01*
G75*
G02*
X43546669Y-43887520I-249999J0D01*
G01*
G37*
G36*
G01*
X43546669Y-48337520D02*
X40646667Y-48337520D01*
G75*
G02*
X40396668Y-48087521I0J249999D01*
G01*
X40396668Y-47287519D01*
G75*
G02*
X40646667Y-47037520I249999J0D01*
G01*
X43546669Y-47037520D01*
G75*
G02*
X43796668Y-47287519I0J-249999D01*
G01*
X43796668Y-48087521D01*
G75*
G02*
X43546669Y-48337520I-249999J0D01*
G01*
G37*
%TD*%
%TO.C,R18*%
G36*
G01*
X48027502Y-43887520D02*
X45127500Y-43887520D01*
G75*
G02*
X44877501Y-43637521I0J249999D01*
G01*
X44877501Y-42837519D01*
G75*
G02*
X45127500Y-42587520I249999J0D01*
G01*
X48027502Y-42587520D01*
G75*
G02*
X48277501Y-42837519I0J-249999D01*
G01*
X48277501Y-43637521D01*
G75*
G02*
X48027502Y-43887520I-249999J0D01*
G01*
G37*
G36*
G01*
X48027502Y-48337520D02*
X45127500Y-48337520D01*
G75*
G02*
X44877501Y-48087521I0J249999D01*
G01*
X44877501Y-47287519D01*
G75*
G02*
X45127500Y-47037520I249999J0D01*
G01*
X48027502Y-47037520D01*
G75*
G02*
X48277501Y-47287519I0J-249999D01*
G01*
X48277501Y-48087521D01*
G75*
G02*
X48027502Y-48337520I-249999J0D01*
G01*
G37*
%TD*%
%TO.C,R17*%
G36*
G01*
X52508335Y-43887520D02*
X49608333Y-43887520D01*
G75*
G02*
X49358334Y-43637521I0J249999D01*
G01*
X49358334Y-42837519D01*
G75*
G02*
X49608333Y-42587520I249999J0D01*
G01*
X52508335Y-42587520D01*
G75*
G02*
X52758334Y-42837519I0J-249999D01*
G01*
X52758334Y-43637521D01*
G75*
G02*
X52508335Y-43887520I-249999J0D01*
G01*
G37*
G36*
G01*
X52508335Y-48337520D02*
X49608333Y-48337520D01*
G75*
G02*
X49358334Y-48087521I0J249999D01*
G01*
X49358334Y-47287519D01*
G75*
G02*
X49608333Y-47037520I249999J0D01*
G01*
X52508335Y-47037520D01*
G75*
G02*
X52758334Y-47287519I0J-249999D01*
G01*
X52758334Y-48087521D01*
G75*
G02*
X52508335Y-48337520I-249999J0D01*
G01*
G37*
%TD*%
%TO.C,R16*%
G36*
G01*
X56989168Y-43887520D02*
X54089166Y-43887520D01*
G75*
G02*
X53839167Y-43637521I0J249999D01*
G01*
X53839167Y-42837519D01*
G75*
G02*
X54089166Y-42587520I249999J0D01*
G01*
X56989168Y-42587520D01*
G75*
G02*
X57239167Y-42837519I0J-249999D01*
G01*
X57239167Y-43637521D01*
G75*
G02*
X56989168Y-43887520I-249999J0D01*
G01*
G37*
G36*
G01*
X56989168Y-48337520D02*
X54089166Y-48337520D01*
G75*
G02*
X53839167Y-48087521I0J249999D01*
G01*
X53839167Y-47287519D01*
G75*
G02*
X54089166Y-47037520I249999J0D01*
G01*
X56989168Y-47037520D01*
G75*
G02*
X57239167Y-47287519I0J-249999D01*
G01*
X57239167Y-48087521D01*
G75*
G02*
X56989168Y-48337520I-249999J0D01*
G01*
G37*
%TD*%
%TO.C,R15*%
G36*
G01*
X61470001Y-43885000D02*
X58569999Y-43885000D01*
G75*
G02*
X58320000Y-43635001I0J249999D01*
G01*
X58320000Y-42834999D01*
G75*
G02*
X58569999Y-42585000I249999J0D01*
G01*
X61470001Y-42585000D01*
G75*
G02*
X61720000Y-42834999I0J-249999D01*
G01*
X61720000Y-43635001D01*
G75*
G02*
X61470001Y-43885000I-249999J0D01*
G01*
G37*
G36*
G01*
X61470001Y-48335000D02*
X58569999Y-48335000D01*
G75*
G02*
X58320000Y-48085001I0J249999D01*
G01*
X58320000Y-47284999D01*
G75*
G02*
X58569999Y-47035000I249999J0D01*
G01*
X61470001Y-47035000D01*
G75*
G02*
X61720000Y-47284999I0J-249999D01*
G01*
X61720000Y-48085001D01*
G75*
G02*
X61470001Y-48335000I-249999J0D01*
G01*
G37*
%TD*%
%TO.C,R14*%
G36*
G01*
X56975000Y-81850001D02*
X56975000Y-78949999D01*
G75*
G02*
X57224999Y-78700000I249999J0D01*
G01*
X58025001Y-78700000D01*
G75*
G02*
X58275000Y-78949999I0J-249999D01*
G01*
X58275000Y-81850001D01*
G75*
G02*
X58025001Y-82100000I-249999J0D01*
G01*
X57224999Y-82100000D01*
G75*
G02*
X56975000Y-81850001I0J249999D01*
G01*
G37*
G36*
G01*
X52525000Y-81850001D02*
X52525000Y-78949999D01*
G75*
G02*
X52774999Y-78700000I249999J0D01*
G01*
X53575001Y-78700000D01*
G75*
G02*
X53825000Y-78949999I0J-249999D01*
G01*
X53825000Y-81850001D01*
G75*
G02*
X53575001Y-82100000I-249999J0D01*
G01*
X52774999Y-82100000D01*
G75*
G02*
X52525000Y-81850001I0J249999D01*
G01*
G37*
%TD*%
%TO.C,R13*%
G36*
G01*
X59749999Y-88275000D02*
X62650001Y-88275000D01*
G75*
G02*
X62900000Y-88524999I0J-249999D01*
G01*
X62900000Y-89325001D01*
G75*
G02*
X62650001Y-89575000I-249999J0D01*
G01*
X59749999Y-89575000D01*
G75*
G02*
X59500000Y-89325001I0J249999D01*
G01*
X59500000Y-88524999D01*
G75*
G02*
X59749999Y-88275000I249999J0D01*
G01*
G37*
G36*
G01*
X59749999Y-83825000D02*
X62650001Y-83825000D01*
G75*
G02*
X62900000Y-84074999I0J-249999D01*
G01*
X62900000Y-84875001D01*
G75*
G02*
X62650001Y-85125000I-249999J0D01*
G01*
X59749999Y-85125000D01*
G75*
G02*
X59500000Y-84875001I0J249999D01*
G01*
X59500000Y-84074999D01*
G75*
G02*
X59749999Y-83825000I249999J0D01*
G01*
G37*
%TD*%
%TO.C,R12*%
G36*
G01*
X63849999Y-88275000D02*
X66750001Y-88275000D01*
G75*
G02*
X67000000Y-88524999I0J-249999D01*
G01*
X67000000Y-89325001D01*
G75*
G02*
X66750001Y-89575000I-249999J0D01*
G01*
X63849999Y-89575000D01*
G75*
G02*
X63600000Y-89325001I0J249999D01*
G01*
X63600000Y-88524999D01*
G75*
G02*
X63849999Y-88275000I249999J0D01*
G01*
G37*
G36*
G01*
X63849999Y-83825000D02*
X66750001Y-83825000D01*
G75*
G02*
X67000000Y-84074999I0J-249999D01*
G01*
X67000000Y-84875001D01*
G75*
G02*
X66750001Y-85125000I-249999J0D01*
G01*
X63849999Y-85125000D01*
G75*
G02*
X63600000Y-84875001I0J249999D01*
G01*
X63600000Y-84074999D01*
G75*
G02*
X63849999Y-83825000I249999J0D01*
G01*
G37*
%TD*%
%TO.C,R11*%
G36*
G01*
X66750001Y-78725000D02*
X63849999Y-78725000D01*
G75*
G02*
X63600000Y-78475001I0J249999D01*
G01*
X63600000Y-77674999D01*
G75*
G02*
X63849999Y-77425000I249999J0D01*
G01*
X66750001Y-77425000D01*
G75*
G02*
X67000000Y-77674999I0J-249999D01*
G01*
X67000000Y-78475001D01*
G75*
G02*
X66750001Y-78725000I-249999J0D01*
G01*
G37*
G36*
G01*
X66750001Y-83175000D02*
X63849999Y-83175000D01*
G75*
G02*
X63600000Y-82925001I0J249999D01*
G01*
X63600000Y-82124999D01*
G75*
G02*
X63849999Y-81875000I249999J0D01*
G01*
X66750001Y-81875000D01*
G75*
G02*
X67000000Y-82124999I0J-249999D01*
G01*
X67000000Y-82925001D01*
G75*
G02*
X66750001Y-83175000I-249999J0D01*
G01*
G37*
%TD*%
%TO.C,R10*%
G36*
G01*
X68349999Y-80175000D02*
X71250001Y-80175000D01*
G75*
G02*
X71500000Y-80424999I0J-249999D01*
G01*
X71500000Y-81225001D01*
G75*
G02*
X71250001Y-81475000I-249999J0D01*
G01*
X68349999Y-81475000D01*
G75*
G02*
X68100000Y-81225001I0J249999D01*
G01*
X68100000Y-80424999D01*
G75*
G02*
X68349999Y-80175000I249999J0D01*
G01*
G37*
G36*
G01*
X68349999Y-75725000D02*
X71250001Y-75725000D01*
G75*
G02*
X71500000Y-75974999I0J-249999D01*
G01*
X71500000Y-76775001D01*
G75*
G02*
X71250001Y-77025000I-249999J0D01*
G01*
X68349999Y-77025000D01*
G75*
G02*
X68100000Y-76775001I0J249999D01*
G01*
X68100000Y-75974999D01*
G75*
G02*
X68349999Y-75725000I249999J0D01*
G01*
G37*
%TD*%
%TO.C,R9*%
G36*
G01*
X76050001Y-77025000D02*
X73149999Y-77025000D01*
G75*
G02*
X72900000Y-76775001I0J249999D01*
G01*
X72900000Y-75974999D01*
G75*
G02*
X73149999Y-75725000I249999J0D01*
G01*
X76050001Y-75725000D01*
G75*
G02*
X76300000Y-75974999I0J-249999D01*
G01*
X76300000Y-76775001D01*
G75*
G02*
X76050001Y-77025000I-249999J0D01*
G01*
G37*
G36*
G01*
X76050001Y-81475000D02*
X73149999Y-81475000D01*
G75*
G02*
X72900000Y-81225001I0J249999D01*
G01*
X72900000Y-80424999D01*
G75*
G02*
X73149999Y-80175000I249999J0D01*
G01*
X76050001Y-80175000D01*
G75*
G02*
X76300000Y-80424999I0J-249999D01*
G01*
X76300000Y-81225001D01*
G75*
G02*
X76050001Y-81475000I-249999J0D01*
G01*
G37*
%TD*%
%TO.C,R8*%
G36*
G01*
X62650001Y-78725000D02*
X59749999Y-78725000D01*
G75*
G02*
X59500000Y-78475001I0J249999D01*
G01*
X59500000Y-77674999D01*
G75*
G02*
X59749999Y-77425000I249999J0D01*
G01*
X62650001Y-77425000D01*
G75*
G02*
X62900000Y-77674999I0J-249999D01*
G01*
X62900000Y-78475001D01*
G75*
G02*
X62650001Y-78725000I-249999J0D01*
G01*
G37*
G36*
G01*
X62650001Y-83175000D02*
X59749999Y-83175000D01*
G75*
G02*
X59500000Y-82925001I0J249999D01*
G01*
X59500000Y-82124999D01*
G75*
G02*
X59749999Y-81875000I249999J0D01*
G01*
X62650001Y-81875000D01*
G75*
G02*
X62900000Y-82124999I0J-249999D01*
G01*
X62900000Y-82925001D01*
G75*
G02*
X62650001Y-83175000I-249999J0D01*
G01*
G37*
%TD*%
%TO.C,R7*%
G36*
G01*
X78265000Y-94710001D02*
X78265000Y-91809999D01*
G75*
G02*
X78514999Y-91560000I249999J0D01*
G01*
X79315001Y-91560000D01*
G75*
G02*
X79565000Y-91809999I0J-249999D01*
G01*
X79565000Y-94710001D01*
G75*
G02*
X79315001Y-94960000I-249999J0D01*
G01*
X78514999Y-94960000D01*
G75*
G02*
X78265000Y-94710001I0J249999D01*
G01*
G37*
G36*
G01*
X73815000Y-94710001D02*
X73815000Y-91809999D01*
G75*
G02*
X74064999Y-91560000I249999J0D01*
G01*
X74865001Y-91560000D01*
G75*
G02*
X75115000Y-91809999I0J-249999D01*
G01*
X75115000Y-94710001D01*
G75*
G02*
X74865001Y-94960000I-249999J0D01*
G01*
X74064999Y-94960000D01*
G75*
G02*
X73815000Y-94710001I0J249999D01*
G01*
G37*
%TD*%
%TO.C,R6*%
G36*
G01*
X77325000Y-87149999D02*
X77325000Y-90050001D01*
G75*
G02*
X77075001Y-90300000I-249999J0D01*
G01*
X76274999Y-90300000D01*
G75*
G02*
X76025000Y-90050001I0J249999D01*
G01*
X76025000Y-87149999D01*
G75*
G02*
X76274999Y-86900000I249999J0D01*
G01*
X77075001Y-86900000D01*
G75*
G02*
X77325000Y-87149999I0J-249999D01*
G01*
G37*
G36*
G01*
X81775000Y-87149999D02*
X81775000Y-90050001D01*
G75*
G02*
X81525001Y-90300000I-249999J0D01*
G01*
X80724999Y-90300000D01*
G75*
G02*
X80475000Y-90050001I0J249999D01*
G01*
X80475000Y-87149999D01*
G75*
G02*
X80724999Y-86900000I249999J0D01*
G01*
X81525001Y-86900000D01*
G75*
G02*
X81775000Y-87149999I0J-249999D01*
G01*
G37*
%TD*%
%TO.C,U6*%
G36*
G01*
X73305000Y-88260000D02*
X73605000Y-88260000D01*
G75*
G02*
X73755000Y-88410000I0J-150000D01*
G01*
X73755000Y-90060000D01*
G75*
G02*
X73605000Y-90210000I-150000J0D01*
G01*
X73305000Y-90210000D01*
G75*
G02*
X73155000Y-90060000I0J150000D01*
G01*
X73155000Y-88410000D01*
G75*
G02*
X73305000Y-88260000I150000J0D01*
G01*
G37*
G36*
G01*
X72035000Y-88260000D02*
X72335000Y-88260000D01*
G75*
G02*
X72485000Y-88410000I0J-150000D01*
G01*
X72485000Y-90060000D01*
G75*
G02*
X72335000Y-90210000I-150000J0D01*
G01*
X72035000Y-90210000D01*
G75*
G02*
X71885000Y-90060000I0J150000D01*
G01*
X71885000Y-88410000D01*
G75*
G02*
X72035000Y-88260000I150000J0D01*
G01*
G37*
G36*
G01*
X70765000Y-88260000D02*
X71065000Y-88260000D01*
G75*
G02*
X71215000Y-88410000I0J-150000D01*
G01*
X71215000Y-90060000D01*
G75*
G02*
X71065000Y-90210000I-150000J0D01*
G01*
X70765000Y-90210000D01*
G75*
G02*
X70615000Y-90060000I0J150000D01*
G01*
X70615000Y-88410000D01*
G75*
G02*
X70765000Y-88260000I150000J0D01*
G01*
G37*
G36*
G01*
X69495000Y-88260000D02*
X69795000Y-88260000D01*
G75*
G02*
X69945000Y-88410000I0J-150000D01*
G01*
X69945000Y-90060000D01*
G75*
G02*
X69795000Y-90210000I-150000J0D01*
G01*
X69495000Y-90210000D01*
G75*
G02*
X69345000Y-90060000I0J150000D01*
G01*
X69345000Y-88410000D01*
G75*
G02*
X69495000Y-88260000I150000J0D01*
G01*
G37*
G36*
G01*
X69495000Y-83310000D02*
X69795000Y-83310000D01*
G75*
G02*
X69945000Y-83460000I0J-150000D01*
G01*
X69945000Y-85110000D01*
G75*
G02*
X69795000Y-85260000I-150000J0D01*
G01*
X69495000Y-85260000D01*
G75*
G02*
X69345000Y-85110000I0J150000D01*
G01*
X69345000Y-83460000D01*
G75*
G02*
X69495000Y-83310000I150000J0D01*
G01*
G37*
G36*
G01*
X70765000Y-83310000D02*
X71065000Y-83310000D01*
G75*
G02*
X71215000Y-83460000I0J-150000D01*
G01*
X71215000Y-85110000D01*
G75*
G02*
X71065000Y-85260000I-150000J0D01*
G01*
X70765000Y-85260000D01*
G75*
G02*
X70615000Y-85110000I0J150000D01*
G01*
X70615000Y-83460000D01*
G75*
G02*
X70765000Y-83310000I150000J0D01*
G01*
G37*
G36*
G01*
X72035000Y-83310000D02*
X72335000Y-83310000D01*
G75*
G02*
X72485000Y-83460000I0J-150000D01*
G01*
X72485000Y-85110000D01*
G75*
G02*
X72335000Y-85260000I-150000J0D01*
G01*
X72035000Y-85260000D01*
G75*
G02*
X71885000Y-85110000I0J150000D01*
G01*
X71885000Y-83460000D01*
G75*
G02*
X72035000Y-83310000I150000J0D01*
G01*
G37*
G36*
G01*
X73305000Y-83310000D02*
X73605000Y-83310000D01*
G75*
G02*
X73755000Y-83460000I0J-150000D01*
G01*
X73755000Y-85110000D01*
G75*
G02*
X73605000Y-85260000I-150000J0D01*
G01*
X73305000Y-85260000D01*
G75*
G02*
X73155000Y-85110000I0J150000D01*
G01*
X73155000Y-83460000D01*
G75*
G02*
X73305000Y-83310000I150000J0D01*
G01*
G37*
%TD*%
D15*
%TO.C,Q6*%
X32760000Y-39040000D03*
X33710000Y-41040000D03*
X31810000Y-41040000D03*
%TD*%
%TO.C,Q5*%
X37840000Y-39040000D03*
X38790000Y-41040000D03*
X36890000Y-41040000D03*
%TD*%
%TO.C,Q4*%
X42920000Y-39040000D03*
X43870000Y-41040000D03*
X41970000Y-41040000D03*
%TD*%
%TO.C,Q3*%
X48000000Y-39040000D03*
X48950000Y-41040000D03*
X47050000Y-41040000D03*
%TD*%
%TO.C,Q2*%
X53080000Y-39040000D03*
X54030000Y-41040000D03*
X52130000Y-41040000D03*
%TD*%
%TO.C,Q1*%
X58160000Y-39040000D03*
X59110000Y-41040000D03*
X57210000Y-41040000D03*
%TD*%
%TO.C,U7*%
G36*
G01*
X57455000Y-88500000D02*
X57755000Y-88500000D01*
G75*
G02*
X57905000Y-88650000I0J-150000D01*
G01*
X57905000Y-90100000D01*
G75*
G02*
X57755000Y-90250000I-150000J0D01*
G01*
X57455000Y-90250000D01*
G75*
G02*
X57305000Y-90100000I0J150000D01*
G01*
X57305000Y-88650000D01*
G75*
G02*
X57455000Y-88500000I150000J0D01*
G01*
G37*
G36*
G01*
X56185000Y-88500000D02*
X56485000Y-88500000D01*
G75*
G02*
X56635000Y-88650000I0J-150000D01*
G01*
X56635000Y-90100000D01*
G75*
G02*
X56485000Y-90250000I-150000J0D01*
G01*
X56185000Y-90250000D01*
G75*
G02*
X56035000Y-90100000I0J150000D01*
G01*
X56035000Y-88650000D01*
G75*
G02*
X56185000Y-88500000I150000J0D01*
G01*
G37*
G36*
G01*
X54915000Y-88500000D02*
X55215000Y-88500000D01*
G75*
G02*
X55365000Y-88650000I0J-150000D01*
G01*
X55365000Y-90100000D01*
G75*
G02*
X55215000Y-90250000I-150000J0D01*
G01*
X54915000Y-90250000D01*
G75*
G02*
X54765000Y-90100000I0J150000D01*
G01*
X54765000Y-88650000D01*
G75*
G02*
X54915000Y-88500000I150000J0D01*
G01*
G37*
G36*
G01*
X53645000Y-88500000D02*
X53945000Y-88500000D01*
G75*
G02*
X54095000Y-88650000I0J-150000D01*
G01*
X54095000Y-90100000D01*
G75*
G02*
X53945000Y-90250000I-150000J0D01*
G01*
X53645000Y-90250000D01*
G75*
G02*
X53495000Y-90100000I0J150000D01*
G01*
X53495000Y-88650000D01*
G75*
G02*
X53645000Y-88500000I150000J0D01*
G01*
G37*
G36*
G01*
X53645000Y-83350000D02*
X53945000Y-83350000D01*
G75*
G02*
X54095000Y-83500000I0J-150000D01*
G01*
X54095000Y-84950000D01*
G75*
G02*
X53945000Y-85100000I-150000J0D01*
G01*
X53645000Y-85100000D01*
G75*
G02*
X53495000Y-84950000I0J150000D01*
G01*
X53495000Y-83500000D01*
G75*
G02*
X53645000Y-83350000I150000J0D01*
G01*
G37*
G36*
G01*
X54915000Y-83350000D02*
X55215000Y-83350000D01*
G75*
G02*
X55365000Y-83500000I0J-150000D01*
G01*
X55365000Y-84950000D01*
G75*
G02*
X55215000Y-85100000I-150000J0D01*
G01*
X54915000Y-85100000D01*
G75*
G02*
X54765000Y-84950000I0J150000D01*
G01*
X54765000Y-83500000D01*
G75*
G02*
X54915000Y-83350000I150000J0D01*
G01*
G37*
G36*
G01*
X56185000Y-83350000D02*
X56485000Y-83350000D01*
G75*
G02*
X56635000Y-83500000I0J-150000D01*
G01*
X56635000Y-84950000D01*
G75*
G02*
X56485000Y-85100000I-150000J0D01*
G01*
X56185000Y-85100000D01*
G75*
G02*
X56035000Y-84950000I0J150000D01*
G01*
X56035000Y-83500000D01*
G75*
G02*
X56185000Y-83350000I150000J0D01*
G01*
G37*
G36*
G01*
X57455000Y-83350000D02*
X57755000Y-83350000D01*
G75*
G02*
X57905000Y-83500000I0J-150000D01*
G01*
X57905000Y-84950000D01*
G75*
G02*
X57755000Y-85100000I-150000J0D01*
G01*
X57455000Y-85100000D01*
G75*
G02*
X57305000Y-84950000I0J150000D01*
G01*
X57305000Y-83500000D01*
G75*
G02*
X57455000Y-83350000I150000J0D01*
G01*
G37*
%TD*%
D16*
%TO.C,U5*%
X34250000Y-53665000D03*
X29400000Y-59215000D03*
X34250000Y-59215000D03*
X29400000Y-53665000D03*
D17*
X40975000Y-53040000D03*
X40975000Y-54740000D03*
X40975000Y-56440000D03*
X40975000Y-58140000D03*
X40975000Y-59840000D03*
%TD*%
D18*
%TO.C,D1*%
X38690000Y-66420000D03*
X41990000Y-66420000D03*
%TD*%
M02*
