%TF.GenerationSoftware,KiCad,Pcbnew,7.0.10*%
%TF.CreationDate,2024-07-06T13:46:37+02:00*%
%TF.ProjectId,Overlord,4f766572-6c6f-4726-942e-6b696361645f,rev?*%
%TF.SameCoordinates,Original*%
%TF.FileFunction,Legend,Bot*%
%TF.FilePolarity,Positive*%
%FSLAX46Y46*%
G04 Gerber Fmt 4.6, Leading zero omitted, Abs format (unit mm)*
G04 Created by KiCad (PCBNEW 7.0.10) date 2024-07-06 13:46:37*
%MOMM*%
%LPD*%
G01*
G04 APERTURE LIST*
G04 Aperture macros list*
%AMRoundRect*
0 Rectangle with rounded corners*
0 $1 Rounding radius*
0 $2 $3 $4 $5 $6 $7 $8 $9 X,Y pos of 4 corners*
0 Add a 4 corners polygon primitive as box body*
4,1,4,$2,$3,$4,$5,$6,$7,$8,$9,$2,$3,0*
0 Add four circle primitives for the rounded corners*
1,1,$1+$1,$2,$3*
1,1,$1+$1,$4,$5*
1,1,$1+$1,$6,$7*
1,1,$1+$1,$8,$9*
0 Add four rect primitives between the rounded corners*
20,1,$1+$1,$2,$3,$4,$5,0*
20,1,$1+$1,$4,$5,$6,$7,0*
20,1,$1+$1,$6,$7,$8,$9,0*
20,1,$1+$1,$8,$9,$2,$3,0*%
G04 Aperture macros list end*
%ADD10C,0.150000*%
%ADD11C,0.120000*%
%ADD12C,3.500000*%
%ADD13R,1.700000X1.700000*%
%ADD14O,1.700000X1.700000*%
%ADD15C,1.600000*%
%ADD16R,1.200000X1.200000*%
%ADD17C,1.200000*%
%ADD18C,2.540000*%
%ADD19C,3.250000*%
%ADD20R,1.500000X1.500000*%
%ADD21C,1.500000*%
%ADD22C,2.300000*%
%ADD23R,1.600000X1.600000*%
%ADD24C,1.700000*%
%ADD25RoundRect,0.250000X-0.350000X-0.450000X0.350000X-0.450000X0.350000X0.450000X-0.350000X0.450000X0*%
%ADD26RoundRect,0.250000X0.350000X0.450000X-0.350000X0.450000X-0.350000X-0.450000X0.350000X-0.450000X0*%
%ADD27RoundRect,0.150000X-0.150000X0.587500X-0.150000X-0.587500X0.150000X-0.587500X0.150000X0.587500X0*%
%ADD28RoundRect,0.250000X-0.450000X0.350000X-0.450000X-0.350000X0.450000X-0.350000X0.450000X0.350000X0*%
G04 APERTURE END LIST*
D10*
X59732857Y-108244819D02*
X60066190Y-107768628D01*
X60304285Y-108244819D02*
X60304285Y-107244819D01*
X60304285Y-107244819D02*
X59923333Y-107244819D01*
X59923333Y-107244819D02*
X59828095Y-107292438D01*
X59828095Y-107292438D02*
X59780476Y-107340057D01*
X59780476Y-107340057D02*
X59732857Y-107435295D01*
X59732857Y-107435295D02*
X59732857Y-107578152D01*
X59732857Y-107578152D02*
X59780476Y-107673390D01*
X59780476Y-107673390D02*
X59828095Y-107721009D01*
X59828095Y-107721009D02*
X59923333Y-107768628D01*
X59923333Y-107768628D02*
X60304285Y-107768628D01*
X59399523Y-107244819D02*
X58780476Y-107244819D01*
X58780476Y-107244819D02*
X59113809Y-107625771D01*
X59113809Y-107625771D02*
X58970952Y-107625771D01*
X58970952Y-107625771D02*
X58875714Y-107673390D01*
X58875714Y-107673390D02*
X58828095Y-107721009D01*
X58828095Y-107721009D02*
X58780476Y-107816247D01*
X58780476Y-107816247D02*
X58780476Y-108054342D01*
X58780476Y-108054342D02*
X58828095Y-108149580D01*
X58828095Y-108149580D02*
X58875714Y-108197200D01*
X58875714Y-108197200D02*
X58970952Y-108244819D01*
X58970952Y-108244819D02*
X59256666Y-108244819D01*
X59256666Y-108244819D02*
X59351904Y-108197200D01*
X59351904Y-108197200D02*
X59399523Y-108149580D01*
X57828095Y-108244819D02*
X58399523Y-108244819D01*
X58113809Y-108244819D02*
X58113809Y-107244819D01*
X58113809Y-107244819D02*
X58209047Y-107387676D01*
X58209047Y-107387676D02*
X58304285Y-107482914D01*
X58304285Y-107482914D02*
X58399523Y-107530533D01*
X64042857Y-96704819D02*
X64376190Y-96228628D01*
X64614285Y-96704819D02*
X64614285Y-95704819D01*
X64614285Y-95704819D02*
X64233333Y-95704819D01*
X64233333Y-95704819D02*
X64138095Y-95752438D01*
X64138095Y-95752438D02*
X64090476Y-95800057D01*
X64090476Y-95800057D02*
X64042857Y-95895295D01*
X64042857Y-95895295D02*
X64042857Y-96038152D01*
X64042857Y-96038152D02*
X64090476Y-96133390D01*
X64090476Y-96133390D02*
X64138095Y-96181009D01*
X64138095Y-96181009D02*
X64233333Y-96228628D01*
X64233333Y-96228628D02*
X64614285Y-96228628D01*
X63709523Y-95704819D02*
X63090476Y-95704819D01*
X63090476Y-95704819D02*
X63423809Y-96085771D01*
X63423809Y-96085771D02*
X63280952Y-96085771D01*
X63280952Y-96085771D02*
X63185714Y-96133390D01*
X63185714Y-96133390D02*
X63138095Y-96181009D01*
X63138095Y-96181009D02*
X63090476Y-96276247D01*
X63090476Y-96276247D02*
X63090476Y-96514342D01*
X63090476Y-96514342D02*
X63138095Y-96609580D01*
X63138095Y-96609580D02*
X63185714Y-96657200D01*
X63185714Y-96657200D02*
X63280952Y-96704819D01*
X63280952Y-96704819D02*
X63566666Y-96704819D01*
X63566666Y-96704819D02*
X63661904Y-96657200D01*
X63661904Y-96657200D02*
X63709523Y-96609580D01*
X62757142Y-95704819D02*
X62138095Y-95704819D01*
X62138095Y-95704819D02*
X62471428Y-96085771D01*
X62471428Y-96085771D02*
X62328571Y-96085771D01*
X62328571Y-96085771D02*
X62233333Y-96133390D01*
X62233333Y-96133390D02*
X62185714Y-96181009D01*
X62185714Y-96181009D02*
X62138095Y-96276247D01*
X62138095Y-96276247D02*
X62138095Y-96514342D01*
X62138095Y-96514342D02*
X62185714Y-96609580D01*
X62185714Y-96609580D02*
X62233333Y-96657200D01*
X62233333Y-96657200D02*
X62328571Y-96704819D01*
X62328571Y-96704819D02*
X62614285Y-96704819D01*
X62614285Y-96704819D02*
X62709523Y-96657200D01*
X62709523Y-96657200D02*
X62757142Y-96609580D01*
X69345238Y-93680057D02*
X69440476Y-93632438D01*
X69440476Y-93632438D02*
X69535714Y-93537200D01*
X69535714Y-93537200D02*
X69678571Y-93394342D01*
X69678571Y-93394342D02*
X69773809Y-93346723D01*
X69773809Y-93346723D02*
X69869047Y-93346723D01*
X69821428Y-93584819D02*
X69916666Y-93537200D01*
X69916666Y-93537200D02*
X70011904Y-93441961D01*
X70011904Y-93441961D02*
X70059523Y-93251485D01*
X70059523Y-93251485D02*
X70059523Y-92918152D01*
X70059523Y-92918152D02*
X70011904Y-92727676D01*
X70011904Y-92727676D02*
X69916666Y-92632438D01*
X69916666Y-92632438D02*
X69821428Y-92584819D01*
X69821428Y-92584819D02*
X69630952Y-92584819D01*
X69630952Y-92584819D02*
X69535714Y-92632438D01*
X69535714Y-92632438D02*
X69440476Y-92727676D01*
X69440476Y-92727676D02*
X69392857Y-92918152D01*
X69392857Y-92918152D02*
X69392857Y-93251485D01*
X69392857Y-93251485D02*
X69440476Y-93441961D01*
X69440476Y-93441961D02*
X69535714Y-93537200D01*
X69535714Y-93537200D02*
X69630952Y-93584819D01*
X69630952Y-93584819D02*
X69821428Y-93584819D01*
X68440476Y-93584819D02*
X69011904Y-93584819D01*
X68726190Y-93584819D02*
X68726190Y-92584819D01*
X68726190Y-92584819D02*
X68821428Y-92727676D01*
X68821428Y-92727676D02*
X68916666Y-92822914D01*
X68916666Y-92822914D02*
X69011904Y-92870533D01*
X40950057Y-90394761D02*
X40902438Y-90299523D01*
X40902438Y-90299523D02*
X40807200Y-90204285D01*
X40807200Y-90204285D02*
X40664342Y-90061428D01*
X40664342Y-90061428D02*
X40616723Y-89966190D01*
X40616723Y-89966190D02*
X40616723Y-89870952D01*
X40854819Y-89918571D02*
X40807200Y-89823333D01*
X40807200Y-89823333D02*
X40711961Y-89728095D01*
X40711961Y-89728095D02*
X40521485Y-89680476D01*
X40521485Y-89680476D02*
X40188152Y-89680476D01*
X40188152Y-89680476D02*
X39997676Y-89728095D01*
X39997676Y-89728095D02*
X39902438Y-89823333D01*
X39902438Y-89823333D02*
X39854819Y-89918571D01*
X39854819Y-89918571D02*
X39854819Y-90109047D01*
X39854819Y-90109047D02*
X39902438Y-90204285D01*
X39902438Y-90204285D02*
X39997676Y-90299523D01*
X39997676Y-90299523D02*
X40188152Y-90347142D01*
X40188152Y-90347142D02*
X40521485Y-90347142D01*
X40521485Y-90347142D02*
X40711961Y-90299523D01*
X40711961Y-90299523D02*
X40807200Y-90204285D01*
X40807200Y-90204285D02*
X40854819Y-90109047D01*
X40854819Y-90109047D02*
X40854819Y-89918571D01*
X39950057Y-90728095D02*
X39902438Y-90775714D01*
X39902438Y-90775714D02*
X39854819Y-90870952D01*
X39854819Y-90870952D02*
X39854819Y-91109047D01*
X39854819Y-91109047D02*
X39902438Y-91204285D01*
X39902438Y-91204285D02*
X39950057Y-91251904D01*
X39950057Y-91251904D02*
X40045295Y-91299523D01*
X40045295Y-91299523D02*
X40140533Y-91299523D01*
X40140533Y-91299523D02*
X40283390Y-91251904D01*
X40283390Y-91251904D02*
X40854819Y-90680476D01*
X40854819Y-90680476D02*
X40854819Y-91299523D01*
X62275238Y-92440057D02*
X62370476Y-92392438D01*
X62370476Y-92392438D02*
X62465714Y-92297200D01*
X62465714Y-92297200D02*
X62608571Y-92154342D01*
X62608571Y-92154342D02*
X62703809Y-92106723D01*
X62703809Y-92106723D02*
X62799047Y-92106723D01*
X62751428Y-92344819D02*
X62846666Y-92297200D01*
X62846666Y-92297200D02*
X62941904Y-92201961D01*
X62941904Y-92201961D02*
X62989523Y-92011485D01*
X62989523Y-92011485D02*
X62989523Y-91678152D01*
X62989523Y-91678152D02*
X62941904Y-91487676D01*
X62941904Y-91487676D02*
X62846666Y-91392438D01*
X62846666Y-91392438D02*
X62751428Y-91344819D01*
X62751428Y-91344819D02*
X62560952Y-91344819D01*
X62560952Y-91344819D02*
X62465714Y-91392438D01*
X62465714Y-91392438D02*
X62370476Y-91487676D01*
X62370476Y-91487676D02*
X62322857Y-91678152D01*
X62322857Y-91678152D02*
X62322857Y-92011485D01*
X62322857Y-92011485D02*
X62370476Y-92201961D01*
X62370476Y-92201961D02*
X62465714Y-92297200D01*
X62465714Y-92297200D02*
X62560952Y-92344819D01*
X62560952Y-92344819D02*
X62751428Y-92344819D01*
X61989523Y-91344819D02*
X61370476Y-91344819D01*
X61370476Y-91344819D02*
X61703809Y-91725771D01*
X61703809Y-91725771D02*
X61560952Y-91725771D01*
X61560952Y-91725771D02*
X61465714Y-91773390D01*
X61465714Y-91773390D02*
X61418095Y-91821009D01*
X61418095Y-91821009D02*
X61370476Y-91916247D01*
X61370476Y-91916247D02*
X61370476Y-92154342D01*
X61370476Y-92154342D02*
X61418095Y-92249580D01*
X61418095Y-92249580D02*
X61465714Y-92297200D01*
X61465714Y-92297200D02*
X61560952Y-92344819D01*
X61560952Y-92344819D02*
X61846666Y-92344819D01*
X61846666Y-92344819D02*
X61941904Y-92297200D01*
X61941904Y-92297200D02*
X61989523Y-92249580D01*
X49750057Y-90464761D02*
X49702438Y-90369523D01*
X49702438Y-90369523D02*
X49607200Y-90274285D01*
X49607200Y-90274285D02*
X49464342Y-90131428D01*
X49464342Y-90131428D02*
X49416723Y-90036190D01*
X49416723Y-90036190D02*
X49416723Y-89940952D01*
X49654819Y-89988571D02*
X49607200Y-89893333D01*
X49607200Y-89893333D02*
X49511961Y-89798095D01*
X49511961Y-89798095D02*
X49321485Y-89750476D01*
X49321485Y-89750476D02*
X48988152Y-89750476D01*
X48988152Y-89750476D02*
X48797676Y-89798095D01*
X48797676Y-89798095D02*
X48702438Y-89893333D01*
X48702438Y-89893333D02*
X48654819Y-89988571D01*
X48654819Y-89988571D02*
X48654819Y-90179047D01*
X48654819Y-90179047D02*
X48702438Y-90274285D01*
X48702438Y-90274285D02*
X48797676Y-90369523D01*
X48797676Y-90369523D02*
X48988152Y-90417142D01*
X48988152Y-90417142D02*
X49321485Y-90417142D01*
X49321485Y-90417142D02*
X49511961Y-90369523D01*
X49511961Y-90369523D02*
X49607200Y-90274285D01*
X49607200Y-90274285D02*
X49654819Y-90179047D01*
X49654819Y-90179047D02*
X49654819Y-89988571D01*
X48988152Y-91274285D02*
X49654819Y-91274285D01*
X48607200Y-91036190D02*
X49321485Y-90798095D01*
X49321485Y-90798095D02*
X49321485Y-91417142D01*
X56866666Y-100714819D02*
X57199999Y-100238628D01*
X57438094Y-100714819D02*
X57438094Y-99714819D01*
X57438094Y-99714819D02*
X57057142Y-99714819D01*
X57057142Y-99714819D02*
X56961904Y-99762438D01*
X56961904Y-99762438D02*
X56914285Y-99810057D01*
X56914285Y-99810057D02*
X56866666Y-99905295D01*
X56866666Y-99905295D02*
X56866666Y-100048152D01*
X56866666Y-100048152D02*
X56914285Y-100143390D01*
X56914285Y-100143390D02*
X56961904Y-100191009D01*
X56961904Y-100191009D02*
X57057142Y-100238628D01*
X57057142Y-100238628D02*
X57438094Y-100238628D01*
X55914285Y-100714819D02*
X56485713Y-100714819D01*
X56199999Y-100714819D02*
X56199999Y-99714819D01*
X56199999Y-99714819D02*
X56295237Y-99857676D01*
X56295237Y-99857676D02*
X56390475Y-99952914D01*
X56390475Y-99952914D02*
X56485713Y-100000533D01*
X49536666Y-95894819D02*
X49869999Y-95418628D01*
X50108094Y-95894819D02*
X50108094Y-94894819D01*
X50108094Y-94894819D02*
X49727142Y-94894819D01*
X49727142Y-94894819D02*
X49631904Y-94942438D01*
X49631904Y-94942438D02*
X49584285Y-94990057D01*
X49584285Y-94990057D02*
X49536666Y-95085295D01*
X49536666Y-95085295D02*
X49536666Y-95228152D01*
X49536666Y-95228152D02*
X49584285Y-95323390D01*
X49584285Y-95323390D02*
X49631904Y-95371009D01*
X49631904Y-95371009D02*
X49727142Y-95418628D01*
X49727142Y-95418628D02*
X50108094Y-95418628D01*
X49155713Y-94990057D02*
X49108094Y-94942438D01*
X49108094Y-94942438D02*
X49012856Y-94894819D01*
X49012856Y-94894819D02*
X48774761Y-94894819D01*
X48774761Y-94894819D02*
X48679523Y-94942438D01*
X48679523Y-94942438D02*
X48631904Y-94990057D01*
X48631904Y-94990057D02*
X48584285Y-95085295D01*
X48584285Y-95085295D02*
X48584285Y-95180533D01*
X48584285Y-95180533D02*
X48631904Y-95323390D01*
X48631904Y-95323390D02*
X49203332Y-95894819D01*
X49203332Y-95894819D02*
X48584285Y-95894819D01*
X73514819Y-92273333D02*
X73038628Y-91940000D01*
X73514819Y-91701905D02*
X72514819Y-91701905D01*
X72514819Y-91701905D02*
X72514819Y-92082857D01*
X72514819Y-92082857D02*
X72562438Y-92178095D01*
X72562438Y-92178095D02*
X72610057Y-92225714D01*
X72610057Y-92225714D02*
X72705295Y-92273333D01*
X72705295Y-92273333D02*
X72848152Y-92273333D01*
X72848152Y-92273333D02*
X72943390Y-92225714D01*
X72943390Y-92225714D02*
X72991009Y-92178095D01*
X72991009Y-92178095D02*
X73038628Y-92082857D01*
X73038628Y-92082857D02*
X73038628Y-91701905D01*
X72514819Y-92606667D02*
X72514819Y-93225714D01*
X72514819Y-93225714D02*
X72895771Y-92892381D01*
X72895771Y-92892381D02*
X72895771Y-93035238D01*
X72895771Y-93035238D02*
X72943390Y-93130476D01*
X72943390Y-93130476D02*
X72991009Y-93178095D01*
X72991009Y-93178095D02*
X73086247Y-93225714D01*
X73086247Y-93225714D02*
X73324342Y-93225714D01*
X73324342Y-93225714D02*
X73419580Y-93178095D01*
X73419580Y-93178095D02*
X73467200Y-93130476D01*
X73467200Y-93130476D02*
X73514819Y-93035238D01*
X73514819Y-93035238D02*
X73514819Y-92749524D01*
X73514819Y-92749524D02*
X73467200Y-92654286D01*
X73467200Y-92654286D02*
X73419580Y-92606667D01*
X46986666Y-91614819D02*
X47319999Y-91138628D01*
X47558094Y-91614819D02*
X47558094Y-90614819D01*
X47558094Y-90614819D02*
X47177142Y-90614819D01*
X47177142Y-90614819D02*
X47081904Y-90662438D01*
X47081904Y-90662438D02*
X47034285Y-90710057D01*
X47034285Y-90710057D02*
X46986666Y-90805295D01*
X46986666Y-90805295D02*
X46986666Y-90948152D01*
X46986666Y-90948152D02*
X47034285Y-91043390D01*
X47034285Y-91043390D02*
X47081904Y-91091009D01*
X47081904Y-91091009D02*
X47177142Y-91138628D01*
X47177142Y-91138628D02*
X47558094Y-91138628D01*
X46129523Y-90948152D02*
X46129523Y-91614819D01*
X46367618Y-90567200D02*
X46605713Y-91281485D01*
X46605713Y-91281485D02*
X45986666Y-91281485D01*
X62276666Y-94464819D02*
X62609999Y-93988628D01*
X62848094Y-94464819D02*
X62848094Y-93464819D01*
X62848094Y-93464819D02*
X62467142Y-93464819D01*
X62467142Y-93464819D02*
X62371904Y-93512438D01*
X62371904Y-93512438D02*
X62324285Y-93560057D01*
X62324285Y-93560057D02*
X62276666Y-93655295D01*
X62276666Y-93655295D02*
X62276666Y-93798152D01*
X62276666Y-93798152D02*
X62324285Y-93893390D01*
X62324285Y-93893390D02*
X62371904Y-93941009D01*
X62371904Y-93941009D02*
X62467142Y-93988628D01*
X62467142Y-93988628D02*
X62848094Y-93988628D01*
X61371904Y-93464819D02*
X61848094Y-93464819D01*
X61848094Y-93464819D02*
X61895713Y-93941009D01*
X61895713Y-93941009D02*
X61848094Y-93893390D01*
X61848094Y-93893390D02*
X61752856Y-93845771D01*
X61752856Y-93845771D02*
X61514761Y-93845771D01*
X61514761Y-93845771D02*
X61419523Y-93893390D01*
X61419523Y-93893390D02*
X61371904Y-93941009D01*
X61371904Y-93941009D02*
X61324285Y-94036247D01*
X61324285Y-94036247D02*
X61324285Y-94274342D01*
X61324285Y-94274342D02*
X61371904Y-94369580D01*
X61371904Y-94369580D02*
X61419523Y-94417200D01*
X61419523Y-94417200D02*
X61514761Y-94464819D01*
X61514761Y-94464819D02*
X61752856Y-94464819D01*
X61752856Y-94464819D02*
X61848094Y-94417200D01*
X61848094Y-94417200D02*
X61895713Y-94369580D01*
X46082857Y-95144819D02*
X46416190Y-94668628D01*
X46654285Y-95144819D02*
X46654285Y-94144819D01*
X46654285Y-94144819D02*
X46273333Y-94144819D01*
X46273333Y-94144819D02*
X46178095Y-94192438D01*
X46178095Y-94192438D02*
X46130476Y-94240057D01*
X46130476Y-94240057D02*
X46082857Y-94335295D01*
X46082857Y-94335295D02*
X46082857Y-94478152D01*
X46082857Y-94478152D02*
X46130476Y-94573390D01*
X46130476Y-94573390D02*
X46178095Y-94621009D01*
X46178095Y-94621009D02*
X46273333Y-94668628D01*
X46273333Y-94668628D02*
X46654285Y-94668628D01*
X45130476Y-95144819D02*
X45701904Y-95144819D01*
X45416190Y-95144819D02*
X45416190Y-94144819D01*
X45416190Y-94144819D02*
X45511428Y-94287676D01*
X45511428Y-94287676D02*
X45606666Y-94382914D01*
X45606666Y-94382914D02*
X45701904Y-94430533D01*
X44225714Y-94144819D02*
X44701904Y-94144819D01*
X44701904Y-94144819D02*
X44749523Y-94621009D01*
X44749523Y-94621009D02*
X44701904Y-94573390D01*
X44701904Y-94573390D02*
X44606666Y-94525771D01*
X44606666Y-94525771D02*
X44368571Y-94525771D01*
X44368571Y-94525771D02*
X44273333Y-94573390D01*
X44273333Y-94573390D02*
X44225714Y-94621009D01*
X44225714Y-94621009D02*
X44178095Y-94716247D01*
X44178095Y-94716247D02*
X44178095Y-94954342D01*
X44178095Y-94954342D02*
X44225714Y-95049580D01*
X44225714Y-95049580D02*
X44273333Y-95097200D01*
X44273333Y-95097200D02*
X44368571Y-95144819D01*
X44368571Y-95144819D02*
X44606666Y-95144819D01*
X44606666Y-95144819D02*
X44701904Y-95097200D01*
X44701904Y-95097200D02*
X44749523Y-95049580D01*
D11*
%TO.C,R31*%
X58862936Y-105405000D02*
X59317064Y-105405000D01*
X58862936Y-106875000D02*
X59317064Y-106875000D01*
%TO.C,R33*%
X63627064Y-98635000D02*
X63172936Y-98635000D01*
X63627064Y-97165000D02*
X63172936Y-97165000D01*
%TO.C,Q1*%
X71610000Y-90570000D02*
X71610000Y-89920000D01*
X71610000Y-90570000D02*
X71610000Y-91220000D01*
X68490000Y-90570000D02*
X68490000Y-88895000D01*
X68490000Y-90570000D02*
X68490000Y-91220000D01*
%TO.C,Q2*%
X44460000Y-90490000D02*
X44460000Y-89840000D01*
X44460000Y-90490000D02*
X44460000Y-91140000D01*
X41340000Y-90490000D02*
X41340000Y-88815000D01*
X41340000Y-90490000D02*
X41340000Y-91140000D01*
%TO.C,Q3*%
X66500000Y-90590000D02*
X66500000Y-89940000D01*
X66500000Y-90590000D02*
X66500000Y-91240000D01*
X63380000Y-90590000D02*
X63380000Y-88915000D01*
X63380000Y-90590000D02*
X63380000Y-91240000D01*
%TO.C,Q4*%
X53260000Y-90560000D02*
X53260000Y-89910000D01*
X53260000Y-90560000D02*
X53260000Y-91210000D01*
X50140000Y-90560000D02*
X50140000Y-88885000D01*
X50140000Y-90560000D02*
X50140000Y-91210000D01*
%TO.C,R1*%
X56472936Y-97875000D02*
X56927064Y-97875000D01*
X56472936Y-99345000D02*
X56927064Y-99345000D01*
%TO.C,R2*%
X48075000Y-97052936D02*
X48075000Y-97507064D01*
X46605000Y-97052936D02*
X46605000Y-97507064D01*
%TO.C,R3*%
X75445000Y-92212936D02*
X75445000Y-92667064D01*
X73975000Y-92212936D02*
X73975000Y-92667064D01*
%TO.C,R4*%
X46592936Y-88775000D02*
X47047064Y-88775000D01*
X46592936Y-90245000D02*
X47047064Y-90245000D01*
%TO.C,R5*%
X64682936Y-92995000D02*
X65137064Y-92995000D01*
X64682936Y-94465000D02*
X65137064Y-94465000D01*
%TO.C,R15*%
X45735000Y-96992936D02*
X45735000Y-97447064D01*
X44265000Y-96992936D02*
X44265000Y-97447064D01*
%TD*%
%LPC*%
D12*
%TO.C,H1*%
X171960000Y-43450000D03*
%TD*%
D13*
%TO.C,120R_enable1*%
X82530000Y-95610000D03*
D14*
X82530000Y-93070000D03*
%TD*%
D12*
%TO.C,H2*%
X33960000Y-93450000D03*
%TD*%
D15*
%TO.C,C12*%
X84100000Y-89000000D03*
X84100000Y-84000000D03*
%TD*%
D16*
%TO.C,C3*%
X58540000Y-54620000D03*
D17*
X57040000Y-54620000D03*
%TD*%
D16*
%TO.C,C5*%
X82080000Y-49560000D03*
D17*
X82080000Y-48060000D03*
%TD*%
D16*
%TO.C,C6*%
X84270000Y-57727400D03*
D17*
X84270000Y-59227400D03*
%TD*%
D16*
%TO.C,C17*%
X34800000Y-101600000D03*
D17*
X34800000Y-100100000D03*
%TD*%
D16*
%TO.C,C2*%
X48500000Y-85300000D03*
D17*
X48500000Y-83800000D03*
%TD*%
D18*
%TO.C,J2*%
X176220000Y-35450000D03*
X171140000Y-35450000D03*
X166060000Y-35450000D03*
X160980000Y-35450000D03*
X155900000Y-35450000D03*
X150820000Y-35450000D03*
X145740000Y-35450000D03*
X140660000Y-35450000D03*
X135580000Y-35450000D03*
%TD*%
%TO.C,J5*%
X82580000Y-101450000D03*
X87660000Y-101450000D03*
X92740000Y-101450000D03*
X97820000Y-101450000D03*
X102900000Y-101450000D03*
X107980000Y-101450000D03*
X113060000Y-101450000D03*
X118140000Y-101450000D03*
X123220000Y-101450000D03*
%TD*%
%TO.C,J6*%
X136080000Y-101450000D03*
X141160000Y-101450000D03*
X146240000Y-101450000D03*
X151320000Y-101450000D03*
X156400000Y-101450000D03*
X161480000Y-101450000D03*
X166560000Y-101450000D03*
X171640000Y-101450000D03*
X176720000Y-101450000D03*
%TD*%
%TO.C,J4*%
X123220000Y-35450000D03*
X118140000Y-35450000D03*
X113060000Y-35450000D03*
X107980000Y-35450000D03*
X102900000Y-35450000D03*
X97820000Y-35450000D03*
X92740000Y-35450000D03*
X87660000Y-35450000D03*
X82580000Y-35450000D03*
%TD*%
D19*
%TO.C,J1*%
X69540000Y-105310000D03*
X41090000Y-105310000D03*
D20*
X66750000Y-102770000D03*
D21*
X65734000Y-100990000D03*
X64718000Y-102770000D03*
X63702000Y-100990000D03*
X62686000Y-102770000D03*
X61670000Y-100990000D03*
X60654000Y-102770000D03*
X59638000Y-100990000D03*
X70050000Y-96170000D03*
X67760000Y-96170000D03*
X58620000Y-96170000D03*
X56330000Y-96170000D03*
X51000000Y-102770000D03*
X49984000Y-100990000D03*
X48968000Y-102770000D03*
X47952000Y-100990000D03*
X46936000Y-102770000D03*
X45920000Y-100990000D03*
X44904000Y-102770000D03*
X43888000Y-100990000D03*
X54300000Y-96170000D03*
X52010000Y-96170000D03*
X42870000Y-96170000D03*
X40580000Y-96170000D03*
D22*
X71320000Y-101880000D03*
X39320000Y-101880000D03*
%TD*%
D23*
%TO.C,C13*%
X124400000Y-50900000D03*
D15*
X124400000Y-47400000D03*
%TD*%
%TO.C,C8*%
X109150000Y-41400000D03*
X114150000Y-41400000D03*
%TD*%
D23*
%TO.C,C27*%
X162900000Y-55900000D03*
D15*
X166400000Y-55900000D03*
%TD*%
D23*
%TO.C,C44*%
X91400000Y-78400000D03*
D15*
X94900000Y-78400000D03*
%TD*%
D23*
%TO.C,C45*%
X169900000Y-91900000D03*
D15*
X173400000Y-91900000D03*
%TD*%
%TO.C,C7*%
X114150000Y-44400000D03*
X109150000Y-44400000D03*
%TD*%
%TO.C,C9*%
X135400000Y-92400000D03*
X140400000Y-92400000D03*
%TD*%
%TO.C,C10*%
X140400000Y-95400000D03*
X135400000Y-95400000D03*
%TD*%
%TO.C,C14*%
X114150000Y-47400000D03*
X109150000Y-47400000D03*
%TD*%
%TO.C,C15*%
X109150000Y-50400000D03*
X114150000Y-50400000D03*
%TD*%
%TO.C,C16*%
X135400000Y-89400000D03*
X140400000Y-89400000D03*
%TD*%
%TO.C,C18*%
X140400000Y-86400000D03*
X135400000Y-86400000D03*
%TD*%
%TO.C,C19*%
X90400000Y-41400000D03*
X95400000Y-41400000D03*
%TD*%
%TO.C,C20*%
X159400000Y-95400000D03*
X154400000Y-95400000D03*
%TD*%
%TO.C,C21*%
X90400000Y-50400000D03*
X95400000Y-50400000D03*
%TD*%
%TO.C,C22*%
X159400000Y-86400000D03*
X154400000Y-86400000D03*
%TD*%
%TO.C,C23*%
X90400000Y-44400000D03*
X95400000Y-44400000D03*
%TD*%
%TO.C,C24*%
X159400000Y-92400000D03*
X154400000Y-92400000D03*
%TD*%
%TO.C,C25*%
X90400000Y-47400000D03*
X95400000Y-47400000D03*
%TD*%
%TO.C,C26*%
X159400000Y-89400000D03*
X154400000Y-89400000D03*
%TD*%
%TO.C,C28*%
X90400000Y-92400000D03*
X95400000Y-92400000D03*
%TD*%
%TO.C,C29*%
X95400000Y-95400000D03*
X90400000Y-95400000D03*
%TD*%
%TO.C,C30*%
X159400000Y-44400000D03*
X154400000Y-44400000D03*
%TD*%
%TO.C,C31*%
X154400000Y-41400000D03*
X159400000Y-41400000D03*
%TD*%
%TO.C,C32*%
X90400000Y-89400000D03*
X95400000Y-89400000D03*
%TD*%
%TO.C,C33*%
X95400000Y-86400000D03*
X90400000Y-86400000D03*
%TD*%
%TO.C,C34*%
X159400000Y-47400000D03*
X154400000Y-47400000D03*
%TD*%
%TO.C,C35*%
X154400000Y-50400000D03*
X159400000Y-50400000D03*
%TD*%
%TO.C,C36*%
X114400000Y-95400000D03*
X109400000Y-95400000D03*
%TD*%
%TO.C,C37*%
X135400000Y-41400000D03*
X140400000Y-41400000D03*
%TD*%
%TO.C,C38*%
X114400000Y-86400000D03*
X109400000Y-86400000D03*
%TD*%
%TO.C,C39*%
X135400000Y-50400000D03*
X140400000Y-50400000D03*
%TD*%
%TO.C,C40*%
X114400000Y-92400000D03*
X109400000Y-92400000D03*
%TD*%
%TO.C,C41*%
X135400000Y-44400000D03*
X140400000Y-44400000D03*
%TD*%
%TO.C,C42*%
X114400000Y-89400000D03*
X109400000Y-89400000D03*
%TD*%
%TO.C,C43*%
X135400000Y-47400000D03*
X140400000Y-47400000D03*
%TD*%
D13*
%TO.C,ESP1*%
X107530000Y-81140000D03*
D14*
X110070000Y-81140000D03*
X112610000Y-81140000D03*
X115150000Y-81140000D03*
X117690000Y-81140000D03*
X120230000Y-81140000D03*
X122770000Y-81140000D03*
X125310000Y-81140000D03*
X127850000Y-81140000D03*
X130390000Y-81140000D03*
X132930000Y-81140000D03*
X135470000Y-81140000D03*
X138010000Y-81140000D03*
X140550000Y-81140000D03*
X143090000Y-81140000D03*
X145630000Y-81140000D03*
X148170000Y-81140000D03*
X150710000Y-81140000D03*
X153250000Y-81140000D03*
D13*
X107530000Y-55740000D03*
D14*
X110070000Y-55740000D03*
X112610000Y-55740000D03*
X115150000Y-55740000D03*
X117690000Y-55740000D03*
X120230000Y-55740000D03*
X122770000Y-55740000D03*
X125310000Y-55740000D03*
X127850000Y-55740000D03*
X130390000Y-55740000D03*
X132930000Y-55740000D03*
X135470000Y-55740000D03*
X138010000Y-55740000D03*
X140550000Y-55740000D03*
X143090000Y-55740000D03*
X145630000Y-55740000D03*
X148170000Y-55740000D03*
X150710000Y-55740000D03*
X153250000Y-55740000D03*
%TD*%
D13*
%TO.C,J7*%
X62460000Y-41227500D03*
D24*
X64960000Y-41227500D03*
X64960000Y-39227500D03*
X62460000Y-39227500D03*
D12*
X57690000Y-36517500D03*
X69730000Y-36517500D03*
%TD*%
D13*
%TO.C,J8*%
X67550000Y-46420000D03*
D14*
X65010000Y-46420000D03*
X62470000Y-46420000D03*
X59930000Y-46420000D03*
%TD*%
D25*
%TO.C,R31*%
X58090000Y-106140000D03*
X60090000Y-106140000D03*
%TD*%
D26*
%TO.C,R33*%
X64400000Y-97900000D03*
X62400000Y-97900000D03*
%TD*%
D27*
%TO.C,Q1*%
X69100000Y-89632500D03*
X71000000Y-89632500D03*
X70050000Y-91507500D03*
%TD*%
%TO.C,Q2*%
X41950000Y-89552500D03*
X43850000Y-89552500D03*
X42900000Y-91427500D03*
%TD*%
%TO.C,Q3*%
X63990000Y-89652500D03*
X65890000Y-89652500D03*
X64940000Y-91527500D03*
%TD*%
%TO.C,Q4*%
X50750000Y-89622500D03*
X52650000Y-89622500D03*
X51700000Y-91497500D03*
%TD*%
D25*
%TO.C,R1*%
X55700000Y-98610000D03*
X57700000Y-98610000D03*
%TD*%
D28*
%TO.C,R2*%
X47340000Y-96280000D03*
X47340000Y-98280000D03*
%TD*%
%TO.C,R3*%
X74710000Y-91440000D03*
X74710000Y-93440000D03*
%TD*%
D25*
%TO.C,R4*%
X45820000Y-89510000D03*
X47820000Y-89510000D03*
%TD*%
%TO.C,R5*%
X63910000Y-93730000D03*
X65910000Y-93730000D03*
%TD*%
D28*
%TO.C,R15*%
X45000000Y-96220000D03*
X45000000Y-98220000D03*
%TD*%
%LPD*%
M02*
