M48
; DRILL file {KiCad 7.0.10} date Sat Jul  6 13:46:40 2024
; FORMAT={-:-/ absolute / metric / decimal}
; #@! TF.CreationDate,2024-07-06T13:46:40+02:00
; #@! TF.GenerationSoftware,Kicad,Pcbnew,7.0.10
; #@! TF.FileFunction,Plated,1,2,PTH
FMAT,2
METRIC
; #@! TA.AperFunction,Plated,PTH,ViaDrill
T1C0.400
; #@! TA.AperFunction,Plated,PTH,ComponentDrill
T2C0.600
; #@! TA.AperFunction,Plated,PTH,ComponentDrill
T3C0.800
; #@! TA.AperFunction,Plated,PTH,ComponentDrill
T4C0.890
; #@! TA.AperFunction,Plated,PTH,ComponentDrill
T5C0.920
; #@! TA.AperFunction,Plated,PTH,ViaDrill
T6C1.000
; #@! TA.AperFunction,Plated,PTH,ComponentDrill
T7C1.000
; #@! TA.AperFunction,Plated,PTH,ComponentDrill
T8C1.570
; #@! TA.AperFunction,Plated,PTH,ComponentDrill
T9C1.600
; #@! TA.AperFunction,Plated,PTH,ComponentDrill
T10C2.330
%
G90
G05
T1
X26.76Y-26.58
X26.76Y-29.12
X26.76Y-31.66
X26.76Y-34.2
X26.76Y-36.74
X26.76Y-39.28
X26.76Y-41.82
X26.76Y-44.36
X26.76Y-46.9
X26.76Y-49.44
X26.76Y-51.98
X26.76Y-54.52
X26.76Y-57.06
X26.76Y-59.6
X26.76Y-62.14
X26.76Y-64.68
X26.76Y-67.22
X26.76Y-69.76
X26.76Y-72.3
X26.76Y-74.84
X26.76Y-77.38
X26.76Y-79.92
X26.76Y-82.46
X26.76Y-85.0
X26.76Y-87.54
X26.76Y-90.08
X26.76Y-92.62
X26.76Y-95.16
X26.76Y-97.7
X26.76Y-100.24
X26.76Y-102.78
X26.76Y-105.32
X26.76Y-107.86
X26.76Y-110.4
X29.3Y-26.58
X29.3Y-110.4
X30.42Y-57.78
X31.84Y-26.58
X31.84Y-110.4
X32.62Y-85.4
X33.47Y-72.53
X34.38Y-26.58
X34.38Y-110.4
X35.57Y-105.32
X36.88Y-96.84
X36.91Y-78.56
X36.92Y-26.58
X36.92Y-110.4
X37.18Y-51.24
X37.4Y-85.605
X37.79Y-90.46
X37.815Y-72.53
X38.19Y-104.04
X39.46Y-26.58
X39.46Y-110.4
X40.21Y-98.23
X42.0Y-26.58
X42.0Y-110.4
X42.161Y-72.53
X42.65Y-85.855
X42.82Y-98.9
X44.54Y-26.58
X44.54Y-110.4
X44.79Y-92.76
X45.65Y-74.855
X46.01Y-104.12
X46.11Y-106.46
X47.08Y-26.58
X47.08Y-110.4
X49.16Y-87.86
X49.62Y-26.58
X49.62Y-110.4
X50.852Y-72.53
X51.4Y-93.46
X52.14Y-106.02
X52.16Y-26.58
X52.16Y-110.4
X53.49Y-91.16
X53.64Y-87.03
X54.7Y-26.58
X54.7Y-110.4
X55.197Y-72.53
X55.45Y-102.6
X55.73Y-81.31
X56.02Y-86.82
X57.24Y-26.58
X57.24Y-110.4
X57.25Y-93.33
X59.463Y-86.167
X59.542Y-72.53
X59.78Y-26.58
X59.78Y-110.4
X61.05Y-96.05
X61.6Y-86.11
X62.32Y-26.58
X62.32Y-110.4
X63.888Y-72.53
X64.86Y-26.58
X64.86Y-110.4
X64.98Y-57.09
X67.4Y-26.58
X67.4Y-110.4
X67.55Y-59.43
X67.68Y-91.66
X68.16Y-86.19
X68.233Y-72.53
X68.33Y-93.84
X69.33Y-53.2
X69.94Y-26.58
X69.94Y-110.4
X72.45Y-95.355
X72.48Y-26.58
X72.48Y-110.4
X72.578Y-72.53
X72.8Y-99.17
X75.02Y-26.58
X75.02Y-110.4
X75.61Y-84.29
X76.02Y-104.42
X76.38Y-95.92
X76.924Y-72.53
X77.56Y-26.58
X77.56Y-110.4
X77.92Y-78.14
X78.9Y-43.605
X79.97Y-84.87
X80.1Y-26.58
X80.1Y-110.4
X80.57Y-80.95
X81.269Y-72.53
X82.55Y-104.73
X82.64Y-26.58
X82.64Y-110.4
X84.69Y-77.87
X85.18Y-26.58
X85.18Y-110.4
X85.615Y-72.53
X87.15Y-84.105
X87.15Y-85.355
X87.2Y-80.88
X87.22Y-89.23
X87.272Y-88.281
X87.72Y-26.58
X87.72Y-110.4
X87.9Y-97.605
X89.96Y-72.53
X90.26Y-26.58
X90.26Y-110.4
X92.45Y-89.36
X92.51Y-86.4
X92.54Y-92.04
X92.6Y-95.05
X92.71Y-41.35
X92.8Y-26.58
X92.8Y-110.4
X92.82Y-44.68
X92.82Y-47.34
X92.84Y-50.46
X95.34Y-26.58
X95.34Y-110.4
X97.34Y-96.78
X97.4Y-44.605
X97.88Y-26.58
X97.88Y-110.4
X97.9Y-91.855
X99.94Y-73.0
X99.94Y-79.53
X100.15Y-85.605
X100.42Y-26.58
X100.42Y-110.4
X101.77Y-48.21
X101.9Y-70.355
X101.9Y-85.605
X102.69Y-89.44
X102.96Y-26.58
X102.96Y-110.4
X103.9Y-70.355
X104.45Y-52.055
X105.5Y-26.58
X105.5Y-110.4
X106.4Y-40.24
X106.9Y-45.855
X106.96Y-97.14
X107.09Y-86.51
X107.15Y-93.105
X108.04Y-26.58
X108.04Y-110.4
X109.71Y-39.19
X110.58Y-26.58
X110.58Y-110.4
X111.42Y-96.66
X111.57Y-89.94
X111.86Y-47.54
X111.89Y-44.17
X111.95Y-41.71
X111.95Y-50.22
X112.09Y-92.36
X112.24Y-86.64
X113.12Y-26.58
X113.12Y-110.4
X114.776Y-73.27
X115.66Y-26.58
X115.66Y-110.4
X116.6Y-96.29
X117.228Y-71.11
X117.27Y-86.68
X118.2Y-26.58
X118.2Y-110.4
X119.68Y-68.95
X120.74Y-26.58
X120.74Y-110.4
X120.96Y-92.6
X121.56Y-89.62
X122.132Y-66.79
X123.28Y-26.58
X123.28Y-110.4
X123.87Y-104.49
X124.584Y-64.63
X124.74Y-71.52
X124.89Y-106.04
X125.82Y-26.58
X125.82Y-110.4
X127.036Y-62.47
X127.82Y-100.47
X128.02Y-92.64
X128.36Y-26.58
X128.36Y-110.4
X130.13Y-89.52
X130.9Y-26.58
X130.9Y-110.4
X130.92Y-67.86
X131.65Y-96.105
X132.39Y-74.12
X132.61Y-86.58
X133.15Y-44.855
X133.44Y-26.58
X133.44Y-110.4
X135.15Y-98.105
X135.75Y-69.5
X135.9Y-83.16
X135.98Y-26.58
X135.98Y-110.4
X137.9Y-89.355
X138.52Y-26.58
X138.52Y-110.4
X139.15Y-98.105
X139.22Y-74.22
X141.06Y-26.58
X141.06Y-110.4
X142.4Y-91.855
X142.545Y-64.205
X142.63Y-69.55
X142.65Y-44.605
X142.65Y-85.855
X142.65Y-87.355
X143.6Y-26.58
X143.6Y-110.4
X143.9Y-98.105
X146.14Y-26.58
X146.14Y-110.4
X146.25Y-74.27
X148.65Y-39.105
X148.68Y-26.58
X148.68Y-110.4
X150.84Y-41.045
X151.22Y-26.58
X151.22Y-110.4
X152.07Y-93.03
X152.1Y-96.455
X152.15Y-45.605
X153.76Y-26.58
X153.76Y-110.4
X155.72Y-76.92
X156.3Y-26.58
X156.3Y-110.4
X156.38Y-72.22
X157.1Y-47.355
X157.15Y-89.355
X157.81Y-76.49
X157.99Y-78.81
X158.84Y-26.58
X158.84Y-110.4
X161.38Y-26.58
X161.38Y-110.4
X161.9Y-47.355
X163.92Y-26.58
X163.92Y-110.4
X166.4Y-48.855
X166.46Y-26.58
X166.46Y-110.4
X169.0Y-26.58
X169.0Y-110.4
X171.54Y-26.58
X171.54Y-110.4
X174.08Y-26.58
X174.08Y-110.4
X176.62Y-26.58
X176.62Y-110.4
X179.16Y-26.58
X179.16Y-29.12
X179.16Y-31.66
X179.16Y-34.2
X179.16Y-36.74
X179.16Y-39.28
X179.16Y-41.82
X179.16Y-44.36
X179.16Y-46.9
X179.16Y-49.44
X179.16Y-51.98
X179.16Y-54.52
X179.16Y-57.06
X179.16Y-59.6
X179.16Y-62.14
X179.16Y-64.68
X179.16Y-67.22
X179.16Y-69.76
X179.16Y-72.3
X179.16Y-74.84
X179.16Y-77.38
X179.16Y-79.92
X179.16Y-82.46
X179.16Y-85.0
X179.16Y-87.54
X179.16Y-90.08
X179.16Y-92.62
X179.16Y-95.16
X179.16Y-97.7
X179.16Y-100.24
X179.16Y-102.78
X179.16Y-105.32
X179.16Y-107.86
X179.16Y-110.4
T2
X34.8Y-100.1
X34.8Y-101.6
X48.5Y-83.8
X48.5Y-85.3
X57.04Y-54.62
X58.54Y-54.62
X82.08Y-48.06
X82.08Y-49.56
X84.27Y-57.727
X84.27Y-59.227
T3
X84.1Y-84.0
X84.1Y-89.0
X90.4Y-41.4
X90.4Y-44.4
X90.4Y-47.4
X90.4Y-50.4
X90.4Y-86.4
X90.4Y-89.4
X90.4Y-92.4
X90.4Y-95.4
X91.4Y-78.4
X94.9Y-78.4
X95.4Y-41.4
X95.4Y-44.4
X95.4Y-47.4
X95.4Y-50.4
X95.4Y-86.4
X95.4Y-89.4
X95.4Y-92.4
X95.4Y-95.4
X109.15Y-41.4
X109.15Y-44.4
X109.15Y-47.4
X109.15Y-50.4
X109.4Y-86.4
X109.4Y-89.4
X109.4Y-92.4
X109.4Y-95.4
X114.15Y-41.4
X114.15Y-44.4
X114.15Y-47.4
X114.15Y-50.4
X114.4Y-86.4
X114.4Y-89.4
X114.4Y-92.4
X114.4Y-95.4
X124.4Y-47.4
X124.4Y-50.9
X135.4Y-41.4
X135.4Y-44.4
X135.4Y-47.4
X135.4Y-50.4
X135.4Y-86.4
X135.4Y-89.4
X135.4Y-92.4
X135.4Y-95.4
X140.4Y-41.4
X140.4Y-44.4
X140.4Y-47.4
X140.4Y-50.4
X140.4Y-86.4
X140.4Y-89.4
X140.4Y-92.4
X140.4Y-95.4
X154.4Y-41.4
X154.4Y-44.4
X154.4Y-47.4
X154.4Y-50.4
X154.4Y-86.4
X154.4Y-89.4
X154.4Y-92.4
X154.4Y-95.4
X159.4Y-41.4
X159.4Y-44.4
X159.4Y-47.4
X159.4Y-50.4
X159.4Y-86.4
X159.4Y-89.4
X159.4Y-92.4
X159.4Y-95.4
X162.9Y-55.9
X166.4Y-55.9
X169.9Y-91.9
X173.4Y-91.9
T4
X40.58Y-96.17
X42.87Y-96.17
X43.888Y-100.99
X44.904Y-102.77
X45.92Y-100.99
X46.936Y-102.77
X47.952Y-100.99
X48.968Y-102.77
X49.984Y-100.99
X51.0Y-102.77
X52.01Y-96.17
X54.3Y-96.17
X56.33Y-96.17
X58.62Y-96.17
X59.638Y-100.99
X60.654Y-102.77
X61.67Y-100.99
X62.686Y-102.77
X63.702Y-100.99
X64.718Y-102.77
X65.734Y-100.99
X66.75Y-102.77
X67.76Y-96.17
X70.05Y-96.17
T5
X62.46Y-39.227
X62.46Y-41.227
X64.96Y-39.227
X64.96Y-41.227
T6
X43.02Y-48.44
X66.82Y-50.26
T7
X59.93Y-46.42
X62.47Y-46.42
X65.01Y-46.42
X67.55Y-46.42
X82.53Y-93.07
X82.53Y-95.61
X107.53Y-55.74
X107.53Y-81.14
X110.07Y-55.74
X110.07Y-81.14
X112.61Y-55.74
X112.61Y-81.14
X115.15Y-55.74
X115.15Y-81.14
X117.69Y-55.74
X117.69Y-81.14
X120.23Y-55.74
X120.23Y-81.14
X122.77Y-55.74
X122.77Y-81.14
X125.31Y-55.74
X125.31Y-81.14
X127.85Y-55.74
X127.85Y-81.14
X130.39Y-55.74
X130.39Y-81.14
X132.93Y-55.74
X132.93Y-81.14
X135.47Y-55.74
X135.47Y-81.14
X138.01Y-55.74
X138.01Y-81.14
X140.55Y-55.74
X140.55Y-81.14
X143.09Y-55.74
X143.09Y-81.14
X145.63Y-55.74
X145.63Y-81.14
X148.17Y-55.74
X148.17Y-81.14
X150.71Y-55.74
X150.71Y-81.14
X153.25Y-55.74
X153.25Y-81.14
T8
X39.32Y-101.88
X71.32Y-101.88
T9
X82.58Y-35.45
X82.58Y-101.45
X87.66Y-35.45
X87.66Y-101.45
X92.74Y-35.45
X92.74Y-101.45
X97.82Y-35.45
X97.82Y-101.45
X102.9Y-35.45
X102.9Y-101.45
X107.98Y-35.45
X107.98Y-101.45
X113.06Y-35.45
X113.06Y-101.45
X118.14Y-35.45
X118.14Y-101.45
X123.22Y-35.45
X123.22Y-101.45
X135.58Y-35.45
X136.08Y-101.45
X140.66Y-35.45
X141.16Y-101.45
X145.74Y-35.45
X146.24Y-101.45
X150.82Y-35.45
X151.32Y-101.45
X155.9Y-35.45
X156.4Y-101.45
X160.98Y-35.45
X161.48Y-101.45
X166.06Y-35.45
X166.56Y-101.45
X171.14Y-35.45
X171.64Y-101.45
X176.22Y-35.45
X176.72Y-101.45
T10
X57.69Y-36.517
X69.73Y-36.517
M30
