%TF.GenerationSoftware,KiCad,Pcbnew,7.0.10*%
%TF.CreationDate,2024-07-06T13:46:37+02:00*%
%TF.ProjectId,Overlord,4f766572-6c6f-4726-942e-6b696361645f,rev?*%
%TF.SameCoordinates,Original*%
%TF.FileFunction,Paste,Top*%
%TF.FilePolarity,Positive*%
%FSLAX46Y46*%
G04 Gerber Fmt 4.6, Leading zero omitted, Abs format (unit mm)*
G04 Created by KiCad (PCBNEW 7.0.10) date 2024-07-06 13:46:37*
%MOMM*%
%LPD*%
G01*
G04 APERTURE LIST*
G04 Aperture macros list*
%AMRoundRect*
0 Rectangle with rounded corners*
0 $1 Rounding radius*
0 $2 $3 $4 $5 $6 $7 $8 $9 X,Y pos of 4 corners*
0 Add a 4 corners polygon primitive as box body*
4,1,4,$2,$3,$4,$5,$6,$7,$8,$9,$2,$3,0*
0 Add four circle primitives for the rounded corners*
1,1,$1+$1,$2,$3*
1,1,$1+$1,$4,$5*
1,1,$1+$1,$6,$7*
1,1,$1+$1,$8,$9*
0 Add four rect primitives between the rounded corners*
20,1,$1+$1,$2,$3,$4,$5,0*
20,1,$1+$1,$4,$5,$6,$7,0*
20,1,$1+$1,$6,$7,$8,$9,0*
20,1,$1+$1,$8,$9,$2,$3,0*%
G04 Aperture macros list end*
%ADD10RoundRect,0.250000X0.400000X1.450000X-0.400000X1.450000X-0.400000X-1.450000X0.400000X-1.450000X0*%
%ADD11RoundRect,0.250000X-0.400000X-1.450000X0.400000X-1.450000X0.400000X1.450000X-0.400000X1.450000X0*%
%ADD12RoundRect,0.250000X1.450000X-0.400000X1.450000X0.400000X-1.450000X0.400000X-1.450000X-0.400000X0*%
%ADD13RoundRect,0.250000X-1.450000X0.400000X-1.450000X-0.400000X1.450000X-0.400000X1.450000X0.400000X0*%
%ADD14RoundRect,0.250000X0.300000X-2.050000X0.300000X2.050000X-0.300000X2.050000X-0.300000X-2.050000X0*%
%ADD15RoundRect,0.250000X2.375000X-2.025000X2.375000X2.025000X-2.375000X2.025000X-2.375000X-2.025000X0*%
%ADD16RoundRect,0.150000X-0.150000X0.725000X-0.150000X-0.725000X0.150000X-0.725000X0.150000X0.725000X0*%
%ADD17RoundRect,0.150000X-0.150000X0.825000X-0.150000X-0.825000X0.150000X-0.825000X0.150000X0.825000X0*%
%ADD18RoundRect,0.250000X-0.537500X-1.450000X0.537500X-1.450000X0.537500X1.450000X-0.537500X1.450000X0*%
%ADD19R,3.200000X2.000000*%
%ADD20RoundRect,0.150000X-0.512500X-0.150000X0.512500X-0.150000X0.512500X0.150000X-0.512500X0.150000X0*%
%ADD21RoundRect,0.250000X-1.412500X-0.550000X1.412500X-0.550000X1.412500X0.550000X-1.412500X0.550000X0*%
%ADD22RoundRect,0.150000X-0.725000X-0.150000X0.725000X-0.150000X0.725000X0.150000X-0.725000X0.150000X0*%
%ADD23RoundRect,0.150000X0.725000X0.150000X-0.725000X0.150000X-0.725000X-0.150000X0.725000X-0.150000X0*%
%ADD24R,0.700000X0.640000*%
%ADD25R,0.700000X0.500000*%
%ADD26RoundRect,0.250000X0.350000X0.450000X-0.350000X0.450000X-0.350000X-0.450000X0.350000X-0.450000X0*%
%ADD27R,5.400000X2.900000*%
%ADD28RoundRect,0.225000X0.225000X0.375000X-0.225000X0.375000X-0.225000X-0.375000X0.225000X-0.375000X0*%
%ADD29RoundRect,0.150000X0.700000X-0.150000X0.700000X0.150000X-0.700000X0.150000X-0.700000X-0.150000X0*%
%ADD30RoundRect,0.250000X1.100000X-0.250000X1.100000X0.250000X-1.100000X0.250000X-1.100000X-0.250000X0*%
%ADD31RoundRect,0.225000X0.375000X-0.225000X0.375000X0.225000X-0.375000X0.225000X-0.375000X-0.225000X0*%
G04 APERTURE END LIST*
D10*
%TO.C,R6*%
X81125000Y-88600000D03*
X76675000Y-88600000D03*
%TD*%
D11*
%TO.C,R7*%
X74465000Y-93260000D03*
X78915000Y-93260000D03*
%TD*%
D12*
%TO.C,R8*%
X61200000Y-82525000D03*
X61200000Y-78075000D03*
%TD*%
%TO.C,R9*%
X74600000Y-80825000D03*
X74600000Y-76375000D03*
%TD*%
D13*
%TO.C,R10*%
X69800000Y-76375000D03*
X69800000Y-80825000D03*
%TD*%
D12*
%TO.C,R11*%
X65300000Y-82525000D03*
X65300000Y-78075000D03*
%TD*%
D13*
%TO.C,R12*%
X65300000Y-84475000D03*
X65300000Y-88925000D03*
%TD*%
%TO.C,R13*%
X61200000Y-84475000D03*
X61200000Y-88925000D03*
%TD*%
D11*
%TO.C,R14*%
X53175000Y-80400000D03*
X57625000Y-80400000D03*
%TD*%
D14*
%TO.C,U5*%
X37945000Y-44195000D03*
X39645000Y-44195000D03*
X41345000Y-44195000D03*
D15*
X38570000Y-37470000D03*
X44120000Y-37470000D03*
X38570000Y-32620000D03*
X44120000Y-32620000D03*
D14*
X43045000Y-44195000D03*
X44745000Y-44195000D03*
%TD*%
D16*
%TO.C,U7*%
X57605000Y-84225000D03*
X56335000Y-84225000D03*
X55065000Y-84225000D03*
X53795000Y-84225000D03*
X53795000Y-89375000D03*
X55065000Y-89375000D03*
X56335000Y-89375000D03*
X57605000Y-89375000D03*
%TD*%
D17*
%TO.C,U6*%
X73455000Y-84285000D03*
X72185000Y-84285000D03*
X70915000Y-84285000D03*
X69645000Y-84285000D03*
X69645000Y-89235000D03*
X70915000Y-89235000D03*
X72185000Y-89235000D03*
X73455000Y-89235000D03*
%TD*%
D18*
%TO.C,C4*%
X64152500Y-62100000D03*
X68427500Y-62100000D03*
%TD*%
D19*
%TO.C,L2*%
X75860000Y-62800000D03*
X75860000Y-55000000D03*
%TD*%
D20*
%TO.C,U8*%
X65132500Y-53590000D03*
X65132500Y-54540000D03*
X65132500Y-55490000D03*
X67407500Y-55490000D03*
X67407500Y-54540000D03*
X67407500Y-53590000D03*
%TD*%
D21*
%TO.C,C1*%
X30102500Y-55300000D03*
X35177500Y-55300000D03*
%TD*%
D13*
%TO.C,R24*%
X36900000Y-83175000D03*
X36900000Y-87625000D03*
%TD*%
D12*
%TO.C,R25*%
X42900000Y-80825000D03*
X42900000Y-76375000D03*
%TD*%
D13*
%TO.C,R26*%
X48500000Y-76375000D03*
X48500000Y-80825000D03*
%TD*%
D12*
%TO.C,R27*%
X32500000Y-80925000D03*
X32500000Y-76475000D03*
%TD*%
%TO.C,R28*%
X36900000Y-80925000D03*
X36900000Y-76475000D03*
%TD*%
D13*
%TO.C,R29*%
X32500000Y-83175000D03*
X32500000Y-87625000D03*
%TD*%
D11*
%TO.C,R30*%
X46975000Y-90000000D03*
X51425000Y-90000000D03*
%TD*%
D16*
%TO.C,U9*%
X44405000Y-84225000D03*
X43135000Y-84225000D03*
X41865000Y-84225000D03*
X40595000Y-84225000D03*
X40595000Y-89375000D03*
X41865000Y-89375000D03*
X43135000Y-89375000D03*
X44405000Y-89375000D03*
%TD*%
D22*
%TO.C,U1*%
X99575000Y-41955000D03*
X99575000Y-43225000D03*
X99575000Y-44495000D03*
X99575000Y-45765000D03*
X99575000Y-47035000D03*
X99575000Y-48305000D03*
X99575000Y-49575000D03*
X99575000Y-50845000D03*
X104725000Y-50845000D03*
X104725000Y-49575000D03*
X104725000Y-48305000D03*
X104725000Y-47035000D03*
X104725000Y-45765000D03*
X104725000Y-44495000D03*
X104725000Y-43225000D03*
X104725000Y-41955000D03*
%TD*%
D23*
%TO.C,U2*%
X149975000Y-95845000D03*
X149975000Y-94575000D03*
X149975000Y-93305000D03*
X149975000Y-92035000D03*
X149975000Y-90765000D03*
X149975000Y-89495000D03*
X149975000Y-88225000D03*
X149975000Y-86955000D03*
X144825000Y-86955000D03*
X144825000Y-88225000D03*
X144825000Y-89495000D03*
X144825000Y-90765000D03*
X144825000Y-92035000D03*
X144825000Y-93305000D03*
X144825000Y-94575000D03*
X144825000Y-95845000D03*
%TD*%
%TO.C,U3*%
X104975000Y-95845000D03*
X104975000Y-94575000D03*
X104975000Y-93305000D03*
X104975000Y-92035000D03*
X104975000Y-90765000D03*
X104975000Y-89495000D03*
X104975000Y-88225000D03*
X104975000Y-86955000D03*
X99825000Y-86955000D03*
X99825000Y-88225000D03*
X99825000Y-89495000D03*
X99825000Y-90765000D03*
X99825000Y-92035000D03*
X99825000Y-93305000D03*
X99825000Y-94575000D03*
X99825000Y-95845000D03*
%TD*%
D24*
%TO.C,RN1*%
X117700000Y-45130000D03*
D25*
X117700000Y-46000000D03*
X117700000Y-46800000D03*
D24*
X117700000Y-47670000D03*
X119100000Y-47670000D03*
D25*
X119100000Y-46800000D03*
X119100000Y-46000000D03*
D24*
X119100000Y-45130000D03*
%TD*%
%TO.C,RN2*%
X85700000Y-45130000D03*
D25*
X85700000Y-46000000D03*
X85700000Y-46800000D03*
D24*
X85700000Y-47670000D03*
X87100000Y-47670000D03*
D25*
X87100000Y-46800000D03*
X87100000Y-46000000D03*
D24*
X87100000Y-45130000D03*
%TD*%
%TO.C,RN3*%
X131100000Y-93670000D03*
D25*
X131100000Y-92800000D03*
X131100000Y-92000000D03*
D24*
X131100000Y-91130000D03*
X129700000Y-91130000D03*
D25*
X129700000Y-92000000D03*
X129700000Y-92800000D03*
D24*
X129700000Y-93670000D03*
%TD*%
%TO.C,RN4*%
X165100000Y-93670000D03*
D25*
X165100000Y-92800000D03*
X165100000Y-92000000D03*
D24*
X165100000Y-91130000D03*
X163700000Y-91130000D03*
D25*
X163700000Y-92000000D03*
X163700000Y-92800000D03*
D24*
X163700000Y-93670000D03*
%TD*%
%TO.C,RN5*%
X87100000Y-95670000D03*
D25*
X87100000Y-94800000D03*
X87100000Y-94000000D03*
D24*
X87100000Y-93130000D03*
X85700000Y-93130000D03*
D25*
X85700000Y-94000000D03*
X85700000Y-94800000D03*
D24*
X85700000Y-95670000D03*
%TD*%
%TO.C,RN6*%
X119100000Y-93670000D03*
D25*
X119100000Y-92800000D03*
X119100000Y-92000000D03*
D24*
X119100000Y-91130000D03*
X117700000Y-91130000D03*
D25*
X117700000Y-92000000D03*
X117700000Y-92800000D03*
D24*
X117700000Y-93670000D03*
%TD*%
%TO.C,RN7*%
X163400000Y-44730000D03*
D25*
X163400000Y-45600000D03*
X163400000Y-46400000D03*
D24*
X163400000Y-47270000D03*
X164800000Y-47270000D03*
D25*
X164800000Y-46400000D03*
X164800000Y-45600000D03*
D24*
X164800000Y-44730000D03*
%TD*%
%TO.C,RN8*%
X129700000Y-45130000D03*
D25*
X129700000Y-46000000D03*
X129700000Y-46800000D03*
D24*
X129700000Y-47670000D03*
X131100000Y-47670000D03*
D25*
X131100000Y-46800000D03*
X131100000Y-46000000D03*
D24*
X131100000Y-45130000D03*
%TD*%
D22*
%TO.C,U4*%
X144825000Y-41955000D03*
X144825000Y-43225000D03*
X144825000Y-44495000D03*
X144825000Y-45765000D03*
X144825000Y-47035000D03*
X144825000Y-48305000D03*
X144825000Y-49575000D03*
X144825000Y-50845000D03*
X149975000Y-50845000D03*
X149975000Y-49575000D03*
X149975000Y-48305000D03*
X149975000Y-47035000D03*
X149975000Y-45765000D03*
X149975000Y-44495000D03*
X149975000Y-43225000D03*
X149975000Y-41955000D03*
%TD*%
D26*
%TO.C,R16*%
X152220000Y-67660000D03*
X150220000Y-67660000D03*
%TD*%
%TO.C,R17*%
X152220000Y-64040000D03*
X150220000Y-64040000D03*
%TD*%
%TO.C,R18*%
X152220000Y-60420000D03*
X150220000Y-60420000D03*
%TD*%
D27*
%TO.C,L1*%
X46690000Y-62170000D03*
X46690000Y-52270000D03*
%TD*%
D28*
%TO.C,D1*%
X36050000Y-62910000D03*
X32750000Y-62910000D03*
%TD*%
D29*
%TO.C,J3*%
X160180000Y-80235000D03*
X160180000Y-78985000D03*
X160180000Y-77735000D03*
X160180000Y-76485000D03*
X160180000Y-75235000D03*
X160180000Y-73985000D03*
X160180000Y-72735000D03*
X160180000Y-71485000D03*
X160180000Y-70235000D03*
X160180000Y-68985000D03*
X160180000Y-67735000D03*
X160180000Y-66485000D03*
D30*
X163380000Y-82085000D03*
X163380000Y-64635000D03*
%TD*%
D31*
%TO.C,D2*%
X55400000Y-48520000D03*
X55400000Y-45220000D03*
%TD*%
M02*
