%TF.GenerationSoftware,KiCad,Pcbnew,7.0.10*%
%TF.CreationDate,2024-07-06T13:46:38+02:00*%
%TF.ProjectId,Overlord,4f766572-6c6f-4726-942e-6b696361645f,rev?*%
%TF.SameCoordinates,Original*%
%TF.FileFunction,Soldermask,Bot*%
%TF.FilePolarity,Negative*%
%FSLAX46Y46*%
G04 Gerber Fmt 4.6, Leading zero omitted, Abs format (unit mm)*
G04 Created by KiCad (PCBNEW 7.0.10) date 2024-07-06 13:46:38*
%MOMM*%
%LPD*%
G01*
G04 APERTURE LIST*
G04 Aperture macros list*
%AMRoundRect*
0 Rectangle with rounded corners*
0 $1 Rounding radius*
0 $2 $3 $4 $5 $6 $7 $8 $9 X,Y pos of 4 corners*
0 Add a 4 corners polygon primitive as box body*
4,1,4,$2,$3,$4,$5,$6,$7,$8,$9,$2,$3,0*
0 Add four circle primitives for the rounded corners*
1,1,$1+$1,$2,$3*
1,1,$1+$1,$4,$5*
1,1,$1+$1,$6,$7*
1,1,$1+$1,$8,$9*
0 Add four rect primitives between the rounded corners*
20,1,$1+$1,$2,$3,$4,$5,0*
20,1,$1+$1,$4,$5,$6,$7,0*
20,1,$1+$1,$6,$7,$8,$9,0*
20,1,$1+$1,$8,$9,$2,$3,0*%
G04 Aperture macros list end*
%ADD10C,3.500000*%
%ADD11R,1.700000X1.700000*%
%ADD12O,1.700000X1.700000*%
%ADD13C,1.600000*%
%ADD14R,1.200000X1.200000*%
%ADD15C,1.200000*%
%ADD16C,2.540000*%
%ADD17C,3.250000*%
%ADD18R,1.500000X1.500000*%
%ADD19C,1.500000*%
%ADD20C,2.300000*%
%ADD21R,1.600000X1.600000*%
%ADD22C,1.700000*%
%ADD23RoundRect,0.250000X-0.350000X-0.450000X0.350000X-0.450000X0.350000X0.450000X-0.350000X0.450000X0*%
%ADD24RoundRect,0.250000X0.350000X0.450000X-0.350000X0.450000X-0.350000X-0.450000X0.350000X-0.450000X0*%
%ADD25RoundRect,0.150000X-0.150000X0.587500X-0.150000X-0.587500X0.150000X-0.587500X0.150000X0.587500X0*%
%ADD26RoundRect,0.250000X-0.450000X0.350000X-0.450000X-0.350000X0.450000X-0.350000X0.450000X0.350000X0*%
G04 APERTURE END LIST*
D10*
%TO.C,H1*%
X171960000Y-43450000D03*
%TD*%
D11*
%TO.C,120R_enable1*%
X82530000Y-95610000D03*
D12*
X82530000Y-93070000D03*
%TD*%
D10*
%TO.C,H2*%
X33960000Y-93450000D03*
%TD*%
D13*
%TO.C,C12*%
X84100000Y-89000000D03*
X84100000Y-84000000D03*
%TD*%
D14*
%TO.C,C3*%
X58540000Y-54620000D03*
D15*
X57040000Y-54620000D03*
%TD*%
D14*
%TO.C,C5*%
X82080000Y-49560000D03*
D15*
X82080000Y-48060000D03*
%TD*%
D14*
%TO.C,C6*%
X84270000Y-57727400D03*
D15*
X84270000Y-59227400D03*
%TD*%
D14*
%TO.C,C17*%
X34800000Y-101600000D03*
D15*
X34800000Y-100100000D03*
%TD*%
D14*
%TO.C,C2*%
X48500000Y-85300000D03*
D15*
X48500000Y-83800000D03*
%TD*%
D16*
%TO.C,J2*%
X176220000Y-35450000D03*
X171140000Y-35450000D03*
X166060000Y-35450000D03*
X160980000Y-35450000D03*
X155900000Y-35450000D03*
X150820000Y-35450000D03*
X145740000Y-35450000D03*
X140660000Y-35450000D03*
X135580000Y-35450000D03*
%TD*%
%TO.C,J5*%
X82580000Y-101450000D03*
X87660000Y-101450000D03*
X92740000Y-101450000D03*
X97820000Y-101450000D03*
X102900000Y-101450000D03*
X107980000Y-101450000D03*
X113060000Y-101450000D03*
X118140000Y-101450000D03*
X123220000Y-101450000D03*
%TD*%
%TO.C,J6*%
X136080000Y-101450000D03*
X141160000Y-101450000D03*
X146240000Y-101450000D03*
X151320000Y-101450000D03*
X156400000Y-101450000D03*
X161480000Y-101450000D03*
X166560000Y-101450000D03*
X171640000Y-101450000D03*
X176720000Y-101450000D03*
%TD*%
%TO.C,J4*%
X123220000Y-35450000D03*
X118140000Y-35450000D03*
X113060000Y-35450000D03*
X107980000Y-35450000D03*
X102900000Y-35450000D03*
X97820000Y-35450000D03*
X92740000Y-35450000D03*
X87660000Y-35450000D03*
X82580000Y-35450000D03*
%TD*%
D17*
%TO.C,J1*%
X69540000Y-105310000D03*
X41090000Y-105310000D03*
D18*
X66750000Y-102770000D03*
D19*
X65734000Y-100990000D03*
X64718000Y-102770000D03*
X63702000Y-100990000D03*
X62686000Y-102770000D03*
X61670000Y-100990000D03*
X60654000Y-102770000D03*
X59638000Y-100990000D03*
X70050000Y-96170000D03*
X67760000Y-96170000D03*
X58620000Y-96170000D03*
X56330000Y-96170000D03*
X51000000Y-102770000D03*
X49984000Y-100990000D03*
X48968000Y-102770000D03*
X47952000Y-100990000D03*
X46936000Y-102770000D03*
X45920000Y-100990000D03*
X44904000Y-102770000D03*
X43888000Y-100990000D03*
X54300000Y-96170000D03*
X52010000Y-96170000D03*
X42870000Y-96170000D03*
X40580000Y-96170000D03*
D20*
X71320000Y-101880000D03*
X39320000Y-101880000D03*
%TD*%
D21*
%TO.C,C13*%
X124400000Y-50900000D03*
D13*
X124400000Y-47400000D03*
%TD*%
%TO.C,C8*%
X109150000Y-41400000D03*
X114150000Y-41400000D03*
%TD*%
D21*
%TO.C,C27*%
X162900000Y-55900000D03*
D13*
X166400000Y-55900000D03*
%TD*%
D21*
%TO.C,C44*%
X91400000Y-78400000D03*
D13*
X94900000Y-78400000D03*
%TD*%
D21*
%TO.C,C45*%
X169900000Y-91900000D03*
D13*
X173400000Y-91900000D03*
%TD*%
%TO.C,C7*%
X114150000Y-44400000D03*
X109150000Y-44400000D03*
%TD*%
%TO.C,C9*%
X135400000Y-92400000D03*
X140400000Y-92400000D03*
%TD*%
%TO.C,C10*%
X140400000Y-95400000D03*
X135400000Y-95400000D03*
%TD*%
%TO.C,C14*%
X114150000Y-47400000D03*
X109150000Y-47400000D03*
%TD*%
%TO.C,C15*%
X109150000Y-50400000D03*
X114150000Y-50400000D03*
%TD*%
%TO.C,C16*%
X135400000Y-89400000D03*
X140400000Y-89400000D03*
%TD*%
%TO.C,C18*%
X140400000Y-86400000D03*
X135400000Y-86400000D03*
%TD*%
%TO.C,C19*%
X90400000Y-41400000D03*
X95400000Y-41400000D03*
%TD*%
%TO.C,C20*%
X159400000Y-95400000D03*
X154400000Y-95400000D03*
%TD*%
%TO.C,C21*%
X90400000Y-50400000D03*
X95400000Y-50400000D03*
%TD*%
%TO.C,C22*%
X159400000Y-86400000D03*
X154400000Y-86400000D03*
%TD*%
%TO.C,C23*%
X90400000Y-44400000D03*
X95400000Y-44400000D03*
%TD*%
%TO.C,C24*%
X159400000Y-92400000D03*
X154400000Y-92400000D03*
%TD*%
%TO.C,C25*%
X90400000Y-47400000D03*
X95400000Y-47400000D03*
%TD*%
%TO.C,C26*%
X159400000Y-89400000D03*
X154400000Y-89400000D03*
%TD*%
%TO.C,C28*%
X90400000Y-92400000D03*
X95400000Y-92400000D03*
%TD*%
%TO.C,C29*%
X95400000Y-95400000D03*
X90400000Y-95400000D03*
%TD*%
%TO.C,C30*%
X159400000Y-44400000D03*
X154400000Y-44400000D03*
%TD*%
%TO.C,C31*%
X154400000Y-41400000D03*
X159400000Y-41400000D03*
%TD*%
%TO.C,C32*%
X90400000Y-89400000D03*
X95400000Y-89400000D03*
%TD*%
%TO.C,C33*%
X95400000Y-86400000D03*
X90400000Y-86400000D03*
%TD*%
%TO.C,C34*%
X159400000Y-47400000D03*
X154400000Y-47400000D03*
%TD*%
%TO.C,C35*%
X154400000Y-50400000D03*
X159400000Y-50400000D03*
%TD*%
%TO.C,C36*%
X114400000Y-95400000D03*
X109400000Y-95400000D03*
%TD*%
%TO.C,C37*%
X135400000Y-41400000D03*
X140400000Y-41400000D03*
%TD*%
%TO.C,C38*%
X114400000Y-86400000D03*
X109400000Y-86400000D03*
%TD*%
%TO.C,C39*%
X135400000Y-50400000D03*
X140400000Y-50400000D03*
%TD*%
%TO.C,C40*%
X114400000Y-92400000D03*
X109400000Y-92400000D03*
%TD*%
%TO.C,C41*%
X135400000Y-44400000D03*
X140400000Y-44400000D03*
%TD*%
%TO.C,C42*%
X114400000Y-89400000D03*
X109400000Y-89400000D03*
%TD*%
%TO.C,C43*%
X135400000Y-47400000D03*
X140400000Y-47400000D03*
%TD*%
D11*
%TO.C,ESP1*%
X107530000Y-81140000D03*
D12*
X110070000Y-81140000D03*
X112610000Y-81140000D03*
X115150000Y-81140000D03*
X117690000Y-81140000D03*
X120230000Y-81140000D03*
X122770000Y-81140000D03*
X125310000Y-81140000D03*
X127850000Y-81140000D03*
X130390000Y-81140000D03*
X132930000Y-81140000D03*
X135470000Y-81140000D03*
X138010000Y-81140000D03*
X140550000Y-81140000D03*
X143090000Y-81140000D03*
X145630000Y-81140000D03*
X148170000Y-81140000D03*
X150710000Y-81140000D03*
X153250000Y-81140000D03*
D11*
X107530000Y-55740000D03*
D12*
X110070000Y-55740000D03*
X112610000Y-55740000D03*
X115150000Y-55740000D03*
X117690000Y-55740000D03*
X120230000Y-55740000D03*
X122770000Y-55740000D03*
X125310000Y-55740000D03*
X127850000Y-55740000D03*
X130390000Y-55740000D03*
X132930000Y-55740000D03*
X135470000Y-55740000D03*
X138010000Y-55740000D03*
X140550000Y-55740000D03*
X143090000Y-55740000D03*
X145630000Y-55740000D03*
X148170000Y-55740000D03*
X150710000Y-55740000D03*
X153250000Y-55740000D03*
%TD*%
D11*
%TO.C,J7*%
X62460000Y-41227500D03*
D22*
X64960000Y-41227500D03*
X64960000Y-39227500D03*
X62460000Y-39227500D03*
D10*
X57690000Y-36517500D03*
X69730000Y-36517500D03*
%TD*%
D11*
%TO.C,J8*%
X67550000Y-46420000D03*
D12*
X65010000Y-46420000D03*
X62470000Y-46420000D03*
X59930000Y-46420000D03*
%TD*%
D23*
%TO.C,R31*%
X58090000Y-106140000D03*
X60090000Y-106140000D03*
%TD*%
D24*
%TO.C,R33*%
X64400000Y-97900000D03*
X62400000Y-97900000D03*
%TD*%
D25*
%TO.C,Q1*%
X69100000Y-89632500D03*
X71000000Y-89632500D03*
X70050000Y-91507500D03*
%TD*%
%TO.C,Q2*%
X41950000Y-89552500D03*
X43850000Y-89552500D03*
X42900000Y-91427500D03*
%TD*%
%TO.C,Q3*%
X63990000Y-89652500D03*
X65890000Y-89652500D03*
X64940000Y-91527500D03*
%TD*%
%TO.C,Q4*%
X50750000Y-89622500D03*
X52650000Y-89622500D03*
X51700000Y-91497500D03*
%TD*%
D23*
%TO.C,R1*%
X55700000Y-98610000D03*
X57700000Y-98610000D03*
%TD*%
D26*
%TO.C,R2*%
X47340000Y-96280000D03*
X47340000Y-98280000D03*
%TD*%
%TO.C,R3*%
X74710000Y-91440000D03*
X74710000Y-93440000D03*
%TD*%
D23*
%TO.C,R4*%
X45820000Y-89510000D03*
X47820000Y-89510000D03*
%TD*%
%TO.C,R5*%
X63910000Y-93730000D03*
X65910000Y-93730000D03*
%TD*%
D26*
%TO.C,R15*%
X45000000Y-96220000D03*
X45000000Y-98220000D03*
%TD*%
M02*
