%TF.GenerationSoftware,KiCad,Pcbnew,(5.1.12)-1*%
%TF.CreationDate,2023-04-30T22:07:06+02:00*%
%TF.ProjectId,roomcontroller,726f6f6d-636f-46e7-9472-6f6c6c65722e,rev?*%
%TF.SameCoordinates,Original*%
%TF.FileFunction,Soldermask,Bot*%
%TF.FilePolarity,Negative*%
%FSLAX46Y46*%
G04 Gerber Fmt 4.6, Leading zero omitted, Abs format (unit mm)*
G04 Created by KiCad (PCBNEW (5.1.12)-1) date 2023-04-30 22:07:06*
%MOMM*%
%LPD*%
G01*
G04 APERTURE LIST*
%ADD10O,1.700000X1.700000*%
%ADD11R,1.700000X1.700000*%
%ADD12C,1.600000*%
%ADD13C,2.540000*%
%ADD14C,3.500000*%
%ADD15C,1.200000*%
%ADD16R,1.200000X1.200000*%
%ADD17C,1.500000*%
%ADD18C,2.300000*%
%ADD19C,3.250000*%
%ADD20R,1.500000X1.500000*%
G04 APERTURE END LIST*
%TO.C,R34*%
G36*
G01*
X52850000Y-102175000D02*
X55750000Y-102175000D01*
G75*
G02*
X56000000Y-102425000I0J-250000D01*
G01*
X56000000Y-103225000D01*
G75*
G02*
X55750000Y-103475000I-250000J0D01*
G01*
X52850000Y-103475000D01*
G75*
G02*
X52600000Y-103225000I0J250000D01*
G01*
X52600000Y-102425000D01*
G75*
G02*
X52850000Y-102175000I250000J0D01*
G01*
G37*
G36*
G01*
X52850000Y-97725000D02*
X55750000Y-97725000D01*
G75*
G02*
X56000000Y-97975000I0J-250000D01*
G01*
X56000000Y-98775000D01*
G75*
G02*
X55750000Y-99025000I-250000J0D01*
G01*
X52850000Y-99025000D01*
G75*
G02*
X52600000Y-98775000I0J250000D01*
G01*
X52600000Y-97975000D01*
G75*
G02*
X52850000Y-97725000I250000J0D01*
G01*
G37*
%TD*%
%TO.C,R33*%
G36*
G01*
X71500000Y-90125000D02*
X68600000Y-90125000D01*
G75*
G02*
X68350000Y-89875000I0J250000D01*
G01*
X68350000Y-89075000D01*
G75*
G02*
X68600000Y-88825000I250000J0D01*
G01*
X71500000Y-88825000D01*
G75*
G02*
X71750000Y-89075000I0J-250000D01*
G01*
X71750000Y-89875000D01*
G75*
G02*
X71500000Y-90125000I-250000J0D01*
G01*
G37*
G36*
G01*
X71500000Y-94575000D02*
X68600000Y-94575000D01*
G75*
G02*
X68350000Y-94325000I0J250000D01*
G01*
X68350000Y-93525000D01*
G75*
G02*
X68600000Y-93275000I250000J0D01*
G01*
X71500000Y-93275000D01*
G75*
G02*
X71750000Y-93525000I0J-250000D01*
G01*
X71750000Y-94325000D01*
G75*
G02*
X71500000Y-94575000I-250000J0D01*
G01*
G37*
%TD*%
%TO.C,R32*%
G36*
G01*
X48675000Y-98800000D02*
X48675000Y-95900000D01*
G75*
G02*
X48925000Y-95650000I250000J0D01*
G01*
X49725000Y-95650000D01*
G75*
G02*
X49975000Y-95900000I0J-250000D01*
G01*
X49975000Y-98800000D01*
G75*
G02*
X49725000Y-99050000I-250000J0D01*
G01*
X48925000Y-99050000D01*
G75*
G02*
X48675000Y-98800000I0J250000D01*
G01*
G37*
G36*
G01*
X44225000Y-98800000D02*
X44225000Y-95900000D01*
G75*
G02*
X44475000Y-95650000I250000J0D01*
G01*
X45275000Y-95650000D01*
G75*
G02*
X45525000Y-95900000I0J-250000D01*
G01*
X45525000Y-98800000D01*
G75*
G02*
X45275000Y-99050000I-250000J0D01*
G01*
X44475000Y-99050000D01*
G75*
G02*
X44225000Y-98800000I0J250000D01*
G01*
G37*
%TD*%
%TO.C,R31*%
G36*
G01*
X60500000Y-96675000D02*
X63400000Y-96675000D01*
G75*
G02*
X63650000Y-96925000I0J-250000D01*
G01*
X63650000Y-97725000D01*
G75*
G02*
X63400000Y-97975000I-250000J0D01*
G01*
X60500000Y-97975000D01*
G75*
G02*
X60250000Y-97725000I0J250000D01*
G01*
X60250000Y-96925000D01*
G75*
G02*
X60500000Y-96675000I250000J0D01*
G01*
G37*
G36*
G01*
X60500000Y-92225000D02*
X63400000Y-92225000D01*
G75*
G02*
X63650000Y-92475000I0J-250000D01*
G01*
X63650000Y-93275000D01*
G75*
G02*
X63400000Y-93525000I-250000J0D01*
G01*
X60500000Y-93525000D01*
G75*
G02*
X60250000Y-93275000I0J250000D01*
G01*
X60250000Y-92475000D01*
G75*
G02*
X60500000Y-92225000I250000J0D01*
G01*
G37*
%TD*%
D10*
%TO.C,ESP1*%
X112620000Y-55750000D03*
X115160000Y-55750000D03*
D11*
X107540000Y-55750000D03*
D10*
X120240000Y-55750000D03*
X127860000Y-55750000D03*
X110080000Y-55750000D03*
X117700000Y-55750000D03*
X122780000Y-55750000D03*
X130400000Y-55750000D03*
X125320000Y-55750000D03*
X140560000Y-55750000D03*
X132940000Y-55750000D03*
X150720000Y-55750000D03*
X135480000Y-55750000D03*
X153260000Y-55750000D03*
X143100000Y-55750000D03*
X138020000Y-55750000D03*
X145640000Y-55750000D03*
X148180000Y-55750000D03*
X112620000Y-81150000D03*
X115160000Y-81150000D03*
D11*
X107540000Y-81150000D03*
D10*
X120240000Y-81150000D03*
X127860000Y-81150000D03*
X110080000Y-81150000D03*
X117700000Y-81150000D03*
X122780000Y-81150000D03*
X130400000Y-81150000D03*
X125320000Y-81150000D03*
X140560000Y-81150000D03*
X132940000Y-81150000D03*
X150720000Y-81150000D03*
X135480000Y-81150000D03*
X153260000Y-81150000D03*
X143100000Y-81150000D03*
X138020000Y-81150000D03*
X145640000Y-81150000D03*
X148180000Y-81150000D03*
%TD*%
D12*
%TO.C,C16*%
X115064466Y-93464466D03*
X118600000Y-97000000D03*
%TD*%
%TO.C,C15*%
X164170000Y-93120000D03*
X164170000Y-88120000D03*
%TD*%
%TO.C,C13*%
X113070000Y-41610000D03*
X113070000Y-46610000D03*
%TD*%
D13*
%TO.C,J6*%
X176720000Y-101450000D03*
X171640000Y-101450000D03*
X166560000Y-101450000D03*
X161480000Y-101450000D03*
X156400000Y-101450000D03*
X151320000Y-101450000D03*
X146240000Y-101450000D03*
X141160000Y-101450000D03*
X136080000Y-101450000D03*
%TD*%
%TO.C,J5*%
X123220000Y-101450000D03*
X118140000Y-101450000D03*
X113060000Y-101450000D03*
X107980000Y-101450000D03*
X102900000Y-101450000D03*
X97820000Y-101450000D03*
X92740000Y-101450000D03*
X87660000Y-101450000D03*
X82580000Y-101450000D03*
%TD*%
%TO.C,J2*%
X135580000Y-35450000D03*
X140660000Y-35450000D03*
X145740000Y-35450000D03*
X150820000Y-35450000D03*
X155900000Y-35450000D03*
X160980000Y-35450000D03*
X166060000Y-35450000D03*
X171140000Y-35450000D03*
X176220000Y-35450000D03*
%TD*%
%TO.C,J4*%
X107980000Y-35450000D03*
X113060000Y-35450000D03*
X118140000Y-35450000D03*
X123220000Y-35450000D03*
X82580000Y-35450000D03*
X87660000Y-35450000D03*
X92740000Y-35450000D03*
X97820000Y-35450000D03*
X102900000Y-35450000D03*
%TD*%
%TO.C,J3*%
X54980000Y-35450000D03*
X60060000Y-35450000D03*
X65140000Y-35450000D03*
X70220000Y-35450000D03*
X29580000Y-35450000D03*
X34660000Y-35450000D03*
X39740000Y-35450000D03*
X44820000Y-35450000D03*
X49900000Y-35450000D03*
%TD*%
D14*
%TO.C,H1*%
X171960000Y-43450000D03*
%TD*%
%TO.C,H2*%
X33960000Y-93450000D03*
%TD*%
D15*
%TO.C,C2*%
X48500000Y-83800000D03*
D16*
X48500000Y-85300000D03*
%TD*%
D15*
%TO.C,C17*%
X34800000Y-100100000D03*
D16*
X34800000Y-101600000D03*
%TD*%
D15*
%TO.C,C6*%
X61500000Y-61840000D03*
D16*
X63000000Y-61840000D03*
%TD*%
D15*
%TO.C,C5*%
X75240000Y-55920000D03*
D16*
X75240000Y-57420000D03*
%TD*%
D15*
%TO.C,C3*%
X62200000Y-55940000D03*
D16*
X62200000Y-57440000D03*
%TD*%
D12*
%TO.C,C14*%
X164170000Y-41950000D03*
X164170000Y-46950000D03*
%TD*%
%TO.C,C12*%
X84100000Y-84000000D03*
X84100000Y-89000000D03*
%TD*%
%TO.C,C11*%
X74560000Y-42010000D03*
X79560000Y-42010000D03*
%TD*%
%TO.C,C10*%
X139860000Y-72080000D03*
X134860000Y-72080000D03*
%TD*%
%TO.C,C9*%
X139860000Y-65580000D03*
X134860000Y-65580000D03*
%TD*%
%TO.C,C8*%
X122360000Y-72080000D03*
X127360000Y-72080000D03*
%TD*%
%TO.C,C7*%
X127360000Y-65580000D03*
X122360000Y-65580000D03*
%TD*%
D10*
%TO.C,120R_enable1*%
X82530000Y-93070000D03*
D11*
X82530000Y-95610000D03*
%TD*%
D17*
%TO.C,J1*%
X44904000Y-102770000D03*
X45920000Y-100990000D03*
X46936000Y-102770000D03*
X47952000Y-100990000D03*
X43888000Y-100990000D03*
X51000000Y-102770000D03*
X49984000Y-100990000D03*
X48968000Y-102770000D03*
X54300000Y-96170000D03*
X40580000Y-96170000D03*
X42870000Y-96170000D03*
X52010000Y-96170000D03*
X56330000Y-96170000D03*
X58620000Y-96170000D03*
X67760000Y-96170000D03*
X70050000Y-96170000D03*
D18*
X71320000Y-101880000D03*
X39320000Y-101880000D03*
D19*
X41090000Y-105310000D03*
X69540000Y-105310000D03*
D17*
X59638000Y-100990000D03*
X61670000Y-100990000D03*
X63702000Y-100990000D03*
X65734000Y-100990000D03*
X60654000Y-102770000D03*
X62686000Y-102770000D03*
X64718000Y-102770000D03*
D20*
X66750000Y-102770000D03*
%TD*%
M02*
