%TF.GenerationSoftware,KiCad,Pcbnew,(5.1.12)-1*%
%TF.CreationDate,2023-04-30T22:07:06+02:00*%
%TF.ProjectId,roomcontroller,726f6f6d-636f-46e7-9472-6f6c6c65722e,rev?*%
%TF.SameCoordinates,Original*%
%TF.FileFunction,Paste,Top*%
%TF.FilePolarity,Positive*%
%FSLAX46Y46*%
G04 Gerber Fmt 4.6, Leading zero omitted, Abs format (unit mm)*
G04 Created by KiCad (PCBNEW (5.1.12)-1) date 2023-04-30 22:07:06*
%MOMM*%
%LPD*%
G01*
G04 APERTURE LIST*
%ADD10R,5.400000X2.900000*%
%ADD11R,3.200000X2.000000*%
%ADD12R,0.650000X1.220000*%
%ADD13R,0.800000X0.900000*%
%ADD14R,4.550000X5.250000*%
%ADD15R,4.600000X1.100000*%
%ADD16R,0.900000X1.200000*%
G04 APERTURE END LIST*
%TO.C,U4*%
G36*
G01*
X153610000Y-96125000D02*
X153610000Y-96425000D01*
G75*
G02*
X153460000Y-96575000I-150000J0D01*
G01*
X152010000Y-96575000D01*
G75*
G02*
X151860000Y-96425000I0J150000D01*
G01*
X151860000Y-96125000D01*
G75*
G02*
X152010000Y-95975000I150000J0D01*
G01*
X153460000Y-95975000D01*
G75*
G02*
X153610000Y-96125000I0J-150000D01*
G01*
G37*
G36*
G01*
X153610000Y-94855000D02*
X153610000Y-95155000D01*
G75*
G02*
X153460000Y-95305000I-150000J0D01*
G01*
X152010000Y-95305000D01*
G75*
G02*
X151860000Y-95155000I0J150000D01*
G01*
X151860000Y-94855000D01*
G75*
G02*
X152010000Y-94705000I150000J0D01*
G01*
X153460000Y-94705000D01*
G75*
G02*
X153610000Y-94855000I0J-150000D01*
G01*
G37*
G36*
G01*
X153610000Y-93585000D02*
X153610000Y-93885000D01*
G75*
G02*
X153460000Y-94035000I-150000J0D01*
G01*
X152010000Y-94035000D01*
G75*
G02*
X151860000Y-93885000I0J150000D01*
G01*
X151860000Y-93585000D01*
G75*
G02*
X152010000Y-93435000I150000J0D01*
G01*
X153460000Y-93435000D01*
G75*
G02*
X153610000Y-93585000I0J-150000D01*
G01*
G37*
G36*
G01*
X153610000Y-92315000D02*
X153610000Y-92615000D01*
G75*
G02*
X153460000Y-92765000I-150000J0D01*
G01*
X152010000Y-92765000D01*
G75*
G02*
X151860000Y-92615000I0J150000D01*
G01*
X151860000Y-92315000D01*
G75*
G02*
X152010000Y-92165000I150000J0D01*
G01*
X153460000Y-92165000D01*
G75*
G02*
X153610000Y-92315000I0J-150000D01*
G01*
G37*
G36*
G01*
X153610000Y-91045000D02*
X153610000Y-91345000D01*
G75*
G02*
X153460000Y-91495000I-150000J0D01*
G01*
X152010000Y-91495000D01*
G75*
G02*
X151860000Y-91345000I0J150000D01*
G01*
X151860000Y-91045000D01*
G75*
G02*
X152010000Y-90895000I150000J0D01*
G01*
X153460000Y-90895000D01*
G75*
G02*
X153610000Y-91045000I0J-150000D01*
G01*
G37*
G36*
G01*
X153610000Y-89775000D02*
X153610000Y-90075000D01*
G75*
G02*
X153460000Y-90225000I-150000J0D01*
G01*
X152010000Y-90225000D01*
G75*
G02*
X151860000Y-90075000I0J150000D01*
G01*
X151860000Y-89775000D01*
G75*
G02*
X152010000Y-89625000I150000J0D01*
G01*
X153460000Y-89625000D01*
G75*
G02*
X153610000Y-89775000I0J-150000D01*
G01*
G37*
G36*
G01*
X153610000Y-88505000D02*
X153610000Y-88805000D01*
G75*
G02*
X153460000Y-88955000I-150000J0D01*
G01*
X152010000Y-88955000D01*
G75*
G02*
X151860000Y-88805000I0J150000D01*
G01*
X151860000Y-88505000D01*
G75*
G02*
X152010000Y-88355000I150000J0D01*
G01*
X153460000Y-88355000D01*
G75*
G02*
X153610000Y-88505000I0J-150000D01*
G01*
G37*
G36*
G01*
X153610000Y-87235000D02*
X153610000Y-87535000D01*
G75*
G02*
X153460000Y-87685000I-150000J0D01*
G01*
X152010000Y-87685000D01*
G75*
G02*
X151860000Y-87535000I0J150000D01*
G01*
X151860000Y-87235000D01*
G75*
G02*
X152010000Y-87085000I150000J0D01*
G01*
X153460000Y-87085000D01*
G75*
G02*
X153610000Y-87235000I0J-150000D01*
G01*
G37*
G36*
G01*
X158760000Y-87235000D02*
X158760000Y-87535000D01*
G75*
G02*
X158610000Y-87685000I-150000J0D01*
G01*
X157160000Y-87685000D01*
G75*
G02*
X157010000Y-87535000I0J150000D01*
G01*
X157010000Y-87235000D01*
G75*
G02*
X157160000Y-87085000I150000J0D01*
G01*
X158610000Y-87085000D01*
G75*
G02*
X158760000Y-87235000I0J-150000D01*
G01*
G37*
G36*
G01*
X158760000Y-88505000D02*
X158760000Y-88805000D01*
G75*
G02*
X158610000Y-88955000I-150000J0D01*
G01*
X157160000Y-88955000D01*
G75*
G02*
X157010000Y-88805000I0J150000D01*
G01*
X157010000Y-88505000D01*
G75*
G02*
X157160000Y-88355000I150000J0D01*
G01*
X158610000Y-88355000D01*
G75*
G02*
X158760000Y-88505000I0J-150000D01*
G01*
G37*
G36*
G01*
X158760000Y-89775000D02*
X158760000Y-90075000D01*
G75*
G02*
X158610000Y-90225000I-150000J0D01*
G01*
X157160000Y-90225000D01*
G75*
G02*
X157010000Y-90075000I0J150000D01*
G01*
X157010000Y-89775000D01*
G75*
G02*
X157160000Y-89625000I150000J0D01*
G01*
X158610000Y-89625000D01*
G75*
G02*
X158760000Y-89775000I0J-150000D01*
G01*
G37*
G36*
G01*
X158760000Y-91045000D02*
X158760000Y-91345000D01*
G75*
G02*
X158610000Y-91495000I-150000J0D01*
G01*
X157160000Y-91495000D01*
G75*
G02*
X157010000Y-91345000I0J150000D01*
G01*
X157010000Y-91045000D01*
G75*
G02*
X157160000Y-90895000I150000J0D01*
G01*
X158610000Y-90895000D01*
G75*
G02*
X158760000Y-91045000I0J-150000D01*
G01*
G37*
G36*
G01*
X158760000Y-92315000D02*
X158760000Y-92615000D01*
G75*
G02*
X158610000Y-92765000I-150000J0D01*
G01*
X157160000Y-92765000D01*
G75*
G02*
X157010000Y-92615000I0J150000D01*
G01*
X157010000Y-92315000D01*
G75*
G02*
X157160000Y-92165000I150000J0D01*
G01*
X158610000Y-92165000D01*
G75*
G02*
X158760000Y-92315000I0J-150000D01*
G01*
G37*
G36*
G01*
X158760000Y-93585000D02*
X158760000Y-93885000D01*
G75*
G02*
X158610000Y-94035000I-150000J0D01*
G01*
X157160000Y-94035000D01*
G75*
G02*
X157010000Y-93885000I0J150000D01*
G01*
X157010000Y-93585000D01*
G75*
G02*
X157160000Y-93435000I150000J0D01*
G01*
X158610000Y-93435000D01*
G75*
G02*
X158760000Y-93585000I0J-150000D01*
G01*
G37*
G36*
G01*
X158760000Y-94855000D02*
X158760000Y-95155000D01*
G75*
G02*
X158610000Y-95305000I-150000J0D01*
G01*
X157160000Y-95305000D01*
G75*
G02*
X157010000Y-95155000I0J150000D01*
G01*
X157010000Y-94855000D01*
G75*
G02*
X157160000Y-94705000I150000J0D01*
G01*
X158610000Y-94705000D01*
G75*
G02*
X158760000Y-94855000I0J-150000D01*
G01*
G37*
G36*
G01*
X158760000Y-96125000D02*
X158760000Y-96425000D01*
G75*
G02*
X158610000Y-96575000I-150000J0D01*
G01*
X157160000Y-96575000D01*
G75*
G02*
X157010000Y-96425000I0J150000D01*
G01*
X157010000Y-96125000D01*
G75*
G02*
X157160000Y-95975000I150000J0D01*
G01*
X158610000Y-95975000D01*
G75*
G02*
X158760000Y-96125000I0J-150000D01*
G01*
G37*
%TD*%
%TO.C,U3*%
G36*
G01*
X101650000Y-96125000D02*
X101650000Y-96425000D01*
G75*
G02*
X101500000Y-96575000I-150000J0D01*
G01*
X100050000Y-96575000D01*
G75*
G02*
X99900000Y-96425000I0J150000D01*
G01*
X99900000Y-96125000D01*
G75*
G02*
X100050000Y-95975000I150000J0D01*
G01*
X101500000Y-95975000D01*
G75*
G02*
X101650000Y-96125000I0J-150000D01*
G01*
G37*
G36*
G01*
X101650000Y-94855000D02*
X101650000Y-95155000D01*
G75*
G02*
X101500000Y-95305000I-150000J0D01*
G01*
X100050000Y-95305000D01*
G75*
G02*
X99900000Y-95155000I0J150000D01*
G01*
X99900000Y-94855000D01*
G75*
G02*
X100050000Y-94705000I150000J0D01*
G01*
X101500000Y-94705000D01*
G75*
G02*
X101650000Y-94855000I0J-150000D01*
G01*
G37*
G36*
G01*
X101650000Y-93585000D02*
X101650000Y-93885000D01*
G75*
G02*
X101500000Y-94035000I-150000J0D01*
G01*
X100050000Y-94035000D01*
G75*
G02*
X99900000Y-93885000I0J150000D01*
G01*
X99900000Y-93585000D01*
G75*
G02*
X100050000Y-93435000I150000J0D01*
G01*
X101500000Y-93435000D01*
G75*
G02*
X101650000Y-93585000I0J-150000D01*
G01*
G37*
G36*
G01*
X101650000Y-92315000D02*
X101650000Y-92615000D01*
G75*
G02*
X101500000Y-92765000I-150000J0D01*
G01*
X100050000Y-92765000D01*
G75*
G02*
X99900000Y-92615000I0J150000D01*
G01*
X99900000Y-92315000D01*
G75*
G02*
X100050000Y-92165000I150000J0D01*
G01*
X101500000Y-92165000D01*
G75*
G02*
X101650000Y-92315000I0J-150000D01*
G01*
G37*
G36*
G01*
X101650000Y-91045000D02*
X101650000Y-91345000D01*
G75*
G02*
X101500000Y-91495000I-150000J0D01*
G01*
X100050000Y-91495000D01*
G75*
G02*
X99900000Y-91345000I0J150000D01*
G01*
X99900000Y-91045000D01*
G75*
G02*
X100050000Y-90895000I150000J0D01*
G01*
X101500000Y-90895000D01*
G75*
G02*
X101650000Y-91045000I0J-150000D01*
G01*
G37*
G36*
G01*
X101650000Y-89775000D02*
X101650000Y-90075000D01*
G75*
G02*
X101500000Y-90225000I-150000J0D01*
G01*
X100050000Y-90225000D01*
G75*
G02*
X99900000Y-90075000I0J150000D01*
G01*
X99900000Y-89775000D01*
G75*
G02*
X100050000Y-89625000I150000J0D01*
G01*
X101500000Y-89625000D01*
G75*
G02*
X101650000Y-89775000I0J-150000D01*
G01*
G37*
G36*
G01*
X101650000Y-88505000D02*
X101650000Y-88805000D01*
G75*
G02*
X101500000Y-88955000I-150000J0D01*
G01*
X100050000Y-88955000D01*
G75*
G02*
X99900000Y-88805000I0J150000D01*
G01*
X99900000Y-88505000D01*
G75*
G02*
X100050000Y-88355000I150000J0D01*
G01*
X101500000Y-88355000D01*
G75*
G02*
X101650000Y-88505000I0J-150000D01*
G01*
G37*
G36*
G01*
X101650000Y-87235000D02*
X101650000Y-87535000D01*
G75*
G02*
X101500000Y-87685000I-150000J0D01*
G01*
X100050000Y-87685000D01*
G75*
G02*
X99900000Y-87535000I0J150000D01*
G01*
X99900000Y-87235000D01*
G75*
G02*
X100050000Y-87085000I150000J0D01*
G01*
X101500000Y-87085000D01*
G75*
G02*
X101650000Y-87235000I0J-150000D01*
G01*
G37*
G36*
G01*
X106800000Y-87235000D02*
X106800000Y-87535000D01*
G75*
G02*
X106650000Y-87685000I-150000J0D01*
G01*
X105200000Y-87685000D01*
G75*
G02*
X105050000Y-87535000I0J150000D01*
G01*
X105050000Y-87235000D01*
G75*
G02*
X105200000Y-87085000I150000J0D01*
G01*
X106650000Y-87085000D01*
G75*
G02*
X106800000Y-87235000I0J-150000D01*
G01*
G37*
G36*
G01*
X106800000Y-88505000D02*
X106800000Y-88805000D01*
G75*
G02*
X106650000Y-88955000I-150000J0D01*
G01*
X105200000Y-88955000D01*
G75*
G02*
X105050000Y-88805000I0J150000D01*
G01*
X105050000Y-88505000D01*
G75*
G02*
X105200000Y-88355000I150000J0D01*
G01*
X106650000Y-88355000D01*
G75*
G02*
X106800000Y-88505000I0J-150000D01*
G01*
G37*
G36*
G01*
X106800000Y-89775000D02*
X106800000Y-90075000D01*
G75*
G02*
X106650000Y-90225000I-150000J0D01*
G01*
X105200000Y-90225000D01*
G75*
G02*
X105050000Y-90075000I0J150000D01*
G01*
X105050000Y-89775000D01*
G75*
G02*
X105200000Y-89625000I150000J0D01*
G01*
X106650000Y-89625000D01*
G75*
G02*
X106800000Y-89775000I0J-150000D01*
G01*
G37*
G36*
G01*
X106800000Y-91045000D02*
X106800000Y-91345000D01*
G75*
G02*
X106650000Y-91495000I-150000J0D01*
G01*
X105200000Y-91495000D01*
G75*
G02*
X105050000Y-91345000I0J150000D01*
G01*
X105050000Y-91045000D01*
G75*
G02*
X105200000Y-90895000I150000J0D01*
G01*
X106650000Y-90895000D01*
G75*
G02*
X106800000Y-91045000I0J-150000D01*
G01*
G37*
G36*
G01*
X106800000Y-92315000D02*
X106800000Y-92615000D01*
G75*
G02*
X106650000Y-92765000I-150000J0D01*
G01*
X105200000Y-92765000D01*
G75*
G02*
X105050000Y-92615000I0J150000D01*
G01*
X105050000Y-92315000D01*
G75*
G02*
X105200000Y-92165000I150000J0D01*
G01*
X106650000Y-92165000D01*
G75*
G02*
X106800000Y-92315000I0J-150000D01*
G01*
G37*
G36*
G01*
X106800000Y-93585000D02*
X106800000Y-93885000D01*
G75*
G02*
X106650000Y-94035000I-150000J0D01*
G01*
X105200000Y-94035000D01*
G75*
G02*
X105050000Y-93885000I0J150000D01*
G01*
X105050000Y-93585000D01*
G75*
G02*
X105200000Y-93435000I150000J0D01*
G01*
X106650000Y-93435000D01*
G75*
G02*
X106800000Y-93585000I0J-150000D01*
G01*
G37*
G36*
G01*
X106800000Y-94855000D02*
X106800000Y-95155000D01*
G75*
G02*
X106650000Y-95305000I-150000J0D01*
G01*
X105200000Y-95305000D01*
G75*
G02*
X105050000Y-95155000I0J150000D01*
G01*
X105050000Y-94855000D01*
G75*
G02*
X105200000Y-94705000I150000J0D01*
G01*
X106650000Y-94705000D01*
G75*
G02*
X106800000Y-94855000I0J-150000D01*
G01*
G37*
G36*
G01*
X106800000Y-96125000D02*
X106800000Y-96425000D01*
G75*
G02*
X106650000Y-96575000I-150000J0D01*
G01*
X105200000Y-96575000D01*
G75*
G02*
X105050000Y-96425000I0J150000D01*
G01*
X105050000Y-96125000D01*
G75*
G02*
X105200000Y-95975000I150000J0D01*
G01*
X106650000Y-95975000D01*
G75*
G02*
X106800000Y-96125000I0J-150000D01*
G01*
G37*
%TD*%
%TO.C,U2*%
G36*
G01*
X105050000Y-41035000D02*
X105050000Y-40735000D01*
G75*
G02*
X105200000Y-40585000I150000J0D01*
G01*
X106650000Y-40585000D01*
G75*
G02*
X106800000Y-40735000I0J-150000D01*
G01*
X106800000Y-41035000D01*
G75*
G02*
X106650000Y-41185000I-150000J0D01*
G01*
X105200000Y-41185000D01*
G75*
G02*
X105050000Y-41035000I0J150000D01*
G01*
G37*
G36*
G01*
X105050000Y-42305000D02*
X105050000Y-42005000D01*
G75*
G02*
X105200000Y-41855000I150000J0D01*
G01*
X106650000Y-41855000D01*
G75*
G02*
X106800000Y-42005000I0J-150000D01*
G01*
X106800000Y-42305000D01*
G75*
G02*
X106650000Y-42455000I-150000J0D01*
G01*
X105200000Y-42455000D01*
G75*
G02*
X105050000Y-42305000I0J150000D01*
G01*
G37*
G36*
G01*
X105050000Y-43575000D02*
X105050000Y-43275000D01*
G75*
G02*
X105200000Y-43125000I150000J0D01*
G01*
X106650000Y-43125000D01*
G75*
G02*
X106800000Y-43275000I0J-150000D01*
G01*
X106800000Y-43575000D01*
G75*
G02*
X106650000Y-43725000I-150000J0D01*
G01*
X105200000Y-43725000D01*
G75*
G02*
X105050000Y-43575000I0J150000D01*
G01*
G37*
G36*
G01*
X105050000Y-44845000D02*
X105050000Y-44545000D01*
G75*
G02*
X105200000Y-44395000I150000J0D01*
G01*
X106650000Y-44395000D01*
G75*
G02*
X106800000Y-44545000I0J-150000D01*
G01*
X106800000Y-44845000D01*
G75*
G02*
X106650000Y-44995000I-150000J0D01*
G01*
X105200000Y-44995000D01*
G75*
G02*
X105050000Y-44845000I0J150000D01*
G01*
G37*
G36*
G01*
X105050000Y-46115000D02*
X105050000Y-45815000D01*
G75*
G02*
X105200000Y-45665000I150000J0D01*
G01*
X106650000Y-45665000D01*
G75*
G02*
X106800000Y-45815000I0J-150000D01*
G01*
X106800000Y-46115000D01*
G75*
G02*
X106650000Y-46265000I-150000J0D01*
G01*
X105200000Y-46265000D01*
G75*
G02*
X105050000Y-46115000I0J150000D01*
G01*
G37*
G36*
G01*
X105050000Y-47385000D02*
X105050000Y-47085000D01*
G75*
G02*
X105200000Y-46935000I150000J0D01*
G01*
X106650000Y-46935000D01*
G75*
G02*
X106800000Y-47085000I0J-150000D01*
G01*
X106800000Y-47385000D01*
G75*
G02*
X106650000Y-47535000I-150000J0D01*
G01*
X105200000Y-47535000D01*
G75*
G02*
X105050000Y-47385000I0J150000D01*
G01*
G37*
G36*
G01*
X105050000Y-48655000D02*
X105050000Y-48355000D01*
G75*
G02*
X105200000Y-48205000I150000J0D01*
G01*
X106650000Y-48205000D01*
G75*
G02*
X106800000Y-48355000I0J-150000D01*
G01*
X106800000Y-48655000D01*
G75*
G02*
X106650000Y-48805000I-150000J0D01*
G01*
X105200000Y-48805000D01*
G75*
G02*
X105050000Y-48655000I0J150000D01*
G01*
G37*
G36*
G01*
X105050000Y-49925000D02*
X105050000Y-49625000D01*
G75*
G02*
X105200000Y-49475000I150000J0D01*
G01*
X106650000Y-49475000D01*
G75*
G02*
X106800000Y-49625000I0J-150000D01*
G01*
X106800000Y-49925000D01*
G75*
G02*
X106650000Y-50075000I-150000J0D01*
G01*
X105200000Y-50075000D01*
G75*
G02*
X105050000Y-49925000I0J150000D01*
G01*
G37*
G36*
G01*
X99900000Y-49925000D02*
X99900000Y-49625000D01*
G75*
G02*
X100050000Y-49475000I150000J0D01*
G01*
X101500000Y-49475000D01*
G75*
G02*
X101650000Y-49625000I0J-150000D01*
G01*
X101650000Y-49925000D01*
G75*
G02*
X101500000Y-50075000I-150000J0D01*
G01*
X100050000Y-50075000D01*
G75*
G02*
X99900000Y-49925000I0J150000D01*
G01*
G37*
G36*
G01*
X99900000Y-48655000D02*
X99900000Y-48355000D01*
G75*
G02*
X100050000Y-48205000I150000J0D01*
G01*
X101500000Y-48205000D01*
G75*
G02*
X101650000Y-48355000I0J-150000D01*
G01*
X101650000Y-48655000D01*
G75*
G02*
X101500000Y-48805000I-150000J0D01*
G01*
X100050000Y-48805000D01*
G75*
G02*
X99900000Y-48655000I0J150000D01*
G01*
G37*
G36*
G01*
X99900000Y-47385000D02*
X99900000Y-47085000D01*
G75*
G02*
X100050000Y-46935000I150000J0D01*
G01*
X101500000Y-46935000D01*
G75*
G02*
X101650000Y-47085000I0J-150000D01*
G01*
X101650000Y-47385000D01*
G75*
G02*
X101500000Y-47535000I-150000J0D01*
G01*
X100050000Y-47535000D01*
G75*
G02*
X99900000Y-47385000I0J150000D01*
G01*
G37*
G36*
G01*
X99900000Y-46115000D02*
X99900000Y-45815000D01*
G75*
G02*
X100050000Y-45665000I150000J0D01*
G01*
X101500000Y-45665000D01*
G75*
G02*
X101650000Y-45815000I0J-150000D01*
G01*
X101650000Y-46115000D01*
G75*
G02*
X101500000Y-46265000I-150000J0D01*
G01*
X100050000Y-46265000D01*
G75*
G02*
X99900000Y-46115000I0J150000D01*
G01*
G37*
G36*
G01*
X99900000Y-44845000D02*
X99900000Y-44545000D01*
G75*
G02*
X100050000Y-44395000I150000J0D01*
G01*
X101500000Y-44395000D01*
G75*
G02*
X101650000Y-44545000I0J-150000D01*
G01*
X101650000Y-44845000D01*
G75*
G02*
X101500000Y-44995000I-150000J0D01*
G01*
X100050000Y-44995000D01*
G75*
G02*
X99900000Y-44845000I0J150000D01*
G01*
G37*
G36*
G01*
X99900000Y-43575000D02*
X99900000Y-43275000D01*
G75*
G02*
X100050000Y-43125000I150000J0D01*
G01*
X101500000Y-43125000D01*
G75*
G02*
X101650000Y-43275000I0J-150000D01*
G01*
X101650000Y-43575000D01*
G75*
G02*
X101500000Y-43725000I-150000J0D01*
G01*
X100050000Y-43725000D01*
G75*
G02*
X99900000Y-43575000I0J150000D01*
G01*
G37*
G36*
G01*
X99900000Y-42305000D02*
X99900000Y-42005000D01*
G75*
G02*
X100050000Y-41855000I150000J0D01*
G01*
X101500000Y-41855000D01*
G75*
G02*
X101650000Y-42005000I0J-150000D01*
G01*
X101650000Y-42305000D01*
G75*
G02*
X101500000Y-42455000I-150000J0D01*
G01*
X100050000Y-42455000D01*
G75*
G02*
X99900000Y-42305000I0J150000D01*
G01*
G37*
G36*
G01*
X99900000Y-41035000D02*
X99900000Y-40735000D01*
G75*
G02*
X100050000Y-40585000I150000J0D01*
G01*
X101500000Y-40585000D01*
G75*
G02*
X101650000Y-40735000I0J-150000D01*
G01*
X101650000Y-41035000D01*
G75*
G02*
X101500000Y-41185000I-150000J0D01*
G01*
X100050000Y-41185000D01*
G75*
G02*
X99900000Y-41035000I0J150000D01*
G01*
G37*
%TD*%
%TO.C,U1*%
G36*
G01*
X157010000Y-41035000D02*
X157010000Y-40735000D01*
G75*
G02*
X157160000Y-40585000I150000J0D01*
G01*
X158610000Y-40585000D01*
G75*
G02*
X158760000Y-40735000I0J-150000D01*
G01*
X158760000Y-41035000D01*
G75*
G02*
X158610000Y-41185000I-150000J0D01*
G01*
X157160000Y-41185000D01*
G75*
G02*
X157010000Y-41035000I0J150000D01*
G01*
G37*
G36*
G01*
X157010000Y-42305000D02*
X157010000Y-42005000D01*
G75*
G02*
X157160000Y-41855000I150000J0D01*
G01*
X158610000Y-41855000D01*
G75*
G02*
X158760000Y-42005000I0J-150000D01*
G01*
X158760000Y-42305000D01*
G75*
G02*
X158610000Y-42455000I-150000J0D01*
G01*
X157160000Y-42455000D01*
G75*
G02*
X157010000Y-42305000I0J150000D01*
G01*
G37*
G36*
G01*
X157010000Y-43575000D02*
X157010000Y-43275000D01*
G75*
G02*
X157160000Y-43125000I150000J0D01*
G01*
X158610000Y-43125000D01*
G75*
G02*
X158760000Y-43275000I0J-150000D01*
G01*
X158760000Y-43575000D01*
G75*
G02*
X158610000Y-43725000I-150000J0D01*
G01*
X157160000Y-43725000D01*
G75*
G02*
X157010000Y-43575000I0J150000D01*
G01*
G37*
G36*
G01*
X157010000Y-44845000D02*
X157010000Y-44545000D01*
G75*
G02*
X157160000Y-44395000I150000J0D01*
G01*
X158610000Y-44395000D01*
G75*
G02*
X158760000Y-44545000I0J-150000D01*
G01*
X158760000Y-44845000D01*
G75*
G02*
X158610000Y-44995000I-150000J0D01*
G01*
X157160000Y-44995000D01*
G75*
G02*
X157010000Y-44845000I0J150000D01*
G01*
G37*
G36*
G01*
X157010000Y-46115000D02*
X157010000Y-45815000D01*
G75*
G02*
X157160000Y-45665000I150000J0D01*
G01*
X158610000Y-45665000D01*
G75*
G02*
X158760000Y-45815000I0J-150000D01*
G01*
X158760000Y-46115000D01*
G75*
G02*
X158610000Y-46265000I-150000J0D01*
G01*
X157160000Y-46265000D01*
G75*
G02*
X157010000Y-46115000I0J150000D01*
G01*
G37*
G36*
G01*
X157010000Y-47385000D02*
X157010000Y-47085000D01*
G75*
G02*
X157160000Y-46935000I150000J0D01*
G01*
X158610000Y-46935000D01*
G75*
G02*
X158760000Y-47085000I0J-150000D01*
G01*
X158760000Y-47385000D01*
G75*
G02*
X158610000Y-47535000I-150000J0D01*
G01*
X157160000Y-47535000D01*
G75*
G02*
X157010000Y-47385000I0J150000D01*
G01*
G37*
G36*
G01*
X157010000Y-48655000D02*
X157010000Y-48355000D01*
G75*
G02*
X157160000Y-48205000I150000J0D01*
G01*
X158610000Y-48205000D01*
G75*
G02*
X158760000Y-48355000I0J-150000D01*
G01*
X158760000Y-48655000D01*
G75*
G02*
X158610000Y-48805000I-150000J0D01*
G01*
X157160000Y-48805000D01*
G75*
G02*
X157010000Y-48655000I0J150000D01*
G01*
G37*
G36*
G01*
X157010000Y-49925000D02*
X157010000Y-49625000D01*
G75*
G02*
X157160000Y-49475000I150000J0D01*
G01*
X158610000Y-49475000D01*
G75*
G02*
X158760000Y-49625000I0J-150000D01*
G01*
X158760000Y-49925000D01*
G75*
G02*
X158610000Y-50075000I-150000J0D01*
G01*
X157160000Y-50075000D01*
G75*
G02*
X157010000Y-49925000I0J150000D01*
G01*
G37*
G36*
G01*
X151860000Y-49925000D02*
X151860000Y-49625000D01*
G75*
G02*
X152010000Y-49475000I150000J0D01*
G01*
X153460000Y-49475000D01*
G75*
G02*
X153610000Y-49625000I0J-150000D01*
G01*
X153610000Y-49925000D01*
G75*
G02*
X153460000Y-50075000I-150000J0D01*
G01*
X152010000Y-50075000D01*
G75*
G02*
X151860000Y-49925000I0J150000D01*
G01*
G37*
G36*
G01*
X151860000Y-48655000D02*
X151860000Y-48355000D01*
G75*
G02*
X152010000Y-48205000I150000J0D01*
G01*
X153460000Y-48205000D01*
G75*
G02*
X153610000Y-48355000I0J-150000D01*
G01*
X153610000Y-48655000D01*
G75*
G02*
X153460000Y-48805000I-150000J0D01*
G01*
X152010000Y-48805000D01*
G75*
G02*
X151860000Y-48655000I0J150000D01*
G01*
G37*
G36*
G01*
X151860000Y-47385000D02*
X151860000Y-47085000D01*
G75*
G02*
X152010000Y-46935000I150000J0D01*
G01*
X153460000Y-46935000D01*
G75*
G02*
X153610000Y-47085000I0J-150000D01*
G01*
X153610000Y-47385000D01*
G75*
G02*
X153460000Y-47535000I-150000J0D01*
G01*
X152010000Y-47535000D01*
G75*
G02*
X151860000Y-47385000I0J150000D01*
G01*
G37*
G36*
G01*
X151860000Y-46115000D02*
X151860000Y-45815000D01*
G75*
G02*
X152010000Y-45665000I150000J0D01*
G01*
X153460000Y-45665000D01*
G75*
G02*
X153610000Y-45815000I0J-150000D01*
G01*
X153610000Y-46115000D01*
G75*
G02*
X153460000Y-46265000I-150000J0D01*
G01*
X152010000Y-46265000D01*
G75*
G02*
X151860000Y-46115000I0J150000D01*
G01*
G37*
G36*
G01*
X151860000Y-44845000D02*
X151860000Y-44545000D01*
G75*
G02*
X152010000Y-44395000I150000J0D01*
G01*
X153460000Y-44395000D01*
G75*
G02*
X153610000Y-44545000I0J-150000D01*
G01*
X153610000Y-44845000D01*
G75*
G02*
X153460000Y-44995000I-150000J0D01*
G01*
X152010000Y-44995000D01*
G75*
G02*
X151860000Y-44845000I0J150000D01*
G01*
G37*
G36*
G01*
X151860000Y-43575000D02*
X151860000Y-43275000D01*
G75*
G02*
X152010000Y-43125000I150000J0D01*
G01*
X153460000Y-43125000D01*
G75*
G02*
X153610000Y-43275000I0J-150000D01*
G01*
X153610000Y-43575000D01*
G75*
G02*
X153460000Y-43725000I-150000J0D01*
G01*
X152010000Y-43725000D01*
G75*
G02*
X151860000Y-43575000I0J150000D01*
G01*
G37*
G36*
G01*
X151860000Y-42305000D02*
X151860000Y-42005000D01*
G75*
G02*
X152010000Y-41855000I150000J0D01*
G01*
X153460000Y-41855000D01*
G75*
G02*
X153610000Y-42005000I0J-150000D01*
G01*
X153610000Y-42305000D01*
G75*
G02*
X153460000Y-42455000I-150000J0D01*
G01*
X152010000Y-42455000D01*
G75*
G02*
X151860000Y-42305000I0J150000D01*
G01*
G37*
G36*
G01*
X151860000Y-41035000D02*
X151860000Y-40735000D01*
G75*
G02*
X152010000Y-40585000I150000J0D01*
G01*
X153460000Y-40585000D01*
G75*
G02*
X153610000Y-40735000I0J-150000D01*
G01*
X153610000Y-41035000D01*
G75*
G02*
X153460000Y-41185000I-150000J0D01*
G01*
X152010000Y-41185000D01*
G75*
G02*
X151860000Y-41035000I0J150000D01*
G01*
G37*
%TD*%
%TO.C,C1*%
G36*
G01*
X32635000Y-68350000D02*
X32635000Y-67250000D01*
G75*
G02*
X32885000Y-67000000I250000J0D01*
G01*
X35710000Y-67000000D01*
G75*
G02*
X35960000Y-67250000I0J-250000D01*
G01*
X35960000Y-68350000D01*
G75*
G02*
X35710000Y-68600000I-250000J0D01*
G01*
X32885000Y-68600000D01*
G75*
G02*
X32635000Y-68350000I0J250000D01*
G01*
G37*
G36*
G01*
X27560000Y-68350000D02*
X27560000Y-67250000D01*
G75*
G02*
X27810000Y-67000000I250000J0D01*
G01*
X30635000Y-67000000D01*
G75*
G02*
X30885000Y-67250000I0J-250000D01*
G01*
X30885000Y-68350000D01*
G75*
G02*
X30635000Y-68600000I-250000J0D01*
G01*
X27810000Y-68600000D01*
G75*
G02*
X27560000Y-68350000I0J250000D01*
G01*
G37*
%TD*%
%TO.C,U9*%
G36*
G01*
X44255000Y-88500000D02*
X44555000Y-88500000D01*
G75*
G02*
X44705000Y-88650000I0J-150000D01*
G01*
X44705000Y-90100000D01*
G75*
G02*
X44555000Y-90250000I-150000J0D01*
G01*
X44255000Y-90250000D01*
G75*
G02*
X44105000Y-90100000I0J150000D01*
G01*
X44105000Y-88650000D01*
G75*
G02*
X44255000Y-88500000I150000J0D01*
G01*
G37*
G36*
G01*
X42985000Y-88500000D02*
X43285000Y-88500000D01*
G75*
G02*
X43435000Y-88650000I0J-150000D01*
G01*
X43435000Y-90100000D01*
G75*
G02*
X43285000Y-90250000I-150000J0D01*
G01*
X42985000Y-90250000D01*
G75*
G02*
X42835000Y-90100000I0J150000D01*
G01*
X42835000Y-88650000D01*
G75*
G02*
X42985000Y-88500000I150000J0D01*
G01*
G37*
G36*
G01*
X41715000Y-88500000D02*
X42015000Y-88500000D01*
G75*
G02*
X42165000Y-88650000I0J-150000D01*
G01*
X42165000Y-90100000D01*
G75*
G02*
X42015000Y-90250000I-150000J0D01*
G01*
X41715000Y-90250000D01*
G75*
G02*
X41565000Y-90100000I0J150000D01*
G01*
X41565000Y-88650000D01*
G75*
G02*
X41715000Y-88500000I150000J0D01*
G01*
G37*
G36*
G01*
X40445000Y-88500000D02*
X40745000Y-88500000D01*
G75*
G02*
X40895000Y-88650000I0J-150000D01*
G01*
X40895000Y-90100000D01*
G75*
G02*
X40745000Y-90250000I-150000J0D01*
G01*
X40445000Y-90250000D01*
G75*
G02*
X40295000Y-90100000I0J150000D01*
G01*
X40295000Y-88650000D01*
G75*
G02*
X40445000Y-88500000I150000J0D01*
G01*
G37*
G36*
G01*
X40445000Y-83350000D02*
X40745000Y-83350000D01*
G75*
G02*
X40895000Y-83500000I0J-150000D01*
G01*
X40895000Y-84950000D01*
G75*
G02*
X40745000Y-85100000I-150000J0D01*
G01*
X40445000Y-85100000D01*
G75*
G02*
X40295000Y-84950000I0J150000D01*
G01*
X40295000Y-83500000D01*
G75*
G02*
X40445000Y-83350000I150000J0D01*
G01*
G37*
G36*
G01*
X41715000Y-83350000D02*
X42015000Y-83350000D01*
G75*
G02*
X42165000Y-83500000I0J-150000D01*
G01*
X42165000Y-84950000D01*
G75*
G02*
X42015000Y-85100000I-150000J0D01*
G01*
X41715000Y-85100000D01*
G75*
G02*
X41565000Y-84950000I0J150000D01*
G01*
X41565000Y-83500000D01*
G75*
G02*
X41715000Y-83350000I150000J0D01*
G01*
G37*
G36*
G01*
X42985000Y-83350000D02*
X43285000Y-83350000D01*
G75*
G02*
X43435000Y-83500000I0J-150000D01*
G01*
X43435000Y-84950000D01*
G75*
G02*
X43285000Y-85100000I-150000J0D01*
G01*
X42985000Y-85100000D01*
G75*
G02*
X42835000Y-84950000I0J150000D01*
G01*
X42835000Y-83500000D01*
G75*
G02*
X42985000Y-83350000I150000J0D01*
G01*
G37*
G36*
G01*
X44255000Y-83350000D02*
X44555000Y-83350000D01*
G75*
G02*
X44705000Y-83500000I0J-150000D01*
G01*
X44705000Y-84950000D01*
G75*
G02*
X44555000Y-85100000I-150000J0D01*
G01*
X44255000Y-85100000D01*
G75*
G02*
X44105000Y-84950000I0J150000D01*
G01*
X44105000Y-83500000D01*
G75*
G02*
X44255000Y-83350000I150000J0D01*
G01*
G37*
%TD*%
%TO.C,R30*%
G36*
G01*
X50775000Y-91450001D02*
X50775000Y-88549999D01*
G75*
G02*
X51024999Y-88300000I249999J0D01*
G01*
X51825001Y-88300000D01*
G75*
G02*
X52075000Y-88549999I0J-249999D01*
G01*
X52075000Y-91450001D01*
G75*
G02*
X51825001Y-91700000I-249999J0D01*
G01*
X51024999Y-91700000D01*
G75*
G02*
X50775000Y-91450001I0J249999D01*
G01*
G37*
G36*
G01*
X46325000Y-91450001D02*
X46325000Y-88549999D01*
G75*
G02*
X46574999Y-88300000I249999J0D01*
G01*
X47375001Y-88300000D01*
G75*
G02*
X47625000Y-88549999I0J-249999D01*
G01*
X47625000Y-91450001D01*
G75*
G02*
X47375001Y-91700000I-249999J0D01*
G01*
X46574999Y-91700000D01*
G75*
G02*
X46325000Y-91450001I0J249999D01*
G01*
G37*
%TD*%
%TO.C,R29*%
G36*
G01*
X31049999Y-86975000D02*
X33950001Y-86975000D01*
G75*
G02*
X34200000Y-87224999I0J-249999D01*
G01*
X34200000Y-88025001D01*
G75*
G02*
X33950001Y-88275000I-249999J0D01*
G01*
X31049999Y-88275000D01*
G75*
G02*
X30800000Y-88025001I0J249999D01*
G01*
X30800000Y-87224999D01*
G75*
G02*
X31049999Y-86975000I249999J0D01*
G01*
G37*
G36*
G01*
X31049999Y-82525000D02*
X33950001Y-82525000D01*
G75*
G02*
X34200000Y-82774999I0J-249999D01*
G01*
X34200000Y-83575001D01*
G75*
G02*
X33950001Y-83825000I-249999J0D01*
G01*
X31049999Y-83825000D01*
G75*
G02*
X30800000Y-83575001I0J249999D01*
G01*
X30800000Y-82774999D01*
G75*
G02*
X31049999Y-82525000I249999J0D01*
G01*
G37*
%TD*%
%TO.C,R28*%
G36*
G01*
X38350001Y-77125000D02*
X35449999Y-77125000D01*
G75*
G02*
X35200000Y-76875001I0J249999D01*
G01*
X35200000Y-76074999D01*
G75*
G02*
X35449999Y-75825000I249999J0D01*
G01*
X38350001Y-75825000D01*
G75*
G02*
X38600000Y-76074999I0J-249999D01*
G01*
X38600000Y-76875001D01*
G75*
G02*
X38350001Y-77125000I-249999J0D01*
G01*
G37*
G36*
G01*
X38350001Y-81575000D02*
X35449999Y-81575000D01*
G75*
G02*
X35200000Y-81325001I0J249999D01*
G01*
X35200000Y-80524999D01*
G75*
G02*
X35449999Y-80275000I249999J0D01*
G01*
X38350001Y-80275000D01*
G75*
G02*
X38600000Y-80524999I0J-249999D01*
G01*
X38600000Y-81325001D01*
G75*
G02*
X38350001Y-81575000I-249999J0D01*
G01*
G37*
%TD*%
%TO.C,R27*%
G36*
G01*
X33950001Y-77125000D02*
X31049999Y-77125000D01*
G75*
G02*
X30800000Y-76875001I0J249999D01*
G01*
X30800000Y-76074999D01*
G75*
G02*
X31049999Y-75825000I249999J0D01*
G01*
X33950001Y-75825000D01*
G75*
G02*
X34200000Y-76074999I0J-249999D01*
G01*
X34200000Y-76875001D01*
G75*
G02*
X33950001Y-77125000I-249999J0D01*
G01*
G37*
G36*
G01*
X33950001Y-81575000D02*
X31049999Y-81575000D01*
G75*
G02*
X30800000Y-81325001I0J249999D01*
G01*
X30800000Y-80524999D01*
G75*
G02*
X31049999Y-80275000I249999J0D01*
G01*
X33950001Y-80275000D01*
G75*
G02*
X34200000Y-80524999I0J-249999D01*
G01*
X34200000Y-81325001D01*
G75*
G02*
X33950001Y-81575000I-249999J0D01*
G01*
G37*
%TD*%
%TO.C,R26*%
G36*
G01*
X47049999Y-80175000D02*
X49950001Y-80175000D01*
G75*
G02*
X50200000Y-80424999I0J-249999D01*
G01*
X50200000Y-81225001D01*
G75*
G02*
X49950001Y-81475000I-249999J0D01*
G01*
X47049999Y-81475000D01*
G75*
G02*
X46800000Y-81225001I0J249999D01*
G01*
X46800000Y-80424999D01*
G75*
G02*
X47049999Y-80175000I249999J0D01*
G01*
G37*
G36*
G01*
X47049999Y-75725000D02*
X49950001Y-75725000D01*
G75*
G02*
X50200000Y-75974999I0J-249999D01*
G01*
X50200000Y-76775001D01*
G75*
G02*
X49950001Y-77025000I-249999J0D01*
G01*
X47049999Y-77025000D01*
G75*
G02*
X46800000Y-76775001I0J249999D01*
G01*
X46800000Y-75974999D01*
G75*
G02*
X47049999Y-75725000I249999J0D01*
G01*
G37*
%TD*%
%TO.C,R25*%
G36*
G01*
X44350001Y-77025000D02*
X41449999Y-77025000D01*
G75*
G02*
X41200000Y-76775001I0J249999D01*
G01*
X41200000Y-75974999D01*
G75*
G02*
X41449999Y-75725000I249999J0D01*
G01*
X44350001Y-75725000D01*
G75*
G02*
X44600000Y-75974999I0J-249999D01*
G01*
X44600000Y-76775001D01*
G75*
G02*
X44350001Y-77025000I-249999J0D01*
G01*
G37*
G36*
G01*
X44350001Y-81475000D02*
X41449999Y-81475000D01*
G75*
G02*
X41200000Y-81225001I0J249999D01*
G01*
X41200000Y-80424999D01*
G75*
G02*
X41449999Y-80175000I249999J0D01*
G01*
X44350001Y-80175000D01*
G75*
G02*
X44600000Y-80424999I0J-249999D01*
G01*
X44600000Y-81225001D01*
G75*
G02*
X44350001Y-81475000I-249999J0D01*
G01*
G37*
%TD*%
%TO.C,R24*%
G36*
G01*
X35449999Y-86975000D02*
X38350001Y-86975000D01*
G75*
G02*
X38600000Y-87224999I0J-249999D01*
G01*
X38600000Y-88025001D01*
G75*
G02*
X38350001Y-88275000I-249999J0D01*
G01*
X35449999Y-88275000D01*
G75*
G02*
X35200000Y-88025001I0J249999D01*
G01*
X35200000Y-87224999D01*
G75*
G02*
X35449999Y-86975000I249999J0D01*
G01*
G37*
G36*
G01*
X35449999Y-82525000D02*
X38350001Y-82525000D01*
G75*
G02*
X38600000Y-82774999I0J-249999D01*
G01*
X38600000Y-83575001D01*
G75*
G02*
X38350001Y-83825000I-249999J0D01*
G01*
X35449999Y-83825000D01*
G75*
G02*
X35200000Y-83575001I0J249999D01*
G01*
X35200000Y-82774999D01*
G75*
G02*
X35449999Y-82525000I249999J0D01*
G01*
G37*
%TD*%
%TO.C,R23*%
G36*
G01*
X92600001Y-46105000D02*
X89699999Y-46105000D01*
G75*
G02*
X89450000Y-45855001I0J249999D01*
G01*
X89450000Y-45054999D01*
G75*
G02*
X89699999Y-44805000I249999J0D01*
G01*
X92600001Y-44805000D01*
G75*
G02*
X92850000Y-45054999I0J-249999D01*
G01*
X92850000Y-45855001D01*
G75*
G02*
X92600001Y-46105000I-249999J0D01*
G01*
G37*
G36*
G01*
X92600001Y-50555000D02*
X89699999Y-50555000D01*
G75*
G02*
X89450000Y-50305001I0J249999D01*
G01*
X89450000Y-49504999D01*
G75*
G02*
X89699999Y-49255000I249999J0D01*
G01*
X92600001Y-49255000D01*
G75*
G02*
X92850000Y-49504999I0J-249999D01*
G01*
X92850000Y-50305001D01*
G75*
G02*
X92600001Y-50555000I-249999J0D01*
G01*
G37*
%TD*%
%TO.C,R22*%
G36*
G01*
X86980001Y-46105000D02*
X84079999Y-46105000D01*
G75*
G02*
X83830000Y-45855001I0J249999D01*
G01*
X83830000Y-45054999D01*
G75*
G02*
X84079999Y-44805000I249999J0D01*
G01*
X86980001Y-44805000D01*
G75*
G02*
X87230000Y-45054999I0J-249999D01*
G01*
X87230000Y-45855001D01*
G75*
G02*
X86980001Y-46105000I-249999J0D01*
G01*
G37*
G36*
G01*
X86980001Y-50555000D02*
X84079999Y-50555000D01*
G75*
G02*
X83830000Y-50305001I0J249999D01*
G01*
X83830000Y-49504999D01*
G75*
G02*
X84079999Y-49255000I249999J0D01*
G01*
X86980001Y-49255000D01*
G75*
G02*
X87230000Y-49504999I0J-249999D01*
G01*
X87230000Y-50305001D01*
G75*
G02*
X86980001Y-50555000I-249999J0D01*
G01*
G37*
%TD*%
%TO.C,R21*%
G36*
G01*
X81360001Y-46105000D02*
X78459999Y-46105000D01*
G75*
G02*
X78210000Y-45855001I0J249999D01*
G01*
X78210000Y-45054999D01*
G75*
G02*
X78459999Y-44805000I249999J0D01*
G01*
X81360001Y-44805000D01*
G75*
G02*
X81610000Y-45054999I0J-249999D01*
G01*
X81610000Y-45855001D01*
G75*
G02*
X81360001Y-46105000I-249999J0D01*
G01*
G37*
G36*
G01*
X81360001Y-50555000D02*
X78459999Y-50555000D01*
G75*
G02*
X78210000Y-50305001I0J249999D01*
G01*
X78210000Y-49504999D01*
G75*
G02*
X78459999Y-49255000I249999J0D01*
G01*
X81360001Y-49255000D01*
G75*
G02*
X81610000Y-49504999I0J-249999D01*
G01*
X81610000Y-50305001D01*
G75*
G02*
X81360001Y-50555000I-249999J0D01*
G01*
G37*
%TD*%
D10*
%TO.C,L1*%
X51730000Y-55830000D03*
X51730000Y-65730000D03*
%TD*%
D11*
%TO.C,L2*%
X77460000Y-60780000D03*
X77460000Y-68580000D03*
%TD*%
%TO.C,C4*%
G36*
G01*
X70240000Y-69430002D02*
X70240000Y-66529998D01*
G75*
G02*
X70489998Y-66280000I249998J0D01*
G01*
X71565002Y-66280000D01*
G75*
G02*
X71815000Y-66529998I0J-249998D01*
G01*
X71815000Y-69430002D01*
G75*
G02*
X71565002Y-69680000I-249998J0D01*
G01*
X70489998Y-69680000D01*
G75*
G02*
X70240000Y-69430002I0J249998D01*
G01*
G37*
G36*
G01*
X65965000Y-69430002D02*
X65965000Y-66529998D01*
G75*
G02*
X66214998Y-66280000I249998J0D01*
G01*
X67290002Y-66280000D01*
G75*
G02*
X67540000Y-66529998I0J-249998D01*
G01*
X67540000Y-69430002D01*
G75*
G02*
X67290002Y-69680000I-249998J0D01*
G01*
X66214998Y-69680000D01*
G75*
G02*
X65965000Y-69430002I0J249998D01*
G01*
G37*
%TD*%
D12*
%TO.C,U8*%
X68550000Y-60150000D03*
X67600000Y-60150000D03*
X66650000Y-60150000D03*
X66650000Y-57530000D03*
X67600000Y-57530000D03*
X68550000Y-57530000D03*
%TD*%
%TO.C,R20*%
G36*
G01*
X47815836Y-45887520D02*
X44915834Y-45887520D01*
G75*
G02*
X44665835Y-45637521I0J249999D01*
G01*
X44665835Y-44837519D01*
G75*
G02*
X44915834Y-44587520I249999J0D01*
G01*
X47815836Y-44587520D01*
G75*
G02*
X48065835Y-44837519I0J-249999D01*
G01*
X48065835Y-45637521D01*
G75*
G02*
X47815836Y-45887520I-249999J0D01*
G01*
G37*
G36*
G01*
X47815836Y-50337520D02*
X44915834Y-50337520D01*
G75*
G02*
X44665835Y-50087521I0J249999D01*
G01*
X44665835Y-49287519D01*
G75*
G02*
X44915834Y-49037520I249999J0D01*
G01*
X47815836Y-49037520D01*
G75*
G02*
X48065835Y-49287519I0J-249999D01*
G01*
X48065835Y-50087521D01*
G75*
G02*
X47815836Y-50337520I-249999J0D01*
G01*
G37*
%TD*%
%TO.C,R19*%
G36*
G01*
X52296669Y-45887520D02*
X49396667Y-45887520D01*
G75*
G02*
X49146668Y-45637521I0J249999D01*
G01*
X49146668Y-44837519D01*
G75*
G02*
X49396667Y-44587520I249999J0D01*
G01*
X52296669Y-44587520D01*
G75*
G02*
X52546668Y-44837519I0J-249999D01*
G01*
X52546668Y-45637521D01*
G75*
G02*
X52296669Y-45887520I-249999J0D01*
G01*
G37*
G36*
G01*
X52296669Y-50337520D02*
X49396667Y-50337520D01*
G75*
G02*
X49146668Y-50087521I0J249999D01*
G01*
X49146668Y-49287519D01*
G75*
G02*
X49396667Y-49037520I249999J0D01*
G01*
X52296669Y-49037520D01*
G75*
G02*
X52546668Y-49287519I0J-249999D01*
G01*
X52546668Y-50087521D01*
G75*
G02*
X52296669Y-50337520I-249999J0D01*
G01*
G37*
%TD*%
%TO.C,R18*%
G36*
G01*
X56777502Y-45887520D02*
X53877500Y-45887520D01*
G75*
G02*
X53627501Y-45637521I0J249999D01*
G01*
X53627501Y-44837519D01*
G75*
G02*
X53877500Y-44587520I249999J0D01*
G01*
X56777502Y-44587520D01*
G75*
G02*
X57027501Y-44837519I0J-249999D01*
G01*
X57027501Y-45637521D01*
G75*
G02*
X56777502Y-45887520I-249999J0D01*
G01*
G37*
G36*
G01*
X56777502Y-50337520D02*
X53877500Y-50337520D01*
G75*
G02*
X53627501Y-50087521I0J249999D01*
G01*
X53627501Y-49287519D01*
G75*
G02*
X53877500Y-49037520I249999J0D01*
G01*
X56777502Y-49037520D01*
G75*
G02*
X57027501Y-49287519I0J-249999D01*
G01*
X57027501Y-50087521D01*
G75*
G02*
X56777502Y-50337520I-249999J0D01*
G01*
G37*
%TD*%
%TO.C,R17*%
G36*
G01*
X61258335Y-45887520D02*
X58358333Y-45887520D01*
G75*
G02*
X58108334Y-45637521I0J249999D01*
G01*
X58108334Y-44837519D01*
G75*
G02*
X58358333Y-44587520I249999J0D01*
G01*
X61258335Y-44587520D01*
G75*
G02*
X61508334Y-44837519I0J-249999D01*
G01*
X61508334Y-45637521D01*
G75*
G02*
X61258335Y-45887520I-249999J0D01*
G01*
G37*
G36*
G01*
X61258335Y-50337520D02*
X58358333Y-50337520D01*
G75*
G02*
X58108334Y-50087521I0J249999D01*
G01*
X58108334Y-49287519D01*
G75*
G02*
X58358333Y-49037520I249999J0D01*
G01*
X61258335Y-49037520D01*
G75*
G02*
X61508334Y-49287519I0J-249999D01*
G01*
X61508334Y-50087521D01*
G75*
G02*
X61258335Y-50337520I-249999J0D01*
G01*
G37*
%TD*%
%TO.C,R16*%
G36*
G01*
X65739168Y-45887520D02*
X62839166Y-45887520D01*
G75*
G02*
X62589167Y-45637521I0J249999D01*
G01*
X62589167Y-44837519D01*
G75*
G02*
X62839166Y-44587520I249999J0D01*
G01*
X65739168Y-44587520D01*
G75*
G02*
X65989167Y-44837519I0J-249999D01*
G01*
X65989167Y-45637521D01*
G75*
G02*
X65739168Y-45887520I-249999J0D01*
G01*
G37*
G36*
G01*
X65739168Y-50337520D02*
X62839166Y-50337520D01*
G75*
G02*
X62589167Y-50087521I0J249999D01*
G01*
X62589167Y-49287519D01*
G75*
G02*
X62839166Y-49037520I249999J0D01*
G01*
X65739168Y-49037520D01*
G75*
G02*
X65989167Y-49287519I0J-249999D01*
G01*
X65989167Y-50087521D01*
G75*
G02*
X65739168Y-50337520I-249999J0D01*
G01*
G37*
%TD*%
%TO.C,R15*%
G36*
G01*
X70220001Y-45885000D02*
X67319999Y-45885000D01*
G75*
G02*
X67070000Y-45635001I0J249999D01*
G01*
X67070000Y-44834999D01*
G75*
G02*
X67319999Y-44585000I249999J0D01*
G01*
X70220001Y-44585000D01*
G75*
G02*
X70470000Y-44834999I0J-249999D01*
G01*
X70470000Y-45635001D01*
G75*
G02*
X70220001Y-45885000I-249999J0D01*
G01*
G37*
G36*
G01*
X70220001Y-50335000D02*
X67319999Y-50335000D01*
G75*
G02*
X67070000Y-50085001I0J249999D01*
G01*
X67070000Y-49284999D01*
G75*
G02*
X67319999Y-49035000I249999J0D01*
G01*
X70220001Y-49035000D01*
G75*
G02*
X70470000Y-49284999I0J-249999D01*
G01*
X70470000Y-50085001D01*
G75*
G02*
X70220001Y-50335000I-249999J0D01*
G01*
G37*
%TD*%
%TO.C,R14*%
G36*
G01*
X56975000Y-81850001D02*
X56975000Y-78949999D01*
G75*
G02*
X57224999Y-78700000I249999J0D01*
G01*
X58025001Y-78700000D01*
G75*
G02*
X58275000Y-78949999I0J-249999D01*
G01*
X58275000Y-81850001D01*
G75*
G02*
X58025001Y-82100000I-249999J0D01*
G01*
X57224999Y-82100000D01*
G75*
G02*
X56975000Y-81850001I0J249999D01*
G01*
G37*
G36*
G01*
X52525000Y-81850001D02*
X52525000Y-78949999D01*
G75*
G02*
X52774999Y-78700000I249999J0D01*
G01*
X53575001Y-78700000D01*
G75*
G02*
X53825000Y-78949999I0J-249999D01*
G01*
X53825000Y-81850001D01*
G75*
G02*
X53575001Y-82100000I-249999J0D01*
G01*
X52774999Y-82100000D01*
G75*
G02*
X52525000Y-81850001I0J249999D01*
G01*
G37*
%TD*%
%TO.C,R13*%
G36*
G01*
X59749999Y-88275000D02*
X62650001Y-88275000D01*
G75*
G02*
X62900000Y-88524999I0J-249999D01*
G01*
X62900000Y-89325001D01*
G75*
G02*
X62650001Y-89575000I-249999J0D01*
G01*
X59749999Y-89575000D01*
G75*
G02*
X59500000Y-89325001I0J249999D01*
G01*
X59500000Y-88524999D01*
G75*
G02*
X59749999Y-88275000I249999J0D01*
G01*
G37*
G36*
G01*
X59749999Y-83825000D02*
X62650001Y-83825000D01*
G75*
G02*
X62900000Y-84074999I0J-249999D01*
G01*
X62900000Y-84875001D01*
G75*
G02*
X62650001Y-85125000I-249999J0D01*
G01*
X59749999Y-85125000D01*
G75*
G02*
X59500000Y-84875001I0J249999D01*
G01*
X59500000Y-84074999D01*
G75*
G02*
X59749999Y-83825000I249999J0D01*
G01*
G37*
%TD*%
%TO.C,R12*%
G36*
G01*
X63849999Y-88275000D02*
X66750001Y-88275000D01*
G75*
G02*
X67000000Y-88524999I0J-249999D01*
G01*
X67000000Y-89325001D01*
G75*
G02*
X66750001Y-89575000I-249999J0D01*
G01*
X63849999Y-89575000D01*
G75*
G02*
X63600000Y-89325001I0J249999D01*
G01*
X63600000Y-88524999D01*
G75*
G02*
X63849999Y-88275000I249999J0D01*
G01*
G37*
G36*
G01*
X63849999Y-83825000D02*
X66750001Y-83825000D01*
G75*
G02*
X67000000Y-84074999I0J-249999D01*
G01*
X67000000Y-84875001D01*
G75*
G02*
X66750001Y-85125000I-249999J0D01*
G01*
X63849999Y-85125000D01*
G75*
G02*
X63600000Y-84875001I0J249999D01*
G01*
X63600000Y-84074999D01*
G75*
G02*
X63849999Y-83825000I249999J0D01*
G01*
G37*
%TD*%
%TO.C,R11*%
G36*
G01*
X66750001Y-78725000D02*
X63849999Y-78725000D01*
G75*
G02*
X63600000Y-78475001I0J249999D01*
G01*
X63600000Y-77674999D01*
G75*
G02*
X63849999Y-77425000I249999J0D01*
G01*
X66750001Y-77425000D01*
G75*
G02*
X67000000Y-77674999I0J-249999D01*
G01*
X67000000Y-78475001D01*
G75*
G02*
X66750001Y-78725000I-249999J0D01*
G01*
G37*
G36*
G01*
X66750001Y-83175000D02*
X63849999Y-83175000D01*
G75*
G02*
X63600000Y-82925001I0J249999D01*
G01*
X63600000Y-82124999D01*
G75*
G02*
X63849999Y-81875000I249999J0D01*
G01*
X66750001Y-81875000D01*
G75*
G02*
X67000000Y-82124999I0J-249999D01*
G01*
X67000000Y-82925001D01*
G75*
G02*
X66750001Y-83175000I-249999J0D01*
G01*
G37*
%TD*%
%TO.C,R10*%
G36*
G01*
X68349999Y-80175000D02*
X71250001Y-80175000D01*
G75*
G02*
X71500000Y-80424999I0J-249999D01*
G01*
X71500000Y-81225001D01*
G75*
G02*
X71250001Y-81475000I-249999J0D01*
G01*
X68349999Y-81475000D01*
G75*
G02*
X68100000Y-81225001I0J249999D01*
G01*
X68100000Y-80424999D01*
G75*
G02*
X68349999Y-80175000I249999J0D01*
G01*
G37*
G36*
G01*
X68349999Y-75725000D02*
X71250001Y-75725000D01*
G75*
G02*
X71500000Y-75974999I0J-249999D01*
G01*
X71500000Y-76775001D01*
G75*
G02*
X71250001Y-77025000I-249999J0D01*
G01*
X68349999Y-77025000D01*
G75*
G02*
X68100000Y-76775001I0J249999D01*
G01*
X68100000Y-75974999D01*
G75*
G02*
X68349999Y-75725000I249999J0D01*
G01*
G37*
%TD*%
%TO.C,R9*%
G36*
G01*
X76050001Y-77025000D02*
X73149999Y-77025000D01*
G75*
G02*
X72900000Y-76775001I0J249999D01*
G01*
X72900000Y-75974999D01*
G75*
G02*
X73149999Y-75725000I249999J0D01*
G01*
X76050001Y-75725000D01*
G75*
G02*
X76300000Y-75974999I0J-249999D01*
G01*
X76300000Y-76775001D01*
G75*
G02*
X76050001Y-77025000I-249999J0D01*
G01*
G37*
G36*
G01*
X76050001Y-81475000D02*
X73149999Y-81475000D01*
G75*
G02*
X72900000Y-81225001I0J249999D01*
G01*
X72900000Y-80424999D01*
G75*
G02*
X73149999Y-80175000I249999J0D01*
G01*
X76050001Y-80175000D01*
G75*
G02*
X76300000Y-80424999I0J-249999D01*
G01*
X76300000Y-81225001D01*
G75*
G02*
X76050001Y-81475000I-249999J0D01*
G01*
G37*
%TD*%
%TO.C,R8*%
G36*
G01*
X62650001Y-78725000D02*
X59749999Y-78725000D01*
G75*
G02*
X59500000Y-78475001I0J249999D01*
G01*
X59500000Y-77674999D01*
G75*
G02*
X59749999Y-77425000I249999J0D01*
G01*
X62650001Y-77425000D01*
G75*
G02*
X62900000Y-77674999I0J-249999D01*
G01*
X62900000Y-78475001D01*
G75*
G02*
X62650001Y-78725000I-249999J0D01*
G01*
G37*
G36*
G01*
X62650001Y-83175000D02*
X59749999Y-83175000D01*
G75*
G02*
X59500000Y-82925001I0J249999D01*
G01*
X59500000Y-82124999D01*
G75*
G02*
X59749999Y-81875000I249999J0D01*
G01*
X62650001Y-81875000D01*
G75*
G02*
X62900000Y-82124999I0J-249999D01*
G01*
X62900000Y-82925001D01*
G75*
G02*
X62650001Y-83175000I-249999J0D01*
G01*
G37*
%TD*%
%TO.C,R7*%
G36*
G01*
X78265000Y-94710001D02*
X78265000Y-91809999D01*
G75*
G02*
X78514999Y-91560000I249999J0D01*
G01*
X79315001Y-91560000D01*
G75*
G02*
X79565000Y-91809999I0J-249999D01*
G01*
X79565000Y-94710001D01*
G75*
G02*
X79315001Y-94960000I-249999J0D01*
G01*
X78514999Y-94960000D01*
G75*
G02*
X78265000Y-94710001I0J249999D01*
G01*
G37*
G36*
G01*
X73815000Y-94710001D02*
X73815000Y-91809999D01*
G75*
G02*
X74064999Y-91560000I249999J0D01*
G01*
X74865001Y-91560000D01*
G75*
G02*
X75115000Y-91809999I0J-249999D01*
G01*
X75115000Y-94710001D01*
G75*
G02*
X74865001Y-94960000I-249999J0D01*
G01*
X74064999Y-94960000D01*
G75*
G02*
X73815000Y-94710001I0J249999D01*
G01*
G37*
%TD*%
%TO.C,R6*%
G36*
G01*
X77325000Y-87149999D02*
X77325000Y-90050001D01*
G75*
G02*
X77075001Y-90300000I-249999J0D01*
G01*
X76274999Y-90300000D01*
G75*
G02*
X76025000Y-90050001I0J249999D01*
G01*
X76025000Y-87149999D01*
G75*
G02*
X76274999Y-86900000I249999J0D01*
G01*
X77075001Y-86900000D01*
G75*
G02*
X77325000Y-87149999I0J-249999D01*
G01*
G37*
G36*
G01*
X81775000Y-87149999D02*
X81775000Y-90050001D01*
G75*
G02*
X81525001Y-90300000I-249999J0D01*
G01*
X80724999Y-90300000D01*
G75*
G02*
X80475000Y-90050001I0J249999D01*
G01*
X80475000Y-87149999D01*
G75*
G02*
X80724999Y-86900000I249999J0D01*
G01*
X81525001Y-86900000D01*
G75*
G02*
X81775000Y-87149999I0J-249999D01*
G01*
G37*
%TD*%
%TO.C,R5*%
G36*
G01*
X80445000Y-85870001D02*
X80445000Y-82969999D01*
G75*
G02*
X80694999Y-82720000I249999J0D01*
G01*
X81495001Y-82720000D01*
G75*
G02*
X81745000Y-82969999I0J-249999D01*
G01*
X81745000Y-85870001D01*
G75*
G02*
X81495001Y-86120000I-249999J0D01*
G01*
X80694999Y-86120000D01*
G75*
G02*
X80445000Y-85870001I0J249999D01*
G01*
G37*
G36*
G01*
X75995000Y-85870001D02*
X75995000Y-82969999D01*
G75*
G02*
X76244999Y-82720000I249999J0D01*
G01*
X77045001Y-82720000D01*
G75*
G02*
X77295000Y-82969999I0J-249999D01*
G01*
X77295000Y-85870001D01*
G75*
G02*
X77045001Y-86120000I-249999J0D01*
G01*
X76244999Y-86120000D01*
G75*
G02*
X75995000Y-85870001I0J249999D01*
G01*
G37*
%TD*%
%TO.C,R4*%
G36*
G01*
X145039999Y-91795000D02*
X147940001Y-91795000D01*
G75*
G02*
X148190000Y-92044999I0J-249999D01*
G01*
X148190000Y-92845001D01*
G75*
G02*
X147940001Y-93095000I-249999J0D01*
G01*
X145039999Y-93095000D01*
G75*
G02*
X144790000Y-92845001I0J249999D01*
G01*
X144790000Y-92044999D01*
G75*
G02*
X145039999Y-91795000I249999J0D01*
G01*
G37*
G36*
G01*
X145039999Y-87345000D02*
X147940001Y-87345000D01*
G75*
G02*
X148190000Y-87594999I0J-249999D01*
G01*
X148190000Y-88395001D01*
G75*
G02*
X147940001Y-88645000I-249999J0D01*
G01*
X145039999Y-88645000D01*
G75*
G02*
X144790000Y-88395001I0J249999D01*
G01*
X144790000Y-87594999D01*
G75*
G02*
X145039999Y-87345000I249999J0D01*
G01*
G37*
%TD*%
%TO.C,R3*%
G36*
G01*
X118639999Y-91795000D02*
X121540001Y-91795000D01*
G75*
G02*
X121790000Y-92044999I0J-249999D01*
G01*
X121790000Y-92845001D01*
G75*
G02*
X121540001Y-93095000I-249999J0D01*
G01*
X118639999Y-93095000D01*
G75*
G02*
X118390000Y-92845001I0J249999D01*
G01*
X118390000Y-92044999D01*
G75*
G02*
X118639999Y-91795000I249999J0D01*
G01*
G37*
G36*
G01*
X118639999Y-87345000D02*
X121540001Y-87345000D01*
G75*
G02*
X121790000Y-87594999I0J-249999D01*
G01*
X121790000Y-88395001D01*
G75*
G02*
X121540001Y-88645000I-249999J0D01*
G01*
X118639999Y-88645000D01*
G75*
G02*
X118390000Y-88395001I0J249999D01*
G01*
X118390000Y-87594999D01*
G75*
G02*
X118639999Y-87345000I249999J0D01*
G01*
G37*
%TD*%
%TO.C,R2*%
G36*
G01*
X121540001Y-42535000D02*
X118639999Y-42535000D01*
G75*
G02*
X118390000Y-42285001I0J249999D01*
G01*
X118390000Y-41484999D01*
G75*
G02*
X118639999Y-41235000I249999J0D01*
G01*
X121540001Y-41235000D01*
G75*
G02*
X121790000Y-41484999I0J-249999D01*
G01*
X121790000Y-42285001D01*
G75*
G02*
X121540001Y-42535000I-249999J0D01*
G01*
G37*
G36*
G01*
X121540001Y-46985000D02*
X118639999Y-46985000D01*
G75*
G02*
X118390000Y-46735001I0J249999D01*
G01*
X118390000Y-45934999D01*
G75*
G02*
X118639999Y-45685000I249999J0D01*
G01*
X121540001Y-45685000D01*
G75*
G02*
X121790000Y-45934999I0J-249999D01*
G01*
X121790000Y-46735001D01*
G75*
G02*
X121540001Y-46985000I-249999J0D01*
G01*
G37*
%TD*%
%TO.C,R1*%
G36*
G01*
X147940001Y-42535000D02*
X145039999Y-42535000D01*
G75*
G02*
X144790000Y-42285001I0J249999D01*
G01*
X144790000Y-41484999D01*
G75*
G02*
X145039999Y-41235000I249999J0D01*
G01*
X147940001Y-41235000D01*
G75*
G02*
X148190000Y-41484999I0J-249999D01*
G01*
X148190000Y-42285001D01*
G75*
G02*
X147940001Y-42535000I-249999J0D01*
G01*
G37*
G36*
G01*
X147940001Y-46985000D02*
X145039999Y-46985000D01*
G75*
G02*
X144790000Y-46735001I0J249999D01*
G01*
X144790000Y-45934999D01*
G75*
G02*
X145039999Y-45685000I249999J0D01*
G01*
X147940001Y-45685000D01*
G75*
G02*
X148190000Y-45934999I0J-249999D01*
G01*
X148190000Y-46735001D01*
G75*
G02*
X147940001Y-46985000I-249999J0D01*
G01*
G37*
%TD*%
%TO.C,U6*%
G36*
G01*
X73305000Y-88260000D02*
X73605000Y-88260000D01*
G75*
G02*
X73755000Y-88410000I0J-150000D01*
G01*
X73755000Y-90060000D01*
G75*
G02*
X73605000Y-90210000I-150000J0D01*
G01*
X73305000Y-90210000D01*
G75*
G02*
X73155000Y-90060000I0J150000D01*
G01*
X73155000Y-88410000D01*
G75*
G02*
X73305000Y-88260000I150000J0D01*
G01*
G37*
G36*
G01*
X72035000Y-88260000D02*
X72335000Y-88260000D01*
G75*
G02*
X72485000Y-88410000I0J-150000D01*
G01*
X72485000Y-90060000D01*
G75*
G02*
X72335000Y-90210000I-150000J0D01*
G01*
X72035000Y-90210000D01*
G75*
G02*
X71885000Y-90060000I0J150000D01*
G01*
X71885000Y-88410000D01*
G75*
G02*
X72035000Y-88260000I150000J0D01*
G01*
G37*
G36*
G01*
X70765000Y-88260000D02*
X71065000Y-88260000D01*
G75*
G02*
X71215000Y-88410000I0J-150000D01*
G01*
X71215000Y-90060000D01*
G75*
G02*
X71065000Y-90210000I-150000J0D01*
G01*
X70765000Y-90210000D01*
G75*
G02*
X70615000Y-90060000I0J150000D01*
G01*
X70615000Y-88410000D01*
G75*
G02*
X70765000Y-88260000I150000J0D01*
G01*
G37*
G36*
G01*
X69495000Y-88260000D02*
X69795000Y-88260000D01*
G75*
G02*
X69945000Y-88410000I0J-150000D01*
G01*
X69945000Y-90060000D01*
G75*
G02*
X69795000Y-90210000I-150000J0D01*
G01*
X69495000Y-90210000D01*
G75*
G02*
X69345000Y-90060000I0J150000D01*
G01*
X69345000Y-88410000D01*
G75*
G02*
X69495000Y-88260000I150000J0D01*
G01*
G37*
G36*
G01*
X69495000Y-83310000D02*
X69795000Y-83310000D01*
G75*
G02*
X69945000Y-83460000I0J-150000D01*
G01*
X69945000Y-85110000D01*
G75*
G02*
X69795000Y-85260000I-150000J0D01*
G01*
X69495000Y-85260000D01*
G75*
G02*
X69345000Y-85110000I0J150000D01*
G01*
X69345000Y-83460000D01*
G75*
G02*
X69495000Y-83310000I150000J0D01*
G01*
G37*
G36*
G01*
X70765000Y-83310000D02*
X71065000Y-83310000D01*
G75*
G02*
X71215000Y-83460000I0J-150000D01*
G01*
X71215000Y-85110000D01*
G75*
G02*
X71065000Y-85260000I-150000J0D01*
G01*
X70765000Y-85260000D01*
G75*
G02*
X70615000Y-85110000I0J150000D01*
G01*
X70615000Y-83460000D01*
G75*
G02*
X70765000Y-83310000I150000J0D01*
G01*
G37*
G36*
G01*
X72035000Y-83310000D02*
X72335000Y-83310000D01*
G75*
G02*
X72485000Y-83460000I0J-150000D01*
G01*
X72485000Y-85110000D01*
G75*
G02*
X72335000Y-85260000I-150000J0D01*
G01*
X72035000Y-85260000D01*
G75*
G02*
X71885000Y-85110000I0J150000D01*
G01*
X71885000Y-83460000D01*
G75*
G02*
X72035000Y-83310000I150000J0D01*
G01*
G37*
G36*
G01*
X73305000Y-83310000D02*
X73605000Y-83310000D01*
G75*
G02*
X73755000Y-83460000I0J-150000D01*
G01*
X73755000Y-85110000D01*
G75*
G02*
X73605000Y-85260000I-150000J0D01*
G01*
X73305000Y-85260000D01*
G75*
G02*
X73155000Y-85110000I0J150000D01*
G01*
X73155000Y-83460000D01*
G75*
G02*
X73305000Y-83310000I150000J0D01*
G01*
G37*
%TD*%
D13*
%TO.C,Q6*%
X40260000Y-39790000D03*
X41210000Y-41790000D03*
X39310000Y-41790000D03*
%TD*%
%TO.C,Q5*%
X45340000Y-39790000D03*
X46290000Y-41790000D03*
X44390000Y-41790000D03*
%TD*%
%TO.C,Q4*%
X50420000Y-39790000D03*
X51370000Y-41790000D03*
X49470000Y-41790000D03*
%TD*%
%TO.C,Q3*%
X55500000Y-39790000D03*
X56450000Y-41790000D03*
X54550000Y-41790000D03*
%TD*%
%TO.C,Q2*%
X60580000Y-39790000D03*
X61530000Y-41790000D03*
X59630000Y-41790000D03*
%TD*%
%TO.C,Q1*%
X65660000Y-39790000D03*
X66610000Y-41790000D03*
X64710000Y-41790000D03*
%TD*%
%TO.C,U7*%
G36*
G01*
X57455000Y-88500000D02*
X57755000Y-88500000D01*
G75*
G02*
X57905000Y-88650000I0J-150000D01*
G01*
X57905000Y-90100000D01*
G75*
G02*
X57755000Y-90250000I-150000J0D01*
G01*
X57455000Y-90250000D01*
G75*
G02*
X57305000Y-90100000I0J150000D01*
G01*
X57305000Y-88650000D01*
G75*
G02*
X57455000Y-88500000I150000J0D01*
G01*
G37*
G36*
G01*
X56185000Y-88500000D02*
X56485000Y-88500000D01*
G75*
G02*
X56635000Y-88650000I0J-150000D01*
G01*
X56635000Y-90100000D01*
G75*
G02*
X56485000Y-90250000I-150000J0D01*
G01*
X56185000Y-90250000D01*
G75*
G02*
X56035000Y-90100000I0J150000D01*
G01*
X56035000Y-88650000D01*
G75*
G02*
X56185000Y-88500000I150000J0D01*
G01*
G37*
G36*
G01*
X54915000Y-88500000D02*
X55215000Y-88500000D01*
G75*
G02*
X55365000Y-88650000I0J-150000D01*
G01*
X55365000Y-90100000D01*
G75*
G02*
X55215000Y-90250000I-150000J0D01*
G01*
X54915000Y-90250000D01*
G75*
G02*
X54765000Y-90100000I0J150000D01*
G01*
X54765000Y-88650000D01*
G75*
G02*
X54915000Y-88500000I150000J0D01*
G01*
G37*
G36*
G01*
X53645000Y-88500000D02*
X53945000Y-88500000D01*
G75*
G02*
X54095000Y-88650000I0J-150000D01*
G01*
X54095000Y-90100000D01*
G75*
G02*
X53945000Y-90250000I-150000J0D01*
G01*
X53645000Y-90250000D01*
G75*
G02*
X53495000Y-90100000I0J150000D01*
G01*
X53495000Y-88650000D01*
G75*
G02*
X53645000Y-88500000I150000J0D01*
G01*
G37*
G36*
G01*
X53645000Y-83350000D02*
X53945000Y-83350000D01*
G75*
G02*
X54095000Y-83500000I0J-150000D01*
G01*
X54095000Y-84950000D01*
G75*
G02*
X53945000Y-85100000I-150000J0D01*
G01*
X53645000Y-85100000D01*
G75*
G02*
X53495000Y-84950000I0J150000D01*
G01*
X53495000Y-83500000D01*
G75*
G02*
X53645000Y-83350000I150000J0D01*
G01*
G37*
G36*
G01*
X54915000Y-83350000D02*
X55215000Y-83350000D01*
G75*
G02*
X55365000Y-83500000I0J-150000D01*
G01*
X55365000Y-84950000D01*
G75*
G02*
X55215000Y-85100000I-150000J0D01*
G01*
X54915000Y-85100000D01*
G75*
G02*
X54765000Y-84950000I0J150000D01*
G01*
X54765000Y-83500000D01*
G75*
G02*
X54915000Y-83350000I150000J0D01*
G01*
G37*
G36*
G01*
X56185000Y-83350000D02*
X56485000Y-83350000D01*
G75*
G02*
X56635000Y-83500000I0J-150000D01*
G01*
X56635000Y-84950000D01*
G75*
G02*
X56485000Y-85100000I-150000J0D01*
G01*
X56185000Y-85100000D01*
G75*
G02*
X56035000Y-84950000I0J150000D01*
G01*
X56035000Y-83500000D01*
G75*
G02*
X56185000Y-83350000I150000J0D01*
G01*
G37*
G36*
G01*
X57455000Y-83350000D02*
X57755000Y-83350000D01*
G75*
G02*
X57905000Y-83500000I0J-150000D01*
G01*
X57905000Y-84950000D01*
G75*
G02*
X57755000Y-85100000I-150000J0D01*
G01*
X57455000Y-85100000D01*
G75*
G02*
X57305000Y-84950000I0J150000D01*
G01*
X57305000Y-83500000D01*
G75*
G02*
X57455000Y-83350000I150000J0D01*
G01*
G37*
%TD*%
D14*
%TO.C,U5*%
X34250000Y-53665000D03*
X29400000Y-59215000D03*
X34250000Y-59215000D03*
X29400000Y-53665000D03*
D15*
X40975000Y-53040000D03*
X40975000Y-54740000D03*
X40975000Y-56440000D03*
X40975000Y-58140000D03*
X40975000Y-59840000D03*
%TD*%
D16*
%TO.C,D1*%
X38690000Y-66420000D03*
X41990000Y-66420000D03*
%TD*%
M02*
