%TF.GenerationSoftware,KiCad,Pcbnew,(5.1.12)-1*%
%TF.CreationDate,2023-04-30T22:07:06+02:00*%
%TF.ProjectId,roomcontroller,726f6f6d-636f-46e7-9472-6f6c6c65722e,rev?*%
%TF.SameCoordinates,Original*%
%TF.FileFunction,Paste,Bot*%
%TF.FilePolarity,Positive*%
%FSLAX46Y46*%
G04 Gerber Fmt 4.6, Leading zero omitted, Abs format (unit mm)*
G04 Created by KiCad (PCBNEW (5.1.12)-1) date 2023-04-30 22:07:06*
%MOMM*%
%LPD*%
G01*
G04 APERTURE LIST*
G04 APERTURE END LIST*
%TO.C,R34*%
G36*
G01*
X52850000Y-102175000D02*
X55750000Y-102175000D01*
G75*
G02*
X56000000Y-102425000I0J-250000D01*
G01*
X56000000Y-103225000D01*
G75*
G02*
X55750000Y-103475000I-250000J0D01*
G01*
X52850000Y-103475000D01*
G75*
G02*
X52600000Y-103225000I0J250000D01*
G01*
X52600000Y-102425000D01*
G75*
G02*
X52850000Y-102175000I250000J0D01*
G01*
G37*
G36*
G01*
X52850000Y-97725000D02*
X55750000Y-97725000D01*
G75*
G02*
X56000000Y-97975000I0J-250000D01*
G01*
X56000000Y-98775000D01*
G75*
G02*
X55750000Y-99025000I-250000J0D01*
G01*
X52850000Y-99025000D01*
G75*
G02*
X52600000Y-98775000I0J250000D01*
G01*
X52600000Y-97975000D01*
G75*
G02*
X52850000Y-97725000I250000J0D01*
G01*
G37*
%TD*%
%TO.C,R33*%
G36*
G01*
X71500000Y-90125000D02*
X68600000Y-90125000D01*
G75*
G02*
X68350000Y-89875000I0J250000D01*
G01*
X68350000Y-89075000D01*
G75*
G02*
X68600000Y-88825000I250000J0D01*
G01*
X71500000Y-88825000D01*
G75*
G02*
X71750000Y-89075000I0J-250000D01*
G01*
X71750000Y-89875000D01*
G75*
G02*
X71500000Y-90125000I-250000J0D01*
G01*
G37*
G36*
G01*
X71500000Y-94575000D02*
X68600000Y-94575000D01*
G75*
G02*
X68350000Y-94325000I0J250000D01*
G01*
X68350000Y-93525000D01*
G75*
G02*
X68600000Y-93275000I250000J0D01*
G01*
X71500000Y-93275000D01*
G75*
G02*
X71750000Y-93525000I0J-250000D01*
G01*
X71750000Y-94325000D01*
G75*
G02*
X71500000Y-94575000I-250000J0D01*
G01*
G37*
%TD*%
%TO.C,R32*%
G36*
G01*
X48675000Y-98800000D02*
X48675000Y-95900000D01*
G75*
G02*
X48925000Y-95650000I250000J0D01*
G01*
X49725000Y-95650000D01*
G75*
G02*
X49975000Y-95900000I0J-250000D01*
G01*
X49975000Y-98800000D01*
G75*
G02*
X49725000Y-99050000I-250000J0D01*
G01*
X48925000Y-99050000D01*
G75*
G02*
X48675000Y-98800000I0J250000D01*
G01*
G37*
G36*
G01*
X44225000Y-98800000D02*
X44225000Y-95900000D01*
G75*
G02*
X44475000Y-95650000I250000J0D01*
G01*
X45275000Y-95650000D01*
G75*
G02*
X45525000Y-95900000I0J-250000D01*
G01*
X45525000Y-98800000D01*
G75*
G02*
X45275000Y-99050000I-250000J0D01*
G01*
X44475000Y-99050000D01*
G75*
G02*
X44225000Y-98800000I0J250000D01*
G01*
G37*
%TD*%
%TO.C,R31*%
G36*
G01*
X60500000Y-96675000D02*
X63400000Y-96675000D01*
G75*
G02*
X63650000Y-96925000I0J-250000D01*
G01*
X63650000Y-97725000D01*
G75*
G02*
X63400000Y-97975000I-250000J0D01*
G01*
X60500000Y-97975000D01*
G75*
G02*
X60250000Y-97725000I0J250000D01*
G01*
X60250000Y-96925000D01*
G75*
G02*
X60500000Y-96675000I250000J0D01*
G01*
G37*
G36*
G01*
X60500000Y-92225000D02*
X63400000Y-92225000D01*
G75*
G02*
X63650000Y-92475000I0J-250000D01*
G01*
X63650000Y-93275000D01*
G75*
G02*
X63400000Y-93525000I-250000J0D01*
G01*
X60500000Y-93525000D01*
G75*
G02*
X60250000Y-93275000I0J250000D01*
G01*
X60250000Y-92475000D01*
G75*
G02*
X60500000Y-92225000I250000J0D01*
G01*
G37*
%TD*%
M02*
