M48
METRIC,TZ
T1C0.400
T2C0.600
T3C0.800
T4C0.890
T5C1.000
T6C1.570
T7C1.600
%
G90
G05
T1
X28400Y-52400
X28400Y-54400
X28400Y-56400
X28400Y-58400
X28400Y-60400
X30400Y-52400
X30400Y-54400
X30400Y-56400
X30400Y-58400
X30400Y-60400
X31400Y-78400
X32400Y-52400
X32400Y-54400
X32400Y-56400
X32400Y-58400
X32400Y-60400
X32400Y-70400
X34400Y-52400
X34400Y-54400
X34400Y-56400
X34400Y-58400
X34400Y-60400
X34400Y-78400
X35700Y-73750
X36800Y-70400
X50400Y-51400
X53800Y-91050
X54400Y-51400
X65695Y-75735
X68090Y-84400
X68400Y-64400
X71000Y-86200
X72400Y-86000
X74030Y-47420
X78740Y-76200
X81280Y-76200
X81700Y-80200
X86360Y-76200
X88100Y-80200
X88400Y-38400
X90400Y-40400
X91400Y-98400
X91440Y-76200
X93400Y-96400
X94000Y-56000
X95400Y-37400
X95400Y-39400
X95400Y-94400
X95400Y-99400
X96400Y-41400
X96520Y-76200
X98350Y-89925
X98370Y-87385
X98420Y-88655
X99200Y-51600
X99400Y-99400
X101600Y-76200
X103400Y-39400
X103400Y-43400
X105400Y-102400
X106680Y-76200
X108900Y-87900
X109400Y-38400
X110400Y-33400
X110400Y-95400
X110400Y-99400
X111000Y-92400
X111200Y-85400
X111760Y-76200
X112150Y-87900
X112400Y-97400
X114400Y-99400
X115400Y-33400
X119900Y-85650
X120070Y-52450
X120090Y-48190
X120400Y-33400
X120400Y-38400
X121000Y-99200
X123400Y-39400
X123400Y-47900
X123400Y-58400
X124400Y-83000
X125400Y-95400
X126400Y-58400
X127400Y-47900
X127400Y-83000
X128400Y-95400
X129400Y-58400
X131400Y-95400
X132400Y-47900
X132940Y-52290
X134400Y-57400
X134400Y-95400
X135480Y-52740
X136400Y-57400
X137400Y-47900
X137400Y-95400
X138020Y-53560
X140400Y-49400
X141150Y-98900
X142240Y-83820
X142400Y-76400
X143400Y-96400
X144400Y-77400
X144780Y-83820
X148400Y-99400
X150400Y-87400
X150400Y-88400
X150400Y-89400
X152150Y-98900
X153400Y-75600
X155400Y-92400
X155400Y-95400
X157600Y-75600
X157900Y-51470
X158400Y-99400
X159910Y-51000
X162160Y-50510
X162560Y-33020
X164150Y-102400
X167400Y-99400
X167640Y-33020
X172720Y-33020
T2
X34800Y-100100
X34800Y-101600
X48500Y-83800
X48500Y-85300
X61500Y-61840
X62200Y-55940
X62200Y-57440
X63000Y-61840
X75240Y-55920
X75240Y-57420
T3
X74560Y-42010
X79560Y-42010
X84100Y-84000
X84100Y-89000
X113070Y-41610
X113070Y-46610
X115064Y-93464
X118600Y-97000
X122360Y-65580
X122360Y-72080
X127360Y-65580
X127360Y-72080
X134860Y-65580
X134860Y-72080
X139860Y-65580
X139860Y-72080
X164170Y-41950
X164170Y-46950
X164170Y-88120
X164170Y-93120
T4
X40580Y-96170
X42870Y-96170
X43888Y-100990
X44904Y-102770
X45920Y-100990
X46936Y-102770
X47952Y-100990
X48968Y-102770
X49984Y-100990
X51000Y-102770
X52010Y-96170
X54300Y-96170
X56330Y-96170
X58620Y-96170
X59638Y-100990
X60654Y-102770
X61670Y-100990
X62686Y-102770
X63702Y-100990
X64718Y-102770
X65734Y-100990
X66750Y-102770
X67760Y-96170
X70050Y-96170
T5
X36900Y-85300
X37738Y-63078
X61200Y-86500
X65300Y-86500
X76430Y-49840
X82530Y-93070
X82530Y-95610
X82765Y-49905
X88455Y-49905
X107540Y-55750
X107540Y-81150
X110080Y-55750
X110080Y-81150
X112620Y-55750
X112620Y-81150
X115160Y-55750
X115160Y-81150
X117700Y-55750
X117700Y-81150
X120240Y-55750
X120240Y-81150
X122780Y-55750
X122780Y-81150
X125320Y-55750
X125320Y-81150
X127860Y-55750
X127860Y-81150
X130400Y-55750
X130400Y-81150
X132940Y-55750
X132940Y-81150
X135480Y-55750
X135480Y-81150
X138020Y-55750
X138020Y-81150
X140560Y-55750
X140560Y-81150
X143100Y-55750
X143100Y-81150
X145640Y-55750
X145640Y-81150
X148180Y-55750
X148180Y-81150
X150720Y-55750
X150720Y-81150
X153260Y-55750
X153260Y-81150
X157885Y-38875
T6
X39320Y-101880
X71320Y-101880
T7
X29580Y-35450
X34660Y-35450
X39740Y-35450
X44820Y-35450
X49900Y-35450
X54980Y-35450
X60060Y-35450
X65140Y-35450
X70220Y-35450
X82580Y-35450
X82580Y-101450
X87660Y-35450
X87660Y-101450
X92740Y-35450
X92740Y-101450
X97820Y-35450
X97820Y-101450
X102900Y-35450
X102900Y-101450
X107980Y-35450
X107980Y-101450
X113060Y-35450
X113060Y-101450
X118140Y-35450
X118140Y-101450
X123220Y-35450
X123220Y-101450
X135580Y-35450
X136080Y-101450
X140660Y-35450
X141160Y-101450
X145740Y-35450
X146240Y-101450
X150820Y-35450
X151320Y-101450
X155900Y-35450
X156400Y-101450
X160980Y-35450
X161480Y-101450
X166060Y-35450
X166560Y-101450
X171140Y-35450
X171640Y-101450
X176220Y-35450
X176720Y-101450
T0
M30
