%TF.GenerationSoftware,KiCad,Pcbnew,(5.1.12)-1*%
%TF.CreationDate,2023-04-30T22:07:06+02:00*%
%TF.ProjectId,roomcontroller,726f6f6d-636f-46e7-9472-6f6c6c65722e,rev?*%
%TF.SameCoordinates,Original*%
%TF.FileFunction,Legend,Bot*%
%TF.FilePolarity,Positive*%
%FSLAX46Y46*%
G04 Gerber Fmt 4.6, Leading zero omitted, Abs format (unit mm)*
G04 Created by KiCad (PCBNEW (5.1.12)-1) date 2023-04-30 22:07:06*
%MOMM*%
%LPD*%
G01*
G04 APERTURE LIST*
%ADD10C,0.120000*%
%ADD11C,0.150000*%
G04 APERTURE END LIST*
D10*
%TO.C,R34*%
X56010000Y-99213748D02*
X56010000Y-101986252D01*
X52590000Y-99213748D02*
X52590000Y-101986252D01*
%TO.C,R33*%
X68340000Y-93086252D02*
X68340000Y-90313748D01*
X71760000Y-93086252D02*
X71760000Y-90313748D01*
%TO.C,R32*%
X45713748Y-95640000D02*
X48486252Y-95640000D01*
X45713748Y-99060000D02*
X48486252Y-99060000D01*
%TO.C,R31*%
X63660000Y-93713748D02*
X63660000Y-96486252D01*
X60240000Y-93713748D02*
X60240000Y-96486252D01*
%TO.C,R34*%
D11*
X52102380Y-99957142D02*
X51626190Y-99623809D01*
X52102380Y-99385714D02*
X51102380Y-99385714D01*
X51102380Y-99766666D01*
X51150000Y-99861904D01*
X51197619Y-99909523D01*
X51292857Y-99957142D01*
X51435714Y-99957142D01*
X51530952Y-99909523D01*
X51578571Y-99861904D01*
X51626190Y-99766666D01*
X51626190Y-99385714D01*
X51102380Y-100290476D02*
X51102380Y-100909523D01*
X51483333Y-100576190D01*
X51483333Y-100719047D01*
X51530952Y-100814285D01*
X51578571Y-100861904D01*
X51673809Y-100909523D01*
X51911904Y-100909523D01*
X52007142Y-100861904D01*
X52054761Y-100814285D01*
X52102380Y-100719047D01*
X52102380Y-100433333D01*
X52054761Y-100338095D01*
X52007142Y-100290476D01*
X51435714Y-101766666D02*
X52102380Y-101766666D01*
X51054761Y-101528571D02*
X51769047Y-101290476D01*
X51769047Y-101909523D01*
%TO.C,R33*%
X73152380Y-91057142D02*
X72676190Y-90723809D01*
X73152380Y-90485714D02*
X72152380Y-90485714D01*
X72152380Y-90866666D01*
X72200000Y-90961904D01*
X72247619Y-91009523D01*
X72342857Y-91057142D01*
X72485714Y-91057142D01*
X72580952Y-91009523D01*
X72628571Y-90961904D01*
X72676190Y-90866666D01*
X72676190Y-90485714D01*
X72152380Y-91390476D02*
X72152380Y-92009523D01*
X72533333Y-91676190D01*
X72533333Y-91819047D01*
X72580952Y-91914285D01*
X72628571Y-91961904D01*
X72723809Y-92009523D01*
X72961904Y-92009523D01*
X73057142Y-91961904D01*
X73104761Y-91914285D01*
X73152380Y-91819047D01*
X73152380Y-91533333D01*
X73104761Y-91438095D01*
X73057142Y-91390476D01*
X72152380Y-92342857D02*
X72152380Y-92961904D01*
X72533333Y-92628571D01*
X72533333Y-92771428D01*
X72580952Y-92866666D01*
X72628571Y-92914285D01*
X72723809Y-92961904D01*
X72961904Y-92961904D01*
X73057142Y-92914285D01*
X73104761Y-92866666D01*
X73152380Y-92771428D01*
X73152380Y-92485714D01*
X73104761Y-92390476D01*
X73057142Y-92342857D01*
%TO.C,R32*%
X47742857Y-100452380D02*
X48076190Y-99976190D01*
X48314285Y-100452380D02*
X48314285Y-99452380D01*
X47933333Y-99452380D01*
X47838095Y-99500000D01*
X47790476Y-99547619D01*
X47742857Y-99642857D01*
X47742857Y-99785714D01*
X47790476Y-99880952D01*
X47838095Y-99928571D01*
X47933333Y-99976190D01*
X48314285Y-99976190D01*
X47409523Y-99452380D02*
X46790476Y-99452380D01*
X47123809Y-99833333D01*
X46980952Y-99833333D01*
X46885714Y-99880952D01*
X46838095Y-99928571D01*
X46790476Y-100023809D01*
X46790476Y-100261904D01*
X46838095Y-100357142D01*
X46885714Y-100404761D01*
X46980952Y-100452380D01*
X47266666Y-100452380D01*
X47361904Y-100404761D01*
X47409523Y-100357142D01*
X46409523Y-99547619D02*
X46361904Y-99500000D01*
X46266666Y-99452380D01*
X46028571Y-99452380D01*
X45933333Y-99500000D01*
X45885714Y-99547619D01*
X45838095Y-99642857D01*
X45838095Y-99738095D01*
X45885714Y-99880952D01*
X46457142Y-100452380D01*
X45838095Y-100452380D01*
%TO.C,R31*%
X59502380Y-93057142D02*
X59026190Y-92723809D01*
X59502380Y-92485714D02*
X58502380Y-92485714D01*
X58502380Y-92866666D01*
X58550000Y-92961904D01*
X58597619Y-93009523D01*
X58692857Y-93057142D01*
X58835714Y-93057142D01*
X58930952Y-93009523D01*
X58978571Y-92961904D01*
X59026190Y-92866666D01*
X59026190Y-92485714D01*
X58502380Y-93390476D02*
X58502380Y-94009523D01*
X58883333Y-93676190D01*
X58883333Y-93819047D01*
X58930952Y-93914285D01*
X58978571Y-93961904D01*
X59073809Y-94009523D01*
X59311904Y-94009523D01*
X59407142Y-93961904D01*
X59454761Y-93914285D01*
X59502380Y-93819047D01*
X59502380Y-93533333D01*
X59454761Y-93438095D01*
X59407142Y-93390476D01*
X59502380Y-94961904D02*
X59502380Y-94390476D01*
X59502380Y-94676190D02*
X58502380Y-94676190D01*
X58645238Y-94580952D01*
X58740476Y-94485714D01*
X58788095Y-94390476D01*
%TD*%
M02*
