G04 #@! TF.GenerationSoftware,KiCad,Pcbnew,8.0.8*
G04 #@! TF.CreationDate,2025-06-15T11:56:51+02:00*
G04 #@! TF.ProjectId,Overlord,4f766572-6c6f-4726-942e-6b696361645f,rev?*
G04 #@! TF.SameCoordinates,Original*
G04 #@! TF.FileFunction,Legend,Bot*
G04 #@! TF.FilePolarity,Positive*
%FSLAX46Y46*%
G04 Gerber Fmt 4.6, Leading zero omitted, Abs format (unit mm)*
G04 Created by KiCad (PCBNEW 8.0.8) date 2025-06-15 11:56:51*
%MOMM*%
%LPD*%
G01*
G04 APERTURE LIST*
G04 Aperture macros list*
%AMRoundRect*
0 Rectangle with rounded corners*
0 $1 Rounding radius*
0 $2 $3 $4 $5 $6 $7 $8 $9 X,Y pos of 4 corners*
0 Add a 4 corners polygon primitive as box body*
4,1,4,$2,$3,$4,$5,$6,$7,$8,$9,$2,$3,0*
0 Add four circle primitives for the rounded corners*
1,1,$1+$1,$2,$3*
1,1,$1+$1,$4,$5*
1,1,$1+$1,$6,$7*
1,1,$1+$1,$8,$9*
0 Add four rect primitives between the rounded corners*
20,1,$1+$1,$2,$3,$4,$5,0*
20,1,$1+$1,$4,$5,$6,$7,0*
20,1,$1+$1,$6,$7,$8,$9,0*
20,1,$1+$1,$8,$9,$2,$3,0*%
G04 Aperture macros list end*
%ADD10R,0.840000X0.840000*%
%ADD11C,0.840000*%
%ADD12C,1.850000*%
%ADD13R,1.700000X1.700000*%
%ADD14C,1.500000*%
%ADD15RoundRect,0.250000X0.400000X-0.650000X0.400000X0.650000X-0.400000X0.650000X-0.400000X-0.650000X0*%
%ADD16O,1.300000X1.800000*%
%ADD17R,2.025000X2.025000*%
%ADD18C,2.025000*%
%ADD19O,1.700000X1.700000*%
%ADD20C,1.562000*%
%ADD21C,4.877000*%
G04 APERTURE END LIST*
%LPC*%
D10*
X41525000Y-104430000D03*
D11*
X42175000Y-105430000D03*
X42825000Y-104430000D03*
X43475000Y-105430000D03*
X44125000Y-104430000D03*
D12*
X39250000Y-104650000D03*
X46400000Y-104650000D03*
D13*
X72050000Y-69350000D03*
D14*
X158400000Y-88180000D03*
X175970000Y-88180000D03*
D15*
X160200000Y-86700000D03*
D16*
X161470000Y-84160000D03*
X162740000Y-86700000D03*
X164010000Y-84160000D03*
X165279999Y-86700000D03*
X166550000Y-84160000D03*
X167820000Y-86700000D03*
X169090000Y-84160000D03*
X170360000Y-86700000D03*
X171630000Y-84160000D03*
X172900000Y-86700000D03*
X174170000Y-84160000D03*
D13*
X133950000Y-101550000D03*
X48600001Y-85150000D03*
X148350000Y-69950000D03*
D17*
X85650000Y-31500000D03*
D18*
X89150000Y-31500000D03*
X92650000Y-31500000D03*
X96150000Y-31500000D03*
X99650000Y-31500000D03*
X103150000Y-31500000D03*
X106650000Y-31500000D03*
X110150000Y-31500000D03*
X113650000Y-31500000D03*
X117150000Y-31500000D03*
X120650000Y-31500000D03*
D13*
X73650000Y-56100000D03*
X73550000Y-102650000D03*
X126750000Y-101550000D03*
X115850000Y-35500000D03*
D19*
X113310000Y-35500000D03*
X110770001Y-35500000D03*
X108230000Y-35500000D03*
X105690000Y-35500000D03*
X103150000Y-35500000D03*
X100610000Y-35500000D03*
X98069999Y-35500000D03*
X95530000Y-35500000D03*
X92990000Y-35500000D03*
X90450000Y-35500000D03*
D13*
X61875000Y-35500000D03*
D19*
X59335000Y-35500000D03*
X56795001Y-35500000D03*
X54255000Y-35500000D03*
X51715000Y-35500000D03*
X49175000Y-35500000D03*
X46635000Y-35500000D03*
X44094999Y-35500000D03*
X41555000Y-35500000D03*
X39015000Y-35500000D03*
D13*
X155550000Y-69950000D03*
X52200000Y-85150000D03*
X123150000Y-101550000D03*
X141150000Y-69950000D03*
X176350000Y-80600000D03*
X147400000Y-88600000D03*
X58300000Y-56100000D03*
X66350000Y-102650000D03*
X137550000Y-101550000D03*
X130350000Y-101550000D03*
X45000000Y-85150000D03*
X151950000Y-69950000D03*
X77149999Y-102650000D03*
X54700000Y-56100000D03*
X128650000Y-56100000D03*
X70050000Y-56100000D03*
X69950001Y-102650000D03*
X168550000Y-35500000D03*
D19*
X166010000Y-35500000D03*
X163470001Y-35500000D03*
X160930000Y-35500000D03*
X158390000Y-35500000D03*
X155850000Y-35500000D03*
X153310000Y-35500000D03*
X150769999Y-35500000D03*
X148230000Y-35500000D03*
X145690000Y-35500000D03*
X143150000Y-35500000D03*
D20*
X161436000Y-94355000D03*
X158693000Y-94355000D03*
X155950000Y-94355000D03*
X153207000Y-94355000D03*
X150464000Y-94355000D03*
X160065000Y-97200000D03*
X157322000Y-97200000D03*
X154578000Y-97200000D03*
X151835000Y-97200000D03*
D21*
X168447000Y-95778000D03*
X143453000Y-95778000D03*
D17*
X138350000Y-31500000D03*
D18*
X141850000Y-31500000D03*
X145350000Y-31500000D03*
X148850000Y-31500000D03*
X152350000Y-31500000D03*
X155850000Y-31500000D03*
X159350000Y-31500000D03*
X162850000Y-31500000D03*
X166350000Y-31500000D03*
X169850000Y-31500000D03*
X173350000Y-31500000D03*
D13*
X145550000Y-56100000D03*
D17*
X32950000Y-31500000D03*
D18*
X36450000Y-31500000D03*
X39950000Y-31500000D03*
X43450000Y-31500000D03*
X46950000Y-31500000D03*
X50450000Y-31500000D03*
X53950000Y-31500000D03*
X57450000Y-31500000D03*
X60950000Y-31500000D03*
X64450000Y-31500000D03*
X67950000Y-31500000D03*
D13*
X141950000Y-56100000D03*
X72050000Y-65750000D03*
X144750000Y-69950000D03*
X125050001Y-56100000D03*
X59400000Y-85150000D03*
X143800000Y-88600000D03*
D20*
X108936000Y-94355000D03*
X106193000Y-94355000D03*
X103450000Y-94355000D03*
X100707000Y-94355000D03*
X97964000Y-94355000D03*
X107565000Y-97200000D03*
X104822000Y-97200000D03*
X102078000Y-97200000D03*
X99335000Y-97200000D03*
D21*
X115947000Y-95778000D03*
X90953000Y-95778000D03*
D13*
X143800000Y-85000000D03*
X61875000Y-95250000D03*
D19*
X59335000Y-95250000D03*
D13*
X55799999Y-85150000D03*
X172749999Y-80600000D03*
%LPD*%
M02*
