%TF.GenerationSoftware,KiCad,Pcbnew,7.0.10*%
%TF.CreationDate,2024-07-06T13:48:58+02:00*%
%TF.ProjectId,OverlordInterface,4f766572-6c6f-4726-9449-6e7465726661,rev?*%
%TF.SameCoordinates,Original*%
%TF.FileFunction,Soldermask,Bot*%
%TF.FilePolarity,Negative*%
%FSLAX46Y46*%
G04 Gerber Fmt 4.6, Leading zero omitted, Abs format (unit mm)*
G04 Created by KiCad (PCBNEW 7.0.10) date 2024-07-06 13:48:58*
%MOMM*%
%LPD*%
G01*
G04 APERTURE LIST*
G04 Aperture macros list*
%AMRoundRect*
0 Rectangle with rounded corners*
0 $1 Rounding radius*
0 $2 $3 $4 $5 $6 $7 $8 $9 X,Y pos of 4 corners*
0 Add a 4 corners polygon primitive as box body*
4,1,4,$2,$3,$4,$5,$6,$7,$8,$9,$2,$3,0*
0 Add four circle primitives for the rounded corners*
1,1,$1+$1,$2,$3*
1,1,$1+$1,$4,$5*
1,1,$1+$1,$6,$7*
1,1,$1+$1,$8,$9*
0 Add four rect primitives between the rounded corners*
20,1,$1+$1,$2,$3,$4,$5,0*
20,1,$1+$1,$4,$5,$6,$7,0*
20,1,$1+$1,$6,$7,$8,$9,0*
20,1,$1+$1,$8,$9,$2,$3,0*%
G04 Aperture macros list end*
%ADD10R,1.800000X1.800000*%
%ADD11C,1.800000*%
%ADD12C,4.000000*%
%ADD13R,1.600000X1.600000*%
%ADD14C,1.600000*%
%ADD15RoundRect,0.150000X-0.150000X-0.700000X0.150000X-0.700000X0.150000X0.700000X-0.150000X0.700000X0*%
%ADD16RoundRect,0.250000X-0.250000X-1.100000X0.250000X-1.100000X0.250000X1.100000X-0.250000X1.100000X0*%
G04 APERTURE END LIST*
D10*
%TO.C,D2*%
X211830000Y-91055000D03*
D11*
X211830000Y-93595000D03*
%TD*%
D10*
%TO.C,D1*%
X221830000Y-91055000D03*
D11*
X221830000Y-93595000D03*
%TD*%
D12*
%TO.C,J5*%
X100190000Y-105695000D03*
X100190000Y-80695000D03*
D13*
X98770000Y-87655000D03*
D14*
X98770000Y-90425000D03*
X98770000Y-93195000D03*
X98770000Y-95965000D03*
X98770000Y-98735000D03*
X101610000Y-89040000D03*
X101610000Y-91810000D03*
X101610000Y-94580000D03*
X101610000Y-97350000D03*
%TD*%
D12*
%TO.C,J2*%
X181080000Y-105695000D03*
X181080000Y-80695000D03*
D13*
X179660000Y-87655000D03*
D14*
X179660000Y-90425000D03*
X179660000Y-93195000D03*
X179660000Y-95965000D03*
X179660000Y-98735000D03*
X182500000Y-89040000D03*
X182500000Y-91810000D03*
X182500000Y-94580000D03*
X182500000Y-97350000D03*
%TD*%
D12*
%TO.C,J4*%
X127153333Y-105695000D03*
X127153333Y-80695000D03*
D13*
X125733333Y-87655000D03*
D14*
X125733333Y-90425000D03*
X125733333Y-93195000D03*
X125733333Y-95965000D03*
X125733333Y-98735000D03*
X128573333Y-89040000D03*
X128573333Y-91810000D03*
X128573333Y-94580000D03*
X128573333Y-97350000D03*
%TD*%
D12*
%TO.C,J3*%
X154116666Y-105695000D03*
X154116666Y-80695000D03*
D13*
X152696666Y-87655000D03*
D14*
X152696666Y-90425000D03*
X152696666Y-93195000D03*
X152696666Y-95965000D03*
X152696666Y-98735000D03*
X155536666Y-89040000D03*
X155536666Y-91810000D03*
X155536666Y-94580000D03*
X155536666Y-97350000D03*
%TD*%
D10*
%TO.C,D3*%
X201830000Y-91055000D03*
D11*
X201830000Y-93595000D03*
%TD*%
D15*
%TO.C,J1*%
X198375000Y-107350000D03*
X199625000Y-107350000D03*
X200875000Y-107350000D03*
X202125000Y-107350000D03*
X203375000Y-107350000D03*
X204625000Y-107350000D03*
X205875000Y-107350000D03*
X207125000Y-107350000D03*
X208375000Y-107350000D03*
X209625000Y-107350000D03*
X210875000Y-107350000D03*
X212125000Y-107350000D03*
D16*
X196525000Y-104150000D03*
X213975000Y-104150000D03*
%TD*%
M02*
