%TF.GenerationSoftware,KiCad,Pcbnew,7.0.10*%
%TF.CreationDate,2024-07-06T13:48:58+02:00*%
%TF.ProjectId,OverlordInterface,4f766572-6c6f-4726-9449-6e7465726661,rev?*%
%TF.SameCoordinates,Original*%
%TF.FileFunction,Copper,L1,Top*%
%TF.FilePolarity,Positive*%
%FSLAX46Y46*%
G04 Gerber Fmt 4.6, Leading zero omitted, Abs format (unit mm)*
G04 Created by KiCad (PCBNEW 7.0.10) date 2024-07-06 13:48:58*
%MOMM*%
%LPD*%
G01*
G04 APERTURE LIST*
%TA.AperFunction,ComponentPad*%
%ADD10R,1.800000X1.800000*%
%TD*%
%TA.AperFunction,ComponentPad*%
%ADD11C,1.800000*%
%TD*%
%TA.AperFunction,ComponentPad*%
%ADD12C,4.000000*%
%TD*%
%TA.AperFunction,ComponentPad*%
%ADD13R,1.600000X1.600000*%
%TD*%
%TA.AperFunction,ComponentPad*%
%ADD14C,1.600000*%
%TD*%
%TA.AperFunction,ViaPad*%
%ADD15C,0.800000*%
%TD*%
%TA.AperFunction,Conductor*%
%ADD16C,0.250000*%
%TD*%
G04 APERTURE END LIST*
D10*
%TO.P,D2,1,K*%
%TO.N,GND*%
X211830000Y-91055000D03*
D11*
%TO.P,D2,2,A*%
%TO.N,STATUS_LED_G*%
X211830000Y-93595000D03*
%TD*%
D10*
%TO.P,D1,1,K*%
%TO.N,GND*%
X221830000Y-91055000D03*
D11*
%TO.P,D1,2,A*%
%TO.N,STATUS_LED_B*%
X221830000Y-93595000D03*
%TD*%
D12*
%TO.P,J5,0,PAD*%
%TO.N,GND*%
X100190000Y-105695000D03*
X100190000Y-80695000D03*
D13*
%TO.P,J5,1,1*%
%TO.N,unconnected-(J5-Pad1)*%
X98770000Y-87655000D03*
D14*
%TO.P,J5,2,2*%
%TO.N,MB_TX_U2*%
X98770000Y-90425000D03*
%TO.P,J5,3,3*%
%TO.N,MB_RX_U2*%
X98770000Y-93195000D03*
%TO.P,J5,4,4*%
%TO.N,unconnected-(J5-Pad4)*%
X98770000Y-95965000D03*
%TO.P,J5,5,5*%
%TO.N,GND*%
X98770000Y-98735000D03*
%TO.P,J5,6,6*%
%TO.N,unconnected-(J5-Pad6)*%
X101610000Y-89040000D03*
%TO.P,J5,7,7*%
%TO.N,unconnected-(J5-Pad7)*%
X101610000Y-91810000D03*
%TO.P,J5,8,8*%
%TO.N,unconnected-(J5-Pad8)*%
X101610000Y-94580000D03*
%TO.P,J5,9,9*%
%TO.N,unconnected-(J5-Pad9)*%
X101610000Y-97350000D03*
%TD*%
D12*
%TO.P,J2,0,PAD*%
%TO.N,GND*%
X181080000Y-105695000D03*
X181080000Y-80695000D03*
D13*
%TO.P,J2,1,1*%
%TO.N,unconnected-(J2-Pad1)*%
X179660000Y-87655000D03*
D14*
%TO.P,J2,2,2*%
%TO.N,CAN_L*%
X179660000Y-90425000D03*
%TO.P,J2,3,3*%
%TO.N,GND*%
X179660000Y-93195000D03*
%TO.P,J2,4,4*%
%TO.N,unconnected-(J2-Pad4)*%
X179660000Y-95965000D03*
%TO.P,J2,5,5*%
%TO.N,unconnected-(J2-Pad5)*%
X179660000Y-98735000D03*
%TO.P,J2,6,6*%
%TO.N,unconnected-(J2-Pad6)*%
X182500000Y-89040000D03*
%TO.P,J2,7,7*%
%TO.N,CAN_H*%
X182500000Y-91810000D03*
%TO.P,J2,8,8*%
%TO.N,unconnected-(J2-Pad8)*%
X182500000Y-94580000D03*
%TO.P,J2,9,9*%
%TO.N,unconnected-(J2-Pad9)*%
X182500000Y-97350000D03*
%TD*%
D12*
%TO.P,J4,0,PAD*%
%TO.N,GND*%
X127153333Y-105695000D03*
X127153333Y-80695000D03*
D13*
%TO.P,J4,1,1*%
%TO.N,unconnected-(J4-Pad1)*%
X125733333Y-87655000D03*
D14*
%TO.P,J4,2,2*%
%TO.N,MB_TX_U1*%
X125733333Y-90425000D03*
%TO.P,J4,3,3*%
%TO.N,MB_RX_U1*%
X125733333Y-93195000D03*
%TO.P,J4,4,4*%
%TO.N,unconnected-(J4-Pad4)*%
X125733333Y-95965000D03*
%TO.P,J4,5,5*%
%TO.N,GND*%
X125733333Y-98735000D03*
%TO.P,J4,6,6*%
%TO.N,unconnected-(J4-Pad6)*%
X128573333Y-89040000D03*
%TO.P,J4,7,7*%
%TO.N,unconnected-(J4-Pad7)*%
X128573333Y-91810000D03*
%TO.P,J4,8,8*%
%TO.N,unconnected-(J4-Pad8)*%
X128573333Y-94580000D03*
%TO.P,J4,9,9*%
%TO.N,unconnected-(J4-Pad9)*%
X128573333Y-97350000D03*
%TD*%
D12*
%TO.P,J3,0,PAD*%
%TO.N,GND*%
X154116666Y-105695000D03*
X154116666Y-80695000D03*
D13*
%TO.P,J3,1,1*%
%TO.N,unconnected-(J3-Pad1)*%
X152696666Y-87655000D03*
D14*
%TO.P,J3,2,2*%
%TO.N,UART_TX_0*%
X152696666Y-90425000D03*
%TO.P,J3,3,3*%
%TO.N,UART_RX_0*%
X152696666Y-93195000D03*
%TO.P,J3,4,4*%
%TO.N,unconnected-(J3-Pad4)*%
X152696666Y-95965000D03*
%TO.P,J3,5,5*%
%TO.N,GND*%
X152696666Y-98735000D03*
%TO.P,J3,6,6*%
%TO.N,unconnected-(J3-Pad6)*%
X155536666Y-89040000D03*
%TO.P,J3,7,7*%
%TO.N,unconnected-(J3-Pad7)*%
X155536666Y-91810000D03*
%TO.P,J3,8,8*%
%TO.N,unconnected-(J3-Pad8)*%
X155536666Y-94580000D03*
%TO.P,J3,9,9*%
%TO.N,unconnected-(J3-Pad9)*%
X155536666Y-97350000D03*
%TD*%
D10*
%TO.P,D3,1,K*%
%TO.N,GND*%
X201830000Y-91055000D03*
D11*
%TO.P,D3,2,A*%
%TO.N,STATUS_LED_R*%
X201830000Y-93595000D03*
%TD*%
D15*
%TO.N,GND*%
X140430000Y-74310000D03*
X115030000Y-74310000D03*
X196310000Y-112410000D03*
X216630000Y-112410000D03*
X211550000Y-112410000D03*
X89630000Y-74310000D03*
X224250000Y-112410000D03*
X229330000Y-84470000D03*
X120110000Y-74310000D03*
X122650000Y-74310000D03*
X94710000Y-74310000D03*
X76930000Y-107330000D03*
X173450000Y-112410000D03*
X130270000Y-74310000D03*
X84550000Y-74310000D03*
X214090000Y-74310000D03*
X125190000Y-112410000D03*
X175990000Y-74310000D03*
X181070000Y-112410000D03*
X150590000Y-74310000D03*
X132810000Y-112410000D03*
X97250000Y-74310000D03*
X186150000Y-112410000D03*
X87090000Y-74310000D03*
X203930000Y-74310000D03*
X198850000Y-74310000D03*
X130270000Y-112410000D03*
X224250000Y-74310000D03*
X107410000Y-112410000D03*
X92170000Y-74310000D03*
X211550000Y-74310000D03*
X137890000Y-112410000D03*
X76930000Y-89550000D03*
X76930000Y-109870000D03*
X206470000Y-112410000D03*
X148050000Y-112410000D03*
X201390000Y-112410000D03*
X163290000Y-112410000D03*
X153130000Y-74310000D03*
X135350000Y-74310000D03*
X82010000Y-112410000D03*
X155670000Y-74310000D03*
X122650000Y-112410000D03*
X226790000Y-112410000D03*
X120110000Y-112410000D03*
X109950000Y-112410000D03*
X142970000Y-74310000D03*
X76930000Y-94630000D03*
X229330000Y-76850000D03*
X229330000Y-79390000D03*
X229330000Y-99710000D03*
X125190000Y-74310000D03*
X229330000Y-109870000D03*
X84550000Y-112410000D03*
X79470000Y-112410000D03*
X97250000Y-112410000D03*
X117570000Y-74310000D03*
X196310000Y-74310000D03*
X160750000Y-74310000D03*
X102330000Y-74310000D03*
X140430000Y-112410000D03*
X158210000Y-112410000D03*
X168370000Y-112410000D03*
X188690000Y-112410000D03*
X229330000Y-97170000D03*
X76930000Y-81930000D03*
X158210000Y-74310000D03*
X76930000Y-79390000D03*
X76930000Y-99710000D03*
X178530000Y-74310000D03*
X181070000Y-74310000D03*
X148050000Y-74310000D03*
X99790000Y-112410000D03*
X214090000Y-112410000D03*
X229330000Y-102250000D03*
X107410000Y-74310000D03*
X76930000Y-97170000D03*
X160750000Y-112410000D03*
X168370000Y-74310000D03*
X115030000Y-112410000D03*
X216630000Y-74310000D03*
X76930000Y-112410000D03*
X165830000Y-112410000D03*
X229330000Y-81930000D03*
X99790000Y-74310000D03*
X76930000Y-74310000D03*
X127730000Y-74310000D03*
X76930000Y-87010000D03*
X186150000Y-74310000D03*
X89630000Y-112410000D03*
X137890000Y-74310000D03*
X117570000Y-112410000D03*
X193770000Y-74310000D03*
X94710000Y-112410000D03*
X229330000Y-104790000D03*
X109950000Y-74310000D03*
X193770000Y-112410000D03*
X76930000Y-84470000D03*
X82010000Y-74310000D03*
X229330000Y-89550000D03*
X229330000Y-94630000D03*
X191230000Y-74310000D03*
X229330000Y-92090000D03*
X76930000Y-104790000D03*
X201390000Y-74310000D03*
X155670000Y-112410000D03*
X209010000Y-112410000D03*
X203930000Y-112410000D03*
X76930000Y-92090000D03*
X127730000Y-112410000D03*
X209010000Y-74310000D03*
X191230000Y-112410000D03*
X229330000Y-112410000D03*
X170910000Y-74310000D03*
X170910000Y-112410000D03*
X198850000Y-112410000D03*
X178530000Y-112410000D03*
X76930000Y-76850000D03*
X79470000Y-74310000D03*
X163290000Y-74310000D03*
X226790000Y-74310000D03*
X112490000Y-112410000D03*
X229330000Y-74310000D03*
X188690000Y-74310000D03*
X173450000Y-74310000D03*
X87090000Y-112410000D03*
X112490000Y-74310000D03*
X145510000Y-74310000D03*
X145510000Y-112410000D03*
X92170000Y-112410000D03*
X165830000Y-74310000D03*
X183610000Y-112410000D03*
X229330000Y-107330000D03*
X150590000Y-112410000D03*
X221710000Y-74310000D03*
X153130000Y-112410000D03*
X175990000Y-112410000D03*
X219170000Y-112410000D03*
X183610000Y-74310000D03*
X76930000Y-102250000D03*
X104870000Y-112410000D03*
X221710000Y-112410000D03*
X104870000Y-74310000D03*
X206470000Y-74310000D03*
X135350000Y-112410000D03*
X229330000Y-87010000D03*
X102330000Y-112410000D03*
X132810000Y-74310000D03*
X219170000Y-74310000D03*
X142970000Y-112410000D03*
%TO.N,STATUS_LED_B*%
X190180000Y-103580000D03*
%TO.N,STATUS_LED_G*%
X191965000Y-102490000D03*
%TO.N,STATUS_LED_R*%
X193750000Y-101400000D03*
%TD*%
D16*
%TO.N,STATUS_LED_B*%
X213325000Y-103580000D02*
X190180000Y-103580000D01*
X221830000Y-95075000D02*
X213325000Y-103580000D01*
X221830000Y-93595000D02*
X221830000Y-95075000D01*
%TO.N,STATUS_LED_G*%
X211830000Y-93595000D02*
X211830000Y-95075000D01*
X211830000Y-95075000D02*
X204415000Y-102490000D01*
X204415000Y-102490000D02*
X192190000Y-102490000D01*
%TO.N,STATUS_LED_R*%
X201830000Y-93595000D02*
X201830000Y-95075000D01*
X195505000Y-101400000D02*
X193750000Y-101400000D01*
X201830000Y-95075000D02*
X195505000Y-101400000D01*
%TD*%
%TA.AperFunction,Conductor*%
%TO.N,GND*%
G36*
X230673098Y-72310185D02*
G01*
X230718853Y-72362989D01*
X230730059Y-72414441D01*
X230749500Y-113240000D01*
X230749500Y-114165500D01*
X230729815Y-114232539D01*
X230677011Y-114278294D01*
X230625500Y-114289500D01*
X223000000Y-114289500D01*
X75874492Y-114280007D01*
X75807454Y-114260318D01*
X75761702Y-114207511D01*
X75750500Y-114156007D01*
X75750500Y-103580000D01*
X189274540Y-103580000D01*
X189294326Y-103768256D01*
X189294327Y-103768259D01*
X189352818Y-103948277D01*
X189352821Y-103948284D01*
X189447467Y-104112216D01*
X189568401Y-104246526D01*
X189574129Y-104252888D01*
X189727265Y-104364148D01*
X189727270Y-104364151D01*
X189900192Y-104441142D01*
X189900197Y-104441144D01*
X190085354Y-104480500D01*
X190085355Y-104480500D01*
X190274644Y-104480500D01*
X190274646Y-104480500D01*
X190459803Y-104441144D01*
X190632730Y-104364151D01*
X190785871Y-104252888D01*
X190788788Y-104249647D01*
X190791600Y-104246526D01*
X190851087Y-104209879D01*
X190883748Y-104205500D01*
X213242257Y-104205500D01*
X213257877Y-104207224D01*
X213257904Y-104206939D01*
X213265660Y-104207671D01*
X213265667Y-104207673D01*
X213332873Y-104205561D01*
X213336768Y-104205500D01*
X213364346Y-104205500D01*
X213364350Y-104205500D01*
X213368324Y-104204997D01*
X213379963Y-104204080D01*
X213423627Y-104202709D01*
X213442869Y-104197117D01*
X213461912Y-104193174D01*
X213481792Y-104190664D01*
X213522401Y-104174585D01*
X213533444Y-104170803D01*
X213575390Y-104158618D01*
X213592629Y-104148422D01*
X213610103Y-104139862D01*
X213628727Y-104132488D01*
X213628727Y-104132487D01*
X213628732Y-104132486D01*
X213664083Y-104106800D01*
X213673814Y-104100408D01*
X213711420Y-104078170D01*
X213725589Y-104063999D01*
X213740379Y-104051368D01*
X213756587Y-104039594D01*
X213784438Y-104005926D01*
X213792279Y-103997309D01*
X222213788Y-95575801D01*
X222226042Y-95565986D01*
X222225859Y-95565764D01*
X222231868Y-95560791D01*
X222231877Y-95560786D01*
X222277949Y-95511722D01*
X222280566Y-95509023D01*
X222300120Y-95489471D01*
X222302576Y-95486303D01*
X222310156Y-95477427D01*
X222340062Y-95445582D01*
X222349713Y-95428024D01*
X222360396Y-95411761D01*
X222372673Y-95395936D01*
X222390021Y-95355844D01*
X222395151Y-95345371D01*
X222416197Y-95307092D01*
X222421180Y-95287680D01*
X222427482Y-95269279D01*
X222435437Y-95250896D01*
X222442270Y-95207748D01*
X222444633Y-95196338D01*
X222455500Y-95154019D01*
X222455500Y-95133983D01*
X222457027Y-95114582D01*
X222460160Y-95094804D01*
X222456050Y-95051324D01*
X222455500Y-95039655D01*
X222455500Y-94922814D01*
X222475185Y-94855775D01*
X222520483Y-94813759D01*
X222533532Y-94806697D01*
X222598626Y-94771470D01*
X222781784Y-94628913D01*
X222938979Y-94458153D01*
X223065924Y-94263849D01*
X223159157Y-94051300D01*
X223216134Y-93826305D01*
X223223214Y-93740861D01*
X223235300Y-93595006D01*
X223235300Y-93594993D01*
X223216135Y-93363702D01*
X223216133Y-93363691D01*
X223159157Y-93138699D01*
X223065924Y-92926151D01*
X222938983Y-92731852D01*
X222938980Y-92731849D01*
X222938979Y-92731847D01*
X222781784Y-92561087D01*
X222781779Y-92561083D01*
X222781777Y-92561081D01*
X222598634Y-92418535D01*
X222598628Y-92418531D01*
X222394504Y-92308064D01*
X222394495Y-92308061D01*
X222174984Y-92232702D01*
X222003282Y-92204050D01*
X221946049Y-92194500D01*
X221713951Y-92194500D01*
X221668164Y-92202140D01*
X221485015Y-92232702D01*
X221265504Y-92308061D01*
X221265495Y-92308064D01*
X221061371Y-92418531D01*
X221061365Y-92418535D01*
X220878222Y-92561081D01*
X220878219Y-92561084D01*
X220721016Y-92731852D01*
X220594075Y-92926151D01*
X220500842Y-93138699D01*
X220443866Y-93363691D01*
X220443864Y-93363702D01*
X220424700Y-93594993D01*
X220424700Y-93595006D01*
X220443864Y-93826297D01*
X220443866Y-93826308D01*
X220500842Y-94051300D01*
X220594075Y-94263848D01*
X220721016Y-94458147D01*
X220721019Y-94458151D01*
X220721021Y-94458153D01*
X220878216Y-94628913D01*
X220969260Y-94699775D01*
X221056037Y-94767316D01*
X221096850Y-94824027D01*
X221100525Y-94893800D01*
X221067556Y-94952851D01*
X213102228Y-102918181D01*
X213040905Y-102951666D01*
X213014547Y-102954500D01*
X205134451Y-102954500D01*
X205067412Y-102934815D01*
X205021657Y-102882011D01*
X205011713Y-102812853D01*
X205040738Y-102749297D01*
X205046770Y-102742819D01*
X208608101Y-99181488D01*
X212213786Y-95575802D01*
X212226048Y-95565980D01*
X212225865Y-95565759D01*
X212231868Y-95560791D01*
X212231877Y-95560786D01*
X212277934Y-95511739D01*
X212280600Y-95508989D01*
X212300120Y-95489470D01*
X212302570Y-95486310D01*
X212310154Y-95477429D01*
X212340062Y-95445582D01*
X212349714Y-95428023D01*
X212360389Y-95411772D01*
X212372674Y-95395936D01*
X212390030Y-95355825D01*
X212395161Y-95345354D01*
X212416194Y-95307098D01*
X212416195Y-95307095D01*
X212416197Y-95307092D01*
X212421180Y-95287680D01*
X212427477Y-95269291D01*
X212435438Y-95250895D01*
X212442270Y-95207748D01*
X212444639Y-95196316D01*
X212455499Y-95154022D01*
X212455500Y-95154017D01*
X212455500Y-95133983D01*
X212457027Y-95114582D01*
X212460160Y-95094804D01*
X212456050Y-95051324D01*
X212455500Y-95039655D01*
X212455500Y-94922814D01*
X212475185Y-94855775D01*
X212520483Y-94813759D01*
X212533532Y-94806697D01*
X212598626Y-94771470D01*
X212781784Y-94628913D01*
X212938979Y-94458153D01*
X213065924Y-94263849D01*
X213159157Y-94051300D01*
X213216134Y-93826305D01*
X213223214Y-93740861D01*
X213235300Y-93595006D01*
X213235300Y-93594993D01*
X213216135Y-93363702D01*
X213216133Y-93363691D01*
X213159157Y-93138699D01*
X213065924Y-92926151D01*
X212938983Y-92731852D01*
X212938980Y-92731849D01*
X212938979Y-92731847D01*
X212781784Y-92561087D01*
X212781779Y-92561083D01*
X212781777Y-92561081D01*
X212598634Y-92418535D01*
X212598628Y-92418531D01*
X212394504Y-92308064D01*
X212394495Y-92308061D01*
X212174984Y-92232702D01*
X212003282Y-92204050D01*
X211946049Y-92194500D01*
X211713951Y-92194500D01*
X211668164Y-92202140D01*
X211485015Y-92232702D01*
X211265504Y-92308061D01*
X211265495Y-92308064D01*
X211061371Y-92418531D01*
X211061365Y-92418535D01*
X210878222Y-92561081D01*
X210878219Y-92561084D01*
X210721016Y-92731852D01*
X210594075Y-92926151D01*
X210500842Y-93138699D01*
X210443866Y-93363691D01*
X210443864Y-93363702D01*
X210424700Y-93594993D01*
X210424700Y-93595006D01*
X210443864Y-93826297D01*
X210443866Y-93826308D01*
X210500842Y-94051300D01*
X210594075Y-94263848D01*
X210721016Y-94458147D01*
X210721019Y-94458151D01*
X210721021Y-94458153D01*
X210878216Y-94628913D01*
X211056039Y-94767317D01*
X211096851Y-94824027D01*
X211100526Y-94893799D01*
X211067557Y-94952851D01*
X204192228Y-101828181D01*
X204130905Y-101861666D01*
X204104547Y-101864500D01*
X196224451Y-101864500D01*
X196157412Y-101844815D01*
X196111657Y-101792011D01*
X196101713Y-101722853D01*
X196130738Y-101659297D01*
X196136770Y-101652819D01*
X199153956Y-98635633D01*
X202213786Y-95575802D01*
X202226048Y-95565980D01*
X202225865Y-95565759D01*
X202231868Y-95560791D01*
X202231877Y-95560786D01*
X202277934Y-95511739D01*
X202280600Y-95508989D01*
X202300120Y-95489470D01*
X202302584Y-95486292D01*
X202310154Y-95477429D01*
X202340062Y-95445582D01*
X202349713Y-95428024D01*
X202360396Y-95411761D01*
X202372673Y-95395936D01*
X202390018Y-95355849D01*
X202395152Y-95345371D01*
X202416197Y-95307092D01*
X202421178Y-95287687D01*
X202427482Y-95269279D01*
X202427485Y-95269272D01*
X202435438Y-95250895D01*
X202442270Y-95207748D01*
X202444639Y-95196316D01*
X202455499Y-95154022D01*
X202455500Y-95154017D01*
X202455500Y-95133983D01*
X202457027Y-95114582D01*
X202460160Y-95094804D01*
X202456050Y-95051324D01*
X202455500Y-95039655D01*
X202455500Y-94922814D01*
X202475185Y-94855775D01*
X202520483Y-94813759D01*
X202533532Y-94806697D01*
X202598626Y-94771470D01*
X202781784Y-94628913D01*
X202938979Y-94458153D01*
X203065924Y-94263849D01*
X203159157Y-94051300D01*
X203216134Y-93826305D01*
X203223214Y-93740861D01*
X203235300Y-93595006D01*
X203235300Y-93594993D01*
X203216135Y-93363702D01*
X203216133Y-93363691D01*
X203159157Y-93138699D01*
X203065924Y-92926151D01*
X202938983Y-92731852D01*
X202938980Y-92731849D01*
X202938979Y-92731847D01*
X202781784Y-92561087D01*
X202781779Y-92561083D01*
X202781777Y-92561081D01*
X202598634Y-92418535D01*
X202598628Y-92418531D01*
X202394504Y-92308064D01*
X202394495Y-92308061D01*
X202174984Y-92232702D01*
X202003282Y-92204050D01*
X201946049Y-92194500D01*
X201713951Y-92194500D01*
X201668164Y-92202140D01*
X201485015Y-92232702D01*
X201265504Y-92308061D01*
X201265495Y-92308064D01*
X201061371Y-92418531D01*
X201061365Y-92418535D01*
X200878222Y-92561081D01*
X200878219Y-92561084D01*
X200721016Y-92731852D01*
X200594075Y-92926151D01*
X200500842Y-93138699D01*
X200443866Y-93363691D01*
X200443864Y-93363702D01*
X200424700Y-93594993D01*
X200424700Y-93595006D01*
X200443864Y-93826297D01*
X200443866Y-93826308D01*
X200500842Y-94051300D01*
X200594075Y-94263848D01*
X200721016Y-94458147D01*
X200721019Y-94458151D01*
X200721021Y-94458153D01*
X200878216Y-94628913D01*
X201056039Y-94767317D01*
X201096851Y-94824027D01*
X201100526Y-94893799D01*
X201067557Y-94952851D01*
X195282228Y-100738181D01*
X195220905Y-100771666D01*
X195194547Y-100774500D01*
X194453748Y-100774500D01*
X194386709Y-100754815D01*
X194361600Y-100733474D01*
X194355873Y-100727114D01*
X194355869Y-100727110D01*
X194202734Y-100615851D01*
X194202729Y-100615848D01*
X194029807Y-100538857D01*
X194029802Y-100538855D01*
X193884001Y-100507865D01*
X193844646Y-100499500D01*
X193655354Y-100499500D01*
X193622897Y-100506398D01*
X193470197Y-100538855D01*
X193470192Y-100538857D01*
X193297270Y-100615848D01*
X193297265Y-100615851D01*
X193144129Y-100727111D01*
X193017466Y-100867785D01*
X192922821Y-101031715D01*
X192922818Y-101031722D01*
X192864327Y-101211740D01*
X192864326Y-101211744D01*
X192844540Y-101400000D01*
X192864326Y-101588256D01*
X192877518Y-101628856D01*
X192901343Y-101702182D01*
X192903338Y-101772023D01*
X192867258Y-101831856D01*
X192804557Y-101862684D01*
X192783412Y-101864500D01*
X192668748Y-101864500D01*
X192601709Y-101844815D01*
X192576600Y-101823474D01*
X192570873Y-101817114D01*
X192570869Y-101817110D01*
X192417734Y-101705851D01*
X192417729Y-101705848D01*
X192244807Y-101628857D01*
X192244802Y-101628855D01*
X192099001Y-101597865D01*
X192059646Y-101589500D01*
X191870354Y-101589500D01*
X191837897Y-101596398D01*
X191685197Y-101628855D01*
X191685192Y-101628857D01*
X191512270Y-101705848D01*
X191512265Y-101705851D01*
X191359129Y-101817111D01*
X191232466Y-101957785D01*
X191137821Y-102121715D01*
X191137818Y-102121722D01*
X191079327Y-102301740D01*
X191079326Y-102301744D01*
X191059540Y-102490000D01*
X191079326Y-102678256D01*
X191092518Y-102718856D01*
X191116343Y-102792182D01*
X191118338Y-102862023D01*
X191082258Y-102921856D01*
X191019557Y-102952684D01*
X190998412Y-102954500D01*
X190883748Y-102954500D01*
X190816709Y-102934815D01*
X190791600Y-102913474D01*
X190785873Y-102907114D01*
X190785869Y-102907110D01*
X190632734Y-102795851D01*
X190632729Y-102795848D01*
X190459807Y-102718857D01*
X190459802Y-102718855D01*
X190314001Y-102687865D01*
X190274646Y-102679500D01*
X190085354Y-102679500D01*
X190052897Y-102686398D01*
X189900197Y-102718855D01*
X189900192Y-102718857D01*
X189727270Y-102795848D01*
X189727265Y-102795851D01*
X189574129Y-102907111D01*
X189447466Y-103047785D01*
X189352821Y-103211715D01*
X189352818Y-103211722D01*
X189294327Y-103391740D01*
X189294326Y-103391744D01*
X189274540Y-103580000D01*
X75750500Y-103580000D01*
X75750500Y-98735001D01*
X178354532Y-98735001D01*
X178374364Y-98961686D01*
X178374366Y-98961697D01*
X178433258Y-99181488D01*
X178433261Y-99181497D01*
X178529431Y-99387732D01*
X178529432Y-99387734D01*
X178659954Y-99574141D01*
X178820858Y-99735045D01*
X178820861Y-99735047D01*
X179007266Y-99865568D01*
X179213504Y-99961739D01*
X179433308Y-100020635D01*
X179595230Y-100034801D01*
X179659998Y-100040468D01*
X179660000Y-100040468D01*
X179660002Y-100040468D01*
X179716673Y-100035509D01*
X179886692Y-100020635D01*
X180106496Y-99961739D01*
X180312734Y-99865568D01*
X180499139Y-99735047D01*
X180660047Y-99574139D01*
X180790568Y-99387734D01*
X180886739Y-99181496D01*
X180945635Y-98961692D01*
X180965468Y-98735000D01*
X180945635Y-98508308D01*
X180886739Y-98288504D01*
X180790568Y-98082266D01*
X180660047Y-97895861D01*
X180660045Y-97895858D01*
X180499141Y-97734954D01*
X180312734Y-97604432D01*
X180312732Y-97604431D01*
X180106497Y-97508261D01*
X180106488Y-97508258D01*
X179983966Y-97475429D01*
X179962862Y-97469774D01*
X179903202Y-97433410D01*
X179872673Y-97370563D01*
X179875132Y-97350001D01*
X181194532Y-97350001D01*
X181214364Y-97576686D01*
X181214366Y-97576697D01*
X181273258Y-97796488D01*
X181273261Y-97796497D01*
X181369431Y-98002732D01*
X181369432Y-98002734D01*
X181499954Y-98189141D01*
X181660858Y-98350045D01*
X181660861Y-98350047D01*
X181847266Y-98480568D01*
X182053504Y-98576739D01*
X182273308Y-98635635D01*
X182435230Y-98649801D01*
X182499998Y-98655468D01*
X182500000Y-98655468D01*
X182500002Y-98655468D01*
X182556673Y-98650509D01*
X182726692Y-98635635D01*
X182946496Y-98576739D01*
X183152734Y-98480568D01*
X183339139Y-98350047D01*
X183500047Y-98189139D01*
X183630568Y-98002734D01*
X183726739Y-97796496D01*
X183785635Y-97576692D01*
X183805468Y-97350000D01*
X183801197Y-97301188D01*
X183796775Y-97250635D01*
X183785635Y-97123308D01*
X183726739Y-96903504D01*
X183630568Y-96697266D01*
X183500047Y-96510861D01*
X183500045Y-96510858D01*
X183339141Y-96349954D01*
X183152734Y-96219432D01*
X183152732Y-96219431D01*
X182946497Y-96123261D01*
X182946488Y-96123258D01*
X182823966Y-96090429D01*
X182802862Y-96084774D01*
X182743202Y-96048410D01*
X182712673Y-95985563D01*
X182720968Y-95916188D01*
X182765453Y-95862310D01*
X182802862Y-95845225D01*
X182946496Y-95806739D01*
X183152734Y-95710568D01*
X183339139Y-95580047D01*
X183500047Y-95419139D01*
X183630568Y-95232734D01*
X183726739Y-95026496D01*
X183785635Y-94806692D01*
X183805468Y-94580000D01*
X183801197Y-94531188D01*
X183785635Y-94353313D01*
X183785635Y-94353308D01*
X183726739Y-94133504D01*
X183630568Y-93927266D01*
X183500047Y-93740861D01*
X183500045Y-93740858D01*
X183339141Y-93579954D01*
X183152734Y-93449432D01*
X183152732Y-93449431D01*
X182946497Y-93353261D01*
X182946488Y-93353258D01*
X182823966Y-93320429D01*
X182802862Y-93314774D01*
X182743202Y-93278410D01*
X182712673Y-93215563D01*
X182720968Y-93146188D01*
X182765453Y-93092310D01*
X182802862Y-93075225D01*
X182946496Y-93036739D01*
X183152734Y-92940568D01*
X183339139Y-92810047D01*
X183500047Y-92649139D01*
X183630568Y-92462734D01*
X183726739Y-92256496D01*
X183785635Y-92036692D01*
X183805468Y-91810000D01*
X183801197Y-91761188D01*
X183796775Y-91710635D01*
X183785635Y-91583308D01*
X183726739Y-91363504D01*
X183630568Y-91157266D01*
X183500047Y-90970861D01*
X183500045Y-90970858D01*
X183339141Y-90809954D01*
X183152734Y-90679432D01*
X183152732Y-90679431D01*
X182946497Y-90583261D01*
X182946488Y-90583258D01*
X182823966Y-90550429D01*
X182802862Y-90544774D01*
X182743202Y-90508410D01*
X182712673Y-90445563D01*
X182720968Y-90376188D01*
X182765453Y-90322310D01*
X182802862Y-90305225D01*
X182946496Y-90266739D01*
X183152734Y-90170568D01*
X183339139Y-90040047D01*
X183500047Y-89879139D01*
X183630568Y-89692734D01*
X183726739Y-89486496D01*
X183785635Y-89266692D01*
X183805468Y-89040000D01*
X183785635Y-88813308D01*
X183726739Y-88593504D01*
X183630568Y-88387266D01*
X183500047Y-88200861D01*
X183500045Y-88200858D01*
X183339141Y-88039954D01*
X183152734Y-87909432D01*
X183152732Y-87909431D01*
X182946497Y-87813261D01*
X182946488Y-87813258D01*
X182726697Y-87754366D01*
X182726693Y-87754365D01*
X182726692Y-87754365D01*
X182726691Y-87754364D01*
X182726686Y-87754364D01*
X182500002Y-87734532D01*
X182499998Y-87734532D01*
X182273313Y-87754364D01*
X182273302Y-87754366D01*
X182053511Y-87813258D01*
X182053502Y-87813261D01*
X181847267Y-87909431D01*
X181847265Y-87909432D01*
X181660858Y-88039954D01*
X181499954Y-88200858D01*
X181369432Y-88387265D01*
X181369431Y-88387267D01*
X181273261Y-88593502D01*
X181273258Y-88593511D01*
X181214366Y-88813302D01*
X181214364Y-88813313D01*
X181194532Y-89039998D01*
X181194532Y-89040001D01*
X181214364Y-89266686D01*
X181214366Y-89266697D01*
X181273258Y-89486488D01*
X181273261Y-89486497D01*
X181369431Y-89692732D01*
X181369432Y-89692734D01*
X181499954Y-89879141D01*
X181660858Y-90040045D01*
X181660861Y-90040047D01*
X181847266Y-90170568D01*
X182053504Y-90266739D01*
X182053509Y-90266740D01*
X182053511Y-90266741D01*
X182197136Y-90305225D01*
X182256797Y-90341590D01*
X182287326Y-90404437D01*
X182279031Y-90473812D01*
X182234546Y-90527690D01*
X182197136Y-90544775D01*
X182053511Y-90583258D01*
X182053502Y-90583261D01*
X181847267Y-90679431D01*
X181847265Y-90679432D01*
X181660858Y-90809954D01*
X181499954Y-90970858D01*
X181369432Y-91157265D01*
X181369431Y-91157267D01*
X181273261Y-91363502D01*
X181273258Y-91363511D01*
X181214366Y-91583302D01*
X181214364Y-91583313D01*
X181194532Y-91809998D01*
X181194532Y-91810001D01*
X181214364Y-92036686D01*
X181214366Y-92036697D01*
X181273258Y-92256488D01*
X181273261Y-92256497D01*
X181369431Y-92462732D01*
X181369432Y-92462734D01*
X181499954Y-92649141D01*
X181660858Y-92810045D01*
X181660861Y-92810047D01*
X181847266Y-92940568D01*
X182053504Y-93036739D01*
X182053509Y-93036740D01*
X182053511Y-93036741D01*
X182197136Y-93075225D01*
X182256797Y-93111590D01*
X182287326Y-93174437D01*
X182279031Y-93243812D01*
X182234546Y-93297690D01*
X182197136Y-93314775D01*
X182053511Y-93353258D01*
X182053502Y-93353261D01*
X181847267Y-93449431D01*
X181847265Y-93449432D01*
X181660858Y-93579954D01*
X181499954Y-93740858D01*
X181369432Y-93927265D01*
X181369431Y-93927267D01*
X181273261Y-94133502D01*
X181273258Y-94133511D01*
X181214366Y-94353302D01*
X181214364Y-94353313D01*
X181194532Y-94579998D01*
X181194532Y-94580001D01*
X181214364Y-94806686D01*
X181214366Y-94806697D01*
X181273258Y-95026488D01*
X181273261Y-95026497D01*
X181369431Y-95232732D01*
X181369432Y-95232734D01*
X181499954Y-95419141D01*
X181660858Y-95580045D01*
X181660861Y-95580047D01*
X181847266Y-95710568D01*
X182053504Y-95806739D01*
X182053509Y-95806740D01*
X182053511Y-95806741D01*
X182197136Y-95845225D01*
X182256797Y-95881590D01*
X182287326Y-95944437D01*
X182279031Y-96013812D01*
X182234546Y-96067690D01*
X182197136Y-96084775D01*
X182053511Y-96123258D01*
X182053502Y-96123261D01*
X181847267Y-96219431D01*
X181847265Y-96219432D01*
X181660858Y-96349954D01*
X181499954Y-96510858D01*
X181369432Y-96697265D01*
X181369431Y-96697267D01*
X181273261Y-96903502D01*
X181273258Y-96903511D01*
X181214366Y-97123302D01*
X181214364Y-97123313D01*
X181194532Y-97349998D01*
X181194532Y-97350001D01*
X179875132Y-97350001D01*
X179880968Y-97301188D01*
X179925453Y-97247310D01*
X179962862Y-97230225D01*
X180106496Y-97191739D01*
X180312734Y-97095568D01*
X180499139Y-96965047D01*
X180660047Y-96804139D01*
X180790568Y-96617734D01*
X180886739Y-96411496D01*
X180945635Y-96191692D01*
X180965468Y-95965000D01*
X180961197Y-95916188D01*
X180945635Y-95738313D01*
X180945635Y-95738308D01*
X180886739Y-95518504D01*
X180790568Y-95312266D01*
X180660047Y-95125861D01*
X180660045Y-95125858D01*
X180499141Y-94964954D01*
X180312734Y-94834432D01*
X180312732Y-94834431D01*
X180106497Y-94738261D01*
X180106488Y-94738258D01*
X179886697Y-94679366D01*
X179886693Y-94679365D01*
X179886692Y-94679365D01*
X179886691Y-94679364D01*
X179886686Y-94679364D01*
X179660002Y-94659532D01*
X179659998Y-94659532D01*
X179433313Y-94679364D01*
X179433302Y-94679366D01*
X179213511Y-94738258D01*
X179213502Y-94738261D01*
X179007267Y-94834431D01*
X179007265Y-94834432D01*
X178820858Y-94964954D01*
X178659954Y-95125858D01*
X178529432Y-95312265D01*
X178529431Y-95312267D01*
X178433261Y-95518502D01*
X178433258Y-95518511D01*
X178374366Y-95738302D01*
X178374364Y-95738313D01*
X178354532Y-95964998D01*
X178354532Y-95965001D01*
X178374364Y-96191686D01*
X178374366Y-96191697D01*
X178433258Y-96411488D01*
X178433261Y-96411497D01*
X178529431Y-96617732D01*
X178529432Y-96617734D01*
X178659954Y-96804141D01*
X178820858Y-96965045D01*
X178820861Y-96965047D01*
X179007266Y-97095568D01*
X179213504Y-97191739D01*
X179213509Y-97191740D01*
X179213511Y-97191741D01*
X179357136Y-97230225D01*
X179416797Y-97266590D01*
X179447326Y-97329437D01*
X179439031Y-97398812D01*
X179394546Y-97452690D01*
X179357136Y-97469775D01*
X179213511Y-97508258D01*
X179213502Y-97508261D01*
X179007267Y-97604431D01*
X179007265Y-97604432D01*
X178820858Y-97734954D01*
X178659954Y-97895858D01*
X178529432Y-98082265D01*
X178529431Y-98082267D01*
X178433261Y-98288502D01*
X178433258Y-98288511D01*
X178374366Y-98508302D01*
X178374364Y-98508313D01*
X178354532Y-98734998D01*
X178354532Y-98735001D01*
X75750500Y-98735001D01*
X75750500Y-97350001D01*
X100304532Y-97350001D01*
X100324364Y-97576686D01*
X100324366Y-97576697D01*
X100383258Y-97796488D01*
X100383261Y-97796497D01*
X100479431Y-98002732D01*
X100479432Y-98002734D01*
X100609954Y-98189141D01*
X100770858Y-98350045D01*
X100770861Y-98350047D01*
X100957266Y-98480568D01*
X101163504Y-98576739D01*
X101383308Y-98635635D01*
X101545230Y-98649801D01*
X101609998Y-98655468D01*
X101610000Y-98655468D01*
X101610002Y-98655468D01*
X101666673Y-98650509D01*
X101836692Y-98635635D01*
X102056496Y-98576739D01*
X102262734Y-98480568D01*
X102449139Y-98350047D01*
X102610047Y-98189139D01*
X102740568Y-98002734D01*
X102836739Y-97796496D01*
X102895635Y-97576692D01*
X102915468Y-97350001D01*
X127267865Y-97350001D01*
X127287697Y-97576686D01*
X127287699Y-97576697D01*
X127346591Y-97796488D01*
X127346594Y-97796497D01*
X127442764Y-98002732D01*
X127442765Y-98002734D01*
X127573287Y-98189141D01*
X127734191Y-98350045D01*
X127734194Y-98350047D01*
X127920599Y-98480568D01*
X128126837Y-98576739D01*
X128346641Y-98635635D01*
X128508563Y-98649801D01*
X128573331Y-98655468D01*
X128573333Y-98655468D01*
X128573335Y-98655468D01*
X128630006Y-98650509D01*
X128800025Y-98635635D01*
X129019829Y-98576739D01*
X129226067Y-98480568D01*
X129412472Y-98350047D01*
X129573380Y-98189139D01*
X129703901Y-98002734D01*
X129800072Y-97796496D01*
X129858968Y-97576692D01*
X129878801Y-97350001D01*
X154231198Y-97350001D01*
X154251030Y-97576686D01*
X154251032Y-97576697D01*
X154309924Y-97796488D01*
X154309927Y-97796497D01*
X154406097Y-98002732D01*
X154406098Y-98002734D01*
X154536620Y-98189141D01*
X154697524Y-98350045D01*
X154697527Y-98350047D01*
X154883932Y-98480568D01*
X155090170Y-98576739D01*
X155309974Y-98635635D01*
X155471896Y-98649801D01*
X155536664Y-98655468D01*
X155536666Y-98655468D01*
X155536668Y-98655468D01*
X155593339Y-98650509D01*
X155763358Y-98635635D01*
X155983162Y-98576739D01*
X156189400Y-98480568D01*
X156375805Y-98350047D01*
X156536713Y-98189139D01*
X156667234Y-98002734D01*
X156763405Y-97796496D01*
X156822301Y-97576692D01*
X156842134Y-97350000D01*
X156837863Y-97301188D01*
X156833441Y-97250635D01*
X156822301Y-97123308D01*
X156763405Y-96903504D01*
X156667234Y-96697266D01*
X156536713Y-96510861D01*
X156536711Y-96510858D01*
X156375807Y-96349954D01*
X156189400Y-96219432D01*
X156189398Y-96219431D01*
X155983163Y-96123261D01*
X155983154Y-96123258D01*
X155860632Y-96090429D01*
X155839528Y-96084774D01*
X155779868Y-96048410D01*
X155749339Y-95985563D01*
X155757634Y-95916188D01*
X155802119Y-95862310D01*
X155839528Y-95845225D01*
X155983162Y-95806739D01*
X156189400Y-95710568D01*
X156375805Y-95580047D01*
X156536713Y-95419139D01*
X156667234Y-95232734D01*
X156763405Y-95026496D01*
X156822301Y-94806692D01*
X156842134Y-94580000D01*
X156837863Y-94531188D01*
X156822301Y-94353313D01*
X156822301Y-94353308D01*
X156763405Y-94133504D01*
X156667234Y-93927266D01*
X156536713Y-93740861D01*
X156536711Y-93740858D01*
X156375807Y-93579954D01*
X156189400Y-93449432D01*
X156189398Y-93449431D01*
X155983163Y-93353261D01*
X155983154Y-93353258D01*
X155860632Y-93320429D01*
X155839528Y-93314774D01*
X155779868Y-93278410D01*
X155749339Y-93215563D01*
X155757634Y-93146188D01*
X155802119Y-93092310D01*
X155839528Y-93075225D01*
X155983162Y-93036739D01*
X156189400Y-92940568D01*
X156375805Y-92810047D01*
X156536713Y-92649139D01*
X156667234Y-92462734D01*
X156763405Y-92256496D01*
X156822301Y-92036692D01*
X156842134Y-91810000D01*
X156837863Y-91761188D01*
X156833441Y-91710635D01*
X156822301Y-91583308D01*
X156763405Y-91363504D01*
X156667234Y-91157266D01*
X156536713Y-90970861D01*
X156536711Y-90970858D01*
X156375807Y-90809954D01*
X156189400Y-90679432D01*
X156189398Y-90679431D01*
X155983163Y-90583261D01*
X155983154Y-90583258D01*
X155860632Y-90550429D01*
X155839528Y-90544774D01*
X155779868Y-90508410D01*
X155749339Y-90445563D01*
X155751798Y-90425001D01*
X178354532Y-90425001D01*
X178374364Y-90651686D01*
X178374366Y-90651697D01*
X178433258Y-90871488D01*
X178433261Y-90871497D01*
X178529431Y-91077732D01*
X178529432Y-91077734D01*
X178659954Y-91264141D01*
X178820858Y-91425045D01*
X178820861Y-91425047D01*
X179007266Y-91555568D01*
X179213504Y-91651739D01*
X179433308Y-91710635D01*
X179595230Y-91724801D01*
X179659998Y-91730468D01*
X179660000Y-91730468D01*
X179660002Y-91730468D01*
X179716673Y-91725509D01*
X179886692Y-91710635D01*
X180106496Y-91651739D01*
X180312734Y-91555568D01*
X180499139Y-91425047D01*
X180660047Y-91264139D01*
X180790568Y-91077734D01*
X180886739Y-90871496D01*
X180945635Y-90651692D01*
X180965468Y-90425000D01*
X180961197Y-90376188D01*
X180945635Y-90198313D01*
X180945635Y-90198308D01*
X180886739Y-89978504D01*
X180790568Y-89772266D01*
X180660047Y-89585861D01*
X180660045Y-89585858D01*
X180499141Y-89424954D01*
X180312734Y-89294432D01*
X180312732Y-89294431D01*
X180106497Y-89198261D01*
X180101402Y-89196407D01*
X180102159Y-89194325D01*
X180050617Y-89162908D01*
X180020088Y-89100061D01*
X180028383Y-89030686D01*
X180072869Y-88976808D01*
X180139421Y-88955534D01*
X180142352Y-88955499D01*
X180507872Y-88955499D01*
X180567483Y-88949091D01*
X180702331Y-88898796D01*
X180817546Y-88812546D01*
X180903796Y-88697331D01*
X180954091Y-88562483D01*
X180960500Y-88502873D01*
X180960499Y-86807128D01*
X180954091Y-86747517D01*
X180903796Y-86612669D01*
X180903795Y-86612668D01*
X180903793Y-86612664D01*
X180817547Y-86497455D01*
X180817544Y-86497452D01*
X180702335Y-86411206D01*
X180702328Y-86411202D01*
X180567482Y-86360908D01*
X180567483Y-86360908D01*
X180507883Y-86354501D01*
X180507881Y-86354500D01*
X180507873Y-86354500D01*
X180507864Y-86354500D01*
X178812129Y-86354500D01*
X178812123Y-86354501D01*
X178752516Y-86360908D01*
X178617671Y-86411202D01*
X178617664Y-86411206D01*
X178502455Y-86497452D01*
X178502452Y-86497455D01*
X178416206Y-86612664D01*
X178416202Y-86612671D01*
X178365908Y-86747517D01*
X178359501Y-86807116D01*
X178359501Y-86807123D01*
X178359500Y-86807135D01*
X178359500Y-88502870D01*
X178359501Y-88502876D01*
X178365908Y-88562483D01*
X178416202Y-88697328D01*
X178416206Y-88697335D01*
X178502452Y-88812544D01*
X178502455Y-88812547D01*
X178617664Y-88898793D01*
X178617671Y-88898797D01*
X178752517Y-88949091D01*
X178752516Y-88949091D01*
X178759444Y-88949835D01*
X178812127Y-88955500D01*
X179177628Y-88955499D01*
X179244665Y-88975183D01*
X179290420Y-89027987D01*
X179300364Y-89097146D01*
X179271339Y-89160701D01*
X179218063Y-89194939D01*
X179218598Y-89196407D01*
X179213502Y-89198261D01*
X179007267Y-89294431D01*
X179007265Y-89294432D01*
X178820858Y-89424954D01*
X178659954Y-89585858D01*
X178529432Y-89772265D01*
X178529431Y-89772267D01*
X178433261Y-89978502D01*
X178433258Y-89978511D01*
X178374366Y-90198302D01*
X178374364Y-90198313D01*
X178354532Y-90424998D01*
X178354532Y-90425001D01*
X155751798Y-90425001D01*
X155757634Y-90376188D01*
X155802119Y-90322310D01*
X155839528Y-90305225D01*
X155983162Y-90266739D01*
X156189400Y-90170568D01*
X156375805Y-90040047D01*
X156536713Y-89879139D01*
X156667234Y-89692734D01*
X156763405Y-89486496D01*
X156822301Y-89266692D01*
X156842134Y-89040000D01*
X156822301Y-88813308D01*
X156763405Y-88593504D01*
X156667234Y-88387266D01*
X156536713Y-88200861D01*
X156536711Y-88200858D01*
X156375807Y-88039954D01*
X156189400Y-87909432D01*
X156189398Y-87909431D01*
X155983163Y-87813261D01*
X155983154Y-87813258D01*
X155763363Y-87754366D01*
X155763359Y-87754365D01*
X155763358Y-87754365D01*
X155763357Y-87754364D01*
X155763352Y-87754364D01*
X155536668Y-87734532D01*
X155536664Y-87734532D01*
X155309979Y-87754364D01*
X155309968Y-87754366D01*
X155090177Y-87813258D01*
X155090168Y-87813261D01*
X154883933Y-87909431D01*
X154883931Y-87909432D01*
X154697524Y-88039954D01*
X154536620Y-88200858D01*
X154406098Y-88387265D01*
X154406097Y-88387267D01*
X154309927Y-88593502D01*
X154309924Y-88593511D01*
X154251032Y-88813302D01*
X154251030Y-88813313D01*
X154231198Y-89039998D01*
X154231198Y-89040001D01*
X154251030Y-89266686D01*
X154251032Y-89266697D01*
X154309924Y-89486488D01*
X154309927Y-89486497D01*
X154406097Y-89692732D01*
X154406098Y-89692734D01*
X154536620Y-89879141D01*
X154697524Y-90040045D01*
X154697527Y-90040047D01*
X154883932Y-90170568D01*
X155090170Y-90266739D01*
X155090175Y-90266740D01*
X155090177Y-90266741D01*
X155233802Y-90305225D01*
X155293463Y-90341590D01*
X155323992Y-90404437D01*
X155315697Y-90473812D01*
X155271212Y-90527690D01*
X155233802Y-90544775D01*
X155090177Y-90583258D01*
X155090168Y-90583261D01*
X154883933Y-90679431D01*
X154883931Y-90679432D01*
X154697524Y-90809954D01*
X154536620Y-90970858D01*
X154406098Y-91157265D01*
X154406097Y-91157267D01*
X154309927Y-91363502D01*
X154309924Y-91363511D01*
X154251032Y-91583302D01*
X154251030Y-91583313D01*
X154231198Y-91809998D01*
X154231198Y-91810001D01*
X154251030Y-92036686D01*
X154251032Y-92036697D01*
X154309924Y-92256488D01*
X154309927Y-92256497D01*
X154406097Y-92462732D01*
X154406098Y-92462734D01*
X154536620Y-92649141D01*
X154697524Y-92810045D01*
X154697527Y-92810047D01*
X154883932Y-92940568D01*
X155090170Y-93036739D01*
X155090175Y-93036740D01*
X155090177Y-93036741D01*
X155233802Y-93075225D01*
X155293463Y-93111590D01*
X155323992Y-93174437D01*
X155315697Y-93243812D01*
X155271212Y-93297690D01*
X155233802Y-93314775D01*
X155090177Y-93353258D01*
X155090168Y-93353261D01*
X154883933Y-93449431D01*
X154883931Y-93449432D01*
X154697524Y-93579954D01*
X154536620Y-93740858D01*
X154406098Y-93927265D01*
X154406097Y-93927267D01*
X154309927Y-94133502D01*
X154309924Y-94133511D01*
X154251032Y-94353302D01*
X154251030Y-94353313D01*
X154231198Y-94579998D01*
X154231198Y-94580001D01*
X154251030Y-94806686D01*
X154251032Y-94806697D01*
X154309924Y-95026488D01*
X154309927Y-95026497D01*
X154406097Y-95232732D01*
X154406098Y-95232734D01*
X154536620Y-95419141D01*
X154697524Y-95580045D01*
X154697527Y-95580047D01*
X154883932Y-95710568D01*
X155090170Y-95806739D01*
X155090175Y-95806740D01*
X155090177Y-95806741D01*
X155233802Y-95845225D01*
X155293463Y-95881590D01*
X155323992Y-95944437D01*
X155315697Y-96013812D01*
X155271212Y-96067690D01*
X155233802Y-96084775D01*
X155090177Y-96123258D01*
X155090168Y-96123261D01*
X154883933Y-96219431D01*
X154883931Y-96219432D01*
X154697524Y-96349954D01*
X154536620Y-96510858D01*
X154406098Y-96697265D01*
X154406097Y-96697267D01*
X154309927Y-96903502D01*
X154309924Y-96903511D01*
X154251032Y-97123302D01*
X154251030Y-97123313D01*
X154231198Y-97349998D01*
X154231198Y-97350001D01*
X129878801Y-97350001D01*
X129878801Y-97350000D01*
X129874530Y-97301188D01*
X129870108Y-97250635D01*
X129858968Y-97123308D01*
X129800072Y-96903504D01*
X129703901Y-96697266D01*
X129573380Y-96510861D01*
X129573378Y-96510858D01*
X129412474Y-96349954D01*
X129226067Y-96219432D01*
X129226065Y-96219431D01*
X129019830Y-96123261D01*
X129019821Y-96123258D01*
X128897299Y-96090429D01*
X128876195Y-96084774D01*
X128816535Y-96048410D01*
X128786006Y-95985563D01*
X128788465Y-95965001D01*
X151391198Y-95965001D01*
X151411030Y-96191686D01*
X151411032Y-96191697D01*
X151469924Y-96411488D01*
X151469927Y-96411497D01*
X151566097Y-96617732D01*
X151566098Y-96617734D01*
X151696620Y-96804141D01*
X151857524Y-96965045D01*
X151857527Y-96965047D01*
X152043932Y-97095568D01*
X152250170Y-97191739D01*
X152469974Y-97250635D01*
X152631896Y-97264801D01*
X152696664Y-97270468D01*
X152696666Y-97270468D01*
X152696668Y-97270468D01*
X152753339Y-97265509D01*
X152923358Y-97250635D01*
X153143162Y-97191739D01*
X153349400Y-97095568D01*
X153535805Y-96965047D01*
X153696713Y-96804139D01*
X153827234Y-96617734D01*
X153923405Y-96411496D01*
X153982301Y-96191692D01*
X154002134Y-95965000D01*
X153997863Y-95916188D01*
X153982301Y-95738313D01*
X153982301Y-95738308D01*
X153923405Y-95518504D01*
X153827234Y-95312266D01*
X153696713Y-95125861D01*
X153696711Y-95125858D01*
X153535807Y-94964954D01*
X153349400Y-94834432D01*
X153349398Y-94834431D01*
X153143163Y-94738261D01*
X153143154Y-94738258D01*
X153020632Y-94705429D01*
X152999528Y-94699774D01*
X152939868Y-94663410D01*
X152909339Y-94600563D01*
X152917634Y-94531188D01*
X152962119Y-94477310D01*
X152999528Y-94460225D01*
X153143162Y-94421739D01*
X153349400Y-94325568D01*
X153535805Y-94195047D01*
X153696713Y-94034139D01*
X153827234Y-93847734D01*
X153923405Y-93641496D01*
X153982301Y-93421692D01*
X154002134Y-93195000D01*
X153997863Y-93146188D01*
X153982301Y-92968313D01*
X153982301Y-92968308D01*
X153923405Y-92748504D01*
X153827234Y-92542266D01*
X153696713Y-92355861D01*
X153696711Y-92355858D01*
X153535807Y-92194954D01*
X153349400Y-92064432D01*
X153349398Y-92064431D01*
X153143163Y-91968261D01*
X153143154Y-91968258D01*
X153020632Y-91935429D01*
X152999528Y-91929774D01*
X152939868Y-91893410D01*
X152909339Y-91830563D01*
X152917634Y-91761188D01*
X152962119Y-91707310D01*
X152999528Y-91690225D01*
X153143162Y-91651739D01*
X153349400Y-91555568D01*
X153535805Y-91425047D01*
X153696713Y-91264139D01*
X153827234Y-91077734D01*
X153923405Y-90871496D01*
X153982301Y-90651692D01*
X154002134Y-90425000D01*
X153997863Y-90376188D01*
X153982301Y-90198313D01*
X153982301Y-90198308D01*
X153923405Y-89978504D01*
X153827234Y-89772266D01*
X153696713Y-89585861D01*
X153696711Y-89585858D01*
X153535807Y-89424954D01*
X153349400Y-89294432D01*
X153349398Y-89294431D01*
X153143163Y-89198261D01*
X153138068Y-89196407D01*
X153138825Y-89194325D01*
X153087283Y-89162908D01*
X153056754Y-89100061D01*
X153065049Y-89030686D01*
X153109535Y-88976808D01*
X153176087Y-88955534D01*
X153179018Y-88955499D01*
X153544538Y-88955499D01*
X153604149Y-88949091D01*
X153738997Y-88898796D01*
X153854212Y-88812546D01*
X153940462Y-88697331D01*
X153990757Y-88562483D01*
X153997166Y-88502873D01*
X153997165Y-86807128D01*
X153990757Y-86747517D01*
X153940462Y-86612669D01*
X153940461Y-86612668D01*
X153940459Y-86612664D01*
X153854213Y-86497455D01*
X153854210Y-86497452D01*
X153739001Y-86411206D01*
X153738994Y-86411202D01*
X153604148Y-86360908D01*
X153604149Y-86360908D01*
X153544549Y-86354501D01*
X153544547Y-86354500D01*
X153544539Y-86354500D01*
X153544530Y-86354500D01*
X151848795Y-86354500D01*
X151848789Y-86354501D01*
X151789182Y-86360908D01*
X151654337Y-86411202D01*
X151654330Y-86411206D01*
X151539121Y-86497452D01*
X151539118Y-86497455D01*
X151452872Y-86612664D01*
X151452868Y-86612671D01*
X151402574Y-86747517D01*
X151396167Y-86807116D01*
X151396167Y-86807123D01*
X151396166Y-86807135D01*
X151396166Y-88502870D01*
X151396167Y-88502876D01*
X151402574Y-88562483D01*
X151452868Y-88697328D01*
X151452872Y-88697335D01*
X151539118Y-88812544D01*
X151539121Y-88812547D01*
X151654330Y-88898793D01*
X151654337Y-88898797D01*
X151789183Y-88949091D01*
X151789182Y-88949091D01*
X151796110Y-88949835D01*
X151848793Y-88955500D01*
X152214294Y-88955499D01*
X152281331Y-88975183D01*
X152327086Y-89027987D01*
X152337030Y-89097146D01*
X152308005Y-89160701D01*
X152254729Y-89194939D01*
X152255264Y-89196407D01*
X152250168Y-89198261D01*
X152043933Y-89294431D01*
X152043931Y-89294432D01*
X151857524Y-89424954D01*
X151696620Y-89585858D01*
X151566098Y-89772265D01*
X151566097Y-89772267D01*
X151469927Y-89978502D01*
X151469924Y-89978511D01*
X151411032Y-90198302D01*
X151411030Y-90198313D01*
X151391198Y-90424998D01*
X151391198Y-90425001D01*
X151411030Y-90651686D01*
X151411032Y-90651697D01*
X151469924Y-90871488D01*
X151469927Y-90871497D01*
X151566097Y-91077732D01*
X151566098Y-91077734D01*
X151696620Y-91264141D01*
X151857524Y-91425045D01*
X151857527Y-91425047D01*
X152043932Y-91555568D01*
X152250170Y-91651739D01*
X152250175Y-91651740D01*
X152250177Y-91651741D01*
X152393802Y-91690225D01*
X152453463Y-91726590D01*
X152483992Y-91789437D01*
X152475697Y-91858812D01*
X152431212Y-91912690D01*
X152393802Y-91929775D01*
X152250177Y-91968258D01*
X152250168Y-91968261D01*
X152043933Y-92064431D01*
X152043931Y-92064432D01*
X151857524Y-92194954D01*
X151696620Y-92355858D01*
X151566098Y-92542265D01*
X151566097Y-92542267D01*
X151469927Y-92748502D01*
X151469924Y-92748511D01*
X151411032Y-92968302D01*
X151411030Y-92968313D01*
X151391198Y-93194998D01*
X151391198Y-93195001D01*
X151411030Y-93421686D01*
X151411032Y-93421697D01*
X151469924Y-93641488D01*
X151469927Y-93641497D01*
X151566097Y-93847732D01*
X151566098Y-93847734D01*
X151696620Y-94034141D01*
X151857524Y-94195045D01*
X151857527Y-94195047D01*
X152043932Y-94325568D01*
X152250170Y-94421739D01*
X152250175Y-94421740D01*
X152250177Y-94421741D01*
X152393802Y-94460225D01*
X152453463Y-94496590D01*
X152483992Y-94559437D01*
X152475697Y-94628812D01*
X152431212Y-94682690D01*
X152393802Y-94699775D01*
X152250177Y-94738258D01*
X152250168Y-94738261D01*
X152043933Y-94834431D01*
X152043931Y-94834432D01*
X151857524Y-94964954D01*
X151696620Y-95125858D01*
X151566098Y-95312265D01*
X151566097Y-95312267D01*
X151469927Y-95518502D01*
X151469924Y-95518511D01*
X151411032Y-95738302D01*
X151411030Y-95738313D01*
X151391198Y-95964998D01*
X151391198Y-95965001D01*
X128788465Y-95965001D01*
X128794301Y-95916188D01*
X128838786Y-95862310D01*
X128876195Y-95845225D01*
X129019829Y-95806739D01*
X129226067Y-95710568D01*
X129412472Y-95580047D01*
X129573380Y-95419139D01*
X129703901Y-95232734D01*
X129800072Y-95026496D01*
X129858968Y-94806692D01*
X129878801Y-94580000D01*
X129874530Y-94531188D01*
X129858968Y-94353313D01*
X129858968Y-94353308D01*
X129800072Y-94133504D01*
X129703901Y-93927266D01*
X129573380Y-93740861D01*
X129573378Y-93740858D01*
X129412474Y-93579954D01*
X129226067Y-93449432D01*
X129226065Y-93449431D01*
X129019830Y-93353261D01*
X129019821Y-93353258D01*
X128897299Y-93320429D01*
X128876195Y-93314774D01*
X128816535Y-93278410D01*
X128786006Y-93215563D01*
X128794301Y-93146188D01*
X128838786Y-93092310D01*
X128876195Y-93075225D01*
X129019829Y-93036739D01*
X129226067Y-92940568D01*
X129412472Y-92810047D01*
X129573380Y-92649139D01*
X129703901Y-92462734D01*
X129800072Y-92256496D01*
X129858968Y-92036692D01*
X129878801Y-91810000D01*
X129874530Y-91761188D01*
X129870108Y-91710635D01*
X129858968Y-91583308D01*
X129800072Y-91363504D01*
X129703901Y-91157266D01*
X129573380Y-90970861D01*
X129573378Y-90970858D01*
X129412474Y-90809954D01*
X129226067Y-90679432D01*
X129226065Y-90679431D01*
X129019830Y-90583261D01*
X129019821Y-90583258D01*
X128897299Y-90550429D01*
X128876195Y-90544774D01*
X128816535Y-90508410D01*
X128786006Y-90445563D01*
X128794301Y-90376188D01*
X128838786Y-90322310D01*
X128876195Y-90305225D01*
X129019829Y-90266739D01*
X129226067Y-90170568D01*
X129412472Y-90040047D01*
X129573380Y-89879139D01*
X129703901Y-89692734D01*
X129800072Y-89486496D01*
X129858968Y-89266692D01*
X129878801Y-89040000D01*
X129858968Y-88813308D01*
X129800072Y-88593504D01*
X129703901Y-88387266D01*
X129573380Y-88200861D01*
X129573378Y-88200858D01*
X129412474Y-88039954D01*
X129226067Y-87909432D01*
X129226065Y-87909431D01*
X129019830Y-87813261D01*
X129019821Y-87813258D01*
X128800030Y-87754366D01*
X128800026Y-87754365D01*
X128800025Y-87754365D01*
X128800024Y-87754364D01*
X128800019Y-87754364D01*
X128573335Y-87734532D01*
X128573331Y-87734532D01*
X128346646Y-87754364D01*
X128346635Y-87754366D01*
X128126844Y-87813258D01*
X128126835Y-87813261D01*
X127920600Y-87909431D01*
X127920598Y-87909432D01*
X127734191Y-88039954D01*
X127573287Y-88200858D01*
X127442765Y-88387265D01*
X127442764Y-88387267D01*
X127346594Y-88593502D01*
X127346591Y-88593511D01*
X127287699Y-88813302D01*
X127287697Y-88813313D01*
X127267865Y-89039998D01*
X127267865Y-89040001D01*
X127287697Y-89266686D01*
X127287699Y-89266697D01*
X127346591Y-89486488D01*
X127346594Y-89486497D01*
X127442764Y-89692732D01*
X127442765Y-89692734D01*
X127573287Y-89879141D01*
X127734191Y-90040045D01*
X127734194Y-90040047D01*
X127920599Y-90170568D01*
X128126837Y-90266739D01*
X128126842Y-90266740D01*
X128126844Y-90266741D01*
X128270469Y-90305225D01*
X128330130Y-90341590D01*
X128360659Y-90404437D01*
X128352364Y-90473812D01*
X128307879Y-90527690D01*
X128270469Y-90544775D01*
X128126844Y-90583258D01*
X128126835Y-90583261D01*
X127920600Y-90679431D01*
X127920598Y-90679432D01*
X127734191Y-90809954D01*
X127573287Y-90970858D01*
X127442765Y-91157265D01*
X127442764Y-91157267D01*
X127346594Y-91363502D01*
X127346591Y-91363511D01*
X127287699Y-91583302D01*
X127287697Y-91583313D01*
X127267865Y-91809998D01*
X127267865Y-91810001D01*
X127287697Y-92036686D01*
X127287699Y-92036697D01*
X127346591Y-92256488D01*
X127346594Y-92256497D01*
X127442764Y-92462732D01*
X127442765Y-92462734D01*
X127573287Y-92649141D01*
X127734191Y-92810045D01*
X127734194Y-92810047D01*
X127920599Y-92940568D01*
X128126837Y-93036739D01*
X128126842Y-93036740D01*
X128126844Y-93036741D01*
X128270469Y-93075225D01*
X128330130Y-93111590D01*
X128360659Y-93174437D01*
X128352364Y-93243812D01*
X128307879Y-93297690D01*
X128270469Y-93314775D01*
X128126844Y-93353258D01*
X128126835Y-93353261D01*
X127920600Y-93449431D01*
X127920598Y-93449432D01*
X127734191Y-93579954D01*
X127573287Y-93740858D01*
X127442765Y-93927265D01*
X127442764Y-93927267D01*
X127346594Y-94133502D01*
X127346591Y-94133511D01*
X127287699Y-94353302D01*
X127287697Y-94353313D01*
X127267865Y-94579998D01*
X127267865Y-94580001D01*
X127287697Y-94806686D01*
X127287699Y-94806697D01*
X127346591Y-95026488D01*
X127346594Y-95026497D01*
X127442764Y-95232732D01*
X127442765Y-95232734D01*
X127573287Y-95419141D01*
X127734191Y-95580045D01*
X127734194Y-95580047D01*
X127920599Y-95710568D01*
X128126837Y-95806739D01*
X128126842Y-95806740D01*
X128126844Y-95806741D01*
X128270469Y-95845225D01*
X128330130Y-95881590D01*
X128360659Y-95944437D01*
X128352364Y-96013812D01*
X128307879Y-96067690D01*
X128270469Y-96084775D01*
X128126844Y-96123258D01*
X128126835Y-96123261D01*
X127920600Y-96219431D01*
X127920598Y-96219432D01*
X127734191Y-96349954D01*
X127573287Y-96510858D01*
X127442765Y-96697265D01*
X127442764Y-96697267D01*
X127346594Y-96903502D01*
X127346591Y-96903511D01*
X127287699Y-97123302D01*
X127287697Y-97123313D01*
X127267865Y-97349998D01*
X127267865Y-97350001D01*
X102915468Y-97350001D01*
X102915468Y-97350000D01*
X102911197Y-97301188D01*
X102906775Y-97250635D01*
X102895635Y-97123308D01*
X102836739Y-96903504D01*
X102740568Y-96697266D01*
X102610047Y-96510861D01*
X102610045Y-96510858D01*
X102449141Y-96349954D01*
X102262734Y-96219432D01*
X102262732Y-96219431D01*
X102056497Y-96123261D01*
X102056488Y-96123258D01*
X101933966Y-96090429D01*
X101912862Y-96084774D01*
X101853202Y-96048410D01*
X101822673Y-95985563D01*
X101825132Y-95965001D01*
X124427865Y-95965001D01*
X124447697Y-96191686D01*
X124447699Y-96191697D01*
X124506591Y-96411488D01*
X124506594Y-96411497D01*
X124602764Y-96617732D01*
X124602765Y-96617734D01*
X124733287Y-96804141D01*
X124894191Y-96965045D01*
X124894194Y-96965047D01*
X125080599Y-97095568D01*
X125286837Y-97191739D01*
X125506641Y-97250635D01*
X125668563Y-97264801D01*
X125733331Y-97270468D01*
X125733333Y-97270468D01*
X125733335Y-97270468D01*
X125790006Y-97265509D01*
X125960025Y-97250635D01*
X126179829Y-97191739D01*
X126386067Y-97095568D01*
X126572472Y-96965047D01*
X126733380Y-96804139D01*
X126863901Y-96617734D01*
X126960072Y-96411496D01*
X127018968Y-96191692D01*
X127038801Y-95965000D01*
X127034530Y-95916188D01*
X127018968Y-95738313D01*
X127018968Y-95738308D01*
X126960072Y-95518504D01*
X126863901Y-95312266D01*
X126733380Y-95125861D01*
X126733378Y-95125858D01*
X126572474Y-94964954D01*
X126386067Y-94834432D01*
X126386065Y-94834431D01*
X126179830Y-94738261D01*
X126179821Y-94738258D01*
X126057299Y-94705429D01*
X126036195Y-94699774D01*
X125976535Y-94663410D01*
X125946006Y-94600563D01*
X125954301Y-94531188D01*
X125998786Y-94477310D01*
X126036195Y-94460225D01*
X126179829Y-94421739D01*
X126386067Y-94325568D01*
X126572472Y-94195047D01*
X126733380Y-94034139D01*
X126863901Y-93847734D01*
X126960072Y-93641496D01*
X127018968Y-93421692D01*
X127038801Y-93195000D01*
X127034530Y-93146188D01*
X127018968Y-92968313D01*
X127018968Y-92968308D01*
X126960072Y-92748504D01*
X126863901Y-92542266D01*
X126733380Y-92355861D01*
X126733378Y-92355858D01*
X126572474Y-92194954D01*
X126386067Y-92064432D01*
X126386065Y-92064431D01*
X126179830Y-91968261D01*
X126179821Y-91968258D01*
X126057299Y-91935429D01*
X126036195Y-91929774D01*
X125976535Y-91893410D01*
X125946006Y-91830563D01*
X125954301Y-91761188D01*
X125998786Y-91707310D01*
X126036195Y-91690225D01*
X126179829Y-91651739D01*
X126386067Y-91555568D01*
X126572472Y-91425047D01*
X126733380Y-91264139D01*
X126863901Y-91077734D01*
X126960072Y-90871496D01*
X127018968Y-90651692D01*
X127038801Y-90425000D01*
X127034530Y-90376188D01*
X127018968Y-90198313D01*
X127018968Y-90198308D01*
X126960072Y-89978504D01*
X126863901Y-89772266D01*
X126733380Y-89585861D01*
X126733378Y-89585858D01*
X126572474Y-89424954D01*
X126386067Y-89294432D01*
X126386065Y-89294431D01*
X126179830Y-89198261D01*
X126174735Y-89196407D01*
X126175492Y-89194325D01*
X126123950Y-89162908D01*
X126093421Y-89100061D01*
X126101716Y-89030686D01*
X126146202Y-88976808D01*
X126212754Y-88955534D01*
X126215685Y-88955499D01*
X126581205Y-88955499D01*
X126640816Y-88949091D01*
X126775664Y-88898796D01*
X126890879Y-88812546D01*
X126977129Y-88697331D01*
X127027424Y-88562483D01*
X127033833Y-88502873D01*
X127033832Y-86807128D01*
X127027424Y-86747517D01*
X126977129Y-86612669D01*
X126977128Y-86612668D01*
X126977126Y-86612664D01*
X126890880Y-86497455D01*
X126890877Y-86497452D01*
X126775668Y-86411206D01*
X126775661Y-86411202D01*
X126640815Y-86360908D01*
X126640816Y-86360908D01*
X126581216Y-86354501D01*
X126581214Y-86354500D01*
X126581206Y-86354500D01*
X126581197Y-86354500D01*
X124885462Y-86354500D01*
X124885456Y-86354501D01*
X124825849Y-86360908D01*
X124691004Y-86411202D01*
X124690997Y-86411206D01*
X124575788Y-86497452D01*
X124575785Y-86497455D01*
X124489539Y-86612664D01*
X124489535Y-86612671D01*
X124439241Y-86747517D01*
X124432834Y-86807116D01*
X124432834Y-86807123D01*
X124432833Y-86807135D01*
X124432833Y-88502870D01*
X124432834Y-88502876D01*
X124439241Y-88562483D01*
X124489535Y-88697328D01*
X124489539Y-88697335D01*
X124575785Y-88812544D01*
X124575788Y-88812547D01*
X124690997Y-88898793D01*
X124691004Y-88898797D01*
X124825850Y-88949091D01*
X124825849Y-88949091D01*
X124832777Y-88949835D01*
X124885460Y-88955500D01*
X125250961Y-88955499D01*
X125317998Y-88975183D01*
X125363753Y-89027987D01*
X125373697Y-89097146D01*
X125344672Y-89160701D01*
X125291396Y-89194939D01*
X125291931Y-89196407D01*
X125286835Y-89198261D01*
X125080600Y-89294431D01*
X125080598Y-89294432D01*
X124894191Y-89424954D01*
X124733287Y-89585858D01*
X124602765Y-89772265D01*
X124602764Y-89772267D01*
X124506594Y-89978502D01*
X124506591Y-89978511D01*
X124447699Y-90198302D01*
X124447697Y-90198313D01*
X124427865Y-90424998D01*
X124427865Y-90425001D01*
X124447697Y-90651686D01*
X124447699Y-90651697D01*
X124506591Y-90871488D01*
X124506594Y-90871497D01*
X124602764Y-91077732D01*
X124602765Y-91077734D01*
X124733287Y-91264141D01*
X124894191Y-91425045D01*
X124894194Y-91425047D01*
X125080599Y-91555568D01*
X125286837Y-91651739D01*
X125286842Y-91651740D01*
X125286844Y-91651741D01*
X125430469Y-91690225D01*
X125490130Y-91726590D01*
X125520659Y-91789437D01*
X125512364Y-91858812D01*
X125467879Y-91912690D01*
X125430469Y-91929775D01*
X125286844Y-91968258D01*
X125286835Y-91968261D01*
X125080600Y-92064431D01*
X125080598Y-92064432D01*
X124894191Y-92194954D01*
X124733287Y-92355858D01*
X124602765Y-92542265D01*
X124602764Y-92542267D01*
X124506594Y-92748502D01*
X124506591Y-92748511D01*
X124447699Y-92968302D01*
X124447697Y-92968313D01*
X124427865Y-93194998D01*
X124427865Y-93195001D01*
X124447697Y-93421686D01*
X124447699Y-93421697D01*
X124506591Y-93641488D01*
X124506594Y-93641497D01*
X124602764Y-93847732D01*
X124602765Y-93847734D01*
X124733287Y-94034141D01*
X124894191Y-94195045D01*
X124894194Y-94195047D01*
X125080599Y-94325568D01*
X125286837Y-94421739D01*
X125286842Y-94421740D01*
X125286844Y-94421741D01*
X125430469Y-94460225D01*
X125490130Y-94496590D01*
X125520659Y-94559437D01*
X125512364Y-94628812D01*
X125467879Y-94682690D01*
X125430469Y-94699775D01*
X125286844Y-94738258D01*
X125286835Y-94738261D01*
X125080600Y-94834431D01*
X125080598Y-94834432D01*
X124894191Y-94964954D01*
X124733287Y-95125858D01*
X124602765Y-95312265D01*
X124602764Y-95312267D01*
X124506594Y-95518502D01*
X124506591Y-95518511D01*
X124447699Y-95738302D01*
X124447697Y-95738313D01*
X124427865Y-95964998D01*
X124427865Y-95965001D01*
X101825132Y-95965001D01*
X101830968Y-95916188D01*
X101875453Y-95862310D01*
X101912862Y-95845225D01*
X102056496Y-95806739D01*
X102262734Y-95710568D01*
X102449139Y-95580047D01*
X102610047Y-95419139D01*
X102740568Y-95232734D01*
X102836739Y-95026496D01*
X102895635Y-94806692D01*
X102915468Y-94580000D01*
X102911197Y-94531188D01*
X102895635Y-94353313D01*
X102895635Y-94353308D01*
X102836739Y-94133504D01*
X102740568Y-93927266D01*
X102610047Y-93740861D01*
X102610045Y-93740858D01*
X102449141Y-93579954D01*
X102262734Y-93449432D01*
X102262732Y-93449431D01*
X102056497Y-93353261D01*
X102056488Y-93353258D01*
X101933966Y-93320429D01*
X101912862Y-93314774D01*
X101853202Y-93278410D01*
X101822673Y-93215563D01*
X101830968Y-93146188D01*
X101875453Y-93092310D01*
X101912862Y-93075225D01*
X102056496Y-93036739D01*
X102262734Y-92940568D01*
X102449139Y-92810047D01*
X102610047Y-92649139D01*
X102740568Y-92462734D01*
X102836739Y-92256496D01*
X102895635Y-92036692D01*
X102915468Y-91810000D01*
X102911197Y-91761188D01*
X102906775Y-91710635D01*
X102895635Y-91583308D01*
X102836739Y-91363504D01*
X102740568Y-91157266D01*
X102610047Y-90970861D01*
X102610045Y-90970858D01*
X102449141Y-90809954D01*
X102262734Y-90679432D01*
X102262732Y-90679431D01*
X102056497Y-90583261D01*
X102056488Y-90583258D01*
X101933966Y-90550429D01*
X101912862Y-90544774D01*
X101853202Y-90508410D01*
X101822673Y-90445563D01*
X101830968Y-90376188D01*
X101875453Y-90322310D01*
X101912862Y-90305225D01*
X102056496Y-90266739D01*
X102262734Y-90170568D01*
X102449139Y-90040047D01*
X102610047Y-89879139D01*
X102740568Y-89692734D01*
X102836739Y-89486496D01*
X102895635Y-89266692D01*
X102915468Y-89040000D01*
X102895635Y-88813308D01*
X102836739Y-88593504D01*
X102740568Y-88387266D01*
X102610047Y-88200861D01*
X102610045Y-88200858D01*
X102449141Y-88039954D01*
X102262734Y-87909432D01*
X102262732Y-87909431D01*
X102056497Y-87813261D01*
X102056488Y-87813258D01*
X101836697Y-87754366D01*
X101836693Y-87754365D01*
X101836692Y-87754365D01*
X101836691Y-87754364D01*
X101836686Y-87754364D01*
X101610002Y-87734532D01*
X101609998Y-87734532D01*
X101383313Y-87754364D01*
X101383302Y-87754366D01*
X101163511Y-87813258D01*
X101163502Y-87813261D01*
X100957267Y-87909431D01*
X100957265Y-87909432D01*
X100770858Y-88039954D01*
X100609954Y-88200858D01*
X100479432Y-88387265D01*
X100479431Y-88387267D01*
X100383261Y-88593502D01*
X100383258Y-88593511D01*
X100324366Y-88813302D01*
X100324364Y-88813313D01*
X100304532Y-89039998D01*
X100304532Y-89040001D01*
X100324364Y-89266686D01*
X100324366Y-89266697D01*
X100383258Y-89486488D01*
X100383261Y-89486497D01*
X100479431Y-89692732D01*
X100479432Y-89692734D01*
X100609954Y-89879141D01*
X100770858Y-90040045D01*
X100770861Y-90040047D01*
X100957266Y-90170568D01*
X101163504Y-90266739D01*
X101163509Y-90266740D01*
X101163511Y-90266741D01*
X101307136Y-90305225D01*
X101366797Y-90341590D01*
X101397326Y-90404437D01*
X101389031Y-90473812D01*
X101344546Y-90527690D01*
X101307136Y-90544775D01*
X101163511Y-90583258D01*
X101163502Y-90583261D01*
X100957267Y-90679431D01*
X100957265Y-90679432D01*
X100770858Y-90809954D01*
X100609954Y-90970858D01*
X100479432Y-91157265D01*
X100479431Y-91157267D01*
X100383261Y-91363502D01*
X100383258Y-91363511D01*
X100324366Y-91583302D01*
X100324364Y-91583313D01*
X100304532Y-91809998D01*
X100304532Y-91810001D01*
X100324364Y-92036686D01*
X100324366Y-92036697D01*
X100383258Y-92256488D01*
X100383261Y-92256497D01*
X100479431Y-92462732D01*
X100479432Y-92462734D01*
X100609954Y-92649141D01*
X100770858Y-92810045D01*
X100770861Y-92810047D01*
X100957266Y-92940568D01*
X101163504Y-93036739D01*
X101163509Y-93036740D01*
X101163511Y-93036741D01*
X101307136Y-93075225D01*
X101366797Y-93111590D01*
X101397326Y-93174437D01*
X101389031Y-93243812D01*
X101344546Y-93297690D01*
X101307136Y-93314775D01*
X101163511Y-93353258D01*
X101163502Y-93353261D01*
X100957267Y-93449431D01*
X100957265Y-93449432D01*
X100770858Y-93579954D01*
X100609954Y-93740858D01*
X100479432Y-93927265D01*
X100479431Y-93927267D01*
X100383261Y-94133502D01*
X100383258Y-94133511D01*
X100324366Y-94353302D01*
X100324364Y-94353313D01*
X100304532Y-94579998D01*
X100304532Y-94580001D01*
X100324364Y-94806686D01*
X100324366Y-94806697D01*
X100383258Y-95026488D01*
X100383261Y-95026497D01*
X100479431Y-95232732D01*
X100479432Y-95232734D01*
X100609954Y-95419141D01*
X100770858Y-95580045D01*
X100770861Y-95580047D01*
X100957266Y-95710568D01*
X101163504Y-95806739D01*
X101163509Y-95806740D01*
X101163511Y-95806741D01*
X101307136Y-95845225D01*
X101366797Y-95881590D01*
X101397326Y-95944437D01*
X101389031Y-96013812D01*
X101344546Y-96067690D01*
X101307136Y-96084775D01*
X101163511Y-96123258D01*
X101163502Y-96123261D01*
X100957267Y-96219431D01*
X100957265Y-96219432D01*
X100770858Y-96349954D01*
X100609954Y-96510858D01*
X100479432Y-96697265D01*
X100479431Y-96697267D01*
X100383261Y-96903502D01*
X100383258Y-96903511D01*
X100324366Y-97123302D01*
X100324364Y-97123313D01*
X100304532Y-97349998D01*
X100304532Y-97350001D01*
X75750500Y-97350001D01*
X75750500Y-95965001D01*
X97464532Y-95965001D01*
X97484364Y-96191686D01*
X97484366Y-96191697D01*
X97543258Y-96411488D01*
X97543261Y-96411497D01*
X97639431Y-96617732D01*
X97639432Y-96617734D01*
X97769954Y-96804141D01*
X97930858Y-96965045D01*
X97930861Y-96965047D01*
X98117266Y-97095568D01*
X98323504Y-97191739D01*
X98543308Y-97250635D01*
X98705230Y-97264801D01*
X98769998Y-97270468D01*
X98770000Y-97270468D01*
X98770002Y-97270468D01*
X98826673Y-97265509D01*
X98996692Y-97250635D01*
X99216496Y-97191739D01*
X99422734Y-97095568D01*
X99609139Y-96965047D01*
X99770047Y-96804139D01*
X99900568Y-96617734D01*
X99996739Y-96411496D01*
X100055635Y-96191692D01*
X100075468Y-95965000D01*
X100071197Y-95916188D01*
X100055635Y-95738313D01*
X100055635Y-95738308D01*
X99996739Y-95518504D01*
X99900568Y-95312266D01*
X99770047Y-95125861D01*
X99770045Y-95125858D01*
X99609141Y-94964954D01*
X99422734Y-94834432D01*
X99422732Y-94834431D01*
X99216497Y-94738261D01*
X99216488Y-94738258D01*
X99093966Y-94705429D01*
X99072862Y-94699774D01*
X99013202Y-94663410D01*
X98982673Y-94600563D01*
X98990968Y-94531188D01*
X99035453Y-94477310D01*
X99072862Y-94460225D01*
X99216496Y-94421739D01*
X99422734Y-94325568D01*
X99609139Y-94195047D01*
X99770047Y-94034139D01*
X99900568Y-93847734D01*
X99996739Y-93641496D01*
X100055635Y-93421692D01*
X100075468Y-93195000D01*
X100071197Y-93146188D01*
X100055635Y-92968313D01*
X100055635Y-92968308D01*
X99996739Y-92748504D01*
X99900568Y-92542266D01*
X99770047Y-92355861D01*
X99770045Y-92355858D01*
X99609141Y-92194954D01*
X99422734Y-92064432D01*
X99422732Y-92064431D01*
X99216497Y-91968261D01*
X99216488Y-91968258D01*
X99093966Y-91935429D01*
X99072862Y-91929774D01*
X99013202Y-91893410D01*
X98982673Y-91830563D01*
X98990968Y-91761188D01*
X99035453Y-91707310D01*
X99072862Y-91690225D01*
X99216496Y-91651739D01*
X99422734Y-91555568D01*
X99609139Y-91425047D01*
X99770047Y-91264139D01*
X99900568Y-91077734D01*
X99996739Y-90871496D01*
X100055635Y-90651692D01*
X100075468Y-90425000D01*
X100071197Y-90376188D01*
X100055635Y-90198313D01*
X100055635Y-90198308D01*
X99996739Y-89978504D01*
X99900568Y-89772266D01*
X99770047Y-89585861D01*
X99770045Y-89585858D01*
X99609141Y-89424954D01*
X99422734Y-89294432D01*
X99422732Y-89294431D01*
X99216497Y-89198261D01*
X99211402Y-89196407D01*
X99212159Y-89194325D01*
X99160617Y-89162908D01*
X99130088Y-89100061D01*
X99138383Y-89030686D01*
X99182869Y-88976808D01*
X99249421Y-88955534D01*
X99252352Y-88955499D01*
X99617872Y-88955499D01*
X99677483Y-88949091D01*
X99812331Y-88898796D01*
X99927546Y-88812546D01*
X100013796Y-88697331D01*
X100064091Y-88562483D01*
X100070500Y-88502873D01*
X100070499Y-86807128D01*
X100064091Y-86747517D01*
X100013796Y-86612669D01*
X100013795Y-86612668D01*
X100013793Y-86612664D01*
X99927547Y-86497455D01*
X99927544Y-86497452D01*
X99812335Y-86411206D01*
X99812328Y-86411202D01*
X99677482Y-86360908D01*
X99677483Y-86360908D01*
X99617883Y-86354501D01*
X99617881Y-86354500D01*
X99617873Y-86354500D01*
X99617864Y-86354500D01*
X97922129Y-86354500D01*
X97922123Y-86354501D01*
X97862516Y-86360908D01*
X97727671Y-86411202D01*
X97727664Y-86411206D01*
X97612455Y-86497452D01*
X97612452Y-86497455D01*
X97526206Y-86612664D01*
X97526202Y-86612671D01*
X97475908Y-86747517D01*
X97469501Y-86807116D01*
X97469501Y-86807123D01*
X97469500Y-86807135D01*
X97469500Y-88502870D01*
X97469501Y-88502876D01*
X97475908Y-88562483D01*
X97526202Y-88697328D01*
X97526206Y-88697335D01*
X97612452Y-88812544D01*
X97612455Y-88812547D01*
X97727664Y-88898793D01*
X97727671Y-88898797D01*
X97862517Y-88949091D01*
X97862516Y-88949091D01*
X97869444Y-88949835D01*
X97922127Y-88955500D01*
X98287628Y-88955499D01*
X98354665Y-88975183D01*
X98400420Y-89027987D01*
X98410364Y-89097146D01*
X98381339Y-89160701D01*
X98328063Y-89194939D01*
X98328598Y-89196407D01*
X98323502Y-89198261D01*
X98117267Y-89294431D01*
X98117265Y-89294432D01*
X97930858Y-89424954D01*
X97769954Y-89585858D01*
X97639432Y-89772265D01*
X97639431Y-89772267D01*
X97543261Y-89978502D01*
X97543258Y-89978511D01*
X97484366Y-90198302D01*
X97484364Y-90198313D01*
X97464532Y-90424998D01*
X97464532Y-90425001D01*
X97484364Y-90651686D01*
X97484366Y-90651697D01*
X97543258Y-90871488D01*
X97543261Y-90871497D01*
X97639431Y-91077732D01*
X97639432Y-91077734D01*
X97769954Y-91264141D01*
X97930858Y-91425045D01*
X97930861Y-91425047D01*
X98117266Y-91555568D01*
X98323504Y-91651739D01*
X98323509Y-91651740D01*
X98323511Y-91651741D01*
X98467136Y-91690225D01*
X98526797Y-91726590D01*
X98557326Y-91789437D01*
X98549031Y-91858812D01*
X98504546Y-91912690D01*
X98467136Y-91929775D01*
X98323511Y-91968258D01*
X98323502Y-91968261D01*
X98117267Y-92064431D01*
X98117265Y-92064432D01*
X97930858Y-92194954D01*
X97769954Y-92355858D01*
X97639432Y-92542265D01*
X97639431Y-92542267D01*
X97543261Y-92748502D01*
X97543258Y-92748511D01*
X97484366Y-92968302D01*
X97484364Y-92968313D01*
X97464532Y-93194998D01*
X97464532Y-93195001D01*
X97484364Y-93421686D01*
X97484366Y-93421697D01*
X97543258Y-93641488D01*
X97543261Y-93641497D01*
X97639431Y-93847732D01*
X97639432Y-93847734D01*
X97769954Y-94034141D01*
X97930858Y-94195045D01*
X97930861Y-94195047D01*
X98117266Y-94325568D01*
X98323504Y-94421739D01*
X98323509Y-94421740D01*
X98323511Y-94421741D01*
X98467136Y-94460225D01*
X98526797Y-94496590D01*
X98557326Y-94559437D01*
X98549031Y-94628812D01*
X98504546Y-94682690D01*
X98467136Y-94699775D01*
X98323511Y-94738258D01*
X98323502Y-94738261D01*
X98117267Y-94834431D01*
X98117265Y-94834432D01*
X97930858Y-94964954D01*
X97769954Y-95125858D01*
X97639432Y-95312265D01*
X97639431Y-95312267D01*
X97543261Y-95518502D01*
X97543258Y-95518511D01*
X97484366Y-95738302D01*
X97484364Y-95738313D01*
X97464532Y-95964998D01*
X97464532Y-95965001D01*
X75750500Y-95965001D01*
X75750500Y-72414500D01*
X75770185Y-72347461D01*
X75822989Y-72301706D01*
X75874500Y-72290500D01*
X230606059Y-72290500D01*
X230673098Y-72310185D01*
G37*
%TD.AperFunction*%
%TD*%
M02*
