%TF.GenerationSoftware,KiCad,Pcbnew,7.0.10*%
%TF.CreationDate,2024-07-06T13:48:58+02:00*%
%TF.ProjectId,OverlordInterface,4f766572-6c6f-4726-9449-6e7465726661,rev?*%
%TF.SameCoordinates,Original*%
%TF.FileFunction,Soldermask,Top*%
%TF.FilePolarity,Negative*%
%FSLAX46Y46*%
G04 Gerber Fmt 4.6, Leading zero omitted, Abs format (unit mm)*
G04 Created by KiCad (PCBNEW 7.0.10) date 2024-07-06 13:48:58*
%MOMM*%
%LPD*%
G01*
G04 APERTURE LIST*
%ADD10R,1.800000X1.800000*%
%ADD11C,1.800000*%
%ADD12C,4.000000*%
%ADD13R,1.600000X1.600000*%
%ADD14C,1.600000*%
G04 APERTURE END LIST*
D10*
%TO.C,D2*%
X211830000Y-91055000D03*
D11*
X211830000Y-93595000D03*
%TD*%
D10*
%TO.C,D1*%
X221830000Y-91055000D03*
D11*
X221830000Y-93595000D03*
%TD*%
D12*
%TO.C,J5*%
X100190000Y-105695000D03*
X100190000Y-80695000D03*
D13*
X98770000Y-87655000D03*
D14*
X98770000Y-90425000D03*
X98770000Y-93195000D03*
X98770000Y-95965000D03*
X98770000Y-98735000D03*
X101610000Y-89040000D03*
X101610000Y-91810000D03*
X101610000Y-94580000D03*
X101610000Y-97350000D03*
%TD*%
D12*
%TO.C,J2*%
X181080000Y-105695000D03*
X181080000Y-80695000D03*
D13*
X179660000Y-87655000D03*
D14*
X179660000Y-90425000D03*
X179660000Y-93195000D03*
X179660000Y-95965000D03*
X179660000Y-98735000D03*
X182500000Y-89040000D03*
X182500000Y-91810000D03*
X182500000Y-94580000D03*
X182500000Y-97350000D03*
%TD*%
D12*
%TO.C,J4*%
X127153333Y-105695000D03*
X127153333Y-80695000D03*
D13*
X125733333Y-87655000D03*
D14*
X125733333Y-90425000D03*
X125733333Y-93195000D03*
X125733333Y-95965000D03*
X125733333Y-98735000D03*
X128573333Y-89040000D03*
X128573333Y-91810000D03*
X128573333Y-94580000D03*
X128573333Y-97350000D03*
%TD*%
D12*
%TO.C,J3*%
X154116666Y-105695000D03*
X154116666Y-80695000D03*
D13*
X152696666Y-87655000D03*
D14*
X152696666Y-90425000D03*
X152696666Y-93195000D03*
X152696666Y-95965000D03*
X152696666Y-98735000D03*
X155536666Y-89040000D03*
X155536666Y-91810000D03*
X155536666Y-94580000D03*
X155536666Y-97350000D03*
%TD*%
D10*
%TO.C,D3*%
X201830000Y-91055000D03*
D11*
X201830000Y-93595000D03*
%TD*%
M02*
