%TF.GenerationSoftware,KiCad,Pcbnew,8.0.8*%
%TF.CreationDate,2025-02-25T19:49:39+01:00*%
%TF.ProjectId,Overlord,4f766572-6c6f-4726-942e-6b696361645f,rev?*%
%TF.SameCoordinates,Original*%
%TF.FileFunction,Drillmap*%
%TF.FilePolarity,Positive*%
%FSLAX45Y45*%
G04 Gerber Fmt 4.5, Leading zero omitted, Abs format (unit mm)*
G04 Created by KiCad (PCBNEW 8.0.8) date 2025-02-25 19:49:39*
%MOMM*%
%LPD*%
G01*
G04 APERTURE LIST*
%ADD10C,0.050000*%
%ADD11C,0.200000*%
%ADD12C,0.150000*%
G04 APERTURE END LIST*
D10*
X2510000Y-11160000D02*
X2510000Y-2530000D01*
X2510000Y-2530000D02*
X18080000Y-2530000D01*
X18080000Y-2530000D02*
X18080000Y-11160000D01*
X18080000Y-11160000D02*
X2510000Y-11160000D01*
D11*
D12*
X15765000Y-8743000D02*
X15915000Y-8893000D01*
X15915000Y-8743000D02*
X15765000Y-8893000D01*
X17522000Y-8743000D02*
X17672000Y-8893000D01*
X17672000Y-8743000D02*
X17522000Y-8893000D01*
D11*
X2768277Y-11473984D02*
X2768277Y-11273984D01*
X2768277Y-11273984D02*
X2815896Y-11273984D01*
X2815896Y-11273984D02*
X2844467Y-11283508D01*
X2844467Y-11283508D02*
X2863515Y-11302555D01*
X2863515Y-11302555D02*
X2873039Y-11321603D01*
X2873039Y-11321603D02*
X2882562Y-11359698D01*
X2882562Y-11359698D02*
X2882562Y-11388269D01*
X2882562Y-11388269D02*
X2873039Y-11426365D01*
X2873039Y-11426365D02*
X2863515Y-11445412D01*
X2863515Y-11445412D02*
X2844467Y-11464460D01*
X2844467Y-11464460D02*
X2815896Y-11473984D01*
X2815896Y-11473984D02*
X2768277Y-11473984D01*
X2968277Y-11473984D02*
X2968277Y-11340650D01*
X2968277Y-11378746D02*
X2977801Y-11359698D01*
X2977801Y-11359698D02*
X2987324Y-11350174D01*
X2987324Y-11350174D02*
X3006372Y-11340650D01*
X3006372Y-11340650D02*
X3025420Y-11340650D01*
X3092086Y-11473984D02*
X3092086Y-11340650D01*
X3092086Y-11273984D02*
X3082562Y-11283508D01*
X3082562Y-11283508D02*
X3092086Y-11293031D01*
X3092086Y-11293031D02*
X3101610Y-11283508D01*
X3101610Y-11283508D02*
X3092086Y-11273984D01*
X3092086Y-11273984D02*
X3092086Y-11293031D01*
X3215896Y-11473984D02*
X3196848Y-11464460D01*
X3196848Y-11464460D02*
X3187324Y-11445412D01*
X3187324Y-11445412D02*
X3187324Y-11273984D01*
X3320658Y-11473984D02*
X3301610Y-11464460D01*
X3301610Y-11464460D02*
X3292086Y-11445412D01*
X3292086Y-11445412D02*
X3292086Y-11273984D01*
X3549229Y-11473984D02*
X3549229Y-11273984D01*
X3549229Y-11273984D02*
X3615896Y-11416841D01*
X3615896Y-11416841D02*
X3682562Y-11273984D01*
X3682562Y-11273984D02*
X3682562Y-11473984D01*
X3863515Y-11473984D02*
X3863515Y-11369222D01*
X3863515Y-11369222D02*
X3853991Y-11350174D01*
X3853991Y-11350174D02*
X3834943Y-11340650D01*
X3834943Y-11340650D02*
X3796848Y-11340650D01*
X3796848Y-11340650D02*
X3777801Y-11350174D01*
X3863515Y-11464460D02*
X3844467Y-11473984D01*
X3844467Y-11473984D02*
X3796848Y-11473984D01*
X3796848Y-11473984D02*
X3777801Y-11464460D01*
X3777801Y-11464460D02*
X3768277Y-11445412D01*
X3768277Y-11445412D02*
X3768277Y-11426365D01*
X3768277Y-11426365D02*
X3777801Y-11407317D01*
X3777801Y-11407317D02*
X3796848Y-11397793D01*
X3796848Y-11397793D02*
X3844467Y-11397793D01*
X3844467Y-11397793D02*
X3863515Y-11388269D01*
X3958753Y-11340650D02*
X3958753Y-11540650D01*
X3958753Y-11350174D02*
X3977801Y-11340650D01*
X3977801Y-11340650D02*
X4015896Y-11340650D01*
X4015896Y-11340650D02*
X4034943Y-11350174D01*
X4034943Y-11350174D02*
X4044467Y-11359698D01*
X4044467Y-11359698D02*
X4053991Y-11378746D01*
X4053991Y-11378746D02*
X4053991Y-11435888D01*
X4053991Y-11435888D02*
X4044467Y-11454936D01*
X4044467Y-11454936D02*
X4034943Y-11464460D01*
X4034943Y-11464460D02*
X4015896Y-11473984D01*
X4015896Y-11473984D02*
X3977801Y-11473984D01*
X3977801Y-11473984D02*
X3958753Y-11464460D01*
X4139705Y-11454936D02*
X4149229Y-11464460D01*
X4149229Y-11464460D02*
X4139705Y-11473984D01*
X4139705Y-11473984D02*
X4130182Y-11464460D01*
X4130182Y-11464460D02*
X4139705Y-11454936D01*
X4139705Y-11454936D02*
X4139705Y-11473984D01*
X4139705Y-11350174D02*
X4149229Y-11359698D01*
X4149229Y-11359698D02*
X4139705Y-11369222D01*
X4139705Y-11369222D02*
X4130182Y-11359698D01*
X4130182Y-11359698D02*
X4139705Y-11350174D01*
X4139705Y-11350174D02*
X4139705Y-11369222D01*
D12*
X2357500Y-11727500D02*
X2507500Y-11877500D01*
X2507500Y-11727500D02*
X2357500Y-11877500D01*
D11*
X2873039Y-11893984D02*
X2758753Y-11893984D01*
X2815896Y-11893984D02*
X2815896Y-11693984D01*
X2815896Y-11693984D02*
X2796848Y-11722555D01*
X2796848Y-11722555D02*
X2777801Y-11741603D01*
X2777801Y-11741603D02*
X2758753Y-11751127D01*
X2958753Y-11874936D02*
X2968277Y-11884460D01*
X2968277Y-11884460D02*
X2958753Y-11893984D01*
X2958753Y-11893984D02*
X2949229Y-11884460D01*
X2949229Y-11884460D02*
X2958753Y-11874936D01*
X2958753Y-11874936D02*
X2958753Y-11893984D01*
X3149229Y-11693984D02*
X3053991Y-11693984D01*
X3053991Y-11693984D02*
X3044467Y-11789222D01*
X3044467Y-11789222D02*
X3053991Y-11779698D01*
X3053991Y-11779698D02*
X3073039Y-11770174D01*
X3073039Y-11770174D02*
X3120658Y-11770174D01*
X3120658Y-11770174D02*
X3139705Y-11779698D01*
X3139705Y-11779698D02*
X3149229Y-11789222D01*
X3149229Y-11789222D02*
X3158753Y-11808269D01*
X3158753Y-11808269D02*
X3158753Y-11855888D01*
X3158753Y-11855888D02*
X3149229Y-11874936D01*
X3149229Y-11874936D02*
X3139705Y-11884460D01*
X3139705Y-11884460D02*
X3120658Y-11893984D01*
X3120658Y-11893984D02*
X3073039Y-11893984D01*
X3073039Y-11893984D02*
X3053991Y-11884460D01*
X3053991Y-11884460D02*
X3044467Y-11874936D01*
X3282562Y-11693984D02*
X3301610Y-11693984D01*
X3301610Y-11693984D02*
X3320658Y-11703508D01*
X3320658Y-11703508D02*
X3330182Y-11713031D01*
X3330182Y-11713031D02*
X3339705Y-11732079D01*
X3339705Y-11732079D02*
X3349229Y-11770174D01*
X3349229Y-11770174D02*
X3349229Y-11817793D01*
X3349229Y-11817793D02*
X3339705Y-11855888D01*
X3339705Y-11855888D02*
X3330182Y-11874936D01*
X3330182Y-11874936D02*
X3320658Y-11884460D01*
X3320658Y-11884460D02*
X3301610Y-11893984D01*
X3301610Y-11893984D02*
X3282562Y-11893984D01*
X3282562Y-11893984D02*
X3263515Y-11884460D01*
X3263515Y-11884460D02*
X3253991Y-11874936D01*
X3253991Y-11874936D02*
X3244467Y-11855888D01*
X3244467Y-11855888D02*
X3234943Y-11817793D01*
X3234943Y-11817793D02*
X3234943Y-11770174D01*
X3234943Y-11770174D02*
X3244467Y-11732079D01*
X3244467Y-11732079D02*
X3253991Y-11713031D01*
X3253991Y-11713031D02*
X3263515Y-11703508D01*
X3263515Y-11703508D02*
X3282562Y-11693984D01*
X3473039Y-11693984D02*
X3492086Y-11693984D01*
X3492086Y-11693984D02*
X3511134Y-11703508D01*
X3511134Y-11703508D02*
X3520658Y-11713031D01*
X3520658Y-11713031D02*
X3530182Y-11732079D01*
X3530182Y-11732079D02*
X3539705Y-11770174D01*
X3539705Y-11770174D02*
X3539705Y-11817793D01*
X3539705Y-11817793D02*
X3530182Y-11855888D01*
X3530182Y-11855888D02*
X3520658Y-11874936D01*
X3520658Y-11874936D02*
X3511134Y-11884460D01*
X3511134Y-11884460D02*
X3492086Y-11893984D01*
X3492086Y-11893984D02*
X3473039Y-11893984D01*
X3473039Y-11893984D02*
X3453991Y-11884460D01*
X3453991Y-11884460D02*
X3444467Y-11874936D01*
X3444467Y-11874936D02*
X3434943Y-11855888D01*
X3434943Y-11855888D02*
X3425420Y-11817793D01*
X3425420Y-11817793D02*
X3425420Y-11770174D01*
X3425420Y-11770174D02*
X3434943Y-11732079D01*
X3434943Y-11732079D02*
X3444467Y-11713031D01*
X3444467Y-11713031D02*
X3453991Y-11703508D01*
X3453991Y-11703508D02*
X3473039Y-11693984D01*
X3625420Y-11893984D02*
X3625420Y-11760650D01*
X3625420Y-11779698D02*
X3634943Y-11770174D01*
X3634943Y-11770174D02*
X3653991Y-11760650D01*
X3653991Y-11760650D02*
X3682563Y-11760650D01*
X3682563Y-11760650D02*
X3701610Y-11770174D01*
X3701610Y-11770174D02*
X3711134Y-11789222D01*
X3711134Y-11789222D02*
X3711134Y-11893984D01*
X3711134Y-11789222D02*
X3720658Y-11770174D01*
X3720658Y-11770174D02*
X3739705Y-11760650D01*
X3739705Y-11760650D02*
X3768277Y-11760650D01*
X3768277Y-11760650D02*
X3787324Y-11770174D01*
X3787324Y-11770174D02*
X3796848Y-11789222D01*
X3796848Y-11789222D02*
X3796848Y-11893984D01*
X3892086Y-11893984D02*
X3892086Y-11760650D01*
X3892086Y-11779698D02*
X3901610Y-11770174D01*
X3901610Y-11770174D02*
X3920658Y-11760650D01*
X3920658Y-11760650D02*
X3949229Y-11760650D01*
X3949229Y-11760650D02*
X3968277Y-11770174D01*
X3968277Y-11770174D02*
X3977801Y-11789222D01*
X3977801Y-11789222D02*
X3977801Y-11893984D01*
X3977801Y-11789222D02*
X3987324Y-11770174D01*
X3987324Y-11770174D02*
X4006372Y-11760650D01*
X4006372Y-11760650D02*
X4034943Y-11760650D01*
X4034943Y-11760650D02*
X4053991Y-11770174D01*
X4053991Y-11770174D02*
X4063515Y-11789222D01*
X4063515Y-11789222D02*
X4063515Y-11893984D01*
X4453991Y-11684460D02*
X4282563Y-11941603D01*
X4711134Y-11693984D02*
X4730182Y-11693984D01*
X4730182Y-11693984D02*
X4749229Y-11703508D01*
X4749229Y-11703508D02*
X4758753Y-11713031D01*
X4758753Y-11713031D02*
X4768277Y-11732079D01*
X4768277Y-11732079D02*
X4777801Y-11770174D01*
X4777801Y-11770174D02*
X4777801Y-11817793D01*
X4777801Y-11817793D02*
X4768277Y-11855888D01*
X4768277Y-11855888D02*
X4758753Y-11874936D01*
X4758753Y-11874936D02*
X4749229Y-11884460D01*
X4749229Y-11884460D02*
X4730182Y-11893984D01*
X4730182Y-11893984D02*
X4711134Y-11893984D01*
X4711134Y-11893984D02*
X4692087Y-11884460D01*
X4692087Y-11884460D02*
X4682563Y-11874936D01*
X4682563Y-11874936D02*
X4673039Y-11855888D01*
X4673039Y-11855888D02*
X4663515Y-11817793D01*
X4663515Y-11817793D02*
X4663515Y-11770174D01*
X4663515Y-11770174D02*
X4673039Y-11732079D01*
X4673039Y-11732079D02*
X4682563Y-11713031D01*
X4682563Y-11713031D02*
X4692087Y-11703508D01*
X4692087Y-11703508D02*
X4711134Y-11693984D01*
X4863515Y-11874936D02*
X4873039Y-11884460D01*
X4873039Y-11884460D02*
X4863515Y-11893984D01*
X4863515Y-11893984D02*
X4853991Y-11884460D01*
X4853991Y-11884460D02*
X4863515Y-11874936D01*
X4863515Y-11874936D02*
X4863515Y-11893984D01*
X4996848Y-11693984D02*
X5015896Y-11693984D01*
X5015896Y-11693984D02*
X5034944Y-11703508D01*
X5034944Y-11703508D02*
X5044468Y-11713031D01*
X5044468Y-11713031D02*
X5053991Y-11732079D01*
X5053991Y-11732079D02*
X5063515Y-11770174D01*
X5063515Y-11770174D02*
X5063515Y-11817793D01*
X5063515Y-11817793D02*
X5053991Y-11855888D01*
X5053991Y-11855888D02*
X5044468Y-11874936D01*
X5044468Y-11874936D02*
X5034944Y-11884460D01*
X5034944Y-11884460D02*
X5015896Y-11893984D01*
X5015896Y-11893984D02*
X4996848Y-11893984D01*
X4996848Y-11893984D02*
X4977801Y-11884460D01*
X4977801Y-11884460D02*
X4968277Y-11874936D01*
X4968277Y-11874936D02*
X4958753Y-11855888D01*
X4958753Y-11855888D02*
X4949229Y-11817793D01*
X4949229Y-11817793D02*
X4949229Y-11770174D01*
X4949229Y-11770174D02*
X4958753Y-11732079D01*
X4958753Y-11732079D02*
X4968277Y-11713031D01*
X4968277Y-11713031D02*
X4977801Y-11703508D01*
X4977801Y-11703508D02*
X4996848Y-11693984D01*
X5244468Y-11693984D02*
X5149229Y-11693984D01*
X5149229Y-11693984D02*
X5139706Y-11789222D01*
X5139706Y-11789222D02*
X5149229Y-11779698D01*
X5149229Y-11779698D02*
X5168277Y-11770174D01*
X5168277Y-11770174D02*
X5215896Y-11770174D01*
X5215896Y-11770174D02*
X5234944Y-11779698D01*
X5234944Y-11779698D02*
X5244468Y-11789222D01*
X5244468Y-11789222D02*
X5253991Y-11808269D01*
X5253991Y-11808269D02*
X5253991Y-11855888D01*
X5253991Y-11855888D02*
X5244468Y-11874936D01*
X5244468Y-11874936D02*
X5234944Y-11884460D01*
X5234944Y-11884460D02*
X5215896Y-11893984D01*
X5215896Y-11893984D02*
X5168277Y-11893984D01*
X5168277Y-11893984D02*
X5149229Y-11884460D01*
X5149229Y-11884460D02*
X5139706Y-11874936D01*
X5349229Y-11893984D02*
X5387325Y-11893984D01*
X5387325Y-11893984D02*
X5406372Y-11884460D01*
X5406372Y-11884460D02*
X5415896Y-11874936D01*
X5415896Y-11874936D02*
X5434944Y-11846365D01*
X5434944Y-11846365D02*
X5444468Y-11808269D01*
X5444468Y-11808269D02*
X5444468Y-11732079D01*
X5444468Y-11732079D02*
X5434944Y-11713031D01*
X5434944Y-11713031D02*
X5425420Y-11703508D01*
X5425420Y-11703508D02*
X5406372Y-11693984D01*
X5406372Y-11693984D02*
X5368277Y-11693984D01*
X5368277Y-11693984D02*
X5349229Y-11703508D01*
X5349229Y-11703508D02*
X5339706Y-11713031D01*
X5339706Y-11713031D02*
X5330182Y-11732079D01*
X5330182Y-11732079D02*
X5330182Y-11779698D01*
X5330182Y-11779698D02*
X5339706Y-11798746D01*
X5339706Y-11798746D02*
X5349229Y-11808269D01*
X5349229Y-11808269D02*
X5368277Y-11817793D01*
X5368277Y-11817793D02*
X5406372Y-11817793D01*
X5406372Y-11817793D02*
X5425420Y-11808269D01*
X5425420Y-11808269D02*
X5434944Y-11798746D01*
X5434944Y-11798746D02*
X5444468Y-11779698D01*
X5634944Y-11893984D02*
X5520658Y-11893984D01*
X5577801Y-11893984D02*
X5577801Y-11693984D01*
X5577801Y-11693984D02*
X5558753Y-11722555D01*
X5558753Y-11722555D02*
X5539706Y-11741603D01*
X5539706Y-11741603D02*
X5520658Y-11751127D01*
X5711134Y-11693984D02*
X5711134Y-11732079D01*
X5787325Y-11693984D02*
X5787325Y-11732079D01*
X6082563Y-11970174D02*
X6073039Y-11960650D01*
X6073039Y-11960650D02*
X6053991Y-11932079D01*
X6053991Y-11932079D02*
X6044468Y-11913031D01*
X6044468Y-11913031D02*
X6034944Y-11884460D01*
X6034944Y-11884460D02*
X6025420Y-11836841D01*
X6025420Y-11836841D02*
X6025420Y-11798746D01*
X6025420Y-11798746D02*
X6034944Y-11751127D01*
X6034944Y-11751127D02*
X6044468Y-11722555D01*
X6044468Y-11722555D02*
X6053991Y-11703508D01*
X6053991Y-11703508D02*
X6073039Y-11674936D01*
X6073039Y-11674936D02*
X6082563Y-11665412D01*
X6149229Y-11713031D02*
X6158753Y-11703508D01*
X6158753Y-11703508D02*
X6177801Y-11693984D01*
X6177801Y-11693984D02*
X6225420Y-11693984D01*
X6225420Y-11693984D02*
X6244468Y-11703508D01*
X6244468Y-11703508D02*
X6253991Y-11713031D01*
X6253991Y-11713031D02*
X6263515Y-11732079D01*
X6263515Y-11732079D02*
X6263515Y-11751127D01*
X6263515Y-11751127D02*
X6253991Y-11779698D01*
X6253991Y-11779698D02*
X6139706Y-11893984D01*
X6139706Y-11893984D02*
X6263515Y-11893984D01*
X6501610Y-11893984D02*
X6501610Y-11693984D01*
X6587325Y-11893984D02*
X6587325Y-11789222D01*
X6587325Y-11789222D02*
X6577801Y-11770174D01*
X6577801Y-11770174D02*
X6558753Y-11760650D01*
X6558753Y-11760650D02*
X6530182Y-11760650D01*
X6530182Y-11760650D02*
X6511134Y-11770174D01*
X6511134Y-11770174D02*
X6501610Y-11779698D01*
X6711134Y-11893984D02*
X6692087Y-11884460D01*
X6692087Y-11884460D02*
X6682563Y-11874936D01*
X6682563Y-11874936D02*
X6673039Y-11855888D01*
X6673039Y-11855888D02*
X6673039Y-11798746D01*
X6673039Y-11798746D02*
X6682563Y-11779698D01*
X6682563Y-11779698D02*
X6692087Y-11770174D01*
X6692087Y-11770174D02*
X6711134Y-11760650D01*
X6711134Y-11760650D02*
X6739706Y-11760650D01*
X6739706Y-11760650D02*
X6758753Y-11770174D01*
X6758753Y-11770174D02*
X6768277Y-11779698D01*
X6768277Y-11779698D02*
X6777801Y-11798746D01*
X6777801Y-11798746D02*
X6777801Y-11855888D01*
X6777801Y-11855888D02*
X6768277Y-11874936D01*
X6768277Y-11874936D02*
X6758753Y-11884460D01*
X6758753Y-11884460D02*
X6739706Y-11893984D01*
X6739706Y-11893984D02*
X6711134Y-11893984D01*
X6892087Y-11893984D02*
X6873039Y-11884460D01*
X6873039Y-11884460D02*
X6863515Y-11865412D01*
X6863515Y-11865412D02*
X6863515Y-11693984D01*
X7044468Y-11884460D02*
X7025420Y-11893984D01*
X7025420Y-11893984D02*
X6987325Y-11893984D01*
X6987325Y-11893984D02*
X6968277Y-11884460D01*
X6968277Y-11884460D02*
X6958753Y-11865412D01*
X6958753Y-11865412D02*
X6958753Y-11789222D01*
X6958753Y-11789222D02*
X6968277Y-11770174D01*
X6968277Y-11770174D02*
X6987325Y-11760650D01*
X6987325Y-11760650D02*
X7025420Y-11760650D01*
X7025420Y-11760650D02*
X7044468Y-11770174D01*
X7044468Y-11770174D02*
X7053991Y-11789222D01*
X7053991Y-11789222D02*
X7053991Y-11808269D01*
X7053991Y-11808269D02*
X6958753Y-11827317D01*
X7130182Y-11884460D02*
X7149230Y-11893984D01*
X7149230Y-11893984D02*
X7187325Y-11893984D01*
X7187325Y-11893984D02*
X7206372Y-11884460D01*
X7206372Y-11884460D02*
X7215896Y-11865412D01*
X7215896Y-11865412D02*
X7215896Y-11855888D01*
X7215896Y-11855888D02*
X7206372Y-11836841D01*
X7206372Y-11836841D02*
X7187325Y-11827317D01*
X7187325Y-11827317D02*
X7158753Y-11827317D01*
X7158753Y-11827317D02*
X7139706Y-11817793D01*
X7139706Y-11817793D02*
X7130182Y-11798746D01*
X7130182Y-11798746D02*
X7130182Y-11789222D01*
X7130182Y-11789222D02*
X7139706Y-11770174D01*
X7139706Y-11770174D02*
X7158753Y-11760650D01*
X7158753Y-11760650D02*
X7187325Y-11760650D01*
X7187325Y-11760650D02*
X7206372Y-11770174D01*
X7282563Y-11970174D02*
X7292087Y-11960650D01*
X7292087Y-11960650D02*
X7311134Y-11932079D01*
X7311134Y-11932079D02*
X7320658Y-11913031D01*
X7320658Y-11913031D02*
X7330182Y-11884460D01*
X7330182Y-11884460D02*
X7339706Y-11836841D01*
X7339706Y-11836841D02*
X7339706Y-11798746D01*
X7339706Y-11798746D02*
X7330182Y-11751127D01*
X7330182Y-11751127D02*
X7320658Y-11722555D01*
X7320658Y-11722555D02*
X7311134Y-11703508D01*
X7311134Y-11703508D02*
X7292087Y-11674936D01*
X7292087Y-11674936D02*
X7282563Y-11665412D01*
X7644468Y-11970174D02*
X7634944Y-11960650D01*
X7634944Y-11960650D02*
X7615896Y-11932079D01*
X7615896Y-11932079D02*
X7606372Y-11913031D01*
X7606372Y-11913031D02*
X7596849Y-11884460D01*
X7596849Y-11884460D02*
X7587325Y-11836841D01*
X7587325Y-11836841D02*
X7587325Y-11798746D01*
X7587325Y-11798746D02*
X7596849Y-11751127D01*
X7596849Y-11751127D02*
X7606372Y-11722555D01*
X7606372Y-11722555D02*
X7615896Y-11703508D01*
X7615896Y-11703508D02*
X7634944Y-11674936D01*
X7634944Y-11674936D02*
X7644468Y-11665412D01*
X7720658Y-11760650D02*
X7720658Y-11893984D01*
X7720658Y-11779698D02*
X7730182Y-11770174D01*
X7730182Y-11770174D02*
X7749230Y-11760650D01*
X7749230Y-11760650D02*
X7777801Y-11760650D01*
X7777801Y-11760650D02*
X7796849Y-11770174D01*
X7796849Y-11770174D02*
X7806372Y-11789222D01*
X7806372Y-11789222D02*
X7806372Y-11893984D01*
X7930182Y-11893984D02*
X7911134Y-11884460D01*
X7911134Y-11884460D02*
X7901611Y-11874936D01*
X7901611Y-11874936D02*
X7892087Y-11855888D01*
X7892087Y-11855888D02*
X7892087Y-11798746D01*
X7892087Y-11798746D02*
X7901611Y-11779698D01*
X7901611Y-11779698D02*
X7911134Y-11770174D01*
X7911134Y-11770174D02*
X7930182Y-11760650D01*
X7930182Y-11760650D02*
X7958753Y-11760650D01*
X7958753Y-11760650D02*
X7977801Y-11770174D01*
X7977801Y-11770174D02*
X7987325Y-11779698D01*
X7987325Y-11779698D02*
X7996849Y-11798746D01*
X7996849Y-11798746D02*
X7996849Y-11855888D01*
X7996849Y-11855888D02*
X7987325Y-11874936D01*
X7987325Y-11874936D02*
X7977801Y-11884460D01*
X7977801Y-11884460D02*
X7958753Y-11893984D01*
X7958753Y-11893984D02*
X7930182Y-11893984D01*
X8053992Y-11760650D02*
X8130182Y-11760650D01*
X8082563Y-11693984D02*
X8082563Y-11865412D01*
X8082563Y-11865412D02*
X8092087Y-11884460D01*
X8092087Y-11884460D02*
X8111134Y-11893984D01*
X8111134Y-11893984D02*
X8130182Y-11893984D01*
X8349230Y-11760650D02*
X8349230Y-11960650D01*
X8349230Y-11770174D02*
X8368277Y-11760650D01*
X8368277Y-11760650D02*
X8406373Y-11760650D01*
X8406373Y-11760650D02*
X8425420Y-11770174D01*
X8425420Y-11770174D02*
X8434944Y-11779698D01*
X8434944Y-11779698D02*
X8444468Y-11798746D01*
X8444468Y-11798746D02*
X8444468Y-11855888D01*
X8444468Y-11855888D02*
X8434944Y-11874936D01*
X8434944Y-11874936D02*
X8425420Y-11884460D01*
X8425420Y-11884460D02*
X8406373Y-11893984D01*
X8406373Y-11893984D02*
X8368277Y-11893984D01*
X8368277Y-11893984D02*
X8349230Y-11884460D01*
X8558754Y-11893984D02*
X8539706Y-11884460D01*
X8539706Y-11884460D02*
X8530182Y-11865412D01*
X8530182Y-11865412D02*
X8530182Y-11693984D01*
X8720658Y-11893984D02*
X8720658Y-11789222D01*
X8720658Y-11789222D02*
X8711135Y-11770174D01*
X8711135Y-11770174D02*
X8692087Y-11760650D01*
X8692087Y-11760650D02*
X8653992Y-11760650D01*
X8653992Y-11760650D02*
X8634944Y-11770174D01*
X8720658Y-11884460D02*
X8701611Y-11893984D01*
X8701611Y-11893984D02*
X8653992Y-11893984D01*
X8653992Y-11893984D02*
X8634944Y-11884460D01*
X8634944Y-11884460D02*
X8625420Y-11865412D01*
X8625420Y-11865412D02*
X8625420Y-11846365D01*
X8625420Y-11846365D02*
X8634944Y-11827317D01*
X8634944Y-11827317D02*
X8653992Y-11817793D01*
X8653992Y-11817793D02*
X8701611Y-11817793D01*
X8701611Y-11817793D02*
X8720658Y-11808269D01*
X8787325Y-11760650D02*
X8863515Y-11760650D01*
X8815896Y-11693984D02*
X8815896Y-11865412D01*
X8815896Y-11865412D02*
X8825420Y-11884460D01*
X8825420Y-11884460D02*
X8844468Y-11893984D01*
X8844468Y-11893984D02*
X8863515Y-11893984D01*
X9006373Y-11884460D02*
X8987325Y-11893984D01*
X8987325Y-11893984D02*
X8949230Y-11893984D01*
X8949230Y-11893984D02*
X8930182Y-11884460D01*
X8930182Y-11884460D02*
X8920658Y-11865412D01*
X8920658Y-11865412D02*
X8920658Y-11789222D01*
X8920658Y-11789222D02*
X8930182Y-11770174D01*
X8930182Y-11770174D02*
X8949230Y-11760650D01*
X8949230Y-11760650D02*
X8987325Y-11760650D01*
X8987325Y-11760650D02*
X9006373Y-11770174D01*
X9006373Y-11770174D02*
X9015896Y-11789222D01*
X9015896Y-11789222D02*
X9015896Y-11808269D01*
X9015896Y-11808269D02*
X8920658Y-11827317D01*
X9187325Y-11893984D02*
X9187325Y-11693984D01*
X9187325Y-11884460D02*
X9168277Y-11893984D01*
X9168277Y-11893984D02*
X9130182Y-11893984D01*
X9130182Y-11893984D02*
X9111135Y-11884460D01*
X9111135Y-11884460D02*
X9101611Y-11874936D01*
X9101611Y-11874936D02*
X9092087Y-11855888D01*
X9092087Y-11855888D02*
X9092087Y-11798746D01*
X9092087Y-11798746D02*
X9101611Y-11779698D01*
X9101611Y-11779698D02*
X9111135Y-11770174D01*
X9111135Y-11770174D02*
X9130182Y-11760650D01*
X9130182Y-11760650D02*
X9168277Y-11760650D01*
X9168277Y-11760650D02*
X9187325Y-11770174D01*
X9263516Y-11970174D02*
X9273039Y-11960650D01*
X9273039Y-11960650D02*
X9292087Y-11932079D01*
X9292087Y-11932079D02*
X9301611Y-11913031D01*
X9301611Y-11913031D02*
X9311135Y-11884460D01*
X9311135Y-11884460D02*
X9320658Y-11836841D01*
X9320658Y-11836841D02*
X9320658Y-11798746D01*
X9320658Y-11798746D02*
X9311135Y-11751127D01*
X9311135Y-11751127D02*
X9301611Y-11722555D01*
X9301611Y-11722555D02*
X9292087Y-11703508D01*
X9292087Y-11703508D02*
X9273039Y-11674936D01*
X9273039Y-11674936D02*
X9263516Y-11665412D01*
M02*
