M48
; DRILL file {KiCad 8.0.8} date 2025-02-25T19:49:28+0100
; FORMAT={-:-/ absolute / metric / decimal}
; #@! TF.CreationDate,2025-02-25T19:49:28+01:00
; #@! TF.GenerationSoftware,Kicad,Pcbnew,8.0.8
; #@! TF.FileFunction,Plated,1,2,PTH
FMAT,2
METRIC
; #@! TA.AperFunction,Plated,PTH,ViaDrill
T1C0.400
; #@! TA.AperFunction,Plated,PTH,ComponentDrill
T2C0.800
; #@! TA.AperFunction,Plated,PTH,ComponentDrill
T3C0.950
; #@! TA.AperFunction,Plated,PTH,ComponentDrill
T4C1.000
; #@! TA.AperFunction,Plated,PTH,ComponentDrill
T5C1.041
; #@! TA.AperFunction,Plated,PTH,ComponentDrill
T6C1.350
; #@! TA.AperFunction,Plated,PTH,ComponentDrill
T7C2.300
; #@! TA.AperFunction,Plated,PTH,ComponentDrill
T8C3.251
%
G90
G05
T1
X26.76Y-26.58
X26.76Y-29.12
X26.76Y-31.66
X26.76Y-34.2
X26.76Y-36.74
X26.76Y-39.28
X26.76Y-41.82
X26.76Y-44.36
X26.76Y-46.9
X26.76Y-49.44
X26.76Y-51.98
X26.76Y-54.52
X26.76Y-57.06
X26.76Y-59.6
X26.76Y-62.14
X26.76Y-64.68
X26.76Y-67.22
X26.76Y-69.76
X26.76Y-72.3
X26.76Y-74.84
X26.76Y-77.38
X26.76Y-79.92
X26.76Y-82.46
X26.76Y-85.0
X26.76Y-87.54
X26.76Y-90.08
X26.76Y-92.62
X26.76Y-95.16
X26.76Y-97.7
X26.76Y-100.24
X26.76Y-102.78
X26.76Y-105.32
X26.76Y-107.86
X26.76Y-110.4
X29.3Y-26.58
X29.3Y-57.06
X29.3Y-87.54
X29.3Y-110.4
X31.84Y-26.58
X31.84Y-57.06
X31.84Y-87.54
X31.84Y-110.4
X32.1Y-105.65
X32.9Y-75.0
X34.1Y-40.4
X34.38Y-26.58
X34.38Y-57.06
X34.38Y-87.54
X34.38Y-110.4
X36.05Y-51.8
X36.92Y-26.58
X36.92Y-57.06
X36.92Y-87.54
X36.92Y-110.4
X37.0Y-82.05
X38.1Y-93.25
X38.4Y-46.2
X39.46Y-26.58
X39.46Y-57.06
X39.46Y-87.54
X39.46Y-110.4
X40.45Y-51.85
X40.75Y-40.05
X42.0Y-26.58
X42.0Y-59.6
X42.0Y-87.54
X42.0Y-110.4
X42.55Y-72.65
X42.75Y-91.25
X43.9Y-71.4
X44.0Y-79.6
X44.4Y-66.55
X44.45Y-46.9
X44.54Y-26.58
X44.54Y-62.14
X44.54Y-87.54
X44.54Y-110.4
X45.3Y-40.6
X45.607Y-78.943
X46.3Y-48.15
X46.95Y-37.7
X47.08Y-26.58
X47.08Y-62.14
X47.08Y-87.54
X47.08Y-110.4
X47.85Y-77.45
X48.7Y-74.45
X49.35Y-66.3
X49.55Y-37.75
X49.62Y-26.58
X49.62Y-62.14
X49.62Y-87.54
X49.62Y-110.4
X49.65Y-42.2
X49.95Y-50.95
X52.16Y-26.58
X52.16Y-62.14
X52.16Y-87.54
X52.16Y-110.4
X52.3Y-39.1
X52.45Y-56.55
X54.2Y-45.8
X54.7Y-26.58
X54.7Y-62.14
X54.7Y-87.54
X54.7Y-110.4
X54.85Y-51.75
X56.8Y-65.0
X57.24Y-26.58
X57.24Y-87.54
X57.24Y-110.4
X57.25Y-109.1
X58.7Y-101.25
X59.4Y-51.6
X59.78Y-26.58
X59.78Y-67.22
X59.78Y-69.76
X59.78Y-72.3
X59.78Y-74.84
X59.78Y-77.38
X59.78Y-79.92
X59.78Y-82.46
X59.78Y-85.0
X59.78Y-87.54
X59.78Y-110.4
X62.32Y-26.58
X62.32Y-110.4
X63.1Y-91.6
X63.25Y-98.4
X63.35Y-88.8
X64.86Y-26.58
X64.86Y-110.4
X66.5Y-97.8
X67.35Y-49.3
X67.4Y-26.58
X67.4Y-110.4
X68.1Y-55.4
X68.8Y-105.55
X69.35Y-91.8
X69.55Y-45.6
X69.94Y-26.58
X69.94Y-110.4
X70.35Y-51.85
X70.95Y-100.2
X72.4Y-39.0
X72.48Y-26.58
X72.48Y-110.4
X72.7Y-74.85
X74.2Y-99.0
X74.7Y-79.1
X75.02Y-26.58
X75.02Y-110.4
X76.15Y-60.45
X76.25Y-97.15
X76.5Y-37.15
X77.56Y-26.58
X77.56Y-110.4
X77.8Y-81.95
X78.2Y-52.5
X80.1Y-26.58
X80.1Y-110.4
X80.175Y-78.25
X80.385Y-46.435
X80.85Y-79.33
X80.85Y-80.75
X81.15Y-40.6
X81.85Y-68.9
X81.9Y-87.2
X82.1Y-74.15
X82.105Y-76.64
X82.2Y-85.3
X82.55Y-37.85
X82.64Y-26.58
X82.64Y-110.4
X82.805Y-47.705
X82.95Y-90.45
X83.825Y-88.975
X85.18Y-26.58
X85.18Y-110.4
X85.35Y-52.6
X85.95Y-42.35
X87.55Y-37.15
X87.72Y-26.58
X87.72Y-110.4
X88.1Y-57.8
X90.26Y-26.58
X90.26Y-110.4
X90.55Y-57.5
X90.65Y-106.5
X90.85Y-39.1
X91.1Y-52.8
X92.05Y-65.3
X92.3Y-81.55
X92.5Y-45.7
X92.7Y-68.85
X92.8Y-26.58
X92.8Y-110.4
X93.085Y-57.4
X94.15Y-37.15
X95.0Y-57.1
X95.34Y-26.58
X95.34Y-110.4
X96.9Y-101.15
X97.88Y-26.58
X97.88Y-110.4
X99.8Y-48.65
X100.42Y-26.58
X100.42Y-110.4
X101.15Y-106.05
X101.175Y-90.6
X102.55Y-90.6
X102.96Y-26.58
X102.96Y-110.4
X103.55Y-41.65
X103.925Y-90.6
X105.5Y-26.58
X105.5Y-110.4
X105.85Y-65.45
X106.05Y-45.6
X106.05Y-81.55
X106.5Y-52.15
X107.75Y-57.45
X108.04Y-26.58
X108.04Y-110.4
X110.2Y-57.05
X110.25Y-102.3
X110.55Y-84.5
X110.58Y-26.58
X110.58Y-110.4
X112.45Y-57.0
X113.0Y-38.7
X113.12Y-26.58
X113.12Y-110.4
X114.05Y-52.45
X115.6Y-37.925
X115.66Y-26.58
X115.66Y-110.4
X116.35Y-105.75
X116.5Y-91.95
X116.71Y-82.86
X116.885Y-46.435
X117.25Y-40.6
X117.25Y-76.943
X117.25Y-78.047
X117.25Y-79.15
X117.25Y-80.253
X118.2Y-26.58
X118.2Y-110.4
X118.805Y-47.705
X118.85Y-64.2
X118.9Y-37.15
X119.0Y-53.05
X119.25Y-89.795
X119.3Y-94.3
X119.45Y-88.6
X119.9Y-78.0
X120.74Y-26.58
X120.74Y-110.4
X120.75Y-91.05
X121.1Y-96.45
X122.6Y-38.85
X123.28Y-26.58
X123.28Y-110.4
X124.85Y-45.95
X125.7Y-59.8
X125.82Y-26.58
X125.82Y-110.4
X126.5Y-63.25
X126.95Y-38.85
X127.15Y-84.3
X127.4Y-52.85
X127.95Y-89.7
X128.36Y-26.58
X128.36Y-110.4
X129.9Y-95.85
X130.9Y-26.58
X130.9Y-110.4
X131.05Y-69.25
X132.15Y-84.3
X133.44Y-26.58
X133.44Y-110.4
X134.75Y-70.375
X135.15Y-95.95
X135.98Y-26.58
X135.98Y-110.4
X136.4Y-64.3
X137.1Y-51.0
X137.3Y-56.1
X137.45Y-88.25
X137.9Y-82.7
X138.52Y-26.58
X138.52Y-110.4
X139.25Y-45.65
X139.3Y-41.8
X141.06Y-26.58
X141.06Y-110.4
X141.35Y-101.2
X142.75Y-59.9
X143.6Y-26.58
X143.6Y-110.4
X144.7Y-51.15
X146.14Y-26.58
X146.14Y-110.4
X147.35Y-60.0
X147.75Y-83.9
X148.45Y-51.15
X148.68Y-26.58
X148.68Y-110.4
X148.8Y-106.7
X149.05Y-102.95
X149.5Y-41.85
X151.22Y-26.58
X151.22Y-110.4
X152.0Y-89.75
X152.25Y-79.1
X152.935Y-46.435
X153.76Y-26.58
X153.76Y-110.4
X154.1Y-40.6
X155.155Y-47.705
X155.35Y-37.85
X155.45Y-43.45
X156.3Y-26.58
X156.3Y-110.4
X156.95Y-81.5
X158.84Y-26.58
X158.84Y-110.4
X158.9Y-51.15
X158.9Y-84.55
X159.05Y-80.45
X159.2Y-65.25
X159.4Y-37.35
X160.5Y-56.3
X161.05Y-63.85
X161.38Y-26.58
X161.38Y-110.4
X163.3Y-39.5
X163.4Y-53.55
X163.92Y-26.58
X163.92Y-110.4
X165.5Y-45.35
X165.65Y-91.9
X166.46Y-26.58
X166.46Y-110.4
X166.7Y-74.3
X167.5Y-67.65
X167.5Y-80.25
X168.6Y-49.25
X169.0Y-26.58
X169.0Y-110.4
X170.65Y-37.1
X171.54Y-26.58
X171.54Y-110.4
X171.95Y-77.55
X172.2Y-106.5
X174.08Y-26.58
X174.08Y-110.4
X174.55Y-79.6
X175.1Y-91.9
X175.25Y-103.45
X175.8Y-86.55
X176.2Y-72.75
X176.62Y-26.58
X176.62Y-110.4
X176.7Y-70.95
X179.16Y-26.58
X179.16Y-29.12
X179.16Y-31.66
X179.16Y-34.2
X179.16Y-36.74
X179.16Y-39.28
X179.16Y-41.82
X179.16Y-44.36
X179.16Y-46.9
X179.16Y-49.44
X179.16Y-51.98
X179.16Y-54.52
X179.16Y-57.06
X179.16Y-59.6
X179.16Y-62.14
X179.16Y-64.68
X179.16Y-67.22
X179.16Y-69.76
X179.16Y-72.3
X179.16Y-74.84
X179.16Y-77.38
X179.16Y-79.92
X179.16Y-82.46
X179.16Y-85.0
X179.16Y-87.54
X179.16Y-90.08
X179.16Y-92.62
X179.16Y-95.16
X179.16Y-97.7
X179.16Y-100.24
X179.16Y-102.78
X179.16Y-105.32
X179.16Y-107.86
X179.16Y-110.4
T2
X43.45Y-56.4
X46.95Y-56.4
X79.75Y-56.15
X83.25Y-56.15
X115.997Y-56.15
X119.497Y-56.15
X152.15Y-56.4
X155.65Y-56.4
X160.2Y-86.7
X161.47Y-84.16
X162.74Y-86.7
X164.01Y-84.16
X165.28Y-86.7
X166.55Y-84.16
X167.82Y-86.7
X169.09Y-84.16
X170.36Y-86.7
X171.63Y-84.16
X172.9Y-86.7
X174.17Y-84.16
T3
X44.95Y-95.89
X44.95Y-97.89
X47.45Y-95.89
X47.45Y-97.89
T4
X39.015Y-35.5
X41.555Y-35.5
X44.095Y-35.5
X46.635Y-35.5
X49.175Y-35.5
X51.715Y-35.5
X52.05Y-65.5
X54.255Y-35.5
X54.7Y-56.1
X55.65Y-69.1
X55.65Y-72.7
X55.65Y-76.3
X55.65Y-79.9
X56.795Y-35.5
X58.3Y-56.1
X59.335Y-35.5
X59.335Y-95.25
X61.875Y-35.5
X61.875Y-95.25
X66.35Y-102.65
X69.95Y-102.65
X70.05Y-56.1
X72.05Y-65.75
X72.05Y-69.35
X73.55Y-102.65
X73.65Y-56.1
X77.15Y-102.65
X90.45Y-35.5
X92.99Y-35.5
X95.53Y-35.5
X98.07Y-35.5
X100.61Y-35.5
X103.15Y-35.5
X105.69Y-35.5
X108.23Y-35.5
X110.77Y-35.5
X113.31Y-35.5
X115.85Y-35.5
X123.15Y-101.55
X125.05Y-56.1
X126.75Y-101.55
X128.65Y-56.1
X130.35Y-101.55
X133.95Y-101.55
X137.55Y-101.55
X141.15Y-69.95
X141.95Y-56.1
X143.15Y-35.5
X143.8Y-85.0
X143.8Y-88.6
X144.75Y-69.95
X145.55Y-56.1
X145.69Y-35.5
X147.4Y-88.6
X148.23Y-35.5
X148.35Y-69.95
X150.77Y-35.5
X151.95Y-69.95
X153.31Y-35.5
X155.55Y-69.95
X155.85Y-35.5
X158.39Y-35.5
X160.93Y-35.5
X163.47Y-35.5
X166.01Y-35.5
X168.55Y-35.5
X172.75Y-80.6
X176.35Y-80.6
T5
X97.964Y-94.355
X99.335Y-97.2
X100.707Y-94.355
X102.078Y-97.2
X103.45Y-94.355
X104.822Y-97.2
X106.193Y-94.355
X107.565Y-97.2
X108.936Y-94.355
X150.464Y-94.355
X151.835Y-97.2
X153.207Y-94.355
X154.578Y-97.2
X155.95Y-94.355
X157.322Y-97.2
X158.693Y-94.355
X160.065Y-97.2
X161.436Y-94.355
T6
X32.95Y-31.5
X36.45Y-31.5
X39.95Y-31.5
X43.45Y-31.5
X46.95Y-31.5
X50.45Y-31.5
X53.95Y-31.5
X57.45Y-31.5
X60.95Y-31.5
X64.45Y-31.5
X67.95Y-31.5
X85.65Y-31.5
X89.15Y-31.5
X92.65Y-31.5
X96.15Y-31.5
X99.65Y-31.5
X103.15Y-31.5
X106.65Y-31.5
X110.15Y-31.5
X113.65Y-31.5
X117.15Y-31.5
X120.65Y-31.5
X138.35Y-31.5
X141.85Y-31.5
X145.35Y-31.5
X148.85Y-31.5
X152.35Y-31.5
X155.85Y-31.5
X159.35Y-31.5
X162.85Y-31.5
X166.35Y-31.5
X169.85Y-31.5
X173.35Y-31.5
T7
X40.2Y-100.75
X52.2Y-100.75
T8
X90.953Y-95.778
X115.947Y-95.778
X143.453Y-95.778
X168.447Y-95.778
M30
