%TF.GenerationSoftware,KiCad,Pcbnew,8.0.8*%
%TF.CreationDate,2025-02-25T19:49:39+01:00*%
%TF.ProjectId,Overlord,4f766572-6c6f-4726-942e-6b696361645f,rev?*%
%TF.SameCoordinates,Original*%
%TF.FileFunction,Drillmap*%
%TF.FilePolarity,Positive*%
%FSLAX45Y45*%
G04 Gerber Fmt 4.5, Leading zero omitted, Abs format (unit mm)*
G04 Created by KiCad (PCBNEW 8.0.8) date 2025-02-25 19:49:39*
%MOMM*%
%LPD*%
G01*
G04 APERTURE LIST*
%ADD10C,0.050000*%
%ADD11C,0.200000*%
%ADD12C,0.100000*%
%ADD13C,0.104140*%
%ADD14C,0.135000*%
%ADD15C,0.230000*%
%ADD16C,0.325120*%
G04 APERTURE END LIST*
D10*
X2510000Y-11160000D02*
X2510000Y-2530000D01*
X2510000Y-2530000D02*
X18080000Y-2530000D01*
X18080000Y-2530000D02*
X18080000Y-11160000D01*
X18080000Y-11160000D02*
X2510000Y-11160000D01*
D11*
D12*
X2656000Y-2638000D02*
X2696000Y-2678000D01*
X2696000Y-2638000D02*
X2656000Y-2678000D01*
X2656000Y-2892000D02*
X2696000Y-2932000D01*
X2696000Y-2892000D02*
X2656000Y-2932000D01*
X2656000Y-3146000D02*
X2696000Y-3186000D01*
X2696000Y-3146000D02*
X2656000Y-3186000D01*
X2656000Y-3400000D02*
X2696000Y-3440000D01*
X2696000Y-3400000D02*
X2656000Y-3440000D01*
X2656000Y-3654000D02*
X2696000Y-3694000D01*
X2696000Y-3654000D02*
X2656000Y-3694000D01*
X2656000Y-3908000D02*
X2696000Y-3948000D01*
X2696000Y-3908000D02*
X2656000Y-3948000D01*
X2656000Y-4162000D02*
X2696000Y-4202000D01*
X2696000Y-4162000D02*
X2656000Y-4202000D01*
X2656000Y-4416000D02*
X2696000Y-4456000D01*
X2696000Y-4416000D02*
X2656000Y-4456000D01*
X2656000Y-4670000D02*
X2696000Y-4710000D01*
X2696000Y-4670000D02*
X2656000Y-4710000D01*
X2656000Y-4924000D02*
X2696000Y-4964000D01*
X2696000Y-4924000D02*
X2656000Y-4964000D01*
X2656000Y-5178000D02*
X2696000Y-5218000D01*
X2696000Y-5178000D02*
X2656000Y-5218000D01*
X2656000Y-5432000D02*
X2696000Y-5472000D01*
X2696000Y-5432000D02*
X2656000Y-5472000D01*
X2656000Y-5686000D02*
X2696000Y-5726000D01*
X2696000Y-5686000D02*
X2656000Y-5726000D01*
X2656000Y-5940000D02*
X2696000Y-5980000D01*
X2696000Y-5940000D02*
X2656000Y-5980000D01*
X2656000Y-6194000D02*
X2696000Y-6234000D01*
X2696000Y-6194000D02*
X2656000Y-6234000D01*
X2656000Y-6448000D02*
X2696000Y-6488000D01*
X2696000Y-6448000D02*
X2656000Y-6488000D01*
X2656000Y-6702000D02*
X2696000Y-6742000D01*
X2696000Y-6702000D02*
X2656000Y-6742000D01*
X2656000Y-6956000D02*
X2696000Y-6996000D01*
X2696000Y-6956000D02*
X2656000Y-6996000D01*
X2656000Y-7210000D02*
X2696000Y-7250000D01*
X2696000Y-7210000D02*
X2656000Y-7250000D01*
X2656000Y-7464000D02*
X2696000Y-7504000D01*
X2696000Y-7464000D02*
X2656000Y-7504000D01*
X2656000Y-7718000D02*
X2696000Y-7758000D01*
X2696000Y-7718000D02*
X2656000Y-7758000D01*
X2656000Y-7972000D02*
X2696000Y-8012000D01*
X2696000Y-7972000D02*
X2656000Y-8012000D01*
X2656000Y-8226000D02*
X2696000Y-8266000D01*
X2696000Y-8226000D02*
X2656000Y-8266000D01*
X2656000Y-8480000D02*
X2696000Y-8520000D01*
X2696000Y-8480000D02*
X2656000Y-8520000D01*
X2656000Y-8734000D02*
X2696000Y-8774000D01*
X2696000Y-8734000D02*
X2656000Y-8774000D01*
X2656000Y-8988000D02*
X2696000Y-9028000D01*
X2696000Y-8988000D02*
X2656000Y-9028000D01*
X2656000Y-9242000D02*
X2696000Y-9282000D01*
X2696000Y-9242000D02*
X2656000Y-9282000D01*
X2656000Y-9496000D02*
X2696000Y-9536000D01*
X2696000Y-9496000D02*
X2656000Y-9536000D01*
X2656000Y-9750000D02*
X2696000Y-9790000D01*
X2696000Y-9750000D02*
X2656000Y-9790000D01*
X2656000Y-10004000D02*
X2696000Y-10044000D01*
X2696000Y-10004000D02*
X2656000Y-10044000D01*
X2656000Y-10258000D02*
X2696000Y-10298000D01*
X2696000Y-10258000D02*
X2656000Y-10298000D01*
X2656000Y-10512000D02*
X2696000Y-10552000D01*
X2696000Y-10512000D02*
X2656000Y-10552000D01*
X2656000Y-10766000D02*
X2696000Y-10806000D01*
X2696000Y-10766000D02*
X2656000Y-10806000D01*
X2656000Y-11020000D02*
X2696000Y-11060000D01*
X2696000Y-11020000D02*
X2656000Y-11060000D01*
X2910000Y-2638000D02*
X2950000Y-2678000D01*
X2950000Y-2638000D02*
X2910000Y-2678000D01*
X2910000Y-5686000D02*
X2950000Y-5726000D01*
X2950000Y-5686000D02*
X2910000Y-5726000D01*
X2910000Y-8734000D02*
X2950000Y-8774000D01*
X2950000Y-8734000D02*
X2910000Y-8774000D01*
X2910000Y-11020000D02*
X2950000Y-11060000D01*
X2950000Y-11020000D02*
X2910000Y-11060000D01*
X3164000Y-2638000D02*
X3204000Y-2678000D01*
X3204000Y-2638000D02*
X3164000Y-2678000D01*
X3164000Y-5686000D02*
X3204000Y-5726000D01*
X3204000Y-5686000D02*
X3164000Y-5726000D01*
X3164000Y-8734000D02*
X3204000Y-8774000D01*
X3204000Y-8734000D02*
X3164000Y-8774000D01*
X3164000Y-11020000D02*
X3204000Y-11060000D01*
X3204000Y-11020000D02*
X3164000Y-11060000D01*
X3190000Y-10545000D02*
X3230000Y-10585000D01*
X3230000Y-10545000D02*
X3190000Y-10585000D01*
X3270000Y-7480000D02*
X3310000Y-7520000D01*
X3310000Y-7480000D02*
X3270000Y-7520000D01*
X3390000Y-4020000D02*
X3430000Y-4060000D01*
X3430000Y-4020000D02*
X3390000Y-4060000D01*
X3418000Y-2638000D02*
X3458000Y-2678000D01*
X3458000Y-2638000D02*
X3418000Y-2678000D01*
X3418000Y-5686000D02*
X3458000Y-5726000D01*
X3458000Y-5686000D02*
X3418000Y-5726000D01*
X3418000Y-8734000D02*
X3458000Y-8774000D01*
X3458000Y-8734000D02*
X3418000Y-8774000D01*
X3418000Y-11020000D02*
X3458000Y-11060000D01*
X3458000Y-11020000D02*
X3418000Y-11060000D01*
X3585000Y-5160000D02*
X3625000Y-5200000D01*
X3625000Y-5160000D02*
X3585000Y-5200000D01*
X3672000Y-2638000D02*
X3712000Y-2678000D01*
X3712000Y-2638000D02*
X3672000Y-2678000D01*
X3672000Y-5686000D02*
X3712000Y-5726000D01*
X3712000Y-5686000D02*
X3672000Y-5726000D01*
X3672000Y-8734000D02*
X3712000Y-8774000D01*
X3712000Y-8734000D02*
X3672000Y-8774000D01*
X3672000Y-11020000D02*
X3712000Y-11060000D01*
X3712000Y-11020000D02*
X3672000Y-11060000D01*
X3680000Y-8185000D02*
X3720000Y-8225000D01*
X3720000Y-8185000D02*
X3680000Y-8225000D01*
X3790000Y-9305000D02*
X3830000Y-9345000D01*
X3830000Y-9305000D02*
X3790000Y-9345000D01*
X3820000Y-4600000D02*
X3860000Y-4640000D01*
X3860000Y-4600000D02*
X3820000Y-4640000D01*
X3926000Y-2638000D02*
X3966000Y-2678000D01*
X3966000Y-2638000D02*
X3926000Y-2678000D01*
X3926000Y-5686000D02*
X3966000Y-5726000D01*
X3966000Y-5686000D02*
X3926000Y-5726000D01*
X3926000Y-8734000D02*
X3966000Y-8774000D01*
X3966000Y-8734000D02*
X3926000Y-8774000D01*
X3926000Y-11020000D02*
X3966000Y-11060000D01*
X3966000Y-11020000D02*
X3926000Y-11060000D01*
X4025000Y-5165000D02*
X4065000Y-5205000D01*
X4065000Y-5165000D02*
X4025000Y-5205000D01*
X4055000Y-3985000D02*
X4095000Y-4025000D01*
X4095000Y-3985000D02*
X4055000Y-4025000D01*
X4180000Y-2638000D02*
X4220000Y-2678000D01*
X4220000Y-2638000D02*
X4180000Y-2678000D01*
X4180000Y-5940000D02*
X4220000Y-5980000D01*
X4220000Y-5940000D02*
X4180000Y-5980000D01*
X4180000Y-8734000D02*
X4220000Y-8774000D01*
X4220000Y-8734000D02*
X4180000Y-8774000D01*
X4180000Y-11020000D02*
X4220000Y-11060000D01*
X4220000Y-11020000D02*
X4180000Y-11060000D01*
X4235000Y-7245000D02*
X4275000Y-7285000D01*
X4275000Y-7245000D02*
X4235000Y-7285000D01*
X4255000Y-9105000D02*
X4295000Y-9145000D01*
X4295000Y-9105000D02*
X4255000Y-9145000D01*
X4370000Y-7120000D02*
X4410000Y-7160000D01*
X4410000Y-7120000D02*
X4370000Y-7160000D01*
X4380000Y-7940000D02*
X4420000Y-7980000D01*
X4420000Y-7940000D02*
X4380000Y-7980000D01*
X4420000Y-6635000D02*
X4460000Y-6675000D01*
X4460000Y-6635000D02*
X4420000Y-6675000D01*
X4425000Y-4670000D02*
X4465000Y-4710000D01*
X4465000Y-4670000D02*
X4425000Y-4710000D01*
X4434000Y-2638000D02*
X4474000Y-2678000D01*
X4474000Y-2638000D02*
X4434000Y-2678000D01*
X4434000Y-6194000D02*
X4474000Y-6234000D01*
X4474000Y-6194000D02*
X4434000Y-6234000D01*
X4434000Y-8734000D02*
X4474000Y-8774000D01*
X4474000Y-8734000D02*
X4434000Y-8774000D01*
X4434000Y-11020000D02*
X4474000Y-11060000D01*
X4474000Y-11020000D02*
X4434000Y-11060000D01*
X4510000Y-4040000D02*
X4550000Y-4080000D01*
X4550000Y-4040000D02*
X4510000Y-4080000D01*
X4540732Y-7874268D02*
X4580732Y-7914268D01*
X4580732Y-7874268D02*
X4540732Y-7914268D01*
X4610000Y-4795000D02*
X4650000Y-4835000D01*
X4650000Y-4795000D02*
X4610000Y-4835000D01*
X4675000Y-3750000D02*
X4715000Y-3790000D01*
X4715000Y-3750000D02*
X4675000Y-3790000D01*
X4688000Y-2638000D02*
X4728000Y-2678000D01*
X4728000Y-2638000D02*
X4688000Y-2678000D01*
X4688000Y-6194000D02*
X4728000Y-6234000D01*
X4728000Y-6194000D02*
X4688000Y-6234000D01*
X4688000Y-8734000D02*
X4728000Y-8774000D01*
X4728000Y-8734000D02*
X4688000Y-8774000D01*
X4688000Y-11020000D02*
X4728000Y-11060000D01*
X4728000Y-11020000D02*
X4688000Y-11060000D01*
X4765000Y-7725000D02*
X4805000Y-7765000D01*
X4805000Y-7725000D02*
X4765000Y-7765000D01*
X4850000Y-7425000D02*
X4890000Y-7465000D01*
X4890000Y-7425000D02*
X4850000Y-7465000D01*
X4915000Y-6610000D02*
X4955000Y-6650000D01*
X4955000Y-6610000D02*
X4915000Y-6650000D01*
X4935000Y-3755000D02*
X4975000Y-3795000D01*
X4975000Y-3755000D02*
X4935000Y-3795000D01*
X4942000Y-2638000D02*
X4982000Y-2678000D01*
X4982000Y-2638000D02*
X4942000Y-2678000D01*
X4942000Y-6194000D02*
X4982000Y-6234000D01*
X4982000Y-6194000D02*
X4942000Y-6234000D01*
X4942000Y-8734000D02*
X4982000Y-8774000D01*
X4982000Y-8734000D02*
X4942000Y-8774000D01*
X4942000Y-11020000D02*
X4982000Y-11060000D01*
X4982000Y-11020000D02*
X4942000Y-11060000D01*
X4945000Y-4200000D02*
X4985000Y-4240000D01*
X4985000Y-4200000D02*
X4945000Y-4240000D01*
X4975000Y-5075000D02*
X5015000Y-5115000D01*
X5015000Y-5075000D02*
X4975000Y-5115000D01*
X5196000Y-2638000D02*
X5236000Y-2678000D01*
X5236000Y-2638000D02*
X5196000Y-2678000D01*
X5196000Y-6194000D02*
X5236000Y-6234000D01*
X5236000Y-6194000D02*
X5196000Y-6234000D01*
X5196000Y-8734000D02*
X5236000Y-8774000D01*
X5236000Y-8734000D02*
X5196000Y-8774000D01*
X5196000Y-11020000D02*
X5236000Y-11060000D01*
X5236000Y-11020000D02*
X5196000Y-11060000D01*
X5210000Y-3890000D02*
X5250000Y-3930000D01*
X5250000Y-3890000D02*
X5210000Y-3930000D01*
X5225000Y-5635000D02*
X5265000Y-5675000D01*
X5265000Y-5635000D02*
X5225000Y-5675000D01*
X5400000Y-4560000D02*
X5440000Y-4600000D01*
X5440000Y-4560000D02*
X5400000Y-4600000D01*
X5450000Y-2638000D02*
X5490000Y-2678000D01*
X5490000Y-2638000D02*
X5450000Y-2678000D01*
X5450000Y-6194000D02*
X5490000Y-6234000D01*
X5490000Y-6194000D02*
X5450000Y-6234000D01*
X5450000Y-8734000D02*
X5490000Y-8774000D01*
X5490000Y-8734000D02*
X5450000Y-8774000D01*
X5450000Y-11020000D02*
X5490000Y-11060000D01*
X5490000Y-11020000D02*
X5450000Y-11060000D01*
X5465000Y-5155000D02*
X5505000Y-5195000D01*
X5505000Y-5155000D02*
X5465000Y-5195000D01*
X5660000Y-6480000D02*
X5700000Y-6520000D01*
X5700000Y-6480000D02*
X5660000Y-6520000D01*
X5704000Y-2638000D02*
X5744000Y-2678000D01*
X5744000Y-2638000D02*
X5704000Y-2678000D01*
X5704000Y-8734000D02*
X5744000Y-8774000D01*
X5744000Y-8734000D02*
X5704000Y-8774000D01*
X5704000Y-11020000D02*
X5744000Y-11060000D01*
X5744000Y-11020000D02*
X5704000Y-11060000D01*
X5705000Y-10890000D02*
X5745000Y-10930000D01*
X5745000Y-10890000D02*
X5705000Y-10930000D01*
X5850000Y-10105000D02*
X5890000Y-10145000D01*
X5890000Y-10105000D02*
X5850000Y-10145000D01*
X5920000Y-5140000D02*
X5960000Y-5180000D01*
X5960000Y-5140000D02*
X5920000Y-5180000D01*
X5958000Y-2638000D02*
X5998000Y-2678000D01*
X5998000Y-2638000D02*
X5958000Y-2678000D01*
X5958000Y-6702000D02*
X5998000Y-6742000D01*
X5998000Y-6702000D02*
X5958000Y-6742000D01*
X5958000Y-6956000D02*
X5998000Y-6996000D01*
X5998000Y-6956000D02*
X5958000Y-6996000D01*
X5958000Y-7210000D02*
X5998000Y-7250000D01*
X5998000Y-7210000D02*
X5958000Y-7250000D01*
X5958000Y-7464000D02*
X5998000Y-7504000D01*
X5998000Y-7464000D02*
X5958000Y-7504000D01*
X5958000Y-7718000D02*
X5998000Y-7758000D01*
X5998000Y-7718000D02*
X5958000Y-7758000D01*
X5958000Y-7972000D02*
X5998000Y-8012000D01*
X5998000Y-7972000D02*
X5958000Y-8012000D01*
X5958000Y-8226000D02*
X5998000Y-8266000D01*
X5998000Y-8226000D02*
X5958000Y-8266000D01*
X5958000Y-8480000D02*
X5998000Y-8520000D01*
X5998000Y-8480000D02*
X5958000Y-8520000D01*
X5958000Y-8734000D02*
X5998000Y-8774000D01*
X5998000Y-8734000D02*
X5958000Y-8774000D01*
X5958000Y-11020000D02*
X5998000Y-11060000D01*
X5998000Y-11020000D02*
X5958000Y-11060000D01*
X6212000Y-2638000D02*
X6252000Y-2678000D01*
X6252000Y-2638000D02*
X6212000Y-2678000D01*
X6212000Y-11020000D02*
X6252000Y-11060000D01*
X6252000Y-11020000D02*
X6212000Y-11060000D01*
X6290000Y-9140000D02*
X6330000Y-9180000D01*
X6330000Y-9140000D02*
X6290000Y-9180000D01*
X6305000Y-9820000D02*
X6345000Y-9860000D01*
X6345000Y-9820000D02*
X6305000Y-9860000D01*
X6315000Y-8860000D02*
X6355000Y-8900000D01*
X6355000Y-8860000D02*
X6315000Y-8900000D01*
X6466000Y-2638000D02*
X6506000Y-2678000D01*
X6506000Y-2638000D02*
X6466000Y-2678000D01*
X6466000Y-11020000D02*
X6506000Y-11060000D01*
X6506000Y-11020000D02*
X6466000Y-11060000D01*
X6630000Y-9760000D02*
X6670000Y-9800000D01*
X6670000Y-9760000D02*
X6630000Y-9800000D01*
X6715000Y-4910000D02*
X6755000Y-4950000D01*
X6755000Y-4910000D02*
X6715000Y-4950000D01*
X6720000Y-2638000D02*
X6760000Y-2678000D01*
X6760000Y-2638000D02*
X6720000Y-2678000D01*
X6720000Y-11020000D02*
X6760000Y-11060000D01*
X6760000Y-11020000D02*
X6720000Y-11060000D01*
X6790000Y-5520000D02*
X6830000Y-5560000D01*
X6830000Y-5520000D02*
X6790000Y-5560000D01*
X6860000Y-10535000D02*
X6900000Y-10575000D01*
X6900000Y-10535000D02*
X6860000Y-10575000D01*
X6915000Y-9160000D02*
X6955000Y-9200000D01*
X6955000Y-9160000D02*
X6915000Y-9200000D01*
X6935000Y-4540000D02*
X6975000Y-4580000D01*
X6975000Y-4540000D02*
X6935000Y-4580000D01*
X6974000Y-2638000D02*
X7014000Y-2678000D01*
X7014000Y-2638000D02*
X6974000Y-2678000D01*
X6974000Y-11020000D02*
X7014000Y-11060000D01*
X7014000Y-11020000D02*
X6974000Y-11060000D01*
X7015000Y-5165000D02*
X7055000Y-5205000D01*
X7055000Y-5165000D02*
X7015000Y-5205000D01*
X7075000Y-10000000D02*
X7115000Y-10040000D01*
X7115000Y-10000000D02*
X7075000Y-10040000D01*
X7220000Y-3880000D02*
X7260000Y-3920000D01*
X7260000Y-3880000D02*
X7220000Y-3920000D01*
X7228000Y-2638000D02*
X7268000Y-2678000D01*
X7268000Y-2638000D02*
X7228000Y-2678000D01*
X7228000Y-11020000D02*
X7268000Y-11060000D01*
X7268000Y-11020000D02*
X7228000Y-11060000D01*
X7250000Y-7465000D02*
X7290000Y-7505000D01*
X7290000Y-7465000D02*
X7250000Y-7505000D01*
X7400000Y-9880000D02*
X7440000Y-9920000D01*
X7440000Y-9880000D02*
X7400000Y-9920000D01*
X7450000Y-7890000D02*
X7490000Y-7930000D01*
X7490000Y-7890000D02*
X7450000Y-7930000D01*
X7482000Y-2638000D02*
X7522000Y-2678000D01*
X7522000Y-2638000D02*
X7482000Y-2678000D01*
X7482000Y-11020000D02*
X7522000Y-11060000D01*
X7522000Y-11020000D02*
X7482000Y-11060000D01*
X7595000Y-6025000D02*
X7635000Y-6065000D01*
X7635000Y-6025000D02*
X7595000Y-6065000D01*
X7605000Y-9695000D02*
X7645000Y-9735000D01*
X7645000Y-9695000D02*
X7605000Y-9735000D01*
X7630000Y-3695000D02*
X7670000Y-3735000D01*
X7670000Y-3695000D02*
X7630000Y-3735000D01*
X7736000Y-2638000D02*
X7776000Y-2678000D01*
X7776000Y-2638000D02*
X7736000Y-2678000D01*
X7736000Y-11020000D02*
X7776000Y-11060000D01*
X7776000Y-11020000D02*
X7736000Y-11060000D01*
X7760000Y-8175000D02*
X7800000Y-8215000D01*
X7800000Y-8175000D02*
X7760000Y-8215000D01*
X7800000Y-5230000D02*
X7840000Y-5270000D01*
X7840000Y-5230000D02*
X7800000Y-5270000D01*
X7990000Y-2638000D02*
X8030000Y-2678000D01*
X8030000Y-2638000D02*
X7990000Y-2678000D01*
X7990000Y-11020000D02*
X8030000Y-11060000D01*
X8030000Y-11020000D02*
X7990000Y-11060000D01*
X7997500Y-7805000D02*
X8037500Y-7845000D01*
X8037500Y-7805000D02*
X7997500Y-7845000D01*
X8018500Y-4623500D02*
X8058500Y-4663500D01*
X8058500Y-4623500D02*
X8018500Y-4663500D01*
X8065000Y-7913000D02*
X8105000Y-7953000D01*
X8105000Y-7913000D02*
X8065000Y-7953000D01*
X8065000Y-8055000D02*
X8105000Y-8095000D01*
X8105000Y-8055000D02*
X8065000Y-8095000D01*
X8095000Y-4040000D02*
X8135000Y-4080000D01*
X8135000Y-4040000D02*
X8095000Y-4080000D01*
X8165000Y-6870000D02*
X8205000Y-6910000D01*
X8205000Y-6870000D02*
X8165000Y-6910000D01*
X8170000Y-8700000D02*
X8210000Y-8740000D01*
X8210000Y-8700000D02*
X8170000Y-8740000D01*
X8190000Y-7395000D02*
X8230000Y-7435000D01*
X8230000Y-7395000D02*
X8190000Y-7435000D01*
X8190500Y-7644000D02*
X8230500Y-7684000D01*
X8230500Y-7644000D02*
X8190500Y-7684000D01*
X8200000Y-8510000D02*
X8240000Y-8550000D01*
X8240000Y-8510000D02*
X8200000Y-8550000D01*
X8235000Y-3765000D02*
X8275000Y-3805000D01*
X8275000Y-3765000D02*
X8235000Y-3805000D01*
X8244000Y-2638000D02*
X8284000Y-2678000D01*
X8284000Y-2638000D02*
X8244000Y-2678000D01*
X8244000Y-11020000D02*
X8284000Y-11060000D01*
X8284000Y-11020000D02*
X8244000Y-11060000D01*
X8260500Y-4750500D02*
X8300500Y-4790500D01*
X8300500Y-4750500D02*
X8260500Y-4790500D01*
X8275000Y-9025000D02*
X8315000Y-9065000D01*
X8315000Y-9025000D02*
X8275000Y-9065000D01*
X8362500Y-8877500D02*
X8402500Y-8917500D01*
X8402500Y-8877500D02*
X8362500Y-8917500D01*
X8498000Y-2638000D02*
X8538000Y-2678000D01*
X8538000Y-2638000D02*
X8498000Y-2678000D01*
X8498000Y-11020000D02*
X8538000Y-11060000D01*
X8538000Y-11020000D02*
X8498000Y-11060000D01*
X8515000Y-5240000D02*
X8555000Y-5280000D01*
X8555000Y-5240000D02*
X8515000Y-5280000D01*
X8575000Y-4215000D02*
X8615000Y-4255000D01*
X8615000Y-4215000D02*
X8575000Y-4255000D01*
X8735000Y-3695000D02*
X8775000Y-3735000D01*
X8775000Y-3695000D02*
X8735000Y-3735000D01*
X8752000Y-2638000D02*
X8792000Y-2678000D01*
X8792000Y-2638000D02*
X8752000Y-2678000D01*
X8752000Y-11020000D02*
X8792000Y-11060000D01*
X8792000Y-11020000D02*
X8752000Y-11060000D01*
X8790000Y-5760000D02*
X8830000Y-5800000D01*
X8830000Y-5760000D02*
X8790000Y-5800000D01*
X9006000Y-2638000D02*
X9046000Y-2678000D01*
X9046000Y-2638000D02*
X9006000Y-2678000D01*
X9006000Y-11020000D02*
X9046000Y-11060000D01*
X9046000Y-11020000D02*
X9006000Y-11060000D01*
X9035000Y-5730000D02*
X9075000Y-5770000D01*
X9075000Y-5730000D02*
X9035000Y-5770000D01*
X9045000Y-10630000D02*
X9085000Y-10670000D01*
X9085000Y-10630000D02*
X9045000Y-10670000D01*
X9065000Y-3890000D02*
X9105000Y-3930000D01*
X9105000Y-3890000D02*
X9065000Y-3930000D01*
X9090000Y-5260000D02*
X9130000Y-5300000D01*
X9130000Y-5260000D02*
X9090000Y-5300000D01*
X9185000Y-6510000D02*
X9225000Y-6550000D01*
X9225000Y-6510000D02*
X9185000Y-6550000D01*
X9210000Y-8135000D02*
X9250000Y-8175000D01*
X9250000Y-8135000D02*
X9210000Y-8175000D01*
X9230000Y-4550000D02*
X9270000Y-4590000D01*
X9270000Y-4550000D02*
X9230000Y-4590000D01*
X9250000Y-6865000D02*
X9290000Y-6905000D01*
X9290000Y-6865000D02*
X9250000Y-6905000D01*
X9260000Y-2638000D02*
X9300000Y-2678000D01*
X9300000Y-2638000D02*
X9260000Y-2678000D01*
X9260000Y-11020000D02*
X9300000Y-11060000D01*
X9300000Y-11020000D02*
X9260000Y-11060000D01*
X9288500Y-5720000D02*
X9328500Y-5760000D01*
X9328500Y-5720000D02*
X9288500Y-5760000D01*
X9395000Y-3695000D02*
X9435000Y-3735000D01*
X9435000Y-3695000D02*
X9395000Y-3735000D01*
X9480000Y-5690000D02*
X9520000Y-5730000D01*
X9520000Y-5690000D02*
X9480000Y-5730000D01*
X9514000Y-2638000D02*
X9554000Y-2678000D01*
X9554000Y-2638000D02*
X9514000Y-2678000D01*
X9514000Y-11020000D02*
X9554000Y-11060000D01*
X9554000Y-11020000D02*
X9514000Y-11060000D01*
X9670000Y-10095000D02*
X9710000Y-10135000D01*
X9710000Y-10095000D02*
X9670000Y-10135000D01*
X9768000Y-2638000D02*
X9808000Y-2678000D01*
X9808000Y-2638000D02*
X9768000Y-2678000D01*
X9768000Y-11020000D02*
X9808000Y-11060000D01*
X9808000Y-11020000D02*
X9768000Y-11060000D01*
X9960000Y-4845000D02*
X10000000Y-4885000D01*
X10000000Y-4845000D02*
X9960000Y-4885000D01*
X10022000Y-2638000D02*
X10062000Y-2678000D01*
X10062000Y-2638000D02*
X10022000Y-2678000D01*
X10022000Y-11020000D02*
X10062000Y-11060000D01*
X10062000Y-11020000D02*
X10022000Y-11060000D01*
X10095000Y-10585000D02*
X10135000Y-10625000D01*
X10135000Y-10585000D02*
X10095000Y-10625000D01*
X10097500Y-9040000D02*
X10137500Y-9080000D01*
X10137500Y-9040000D02*
X10097500Y-9080000D01*
X10235000Y-9040000D02*
X10275000Y-9080000D01*
X10275000Y-9040000D02*
X10235000Y-9080000D01*
X10276000Y-2638000D02*
X10316000Y-2678000D01*
X10316000Y-2638000D02*
X10276000Y-2678000D01*
X10276000Y-11020000D02*
X10316000Y-11060000D01*
X10316000Y-11020000D02*
X10276000Y-11060000D01*
X10335000Y-4145000D02*
X10375000Y-4185000D01*
X10375000Y-4145000D02*
X10335000Y-4185000D01*
X10372500Y-9040000D02*
X10412500Y-9080000D01*
X10412500Y-9040000D02*
X10372500Y-9080000D01*
X10530000Y-2638000D02*
X10570000Y-2678000D01*
X10570000Y-2638000D02*
X10530000Y-2678000D01*
X10530000Y-11020000D02*
X10570000Y-11060000D01*
X10570000Y-11020000D02*
X10530000Y-11060000D01*
X10565000Y-6525000D02*
X10605000Y-6565000D01*
X10605000Y-6525000D02*
X10565000Y-6565000D01*
X10585000Y-4540000D02*
X10625000Y-4580000D01*
X10625000Y-4540000D02*
X10585000Y-4580000D01*
X10585000Y-8135000D02*
X10625000Y-8175000D01*
X10625000Y-8135000D02*
X10585000Y-8175000D01*
X10630000Y-5195000D02*
X10670000Y-5235000D01*
X10670000Y-5195000D02*
X10630000Y-5235000D01*
X10755000Y-5725000D02*
X10795000Y-5765000D01*
X10795000Y-5725000D02*
X10755000Y-5765000D01*
X10784000Y-2638000D02*
X10824000Y-2678000D01*
X10824000Y-2638000D02*
X10784000Y-2678000D01*
X10784000Y-11020000D02*
X10824000Y-11060000D01*
X10824000Y-11020000D02*
X10784000Y-11060000D01*
X11000000Y-5685000D02*
X11040000Y-5725000D01*
X11040000Y-5685000D02*
X11000000Y-5725000D01*
X11005000Y-10210000D02*
X11045000Y-10250000D01*
X11045000Y-10210000D02*
X11005000Y-10250000D01*
X11035000Y-8430000D02*
X11075000Y-8470000D01*
X11075000Y-8430000D02*
X11035000Y-8470000D01*
X11038000Y-2638000D02*
X11078000Y-2678000D01*
X11078000Y-2638000D02*
X11038000Y-2678000D01*
X11038000Y-11020000D02*
X11078000Y-11060000D01*
X11078000Y-11020000D02*
X11038000Y-11060000D01*
X11225000Y-5680000D02*
X11265000Y-5720000D01*
X11265000Y-5680000D02*
X11225000Y-5720000D01*
X11280000Y-3850000D02*
X11320000Y-3890000D01*
X11320000Y-3850000D02*
X11280000Y-3890000D01*
X11292000Y-2638000D02*
X11332000Y-2678000D01*
X11332000Y-2638000D02*
X11292000Y-2678000D01*
X11292000Y-11020000D02*
X11332000Y-11060000D01*
X11332000Y-11020000D02*
X11292000Y-11060000D01*
X11385000Y-5225000D02*
X11425000Y-5265000D01*
X11425000Y-5225000D02*
X11385000Y-5265000D01*
X11540000Y-3772500D02*
X11580000Y-3812500D01*
X11580000Y-3772500D02*
X11540000Y-3812500D01*
X11546000Y-2638000D02*
X11586000Y-2678000D01*
X11586000Y-2638000D02*
X11546000Y-2678000D01*
X11546000Y-11020000D02*
X11586000Y-11060000D01*
X11586000Y-11020000D02*
X11546000Y-11060000D01*
X11615000Y-10555000D02*
X11655000Y-10595000D01*
X11655000Y-10555000D02*
X11615000Y-10595000D01*
X11630000Y-9175000D02*
X11670000Y-9215000D01*
X11670000Y-9175000D02*
X11630000Y-9215000D01*
X11651000Y-8266000D02*
X11691000Y-8306000D01*
X11691000Y-8266000D02*
X11651000Y-8306000D01*
X11668500Y-4623500D02*
X11708500Y-4663500D01*
X11708500Y-4623500D02*
X11668500Y-4663500D01*
X11705000Y-4040000D02*
X11745000Y-4080000D01*
X11745000Y-4040000D02*
X11705000Y-4080000D01*
X11705000Y-7674334D02*
X11745000Y-7714334D01*
X11745000Y-7674334D02*
X11705000Y-7714334D01*
X11705000Y-7784667D02*
X11745000Y-7824667D01*
X11745000Y-7784667D02*
X11705000Y-7824667D01*
X11705000Y-7895000D02*
X11745000Y-7935000D01*
X11745000Y-7895000D02*
X11705000Y-7935000D01*
X11705000Y-8005333D02*
X11745000Y-8045333D01*
X11745000Y-8005333D02*
X11705000Y-8045333D01*
X11800000Y-2638000D02*
X11840000Y-2678000D01*
X11840000Y-2638000D02*
X11800000Y-2678000D01*
X11800000Y-11020000D02*
X11840000Y-11060000D01*
X11840000Y-11020000D02*
X11800000Y-11060000D01*
X11860500Y-4750500D02*
X11900500Y-4790500D01*
X11900500Y-4750500D02*
X11860500Y-4790500D01*
X11865000Y-6400000D02*
X11905000Y-6440000D01*
X11905000Y-6400000D02*
X11865000Y-6440000D01*
X11870000Y-3695000D02*
X11910000Y-3735000D01*
X11910000Y-3695000D02*
X11870000Y-3735000D01*
X11880000Y-5285000D02*
X11920000Y-5325000D01*
X11920000Y-5285000D02*
X11880000Y-5325000D01*
X11905000Y-8959509D02*
X11945000Y-8999509D01*
X11945000Y-8959509D02*
X11905000Y-8999509D01*
X11910000Y-9410000D02*
X11950000Y-9450000D01*
X11950000Y-9410000D02*
X11910000Y-9450000D01*
X11925000Y-8840000D02*
X11965000Y-8880000D01*
X11965000Y-8840000D02*
X11925000Y-8880000D01*
X11970000Y-7780000D02*
X12010000Y-7820000D01*
X12010000Y-7780000D02*
X11970000Y-7820000D01*
X12054000Y-2638000D02*
X12094000Y-2678000D01*
X12094000Y-2638000D02*
X12054000Y-2678000D01*
X12054000Y-11020000D02*
X12094000Y-11060000D01*
X12094000Y-11020000D02*
X12054000Y-11060000D01*
X12055000Y-9085000D02*
X12095000Y-9125000D01*
X12095000Y-9085000D02*
X12055000Y-9125000D01*
X12090000Y-9625000D02*
X12130000Y-9665000D01*
X12130000Y-9625000D02*
X12090000Y-9665000D01*
X12240000Y-3865000D02*
X12280000Y-3905000D01*
X12280000Y-3865000D02*
X12240000Y-3905000D01*
X12308000Y-2638000D02*
X12348000Y-2678000D01*
X12348000Y-2638000D02*
X12308000Y-2678000D01*
X12308000Y-11020000D02*
X12348000Y-11060000D01*
X12348000Y-11020000D02*
X12308000Y-11060000D01*
X12465000Y-4575000D02*
X12505000Y-4615000D01*
X12505000Y-4575000D02*
X12465000Y-4615000D01*
X12550000Y-5960000D02*
X12590000Y-6000000D01*
X12590000Y-5960000D02*
X12550000Y-6000000D01*
X12562000Y-2638000D02*
X12602000Y-2678000D01*
X12602000Y-2638000D02*
X12562000Y-2678000D01*
X12562000Y-11020000D02*
X12602000Y-11060000D01*
X12602000Y-11020000D02*
X12562000Y-11060000D01*
X12630000Y-6305000D02*
X12670000Y-6345000D01*
X12670000Y-6305000D02*
X12630000Y-6345000D01*
X12675000Y-3865000D02*
X12715000Y-3905000D01*
X12715000Y-3865000D02*
X12675000Y-3905000D01*
X12695000Y-8410000D02*
X12735000Y-8450000D01*
X12735000Y-8410000D02*
X12695000Y-8450000D01*
X12720000Y-5265000D02*
X12760000Y-5305000D01*
X12760000Y-5265000D02*
X12720000Y-5305000D01*
X12775000Y-8950000D02*
X12815000Y-8990000D01*
X12815000Y-8950000D02*
X12775000Y-8990000D01*
X12816000Y-2638000D02*
X12856000Y-2678000D01*
X12856000Y-2638000D02*
X12816000Y-2678000D01*
X12816000Y-11020000D02*
X12856000Y-11060000D01*
X12856000Y-11020000D02*
X12816000Y-11060000D01*
X12970000Y-9565000D02*
X13010000Y-9605000D01*
X13010000Y-9565000D02*
X12970000Y-9605000D01*
X13070000Y-2638000D02*
X13110000Y-2678000D01*
X13110000Y-2638000D02*
X13070000Y-2678000D01*
X13070000Y-11020000D02*
X13110000Y-11060000D01*
X13110000Y-11020000D02*
X13070000Y-11060000D01*
X13085000Y-6905000D02*
X13125000Y-6945000D01*
X13125000Y-6905000D02*
X13085000Y-6945000D01*
X13195000Y-8410000D02*
X13235000Y-8450000D01*
X13235000Y-8410000D02*
X13195000Y-8450000D01*
X13324000Y-2638000D02*
X13364000Y-2678000D01*
X13364000Y-2638000D02*
X13324000Y-2678000D01*
X13324000Y-11020000D02*
X13364000Y-11060000D01*
X13364000Y-11020000D02*
X13324000Y-11060000D01*
X13455000Y-7017500D02*
X13495000Y-7057500D01*
X13495000Y-7017500D02*
X13455000Y-7057500D01*
X13495000Y-9575000D02*
X13535000Y-9615000D01*
X13535000Y-9575000D02*
X13495000Y-9615000D01*
X13578000Y-2638000D02*
X13618000Y-2678000D01*
X13618000Y-2638000D02*
X13578000Y-2678000D01*
X13578000Y-11020000D02*
X13618000Y-11060000D01*
X13618000Y-11020000D02*
X13578000Y-11060000D01*
X13620000Y-6410000D02*
X13660000Y-6450000D01*
X13660000Y-6410000D02*
X13620000Y-6450000D01*
X13690000Y-5080000D02*
X13730000Y-5120000D01*
X13730000Y-5080000D02*
X13690000Y-5120000D01*
X13710000Y-5590000D02*
X13750000Y-5630000D01*
X13750000Y-5590000D02*
X13710000Y-5630000D01*
X13725000Y-8805000D02*
X13765000Y-8845000D01*
X13765000Y-8805000D02*
X13725000Y-8845000D01*
X13770000Y-8250000D02*
X13810000Y-8290000D01*
X13810000Y-8250000D02*
X13770000Y-8290000D01*
X13832000Y-2638000D02*
X13872000Y-2678000D01*
X13872000Y-2638000D02*
X13832000Y-2678000D01*
X13832000Y-11020000D02*
X13872000Y-11060000D01*
X13872000Y-11020000D02*
X13832000Y-11060000D01*
X13905000Y-4545000D02*
X13945000Y-4585000D01*
X13945000Y-4545000D02*
X13905000Y-4585000D01*
X13910000Y-4160000D02*
X13950000Y-4200000D01*
X13950000Y-4160000D02*
X13910000Y-4200000D01*
X14086000Y-2638000D02*
X14126000Y-2678000D01*
X14126000Y-2638000D02*
X14086000Y-2678000D01*
X14086000Y-11020000D02*
X14126000Y-11060000D01*
X14126000Y-11020000D02*
X14086000Y-11060000D01*
X14115000Y-10100000D02*
X14155000Y-10140000D01*
X14155000Y-10100000D02*
X14115000Y-10140000D01*
X14255000Y-5970000D02*
X14295000Y-6010000D01*
X14295000Y-5970000D02*
X14255000Y-6010000D01*
X14340000Y-2638000D02*
X14380000Y-2678000D01*
X14380000Y-2638000D02*
X14340000Y-2678000D01*
X14340000Y-11020000D02*
X14380000Y-11060000D01*
X14380000Y-11020000D02*
X14340000Y-11060000D01*
X14450000Y-5095000D02*
X14490000Y-5135000D01*
X14490000Y-5095000D02*
X14450000Y-5135000D01*
X14594000Y-2638000D02*
X14634000Y-2678000D01*
X14634000Y-2638000D02*
X14594000Y-2678000D01*
X14594000Y-11020000D02*
X14634000Y-11060000D01*
X14634000Y-11020000D02*
X14594000Y-11060000D01*
X14715000Y-5980000D02*
X14755000Y-6020000D01*
X14755000Y-5980000D02*
X14715000Y-6020000D01*
X14755000Y-8370000D02*
X14795000Y-8410000D01*
X14795000Y-8370000D02*
X14755000Y-8410000D01*
X14825000Y-5095000D02*
X14865000Y-5135000D01*
X14865000Y-5095000D02*
X14825000Y-5135000D01*
X14848000Y-2638000D02*
X14888000Y-2678000D01*
X14888000Y-2638000D02*
X14848000Y-2678000D01*
X14848000Y-11020000D02*
X14888000Y-11060000D01*
X14888000Y-11020000D02*
X14848000Y-11060000D01*
X14860000Y-10650000D02*
X14900000Y-10690000D01*
X14900000Y-10650000D02*
X14860000Y-10690000D01*
X14885000Y-10275000D02*
X14925000Y-10315000D01*
X14925000Y-10275000D02*
X14885000Y-10315000D01*
X14930000Y-4165000D02*
X14970000Y-4205000D01*
X14970000Y-4165000D02*
X14930000Y-4205000D01*
X15102000Y-2638000D02*
X15142000Y-2678000D01*
X15142000Y-2638000D02*
X15102000Y-2678000D01*
X15102000Y-11020000D02*
X15142000Y-11060000D01*
X15142000Y-11020000D02*
X15102000Y-11060000D01*
X15180000Y-8955000D02*
X15220000Y-8995000D01*
X15220000Y-8955000D02*
X15180000Y-8995000D01*
X15205000Y-7890000D02*
X15245000Y-7930000D01*
X15245000Y-7890000D02*
X15205000Y-7930000D01*
X15273500Y-4623500D02*
X15313500Y-4663500D01*
X15313500Y-4623500D02*
X15273500Y-4663500D01*
X15356000Y-2638000D02*
X15396000Y-2678000D01*
X15396000Y-2638000D02*
X15356000Y-2678000D01*
X15356000Y-11020000D02*
X15396000Y-11060000D01*
X15396000Y-11020000D02*
X15356000Y-11060000D01*
X15390000Y-4040000D02*
X15430000Y-4080000D01*
X15430000Y-4040000D02*
X15390000Y-4080000D01*
X15495500Y-4750500D02*
X15535500Y-4790500D01*
X15535500Y-4750500D02*
X15495500Y-4790500D01*
X15515000Y-3765000D02*
X15555000Y-3805000D01*
X15555000Y-3765000D02*
X15515000Y-3805000D01*
X15525000Y-4325000D02*
X15565000Y-4365000D01*
X15565000Y-4325000D02*
X15525000Y-4365000D01*
X15610000Y-2638000D02*
X15650000Y-2678000D01*
X15650000Y-2638000D02*
X15610000Y-2678000D01*
X15610000Y-11020000D02*
X15650000Y-11060000D01*
X15650000Y-11020000D02*
X15610000Y-11060000D01*
X15675000Y-8130000D02*
X15715000Y-8170000D01*
X15715000Y-8130000D02*
X15675000Y-8170000D01*
X15864000Y-2638000D02*
X15904000Y-2678000D01*
X15904000Y-2638000D02*
X15864000Y-2678000D01*
X15864000Y-11020000D02*
X15904000Y-11060000D01*
X15904000Y-11020000D02*
X15864000Y-11060000D01*
X15870000Y-5095000D02*
X15910000Y-5135000D01*
X15910000Y-5095000D02*
X15870000Y-5135000D01*
X15870000Y-8435000D02*
X15910000Y-8475000D01*
X15910000Y-8435000D02*
X15870000Y-8475000D01*
X15885000Y-8025000D02*
X15925000Y-8065000D01*
X15925000Y-8025000D02*
X15885000Y-8065000D01*
X15900000Y-6505000D02*
X15940000Y-6545000D01*
X15940000Y-6505000D02*
X15900000Y-6545000D01*
X15920000Y-3715000D02*
X15960000Y-3755000D01*
X15960000Y-3715000D02*
X15920000Y-3755000D01*
X16030000Y-5610000D02*
X16070000Y-5650000D01*
X16070000Y-5610000D02*
X16030000Y-5650000D01*
X16085000Y-6365000D02*
X16125000Y-6405000D01*
X16125000Y-6365000D02*
X16085000Y-6405000D01*
X16118000Y-2638000D02*
X16158000Y-2678000D01*
X16158000Y-2638000D02*
X16118000Y-2678000D01*
X16118000Y-11020000D02*
X16158000Y-11060000D01*
X16158000Y-11020000D02*
X16118000Y-11060000D01*
X16310000Y-3930000D02*
X16350000Y-3970000D01*
X16350000Y-3930000D02*
X16310000Y-3970000D01*
X16320000Y-5335000D02*
X16360000Y-5375000D01*
X16360000Y-5335000D02*
X16320000Y-5375000D01*
X16372000Y-2638000D02*
X16412000Y-2678000D01*
X16412000Y-2638000D02*
X16372000Y-2678000D01*
X16372000Y-11020000D02*
X16412000Y-11060000D01*
X16412000Y-11020000D02*
X16372000Y-11060000D01*
X16530000Y-4515000D02*
X16570000Y-4555000D01*
X16570000Y-4515000D02*
X16530000Y-4555000D01*
X16545000Y-9170000D02*
X16585000Y-9210000D01*
X16585000Y-9170000D02*
X16545000Y-9210000D01*
X16626000Y-2638000D02*
X16666000Y-2678000D01*
X16666000Y-2638000D02*
X16626000Y-2678000D01*
X16626000Y-11020000D02*
X16666000Y-11060000D01*
X16666000Y-11020000D02*
X16626000Y-11060000D01*
X16650000Y-7410000D02*
X16690000Y-7450000D01*
X16690000Y-7410000D02*
X16650000Y-7450000D01*
X16730000Y-6745000D02*
X16770000Y-6785000D01*
X16770000Y-6745000D02*
X16730000Y-6785000D01*
X16730000Y-8005000D02*
X16770000Y-8045000D01*
X16770000Y-8005000D02*
X16730000Y-8045000D01*
X16840000Y-4905000D02*
X16880000Y-4945000D01*
X16880000Y-4905000D02*
X16840000Y-4945000D01*
X16880000Y-2638000D02*
X16920000Y-2678000D01*
X16920000Y-2638000D02*
X16880000Y-2678000D01*
X16880000Y-11020000D02*
X16920000Y-11060000D01*
X16920000Y-11020000D02*
X16880000Y-11060000D01*
X17045000Y-3690000D02*
X17085000Y-3730000D01*
X17085000Y-3690000D02*
X17045000Y-3730000D01*
X17134000Y-2638000D02*
X17174000Y-2678000D01*
X17174000Y-2638000D02*
X17134000Y-2678000D01*
X17134000Y-11020000D02*
X17174000Y-11060000D01*
X17174000Y-11020000D02*
X17134000Y-11060000D01*
X17175000Y-7735000D02*
X17215000Y-7775000D01*
X17215000Y-7735000D02*
X17175000Y-7775000D01*
X17200000Y-10630000D02*
X17240000Y-10670000D01*
X17240000Y-10630000D02*
X17200000Y-10670000D01*
X17388000Y-2638000D02*
X17428000Y-2678000D01*
X17428000Y-2638000D02*
X17388000Y-2678000D01*
X17388000Y-11020000D02*
X17428000Y-11060000D01*
X17428000Y-11020000D02*
X17388000Y-11060000D01*
X17435000Y-7940000D02*
X17475000Y-7980000D01*
X17475000Y-7940000D02*
X17435000Y-7980000D01*
X17490000Y-9170000D02*
X17530000Y-9210000D01*
X17530000Y-9170000D02*
X17490000Y-9210000D01*
X17505000Y-10325000D02*
X17545000Y-10365000D01*
X17545000Y-10325000D02*
X17505000Y-10365000D01*
X17560000Y-8635000D02*
X17600000Y-8675000D01*
X17600000Y-8635000D02*
X17560000Y-8675000D01*
X17600000Y-7255000D02*
X17640000Y-7295000D01*
X17640000Y-7255000D02*
X17600000Y-7295000D01*
X17642000Y-2638000D02*
X17682000Y-2678000D01*
X17682000Y-2638000D02*
X17642000Y-2678000D01*
X17642000Y-11020000D02*
X17682000Y-11060000D01*
X17682000Y-11020000D02*
X17642000Y-11060000D01*
X17650000Y-7075000D02*
X17690000Y-7115000D01*
X17690000Y-7075000D02*
X17650000Y-7115000D01*
X17896000Y-2638000D02*
X17936000Y-2678000D01*
X17936000Y-2638000D02*
X17896000Y-2678000D01*
X17896000Y-2892000D02*
X17936000Y-2932000D01*
X17936000Y-2892000D02*
X17896000Y-2932000D01*
X17896000Y-3146000D02*
X17936000Y-3186000D01*
X17936000Y-3146000D02*
X17896000Y-3186000D01*
X17896000Y-3400000D02*
X17936000Y-3440000D01*
X17936000Y-3400000D02*
X17896000Y-3440000D01*
X17896000Y-3654000D02*
X17936000Y-3694000D01*
X17936000Y-3654000D02*
X17896000Y-3694000D01*
X17896000Y-3908000D02*
X17936000Y-3948000D01*
X17936000Y-3908000D02*
X17896000Y-3948000D01*
X17896000Y-4162000D02*
X17936000Y-4202000D01*
X17936000Y-4162000D02*
X17896000Y-4202000D01*
X17896000Y-4416000D02*
X17936000Y-4456000D01*
X17936000Y-4416000D02*
X17896000Y-4456000D01*
X17896000Y-4670000D02*
X17936000Y-4710000D01*
X17936000Y-4670000D02*
X17896000Y-4710000D01*
X17896000Y-4924000D02*
X17936000Y-4964000D01*
X17936000Y-4924000D02*
X17896000Y-4964000D01*
X17896000Y-5178000D02*
X17936000Y-5218000D01*
X17936000Y-5178000D02*
X17896000Y-5218000D01*
X17896000Y-5432000D02*
X17936000Y-5472000D01*
X17936000Y-5432000D02*
X17896000Y-5472000D01*
X17896000Y-5686000D02*
X17936000Y-5726000D01*
X17936000Y-5686000D02*
X17896000Y-5726000D01*
X17896000Y-5940000D02*
X17936000Y-5980000D01*
X17936000Y-5940000D02*
X17896000Y-5980000D01*
X17896000Y-6194000D02*
X17936000Y-6234000D01*
X17936000Y-6194000D02*
X17896000Y-6234000D01*
X17896000Y-6448000D02*
X17936000Y-6488000D01*
X17936000Y-6448000D02*
X17896000Y-6488000D01*
X17896000Y-6702000D02*
X17936000Y-6742000D01*
X17936000Y-6702000D02*
X17896000Y-6742000D01*
X17896000Y-6956000D02*
X17936000Y-6996000D01*
X17936000Y-6956000D02*
X17896000Y-6996000D01*
X17896000Y-7210000D02*
X17936000Y-7250000D01*
X17936000Y-7210000D02*
X17896000Y-7250000D01*
X17896000Y-7464000D02*
X17936000Y-7504000D01*
X17936000Y-7464000D02*
X17896000Y-7504000D01*
X17896000Y-7718000D02*
X17936000Y-7758000D01*
X17936000Y-7718000D02*
X17896000Y-7758000D01*
X17896000Y-7972000D02*
X17936000Y-8012000D01*
X17936000Y-7972000D02*
X17896000Y-8012000D01*
X17896000Y-8226000D02*
X17936000Y-8266000D01*
X17936000Y-8226000D02*
X17896000Y-8266000D01*
X17896000Y-8480000D02*
X17936000Y-8520000D01*
X17936000Y-8480000D02*
X17896000Y-8520000D01*
X17896000Y-8734000D02*
X17936000Y-8774000D01*
X17936000Y-8734000D02*
X17896000Y-8774000D01*
X17896000Y-8988000D02*
X17936000Y-9028000D01*
X17936000Y-8988000D02*
X17896000Y-9028000D01*
X17896000Y-9242000D02*
X17936000Y-9282000D01*
X17936000Y-9242000D02*
X17896000Y-9282000D01*
X17896000Y-9496000D02*
X17936000Y-9536000D01*
X17936000Y-9496000D02*
X17896000Y-9536000D01*
X17896000Y-9750000D02*
X17936000Y-9790000D01*
X17936000Y-9750000D02*
X17896000Y-9790000D01*
X17896000Y-10004000D02*
X17936000Y-10044000D01*
X17936000Y-10004000D02*
X17896000Y-10044000D01*
X17896000Y-10258000D02*
X17936000Y-10298000D01*
X17936000Y-10258000D02*
X17896000Y-10298000D01*
X17896000Y-10512000D02*
X17936000Y-10552000D01*
X17936000Y-10512000D02*
X17896000Y-10552000D01*
X17896000Y-10766000D02*
X17936000Y-10806000D01*
X17936000Y-10766000D02*
X17896000Y-10806000D01*
X17896000Y-11020000D02*
X17936000Y-11060000D01*
X17936000Y-11020000D02*
X17896000Y-11060000D01*
X4385000Y-5640000D02*
G75*
G02*
X4305000Y-5640000I-40000J0D01*
G01*
X4305000Y-5640000D02*
G75*
G02*
X4385000Y-5640000I40000J0D01*
G01*
X4735000Y-5640000D02*
G75*
G02*
X4655000Y-5640000I-40000J0D01*
G01*
X4655000Y-5640000D02*
G75*
G02*
X4735000Y-5640000I40000J0D01*
G01*
X8015000Y-5615000D02*
G75*
G02*
X7935000Y-5615000I-40000J0D01*
G01*
X7935000Y-5615000D02*
G75*
G02*
X8015000Y-5615000I40000J0D01*
G01*
X8365000Y-5615000D02*
G75*
G02*
X8285000Y-5615000I-40000J0D01*
G01*
X8285000Y-5615000D02*
G75*
G02*
X8365000Y-5615000I40000J0D01*
G01*
X11639735Y-5615000D02*
G75*
G02*
X11559735Y-5615000I-40000J0D01*
G01*
X11559735Y-5615000D02*
G75*
G02*
X11639735Y-5615000I40000J0D01*
G01*
X11989735Y-5615000D02*
G75*
G02*
X11909735Y-5615000I-40000J0D01*
G01*
X11909735Y-5615000D02*
G75*
G02*
X11989735Y-5615000I40000J0D01*
G01*
X15255000Y-5640000D02*
G75*
G02*
X15175000Y-5640000I-40000J0D01*
G01*
X15175000Y-5640000D02*
G75*
G02*
X15255000Y-5640000I40000J0D01*
G01*
X15605000Y-5640000D02*
G75*
G02*
X15525000Y-5640000I-40000J0D01*
G01*
X15525000Y-5640000D02*
G75*
G02*
X15605000Y-5640000I40000J0D01*
G01*
X16060000Y-8670000D02*
G75*
G02*
X15980000Y-8670000I-40000J0D01*
G01*
X15980000Y-8670000D02*
G75*
G02*
X16060000Y-8670000I40000J0D01*
G01*
X16187000Y-8416000D02*
G75*
G02*
X16107000Y-8416000I-40000J0D01*
G01*
X16107000Y-8416000D02*
G75*
G02*
X16187000Y-8416000I40000J0D01*
G01*
X16314000Y-8670000D02*
G75*
G02*
X16234000Y-8670000I-40000J0D01*
G01*
X16234000Y-8670000D02*
G75*
G02*
X16314000Y-8670000I40000J0D01*
G01*
X16441000Y-8416000D02*
G75*
G02*
X16361000Y-8416000I-40000J0D01*
G01*
X16361000Y-8416000D02*
G75*
G02*
X16441000Y-8416000I40000J0D01*
G01*
X16568000Y-8670000D02*
G75*
G02*
X16488000Y-8670000I-40000J0D01*
G01*
X16488000Y-8670000D02*
G75*
G02*
X16568000Y-8670000I40000J0D01*
G01*
X16695000Y-8416000D02*
G75*
G02*
X16615000Y-8416000I-40000J0D01*
G01*
X16615000Y-8416000D02*
G75*
G02*
X16695000Y-8416000I40000J0D01*
G01*
X16822000Y-8670000D02*
G75*
G02*
X16742000Y-8670000I-40000J0D01*
G01*
X16742000Y-8670000D02*
G75*
G02*
X16822000Y-8670000I40000J0D01*
G01*
X16949000Y-8416000D02*
G75*
G02*
X16869000Y-8416000I-40000J0D01*
G01*
X16869000Y-8416000D02*
G75*
G02*
X16949000Y-8416000I40000J0D01*
G01*
X17076000Y-8670000D02*
G75*
G02*
X16996000Y-8670000I-40000J0D01*
G01*
X16996000Y-8670000D02*
G75*
G02*
X17076000Y-8670000I40000J0D01*
G01*
X17203000Y-8416000D02*
G75*
G02*
X17123000Y-8416000I-40000J0D01*
G01*
X17123000Y-8416000D02*
G75*
G02*
X17203000Y-8416000I40000J0D01*
G01*
X17330000Y-8670000D02*
G75*
G02*
X17250000Y-8670000I-40000J0D01*
G01*
X17250000Y-8670000D02*
G75*
G02*
X17330000Y-8670000I40000J0D01*
G01*
X17457000Y-8416000D02*
G75*
G02*
X17377000Y-8416000I-40000J0D01*
G01*
X17377000Y-8416000D02*
G75*
G02*
X17457000Y-8416000I40000J0D01*
G01*
X4495000Y-9541500D02*
X4495000Y-9636500D01*
X4447500Y-9589000D02*
X4542500Y-9589000D01*
X4495000Y-9741500D02*
X4495000Y-9836500D01*
X4447500Y-9789000D02*
X4542500Y-9789000D01*
X4745000Y-9541500D02*
X4745000Y-9636500D01*
X4697500Y-9589000D02*
X4792500Y-9589000D01*
X4745000Y-9741500D02*
X4745000Y-9836500D01*
X4697500Y-9789000D02*
X4792500Y-9789000D01*
X3936856Y-3585356D02*
X3936856Y-3514644D01*
X3866144Y-3514644D01*
X3866144Y-3585356D01*
X3936856Y-3585356D01*
X4190856Y-3585356D02*
X4190856Y-3514644D01*
X4120144Y-3514644D01*
X4120144Y-3585356D01*
X4190856Y-3585356D01*
X4444856Y-3585356D02*
X4444856Y-3514644D01*
X4374144Y-3514644D01*
X4374144Y-3585356D01*
X4444856Y-3585356D01*
X4698856Y-3585356D02*
X4698856Y-3514644D01*
X4628144Y-3514644D01*
X4628144Y-3585356D01*
X4698856Y-3585356D01*
X4952856Y-3585356D02*
X4952856Y-3514644D01*
X4882144Y-3514644D01*
X4882144Y-3585356D01*
X4952856Y-3585356D01*
X5206856Y-3585356D02*
X5206856Y-3514644D01*
X5136144Y-3514644D01*
X5136144Y-3585356D01*
X5206856Y-3585356D01*
X5240356Y-6585356D02*
X5240356Y-6514644D01*
X5169644Y-6514644D01*
X5169644Y-6585356D01*
X5240356Y-6585356D01*
X5460856Y-3585356D02*
X5460856Y-3514644D01*
X5390144Y-3514644D01*
X5390144Y-3585356D01*
X5460856Y-3585356D01*
X5505356Y-5645356D02*
X5505356Y-5574644D01*
X5434644Y-5574644D01*
X5434644Y-5645356D01*
X5505356Y-5645356D01*
X5600356Y-6945356D02*
X5600356Y-6874644D01*
X5529644Y-6874644D01*
X5529644Y-6945356D01*
X5600356Y-6945356D01*
X5600356Y-7305356D02*
X5600356Y-7234644D01*
X5529644Y-7234644D01*
X5529644Y-7305356D01*
X5600356Y-7305356D01*
X5600356Y-7665356D02*
X5600356Y-7594644D01*
X5529644Y-7594644D01*
X5529644Y-7665356D01*
X5600356Y-7665356D01*
X5600356Y-8025356D02*
X5600356Y-7954644D01*
X5529644Y-7954644D01*
X5529644Y-8025356D01*
X5600356Y-8025356D01*
X5714856Y-3585356D02*
X5714856Y-3514644D01*
X5644144Y-3514644D01*
X5644144Y-3585356D01*
X5714856Y-3585356D01*
X5865356Y-5645356D02*
X5865356Y-5574644D01*
X5794644Y-5574644D01*
X5794644Y-5645356D01*
X5865356Y-5645356D01*
X5968856Y-3585356D02*
X5968856Y-3514644D01*
X5898144Y-3514644D01*
X5898144Y-3585356D01*
X5968856Y-3585356D01*
X5968856Y-9560356D02*
X5968856Y-9489644D01*
X5898144Y-9489644D01*
X5898144Y-9560356D01*
X5968856Y-9560356D01*
X6222856Y-3585356D02*
X6222856Y-3514644D01*
X6152144Y-3514644D01*
X6152144Y-3585356D01*
X6222856Y-3585356D01*
X6222856Y-9560356D02*
X6222856Y-9489644D01*
X6152144Y-9489644D01*
X6152144Y-9560356D01*
X6222856Y-9560356D01*
X6670356Y-10300356D02*
X6670356Y-10229644D01*
X6599644Y-10229644D01*
X6599644Y-10300356D01*
X6670356Y-10300356D01*
X7030356Y-10300356D02*
X7030356Y-10229644D01*
X6959644Y-10229644D01*
X6959644Y-10300356D01*
X7030356Y-10300356D01*
X7040356Y-5645356D02*
X7040356Y-5574644D01*
X6969644Y-5574644D01*
X6969644Y-5645356D01*
X7040356Y-5645356D01*
X7240356Y-6610356D02*
X7240356Y-6539644D01*
X7169644Y-6539644D01*
X7169644Y-6610356D01*
X7240356Y-6610356D01*
X7240356Y-6970356D02*
X7240356Y-6899644D01*
X7169644Y-6899644D01*
X7169644Y-6970356D01*
X7240356Y-6970356D01*
X7390356Y-10300356D02*
X7390356Y-10229644D01*
X7319644Y-10229644D01*
X7319644Y-10300356D01*
X7390356Y-10300356D01*
X7400356Y-5645356D02*
X7400356Y-5574644D01*
X7329644Y-5574644D01*
X7329644Y-5645356D01*
X7400356Y-5645356D01*
X7750356Y-10300356D02*
X7750356Y-10229644D01*
X7679644Y-10229644D01*
X7679644Y-10300356D01*
X7750356Y-10300356D01*
X9080356Y-3585356D02*
X9080356Y-3514644D01*
X9009644Y-3514644D01*
X9009644Y-3585356D01*
X9080356Y-3585356D01*
X9334356Y-3585356D02*
X9334356Y-3514644D01*
X9263644Y-3514644D01*
X9263644Y-3585356D01*
X9334356Y-3585356D01*
X9588356Y-3585356D02*
X9588356Y-3514644D01*
X9517644Y-3514644D01*
X9517644Y-3585356D01*
X9588356Y-3585356D01*
X9842356Y-3585356D02*
X9842356Y-3514644D01*
X9771644Y-3514644D01*
X9771644Y-3585356D01*
X9842356Y-3585356D01*
X10096356Y-3585356D02*
X10096356Y-3514644D01*
X10025644Y-3514644D01*
X10025644Y-3585356D01*
X10096356Y-3585356D01*
X10350356Y-3585356D02*
X10350356Y-3514644D01*
X10279644Y-3514644D01*
X10279644Y-3585356D01*
X10350356Y-3585356D01*
X10604356Y-3585356D02*
X10604356Y-3514644D01*
X10533644Y-3514644D01*
X10533644Y-3585356D01*
X10604356Y-3585356D01*
X10858356Y-3585356D02*
X10858356Y-3514644D01*
X10787644Y-3514644D01*
X10787644Y-3585356D01*
X10858356Y-3585356D01*
X11112356Y-3585356D02*
X11112356Y-3514644D01*
X11041644Y-3514644D01*
X11041644Y-3585356D01*
X11112356Y-3585356D01*
X11366356Y-3585356D02*
X11366356Y-3514644D01*
X11295644Y-3514644D01*
X11295644Y-3585356D01*
X11366356Y-3585356D01*
X11620356Y-3585356D02*
X11620356Y-3514644D01*
X11549644Y-3514644D01*
X11549644Y-3585356D01*
X11620356Y-3585356D01*
X12350356Y-10190356D02*
X12350356Y-10119644D01*
X12279644Y-10119644D01*
X12279644Y-10190356D01*
X12350356Y-10190356D01*
X12540356Y-5645356D02*
X12540356Y-5574644D01*
X12469644Y-5574644D01*
X12469644Y-5645356D01*
X12540356Y-5645356D01*
X12710356Y-10190356D02*
X12710356Y-10119644D01*
X12639644Y-10119644D01*
X12639644Y-10190356D01*
X12710356Y-10190356D01*
X12900356Y-5645356D02*
X12900356Y-5574644D01*
X12829644Y-5574644D01*
X12829644Y-5645356D01*
X12900356Y-5645356D01*
X13070356Y-10190356D02*
X13070356Y-10119644D01*
X12999644Y-10119644D01*
X12999644Y-10190356D01*
X13070356Y-10190356D01*
X13430356Y-10190356D02*
X13430356Y-10119644D01*
X13359644Y-10119644D01*
X13359644Y-10190356D01*
X13430356Y-10190356D01*
X13790356Y-10190356D02*
X13790356Y-10119644D01*
X13719644Y-10119644D01*
X13719644Y-10190356D01*
X13790356Y-10190356D01*
X14150356Y-7030356D02*
X14150356Y-6959644D01*
X14079644Y-6959644D01*
X14079644Y-7030356D01*
X14150356Y-7030356D01*
X14230356Y-5645356D02*
X14230356Y-5574644D01*
X14159644Y-5574644D01*
X14159644Y-5645356D01*
X14230356Y-5645356D01*
X14350356Y-3585356D02*
X14350356Y-3514644D01*
X14279644Y-3514644D01*
X14279644Y-3585356D01*
X14350356Y-3585356D01*
X14415356Y-8535356D02*
X14415356Y-8464644D01*
X14344644Y-8464644D01*
X14344644Y-8535356D01*
X14415356Y-8535356D01*
X14415356Y-8895356D02*
X14415356Y-8824644D01*
X14344644Y-8824644D01*
X14344644Y-8895356D01*
X14415356Y-8895356D01*
X14510356Y-7030356D02*
X14510356Y-6959644D01*
X14439644Y-6959644D01*
X14439644Y-7030356D01*
X14510356Y-7030356D01*
X14590356Y-5645356D02*
X14590356Y-5574644D01*
X14519644Y-5574644D01*
X14519644Y-5645356D01*
X14590356Y-5645356D01*
X14604356Y-3585356D02*
X14604356Y-3514644D01*
X14533644Y-3514644D01*
X14533644Y-3585356D01*
X14604356Y-3585356D01*
X14775356Y-8895356D02*
X14775356Y-8824644D01*
X14704644Y-8824644D01*
X14704644Y-8895356D01*
X14775356Y-8895356D01*
X14858356Y-3585356D02*
X14858356Y-3514644D01*
X14787644Y-3514644D01*
X14787644Y-3585356D01*
X14858356Y-3585356D01*
X14870356Y-7030356D02*
X14870356Y-6959644D01*
X14799644Y-6959644D01*
X14799644Y-7030356D01*
X14870356Y-7030356D01*
X15112356Y-3585356D02*
X15112356Y-3514644D01*
X15041644Y-3514644D01*
X15041644Y-3585356D01*
X15112356Y-3585356D01*
X15230356Y-7030356D02*
X15230356Y-6959644D01*
X15159644Y-6959644D01*
X15159644Y-7030356D01*
X15230356Y-7030356D01*
X15366356Y-3585356D02*
X15366356Y-3514644D01*
X15295644Y-3514644D01*
X15295644Y-3585356D01*
X15366356Y-3585356D01*
X15590356Y-7030356D02*
X15590356Y-6959644D01*
X15519644Y-6959644D01*
X15519644Y-7030356D01*
X15590356Y-7030356D01*
X15620356Y-3585356D02*
X15620356Y-3514644D01*
X15549644Y-3514644D01*
X15549644Y-3585356D01*
X15620356Y-3585356D01*
X15874356Y-3585356D02*
X15874356Y-3514644D01*
X15803644Y-3514644D01*
X15803644Y-3585356D01*
X15874356Y-3585356D01*
X16128356Y-3585356D02*
X16128356Y-3514644D01*
X16057644Y-3514644D01*
X16057644Y-3585356D01*
X16128356Y-3585356D01*
X16382356Y-3585356D02*
X16382356Y-3514644D01*
X16311644Y-3514644D01*
X16311644Y-3585356D01*
X16382356Y-3585356D01*
X16636356Y-3585356D02*
X16636356Y-3514644D01*
X16565644Y-3514644D01*
X16565644Y-3585356D01*
X16636356Y-3585356D01*
X16890356Y-3585356D02*
X16890356Y-3514644D01*
X16819644Y-3514644D01*
X16819644Y-3585356D01*
X16890356Y-3585356D01*
X17310356Y-8095356D02*
X17310356Y-8024644D01*
X17239644Y-8024644D01*
X17239644Y-8095356D01*
X17310356Y-8095356D01*
X17670356Y-8095356D02*
X17670356Y-8024644D01*
X17599644Y-8024644D01*
X17599644Y-8095356D01*
X17670356Y-8095356D01*
D13*
X9796400Y-9487570D02*
X9848470Y-9435500D01*
X9796400Y-9383430D01*
X9744330Y-9435500D01*
X9796400Y-9487570D01*
X9933500Y-9772070D02*
X9985570Y-9720000D01*
X9933500Y-9667930D01*
X9881430Y-9720000D01*
X9933500Y-9772070D01*
X10070700Y-9487570D02*
X10122770Y-9435500D01*
X10070700Y-9383430D01*
X10018630Y-9435500D01*
X10070700Y-9487570D01*
X10207800Y-9772070D02*
X10259870Y-9720000D01*
X10207800Y-9667930D01*
X10155730Y-9720000D01*
X10207800Y-9772070D01*
X10345000Y-9487570D02*
X10397070Y-9435500D01*
X10345000Y-9383430D01*
X10292930Y-9435500D01*
X10345000Y-9487570D01*
X10482200Y-9772070D02*
X10534270Y-9720000D01*
X10482200Y-9667930D01*
X10430130Y-9720000D01*
X10482200Y-9772070D01*
X10619300Y-9487570D02*
X10671370Y-9435500D01*
X10619300Y-9383430D01*
X10567230Y-9435500D01*
X10619300Y-9487570D01*
X10756500Y-9772070D02*
X10808570Y-9720000D01*
X10756500Y-9667930D01*
X10704430Y-9720000D01*
X10756500Y-9772070D01*
X10893600Y-9487570D02*
X10945670Y-9435500D01*
X10893600Y-9383430D01*
X10841530Y-9435500D01*
X10893600Y-9487570D01*
X15046400Y-9487570D02*
X15098470Y-9435500D01*
X15046400Y-9383430D01*
X14994330Y-9435500D01*
X15046400Y-9487570D01*
X15183500Y-9772070D02*
X15235570Y-9720000D01*
X15183500Y-9667930D01*
X15131430Y-9720000D01*
X15183500Y-9772070D01*
X15320700Y-9487570D02*
X15372770Y-9435500D01*
X15320700Y-9383430D01*
X15268630Y-9435500D01*
X15320700Y-9487570D01*
X15457800Y-9772070D02*
X15509870Y-9720000D01*
X15457800Y-9667930D01*
X15405730Y-9720000D01*
X15457800Y-9772070D01*
X15595000Y-9487570D02*
X15647070Y-9435500D01*
X15595000Y-9383430D01*
X15542930Y-9435500D01*
X15595000Y-9487570D01*
X15732200Y-9772070D02*
X15784270Y-9720000D01*
X15732200Y-9667930D01*
X15680130Y-9720000D01*
X15732200Y-9772070D01*
X15869300Y-9487570D02*
X15921370Y-9435500D01*
X15869300Y-9383430D01*
X15817230Y-9435500D01*
X15869300Y-9487570D01*
X16006500Y-9772070D02*
X16058570Y-9720000D01*
X16006500Y-9667930D01*
X15954430Y-9720000D01*
X16006500Y-9772070D01*
X16143600Y-9487570D02*
X16195670Y-9435500D01*
X16143600Y-9383430D01*
X16091530Y-9435500D01*
X16143600Y-9487570D01*
D14*
X3227500Y-3082500D02*
X3362500Y-3217500D01*
X3362500Y-3082500D02*
X3227500Y-3217500D01*
X3362500Y-3150000D02*
G75*
G02*
X3227500Y-3150000I-67500J0D01*
G01*
X3227500Y-3150000D02*
G75*
G02*
X3362500Y-3150000I67500J0D01*
G01*
X3577500Y-3082500D02*
X3712500Y-3217500D01*
X3712500Y-3082500D02*
X3577500Y-3217500D01*
X3712500Y-3150000D02*
G75*
G02*
X3577500Y-3150000I-67500J0D01*
G01*
X3577500Y-3150000D02*
G75*
G02*
X3712500Y-3150000I67500J0D01*
G01*
X3927500Y-3082500D02*
X4062500Y-3217500D01*
X4062500Y-3082500D02*
X3927500Y-3217500D01*
X4062500Y-3150000D02*
G75*
G02*
X3927500Y-3150000I-67500J0D01*
G01*
X3927500Y-3150000D02*
G75*
G02*
X4062500Y-3150000I67500J0D01*
G01*
X4277500Y-3082500D02*
X4412500Y-3217500D01*
X4412500Y-3082500D02*
X4277500Y-3217500D01*
X4412500Y-3150000D02*
G75*
G02*
X4277500Y-3150000I-67500J0D01*
G01*
X4277500Y-3150000D02*
G75*
G02*
X4412500Y-3150000I67500J0D01*
G01*
X4627500Y-3082500D02*
X4762500Y-3217500D01*
X4762500Y-3082500D02*
X4627500Y-3217500D01*
X4762500Y-3150000D02*
G75*
G02*
X4627500Y-3150000I-67500J0D01*
G01*
X4627500Y-3150000D02*
G75*
G02*
X4762500Y-3150000I67500J0D01*
G01*
X4977500Y-3082500D02*
X5112500Y-3217500D01*
X5112500Y-3082500D02*
X4977500Y-3217500D01*
X5112500Y-3150000D02*
G75*
G02*
X4977500Y-3150000I-67500J0D01*
G01*
X4977500Y-3150000D02*
G75*
G02*
X5112500Y-3150000I67500J0D01*
G01*
X5327500Y-3082500D02*
X5462500Y-3217500D01*
X5462500Y-3082500D02*
X5327500Y-3217500D01*
X5462500Y-3150000D02*
G75*
G02*
X5327500Y-3150000I-67500J0D01*
G01*
X5327500Y-3150000D02*
G75*
G02*
X5462500Y-3150000I67500J0D01*
G01*
X5677500Y-3082500D02*
X5812500Y-3217500D01*
X5812500Y-3082500D02*
X5677500Y-3217500D01*
X5812500Y-3150000D02*
G75*
G02*
X5677500Y-3150000I-67500J0D01*
G01*
X5677500Y-3150000D02*
G75*
G02*
X5812500Y-3150000I67500J0D01*
G01*
X6027500Y-3082500D02*
X6162500Y-3217500D01*
X6162500Y-3082500D02*
X6027500Y-3217500D01*
X6162500Y-3150000D02*
G75*
G02*
X6027500Y-3150000I-67500J0D01*
G01*
X6027500Y-3150000D02*
G75*
G02*
X6162500Y-3150000I67500J0D01*
G01*
X6377500Y-3082500D02*
X6512500Y-3217500D01*
X6512500Y-3082500D02*
X6377500Y-3217500D01*
X6512500Y-3150000D02*
G75*
G02*
X6377500Y-3150000I-67500J0D01*
G01*
X6377500Y-3150000D02*
G75*
G02*
X6512500Y-3150000I67500J0D01*
G01*
X6727500Y-3082500D02*
X6862500Y-3217500D01*
X6862500Y-3082500D02*
X6727500Y-3217500D01*
X6862500Y-3150000D02*
G75*
G02*
X6727500Y-3150000I-67500J0D01*
G01*
X6727500Y-3150000D02*
G75*
G02*
X6862500Y-3150000I67500J0D01*
G01*
X8497500Y-3082500D02*
X8632500Y-3217500D01*
X8632500Y-3082500D02*
X8497500Y-3217500D01*
X8632500Y-3150000D02*
G75*
G02*
X8497500Y-3150000I-67500J0D01*
G01*
X8497500Y-3150000D02*
G75*
G02*
X8632500Y-3150000I67500J0D01*
G01*
X8847500Y-3082500D02*
X8982500Y-3217500D01*
X8982500Y-3082500D02*
X8847500Y-3217500D01*
X8982500Y-3150000D02*
G75*
G02*
X8847500Y-3150000I-67500J0D01*
G01*
X8847500Y-3150000D02*
G75*
G02*
X8982500Y-3150000I67500J0D01*
G01*
X9197500Y-3082500D02*
X9332500Y-3217500D01*
X9332500Y-3082500D02*
X9197500Y-3217500D01*
X9332500Y-3150000D02*
G75*
G02*
X9197500Y-3150000I-67500J0D01*
G01*
X9197500Y-3150000D02*
G75*
G02*
X9332500Y-3150000I67500J0D01*
G01*
X9547500Y-3082500D02*
X9682500Y-3217500D01*
X9682500Y-3082500D02*
X9547500Y-3217500D01*
X9682500Y-3150000D02*
G75*
G02*
X9547500Y-3150000I-67500J0D01*
G01*
X9547500Y-3150000D02*
G75*
G02*
X9682500Y-3150000I67500J0D01*
G01*
X9897500Y-3082500D02*
X10032500Y-3217500D01*
X10032500Y-3082500D02*
X9897500Y-3217500D01*
X10032500Y-3150000D02*
G75*
G02*
X9897500Y-3150000I-67500J0D01*
G01*
X9897500Y-3150000D02*
G75*
G02*
X10032500Y-3150000I67500J0D01*
G01*
X10247500Y-3082500D02*
X10382500Y-3217500D01*
X10382500Y-3082500D02*
X10247500Y-3217500D01*
X10382500Y-3150000D02*
G75*
G02*
X10247500Y-3150000I-67500J0D01*
G01*
X10247500Y-3150000D02*
G75*
G02*
X10382500Y-3150000I67500J0D01*
G01*
X10597500Y-3082500D02*
X10732500Y-3217500D01*
X10732500Y-3082500D02*
X10597500Y-3217500D01*
X10732500Y-3150000D02*
G75*
G02*
X10597500Y-3150000I-67500J0D01*
G01*
X10597500Y-3150000D02*
G75*
G02*
X10732500Y-3150000I67500J0D01*
G01*
X10947500Y-3082500D02*
X11082500Y-3217500D01*
X11082500Y-3082500D02*
X10947500Y-3217500D01*
X11082500Y-3150000D02*
G75*
G02*
X10947500Y-3150000I-67500J0D01*
G01*
X10947500Y-3150000D02*
G75*
G02*
X11082500Y-3150000I67500J0D01*
G01*
X11297500Y-3082500D02*
X11432500Y-3217500D01*
X11432500Y-3082500D02*
X11297500Y-3217500D01*
X11432500Y-3150000D02*
G75*
G02*
X11297500Y-3150000I-67500J0D01*
G01*
X11297500Y-3150000D02*
G75*
G02*
X11432500Y-3150000I67500J0D01*
G01*
X11647500Y-3082500D02*
X11782500Y-3217500D01*
X11782500Y-3082500D02*
X11647500Y-3217500D01*
X11782500Y-3150000D02*
G75*
G02*
X11647500Y-3150000I-67500J0D01*
G01*
X11647500Y-3150000D02*
G75*
G02*
X11782500Y-3150000I67500J0D01*
G01*
X11997500Y-3082500D02*
X12132500Y-3217500D01*
X12132500Y-3082500D02*
X11997500Y-3217500D01*
X12132500Y-3150000D02*
G75*
G02*
X11997500Y-3150000I-67500J0D01*
G01*
X11997500Y-3150000D02*
G75*
G02*
X12132500Y-3150000I67500J0D01*
G01*
X13767500Y-3082500D02*
X13902500Y-3217500D01*
X13902500Y-3082500D02*
X13767500Y-3217500D01*
X13902500Y-3150000D02*
G75*
G02*
X13767500Y-3150000I-67500J0D01*
G01*
X13767500Y-3150000D02*
G75*
G02*
X13902500Y-3150000I67500J0D01*
G01*
X14117500Y-3082500D02*
X14252500Y-3217500D01*
X14252500Y-3082500D02*
X14117500Y-3217500D01*
X14252500Y-3150000D02*
G75*
G02*
X14117500Y-3150000I-67500J0D01*
G01*
X14117500Y-3150000D02*
G75*
G02*
X14252500Y-3150000I67500J0D01*
G01*
X14467500Y-3082500D02*
X14602500Y-3217500D01*
X14602500Y-3082500D02*
X14467500Y-3217500D01*
X14602500Y-3150000D02*
G75*
G02*
X14467500Y-3150000I-67500J0D01*
G01*
X14467500Y-3150000D02*
G75*
G02*
X14602500Y-3150000I67500J0D01*
G01*
X14817500Y-3082500D02*
X14952500Y-3217500D01*
X14952500Y-3082500D02*
X14817500Y-3217500D01*
X14952500Y-3150000D02*
G75*
G02*
X14817500Y-3150000I-67500J0D01*
G01*
X14817500Y-3150000D02*
G75*
G02*
X14952500Y-3150000I67500J0D01*
G01*
X15167500Y-3082500D02*
X15302500Y-3217500D01*
X15302500Y-3082500D02*
X15167500Y-3217500D01*
X15302500Y-3150000D02*
G75*
G02*
X15167500Y-3150000I-67500J0D01*
G01*
X15167500Y-3150000D02*
G75*
G02*
X15302500Y-3150000I67500J0D01*
G01*
X15517500Y-3082500D02*
X15652500Y-3217500D01*
X15652500Y-3082500D02*
X15517500Y-3217500D01*
X15652500Y-3150000D02*
G75*
G02*
X15517500Y-3150000I-67500J0D01*
G01*
X15517500Y-3150000D02*
G75*
G02*
X15652500Y-3150000I67500J0D01*
G01*
X15867500Y-3082500D02*
X16002500Y-3217500D01*
X16002500Y-3082500D02*
X15867500Y-3217500D01*
X16002500Y-3150000D02*
G75*
G02*
X15867500Y-3150000I-67500J0D01*
G01*
X15867500Y-3150000D02*
G75*
G02*
X16002500Y-3150000I67500J0D01*
G01*
X16217500Y-3082500D02*
X16352500Y-3217500D01*
X16352500Y-3082500D02*
X16217500Y-3217500D01*
X16352500Y-3150000D02*
G75*
G02*
X16217500Y-3150000I-67500J0D01*
G01*
X16217500Y-3150000D02*
G75*
G02*
X16352500Y-3150000I67500J0D01*
G01*
X16567500Y-3082500D02*
X16702500Y-3217500D01*
X16702500Y-3082500D02*
X16567500Y-3217500D01*
X16702500Y-3150000D02*
G75*
G02*
X16567500Y-3150000I-67500J0D01*
G01*
X16567500Y-3150000D02*
G75*
G02*
X16702500Y-3150000I67500J0D01*
G01*
X16917500Y-3082500D02*
X17052500Y-3217500D01*
X17052500Y-3082500D02*
X16917500Y-3217500D01*
X17052500Y-3150000D02*
G75*
G02*
X16917500Y-3150000I-67500J0D01*
G01*
X16917500Y-3150000D02*
G75*
G02*
X17052500Y-3150000I67500J0D01*
G01*
X17267500Y-3082500D02*
X17402500Y-3217500D01*
X17402500Y-3082500D02*
X17267500Y-3217500D01*
X17402500Y-3150000D02*
G75*
G02*
X17267500Y-3150000I-67500J0D01*
G01*
X17267500Y-3150000D02*
G75*
G02*
X17402500Y-3150000I67500J0D01*
G01*
D15*
X3905000Y-9960000D02*
X4135000Y-10190000D01*
X4135000Y-9960000D02*
X3905000Y-10190000D01*
X4020000Y-9960000D02*
X4020000Y-10190000D01*
X3905000Y-10075000D02*
X4135000Y-10075000D01*
X5105000Y-9960000D02*
X5335000Y-10190000D01*
X5335000Y-9960000D02*
X5105000Y-10190000D01*
X5220000Y-9960000D02*
X5220000Y-10190000D01*
X5105000Y-10075000D02*
X5335000Y-10075000D01*
D16*
X8932740Y-9415240D02*
X9257860Y-9740360D01*
X9257860Y-9415240D02*
X8932740Y-9740360D01*
X9210248Y-9692748D02*
X9210248Y-9462852D01*
X8980352Y-9462852D01*
X8980352Y-9692748D01*
X9210248Y-9692748D01*
X11432140Y-9415240D02*
X11757260Y-9740360D01*
X11757260Y-9415240D02*
X11432140Y-9740360D01*
X11709648Y-9692748D02*
X11709648Y-9462852D01*
X11479752Y-9462852D01*
X11479752Y-9692748D01*
X11709648Y-9692748D01*
X14182740Y-9415240D02*
X14507860Y-9740360D01*
X14507860Y-9415240D02*
X14182740Y-9740360D01*
X14460248Y-9692748D02*
X14460248Y-9462852D01*
X14230352Y-9462852D01*
X14230352Y-9692748D01*
X14460248Y-9692748D01*
X16682140Y-9415240D02*
X17007260Y-9740360D01*
X17007260Y-9415240D02*
X16682140Y-9740360D01*
X16959648Y-9692748D02*
X16959648Y-9462852D01*
X16729752Y-9462852D01*
X16729752Y-9692748D01*
X16959648Y-9692748D01*
D11*
X2768277Y-11473984D02*
X2768277Y-11273984D01*
X2768277Y-11273984D02*
X2815896Y-11273984D01*
X2815896Y-11273984D02*
X2844467Y-11283508D01*
X2844467Y-11283508D02*
X2863515Y-11302555D01*
X2863515Y-11302555D02*
X2873039Y-11321603D01*
X2873039Y-11321603D02*
X2882562Y-11359698D01*
X2882562Y-11359698D02*
X2882562Y-11388269D01*
X2882562Y-11388269D02*
X2873039Y-11426365D01*
X2873039Y-11426365D02*
X2863515Y-11445412D01*
X2863515Y-11445412D02*
X2844467Y-11464460D01*
X2844467Y-11464460D02*
X2815896Y-11473984D01*
X2815896Y-11473984D02*
X2768277Y-11473984D01*
X2968277Y-11473984D02*
X2968277Y-11340650D01*
X2968277Y-11378746D02*
X2977801Y-11359698D01*
X2977801Y-11359698D02*
X2987324Y-11350174D01*
X2987324Y-11350174D02*
X3006372Y-11340650D01*
X3006372Y-11340650D02*
X3025420Y-11340650D01*
X3092086Y-11473984D02*
X3092086Y-11340650D01*
X3092086Y-11273984D02*
X3082562Y-11283508D01*
X3082562Y-11283508D02*
X3092086Y-11293031D01*
X3092086Y-11293031D02*
X3101610Y-11283508D01*
X3101610Y-11283508D02*
X3092086Y-11273984D01*
X3092086Y-11273984D02*
X3092086Y-11293031D01*
X3215896Y-11473984D02*
X3196848Y-11464460D01*
X3196848Y-11464460D02*
X3187324Y-11445412D01*
X3187324Y-11445412D02*
X3187324Y-11273984D01*
X3320658Y-11473984D02*
X3301610Y-11464460D01*
X3301610Y-11464460D02*
X3292086Y-11445412D01*
X3292086Y-11445412D02*
X3292086Y-11273984D01*
X3549229Y-11473984D02*
X3549229Y-11273984D01*
X3549229Y-11273984D02*
X3615896Y-11416841D01*
X3615896Y-11416841D02*
X3682562Y-11273984D01*
X3682562Y-11273984D02*
X3682562Y-11473984D01*
X3863515Y-11473984D02*
X3863515Y-11369222D01*
X3863515Y-11369222D02*
X3853991Y-11350174D01*
X3853991Y-11350174D02*
X3834943Y-11340650D01*
X3834943Y-11340650D02*
X3796848Y-11340650D01*
X3796848Y-11340650D02*
X3777801Y-11350174D01*
X3863515Y-11464460D02*
X3844467Y-11473984D01*
X3844467Y-11473984D02*
X3796848Y-11473984D01*
X3796848Y-11473984D02*
X3777801Y-11464460D01*
X3777801Y-11464460D02*
X3768277Y-11445412D01*
X3768277Y-11445412D02*
X3768277Y-11426365D01*
X3768277Y-11426365D02*
X3777801Y-11407317D01*
X3777801Y-11407317D02*
X3796848Y-11397793D01*
X3796848Y-11397793D02*
X3844467Y-11397793D01*
X3844467Y-11397793D02*
X3863515Y-11388269D01*
X3958753Y-11340650D02*
X3958753Y-11540650D01*
X3958753Y-11350174D02*
X3977801Y-11340650D01*
X3977801Y-11340650D02*
X4015896Y-11340650D01*
X4015896Y-11340650D02*
X4034943Y-11350174D01*
X4034943Y-11350174D02*
X4044467Y-11359698D01*
X4044467Y-11359698D02*
X4053991Y-11378746D01*
X4053991Y-11378746D02*
X4053991Y-11435888D01*
X4053991Y-11435888D02*
X4044467Y-11454936D01*
X4044467Y-11454936D02*
X4034943Y-11464460D01*
X4034943Y-11464460D02*
X4015896Y-11473984D01*
X4015896Y-11473984D02*
X3977801Y-11473984D01*
X3977801Y-11473984D02*
X3958753Y-11464460D01*
X4139705Y-11454936D02*
X4149229Y-11464460D01*
X4149229Y-11464460D02*
X4139705Y-11473984D01*
X4139705Y-11473984D02*
X4130182Y-11464460D01*
X4130182Y-11464460D02*
X4139705Y-11454936D01*
X4139705Y-11454936D02*
X4139705Y-11473984D01*
X4139705Y-11350174D02*
X4149229Y-11359698D01*
X4149229Y-11359698D02*
X4139705Y-11369222D01*
X4139705Y-11369222D02*
X4130182Y-11359698D01*
X4130182Y-11359698D02*
X4139705Y-11350174D01*
X4139705Y-11350174D02*
X4139705Y-11369222D01*
D12*
X2467500Y-11782500D02*
X2507500Y-11822500D01*
X2507500Y-11782500D02*
X2467500Y-11822500D01*
D11*
X2806372Y-11693984D02*
X2825420Y-11693984D01*
X2825420Y-11693984D02*
X2844467Y-11703508D01*
X2844467Y-11703508D02*
X2853991Y-11713031D01*
X2853991Y-11713031D02*
X2863515Y-11732079D01*
X2863515Y-11732079D02*
X2873039Y-11770174D01*
X2873039Y-11770174D02*
X2873039Y-11817793D01*
X2873039Y-11817793D02*
X2863515Y-11855888D01*
X2863515Y-11855888D02*
X2853991Y-11874936D01*
X2853991Y-11874936D02*
X2844467Y-11884460D01*
X2844467Y-11884460D02*
X2825420Y-11893984D01*
X2825420Y-11893984D02*
X2806372Y-11893984D01*
X2806372Y-11893984D02*
X2787324Y-11884460D01*
X2787324Y-11884460D02*
X2777801Y-11874936D01*
X2777801Y-11874936D02*
X2768277Y-11855888D01*
X2768277Y-11855888D02*
X2758753Y-11817793D01*
X2758753Y-11817793D02*
X2758753Y-11770174D01*
X2758753Y-11770174D02*
X2768277Y-11732079D01*
X2768277Y-11732079D02*
X2777801Y-11713031D01*
X2777801Y-11713031D02*
X2787324Y-11703508D01*
X2787324Y-11703508D02*
X2806372Y-11693984D01*
X2958753Y-11874936D02*
X2968277Y-11884460D01*
X2968277Y-11884460D02*
X2958753Y-11893984D01*
X2958753Y-11893984D02*
X2949229Y-11884460D01*
X2949229Y-11884460D02*
X2958753Y-11874936D01*
X2958753Y-11874936D02*
X2958753Y-11893984D01*
X3139705Y-11760650D02*
X3139705Y-11893984D01*
X3092086Y-11684460D02*
X3044467Y-11827317D01*
X3044467Y-11827317D02*
X3168277Y-11827317D01*
X3282562Y-11693984D02*
X3301610Y-11693984D01*
X3301610Y-11693984D02*
X3320658Y-11703508D01*
X3320658Y-11703508D02*
X3330182Y-11713031D01*
X3330182Y-11713031D02*
X3339705Y-11732079D01*
X3339705Y-11732079D02*
X3349229Y-11770174D01*
X3349229Y-11770174D02*
X3349229Y-11817793D01*
X3349229Y-11817793D02*
X3339705Y-11855888D01*
X3339705Y-11855888D02*
X3330182Y-11874936D01*
X3330182Y-11874936D02*
X3320658Y-11884460D01*
X3320658Y-11884460D02*
X3301610Y-11893984D01*
X3301610Y-11893984D02*
X3282562Y-11893984D01*
X3282562Y-11893984D02*
X3263515Y-11884460D01*
X3263515Y-11884460D02*
X3253991Y-11874936D01*
X3253991Y-11874936D02*
X3244467Y-11855888D01*
X3244467Y-11855888D02*
X3234943Y-11817793D01*
X3234943Y-11817793D02*
X3234943Y-11770174D01*
X3234943Y-11770174D02*
X3244467Y-11732079D01*
X3244467Y-11732079D02*
X3253991Y-11713031D01*
X3253991Y-11713031D02*
X3263515Y-11703508D01*
X3263515Y-11703508D02*
X3282562Y-11693984D01*
X3473039Y-11693984D02*
X3492086Y-11693984D01*
X3492086Y-11693984D02*
X3511134Y-11703508D01*
X3511134Y-11703508D02*
X3520658Y-11713031D01*
X3520658Y-11713031D02*
X3530182Y-11732079D01*
X3530182Y-11732079D02*
X3539705Y-11770174D01*
X3539705Y-11770174D02*
X3539705Y-11817793D01*
X3539705Y-11817793D02*
X3530182Y-11855888D01*
X3530182Y-11855888D02*
X3520658Y-11874936D01*
X3520658Y-11874936D02*
X3511134Y-11884460D01*
X3511134Y-11884460D02*
X3492086Y-11893984D01*
X3492086Y-11893984D02*
X3473039Y-11893984D01*
X3473039Y-11893984D02*
X3453991Y-11884460D01*
X3453991Y-11884460D02*
X3444467Y-11874936D01*
X3444467Y-11874936D02*
X3434943Y-11855888D01*
X3434943Y-11855888D02*
X3425420Y-11817793D01*
X3425420Y-11817793D02*
X3425420Y-11770174D01*
X3425420Y-11770174D02*
X3434943Y-11732079D01*
X3434943Y-11732079D02*
X3444467Y-11713031D01*
X3444467Y-11713031D02*
X3453991Y-11703508D01*
X3453991Y-11703508D02*
X3473039Y-11693984D01*
X3625420Y-11893984D02*
X3625420Y-11760650D01*
X3625420Y-11779698D02*
X3634943Y-11770174D01*
X3634943Y-11770174D02*
X3653991Y-11760650D01*
X3653991Y-11760650D02*
X3682563Y-11760650D01*
X3682563Y-11760650D02*
X3701610Y-11770174D01*
X3701610Y-11770174D02*
X3711134Y-11789222D01*
X3711134Y-11789222D02*
X3711134Y-11893984D01*
X3711134Y-11789222D02*
X3720658Y-11770174D01*
X3720658Y-11770174D02*
X3739705Y-11760650D01*
X3739705Y-11760650D02*
X3768277Y-11760650D01*
X3768277Y-11760650D02*
X3787324Y-11770174D01*
X3787324Y-11770174D02*
X3796848Y-11789222D01*
X3796848Y-11789222D02*
X3796848Y-11893984D01*
X3892086Y-11893984D02*
X3892086Y-11760650D01*
X3892086Y-11779698D02*
X3901610Y-11770174D01*
X3901610Y-11770174D02*
X3920658Y-11760650D01*
X3920658Y-11760650D02*
X3949229Y-11760650D01*
X3949229Y-11760650D02*
X3968277Y-11770174D01*
X3968277Y-11770174D02*
X3977801Y-11789222D01*
X3977801Y-11789222D02*
X3977801Y-11893984D01*
X3977801Y-11789222D02*
X3987324Y-11770174D01*
X3987324Y-11770174D02*
X4006372Y-11760650D01*
X4006372Y-11760650D02*
X4034943Y-11760650D01*
X4034943Y-11760650D02*
X4053991Y-11770174D01*
X4053991Y-11770174D02*
X4063515Y-11789222D01*
X4063515Y-11789222D02*
X4063515Y-11893984D01*
X4453991Y-11684460D02*
X4282563Y-11941603D01*
X4711134Y-11693984D02*
X4730182Y-11693984D01*
X4730182Y-11693984D02*
X4749229Y-11703508D01*
X4749229Y-11703508D02*
X4758753Y-11713031D01*
X4758753Y-11713031D02*
X4768277Y-11732079D01*
X4768277Y-11732079D02*
X4777801Y-11770174D01*
X4777801Y-11770174D02*
X4777801Y-11817793D01*
X4777801Y-11817793D02*
X4768277Y-11855888D01*
X4768277Y-11855888D02*
X4758753Y-11874936D01*
X4758753Y-11874936D02*
X4749229Y-11884460D01*
X4749229Y-11884460D02*
X4730182Y-11893984D01*
X4730182Y-11893984D02*
X4711134Y-11893984D01*
X4711134Y-11893984D02*
X4692087Y-11884460D01*
X4692087Y-11884460D02*
X4682563Y-11874936D01*
X4682563Y-11874936D02*
X4673039Y-11855888D01*
X4673039Y-11855888D02*
X4663515Y-11817793D01*
X4663515Y-11817793D02*
X4663515Y-11770174D01*
X4663515Y-11770174D02*
X4673039Y-11732079D01*
X4673039Y-11732079D02*
X4682563Y-11713031D01*
X4682563Y-11713031D02*
X4692087Y-11703508D01*
X4692087Y-11703508D02*
X4711134Y-11693984D01*
X4863515Y-11874936D02*
X4873039Y-11884460D01*
X4873039Y-11884460D02*
X4863515Y-11893984D01*
X4863515Y-11893984D02*
X4853991Y-11884460D01*
X4853991Y-11884460D02*
X4863515Y-11874936D01*
X4863515Y-11874936D02*
X4863515Y-11893984D01*
X4996848Y-11693984D02*
X5015896Y-11693984D01*
X5015896Y-11693984D02*
X5034944Y-11703508D01*
X5034944Y-11703508D02*
X5044468Y-11713031D01*
X5044468Y-11713031D02*
X5053991Y-11732079D01*
X5053991Y-11732079D02*
X5063515Y-11770174D01*
X5063515Y-11770174D02*
X5063515Y-11817793D01*
X5063515Y-11817793D02*
X5053991Y-11855888D01*
X5053991Y-11855888D02*
X5044468Y-11874936D01*
X5044468Y-11874936D02*
X5034944Y-11884460D01*
X5034944Y-11884460D02*
X5015896Y-11893984D01*
X5015896Y-11893984D02*
X4996848Y-11893984D01*
X4996848Y-11893984D02*
X4977801Y-11884460D01*
X4977801Y-11884460D02*
X4968277Y-11874936D01*
X4968277Y-11874936D02*
X4958753Y-11855888D01*
X4958753Y-11855888D02*
X4949229Y-11817793D01*
X4949229Y-11817793D02*
X4949229Y-11770174D01*
X4949229Y-11770174D02*
X4958753Y-11732079D01*
X4958753Y-11732079D02*
X4968277Y-11713031D01*
X4968277Y-11713031D02*
X4977801Y-11703508D01*
X4977801Y-11703508D02*
X4996848Y-11693984D01*
X5253991Y-11893984D02*
X5139706Y-11893984D01*
X5196848Y-11893984D02*
X5196848Y-11693984D01*
X5196848Y-11693984D02*
X5177801Y-11722555D01*
X5177801Y-11722555D02*
X5158753Y-11741603D01*
X5158753Y-11741603D02*
X5139706Y-11751127D01*
X5434944Y-11693984D02*
X5339706Y-11693984D01*
X5339706Y-11693984D02*
X5330182Y-11789222D01*
X5330182Y-11789222D02*
X5339706Y-11779698D01*
X5339706Y-11779698D02*
X5358753Y-11770174D01*
X5358753Y-11770174D02*
X5406372Y-11770174D01*
X5406372Y-11770174D02*
X5425420Y-11779698D01*
X5425420Y-11779698D02*
X5434944Y-11789222D01*
X5434944Y-11789222D02*
X5444468Y-11808269D01*
X5444468Y-11808269D02*
X5444468Y-11855888D01*
X5444468Y-11855888D02*
X5434944Y-11874936D01*
X5434944Y-11874936D02*
X5425420Y-11884460D01*
X5425420Y-11884460D02*
X5406372Y-11893984D01*
X5406372Y-11893984D02*
X5358753Y-11893984D01*
X5358753Y-11893984D02*
X5339706Y-11884460D01*
X5339706Y-11884460D02*
X5330182Y-11874936D01*
X5511134Y-11693984D02*
X5644467Y-11693984D01*
X5644467Y-11693984D02*
X5558753Y-11893984D01*
X5711134Y-11693984D02*
X5711134Y-11732079D01*
X5787325Y-11693984D02*
X5787325Y-11732079D01*
X6082563Y-11970174D02*
X6073039Y-11960650D01*
X6073039Y-11960650D02*
X6053991Y-11932079D01*
X6053991Y-11932079D02*
X6044468Y-11913031D01*
X6044468Y-11913031D02*
X6034944Y-11884460D01*
X6034944Y-11884460D02*
X6025420Y-11836841D01*
X6025420Y-11836841D02*
X6025420Y-11798746D01*
X6025420Y-11798746D02*
X6034944Y-11751127D01*
X6034944Y-11751127D02*
X6044468Y-11722555D01*
X6044468Y-11722555D02*
X6053991Y-11703508D01*
X6053991Y-11703508D02*
X6073039Y-11674936D01*
X6073039Y-11674936D02*
X6082563Y-11665412D01*
X6139706Y-11693984D02*
X6263515Y-11693984D01*
X6263515Y-11693984D02*
X6196848Y-11770174D01*
X6196848Y-11770174D02*
X6225420Y-11770174D01*
X6225420Y-11770174D02*
X6244468Y-11779698D01*
X6244468Y-11779698D02*
X6253991Y-11789222D01*
X6253991Y-11789222D02*
X6263515Y-11808269D01*
X6263515Y-11808269D02*
X6263515Y-11855888D01*
X6263515Y-11855888D02*
X6253991Y-11874936D01*
X6253991Y-11874936D02*
X6244468Y-11884460D01*
X6244468Y-11884460D02*
X6225420Y-11893984D01*
X6225420Y-11893984D02*
X6168277Y-11893984D01*
X6168277Y-11893984D02*
X6149229Y-11884460D01*
X6149229Y-11884460D02*
X6139706Y-11874936D01*
X6358753Y-11893984D02*
X6396848Y-11893984D01*
X6396848Y-11893984D02*
X6415896Y-11884460D01*
X6415896Y-11884460D02*
X6425420Y-11874936D01*
X6425420Y-11874936D02*
X6444468Y-11846365D01*
X6444468Y-11846365D02*
X6453991Y-11808269D01*
X6453991Y-11808269D02*
X6453991Y-11732079D01*
X6453991Y-11732079D02*
X6444468Y-11713031D01*
X6444468Y-11713031D02*
X6434944Y-11703508D01*
X6434944Y-11703508D02*
X6415896Y-11693984D01*
X6415896Y-11693984D02*
X6377801Y-11693984D01*
X6377801Y-11693984D02*
X6358753Y-11703508D01*
X6358753Y-11703508D02*
X6349229Y-11713031D01*
X6349229Y-11713031D02*
X6339706Y-11732079D01*
X6339706Y-11732079D02*
X6339706Y-11779698D01*
X6339706Y-11779698D02*
X6349229Y-11798746D01*
X6349229Y-11798746D02*
X6358753Y-11808269D01*
X6358753Y-11808269D02*
X6377801Y-11817793D01*
X6377801Y-11817793D02*
X6415896Y-11817793D01*
X6415896Y-11817793D02*
X6434944Y-11808269D01*
X6434944Y-11808269D02*
X6444468Y-11798746D01*
X6444468Y-11798746D02*
X6453991Y-11779698D01*
X6549229Y-11893984D02*
X6587325Y-11893984D01*
X6587325Y-11893984D02*
X6606372Y-11884460D01*
X6606372Y-11884460D02*
X6615896Y-11874936D01*
X6615896Y-11874936D02*
X6634944Y-11846365D01*
X6634944Y-11846365D02*
X6644468Y-11808269D01*
X6644468Y-11808269D02*
X6644468Y-11732079D01*
X6644468Y-11732079D02*
X6634944Y-11713031D01*
X6634944Y-11713031D02*
X6625420Y-11703508D01*
X6625420Y-11703508D02*
X6606372Y-11693984D01*
X6606372Y-11693984D02*
X6568277Y-11693984D01*
X6568277Y-11693984D02*
X6549229Y-11703508D01*
X6549229Y-11703508D02*
X6539706Y-11713031D01*
X6539706Y-11713031D02*
X6530182Y-11732079D01*
X6530182Y-11732079D02*
X6530182Y-11779698D01*
X6530182Y-11779698D02*
X6539706Y-11798746D01*
X6539706Y-11798746D02*
X6549229Y-11808269D01*
X6549229Y-11808269D02*
X6568277Y-11817793D01*
X6568277Y-11817793D02*
X6606372Y-11817793D01*
X6606372Y-11817793D02*
X6625420Y-11808269D01*
X6625420Y-11808269D02*
X6634944Y-11798746D01*
X6634944Y-11798746D02*
X6644468Y-11779698D01*
X6882563Y-11893984D02*
X6882563Y-11693984D01*
X6968277Y-11893984D02*
X6968277Y-11789222D01*
X6968277Y-11789222D02*
X6958753Y-11770174D01*
X6958753Y-11770174D02*
X6939706Y-11760650D01*
X6939706Y-11760650D02*
X6911134Y-11760650D01*
X6911134Y-11760650D02*
X6892087Y-11770174D01*
X6892087Y-11770174D02*
X6882563Y-11779698D01*
X7092087Y-11893984D02*
X7073039Y-11884460D01*
X7073039Y-11884460D02*
X7063515Y-11874936D01*
X7063515Y-11874936D02*
X7053991Y-11855888D01*
X7053991Y-11855888D02*
X7053991Y-11798746D01*
X7053991Y-11798746D02*
X7063515Y-11779698D01*
X7063515Y-11779698D02*
X7073039Y-11770174D01*
X7073039Y-11770174D02*
X7092087Y-11760650D01*
X7092087Y-11760650D02*
X7120658Y-11760650D01*
X7120658Y-11760650D02*
X7139706Y-11770174D01*
X7139706Y-11770174D02*
X7149230Y-11779698D01*
X7149230Y-11779698D02*
X7158753Y-11798746D01*
X7158753Y-11798746D02*
X7158753Y-11855888D01*
X7158753Y-11855888D02*
X7149230Y-11874936D01*
X7149230Y-11874936D02*
X7139706Y-11884460D01*
X7139706Y-11884460D02*
X7120658Y-11893984D01*
X7120658Y-11893984D02*
X7092087Y-11893984D01*
X7273039Y-11893984D02*
X7253991Y-11884460D01*
X7253991Y-11884460D02*
X7244468Y-11865412D01*
X7244468Y-11865412D02*
X7244468Y-11693984D01*
X7425420Y-11884460D02*
X7406372Y-11893984D01*
X7406372Y-11893984D02*
X7368277Y-11893984D01*
X7368277Y-11893984D02*
X7349230Y-11884460D01*
X7349230Y-11884460D02*
X7339706Y-11865412D01*
X7339706Y-11865412D02*
X7339706Y-11789222D01*
X7339706Y-11789222D02*
X7349230Y-11770174D01*
X7349230Y-11770174D02*
X7368277Y-11760650D01*
X7368277Y-11760650D02*
X7406372Y-11760650D01*
X7406372Y-11760650D02*
X7425420Y-11770174D01*
X7425420Y-11770174D02*
X7434944Y-11789222D01*
X7434944Y-11789222D02*
X7434944Y-11808269D01*
X7434944Y-11808269D02*
X7339706Y-11827317D01*
X7511134Y-11884460D02*
X7530182Y-11893984D01*
X7530182Y-11893984D02*
X7568277Y-11893984D01*
X7568277Y-11893984D02*
X7587325Y-11884460D01*
X7587325Y-11884460D02*
X7596849Y-11865412D01*
X7596849Y-11865412D02*
X7596849Y-11855888D01*
X7596849Y-11855888D02*
X7587325Y-11836841D01*
X7587325Y-11836841D02*
X7568277Y-11827317D01*
X7568277Y-11827317D02*
X7539706Y-11827317D01*
X7539706Y-11827317D02*
X7520658Y-11817793D01*
X7520658Y-11817793D02*
X7511134Y-11798746D01*
X7511134Y-11798746D02*
X7511134Y-11789222D01*
X7511134Y-11789222D02*
X7520658Y-11770174D01*
X7520658Y-11770174D02*
X7539706Y-11760650D01*
X7539706Y-11760650D02*
X7568277Y-11760650D01*
X7568277Y-11760650D02*
X7587325Y-11770174D01*
X7663515Y-11970174D02*
X7673039Y-11960650D01*
X7673039Y-11960650D02*
X7692087Y-11932079D01*
X7692087Y-11932079D02*
X7701611Y-11913031D01*
X7701611Y-11913031D02*
X7711134Y-11884460D01*
X7711134Y-11884460D02*
X7720658Y-11836841D01*
X7720658Y-11836841D02*
X7720658Y-11798746D01*
X7720658Y-11798746D02*
X7711134Y-11751127D01*
X7711134Y-11751127D02*
X7701611Y-11722555D01*
X7701611Y-11722555D02*
X7692087Y-11703508D01*
X7692087Y-11703508D02*
X7673039Y-11674936D01*
X7673039Y-11674936D02*
X7663515Y-11665412D01*
D12*
X2507500Y-12066500D02*
G75*
G02*
X2427500Y-12066500I-40000J0D01*
G01*
X2427500Y-12066500D02*
G75*
G02*
X2507500Y-12066500I40000J0D01*
G01*
D11*
X2806372Y-11957984D02*
X2825420Y-11957984D01*
X2825420Y-11957984D02*
X2844467Y-11967508D01*
X2844467Y-11967508D02*
X2853991Y-11977031D01*
X2853991Y-11977031D02*
X2863515Y-11996079D01*
X2863515Y-11996079D02*
X2873039Y-12034174D01*
X2873039Y-12034174D02*
X2873039Y-12081793D01*
X2873039Y-12081793D02*
X2863515Y-12119888D01*
X2863515Y-12119888D02*
X2853991Y-12138936D01*
X2853991Y-12138936D02*
X2844467Y-12148460D01*
X2844467Y-12148460D02*
X2825420Y-12157984D01*
X2825420Y-12157984D02*
X2806372Y-12157984D01*
X2806372Y-12157984D02*
X2787324Y-12148460D01*
X2787324Y-12148460D02*
X2777801Y-12138936D01*
X2777801Y-12138936D02*
X2768277Y-12119888D01*
X2768277Y-12119888D02*
X2758753Y-12081793D01*
X2758753Y-12081793D02*
X2758753Y-12034174D01*
X2758753Y-12034174D02*
X2768277Y-11996079D01*
X2768277Y-11996079D02*
X2777801Y-11977031D01*
X2777801Y-11977031D02*
X2787324Y-11967508D01*
X2787324Y-11967508D02*
X2806372Y-11957984D01*
X2958753Y-12138936D02*
X2968277Y-12148460D01*
X2968277Y-12148460D02*
X2958753Y-12157984D01*
X2958753Y-12157984D02*
X2949229Y-12148460D01*
X2949229Y-12148460D02*
X2958753Y-12138936D01*
X2958753Y-12138936D02*
X2958753Y-12157984D01*
X3082562Y-12043698D02*
X3063515Y-12034174D01*
X3063515Y-12034174D02*
X3053991Y-12024650D01*
X3053991Y-12024650D02*
X3044467Y-12005603D01*
X3044467Y-12005603D02*
X3044467Y-11996079D01*
X3044467Y-11996079D02*
X3053991Y-11977031D01*
X3053991Y-11977031D02*
X3063515Y-11967508D01*
X3063515Y-11967508D02*
X3082562Y-11957984D01*
X3082562Y-11957984D02*
X3120658Y-11957984D01*
X3120658Y-11957984D02*
X3139705Y-11967508D01*
X3139705Y-11967508D02*
X3149229Y-11977031D01*
X3149229Y-11977031D02*
X3158753Y-11996079D01*
X3158753Y-11996079D02*
X3158753Y-12005603D01*
X3158753Y-12005603D02*
X3149229Y-12024650D01*
X3149229Y-12024650D02*
X3139705Y-12034174D01*
X3139705Y-12034174D02*
X3120658Y-12043698D01*
X3120658Y-12043698D02*
X3082562Y-12043698D01*
X3082562Y-12043698D02*
X3063515Y-12053222D01*
X3063515Y-12053222D02*
X3053991Y-12062746D01*
X3053991Y-12062746D02*
X3044467Y-12081793D01*
X3044467Y-12081793D02*
X3044467Y-12119888D01*
X3044467Y-12119888D02*
X3053991Y-12138936D01*
X3053991Y-12138936D02*
X3063515Y-12148460D01*
X3063515Y-12148460D02*
X3082562Y-12157984D01*
X3082562Y-12157984D02*
X3120658Y-12157984D01*
X3120658Y-12157984D02*
X3139705Y-12148460D01*
X3139705Y-12148460D02*
X3149229Y-12138936D01*
X3149229Y-12138936D02*
X3158753Y-12119888D01*
X3158753Y-12119888D02*
X3158753Y-12081793D01*
X3158753Y-12081793D02*
X3149229Y-12062746D01*
X3149229Y-12062746D02*
X3139705Y-12053222D01*
X3139705Y-12053222D02*
X3120658Y-12043698D01*
X3282562Y-11957984D02*
X3301610Y-11957984D01*
X3301610Y-11957984D02*
X3320658Y-11967508D01*
X3320658Y-11967508D02*
X3330182Y-11977031D01*
X3330182Y-11977031D02*
X3339705Y-11996079D01*
X3339705Y-11996079D02*
X3349229Y-12034174D01*
X3349229Y-12034174D02*
X3349229Y-12081793D01*
X3349229Y-12081793D02*
X3339705Y-12119888D01*
X3339705Y-12119888D02*
X3330182Y-12138936D01*
X3330182Y-12138936D02*
X3320658Y-12148460D01*
X3320658Y-12148460D02*
X3301610Y-12157984D01*
X3301610Y-12157984D02*
X3282562Y-12157984D01*
X3282562Y-12157984D02*
X3263515Y-12148460D01*
X3263515Y-12148460D02*
X3253991Y-12138936D01*
X3253991Y-12138936D02*
X3244467Y-12119888D01*
X3244467Y-12119888D02*
X3234943Y-12081793D01*
X3234943Y-12081793D02*
X3234943Y-12034174D01*
X3234943Y-12034174D02*
X3244467Y-11996079D01*
X3244467Y-11996079D02*
X3253991Y-11977031D01*
X3253991Y-11977031D02*
X3263515Y-11967508D01*
X3263515Y-11967508D02*
X3282562Y-11957984D01*
X3473039Y-11957984D02*
X3492086Y-11957984D01*
X3492086Y-11957984D02*
X3511134Y-11967508D01*
X3511134Y-11967508D02*
X3520658Y-11977031D01*
X3520658Y-11977031D02*
X3530182Y-11996079D01*
X3530182Y-11996079D02*
X3539705Y-12034174D01*
X3539705Y-12034174D02*
X3539705Y-12081793D01*
X3539705Y-12081793D02*
X3530182Y-12119888D01*
X3530182Y-12119888D02*
X3520658Y-12138936D01*
X3520658Y-12138936D02*
X3511134Y-12148460D01*
X3511134Y-12148460D02*
X3492086Y-12157984D01*
X3492086Y-12157984D02*
X3473039Y-12157984D01*
X3473039Y-12157984D02*
X3453991Y-12148460D01*
X3453991Y-12148460D02*
X3444467Y-12138936D01*
X3444467Y-12138936D02*
X3434943Y-12119888D01*
X3434943Y-12119888D02*
X3425420Y-12081793D01*
X3425420Y-12081793D02*
X3425420Y-12034174D01*
X3425420Y-12034174D02*
X3434943Y-11996079D01*
X3434943Y-11996079D02*
X3444467Y-11977031D01*
X3444467Y-11977031D02*
X3453991Y-11967508D01*
X3453991Y-11967508D02*
X3473039Y-11957984D01*
X3625420Y-12157984D02*
X3625420Y-12024650D01*
X3625420Y-12043698D02*
X3634943Y-12034174D01*
X3634943Y-12034174D02*
X3653991Y-12024650D01*
X3653991Y-12024650D02*
X3682563Y-12024650D01*
X3682563Y-12024650D02*
X3701610Y-12034174D01*
X3701610Y-12034174D02*
X3711134Y-12053222D01*
X3711134Y-12053222D02*
X3711134Y-12157984D01*
X3711134Y-12053222D02*
X3720658Y-12034174D01*
X3720658Y-12034174D02*
X3739705Y-12024650D01*
X3739705Y-12024650D02*
X3768277Y-12024650D01*
X3768277Y-12024650D02*
X3787324Y-12034174D01*
X3787324Y-12034174D02*
X3796848Y-12053222D01*
X3796848Y-12053222D02*
X3796848Y-12157984D01*
X3892086Y-12157984D02*
X3892086Y-12024650D01*
X3892086Y-12043698D02*
X3901610Y-12034174D01*
X3901610Y-12034174D02*
X3920658Y-12024650D01*
X3920658Y-12024650D02*
X3949229Y-12024650D01*
X3949229Y-12024650D02*
X3968277Y-12034174D01*
X3968277Y-12034174D02*
X3977801Y-12053222D01*
X3977801Y-12053222D02*
X3977801Y-12157984D01*
X3977801Y-12053222D02*
X3987324Y-12034174D01*
X3987324Y-12034174D02*
X4006372Y-12024650D01*
X4006372Y-12024650D02*
X4034943Y-12024650D01*
X4034943Y-12024650D02*
X4053991Y-12034174D01*
X4053991Y-12034174D02*
X4063515Y-12053222D01*
X4063515Y-12053222D02*
X4063515Y-12157984D01*
X4453991Y-11948460D02*
X4282563Y-12205603D01*
X4711134Y-11957984D02*
X4730182Y-11957984D01*
X4730182Y-11957984D02*
X4749229Y-11967508D01*
X4749229Y-11967508D02*
X4758753Y-11977031D01*
X4758753Y-11977031D02*
X4768277Y-11996079D01*
X4768277Y-11996079D02*
X4777801Y-12034174D01*
X4777801Y-12034174D02*
X4777801Y-12081793D01*
X4777801Y-12081793D02*
X4768277Y-12119888D01*
X4768277Y-12119888D02*
X4758753Y-12138936D01*
X4758753Y-12138936D02*
X4749229Y-12148460D01*
X4749229Y-12148460D02*
X4730182Y-12157984D01*
X4730182Y-12157984D02*
X4711134Y-12157984D01*
X4711134Y-12157984D02*
X4692087Y-12148460D01*
X4692087Y-12148460D02*
X4682563Y-12138936D01*
X4682563Y-12138936D02*
X4673039Y-12119888D01*
X4673039Y-12119888D02*
X4663515Y-12081793D01*
X4663515Y-12081793D02*
X4663515Y-12034174D01*
X4663515Y-12034174D02*
X4673039Y-11996079D01*
X4673039Y-11996079D02*
X4682563Y-11977031D01*
X4682563Y-11977031D02*
X4692087Y-11967508D01*
X4692087Y-11967508D02*
X4711134Y-11957984D01*
X4863515Y-12138936D02*
X4873039Y-12148460D01*
X4873039Y-12148460D02*
X4863515Y-12157984D01*
X4863515Y-12157984D02*
X4853991Y-12148460D01*
X4853991Y-12148460D02*
X4863515Y-12138936D01*
X4863515Y-12138936D02*
X4863515Y-12157984D01*
X4996848Y-11957984D02*
X5015896Y-11957984D01*
X5015896Y-11957984D02*
X5034944Y-11967508D01*
X5034944Y-11967508D02*
X5044468Y-11977031D01*
X5044468Y-11977031D02*
X5053991Y-11996079D01*
X5053991Y-11996079D02*
X5063515Y-12034174D01*
X5063515Y-12034174D02*
X5063515Y-12081793D01*
X5063515Y-12081793D02*
X5053991Y-12119888D01*
X5053991Y-12119888D02*
X5044468Y-12138936D01*
X5044468Y-12138936D02*
X5034944Y-12148460D01*
X5034944Y-12148460D02*
X5015896Y-12157984D01*
X5015896Y-12157984D02*
X4996848Y-12157984D01*
X4996848Y-12157984D02*
X4977801Y-12148460D01*
X4977801Y-12148460D02*
X4968277Y-12138936D01*
X4968277Y-12138936D02*
X4958753Y-12119888D01*
X4958753Y-12119888D02*
X4949229Y-12081793D01*
X4949229Y-12081793D02*
X4949229Y-12034174D01*
X4949229Y-12034174D02*
X4958753Y-11996079D01*
X4958753Y-11996079D02*
X4968277Y-11977031D01*
X4968277Y-11977031D02*
X4977801Y-11967508D01*
X4977801Y-11967508D02*
X4996848Y-11957984D01*
X5130182Y-11957984D02*
X5253991Y-11957984D01*
X5253991Y-11957984D02*
X5187325Y-12034174D01*
X5187325Y-12034174D02*
X5215896Y-12034174D01*
X5215896Y-12034174D02*
X5234944Y-12043698D01*
X5234944Y-12043698D02*
X5244468Y-12053222D01*
X5244468Y-12053222D02*
X5253991Y-12072269D01*
X5253991Y-12072269D02*
X5253991Y-12119888D01*
X5253991Y-12119888D02*
X5244468Y-12138936D01*
X5244468Y-12138936D02*
X5234944Y-12148460D01*
X5234944Y-12148460D02*
X5215896Y-12157984D01*
X5215896Y-12157984D02*
X5158753Y-12157984D01*
X5158753Y-12157984D02*
X5139706Y-12148460D01*
X5139706Y-12148460D02*
X5130182Y-12138936D01*
X5444468Y-12157984D02*
X5330182Y-12157984D01*
X5387325Y-12157984D02*
X5387325Y-11957984D01*
X5387325Y-11957984D02*
X5368277Y-11986555D01*
X5368277Y-11986555D02*
X5349229Y-12005603D01*
X5349229Y-12005603D02*
X5330182Y-12015127D01*
X5625420Y-11957984D02*
X5530182Y-11957984D01*
X5530182Y-11957984D02*
X5520658Y-12053222D01*
X5520658Y-12053222D02*
X5530182Y-12043698D01*
X5530182Y-12043698D02*
X5549229Y-12034174D01*
X5549229Y-12034174D02*
X5596848Y-12034174D01*
X5596848Y-12034174D02*
X5615896Y-12043698D01*
X5615896Y-12043698D02*
X5625420Y-12053222D01*
X5625420Y-12053222D02*
X5634944Y-12072269D01*
X5634944Y-12072269D02*
X5634944Y-12119888D01*
X5634944Y-12119888D02*
X5625420Y-12138936D01*
X5625420Y-12138936D02*
X5615896Y-12148460D01*
X5615896Y-12148460D02*
X5596848Y-12157984D01*
X5596848Y-12157984D02*
X5549229Y-12157984D01*
X5549229Y-12157984D02*
X5530182Y-12148460D01*
X5530182Y-12148460D02*
X5520658Y-12138936D01*
X5711134Y-11957984D02*
X5711134Y-11996079D01*
X5787325Y-11957984D02*
X5787325Y-11996079D01*
X6082563Y-12234174D02*
X6073039Y-12224650D01*
X6073039Y-12224650D02*
X6053991Y-12196079D01*
X6053991Y-12196079D02*
X6044468Y-12177031D01*
X6044468Y-12177031D02*
X6034944Y-12148460D01*
X6034944Y-12148460D02*
X6025420Y-12100841D01*
X6025420Y-12100841D02*
X6025420Y-12062746D01*
X6025420Y-12062746D02*
X6034944Y-12015127D01*
X6034944Y-12015127D02*
X6044468Y-11986555D01*
X6044468Y-11986555D02*
X6053991Y-11967508D01*
X6053991Y-11967508D02*
X6073039Y-11938936D01*
X6073039Y-11938936D02*
X6082563Y-11929412D01*
X6149229Y-11977031D02*
X6158753Y-11967508D01*
X6158753Y-11967508D02*
X6177801Y-11957984D01*
X6177801Y-11957984D02*
X6225420Y-11957984D01*
X6225420Y-11957984D02*
X6244468Y-11967508D01*
X6244468Y-11967508D02*
X6253991Y-11977031D01*
X6253991Y-11977031D02*
X6263515Y-11996079D01*
X6263515Y-11996079D02*
X6263515Y-12015127D01*
X6263515Y-12015127D02*
X6253991Y-12043698D01*
X6253991Y-12043698D02*
X6139706Y-12157984D01*
X6139706Y-12157984D02*
X6263515Y-12157984D01*
X6387325Y-11957984D02*
X6406372Y-11957984D01*
X6406372Y-11957984D02*
X6425420Y-11967508D01*
X6425420Y-11967508D02*
X6434944Y-11977031D01*
X6434944Y-11977031D02*
X6444468Y-11996079D01*
X6444468Y-11996079D02*
X6453991Y-12034174D01*
X6453991Y-12034174D02*
X6453991Y-12081793D01*
X6453991Y-12081793D02*
X6444468Y-12119888D01*
X6444468Y-12119888D02*
X6434944Y-12138936D01*
X6434944Y-12138936D02*
X6425420Y-12148460D01*
X6425420Y-12148460D02*
X6406372Y-12157984D01*
X6406372Y-12157984D02*
X6387325Y-12157984D01*
X6387325Y-12157984D02*
X6368277Y-12148460D01*
X6368277Y-12148460D02*
X6358753Y-12138936D01*
X6358753Y-12138936D02*
X6349229Y-12119888D01*
X6349229Y-12119888D02*
X6339706Y-12081793D01*
X6339706Y-12081793D02*
X6339706Y-12034174D01*
X6339706Y-12034174D02*
X6349229Y-11996079D01*
X6349229Y-11996079D02*
X6358753Y-11977031D01*
X6358753Y-11977031D02*
X6368277Y-11967508D01*
X6368277Y-11967508D02*
X6387325Y-11957984D01*
X6692087Y-12157984D02*
X6692087Y-11957984D01*
X6777801Y-12157984D02*
X6777801Y-12053222D01*
X6777801Y-12053222D02*
X6768277Y-12034174D01*
X6768277Y-12034174D02*
X6749230Y-12024650D01*
X6749230Y-12024650D02*
X6720658Y-12024650D01*
X6720658Y-12024650D02*
X6701610Y-12034174D01*
X6701610Y-12034174D02*
X6692087Y-12043698D01*
X6901610Y-12157984D02*
X6882563Y-12148460D01*
X6882563Y-12148460D02*
X6873039Y-12138936D01*
X6873039Y-12138936D02*
X6863515Y-12119888D01*
X6863515Y-12119888D02*
X6863515Y-12062746D01*
X6863515Y-12062746D02*
X6873039Y-12043698D01*
X6873039Y-12043698D02*
X6882563Y-12034174D01*
X6882563Y-12034174D02*
X6901610Y-12024650D01*
X6901610Y-12024650D02*
X6930182Y-12024650D01*
X6930182Y-12024650D02*
X6949230Y-12034174D01*
X6949230Y-12034174D02*
X6958753Y-12043698D01*
X6958753Y-12043698D02*
X6968277Y-12062746D01*
X6968277Y-12062746D02*
X6968277Y-12119888D01*
X6968277Y-12119888D02*
X6958753Y-12138936D01*
X6958753Y-12138936D02*
X6949230Y-12148460D01*
X6949230Y-12148460D02*
X6930182Y-12157984D01*
X6930182Y-12157984D02*
X6901610Y-12157984D01*
X7082563Y-12157984D02*
X7063515Y-12148460D01*
X7063515Y-12148460D02*
X7053991Y-12129412D01*
X7053991Y-12129412D02*
X7053991Y-11957984D01*
X7234944Y-12148460D02*
X7215896Y-12157984D01*
X7215896Y-12157984D02*
X7177801Y-12157984D01*
X7177801Y-12157984D02*
X7158753Y-12148460D01*
X7158753Y-12148460D02*
X7149230Y-12129412D01*
X7149230Y-12129412D02*
X7149230Y-12053222D01*
X7149230Y-12053222D02*
X7158753Y-12034174D01*
X7158753Y-12034174D02*
X7177801Y-12024650D01*
X7177801Y-12024650D02*
X7215896Y-12024650D01*
X7215896Y-12024650D02*
X7234944Y-12034174D01*
X7234944Y-12034174D02*
X7244468Y-12053222D01*
X7244468Y-12053222D02*
X7244468Y-12072269D01*
X7244468Y-12072269D02*
X7149230Y-12091317D01*
X7320658Y-12148460D02*
X7339706Y-12157984D01*
X7339706Y-12157984D02*
X7377801Y-12157984D01*
X7377801Y-12157984D02*
X7396849Y-12148460D01*
X7396849Y-12148460D02*
X7406372Y-12129412D01*
X7406372Y-12129412D02*
X7406372Y-12119888D01*
X7406372Y-12119888D02*
X7396849Y-12100841D01*
X7396849Y-12100841D02*
X7377801Y-12091317D01*
X7377801Y-12091317D02*
X7349230Y-12091317D01*
X7349230Y-12091317D02*
X7330182Y-12081793D01*
X7330182Y-12081793D02*
X7320658Y-12062746D01*
X7320658Y-12062746D02*
X7320658Y-12053222D01*
X7320658Y-12053222D02*
X7330182Y-12034174D01*
X7330182Y-12034174D02*
X7349230Y-12024650D01*
X7349230Y-12024650D02*
X7377801Y-12024650D01*
X7377801Y-12024650D02*
X7396849Y-12034174D01*
X7473039Y-12234174D02*
X7482563Y-12224650D01*
X7482563Y-12224650D02*
X7501611Y-12196079D01*
X7501611Y-12196079D02*
X7511134Y-12177031D01*
X7511134Y-12177031D02*
X7520658Y-12148460D01*
X7520658Y-12148460D02*
X7530182Y-12100841D01*
X7530182Y-12100841D02*
X7530182Y-12062746D01*
X7530182Y-12062746D02*
X7520658Y-12015127D01*
X7520658Y-12015127D02*
X7511134Y-11986555D01*
X7511134Y-11986555D02*
X7501611Y-11967508D01*
X7501611Y-11967508D02*
X7482563Y-11938936D01*
X7482563Y-11938936D02*
X7473039Y-11929412D01*
D12*
X2460000Y-12283000D02*
X2460000Y-12378000D01*
X2412500Y-12330500D02*
X2507500Y-12330500D01*
D11*
X2806372Y-12221984D02*
X2825420Y-12221984D01*
X2825420Y-12221984D02*
X2844467Y-12231508D01*
X2844467Y-12231508D02*
X2853991Y-12241031D01*
X2853991Y-12241031D02*
X2863515Y-12260079D01*
X2863515Y-12260079D02*
X2873039Y-12298174D01*
X2873039Y-12298174D02*
X2873039Y-12345793D01*
X2873039Y-12345793D02*
X2863515Y-12383888D01*
X2863515Y-12383888D02*
X2853991Y-12402936D01*
X2853991Y-12402936D02*
X2844467Y-12412460D01*
X2844467Y-12412460D02*
X2825420Y-12421984D01*
X2825420Y-12421984D02*
X2806372Y-12421984D01*
X2806372Y-12421984D02*
X2787324Y-12412460D01*
X2787324Y-12412460D02*
X2777801Y-12402936D01*
X2777801Y-12402936D02*
X2768277Y-12383888D01*
X2768277Y-12383888D02*
X2758753Y-12345793D01*
X2758753Y-12345793D02*
X2758753Y-12298174D01*
X2758753Y-12298174D02*
X2768277Y-12260079D01*
X2768277Y-12260079D02*
X2777801Y-12241031D01*
X2777801Y-12241031D02*
X2787324Y-12231508D01*
X2787324Y-12231508D02*
X2806372Y-12221984D01*
X2958753Y-12402936D02*
X2968277Y-12412460D01*
X2968277Y-12412460D02*
X2958753Y-12421984D01*
X2958753Y-12421984D02*
X2949229Y-12412460D01*
X2949229Y-12412460D02*
X2958753Y-12402936D01*
X2958753Y-12402936D02*
X2958753Y-12421984D01*
X3063515Y-12421984D02*
X3101610Y-12421984D01*
X3101610Y-12421984D02*
X3120658Y-12412460D01*
X3120658Y-12412460D02*
X3130182Y-12402936D01*
X3130182Y-12402936D02*
X3149229Y-12374365D01*
X3149229Y-12374365D02*
X3158753Y-12336269D01*
X3158753Y-12336269D02*
X3158753Y-12260079D01*
X3158753Y-12260079D02*
X3149229Y-12241031D01*
X3149229Y-12241031D02*
X3139705Y-12231508D01*
X3139705Y-12231508D02*
X3120658Y-12221984D01*
X3120658Y-12221984D02*
X3082562Y-12221984D01*
X3082562Y-12221984D02*
X3063515Y-12231508D01*
X3063515Y-12231508D02*
X3053991Y-12241031D01*
X3053991Y-12241031D02*
X3044467Y-12260079D01*
X3044467Y-12260079D02*
X3044467Y-12307698D01*
X3044467Y-12307698D02*
X3053991Y-12326746D01*
X3053991Y-12326746D02*
X3063515Y-12336269D01*
X3063515Y-12336269D02*
X3082562Y-12345793D01*
X3082562Y-12345793D02*
X3120658Y-12345793D01*
X3120658Y-12345793D02*
X3139705Y-12336269D01*
X3139705Y-12336269D02*
X3149229Y-12326746D01*
X3149229Y-12326746D02*
X3158753Y-12307698D01*
X3339705Y-12221984D02*
X3244467Y-12221984D01*
X3244467Y-12221984D02*
X3234943Y-12317222D01*
X3234943Y-12317222D02*
X3244467Y-12307698D01*
X3244467Y-12307698D02*
X3263515Y-12298174D01*
X3263515Y-12298174D02*
X3311134Y-12298174D01*
X3311134Y-12298174D02*
X3330182Y-12307698D01*
X3330182Y-12307698D02*
X3339705Y-12317222D01*
X3339705Y-12317222D02*
X3349229Y-12336269D01*
X3349229Y-12336269D02*
X3349229Y-12383888D01*
X3349229Y-12383888D02*
X3339705Y-12402936D01*
X3339705Y-12402936D02*
X3330182Y-12412460D01*
X3330182Y-12412460D02*
X3311134Y-12421984D01*
X3311134Y-12421984D02*
X3263515Y-12421984D01*
X3263515Y-12421984D02*
X3244467Y-12412460D01*
X3244467Y-12412460D02*
X3234943Y-12402936D01*
X3473039Y-12221984D02*
X3492086Y-12221984D01*
X3492086Y-12221984D02*
X3511134Y-12231508D01*
X3511134Y-12231508D02*
X3520658Y-12241031D01*
X3520658Y-12241031D02*
X3530182Y-12260079D01*
X3530182Y-12260079D02*
X3539705Y-12298174D01*
X3539705Y-12298174D02*
X3539705Y-12345793D01*
X3539705Y-12345793D02*
X3530182Y-12383888D01*
X3530182Y-12383888D02*
X3520658Y-12402936D01*
X3520658Y-12402936D02*
X3511134Y-12412460D01*
X3511134Y-12412460D02*
X3492086Y-12421984D01*
X3492086Y-12421984D02*
X3473039Y-12421984D01*
X3473039Y-12421984D02*
X3453991Y-12412460D01*
X3453991Y-12412460D02*
X3444467Y-12402936D01*
X3444467Y-12402936D02*
X3434943Y-12383888D01*
X3434943Y-12383888D02*
X3425420Y-12345793D01*
X3425420Y-12345793D02*
X3425420Y-12298174D01*
X3425420Y-12298174D02*
X3434943Y-12260079D01*
X3434943Y-12260079D02*
X3444467Y-12241031D01*
X3444467Y-12241031D02*
X3453991Y-12231508D01*
X3453991Y-12231508D02*
X3473039Y-12221984D01*
X3625420Y-12421984D02*
X3625420Y-12288650D01*
X3625420Y-12307698D02*
X3634943Y-12298174D01*
X3634943Y-12298174D02*
X3653991Y-12288650D01*
X3653991Y-12288650D02*
X3682563Y-12288650D01*
X3682563Y-12288650D02*
X3701610Y-12298174D01*
X3701610Y-12298174D02*
X3711134Y-12317222D01*
X3711134Y-12317222D02*
X3711134Y-12421984D01*
X3711134Y-12317222D02*
X3720658Y-12298174D01*
X3720658Y-12298174D02*
X3739705Y-12288650D01*
X3739705Y-12288650D02*
X3768277Y-12288650D01*
X3768277Y-12288650D02*
X3787324Y-12298174D01*
X3787324Y-12298174D02*
X3796848Y-12317222D01*
X3796848Y-12317222D02*
X3796848Y-12421984D01*
X3892086Y-12421984D02*
X3892086Y-12288650D01*
X3892086Y-12307698D02*
X3901610Y-12298174D01*
X3901610Y-12298174D02*
X3920658Y-12288650D01*
X3920658Y-12288650D02*
X3949229Y-12288650D01*
X3949229Y-12288650D02*
X3968277Y-12298174D01*
X3968277Y-12298174D02*
X3977801Y-12317222D01*
X3977801Y-12317222D02*
X3977801Y-12421984D01*
X3977801Y-12317222D02*
X3987324Y-12298174D01*
X3987324Y-12298174D02*
X4006372Y-12288650D01*
X4006372Y-12288650D02*
X4034943Y-12288650D01*
X4034943Y-12288650D02*
X4053991Y-12298174D01*
X4053991Y-12298174D02*
X4063515Y-12317222D01*
X4063515Y-12317222D02*
X4063515Y-12421984D01*
X4453991Y-12212460D02*
X4282563Y-12469603D01*
X4711134Y-12221984D02*
X4730182Y-12221984D01*
X4730182Y-12221984D02*
X4749229Y-12231508D01*
X4749229Y-12231508D02*
X4758753Y-12241031D01*
X4758753Y-12241031D02*
X4768277Y-12260079D01*
X4768277Y-12260079D02*
X4777801Y-12298174D01*
X4777801Y-12298174D02*
X4777801Y-12345793D01*
X4777801Y-12345793D02*
X4768277Y-12383888D01*
X4768277Y-12383888D02*
X4758753Y-12402936D01*
X4758753Y-12402936D02*
X4749229Y-12412460D01*
X4749229Y-12412460D02*
X4730182Y-12421984D01*
X4730182Y-12421984D02*
X4711134Y-12421984D01*
X4711134Y-12421984D02*
X4692087Y-12412460D01*
X4692087Y-12412460D02*
X4682563Y-12402936D01*
X4682563Y-12402936D02*
X4673039Y-12383888D01*
X4673039Y-12383888D02*
X4663515Y-12345793D01*
X4663515Y-12345793D02*
X4663515Y-12298174D01*
X4663515Y-12298174D02*
X4673039Y-12260079D01*
X4673039Y-12260079D02*
X4682563Y-12241031D01*
X4682563Y-12241031D02*
X4692087Y-12231508D01*
X4692087Y-12231508D02*
X4711134Y-12221984D01*
X4863515Y-12402936D02*
X4873039Y-12412460D01*
X4873039Y-12412460D02*
X4863515Y-12421984D01*
X4863515Y-12421984D02*
X4853991Y-12412460D01*
X4853991Y-12412460D02*
X4863515Y-12402936D01*
X4863515Y-12402936D02*
X4863515Y-12421984D01*
X4996848Y-12221984D02*
X5015896Y-12221984D01*
X5015896Y-12221984D02*
X5034944Y-12231508D01*
X5034944Y-12231508D02*
X5044468Y-12241031D01*
X5044468Y-12241031D02*
X5053991Y-12260079D01*
X5053991Y-12260079D02*
X5063515Y-12298174D01*
X5063515Y-12298174D02*
X5063515Y-12345793D01*
X5063515Y-12345793D02*
X5053991Y-12383888D01*
X5053991Y-12383888D02*
X5044468Y-12402936D01*
X5044468Y-12402936D02*
X5034944Y-12412460D01*
X5034944Y-12412460D02*
X5015896Y-12421984D01*
X5015896Y-12421984D02*
X4996848Y-12421984D01*
X4996848Y-12421984D02*
X4977801Y-12412460D01*
X4977801Y-12412460D02*
X4968277Y-12402936D01*
X4968277Y-12402936D02*
X4958753Y-12383888D01*
X4958753Y-12383888D02*
X4949229Y-12345793D01*
X4949229Y-12345793D02*
X4949229Y-12298174D01*
X4949229Y-12298174D02*
X4958753Y-12260079D01*
X4958753Y-12260079D02*
X4968277Y-12241031D01*
X4968277Y-12241031D02*
X4977801Y-12231508D01*
X4977801Y-12231508D02*
X4996848Y-12221984D01*
X5130182Y-12221984D02*
X5253991Y-12221984D01*
X5253991Y-12221984D02*
X5187325Y-12298174D01*
X5187325Y-12298174D02*
X5215896Y-12298174D01*
X5215896Y-12298174D02*
X5234944Y-12307698D01*
X5234944Y-12307698D02*
X5244468Y-12317222D01*
X5244468Y-12317222D02*
X5253991Y-12336269D01*
X5253991Y-12336269D02*
X5253991Y-12383888D01*
X5253991Y-12383888D02*
X5244468Y-12402936D01*
X5244468Y-12402936D02*
X5234944Y-12412460D01*
X5234944Y-12412460D02*
X5215896Y-12421984D01*
X5215896Y-12421984D02*
X5158753Y-12421984D01*
X5158753Y-12421984D02*
X5139706Y-12412460D01*
X5139706Y-12412460D02*
X5130182Y-12402936D01*
X5320658Y-12221984D02*
X5453991Y-12221984D01*
X5453991Y-12221984D02*
X5368277Y-12421984D01*
X5615896Y-12288650D02*
X5615896Y-12421984D01*
X5568277Y-12212460D02*
X5520658Y-12355317D01*
X5520658Y-12355317D02*
X5644467Y-12355317D01*
X5711134Y-12221984D02*
X5711134Y-12260079D01*
X5787325Y-12221984D02*
X5787325Y-12260079D01*
X6082563Y-12498174D02*
X6073039Y-12488650D01*
X6073039Y-12488650D02*
X6053991Y-12460079D01*
X6053991Y-12460079D02*
X6044468Y-12441031D01*
X6044468Y-12441031D02*
X6034944Y-12412460D01*
X6034944Y-12412460D02*
X6025420Y-12364841D01*
X6025420Y-12364841D02*
X6025420Y-12326746D01*
X6025420Y-12326746D02*
X6034944Y-12279127D01*
X6034944Y-12279127D02*
X6044468Y-12250555D01*
X6044468Y-12250555D02*
X6053991Y-12231508D01*
X6053991Y-12231508D02*
X6073039Y-12202936D01*
X6073039Y-12202936D02*
X6082563Y-12193412D01*
X6244468Y-12288650D02*
X6244468Y-12421984D01*
X6196848Y-12212460D02*
X6149229Y-12355317D01*
X6149229Y-12355317D02*
X6273039Y-12355317D01*
X6501610Y-12421984D02*
X6501610Y-12221984D01*
X6587325Y-12421984D02*
X6587325Y-12317222D01*
X6587325Y-12317222D02*
X6577801Y-12298174D01*
X6577801Y-12298174D02*
X6558753Y-12288650D01*
X6558753Y-12288650D02*
X6530182Y-12288650D01*
X6530182Y-12288650D02*
X6511134Y-12298174D01*
X6511134Y-12298174D02*
X6501610Y-12307698D01*
X6711134Y-12421984D02*
X6692087Y-12412460D01*
X6692087Y-12412460D02*
X6682563Y-12402936D01*
X6682563Y-12402936D02*
X6673039Y-12383888D01*
X6673039Y-12383888D02*
X6673039Y-12326746D01*
X6673039Y-12326746D02*
X6682563Y-12307698D01*
X6682563Y-12307698D02*
X6692087Y-12298174D01*
X6692087Y-12298174D02*
X6711134Y-12288650D01*
X6711134Y-12288650D02*
X6739706Y-12288650D01*
X6739706Y-12288650D02*
X6758753Y-12298174D01*
X6758753Y-12298174D02*
X6768277Y-12307698D01*
X6768277Y-12307698D02*
X6777801Y-12326746D01*
X6777801Y-12326746D02*
X6777801Y-12383888D01*
X6777801Y-12383888D02*
X6768277Y-12402936D01*
X6768277Y-12402936D02*
X6758753Y-12412460D01*
X6758753Y-12412460D02*
X6739706Y-12421984D01*
X6739706Y-12421984D02*
X6711134Y-12421984D01*
X6892087Y-12421984D02*
X6873039Y-12412460D01*
X6873039Y-12412460D02*
X6863515Y-12393412D01*
X6863515Y-12393412D02*
X6863515Y-12221984D01*
X7044468Y-12412460D02*
X7025420Y-12421984D01*
X7025420Y-12421984D02*
X6987325Y-12421984D01*
X6987325Y-12421984D02*
X6968277Y-12412460D01*
X6968277Y-12412460D02*
X6958753Y-12393412D01*
X6958753Y-12393412D02*
X6958753Y-12317222D01*
X6958753Y-12317222D02*
X6968277Y-12298174D01*
X6968277Y-12298174D02*
X6987325Y-12288650D01*
X6987325Y-12288650D02*
X7025420Y-12288650D01*
X7025420Y-12288650D02*
X7044468Y-12298174D01*
X7044468Y-12298174D02*
X7053991Y-12317222D01*
X7053991Y-12317222D02*
X7053991Y-12336269D01*
X7053991Y-12336269D02*
X6958753Y-12355317D01*
X7130182Y-12412460D02*
X7149230Y-12421984D01*
X7149230Y-12421984D02*
X7187325Y-12421984D01*
X7187325Y-12421984D02*
X7206372Y-12412460D01*
X7206372Y-12412460D02*
X7215896Y-12393412D01*
X7215896Y-12393412D02*
X7215896Y-12383888D01*
X7215896Y-12383888D02*
X7206372Y-12364841D01*
X7206372Y-12364841D02*
X7187325Y-12355317D01*
X7187325Y-12355317D02*
X7158753Y-12355317D01*
X7158753Y-12355317D02*
X7139706Y-12345793D01*
X7139706Y-12345793D02*
X7130182Y-12326746D01*
X7130182Y-12326746D02*
X7130182Y-12317222D01*
X7130182Y-12317222D02*
X7139706Y-12298174D01*
X7139706Y-12298174D02*
X7158753Y-12288650D01*
X7158753Y-12288650D02*
X7187325Y-12288650D01*
X7187325Y-12288650D02*
X7206372Y-12298174D01*
X7282563Y-12498174D02*
X7292087Y-12488650D01*
X7292087Y-12488650D02*
X7311134Y-12460079D01*
X7311134Y-12460079D02*
X7320658Y-12441031D01*
X7320658Y-12441031D02*
X7330182Y-12412460D01*
X7330182Y-12412460D02*
X7339706Y-12364841D01*
X7339706Y-12364841D02*
X7339706Y-12326746D01*
X7339706Y-12326746D02*
X7330182Y-12279127D01*
X7330182Y-12279127D02*
X7320658Y-12250555D01*
X7320658Y-12250555D02*
X7311134Y-12231508D01*
X7311134Y-12231508D02*
X7292087Y-12202936D01*
X7292087Y-12202936D02*
X7282563Y-12193412D01*
D12*
X2492856Y-12629856D02*
X2492856Y-12559144D01*
X2422144Y-12559144D01*
X2422144Y-12629856D01*
X2492856Y-12629856D01*
D11*
X2873039Y-12685984D02*
X2758753Y-12685984D01*
X2815896Y-12685984D02*
X2815896Y-12485984D01*
X2815896Y-12485984D02*
X2796848Y-12514555D01*
X2796848Y-12514555D02*
X2777801Y-12533603D01*
X2777801Y-12533603D02*
X2758753Y-12543127D01*
X2958753Y-12666936D02*
X2968277Y-12676460D01*
X2968277Y-12676460D02*
X2958753Y-12685984D01*
X2958753Y-12685984D02*
X2949229Y-12676460D01*
X2949229Y-12676460D02*
X2958753Y-12666936D01*
X2958753Y-12666936D02*
X2958753Y-12685984D01*
X3092086Y-12485984D02*
X3111134Y-12485984D01*
X3111134Y-12485984D02*
X3130182Y-12495508D01*
X3130182Y-12495508D02*
X3139705Y-12505031D01*
X3139705Y-12505031D02*
X3149229Y-12524079D01*
X3149229Y-12524079D02*
X3158753Y-12562174D01*
X3158753Y-12562174D02*
X3158753Y-12609793D01*
X3158753Y-12609793D02*
X3149229Y-12647888D01*
X3149229Y-12647888D02*
X3139705Y-12666936D01*
X3139705Y-12666936D02*
X3130182Y-12676460D01*
X3130182Y-12676460D02*
X3111134Y-12685984D01*
X3111134Y-12685984D02*
X3092086Y-12685984D01*
X3092086Y-12685984D02*
X3073039Y-12676460D01*
X3073039Y-12676460D02*
X3063515Y-12666936D01*
X3063515Y-12666936D02*
X3053991Y-12647888D01*
X3053991Y-12647888D02*
X3044467Y-12609793D01*
X3044467Y-12609793D02*
X3044467Y-12562174D01*
X3044467Y-12562174D02*
X3053991Y-12524079D01*
X3053991Y-12524079D02*
X3063515Y-12505031D01*
X3063515Y-12505031D02*
X3073039Y-12495508D01*
X3073039Y-12495508D02*
X3092086Y-12485984D01*
X3282562Y-12485984D02*
X3301610Y-12485984D01*
X3301610Y-12485984D02*
X3320658Y-12495508D01*
X3320658Y-12495508D02*
X3330182Y-12505031D01*
X3330182Y-12505031D02*
X3339705Y-12524079D01*
X3339705Y-12524079D02*
X3349229Y-12562174D01*
X3349229Y-12562174D02*
X3349229Y-12609793D01*
X3349229Y-12609793D02*
X3339705Y-12647888D01*
X3339705Y-12647888D02*
X3330182Y-12666936D01*
X3330182Y-12666936D02*
X3320658Y-12676460D01*
X3320658Y-12676460D02*
X3301610Y-12685984D01*
X3301610Y-12685984D02*
X3282562Y-12685984D01*
X3282562Y-12685984D02*
X3263515Y-12676460D01*
X3263515Y-12676460D02*
X3253991Y-12666936D01*
X3253991Y-12666936D02*
X3244467Y-12647888D01*
X3244467Y-12647888D02*
X3234943Y-12609793D01*
X3234943Y-12609793D02*
X3234943Y-12562174D01*
X3234943Y-12562174D02*
X3244467Y-12524079D01*
X3244467Y-12524079D02*
X3253991Y-12505031D01*
X3253991Y-12505031D02*
X3263515Y-12495508D01*
X3263515Y-12495508D02*
X3282562Y-12485984D01*
X3473039Y-12485984D02*
X3492086Y-12485984D01*
X3492086Y-12485984D02*
X3511134Y-12495508D01*
X3511134Y-12495508D02*
X3520658Y-12505031D01*
X3520658Y-12505031D02*
X3530182Y-12524079D01*
X3530182Y-12524079D02*
X3539705Y-12562174D01*
X3539705Y-12562174D02*
X3539705Y-12609793D01*
X3539705Y-12609793D02*
X3530182Y-12647888D01*
X3530182Y-12647888D02*
X3520658Y-12666936D01*
X3520658Y-12666936D02*
X3511134Y-12676460D01*
X3511134Y-12676460D02*
X3492086Y-12685984D01*
X3492086Y-12685984D02*
X3473039Y-12685984D01*
X3473039Y-12685984D02*
X3453991Y-12676460D01*
X3453991Y-12676460D02*
X3444467Y-12666936D01*
X3444467Y-12666936D02*
X3434943Y-12647888D01*
X3434943Y-12647888D02*
X3425420Y-12609793D01*
X3425420Y-12609793D02*
X3425420Y-12562174D01*
X3425420Y-12562174D02*
X3434943Y-12524079D01*
X3434943Y-12524079D02*
X3444467Y-12505031D01*
X3444467Y-12505031D02*
X3453991Y-12495508D01*
X3453991Y-12495508D02*
X3473039Y-12485984D01*
X3625420Y-12685984D02*
X3625420Y-12552650D01*
X3625420Y-12571698D02*
X3634943Y-12562174D01*
X3634943Y-12562174D02*
X3653991Y-12552650D01*
X3653991Y-12552650D02*
X3682563Y-12552650D01*
X3682563Y-12552650D02*
X3701610Y-12562174D01*
X3701610Y-12562174D02*
X3711134Y-12581222D01*
X3711134Y-12581222D02*
X3711134Y-12685984D01*
X3711134Y-12581222D02*
X3720658Y-12562174D01*
X3720658Y-12562174D02*
X3739705Y-12552650D01*
X3739705Y-12552650D02*
X3768277Y-12552650D01*
X3768277Y-12552650D02*
X3787324Y-12562174D01*
X3787324Y-12562174D02*
X3796848Y-12581222D01*
X3796848Y-12581222D02*
X3796848Y-12685984D01*
X3892086Y-12685984D02*
X3892086Y-12552650D01*
X3892086Y-12571698D02*
X3901610Y-12562174D01*
X3901610Y-12562174D02*
X3920658Y-12552650D01*
X3920658Y-12552650D02*
X3949229Y-12552650D01*
X3949229Y-12552650D02*
X3968277Y-12562174D01*
X3968277Y-12562174D02*
X3977801Y-12581222D01*
X3977801Y-12581222D02*
X3977801Y-12685984D01*
X3977801Y-12581222D02*
X3987324Y-12562174D01*
X3987324Y-12562174D02*
X4006372Y-12552650D01*
X4006372Y-12552650D02*
X4034943Y-12552650D01*
X4034943Y-12552650D02*
X4053991Y-12562174D01*
X4053991Y-12562174D02*
X4063515Y-12581222D01*
X4063515Y-12581222D02*
X4063515Y-12685984D01*
X4453991Y-12476460D02*
X4282563Y-12733603D01*
X4711134Y-12485984D02*
X4730182Y-12485984D01*
X4730182Y-12485984D02*
X4749229Y-12495508D01*
X4749229Y-12495508D02*
X4758753Y-12505031D01*
X4758753Y-12505031D02*
X4768277Y-12524079D01*
X4768277Y-12524079D02*
X4777801Y-12562174D01*
X4777801Y-12562174D02*
X4777801Y-12609793D01*
X4777801Y-12609793D02*
X4768277Y-12647888D01*
X4768277Y-12647888D02*
X4758753Y-12666936D01*
X4758753Y-12666936D02*
X4749229Y-12676460D01*
X4749229Y-12676460D02*
X4730182Y-12685984D01*
X4730182Y-12685984D02*
X4711134Y-12685984D01*
X4711134Y-12685984D02*
X4692087Y-12676460D01*
X4692087Y-12676460D02*
X4682563Y-12666936D01*
X4682563Y-12666936D02*
X4673039Y-12647888D01*
X4673039Y-12647888D02*
X4663515Y-12609793D01*
X4663515Y-12609793D02*
X4663515Y-12562174D01*
X4663515Y-12562174D02*
X4673039Y-12524079D01*
X4673039Y-12524079D02*
X4682563Y-12505031D01*
X4682563Y-12505031D02*
X4692087Y-12495508D01*
X4692087Y-12495508D02*
X4711134Y-12485984D01*
X4863515Y-12666936D02*
X4873039Y-12676460D01*
X4873039Y-12676460D02*
X4863515Y-12685984D01*
X4863515Y-12685984D02*
X4853991Y-12676460D01*
X4853991Y-12676460D02*
X4863515Y-12666936D01*
X4863515Y-12666936D02*
X4863515Y-12685984D01*
X4996848Y-12485984D02*
X5015896Y-12485984D01*
X5015896Y-12485984D02*
X5034944Y-12495508D01*
X5034944Y-12495508D02*
X5044468Y-12505031D01*
X5044468Y-12505031D02*
X5053991Y-12524079D01*
X5053991Y-12524079D02*
X5063515Y-12562174D01*
X5063515Y-12562174D02*
X5063515Y-12609793D01*
X5063515Y-12609793D02*
X5053991Y-12647888D01*
X5053991Y-12647888D02*
X5044468Y-12666936D01*
X5044468Y-12666936D02*
X5034944Y-12676460D01*
X5034944Y-12676460D02*
X5015896Y-12685984D01*
X5015896Y-12685984D02*
X4996848Y-12685984D01*
X4996848Y-12685984D02*
X4977801Y-12676460D01*
X4977801Y-12676460D02*
X4968277Y-12666936D01*
X4968277Y-12666936D02*
X4958753Y-12647888D01*
X4958753Y-12647888D02*
X4949229Y-12609793D01*
X4949229Y-12609793D02*
X4949229Y-12562174D01*
X4949229Y-12562174D02*
X4958753Y-12524079D01*
X4958753Y-12524079D02*
X4968277Y-12505031D01*
X4968277Y-12505031D02*
X4977801Y-12495508D01*
X4977801Y-12495508D02*
X4996848Y-12485984D01*
X5130182Y-12485984D02*
X5253991Y-12485984D01*
X5253991Y-12485984D02*
X5187325Y-12562174D01*
X5187325Y-12562174D02*
X5215896Y-12562174D01*
X5215896Y-12562174D02*
X5234944Y-12571698D01*
X5234944Y-12571698D02*
X5244468Y-12581222D01*
X5244468Y-12581222D02*
X5253991Y-12600269D01*
X5253991Y-12600269D02*
X5253991Y-12647888D01*
X5253991Y-12647888D02*
X5244468Y-12666936D01*
X5244468Y-12666936D02*
X5234944Y-12676460D01*
X5234944Y-12676460D02*
X5215896Y-12685984D01*
X5215896Y-12685984D02*
X5158753Y-12685984D01*
X5158753Y-12685984D02*
X5139706Y-12676460D01*
X5139706Y-12676460D02*
X5130182Y-12666936D01*
X5349229Y-12685984D02*
X5387325Y-12685984D01*
X5387325Y-12685984D02*
X5406372Y-12676460D01*
X5406372Y-12676460D02*
X5415896Y-12666936D01*
X5415896Y-12666936D02*
X5434944Y-12638365D01*
X5434944Y-12638365D02*
X5444468Y-12600269D01*
X5444468Y-12600269D02*
X5444468Y-12524079D01*
X5444468Y-12524079D02*
X5434944Y-12505031D01*
X5434944Y-12505031D02*
X5425420Y-12495508D01*
X5425420Y-12495508D02*
X5406372Y-12485984D01*
X5406372Y-12485984D02*
X5368277Y-12485984D01*
X5368277Y-12485984D02*
X5349229Y-12495508D01*
X5349229Y-12495508D02*
X5339706Y-12505031D01*
X5339706Y-12505031D02*
X5330182Y-12524079D01*
X5330182Y-12524079D02*
X5330182Y-12571698D01*
X5330182Y-12571698D02*
X5339706Y-12590746D01*
X5339706Y-12590746D02*
X5349229Y-12600269D01*
X5349229Y-12600269D02*
X5368277Y-12609793D01*
X5368277Y-12609793D02*
X5406372Y-12609793D01*
X5406372Y-12609793D02*
X5425420Y-12600269D01*
X5425420Y-12600269D02*
X5434944Y-12590746D01*
X5434944Y-12590746D02*
X5444468Y-12571698D01*
X5615896Y-12552650D02*
X5615896Y-12685984D01*
X5568277Y-12476460D02*
X5520658Y-12619317D01*
X5520658Y-12619317D02*
X5644467Y-12619317D01*
X5711134Y-12485984D02*
X5711134Y-12524079D01*
X5787325Y-12485984D02*
X5787325Y-12524079D01*
X6082563Y-12762174D02*
X6073039Y-12752650D01*
X6073039Y-12752650D02*
X6053991Y-12724079D01*
X6053991Y-12724079D02*
X6044468Y-12705031D01*
X6044468Y-12705031D02*
X6034944Y-12676460D01*
X6034944Y-12676460D02*
X6025420Y-12628841D01*
X6025420Y-12628841D02*
X6025420Y-12590746D01*
X6025420Y-12590746D02*
X6034944Y-12543127D01*
X6034944Y-12543127D02*
X6044468Y-12514555D01*
X6044468Y-12514555D02*
X6053991Y-12495508D01*
X6053991Y-12495508D02*
X6073039Y-12466936D01*
X6073039Y-12466936D02*
X6082563Y-12457412D01*
X6244468Y-12485984D02*
X6206372Y-12485984D01*
X6206372Y-12485984D02*
X6187325Y-12495508D01*
X6187325Y-12495508D02*
X6177801Y-12505031D01*
X6177801Y-12505031D02*
X6158753Y-12533603D01*
X6158753Y-12533603D02*
X6149229Y-12571698D01*
X6149229Y-12571698D02*
X6149229Y-12647888D01*
X6149229Y-12647888D02*
X6158753Y-12666936D01*
X6158753Y-12666936D02*
X6168277Y-12676460D01*
X6168277Y-12676460D02*
X6187325Y-12685984D01*
X6187325Y-12685984D02*
X6225420Y-12685984D01*
X6225420Y-12685984D02*
X6244468Y-12676460D01*
X6244468Y-12676460D02*
X6253991Y-12666936D01*
X6253991Y-12666936D02*
X6263515Y-12647888D01*
X6263515Y-12647888D02*
X6263515Y-12600269D01*
X6263515Y-12600269D02*
X6253991Y-12581222D01*
X6253991Y-12581222D02*
X6244468Y-12571698D01*
X6244468Y-12571698D02*
X6225420Y-12562174D01*
X6225420Y-12562174D02*
X6187325Y-12562174D01*
X6187325Y-12562174D02*
X6168277Y-12571698D01*
X6168277Y-12571698D02*
X6158753Y-12581222D01*
X6158753Y-12581222D02*
X6149229Y-12600269D01*
X6377801Y-12571698D02*
X6358753Y-12562174D01*
X6358753Y-12562174D02*
X6349229Y-12552650D01*
X6349229Y-12552650D02*
X6339706Y-12533603D01*
X6339706Y-12533603D02*
X6339706Y-12524079D01*
X6339706Y-12524079D02*
X6349229Y-12505031D01*
X6349229Y-12505031D02*
X6358753Y-12495508D01*
X6358753Y-12495508D02*
X6377801Y-12485984D01*
X6377801Y-12485984D02*
X6415896Y-12485984D01*
X6415896Y-12485984D02*
X6434944Y-12495508D01*
X6434944Y-12495508D02*
X6444468Y-12505031D01*
X6444468Y-12505031D02*
X6453991Y-12524079D01*
X6453991Y-12524079D02*
X6453991Y-12533603D01*
X6453991Y-12533603D02*
X6444468Y-12552650D01*
X6444468Y-12552650D02*
X6434944Y-12562174D01*
X6434944Y-12562174D02*
X6415896Y-12571698D01*
X6415896Y-12571698D02*
X6377801Y-12571698D01*
X6377801Y-12571698D02*
X6358753Y-12581222D01*
X6358753Y-12581222D02*
X6349229Y-12590746D01*
X6349229Y-12590746D02*
X6339706Y-12609793D01*
X6339706Y-12609793D02*
X6339706Y-12647888D01*
X6339706Y-12647888D02*
X6349229Y-12666936D01*
X6349229Y-12666936D02*
X6358753Y-12676460D01*
X6358753Y-12676460D02*
X6377801Y-12685984D01*
X6377801Y-12685984D02*
X6415896Y-12685984D01*
X6415896Y-12685984D02*
X6434944Y-12676460D01*
X6434944Y-12676460D02*
X6444468Y-12666936D01*
X6444468Y-12666936D02*
X6453991Y-12647888D01*
X6453991Y-12647888D02*
X6453991Y-12609793D01*
X6453991Y-12609793D02*
X6444468Y-12590746D01*
X6444468Y-12590746D02*
X6434944Y-12581222D01*
X6434944Y-12581222D02*
X6415896Y-12571698D01*
X6692087Y-12685984D02*
X6692087Y-12485984D01*
X6777801Y-12685984D02*
X6777801Y-12581222D01*
X6777801Y-12581222D02*
X6768277Y-12562174D01*
X6768277Y-12562174D02*
X6749230Y-12552650D01*
X6749230Y-12552650D02*
X6720658Y-12552650D01*
X6720658Y-12552650D02*
X6701610Y-12562174D01*
X6701610Y-12562174D02*
X6692087Y-12571698D01*
X6901610Y-12685984D02*
X6882563Y-12676460D01*
X6882563Y-12676460D02*
X6873039Y-12666936D01*
X6873039Y-12666936D02*
X6863515Y-12647888D01*
X6863515Y-12647888D02*
X6863515Y-12590746D01*
X6863515Y-12590746D02*
X6873039Y-12571698D01*
X6873039Y-12571698D02*
X6882563Y-12562174D01*
X6882563Y-12562174D02*
X6901610Y-12552650D01*
X6901610Y-12552650D02*
X6930182Y-12552650D01*
X6930182Y-12552650D02*
X6949230Y-12562174D01*
X6949230Y-12562174D02*
X6958753Y-12571698D01*
X6958753Y-12571698D02*
X6968277Y-12590746D01*
X6968277Y-12590746D02*
X6968277Y-12647888D01*
X6968277Y-12647888D02*
X6958753Y-12666936D01*
X6958753Y-12666936D02*
X6949230Y-12676460D01*
X6949230Y-12676460D02*
X6930182Y-12685984D01*
X6930182Y-12685984D02*
X6901610Y-12685984D01*
X7082563Y-12685984D02*
X7063515Y-12676460D01*
X7063515Y-12676460D02*
X7053991Y-12657412D01*
X7053991Y-12657412D02*
X7053991Y-12485984D01*
X7234944Y-12676460D02*
X7215896Y-12685984D01*
X7215896Y-12685984D02*
X7177801Y-12685984D01*
X7177801Y-12685984D02*
X7158753Y-12676460D01*
X7158753Y-12676460D02*
X7149230Y-12657412D01*
X7149230Y-12657412D02*
X7149230Y-12581222D01*
X7149230Y-12581222D02*
X7158753Y-12562174D01*
X7158753Y-12562174D02*
X7177801Y-12552650D01*
X7177801Y-12552650D02*
X7215896Y-12552650D01*
X7215896Y-12552650D02*
X7234944Y-12562174D01*
X7234944Y-12562174D02*
X7244468Y-12581222D01*
X7244468Y-12581222D02*
X7244468Y-12600269D01*
X7244468Y-12600269D02*
X7149230Y-12619317D01*
X7320658Y-12676460D02*
X7339706Y-12685984D01*
X7339706Y-12685984D02*
X7377801Y-12685984D01*
X7377801Y-12685984D02*
X7396849Y-12676460D01*
X7396849Y-12676460D02*
X7406372Y-12657412D01*
X7406372Y-12657412D02*
X7406372Y-12647888D01*
X7406372Y-12647888D02*
X7396849Y-12628841D01*
X7396849Y-12628841D02*
X7377801Y-12619317D01*
X7377801Y-12619317D02*
X7349230Y-12619317D01*
X7349230Y-12619317D02*
X7330182Y-12609793D01*
X7330182Y-12609793D02*
X7320658Y-12590746D01*
X7320658Y-12590746D02*
X7320658Y-12581222D01*
X7320658Y-12581222D02*
X7330182Y-12562174D01*
X7330182Y-12562174D02*
X7349230Y-12552650D01*
X7349230Y-12552650D02*
X7377801Y-12552650D01*
X7377801Y-12552650D02*
X7396849Y-12562174D01*
X7473039Y-12762174D02*
X7482563Y-12752650D01*
X7482563Y-12752650D02*
X7501611Y-12724079D01*
X7501611Y-12724079D02*
X7511134Y-12705031D01*
X7511134Y-12705031D02*
X7520658Y-12676460D01*
X7520658Y-12676460D02*
X7530182Y-12628841D01*
X7530182Y-12628841D02*
X7530182Y-12590746D01*
X7530182Y-12590746D02*
X7520658Y-12543127D01*
X7520658Y-12543127D02*
X7511134Y-12514555D01*
X7511134Y-12514555D02*
X7501611Y-12495508D01*
X7501611Y-12495508D02*
X7482563Y-12466936D01*
X7482563Y-12466936D02*
X7473039Y-12457412D01*
D13*
X2455430Y-12910570D02*
X2507500Y-12858500D01*
X2455430Y-12806430D01*
X2403360Y-12858500D01*
X2455430Y-12910570D01*
D11*
X2873039Y-12949984D02*
X2758753Y-12949984D01*
X2815896Y-12949984D02*
X2815896Y-12749984D01*
X2815896Y-12749984D02*
X2796848Y-12778555D01*
X2796848Y-12778555D02*
X2777801Y-12797603D01*
X2777801Y-12797603D02*
X2758753Y-12807127D01*
X2958753Y-12930936D02*
X2968277Y-12940460D01*
X2968277Y-12940460D02*
X2958753Y-12949984D01*
X2958753Y-12949984D02*
X2949229Y-12940460D01*
X2949229Y-12940460D02*
X2958753Y-12930936D01*
X2958753Y-12930936D02*
X2958753Y-12949984D01*
X3092086Y-12749984D02*
X3111134Y-12749984D01*
X3111134Y-12749984D02*
X3130182Y-12759508D01*
X3130182Y-12759508D02*
X3139705Y-12769031D01*
X3139705Y-12769031D02*
X3149229Y-12788079D01*
X3149229Y-12788079D02*
X3158753Y-12826174D01*
X3158753Y-12826174D02*
X3158753Y-12873793D01*
X3158753Y-12873793D02*
X3149229Y-12911888D01*
X3149229Y-12911888D02*
X3139705Y-12930936D01*
X3139705Y-12930936D02*
X3130182Y-12940460D01*
X3130182Y-12940460D02*
X3111134Y-12949984D01*
X3111134Y-12949984D02*
X3092086Y-12949984D01*
X3092086Y-12949984D02*
X3073039Y-12940460D01*
X3073039Y-12940460D02*
X3063515Y-12930936D01*
X3063515Y-12930936D02*
X3053991Y-12911888D01*
X3053991Y-12911888D02*
X3044467Y-12873793D01*
X3044467Y-12873793D02*
X3044467Y-12826174D01*
X3044467Y-12826174D02*
X3053991Y-12788079D01*
X3053991Y-12788079D02*
X3063515Y-12769031D01*
X3063515Y-12769031D02*
X3073039Y-12759508D01*
X3073039Y-12759508D02*
X3092086Y-12749984D01*
X3330182Y-12816650D02*
X3330182Y-12949984D01*
X3282562Y-12740460D02*
X3234943Y-12883317D01*
X3234943Y-12883317D02*
X3358753Y-12883317D01*
X3539705Y-12949984D02*
X3425420Y-12949984D01*
X3482562Y-12949984D02*
X3482562Y-12749984D01*
X3482562Y-12749984D02*
X3463515Y-12778555D01*
X3463515Y-12778555D02*
X3444467Y-12797603D01*
X3444467Y-12797603D02*
X3425420Y-12807127D01*
X3625420Y-12949984D02*
X3625420Y-12816650D01*
X3625420Y-12835698D02*
X3634943Y-12826174D01*
X3634943Y-12826174D02*
X3653991Y-12816650D01*
X3653991Y-12816650D02*
X3682563Y-12816650D01*
X3682563Y-12816650D02*
X3701610Y-12826174D01*
X3701610Y-12826174D02*
X3711134Y-12845222D01*
X3711134Y-12845222D02*
X3711134Y-12949984D01*
X3711134Y-12845222D02*
X3720658Y-12826174D01*
X3720658Y-12826174D02*
X3739705Y-12816650D01*
X3739705Y-12816650D02*
X3768277Y-12816650D01*
X3768277Y-12816650D02*
X3787324Y-12826174D01*
X3787324Y-12826174D02*
X3796848Y-12845222D01*
X3796848Y-12845222D02*
X3796848Y-12949984D01*
X3892086Y-12949984D02*
X3892086Y-12816650D01*
X3892086Y-12835698D02*
X3901610Y-12826174D01*
X3901610Y-12826174D02*
X3920658Y-12816650D01*
X3920658Y-12816650D02*
X3949229Y-12816650D01*
X3949229Y-12816650D02*
X3968277Y-12826174D01*
X3968277Y-12826174D02*
X3977801Y-12845222D01*
X3977801Y-12845222D02*
X3977801Y-12949984D01*
X3977801Y-12845222D02*
X3987324Y-12826174D01*
X3987324Y-12826174D02*
X4006372Y-12816650D01*
X4006372Y-12816650D02*
X4034943Y-12816650D01*
X4034943Y-12816650D02*
X4053991Y-12826174D01*
X4053991Y-12826174D02*
X4063515Y-12845222D01*
X4063515Y-12845222D02*
X4063515Y-12949984D01*
X4453991Y-12740460D02*
X4282563Y-12997603D01*
X4711134Y-12749984D02*
X4730182Y-12749984D01*
X4730182Y-12749984D02*
X4749229Y-12759508D01*
X4749229Y-12759508D02*
X4758753Y-12769031D01*
X4758753Y-12769031D02*
X4768277Y-12788079D01*
X4768277Y-12788079D02*
X4777801Y-12826174D01*
X4777801Y-12826174D02*
X4777801Y-12873793D01*
X4777801Y-12873793D02*
X4768277Y-12911888D01*
X4768277Y-12911888D02*
X4758753Y-12930936D01*
X4758753Y-12930936D02*
X4749229Y-12940460D01*
X4749229Y-12940460D02*
X4730182Y-12949984D01*
X4730182Y-12949984D02*
X4711134Y-12949984D01*
X4711134Y-12949984D02*
X4692087Y-12940460D01*
X4692087Y-12940460D02*
X4682563Y-12930936D01*
X4682563Y-12930936D02*
X4673039Y-12911888D01*
X4673039Y-12911888D02*
X4663515Y-12873793D01*
X4663515Y-12873793D02*
X4663515Y-12826174D01*
X4663515Y-12826174D02*
X4673039Y-12788079D01*
X4673039Y-12788079D02*
X4682563Y-12769031D01*
X4682563Y-12769031D02*
X4692087Y-12759508D01*
X4692087Y-12759508D02*
X4711134Y-12749984D01*
X4863515Y-12930936D02*
X4873039Y-12940460D01*
X4873039Y-12940460D02*
X4863515Y-12949984D01*
X4863515Y-12949984D02*
X4853991Y-12940460D01*
X4853991Y-12940460D02*
X4863515Y-12930936D01*
X4863515Y-12930936D02*
X4863515Y-12949984D01*
X4996848Y-12749984D02*
X5015896Y-12749984D01*
X5015896Y-12749984D02*
X5034944Y-12759508D01*
X5034944Y-12759508D02*
X5044468Y-12769031D01*
X5044468Y-12769031D02*
X5053991Y-12788079D01*
X5053991Y-12788079D02*
X5063515Y-12826174D01*
X5063515Y-12826174D02*
X5063515Y-12873793D01*
X5063515Y-12873793D02*
X5053991Y-12911888D01*
X5053991Y-12911888D02*
X5044468Y-12930936D01*
X5044468Y-12930936D02*
X5034944Y-12940460D01*
X5034944Y-12940460D02*
X5015896Y-12949984D01*
X5015896Y-12949984D02*
X4996848Y-12949984D01*
X4996848Y-12949984D02*
X4977801Y-12940460D01*
X4977801Y-12940460D02*
X4968277Y-12930936D01*
X4968277Y-12930936D02*
X4958753Y-12911888D01*
X4958753Y-12911888D02*
X4949229Y-12873793D01*
X4949229Y-12873793D02*
X4949229Y-12826174D01*
X4949229Y-12826174D02*
X4958753Y-12788079D01*
X4958753Y-12788079D02*
X4968277Y-12769031D01*
X4968277Y-12769031D02*
X4977801Y-12759508D01*
X4977801Y-12759508D02*
X4996848Y-12749984D01*
X5234944Y-12816650D02*
X5234944Y-12949984D01*
X5187325Y-12740460D02*
X5139706Y-12883317D01*
X5139706Y-12883317D02*
X5263515Y-12883317D01*
X5444468Y-12949984D02*
X5330182Y-12949984D01*
X5387325Y-12949984D02*
X5387325Y-12749984D01*
X5387325Y-12749984D02*
X5368277Y-12778555D01*
X5368277Y-12778555D02*
X5349229Y-12797603D01*
X5349229Y-12797603D02*
X5330182Y-12807127D01*
X5568277Y-12749984D02*
X5587325Y-12749984D01*
X5587325Y-12749984D02*
X5606372Y-12759508D01*
X5606372Y-12759508D02*
X5615896Y-12769031D01*
X5615896Y-12769031D02*
X5625420Y-12788079D01*
X5625420Y-12788079D02*
X5634944Y-12826174D01*
X5634944Y-12826174D02*
X5634944Y-12873793D01*
X5634944Y-12873793D02*
X5625420Y-12911888D01*
X5625420Y-12911888D02*
X5615896Y-12930936D01*
X5615896Y-12930936D02*
X5606372Y-12940460D01*
X5606372Y-12940460D02*
X5587325Y-12949984D01*
X5587325Y-12949984D02*
X5568277Y-12949984D01*
X5568277Y-12949984D02*
X5549229Y-12940460D01*
X5549229Y-12940460D02*
X5539706Y-12930936D01*
X5539706Y-12930936D02*
X5530182Y-12911888D01*
X5530182Y-12911888D02*
X5520658Y-12873793D01*
X5520658Y-12873793D02*
X5520658Y-12826174D01*
X5520658Y-12826174D02*
X5530182Y-12788079D01*
X5530182Y-12788079D02*
X5539706Y-12769031D01*
X5539706Y-12769031D02*
X5549229Y-12759508D01*
X5549229Y-12759508D02*
X5568277Y-12749984D01*
X5711134Y-12749984D02*
X5711134Y-12788079D01*
X5787325Y-12749984D02*
X5787325Y-12788079D01*
X6082563Y-13026174D02*
X6073039Y-13016650D01*
X6073039Y-13016650D02*
X6053991Y-12988079D01*
X6053991Y-12988079D02*
X6044468Y-12969031D01*
X6044468Y-12969031D02*
X6034944Y-12940460D01*
X6034944Y-12940460D02*
X6025420Y-12892841D01*
X6025420Y-12892841D02*
X6025420Y-12854746D01*
X6025420Y-12854746D02*
X6034944Y-12807127D01*
X6034944Y-12807127D02*
X6044468Y-12778555D01*
X6044468Y-12778555D02*
X6053991Y-12759508D01*
X6053991Y-12759508D02*
X6073039Y-12730936D01*
X6073039Y-12730936D02*
X6082563Y-12721412D01*
X6263515Y-12949984D02*
X6149229Y-12949984D01*
X6206372Y-12949984D02*
X6206372Y-12749984D01*
X6206372Y-12749984D02*
X6187325Y-12778555D01*
X6187325Y-12778555D02*
X6168277Y-12797603D01*
X6168277Y-12797603D02*
X6149229Y-12807127D01*
X6377801Y-12835698D02*
X6358753Y-12826174D01*
X6358753Y-12826174D02*
X6349229Y-12816650D01*
X6349229Y-12816650D02*
X6339706Y-12797603D01*
X6339706Y-12797603D02*
X6339706Y-12788079D01*
X6339706Y-12788079D02*
X6349229Y-12769031D01*
X6349229Y-12769031D02*
X6358753Y-12759508D01*
X6358753Y-12759508D02*
X6377801Y-12749984D01*
X6377801Y-12749984D02*
X6415896Y-12749984D01*
X6415896Y-12749984D02*
X6434944Y-12759508D01*
X6434944Y-12759508D02*
X6444468Y-12769031D01*
X6444468Y-12769031D02*
X6453991Y-12788079D01*
X6453991Y-12788079D02*
X6453991Y-12797603D01*
X6453991Y-12797603D02*
X6444468Y-12816650D01*
X6444468Y-12816650D02*
X6434944Y-12826174D01*
X6434944Y-12826174D02*
X6415896Y-12835698D01*
X6415896Y-12835698D02*
X6377801Y-12835698D01*
X6377801Y-12835698D02*
X6358753Y-12845222D01*
X6358753Y-12845222D02*
X6349229Y-12854746D01*
X6349229Y-12854746D02*
X6339706Y-12873793D01*
X6339706Y-12873793D02*
X6339706Y-12911888D01*
X6339706Y-12911888D02*
X6349229Y-12930936D01*
X6349229Y-12930936D02*
X6358753Y-12940460D01*
X6358753Y-12940460D02*
X6377801Y-12949984D01*
X6377801Y-12949984D02*
X6415896Y-12949984D01*
X6415896Y-12949984D02*
X6434944Y-12940460D01*
X6434944Y-12940460D02*
X6444468Y-12930936D01*
X6444468Y-12930936D02*
X6453991Y-12911888D01*
X6453991Y-12911888D02*
X6453991Y-12873793D01*
X6453991Y-12873793D02*
X6444468Y-12854746D01*
X6444468Y-12854746D02*
X6434944Y-12845222D01*
X6434944Y-12845222D02*
X6415896Y-12835698D01*
X6692087Y-12949984D02*
X6692087Y-12749984D01*
X6777801Y-12949984D02*
X6777801Y-12845222D01*
X6777801Y-12845222D02*
X6768277Y-12826174D01*
X6768277Y-12826174D02*
X6749230Y-12816650D01*
X6749230Y-12816650D02*
X6720658Y-12816650D01*
X6720658Y-12816650D02*
X6701610Y-12826174D01*
X6701610Y-12826174D02*
X6692087Y-12835698D01*
X6901610Y-12949984D02*
X6882563Y-12940460D01*
X6882563Y-12940460D02*
X6873039Y-12930936D01*
X6873039Y-12930936D02*
X6863515Y-12911888D01*
X6863515Y-12911888D02*
X6863515Y-12854746D01*
X6863515Y-12854746D02*
X6873039Y-12835698D01*
X6873039Y-12835698D02*
X6882563Y-12826174D01*
X6882563Y-12826174D02*
X6901610Y-12816650D01*
X6901610Y-12816650D02*
X6930182Y-12816650D01*
X6930182Y-12816650D02*
X6949230Y-12826174D01*
X6949230Y-12826174D02*
X6958753Y-12835698D01*
X6958753Y-12835698D02*
X6968277Y-12854746D01*
X6968277Y-12854746D02*
X6968277Y-12911888D01*
X6968277Y-12911888D02*
X6958753Y-12930936D01*
X6958753Y-12930936D02*
X6949230Y-12940460D01*
X6949230Y-12940460D02*
X6930182Y-12949984D01*
X6930182Y-12949984D02*
X6901610Y-12949984D01*
X7082563Y-12949984D02*
X7063515Y-12940460D01*
X7063515Y-12940460D02*
X7053991Y-12921412D01*
X7053991Y-12921412D02*
X7053991Y-12749984D01*
X7234944Y-12940460D02*
X7215896Y-12949984D01*
X7215896Y-12949984D02*
X7177801Y-12949984D01*
X7177801Y-12949984D02*
X7158753Y-12940460D01*
X7158753Y-12940460D02*
X7149230Y-12921412D01*
X7149230Y-12921412D02*
X7149230Y-12845222D01*
X7149230Y-12845222D02*
X7158753Y-12826174D01*
X7158753Y-12826174D02*
X7177801Y-12816650D01*
X7177801Y-12816650D02*
X7215896Y-12816650D01*
X7215896Y-12816650D02*
X7234944Y-12826174D01*
X7234944Y-12826174D02*
X7244468Y-12845222D01*
X7244468Y-12845222D02*
X7244468Y-12864269D01*
X7244468Y-12864269D02*
X7149230Y-12883317D01*
X7320658Y-12940460D02*
X7339706Y-12949984D01*
X7339706Y-12949984D02*
X7377801Y-12949984D01*
X7377801Y-12949984D02*
X7396849Y-12940460D01*
X7396849Y-12940460D02*
X7406372Y-12921412D01*
X7406372Y-12921412D02*
X7406372Y-12911888D01*
X7406372Y-12911888D02*
X7396849Y-12892841D01*
X7396849Y-12892841D02*
X7377801Y-12883317D01*
X7377801Y-12883317D02*
X7349230Y-12883317D01*
X7349230Y-12883317D02*
X7330182Y-12873793D01*
X7330182Y-12873793D02*
X7320658Y-12854746D01*
X7320658Y-12854746D02*
X7320658Y-12845222D01*
X7320658Y-12845222D02*
X7330182Y-12826174D01*
X7330182Y-12826174D02*
X7349230Y-12816650D01*
X7349230Y-12816650D02*
X7377801Y-12816650D01*
X7377801Y-12816650D02*
X7396849Y-12826174D01*
X7473039Y-13026174D02*
X7482563Y-13016650D01*
X7482563Y-13016650D02*
X7501611Y-12988079D01*
X7501611Y-12988079D02*
X7511134Y-12969031D01*
X7511134Y-12969031D02*
X7520658Y-12940460D01*
X7520658Y-12940460D02*
X7530182Y-12892841D01*
X7530182Y-12892841D02*
X7530182Y-12854746D01*
X7530182Y-12854746D02*
X7520658Y-12807127D01*
X7520658Y-12807127D02*
X7511134Y-12778555D01*
X7511134Y-12778555D02*
X7501611Y-12759508D01*
X7501611Y-12759508D02*
X7482563Y-12730936D01*
X7482563Y-12730936D02*
X7473039Y-12721412D01*
D14*
X2372500Y-13055000D02*
X2507500Y-13190000D01*
X2507500Y-13055000D02*
X2372500Y-13190000D01*
X2507500Y-13122500D02*
G75*
G02*
X2372500Y-13122500I-67500J0D01*
G01*
X2372500Y-13122500D02*
G75*
G02*
X2507500Y-13122500I67500J0D01*
G01*
D11*
X2873039Y-13213984D02*
X2758753Y-13213984D01*
X2815896Y-13213984D02*
X2815896Y-13013984D01*
X2815896Y-13013984D02*
X2796848Y-13042555D01*
X2796848Y-13042555D02*
X2777801Y-13061603D01*
X2777801Y-13061603D02*
X2758753Y-13071127D01*
X2958753Y-13194936D02*
X2968277Y-13204460D01*
X2968277Y-13204460D02*
X2958753Y-13213984D01*
X2958753Y-13213984D02*
X2949229Y-13204460D01*
X2949229Y-13204460D02*
X2958753Y-13194936D01*
X2958753Y-13194936D02*
X2958753Y-13213984D01*
X3034943Y-13013984D02*
X3158753Y-13013984D01*
X3158753Y-13013984D02*
X3092086Y-13090174D01*
X3092086Y-13090174D02*
X3120658Y-13090174D01*
X3120658Y-13090174D02*
X3139705Y-13099698D01*
X3139705Y-13099698D02*
X3149229Y-13109222D01*
X3149229Y-13109222D02*
X3158753Y-13128269D01*
X3158753Y-13128269D02*
X3158753Y-13175888D01*
X3158753Y-13175888D02*
X3149229Y-13194936D01*
X3149229Y-13194936D02*
X3139705Y-13204460D01*
X3139705Y-13204460D02*
X3120658Y-13213984D01*
X3120658Y-13213984D02*
X3063515Y-13213984D01*
X3063515Y-13213984D02*
X3044467Y-13204460D01*
X3044467Y-13204460D02*
X3034943Y-13194936D01*
X3339705Y-13013984D02*
X3244467Y-13013984D01*
X3244467Y-13013984D02*
X3234943Y-13109222D01*
X3234943Y-13109222D02*
X3244467Y-13099698D01*
X3244467Y-13099698D02*
X3263515Y-13090174D01*
X3263515Y-13090174D02*
X3311134Y-13090174D01*
X3311134Y-13090174D02*
X3330182Y-13099698D01*
X3330182Y-13099698D02*
X3339705Y-13109222D01*
X3339705Y-13109222D02*
X3349229Y-13128269D01*
X3349229Y-13128269D02*
X3349229Y-13175888D01*
X3349229Y-13175888D02*
X3339705Y-13194936D01*
X3339705Y-13194936D02*
X3330182Y-13204460D01*
X3330182Y-13204460D02*
X3311134Y-13213984D01*
X3311134Y-13213984D02*
X3263515Y-13213984D01*
X3263515Y-13213984D02*
X3244467Y-13204460D01*
X3244467Y-13204460D02*
X3234943Y-13194936D01*
X3473039Y-13013984D02*
X3492086Y-13013984D01*
X3492086Y-13013984D02*
X3511134Y-13023508D01*
X3511134Y-13023508D02*
X3520658Y-13033031D01*
X3520658Y-13033031D02*
X3530182Y-13052079D01*
X3530182Y-13052079D02*
X3539705Y-13090174D01*
X3539705Y-13090174D02*
X3539705Y-13137793D01*
X3539705Y-13137793D02*
X3530182Y-13175888D01*
X3530182Y-13175888D02*
X3520658Y-13194936D01*
X3520658Y-13194936D02*
X3511134Y-13204460D01*
X3511134Y-13204460D02*
X3492086Y-13213984D01*
X3492086Y-13213984D02*
X3473039Y-13213984D01*
X3473039Y-13213984D02*
X3453991Y-13204460D01*
X3453991Y-13204460D02*
X3444467Y-13194936D01*
X3444467Y-13194936D02*
X3434943Y-13175888D01*
X3434943Y-13175888D02*
X3425420Y-13137793D01*
X3425420Y-13137793D02*
X3425420Y-13090174D01*
X3425420Y-13090174D02*
X3434943Y-13052079D01*
X3434943Y-13052079D02*
X3444467Y-13033031D01*
X3444467Y-13033031D02*
X3453991Y-13023508D01*
X3453991Y-13023508D02*
X3473039Y-13013984D01*
X3625420Y-13213984D02*
X3625420Y-13080650D01*
X3625420Y-13099698D02*
X3634943Y-13090174D01*
X3634943Y-13090174D02*
X3653991Y-13080650D01*
X3653991Y-13080650D02*
X3682563Y-13080650D01*
X3682563Y-13080650D02*
X3701610Y-13090174D01*
X3701610Y-13090174D02*
X3711134Y-13109222D01*
X3711134Y-13109222D02*
X3711134Y-13213984D01*
X3711134Y-13109222D02*
X3720658Y-13090174D01*
X3720658Y-13090174D02*
X3739705Y-13080650D01*
X3739705Y-13080650D02*
X3768277Y-13080650D01*
X3768277Y-13080650D02*
X3787324Y-13090174D01*
X3787324Y-13090174D02*
X3796848Y-13109222D01*
X3796848Y-13109222D02*
X3796848Y-13213984D01*
X3892086Y-13213984D02*
X3892086Y-13080650D01*
X3892086Y-13099698D02*
X3901610Y-13090174D01*
X3901610Y-13090174D02*
X3920658Y-13080650D01*
X3920658Y-13080650D02*
X3949229Y-13080650D01*
X3949229Y-13080650D02*
X3968277Y-13090174D01*
X3968277Y-13090174D02*
X3977801Y-13109222D01*
X3977801Y-13109222D02*
X3977801Y-13213984D01*
X3977801Y-13109222D02*
X3987324Y-13090174D01*
X3987324Y-13090174D02*
X4006372Y-13080650D01*
X4006372Y-13080650D02*
X4034943Y-13080650D01*
X4034943Y-13080650D02*
X4053991Y-13090174D01*
X4053991Y-13090174D02*
X4063515Y-13109222D01*
X4063515Y-13109222D02*
X4063515Y-13213984D01*
X4453991Y-13004460D02*
X4282563Y-13261603D01*
X4711134Y-13013984D02*
X4730182Y-13013984D01*
X4730182Y-13013984D02*
X4749229Y-13023508D01*
X4749229Y-13023508D02*
X4758753Y-13033031D01*
X4758753Y-13033031D02*
X4768277Y-13052079D01*
X4768277Y-13052079D02*
X4777801Y-13090174D01*
X4777801Y-13090174D02*
X4777801Y-13137793D01*
X4777801Y-13137793D02*
X4768277Y-13175888D01*
X4768277Y-13175888D02*
X4758753Y-13194936D01*
X4758753Y-13194936D02*
X4749229Y-13204460D01*
X4749229Y-13204460D02*
X4730182Y-13213984D01*
X4730182Y-13213984D02*
X4711134Y-13213984D01*
X4711134Y-13213984D02*
X4692087Y-13204460D01*
X4692087Y-13204460D02*
X4682563Y-13194936D01*
X4682563Y-13194936D02*
X4673039Y-13175888D01*
X4673039Y-13175888D02*
X4663515Y-13137793D01*
X4663515Y-13137793D02*
X4663515Y-13090174D01*
X4663515Y-13090174D02*
X4673039Y-13052079D01*
X4673039Y-13052079D02*
X4682563Y-13033031D01*
X4682563Y-13033031D02*
X4692087Y-13023508D01*
X4692087Y-13023508D02*
X4711134Y-13013984D01*
X4863515Y-13194936D02*
X4873039Y-13204460D01*
X4873039Y-13204460D02*
X4863515Y-13213984D01*
X4863515Y-13213984D02*
X4853991Y-13204460D01*
X4853991Y-13204460D02*
X4863515Y-13194936D01*
X4863515Y-13194936D02*
X4863515Y-13213984D01*
X4996848Y-13013984D02*
X5015896Y-13013984D01*
X5015896Y-13013984D02*
X5034944Y-13023508D01*
X5034944Y-13023508D02*
X5044468Y-13033031D01*
X5044468Y-13033031D02*
X5053991Y-13052079D01*
X5053991Y-13052079D02*
X5063515Y-13090174D01*
X5063515Y-13090174D02*
X5063515Y-13137793D01*
X5063515Y-13137793D02*
X5053991Y-13175888D01*
X5053991Y-13175888D02*
X5044468Y-13194936D01*
X5044468Y-13194936D02*
X5034944Y-13204460D01*
X5034944Y-13204460D02*
X5015896Y-13213984D01*
X5015896Y-13213984D02*
X4996848Y-13213984D01*
X4996848Y-13213984D02*
X4977801Y-13204460D01*
X4977801Y-13204460D02*
X4968277Y-13194936D01*
X4968277Y-13194936D02*
X4958753Y-13175888D01*
X4958753Y-13175888D02*
X4949229Y-13137793D01*
X4949229Y-13137793D02*
X4949229Y-13090174D01*
X4949229Y-13090174D02*
X4958753Y-13052079D01*
X4958753Y-13052079D02*
X4968277Y-13033031D01*
X4968277Y-13033031D02*
X4977801Y-13023508D01*
X4977801Y-13023508D02*
X4996848Y-13013984D01*
X5244468Y-13013984D02*
X5149229Y-13013984D01*
X5149229Y-13013984D02*
X5139706Y-13109222D01*
X5139706Y-13109222D02*
X5149229Y-13099698D01*
X5149229Y-13099698D02*
X5168277Y-13090174D01*
X5168277Y-13090174D02*
X5215896Y-13090174D01*
X5215896Y-13090174D02*
X5234944Y-13099698D01*
X5234944Y-13099698D02*
X5244468Y-13109222D01*
X5244468Y-13109222D02*
X5253991Y-13128269D01*
X5253991Y-13128269D02*
X5253991Y-13175888D01*
X5253991Y-13175888D02*
X5244468Y-13194936D01*
X5244468Y-13194936D02*
X5234944Y-13204460D01*
X5234944Y-13204460D02*
X5215896Y-13213984D01*
X5215896Y-13213984D02*
X5168277Y-13213984D01*
X5168277Y-13213984D02*
X5149229Y-13204460D01*
X5149229Y-13204460D02*
X5139706Y-13194936D01*
X5320658Y-13013984D02*
X5444468Y-13013984D01*
X5444468Y-13013984D02*
X5377801Y-13090174D01*
X5377801Y-13090174D02*
X5406372Y-13090174D01*
X5406372Y-13090174D02*
X5425420Y-13099698D01*
X5425420Y-13099698D02*
X5434944Y-13109222D01*
X5434944Y-13109222D02*
X5444468Y-13128269D01*
X5444468Y-13128269D02*
X5444468Y-13175888D01*
X5444468Y-13175888D02*
X5434944Y-13194936D01*
X5434944Y-13194936D02*
X5425420Y-13204460D01*
X5425420Y-13204460D02*
X5406372Y-13213984D01*
X5406372Y-13213984D02*
X5349229Y-13213984D01*
X5349229Y-13213984D02*
X5330182Y-13204460D01*
X5330182Y-13204460D02*
X5320658Y-13194936D01*
X5634944Y-13213984D02*
X5520658Y-13213984D01*
X5577801Y-13213984D02*
X5577801Y-13013984D01*
X5577801Y-13013984D02*
X5558753Y-13042555D01*
X5558753Y-13042555D02*
X5539706Y-13061603D01*
X5539706Y-13061603D02*
X5520658Y-13071127D01*
X5711134Y-13013984D02*
X5711134Y-13052079D01*
X5787325Y-13013984D02*
X5787325Y-13052079D01*
X6082563Y-13290174D02*
X6073039Y-13280650D01*
X6073039Y-13280650D02*
X6053991Y-13252079D01*
X6053991Y-13252079D02*
X6044468Y-13233031D01*
X6044468Y-13233031D02*
X6034944Y-13204460D01*
X6034944Y-13204460D02*
X6025420Y-13156841D01*
X6025420Y-13156841D02*
X6025420Y-13118746D01*
X6025420Y-13118746D02*
X6034944Y-13071127D01*
X6034944Y-13071127D02*
X6044468Y-13042555D01*
X6044468Y-13042555D02*
X6053991Y-13023508D01*
X6053991Y-13023508D02*
X6073039Y-12994936D01*
X6073039Y-12994936D02*
X6082563Y-12985412D01*
X6139706Y-13013984D02*
X6263515Y-13013984D01*
X6263515Y-13013984D02*
X6196848Y-13090174D01*
X6196848Y-13090174D02*
X6225420Y-13090174D01*
X6225420Y-13090174D02*
X6244468Y-13099698D01*
X6244468Y-13099698D02*
X6253991Y-13109222D01*
X6253991Y-13109222D02*
X6263515Y-13128269D01*
X6263515Y-13128269D02*
X6263515Y-13175888D01*
X6263515Y-13175888D02*
X6253991Y-13194936D01*
X6253991Y-13194936D02*
X6244468Y-13204460D01*
X6244468Y-13204460D02*
X6225420Y-13213984D01*
X6225420Y-13213984D02*
X6168277Y-13213984D01*
X6168277Y-13213984D02*
X6149229Y-13204460D01*
X6149229Y-13204460D02*
X6139706Y-13194936D01*
X6330182Y-13013984D02*
X6453991Y-13013984D01*
X6453991Y-13013984D02*
X6387325Y-13090174D01*
X6387325Y-13090174D02*
X6415896Y-13090174D01*
X6415896Y-13090174D02*
X6434944Y-13099698D01*
X6434944Y-13099698D02*
X6444468Y-13109222D01*
X6444468Y-13109222D02*
X6453991Y-13128269D01*
X6453991Y-13128269D02*
X6453991Y-13175888D01*
X6453991Y-13175888D02*
X6444468Y-13194936D01*
X6444468Y-13194936D02*
X6434944Y-13204460D01*
X6434944Y-13204460D02*
X6415896Y-13213984D01*
X6415896Y-13213984D02*
X6358753Y-13213984D01*
X6358753Y-13213984D02*
X6339706Y-13204460D01*
X6339706Y-13204460D02*
X6330182Y-13194936D01*
X6692087Y-13213984D02*
X6692087Y-13013984D01*
X6777801Y-13213984D02*
X6777801Y-13109222D01*
X6777801Y-13109222D02*
X6768277Y-13090174D01*
X6768277Y-13090174D02*
X6749230Y-13080650D01*
X6749230Y-13080650D02*
X6720658Y-13080650D01*
X6720658Y-13080650D02*
X6701610Y-13090174D01*
X6701610Y-13090174D02*
X6692087Y-13099698D01*
X6901610Y-13213984D02*
X6882563Y-13204460D01*
X6882563Y-13204460D02*
X6873039Y-13194936D01*
X6873039Y-13194936D02*
X6863515Y-13175888D01*
X6863515Y-13175888D02*
X6863515Y-13118746D01*
X6863515Y-13118746D02*
X6873039Y-13099698D01*
X6873039Y-13099698D02*
X6882563Y-13090174D01*
X6882563Y-13090174D02*
X6901610Y-13080650D01*
X6901610Y-13080650D02*
X6930182Y-13080650D01*
X6930182Y-13080650D02*
X6949230Y-13090174D01*
X6949230Y-13090174D02*
X6958753Y-13099698D01*
X6958753Y-13099698D02*
X6968277Y-13118746D01*
X6968277Y-13118746D02*
X6968277Y-13175888D01*
X6968277Y-13175888D02*
X6958753Y-13194936D01*
X6958753Y-13194936D02*
X6949230Y-13204460D01*
X6949230Y-13204460D02*
X6930182Y-13213984D01*
X6930182Y-13213984D02*
X6901610Y-13213984D01*
X7082563Y-13213984D02*
X7063515Y-13204460D01*
X7063515Y-13204460D02*
X7053991Y-13185412D01*
X7053991Y-13185412D02*
X7053991Y-13013984D01*
X7234944Y-13204460D02*
X7215896Y-13213984D01*
X7215896Y-13213984D02*
X7177801Y-13213984D01*
X7177801Y-13213984D02*
X7158753Y-13204460D01*
X7158753Y-13204460D02*
X7149230Y-13185412D01*
X7149230Y-13185412D02*
X7149230Y-13109222D01*
X7149230Y-13109222D02*
X7158753Y-13090174D01*
X7158753Y-13090174D02*
X7177801Y-13080650D01*
X7177801Y-13080650D02*
X7215896Y-13080650D01*
X7215896Y-13080650D02*
X7234944Y-13090174D01*
X7234944Y-13090174D02*
X7244468Y-13109222D01*
X7244468Y-13109222D02*
X7244468Y-13128269D01*
X7244468Y-13128269D02*
X7149230Y-13147317D01*
X7320658Y-13204460D02*
X7339706Y-13213984D01*
X7339706Y-13213984D02*
X7377801Y-13213984D01*
X7377801Y-13213984D02*
X7396849Y-13204460D01*
X7396849Y-13204460D02*
X7406372Y-13185412D01*
X7406372Y-13185412D02*
X7406372Y-13175888D01*
X7406372Y-13175888D02*
X7396849Y-13156841D01*
X7396849Y-13156841D02*
X7377801Y-13147317D01*
X7377801Y-13147317D02*
X7349230Y-13147317D01*
X7349230Y-13147317D02*
X7330182Y-13137793D01*
X7330182Y-13137793D02*
X7320658Y-13118746D01*
X7320658Y-13118746D02*
X7320658Y-13109222D01*
X7320658Y-13109222D02*
X7330182Y-13090174D01*
X7330182Y-13090174D02*
X7349230Y-13080650D01*
X7349230Y-13080650D02*
X7377801Y-13080650D01*
X7377801Y-13080650D02*
X7396849Y-13090174D01*
X7473039Y-13290174D02*
X7482563Y-13280650D01*
X7482563Y-13280650D02*
X7501611Y-13252079D01*
X7501611Y-13252079D02*
X7511134Y-13233031D01*
X7511134Y-13233031D02*
X7520658Y-13204460D01*
X7520658Y-13204460D02*
X7530182Y-13156841D01*
X7530182Y-13156841D02*
X7530182Y-13118746D01*
X7530182Y-13118746D02*
X7520658Y-13071127D01*
X7520658Y-13071127D02*
X7511134Y-13042555D01*
X7511134Y-13042555D02*
X7501611Y-13023508D01*
X7501611Y-13023508D02*
X7482563Y-12994936D01*
X7482563Y-12994936D02*
X7473039Y-12985412D01*
X2307500Y-13286500D02*
X2507500Y-13486500D01*
X2507500Y-13286500D02*
X2307500Y-13486500D01*
X2407500Y-13286500D02*
X2407500Y-13486500D01*
X2307500Y-13386500D02*
X2507500Y-13386500D01*
X2758753Y-13297031D02*
X2768277Y-13287508D01*
X2768277Y-13287508D02*
X2787324Y-13277984D01*
X2787324Y-13277984D02*
X2834943Y-13277984D01*
X2834943Y-13277984D02*
X2853991Y-13287508D01*
X2853991Y-13287508D02*
X2863515Y-13297031D01*
X2863515Y-13297031D02*
X2873039Y-13316079D01*
X2873039Y-13316079D02*
X2873039Y-13335127D01*
X2873039Y-13335127D02*
X2863515Y-13363698D01*
X2863515Y-13363698D02*
X2749229Y-13477984D01*
X2749229Y-13477984D02*
X2873039Y-13477984D01*
X2958753Y-13458936D02*
X2968277Y-13468460D01*
X2968277Y-13468460D02*
X2958753Y-13477984D01*
X2958753Y-13477984D02*
X2949229Y-13468460D01*
X2949229Y-13468460D02*
X2958753Y-13458936D01*
X2958753Y-13458936D02*
X2958753Y-13477984D01*
X3034943Y-13277984D02*
X3158753Y-13277984D01*
X3158753Y-13277984D02*
X3092086Y-13354174D01*
X3092086Y-13354174D02*
X3120658Y-13354174D01*
X3120658Y-13354174D02*
X3139705Y-13363698D01*
X3139705Y-13363698D02*
X3149229Y-13373222D01*
X3149229Y-13373222D02*
X3158753Y-13392269D01*
X3158753Y-13392269D02*
X3158753Y-13439888D01*
X3158753Y-13439888D02*
X3149229Y-13458936D01*
X3149229Y-13458936D02*
X3139705Y-13468460D01*
X3139705Y-13468460D02*
X3120658Y-13477984D01*
X3120658Y-13477984D02*
X3063515Y-13477984D01*
X3063515Y-13477984D02*
X3044467Y-13468460D01*
X3044467Y-13468460D02*
X3034943Y-13458936D01*
X3282562Y-13277984D02*
X3301610Y-13277984D01*
X3301610Y-13277984D02*
X3320658Y-13287508D01*
X3320658Y-13287508D02*
X3330182Y-13297031D01*
X3330182Y-13297031D02*
X3339705Y-13316079D01*
X3339705Y-13316079D02*
X3349229Y-13354174D01*
X3349229Y-13354174D02*
X3349229Y-13401793D01*
X3349229Y-13401793D02*
X3339705Y-13439888D01*
X3339705Y-13439888D02*
X3330182Y-13458936D01*
X3330182Y-13458936D02*
X3320658Y-13468460D01*
X3320658Y-13468460D02*
X3301610Y-13477984D01*
X3301610Y-13477984D02*
X3282562Y-13477984D01*
X3282562Y-13477984D02*
X3263515Y-13468460D01*
X3263515Y-13468460D02*
X3253991Y-13458936D01*
X3253991Y-13458936D02*
X3244467Y-13439888D01*
X3244467Y-13439888D02*
X3234943Y-13401793D01*
X3234943Y-13401793D02*
X3234943Y-13354174D01*
X3234943Y-13354174D02*
X3244467Y-13316079D01*
X3244467Y-13316079D02*
X3253991Y-13297031D01*
X3253991Y-13297031D02*
X3263515Y-13287508D01*
X3263515Y-13287508D02*
X3282562Y-13277984D01*
X3473039Y-13277984D02*
X3492086Y-13277984D01*
X3492086Y-13277984D02*
X3511134Y-13287508D01*
X3511134Y-13287508D02*
X3520658Y-13297031D01*
X3520658Y-13297031D02*
X3530182Y-13316079D01*
X3530182Y-13316079D02*
X3539705Y-13354174D01*
X3539705Y-13354174D02*
X3539705Y-13401793D01*
X3539705Y-13401793D02*
X3530182Y-13439888D01*
X3530182Y-13439888D02*
X3520658Y-13458936D01*
X3520658Y-13458936D02*
X3511134Y-13468460D01*
X3511134Y-13468460D02*
X3492086Y-13477984D01*
X3492086Y-13477984D02*
X3473039Y-13477984D01*
X3473039Y-13477984D02*
X3453991Y-13468460D01*
X3453991Y-13468460D02*
X3444467Y-13458936D01*
X3444467Y-13458936D02*
X3434943Y-13439888D01*
X3434943Y-13439888D02*
X3425420Y-13401793D01*
X3425420Y-13401793D02*
X3425420Y-13354174D01*
X3425420Y-13354174D02*
X3434943Y-13316079D01*
X3434943Y-13316079D02*
X3444467Y-13297031D01*
X3444467Y-13297031D02*
X3453991Y-13287508D01*
X3453991Y-13287508D02*
X3473039Y-13277984D01*
X3625420Y-13477984D02*
X3625420Y-13344650D01*
X3625420Y-13363698D02*
X3634943Y-13354174D01*
X3634943Y-13354174D02*
X3653991Y-13344650D01*
X3653991Y-13344650D02*
X3682563Y-13344650D01*
X3682563Y-13344650D02*
X3701610Y-13354174D01*
X3701610Y-13354174D02*
X3711134Y-13373222D01*
X3711134Y-13373222D02*
X3711134Y-13477984D01*
X3711134Y-13373222D02*
X3720658Y-13354174D01*
X3720658Y-13354174D02*
X3739705Y-13344650D01*
X3739705Y-13344650D02*
X3768277Y-13344650D01*
X3768277Y-13344650D02*
X3787324Y-13354174D01*
X3787324Y-13354174D02*
X3796848Y-13373222D01*
X3796848Y-13373222D02*
X3796848Y-13477984D01*
X3892086Y-13477984D02*
X3892086Y-13344650D01*
X3892086Y-13363698D02*
X3901610Y-13354174D01*
X3901610Y-13354174D02*
X3920658Y-13344650D01*
X3920658Y-13344650D02*
X3949229Y-13344650D01*
X3949229Y-13344650D02*
X3968277Y-13354174D01*
X3968277Y-13354174D02*
X3977801Y-13373222D01*
X3977801Y-13373222D02*
X3977801Y-13477984D01*
X3977801Y-13373222D02*
X3987324Y-13354174D01*
X3987324Y-13354174D02*
X4006372Y-13344650D01*
X4006372Y-13344650D02*
X4034943Y-13344650D01*
X4034943Y-13344650D02*
X4053991Y-13354174D01*
X4053991Y-13354174D02*
X4063515Y-13373222D01*
X4063515Y-13373222D02*
X4063515Y-13477984D01*
X4453991Y-13268460D02*
X4282563Y-13525603D01*
X4711134Y-13277984D02*
X4730182Y-13277984D01*
X4730182Y-13277984D02*
X4749229Y-13287508D01*
X4749229Y-13287508D02*
X4758753Y-13297031D01*
X4758753Y-13297031D02*
X4768277Y-13316079D01*
X4768277Y-13316079D02*
X4777801Y-13354174D01*
X4777801Y-13354174D02*
X4777801Y-13401793D01*
X4777801Y-13401793D02*
X4768277Y-13439888D01*
X4768277Y-13439888D02*
X4758753Y-13458936D01*
X4758753Y-13458936D02*
X4749229Y-13468460D01*
X4749229Y-13468460D02*
X4730182Y-13477984D01*
X4730182Y-13477984D02*
X4711134Y-13477984D01*
X4711134Y-13477984D02*
X4692087Y-13468460D01*
X4692087Y-13468460D02*
X4682563Y-13458936D01*
X4682563Y-13458936D02*
X4673039Y-13439888D01*
X4673039Y-13439888D02*
X4663515Y-13401793D01*
X4663515Y-13401793D02*
X4663515Y-13354174D01*
X4663515Y-13354174D02*
X4673039Y-13316079D01*
X4673039Y-13316079D02*
X4682563Y-13297031D01*
X4682563Y-13297031D02*
X4692087Y-13287508D01*
X4692087Y-13287508D02*
X4711134Y-13277984D01*
X4863515Y-13458936D02*
X4873039Y-13468460D01*
X4873039Y-13468460D02*
X4863515Y-13477984D01*
X4863515Y-13477984D02*
X4853991Y-13468460D01*
X4853991Y-13468460D02*
X4863515Y-13458936D01*
X4863515Y-13458936D02*
X4863515Y-13477984D01*
X4996848Y-13277984D02*
X5015896Y-13277984D01*
X5015896Y-13277984D02*
X5034944Y-13287508D01*
X5034944Y-13287508D02*
X5044468Y-13297031D01*
X5044468Y-13297031D02*
X5053991Y-13316079D01*
X5053991Y-13316079D02*
X5063515Y-13354174D01*
X5063515Y-13354174D02*
X5063515Y-13401793D01*
X5063515Y-13401793D02*
X5053991Y-13439888D01*
X5053991Y-13439888D02*
X5044468Y-13458936D01*
X5044468Y-13458936D02*
X5034944Y-13468460D01*
X5034944Y-13468460D02*
X5015896Y-13477984D01*
X5015896Y-13477984D02*
X4996848Y-13477984D01*
X4996848Y-13477984D02*
X4977801Y-13468460D01*
X4977801Y-13468460D02*
X4968277Y-13458936D01*
X4968277Y-13458936D02*
X4958753Y-13439888D01*
X4958753Y-13439888D02*
X4949229Y-13401793D01*
X4949229Y-13401793D02*
X4949229Y-13354174D01*
X4949229Y-13354174D02*
X4958753Y-13316079D01*
X4958753Y-13316079D02*
X4968277Y-13297031D01*
X4968277Y-13297031D02*
X4977801Y-13287508D01*
X4977801Y-13287508D02*
X4996848Y-13277984D01*
X5158753Y-13477984D02*
X5196848Y-13477984D01*
X5196848Y-13477984D02*
X5215896Y-13468460D01*
X5215896Y-13468460D02*
X5225420Y-13458936D01*
X5225420Y-13458936D02*
X5244468Y-13430365D01*
X5244468Y-13430365D02*
X5253991Y-13392269D01*
X5253991Y-13392269D02*
X5253991Y-13316079D01*
X5253991Y-13316079D02*
X5244468Y-13297031D01*
X5244468Y-13297031D02*
X5234944Y-13287508D01*
X5234944Y-13287508D02*
X5215896Y-13277984D01*
X5215896Y-13277984D02*
X5177801Y-13277984D01*
X5177801Y-13277984D02*
X5158753Y-13287508D01*
X5158753Y-13287508D02*
X5149229Y-13297031D01*
X5149229Y-13297031D02*
X5139706Y-13316079D01*
X5139706Y-13316079D02*
X5139706Y-13363698D01*
X5139706Y-13363698D02*
X5149229Y-13382746D01*
X5149229Y-13382746D02*
X5158753Y-13392269D01*
X5158753Y-13392269D02*
X5177801Y-13401793D01*
X5177801Y-13401793D02*
X5215896Y-13401793D01*
X5215896Y-13401793D02*
X5234944Y-13392269D01*
X5234944Y-13392269D02*
X5244468Y-13382746D01*
X5244468Y-13382746D02*
X5253991Y-13363698D01*
X5377801Y-13277984D02*
X5396849Y-13277984D01*
X5396849Y-13277984D02*
X5415896Y-13287508D01*
X5415896Y-13287508D02*
X5425420Y-13297031D01*
X5425420Y-13297031D02*
X5434944Y-13316079D01*
X5434944Y-13316079D02*
X5444468Y-13354174D01*
X5444468Y-13354174D02*
X5444468Y-13401793D01*
X5444468Y-13401793D02*
X5434944Y-13439888D01*
X5434944Y-13439888D02*
X5425420Y-13458936D01*
X5425420Y-13458936D02*
X5415896Y-13468460D01*
X5415896Y-13468460D02*
X5396849Y-13477984D01*
X5396849Y-13477984D02*
X5377801Y-13477984D01*
X5377801Y-13477984D02*
X5358753Y-13468460D01*
X5358753Y-13468460D02*
X5349229Y-13458936D01*
X5349229Y-13458936D02*
X5339706Y-13439888D01*
X5339706Y-13439888D02*
X5330182Y-13401793D01*
X5330182Y-13401793D02*
X5330182Y-13354174D01*
X5330182Y-13354174D02*
X5339706Y-13316079D01*
X5339706Y-13316079D02*
X5349229Y-13297031D01*
X5349229Y-13297031D02*
X5358753Y-13287508D01*
X5358753Y-13287508D02*
X5377801Y-13277984D01*
X5615896Y-13277984D02*
X5577801Y-13277984D01*
X5577801Y-13277984D02*
X5558753Y-13287508D01*
X5558753Y-13287508D02*
X5549229Y-13297031D01*
X5549229Y-13297031D02*
X5530182Y-13325603D01*
X5530182Y-13325603D02*
X5520658Y-13363698D01*
X5520658Y-13363698D02*
X5520658Y-13439888D01*
X5520658Y-13439888D02*
X5530182Y-13458936D01*
X5530182Y-13458936D02*
X5539706Y-13468460D01*
X5539706Y-13468460D02*
X5558753Y-13477984D01*
X5558753Y-13477984D02*
X5596848Y-13477984D01*
X5596848Y-13477984D02*
X5615896Y-13468460D01*
X5615896Y-13468460D02*
X5625420Y-13458936D01*
X5625420Y-13458936D02*
X5634944Y-13439888D01*
X5634944Y-13439888D02*
X5634944Y-13392269D01*
X5634944Y-13392269D02*
X5625420Y-13373222D01*
X5625420Y-13373222D02*
X5615896Y-13363698D01*
X5615896Y-13363698D02*
X5596848Y-13354174D01*
X5596848Y-13354174D02*
X5558753Y-13354174D01*
X5558753Y-13354174D02*
X5539706Y-13363698D01*
X5539706Y-13363698D02*
X5530182Y-13373222D01*
X5530182Y-13373222D02*
X5520658Y-13392269D01*
X5711134Y-13277984D02*
X5711134Y-13316079D01*
X5787325Y-13277984D02*
X5787325Y-13316079D01*
X6082563Y-13554174D02*
X6073039Y-13544650D01*
X6073039Y-13544650D02*
X6053991Y-13516079D01*
X6053991Y-13516079D02*
X6044468Y-13497031D01*
X6044468Y-13497031D02*
X6034944Y-13468460D01*
X6034944Y-13468460D02*
X6025420Y-13420841D01*
X6025420Y-13420841D02*
X6025420Y-13382746D01*
X6025420Y-13382746D02*
X6034944Y-13335127D01*
X6034944Y-13335127D02*
X6044468Y-13306555D01*
X6044468Y-13306555D02*
X6053991Y-13287508D01*
X6053991Y-13287508D02*
X6073039Y-13258936D01*
X6073039Y-13258936D02*
X6082563Y-13249412D01*
X6149229Y-13297031D02*
X6158753Y-13287508D01*
X6158753Y-13287508D02*
X6177801Y-13277984D01*
X6177801Y-13277984D02*
X6225420Y-13277984D01*
X6225420Y-13277984D02*
X6244468Y-13287508D01*
X6244468Y-13287508D02*
X6253991Y-13297031D01*
X6253991Y-13297031D02*
X6263515Y-13316079D01*
X6263515Y-13316079D02*
X6263515Y-13335127D01*
X6263515Y-13335127D02*
X6253991Y-13363698D01*
X6253991Y-13363698D02*
X6139706Y-13477984D01*
X6139706Y-13477984D02*
X6263515Y-13477984D01*
X6501610Y-13477984D02*
X6501610Y-13277984D01*
X6587325Y-13477984D02*
X6587325Y-13373222D01*
X6587325Y-13373222D02*
X6577801Y-13354174D01*
X6577801Y-13354174D02*
X6558753Y-13344650D01*
X6558753Y-13344650D02*
X6530182Y-13344650D01*
X6530182Y-13344650D02*
X6511134Y-13354174D01*
X6511134Y-13354174D02*
X6501610Y-13363698D01*
X6711134Y-13477984D02*
X6692087Y-13468460D01*
X6692087Y-13468460D02*
X6682563Y-13458936D01*
X6682563Y-13458936D02*
X6673039Y-13439888D01*
X6673039Y-13439888D02*
X6673039Y-13382746D01*
X6673039Y-13382746D02*
X6682563Y-13363698D01*
X6682563Y-13363698D02*
X6692087Y-13354174D01*
X6692087Y-13354174D02*
X6711134Y-13344650D01*
X6711134Y-13344650D02*
X6739706Y-13344650D01*
X6739706Y-13344650D02*
X6758753Y-13354174D01*
X6758753Y-13354174D02*
X6768277Y-13363698D01*
X6768277Y-13363698D02*
X6777801Y-13382746D01*
X6777801Y-13382746D02*
X6777801Y-13439888D01*
X6777801Y-13439888D02*
X6768277Y-13458936D01*
X6768277Y-13458936D02*
X6758753Y-13468460D01*
X6758753Y-13468460D02*
X6739706Y-13477984D01*
X6739706Y-13477984D02*
X6711134Y-13477984D01*
X6892087Y-13477984D02*
X6873039Y-13468460D01*
X6873039Y-13468460D02*
X6863515Y-13449412D01*
X6863515Y-13449412D02*
X6863515Y-13277984D01*
X7044468Y-13468460D02*
X7025420Y-13477984D01*
X7025420Y-13477984D02*
X6987325Y-13477984D01*
X6987325Y-13477984D02*
X6968277Y-13468460D01*
X6968277Y-13468460D02*
X6958753Y-13449412D01*
X6958753Y-13449412D02*
X6958753Y-13373222D01*
X6958753Y-13373222D02*
X6968277Y-13354174D01*
X6968277Y-13354174D02*
X6987325Y-13344650D01*
X6987325Y-13344650D02*
X7025420Y-13344650D01*
X7025420Y-13344650D02*
X7044468Y-13354174D01*
X7044468Y-13354174D02*
X7053991Y-13373222D01*
X7053991Y-13373222D02*
X7053991Y-13392269D01*
X7053991Y-13392269D02*
X6958753Y-13411317D01*
X7130182Y-13468460D02*
X7149230Y-13477984D01*
X7149230Y-13477984D02*
X7187325Y-13477984D01*
X7187325Y-13477984D02*
X7206372Y-13468460D01*
X7206372Y-13468460D02*
X7215896Y-13449412D01*
X7215896Y-13449412D02*
X7215896Y-13439888D01*
X7215896Y-13439888D02*
X7206372Y-13420841D01*
X7206372Y-13420841D02*
X7187325Y-13411317D01*
X7187325Y-13411317D02*
X7158753Y-13411317D01*
X7158753Y-13411317D02*
X7139706Y-13401793D01*
X7139706Y-13401793D02*
X7130182Y-13382746D01*
X7130182Y-13382746D02*
X7130182Y-13373222D01*
X7130182Y-13373222D02*
X7139706Y-13354174D01*
X7139706Y-13354174D02*
X7158753Y-13344650D01*
X7158753Y-13344650D02*
X7187325Y-13344650D01*
X7187325Y-13344650D02*
X7206372Y-13354174D01*
X7282563Y-13554174D02*
X7292087Y-13544650D01*
X7292087Y-13544650D02*
X7311134Y-13516079D01*
X7311134Y-13516079D02*
X7320658Y-13497031D01*
X7320658Y-13497031D02*
X7330182Y-13468460D01*
X7330182Y-13468460D02*
X7339706Y-13420841D01*
X7339706Y-13420841D02*
X7339706Y-13382746D01*
X7339706Y-13382746D02*
X7330182Y-13335127D01*
X7330182Y-13335127D02*
X7320658Y-13306555D01*
X7320658Y-13306555D02*
X7311134Y-13287508D01*
X7311134Y-13287508D02*
X7292087Y-13258936D01*
X7292087Y-13258936D02*
X7282563Y-13249412D01*
X2307500Y-13606500D02*
X2507500Y-13806500D01*
X2507500Y-13606500D02*
X2307500Y-13806500D01*
X2478211Y-13777211D02*
X2478211Y-13635789D01*
X2336789Y-13635789D01*
X2336789Y-13777211D01*
X2478211Y-13777211D01*
X2749229Y-13597984D02*
X2873039Y-13597984D01*
X2873039Y-13597984D02*
X2806372Y-13674174D01*
X2806372Y-13674174D02*
X2834943Y-13674174D01*
X2834943Y-13674174D02*
X2853991Y-13683698D01*
X2853991Y-13683698D02*
X2863515Y-13693222D01*
X2863515Y-13693222D02*
X2873039Y-13712269D01*
X2873039Y-13712269D02*
X2873039Y-13759888D01*
X2873039Y-13759888D02*
X2863515Y-13778936D01*
X2863515Y-13778936D02*
X2853991Y-13788460D01*
X2853991Y-13788460D02*
X2834943Y-13797984D01*
X2834943Y-13797984D02*
X2777801Y-13797984D01*
X2777801Y-13797984D02*
X2758753Y-13788460D01*
X2758753Y-13788460D02*
X2749229Y-13778936D01*
X2958753Y-13778936D02*
X2968277Y-13788460D01*
X2968277Y-13788460D02*
X2958753Y-13797984D01*
X2958753Y-13797984D02*
X2949229Y-13788460D01*
X2949229Y-13788460D02*
X2958753Y-13778936D01*
X2958753Y-13778936D02*
X2958753Y-13797984D01*
X3044467Y-13617031D02*
X3053991Y-13607508D01*
X3053991Y-13607508D02*
X3073039Y-13597984D01*
X3073039Y-13597984D02*
X3120658Y-13597984D01*
X3120658Y-13597984D02*
X3139705Y-13607508D01*
X3139705Y-13607508D02*
X3149229Y-13617031D01*
X3149229Y-13617031D02*
X3158753Y-13636079D01*
X3158753Y-13636079D02*
X3158753Y-13655127D01*
X3158753Y-13655127D02*
X3149229Y-13683698D01*
X3149229Y-13683698D02*
X3034943Y-13797984D01*
X3034943Y-13797984D02*
X3158753Y-13797984D01*
X3339705Y-13597984D02*
X3244467Y-13597984D01*
X3244467Y-13597984D02*
X3234943Y-13693222D01*
X3234943Y-13693222D02*
X3244467Y-13683698D01*
X3244467Y-13683698D02*
X3263515Y-13674174D01*
X3263515Y-13674174D02*
X3311134Y-13674174D01*
X3311134Y-13674174D02*
X3330182Y-13683698D01*
X3330182Y-13683698D02*
X3339705Y-13693222D01*
X3339705Y-13693222D02*
X3349229Y-13712269D01*
X3349229Y-13712269D02*
X3349229Y-13759888D01*
X3349229Y-13759888D02*
X3339705Y-13778936D01*
X3339705Y-13778936D02*
X3330182Y-13788460D01*
X3330182Y-13788460D02*
X3311134Y-13797984D01*
X3311134Y-13797984D02*
X3263515Y-13797984D01*
X3263515Y-13797984D02*
X3244467Y-13788460D01*
X3244467Y-13788460D02*
X3234943Y-13778936D01*
X3539705Y-13797984D02*
X3425420Y-13797984D01*
X3482562Y-13797984D02*
X3482562Y-13597984D01*
X3482562Y-13597984D02*
X3463515Y-13626555D01*
X3463515Y-13626555D02*
X3444467Y-13645603D01*
X3444467Y-13645603D02*
X3425420Y-13655127D01*
X3625420Y-13797984D02*
X3625420Y-13664650D01*
X3625420Y-13683698D02*
X3634943Y-13674174D01*
X3634943Y-13674174D02*
X3653991Y-13664650D01*
X3653991Y-13664650D02*
X3682563Y-13664650D01*
X3682563Y-13664650D02*
X3701610Y-13674174D01*
X3701610Y-13674174D02*
X3711134Y-13693222D01*
X3711134Y-13693222D02*
X3711134Y-13797984D01*
X3711134Y-13693222D02*
X3720658Y-13674174D01*
X3720658Y-13674174D02*
X3739705Y-13664650D01*
X3739705Y-13664650D02*
X3768277Y-13664650D01*
X3768277Y-13664650D02*
X3787324Y-13674174D01*
X3787324Y-13674174D02*
X3796848Y-13693222D01*
X3796848Y-13693222D02*
X3796848Y-13797984D01*
X3892086Y-13797984D02*
X3892086Y-13664650D01*
X3892086Y-13683698D02*
X3901610Y-13674174D01*
X3901610Y-13674174D02*
X3920658Y-13664650D01*
X3920658Y-13664650D02*
X3949229Y-13664650D01*
X3949229Y-13664650D02*
X3968277Y-13674174D01*
X3968277Y-13674174D02*
X3977801Y-13693222D01*
X3977801Y-13693222D02*
X3977801Y-13797984D01*
X3977801Y-13693222D02*
X3987324Y-13674174D01*
X3987324Y-13674174D02*
X4006372Y-13664650D01*
X4006372Y-13664650D02*
X4034943Y-13664650D01*
X4034943Y-13664650D02*
X4053991Y-13674174D01*
X4053991Y-13674174D02*
X4063515Y-13693222D01*
X4063515Y-13693222D02*
X4063515Y-13797984D01*
X4453991Y-13588460D02*
X4282563Y-13845603D01*
X4711134Y-13597984D02*
X4730182Y-13597984D01*
X4730182Y-13597984D02*
X4749229Y-13607508D01*
X4749229Y-13607508D02*
X4758753Y-13617031D01*
X4758753Y-13617031D02*
X4768277Y-13636079D01*
X4768277Y-13636079D02*
X4777801Y-13674174D01*
X4777801Y-13674174D02*
X4777801Y-13721793D01*
X4777801Y-13721793D02*
X4768277Y-13759888D01*
X4768277Y-13759888D02*
X4758753Y-13778936D01*
X4758753Y-13778936D02*
X4749229Y-13788460D01*
X4749229Y-13788460D02*
X4730182Y-13797984D01*
X4730182Y-13797984D02*
X4711134Y-13797984D01*
X4711134Y-13797984D02*
X4692087Y-13788460D01*
X4692087Y-13788460D02*
X4682563Y-13778936D01*
X4682563Y-13778936D02*
X4673039Y-13759888D01*
X4673039Y-13759888D02*
X4663515Y-13721793D01*
X4663515Y-13721793D02*
X4663515Y-13674174D01*
X4663515Y-13674174D02*
X4673039Y-13636079D01*
X4673039Y-13636079D02*
X4682563Y-13617031D01*
X4682563Y-13617031D02*
X4692087Y-13607508D01*
X4692087Y-13607508D02*
X4711134Y-13597984D01*
X4863515Y-13778936D02*
X4873039Y-13788460D01*
X4873039Y-13788460D02*
X4863515Y-13797984D01*
X4863515Y-13797984D02*
X4853991Y-13788460D01*
X4853991Y-13788460D02*
X4863515Y-13778936D01*
X4863515Y-13778936D02*
X4863515Y-13797984D01*
X5063515Y-13797984D02*
X4949229Y-13797984D01*
X5006372Y-13797984D02*
X5006372Y-13597984D01*
X5006372Y-13597984D02*
X4987325Y-13626555D01*
X4987325Y-13626555D02*
X4968277Y-13645603D01*
X4968277Y-13645603D02*
X4949229Y-13655127D01*
X5139706Y-13617031D02*
X5149229Y-13607508D01*
X5149229Y-13607508D02*
X5168277Y-13597984D01*
X5168277Y-13597984D02*
X5215896Y-13597984D01*
X5215896Y-13597984D02*
X5234944Y-13607508D01*
X5234944Y-13607508D02*
X5244468Y-13617031D01*
X5244468Y-13617031D02*
X5253991Y-13636079D01*
X5253991Y-13636079D02*
X5253991Y-13655127D01*
X5253991Y-13655127D02*
X5244468Y-13683698D01*
X5244468Y-13683698D02*
X5130182Y-13797984D01*
X5130182Y-13797984D02*
X5253991Y-13797984D01*
X5368277Y-13683698D02*
X5349229Y-13674174D01*
X5349229Y-13674174D02*
X5339706Y-13664650D01*
X5339706Y-13664650D02*
X5330182Y-13645603D01*
X5330182Y-13645603D02*
X5330182Y-13636079D01*
X5330182Y-13636079D02*
X5339706Y-13617031D01*
X5339706Y-13617031D02*
X5349229Y-13607508D01*
X5349229Y-13607508D02*
X5368277Y-13597984D01*
X5368277Y-13597984D02*
X5406372Y-13597984D01*
X5406372Y-13597984D02*
X5425420Y-13607508D01*
X5425420Y-13607508D02*
X5434944Y-13617031D01*
X5434944Y-13617031D02*
X5444468Y-13636079D01*
X5444468Y-13636079D02*
X5444468Y-13645603D01*
X5444468Y-13645603D02*
X5434944Y-13664650D01*
X5434944Y-13664650D02*
X5425420Y-13674174D01*
X5425420Y-13674174D02*
X5406372Y-13683698D01*
X5406372Y-13683698D02*
X5368277Y-13683698D01*
X5368277Y-13683698D02*
X5349229Y-13693222D01*
X5349229Y-13693222D02*
X5339706Y-13702746D01*
X5339706Y-13702746D02*
X5330182Y-13721793D01*
X5330182Y-13721793D02*
X5330182Y-13759888D01*
X5330182Y-13759888D02*
X5339706Y-13778936D01*
X5339706Y-13778936D02*
X5349229Y-13788460D01*
X5349229Y-13788460D02*
X5368277Y-13797984D01*
X5368277Y-13797984D02*
X5406372Y-13797984D01*
X5406372Y-13797984D02*
X5425420Y-13788460D01*
X5425420Y-13788460D02*
X5434944Y-13778936D01*
X5434944Y-13778936D02*
X5444468Y-13759888D01*
X5444468Y-13759888D02*
X5444468Y-13721793D01*
X5444468Y-13721793D02*
X5434944Y-13702746D01*
X5434944Y-13702746D02*
X5425420Y-13693222D01*
X5425420Y-13693222D02*
X5406372Y-13683698D01*
X5568277Y-13597984D02*
X5587325Y-13597984D01*
X5587325Y-13597984D02*
X5606372Y-13607508D01*
X5606372Y-13607508D02*
X5615896Y-13617031D01*
X5615896Y-13617031D02*
X5625420Y-13636079D01*
X5625420Y-13636079D02*
X5634944Y-13674174D01*
X5634944Y-13674174D02*
X5634944Y-13721793D01*
X5634944Y-13721793D02*
X5625420Y-13759888D01*
X5625420Y-13759888D02*
X5615896Y-13778936D01*
X5615896Y-13778936D02*
X5606372Y-13788460D01*
X5606372Y-13788460D02*
X5587325Y-13797984D01*
X5587325Y-13797984D02*
X5568277Y-13797984D01*
X5568277Y-13797984D02*
X5549229Y-13788460D01*
X5549229Y-13788460D02*
X5539706Y-13778936D01*
X5539706Y-13778936D02*
X5530182Y-13759888D01*
X5530182Y-13759888D02*
X5520658Y-13721793D01*
X5520658Y-13721793D02*
X5520658Y-13674174D01*
X5520658Y-13674174D02*
X5530182Y-13636079D01*
X5530182Y-13636079D02*
X5539706Y-13617031D01*
X5539706Y-13617031D02*
X5549229Y-13607508D01*
X5549229Y-13607508D02*
X5568277Y-13597984D01*
X5711134Y-13597984D02*
X5711134Y-13636079D01*
X5787325Y-13597984D02*
X5787325Y-13636079D01*
X6082563Y-13874174D02*
X6073039Y-13864650D01*
X6073039Y-13864650D02*
X6053991Y-13836079D01*
X6053991Y-13836079D02*
X6044468Y-13817031D01*
X6044468Y-13817031D02*
X6034944Y-13788460D01*
X6034944Y-13788460D02*
X6025420Y-13740841D01*
X6025420Y-13740841D02*
X6025420Y-13702746D01*
X6025420Y-13702746D02*
X6034944Y-13655127D01*
X6034944Y-13655127D02*
X6044468Y-13626555D01*
X6044468Y-13626555D02*
X6053991Y-13607508D01*
X6053991Y-13607508D02*
X6073039Y-13578936D01*
X6073039Y-13578936D02*
X6082563Y-13569412D01*
X6244468Y-13664650D02*
X6244468Y-13797984D01*
X6196848Y-13588460D02*
X6149229Y-13731317D01*
X6149229Y-13731317D02*
X6273039Y-13731317D01*
X6501610Y-13797984D02*
X6501610Y-13597984D01*
X6587325Y-13797984D02*
X6587325Y-13693222D01*
X6587325Y-13693222D02*
X6577801Y-13674174D01*
X6577801Y-13674174D02*
X6558753Y-13664650D01*
X6558753Y-13664650D02*
X6530182Y-13664650D01*
X6530182Y-13664650D02*
X6511134Y-13674174D01*
X6511134Y-13674174D02*
X6501610Y-13683698D01*
X6711134Y-13797984D02*
X6692087Y-13788460D01*
X6692087Y-13788460D02*
X6682563Y-13778936D01*
X6682563Y-13778936D02*
X6673039Y-13759888D01*
X6673039Y-13759888D02*
X6673039Y-13702746D01*
X6673039Y-13702746D02*
X6682563Y-13683698D01*
X6682563Y-13683698D02*
X6692087Y-13674174D01*
X6692087Y-13674174D02*
X6711134Y-13664650D01*
X6711134Y-13664650D02*
X6739706Y-13664650D01*
X6739706Y-13664650D02*
X6758753Y-13674174D01*
X6758753Y-13674174D02*
X6768277Y-13683698D01*
X6768277Y-13683698D02*
X6777801Y-13702746D01*
X6777801Y-13702746D02*
X6777801Y-13759888D01*
X6777801Y-13759888D02*
X6768277Y-13778936D01*
X6768277Y-13778936D02*
X6758753Y-13788460D01*
X6758753Y-13788460D02*
X6739706Y-13797984D01*
X6739706Y-13797984D02*
X6711134Y-13797984D01*
X6892087Y-13797984D02*
X6873039Y-13788460D01*
X6873039Y-13788460D02*
X6863515Y-13769412D01*
X6863515Y-13769412D02*
X6863515Y-13597984D01*
X7044468Y-13788460D02*
X7025420Y-13797984D01*
X7025420Y-13797984D02*
X6987325Y-13797984D01*
X6987325Y-13797984D02*
X6968277Y-13788460D01*
X6968277Y-13788460D02*
X6958753Y-13769412D01*
X6958753Y-13769412D02*
X6958753Y-13693222D01*
X6958753Y-13693222D02*
X6968277Y-13674174D01*
X6968277Y-13674174D02*
X6987325Y-13664650D01*
X6987325Y-13664650D02*
X7025420Y-13664650D01*
X7025420Y-13664650D02*
X7044468Y-13674174D01*
X7044468Y-13674174D02*
X7053991Y-13693222D01*
X7053991Y-13693222D02*
X7053991Y-13712269D01*
X7053991Y-13712269D02*
X6958753Y-13731317D01*
X7130182Y-13788460D02*
X7149230Y-13797984D01*
X7149230Y-13797984D02*
X7187325Y-13797984D01*
X7187325Y-13797984D02*
X7206372Y-13788460D01*
X7206372Y-13788460D02*
X7215896Y-13769412D01*
X7215896Y-13769412D02*
X7215896Y-13759888D01*
X7215896Y-13759888D02*
X7206372Y-13740841D01*
X7206372Y-13740841D02*
X7187325Y-13731317D01*
X7187325Y-13731317D02*
X7158753Y-13731317D01*
X7158753Y-13731317D02*
X7139706Y-13721793D01*
X7139706Y-13721793D02*
X7130182Y-13702746D01*
X7130182Y-13702746D02*
X7130182Y-13693222D01*
X7130182Y-13693222D02*
X7139706Y-13674174D01*
X7139706Y-13674174D02*
X7158753Y-13664650D01*
X7158753Y-13664650D02*
X7187325Y-13664650D01*
X7187325Y-13664650D02*
X7206372Y-13674174D01*
X7282563Y-13874174D02*
X7292087Y-13864650D01*
X7292087Y-13864650D02*
X7311134Y-13836079D01*
X7311134Y-13836079D02*
X7320658Y-13817031D01*
X7320658Y-13817031D02*
X7330182Y-13788460D01*
X7330182Y-13788460D02*
X7339706Y-13740841D01*
X7339706Y-13740841D02*
X7339706Y-13702746D01*
X7339706Y-13702746D02*
X7330182Y-13655127D01*
X7330182Y-13655127D02*
X7320658Y-13626555D01*
X7320658Y-13626555D02*
X7311134Y-13607508D01*
X7311134Y-13607508D02*
X7292087Y-13578936D01*
X7292087Y-13578936D02*
X7282563Y-13569412D01*
M02*
