%TF.GenerationSoftware,KiCad,Pcbnew,8.0.8*%
%TF.CreationDate,2025-02-08T12:51:19+01:00*%
%TF.ProjectId,Overlord,4f766572-6c6f-4726-942e-6b696361645f,rev?*%
%TF.SameCoordinates,Original*%
%TF.FileFunction,Drillmap*%
%TF.FilePolarity,Positive*%
%FSLAX45Y45*%
G04 Gerber Fmt 4.5, Leading zero omitted, Abs format (unit mm)*
G04 Created by KiCad (PCBNEW 8.0.8) date 2025-02-08 12:51:19*
%MOMM*%
%LPD*%
G01*
G04 APERTURE LIST*
%ADD10C,0.050000*%
%ADD11C,0.200000*%
%ADD12C,0.150000*%
%ADD13C,0.350000*%
G04 APERTURE END LIST*
D10*
X2540000Y-11150000D02*
X2540000Y-2540000D01*
X2540000Y-2540000D02*
X18050000Y-2540000D01*
X18050000Y-2540000D02*
X18050000Y-11150000D01*
X18050000Y-11150000D02*
X2540000Y-11150000D01*
D11*
D12*
X15765000Y-8743000D02*
X15915000Y-8893000D01*
X15915000Y-8743000D02*
X15765000Y-8893000D01*
X17522000Y-8743000D02*
X17672000Y-8893000D01*
X17672000Y-8743000D02*
X17522000Y-8893000D01*
D13*
X3571000Y-9345000D02*
G75*
G02*
X3221000Y-9345000I-175000J0D01*
G01*
X3221000Y-9345000D02*
G75*
G02*
X3571000Y-9345000I175000J0D01*
G01*
X17371000Y-4345000D02*
G75*
G02*
X17021000Y-4345000I-175000J0D01*
G01*
X17021000Y-4345000D02*
G75*
G02*
X17371000Y-4345000I175000J0D01*
G01*
D11*
X2798277Y-11463984D02*
X2798277Y-11263984D01*
X2798277Y-11263984D02*
X2845896Y-11263984D01*
X2845896Y-11263984D02*
X2874467Y-11273508D01*
X2874467Y-11273508D02*
X2893515Y-11292555D01*
X2893515Y-11292555D02*
X2903039Y-11311603D01*
X2903039Y-11311603D02*
X2912562Y-11349698D01*
X2912562Y-11349698D02*
X2912562Y-11378269D01*
X2912562Y-11378269D02*
X2903039Y-11416365D01*
X2903039Y-11416365D02*
X2893515Y-11435412D01*
X2893515Y-11435412D02*
X2874467Y-11454460D01*
X2874467Y-11454460D02*
X2845896Y-11463984D01*
X2845896Y-11463984D02*
X2798277Y-11463984D01*
X2998277Y-11463984D02*
X2998277Y-11330650D01*
X2998277Y-11368746D02*
X3007801Y-11349698D01*
X3007801Y-11349698D02*
X3017324Y-11340174D01*
X3017324Y-11340174D02*
X3036372Y-11330650D01*
X3036372Y-11330650D02*
X3055420Y-11330650D01*
X3122086Y-11463984D02*
X3122086Y-11330650D01*
X3122086Y-11263984D02*
X3112562Y-11273508D01*
X3112562Y-11273508D02*
X3122086Y-11283031D01*
X3122086Y-11283031D02*
X3131610Y-11273508D01*
X3131610Y-11273508D02*
X3122086Y-11263984D01*
X3122086Y-11263984D02*
X3122086Y-11283031D01*
X3245896Y-11463984D02*
X3226848Y-11454460D01*
X3226848Y-11454460D02*
X3217324Y-11435412D01*
X3217324Y-11435412D02*
X3217324Y-11263984D01*
X3350658Y-11463984D02*
X3331610Y-11454460D01*
X3331610Y-11454460D02*
X3322086Y-11435412D01*
X3322086Y-11435412D02*
X3322086Y-11263984D01*
X3579229Y-11463984D02*
X3579229Y-11263984D01*
X3579229Y-11263984D02*
X3645896Y-11406841D01*
X3645896Y-11406841D02*
X3712562Y-11263984D01*
X3712562Y-11263984D02*
X3712562Y-11463984D01*
X3893515Y-11463984D02*
X3893515Y-11359222D01*
X3893515Y-11359222D02*
X3883991Y-11340174D01*
X3883991Y-11340174D02*
X3864943Y-11330650D01*
X3864943Y-11330650D02*
X3826848Y-11330650D01*
X3826848Y-11330650D02*
X3807801Y-11340174D01*
X3893515Y-11454460D02*
X3874467Y-11463984D01*
X3874467Y-11463984D02*
X3826848Y-11463984D01*
X3826848Y-11463984D02*
X3807801Y-11454460D01*
X3807801Y-11454460D02*
X3798277Y-11435412D01*
X3798277Y-11435412D02*
X3798277Y-11416365D01*
X3798277Y-11416365D02*
X3807801Y-11397317D01*
X3807801Y-11397317D02*
X3826848Y-11387793D01*
X3826848Y-11387793D02*
X3874467Y-11387793D01*
X3874467Y-11387793D02*
X3893515Y-11378269D01*
X3988753Y-11330650D02*
X3988753Y-11530650D01*
X3988753Y-11340174D02*
X4007801Y-11330650D01*
X4007801Y-11330650D02*
X4045896Y-11330650D01*
X4045896Y-11330650D02*
X4064943Y-11340174D01*
X4064943Y-11340174D02*
X4074467Y-11349698D01*
X4074467Y-11349698D02*
X4083991Y-11368746D01*
X4083991Y-11368746D02*
X4083991Y-11425888D01*
X4083991Y-11425888D02*
X4074467Y-11444936D01*
X4074467Y-11444936D02*
X4064943Y-11454460D01*
X4064943Y-11454460D02*
X4045896Y-11463984D01*
X4045896Y-11463984D02*
X4007801Y-11463984D01*
X4007801Y-11463984D02*
X3988753Y-11454460D01*
X4169705Y-11444936D02*
X4179229Y-11454460D01*
X4179229Y-11454460D02*
X4169705Y-11463984D01*
X4169705Y-11463984D02*
X4160182Y-11454460D01*
X4160182Y-11454460D02*
X4169705Y-11444936D01*
X4169705Y-11444936D02*
X4169705Y-11463984D01*
X4169705Y-11340174D02*
X4179229Y-11349698D01*
X4179229Y-11349698D02*
X4169705Y-11359222D01*
X4169705Y-11359222D02*
X4160182Y-11349698D01*
X4160182Y-11349698D02*
X4169705Y-11340174D01*
X4169705Y-11340174D02*
X4169705Y-11359222D01*
D12*
X2387500Y-11717500D02*
X2537500Y-11867500D01*
X2537500Y-11717500D02*
X2387500Y-11867500D01*
D11*
X2903039Y-11883984D02*
X2788753Y-11883984D01*
X2845896Y-11883984D02*
X2845896Y-11683984D01*
X2845896Y-11683984D02*
X2826848Y-11712555D01*
X2826848Y-11712555D02*
X2807801Y-11731603D01*
X2807801Y-11731603D02*
X2788753Y-11741127D01*
X2988753Y-11864936D02*
X2998277Y-11874460D01*
X2998277Y-11874460D02*
X2988753Y-11883984D01*
X2988753Y-11883984D02*
X2979229Y-11874460D01*
X2979229Y-11874460D02*
X2988753Y-11864936D01*
X2988753Y-11864936D02*
X2988753Y-11883984D01*
X3179229Y-11683984D02*
X3083991Y-11683984D01*
X3083991Y-11683984D02*
X3074467Y-11779222D01*
X3074467Y-11779222D02*
X3083991Y-11769698D01*
X3083991Y-11769698D02*
X3103039Y-11760174D01*
X3103039Y-11760174D02*
X3150658Y-11760174D01*
X3150658Y-11760174D02*
X3169705Y-11769698D01*
X3169705Y-11769698D02*
X3179229Y-11779222D01*
X3179229Y-11779222D02*
X3188753Y-11798269D01*
X3188753Y-11798269D02*
X3188753Y-11845888D01*
X3188753Y-11845888D02*
X3179229Y-11864936D01*
X3179229Y-11864936D02*
X3169705Y-11874460D01*
X3169705Y-11874460D02*
X3150658Y-11883984D01*
X3150658Y-11883984D02*
X3103039Y-11883984D01*
X3103039Y-11883984D02*
X3083991Y-11874460D01*
X3083991Y-11874460D02*
X3074467Y-11864936D01*
X3312562Y-11683984D02*
X3331610Y-11683984D01*
X3331610Y-11683984D02*
X3350658Y-11693508D01*
X3350658Y-11693508D02*
X3360182Y-11703031D01*
X3360182Y-11703031D02*
X3369705Y-11722079D01*
X3369705Y-11722079D02*
X3379229Y-11760174D01*
X3379229Y-11760174D02*
X3379229Y-11807793D01*
X3379229Y-11807793D02*
X3369705Y-11845888D01*
X3369705Y-11845888D02*
X3360182Y-11864936D01*
X3360182Y-11864936D02*
X3350658Y-11874460D01*
X3350658Y-11874460D02*
X3331610Y-11883984D01*
X3331610Y-11883984D02*
X3312562Y-11883984D01*
X3312562Y-11883984D02*
X3293515Y-11874460D01*
X3293515Y-11874460D02*
X3283991Y-11864936D01*
X3283991Y-11864936D02*
X3274467Y-11845888D01*
X3274467Y-11845888D02*
X3264943Y-11807793D01*
X3264943Y-11807793D02*
X3264943Y-11760174D01*
X3264943Y-11760174D02*
X3274467Y-11722079D01*
X3274467Y-11722079D02*
X3283991Y-11703031D01*
X3283991Y-11703031D02*
X3293515Y-11693508D01*
X3293515Y-11693508D02*
X3312562Y-11683984D01*
X3503039Y-11683984D02*
X3522086Y-11683984D01*
X3522086Y-11683984D02*
X3541134Y-11693508D01*
X3541134Y-11693508D02*
X3550658Y-11703031D01*
X3550658Y-11703031D02*
X3560182Y-11722079D01*
X3560182Y-11722079D02*
X3569705Y-11760174D01*
X3569705Y-11760174D02*
X3569705Y-11807793D01*
X3569705Y-11807793D02*
X3560182Y-11845888D01*
X3560182Y-11845888D02*
X3550658Y-11864936D01*
X3550658Y-11864936D02*
X3541134Y-11874460D01*
X3541134Y-11874460D02*
X3522086Y-11883984D01*
X3522086Y-11883984D02*
X3503039Y-11883984D01*
X3503039Y-11883984D02*
X3483991Y-11874460D01*
X3483991Y-11874460D02*
X3474467Y-11864936D01*
X3474467Y-11864936D02*
X3464943Y-11845888D01*
X3464943Y-11845888D02*
X3455420Y-11807793D01*
X3455420Y-11807793D02*
X3455420Y-11760174D01*
X3455420Y-11760174D02*
X3464943Y-11722079D01*
X3464943Y-11722079D02*
X3474467Y-11703031D01*
X3474467Y-11703031D02*
X3483991Y-11693508D01*
X3483991Y-11693508D02*
X3503039Y-11683984D01*
X3655420Y-11883984D02*
X3655420Y-11750650D01*
X3655420Y-11769698D02*
X3664943Y-11760174D01*
X3664943Y-11760174D02*
X3683991Y-11750650D01*
X3683991Y-11750650D02*
X3712563Y-11750650D01*
X3712563Y-11750650D02*
X3731610Y-11760174D01*
X3731610Y-11760174D02*
X3741134Y-11779222D01*
X3741134Y-11779222D02*
X3741134Y-11883984D01*
X3741134Y-11779222D02*
X3750658Y-11760174D01*
X3750658Y-11760174D02*
X3769705Y-11750650D01*
X3769705Y-11750650D02*
X3798277Y-11750650D01*
X3798277Y-11750650D02*
X3817324Y-11760174D01*
X3817324Y-11760174D02*
X3826848Y-11779222D01*
X3826848Y-11779222D02*
X3826848Y-11883984D01*
X3922086Y-11883984D02*
X3922086Y-11750650D01*
X3922086Y-11769698D02*
X3931610Y-11760174D01*
X3931610Y-11760174D02*
X3950658Y-11750650D01*
X3950658Y-11750650D02*
X3979229Y-11750650D01*
X3979229Y-11750650D02*
X3998277Y-11760174D01*
X3998277Y-11760174D02*
X4007801Y-11779222D01*
X4007801Y-11779222D02*
X4007801Y-11883984D01*
X4007801Y-11779222D02*
X4017324Y-11760174D01*
X4017324Y-11760174D02*
X4036372Y-11750650D01*
X4036372Y-11750650D02*
X4064943Y-11750650D01*
X4064943Y-11750650D02*
X4083991Y-11760174D01*
X4083991Y-11760174D02*
X4093515Y-11779222D01*
X4093515Y-11779222D02*
X4093515Y-11883984D01*
X4483991Y-11674460D02*
X4312563Y-11931603D01*
X4741134Y-11683984D02*
X4760182Y-11683984D01*
X4760182Y-11683984D02*
X4779229Y-11693508D01*
X4779229Y-11693508D02*
X4788753Y-11703031D01*
X4788753Y-11703031D02*
X4798277Y-11722079D01*
X4798277Y-11722079D02*
X4807801Y-11760174D01*
X4807801Y-11760174D02*
X4807801Y-11807793D01*
X4807801Y-11807793D02*
X4798277Y-11845888D01*
X4798277Y-11845888D02*
X4788753Y-11864936D01*
X4788753Y-11864936D02*
X4779229Y-11874460D01*
X4779229Y-11874460D02*
X4760182Y-11883984D01*
X4760182Y-11883984D02*
X4741134Y-11883984D01*
X4741134Y-11883984D02*
X4722087Y-11874460D01*
X4722087Y-11874460D02*
X4712563Y-11864936D01*
X4712563Y-11864936D02*
X4703039Y-11845888D01*
X4703039Y-11845888D02*
X4693515Y-11807793D01*
X4693515Y-11807793D02*
X4693515Y-11760174D01*
X4693515Y-11760174D02*
X4703039Y-11722079D01*
X4703039Y-11722079D02*
X4712563Y-11703031D01*
X4712563Y-11703031D02*
X4722087Y-11693508D01*
X4722087Y-11693508D02*
X4741134Y-11683984D01*
X4893515Y-11864936D02*
X4903039Y-11874460D01*
X4903039Y-11874460D02*
X4893515Y-11883984D01*
X4893515Y-11883984D02*
X4883991Y-11874460D01*
X4883991Y-11874460D02*
X4893515Y-11864936D01*
X4893515Y-11864936D02*
X4893515Y-11883984D01*
X5026848Y-11683984D02*
X5045896Y-11683984D01*
X5045896Y-11683984D02*
X5064944Y-11693508D01*
X5064944Y-11693508D02*
X5074468Y-11703031D01*
X5074468Y-11703031D02*
X5083991Y-11722079D01*
X5083991Y-11722079D02*
X5093515Y-11760174D01*
X5093515Y-11760174D02*
X5093515Y-11807793D01*
X5093515Y-11807793D02*
X5083991Y-11845888D01*
X5083991Y-11845888D02*
X5074468Y-11864936D01*
X5074468Y-11864936D02*
X5064944Y-11874460D01*
X5064944Y-11874460D02*
X5045896Y-11883984D01*
X5045896Y-11883984D02*
X5026848Y-11883984D01*
X5026848Y-11883984D02*
X5007801Y-11874460D01*
X5007801Y-11874460D02*
X4998277Y-11864936D01*
X4998277Y-11864936D02*
X4988753Y-11845888D01*
X4988753Y-11845888D02*
X4979229Y-11807793D01*
X4979229Y-11807793D02*
X4979229Y-11760174D01*
X4979229Y-11760174D02*
X4988753Y-11722079D01*
X4988753Y-11722079D02*
X4998277Y-11703031D01*
X4998277Y-11703031D02*
X5007801Y-11693508D01*
X5007801Y-11693508D02*
X5026848Y-11683984D01*
X5274468Y-11683984D02*
X5179229Y-11683984D01*
X5179229Y-11683984D02*
X5169706Y-11779222D01*
X5169706Y-11779222D02*
X5179229Y-11769698D01*
X5179229Y-11769698D02*
X5198277Y-11760174D01*
X5198277Y-11760174D02*
X5245896Y-11760174D01*
X5245896Y-11760174D02*
X5264944Y-11769698D01*
X5264944Y-11769698D02*
X5274468Y-11779222D01*
X5274468Y-11779222D02*
X5283991Y-11798269D01*
X5283991Y-11798269D02*
X5283991Y-11845888D01*
X5283991Y-11845888D02*
X5274468Y-11864936D01*
X5274468Y-11864936D02*
X5264944Y-11874460D01*
X5264944Y-11874460D02*
X5245896Y-11883984D01*
X5245896Y-11883984D02*
X5198277Y-11883984D01*
X5198277Y-11883984D02*
X5179229Y-11874460D01*
X5179229Y-11874460D02*
X5169706Y-11864936D01*
X5379229Y-11883984D02*
X5417325Y-11883984D01*
X5417325Y-11883984D02*
X5436372Y-11874460D01*
X5436372Y-11874460D02*
X5445896Y-11864936D01*
X5445896Y-11864936D02*
X5464944Y-11836365D01*
X5464944Y-11836365D02*
X5474468Y-11798269D01*
X5474468Y-11798269D02*
X5474468Y-11722079D01*
X5474468Y-11722079D02*
X5464944Y-11703031D01*
X5464944Y-11703031D02*
X5455420Y-11693508D01*
X5455420Y-11693508D02*
X5436372Y-11683984D01*
X5436372Y-11683984D02*
X5398277Y-11683984D01*
X5398277Y-11683984D02*
X5379229Y-11693508D01*
X5379229Y-11693508D02*
X5369706Y-11703031D01*
X5369706Y-11703031D02*
X5360182Y-11722079D01*
X5360182Y-11722079D02*
X5360182Y-11769698D01*
X5360182Y-11769698D02*
X5369706Y-11788746D01*
X5369706Y-11788746D02*
X5379229Y-11798269D01*
X5379229Y-11798269D02*
X5398277Y-11807793D01*
X5398277Y-11807793D02*
X5436372Y-11807793D01*
X5436372Y-11807793D02*
X5455420Y-11798269D01*
X5455420Y-11798269D02*
X5464944Y-11788746D01*
X5464944Y-11788746D02*
X5474468Y-11769698D01*
X5664944Y-11883984D02*
X5550658Y-11883984D01*
X5607801Y-11883984D02*
X5607801Y-11683984D01*
X5607801Y-11683984D02*
X5588753Y-11712555D01*
X5588753Y-11712555D02*
X5569706Y-11731603D01*
X5569706Y-11731603D02*
X5550658Y-11741127D01*
X5741134Y-11683984D02*
X5741134Y-11722079D01*
X5817325Y-11683984D02*
X5817325Y-11722079D01*
X6112563Y-11960174D02*
X6103039Y-11950650D01*
X6103039Y-11950650D02*
X6083991Y-11922079D01*
X6083991Y-11922079D02*
X6074468Y-11903031D01*
X6074468Y-11903031D02*
X6064944Y-11874460D01*
X6064944Y-11874460D02*
X6055420Y-11826841D01*
X6055420Y-11826841D02*
X6055420Y-11788746D01*
X6055420Y-11788746D02*
X6064944Y-11741127D01*
X6064944Y-11741127D02*
X6074468Y-11712555D01*
X6074468Y-11712555D02*
X6083991Y-11693508D01*
X6083991Y-11693508D02*
X6103039Y-11664936D01*
X6103039Y-11664936D02*
X6112563Y-11655412D01*
X6179229Y-11703031D02*
X6188753Y-11693508D01*
X6188753Y-11693508D02*
X6207801Y-11683984D01*
X6207801Y-11683984D02*
X6255420Y-11683984D01*
X6255420Y-11683984D02*
X6274468Y-11693508D01*
X6274468Y-11693508D02*
X6283991Y-11703031D01*
X6283991Y-11703031D02*
X6293515Y-11722079D01*
X6293515Y-11722079D02*
X6293515Y-11741127D01*
X6293515Y-11741127D02*
X6283991Y-11769698D01*
X6283991Y-11769698D02*
X6169706Y-11883984D01*
X6169706Y-11883984D02*
X6293515Y-11883984D01*
X6531610Y-11883984D02*
X6531610Y-11683984D01*
X6617325Y-11883984D02*
X6617325Y-11779222D01*
X6617325Y-11779222D02*
X6607801Y-11760174D01*
X6607801Y-11760174D02*
X6588753Y-11750650D01*
X6588753Y-11750650D02*
X6560182Y-11750650D01*
X6560182Y-11750650D02*
X6541134Y-11760174D01*
X6541134Y-11760174D02*
X6531610Y-11769698D01*
X6741134Y-11883984D02*
X6722087Y-11874460D01*
X6722087Y-11874460D02*
X6712563Y-11864936D01*
X6712563Y-11864936D02*
X6703039Y-11845888D01*
X6703039Y-11845888D02*
X6703039Y-11788746D01*
X6703039Y-11788746D02*
X6712563Y-11769698D01*
X6712563Y-11769698D02*
X6722087Y-11760174D01*
X6722087Y-11760174D02*
X6741134Y-11750650D01*
X6741134Y-11750650D02*
X6769706Y-11750650D01*
X6769706Y-11750650D02*
X6788753Y-11760174D01*
X6788753Y-11760174D02*
X6798277Y-11769698D01*
X6798277Y-11769698D02*
X6807801Y-11788746D01*
X6807801Y-11788746D02*
X6807801Y-11845888D01*
X6807801Y-11845888D02*
X6798277Y-11864936D01*
X6798277Y-11864936D02*
X6788753Y-11874460D01*
X6788753Y-11874460D02*
X6769706Y-11883984D01*
X6769706Y-11883984D02*
X6741134Y-11883984D01*
X6922087Y-11883984D02*
X6903039Y-11874460D01*
X6903039Y-11874460D02*
X6893515Y-11855412D01*
X6893515Y-11855412D02*
X6893515Y-11683984D01*
X7074468Y-11874460D02*
X7055420Y-11883984D01*
X7055420Y-11883984D02*
X7017325Y-11883984D01*
X7017325Y-11883984D02*
X6998277Y-11874460D01*
X6998277Y-11874460D02*
X6988753Y-11855412D01*
X6988753Y-11855412D02*
X6988753Y-11779222D01*
X6988753Y-11779222D02*
X6998277Y-11760174D01*
X6998277Y-11760174D02*
X7017325Y-11750650D01*
X7017325Y-11750650D02*
X7055420Y-11750650D01*
X7055420Y-11750650D02*
X7074468Y-11760174D01*
X7074468Y-11760174D02*
X7083991Y-11779222D01*
X7083991Y-11779222D02*
X7083991Y-11798269D01*
X7083991Y-11798269D02*
X6988753Y-11817317D01*
X7160182Y-11874460D02*
X7179230Y-11883984D01*
X7179230Y-11883984D02*
X7217325Y-11883984D01*
X7217325Y-11883984D02*
X7236372Y-11874460D01*
X7236372Y-11874460D02*
X7245896Y-11855412D01*
X7245896Y-11855412D02*
X7245896Y-11845888D01*
X7245896Y-11845888D02*
X7236372Y-11826841D01*
X7236372Y-11826841D02*
X7217325Y-11817317D01*
X7217325Y-11817317D02*
X7188753Y-11817317D01*
X7188753Y-11817317D02*
X7169706Y-11807793D01*
X7169706Y-11807793D02*
X7160182Y-11788746D01*
X7160182Y-11788746D02*
X7160182Y-11779222D01*
X7160182Y-11779222D02*
X7169706Y-11760174D01*
X7169706Y-11760174D02*
X7188753Y-11750650D01*
X7188753Y-11750650D02*
X7217325Y-11750650D01*
X7217325Y-11750650D02*
X7236372Y-11760174D01*
X7312563Y-11960174D02*
X7322087Y-11950650D01*
X7322087Y-11950650D02*
X7341134Y-11922079D01*
X7341134Y-11922079D02*
X7350658Y-11903031D01*
X7350658Y-11903031D02*
X7360182Y-11874460D01*
X7360182Y-11874460D02*
X7369706Y-11826841D01*
X7369706Y-11826841D02*
X7369706Y-11788746D01*
X7369706Y-11788746D02*
X7360182Y-11741127D01*
X7360182Y-11741127D02*
X7350658Y-11712555D01*
X7350658Y-11712555D02*
X7341134Y-11693508D01*
X7341134Y-11693508D02*
X7322087Y-11664936D01*
X7322087Y-11664936D02*
X7312563Y-11655412D01*
X7674468Y-11960174D02*
X7664944Y-11950650D01*
X7664944Y-11950650D02*
X7645896Y-11922079D01*
X7645896Y-11922079D02*
X7636372Y-11903031D01*
X7636372Y-11903031D02*
X7626849Y-11874460D01*
X7626849Y-11874460D02*
X7617325Y-11826841D01*
X7617325Y-11826841D02*
X7617325Y-11788746D01*
X7617325Y-11788746D02*
X7626849Y-11741127D01*
X7626849Y-11741127D02*
X7636372Y-11712555D01*
X7636372Y-11712555D02*
X7645896Y-11693508D01*
X7645896Y-11693508D02*
X7664944Y-11664936D01*
X7664944Y-11664936D02*
X7674468Y-11655412D01*
X7750658Y-11750650D02*
X7750658Y-11883984D01*
X7750658Y-11769698D02*
X7760182Y-11760174D01*
X7760182Y-11760174D02*
X7779230Y-11750650D01*
X7779230Y-11750650D02*
X7807801Y-11750650D01*
X7807801Y-11750650D02*
X7826849Y-11760174D01*
X7826849Y-11760174D02*
X7836372Y-11779222D01*
X7836372Y-11779222D02*
X7836372Y-11883984D01*
X7960182Y-11883984D02*
X7941134Y-11874460D01*
X7941134Y-11874460D02*
X7931611Y-11864936D01*
X7931611Y-11864936D02*
X7922087Y-11845888D01*
X7922087Y-11845888D02*
X7922087Y-11788746D01*
X7922087Y-11788746D02*
X7931611Y-11769698D01*
X7931611Y-11769698D02*
X7941134Y-11760174D01*
X7941134Y-11760174D02*
X7960182Y-11750650D01*
X7960182Y-11750650D02*
X7988753Y-11750650D01*
X7988753Y-11750650D02*
X8007801Y-11760174D01*
X8007801Y-11760174D02*
X8017325Y-11769698D01*
X8017325Y-11769698D02*
X8026849Y-11788746D01*
X8026849Y-11788746D02*
X8026849Y-11845888D01*
X8026849Y-11845888D02*
X8017325Y-11864936D01*
X8017325Y-11864936D02*
X8007801Y-11874460D01*
X8007801Y-11874460D02*
X7988753Y-11883984D01*
X7988753Y-11883984D02*
X7960182Y-11883984D01*
X8083992Y-11750650D02*
X8160182Y-11750650D01*
X8112563Y-11683984D02*
X8112563Y-11855412D01*
X8112563Y-11855412D02*
X8122087Y-11874460D01*
X8122087Y-11874460D02*
X8141134Y-11883984D01*
X8141134Y-11883984D02*
X8160182Y-11883984D01*
X8379230Y-11750650D02*
X8379230Y-11950650D01*
X8379230Y-11760174D02*
X8398277Y-11750650D01*
X8398277Y-11750650D02*
X8436373Y-11750650D01*
X8436373Y-11750650D02*
X8455420Y-11760174D01*
X8455420Y-11760174D02*
X8464944Y-11769698D01*
X8464944Y-11769698D02*
X8474468Y-11788746D01*
X8474468Y-11788746D02*
X8474468Y-11845888D01*
X8474468Y-11845888D02*
X8464944Y-11864936D01*
X8464944Y-11864936D02*
X8455420Y-11874460D01*
X8455420Y-11874460D02*
X8436373Y-11883984D01*
X8436373Y-11883984D02*
X8398277Y-11883984D01*
X8398277Y-11883984D02*
X8379230Y-11874460D01*
X8588754Y-11883984D02*
X8569706Y-11874460D01*
X8569706Y-11874460D02*
X8560182Y-11855412D01*
X8560182Y-11855412D02*
X8560182Y-11683984D01*
X8750658Y-11883984D02*
X8750658Y-11779222D01*
X8750658Y-11779222D02*
X8741135Y-11760174D01*
X8741135Y-11760174D02*
X8722087Y-11750650D01*
X8722087Y-11750650D02*
X8683992Y-11750650D01*
X8683992Y-11750650D02*
X8664944Y-11760174D01*
X8750658Y-11874460D02*
X8731611Y-11883984D01*
X8731611Y-11883984D02*
X8683992Y-11883984D01*
X8683992Y-11883984D02*
X8664944Y-11874460D01*
X8664944Y-11874460D02*
X8655420Y-11855412D01*
X8655420Y-11855412D02*
X8655420Y-11836365D01*
X8655420Y-11836365D02*
X8664944Y-11817317D01*
X8664944Y-11817317D02*
X8683992Y-11807793D01*
X8683992Y-11807793D02*
X8731611Y-11807793D01*
X8731611Y-11807793D02*
X8750658Y-11798269D01*
X8817325Y-11750650D02*
X8893515Y-11750650D01*
X8845896Y-11683984D02*
X8845896Y-11855412D01*
X8845896Y-11855412D02*
X8855420Y-11874460D01*
X8855420Y-11874460D02*
X8874468Y-11883984D01*
X8874468Y-11883984D02*
X8893515Y-11883984D01*
X9036373Y-11874460D02*
X9017325Y-11883984D01*
X9017325Y-11883984D02*
X8979230Y-11883984D01*
X8979230Y-11883984D02*
X8960182Y-11874460D01*
X8960182Y-11874460D02*
X8950658Y-11855412D01*
X8950658Y-11855412D02*
X8950658Y-11779222D01*
X8950658Y-11779222D02*
X8960182Y-11760174D01*
X8960182Y-11760174D02*
X8979230Y-11750650D01*
X8979230Y-11750650D02*
X9017325Y-11750650D01*
X9017325Y-11750650D02*
X9036373Y-11760174D01*
X9036373Y-11760174D02*
X9045896Y-11779222D01*
X9045896Y-11779222D02*
X9045896Y-11798269D01*
X9045896Y-11798269D02*
X8950658Y-11817317D01*
X9217325Y-11883984D02*
X9217325Y-11683984D01*
X9217325Y-11874460D02*
X9198277Y-11883984D01*
X9198277Y-11883984D02*
X9160182Y-11883984D01*
X9160182Y-11883984D02*
X9141135Y-11874460D01*
X9141135Y-11874460D02*
X9131611Y-11864936D01*
X9131611Y-11864936D02*
X9122087Y-11845888D01*
X9122087Y-11845888D02*
X9122087Y-11788746D01*
X9122087Y-11788746D02*
X9131611Y-11769698D01*
X9131611Y-11769698D02*
X9141135Y-11760174D01*
X9141135Y-11760174D02*
X9160182Y-11750650D01*
X9160182Y-11750650D02*
X9198277Y-11750650D01*
X9198277Y-11750650D02*
X9217325Y-11760174D01*
X9293516Y-11960174D02*
X9303039Y-11950650D01*
X9303039Y-11950650D02*
X9322087Y-11922079D01*
X9322087Y-11922079D02*
X9331611Y-11903031D01*
X9331611Y-11903031D02*
X9341135Y-11874460D01*
X9341135Y-11874460D02*
X9350658Y-11826841D01*
X9350658Y-11826841D02*
X9350658Y-11788746D01*
X9350658Y-11788746D02*
X9341135Y-11741127D01*
X9341135Y-11741127D02*
X9331611Y-11712555D01*
X9331611Y-11712555D02*
X9322087Y-11693508D01*
X9322087Y-11693508D02*
X9303039Y-11664936D01*
X9303039Y-11664936D02*
X9293516Y-11655412D01*
X2537500Y-12062500D02*
G75*
G02*
X2337500Y-12062500I-100000J0D01*
G01*
X2337500Y-12062500D02*
G75*
G02*
X2537500Y-12062500I100000J0D01*
G01*
X2779229Y-11953984D02*
X2903039Y-11953984D01*
X2903039Y-11953984D02*
X2836372Y-12030174D01*
X2836372Y-12030174D02*
X2864943Y-12030174D01*
X2864943Y-12030174D02*
X2883991Y-12039698D01*
X2883991Y-12039698D02*
X2893515Y-12049222D01*
X2893515Y-12049222D02*
X2903039Y-12068269D01*
X2903039Y-12068269D02*
X2903039Y-12115888D01*
X2903039Y-12115888D02*
X2893515Y-12134936D01*
X2893515Y-12134936D02*
X2883991Y-12144460D01*
X2883991Y-12144460D02*
X2864943Y-12153984D01*
X2864943Y-12153984D02*
X2807801Y-12153984D01*
X2807801Y-12153984D02*
X2788753Y-12144460D01*
X2788753Y-12144460D02*
X2779229Y-12134936D01*
X2988753Y-12134936D02*
X2998277Y-12144460D01*
X2998277Y-12144460D02*
X2988753Y-12153984D01*
X2988753Y-12153984D02*
X2979229Y-12144460D01*
X2979229Y-12144460D02*
X2988753Y-12134936D01*
X2988753Y-12134936D02*
X2988753Y-12153984D01*
X3179229Y-11953984D02*
X3083991Y-11953984D01*
X3083991Y-11953984D02*
X3074467Y-12049222D01*
X3074467Y-12049222D02*
X3083991Y-12039698D01*
X3083991Y-12039698D02*
X3103039Y-12030174D01*
X3103039Y-12030174D02*
X3150658Y-12030174D01*
X3150658Y-12030174D02*
X3169705Y-12039698D01*
X3169705Y-12039698D02*
X3179229Y-12049222D01*
X3179229Y-12049222D02*
X3188753Y-12068269D01*
X3188753Y-12068269D02*
X3188753Y-12115888D01*
X3188753Y-12115888D02*
X3179229Y-12134936D01*
X3179229Y-12134936D02*
X3169705Y-12144460D01*
X3169705Y-12144460D02*
X3150658Y-12153984D01*
X3150658Y-12153984D02*
X3103039Y-12153984D01*
X3103039Y-12153984D02*
X3083991Y-12144460D01*
X3083991Y-12144460D02*
X3074467Y-12134936D01*
X3312562Y-11953984D02*
X3331610Y-11953984D01*
X3331610Y-11953984D02*
X3350658Y-11963508D01*
X3350658Y-11963508D02*
X3360182Y-11973031D01*
X3360182Y-11973031D02*
X3369705Y-11992079D01*
X3369705Y-11992079D02*
X3379229Y-12030174D01*
X3379229Y-12030174D02*
X3379229Y-12077793D01*
X3379229Y-12077793D02*
X3369705Y-12115888D01*
X3369705Y-12115888D02*
X3360182Y-12134936D01*
X3360182Y-12134936D02*
X3350658Y-12144460D01*
X3350658Y-12144460D02*
X3331610Y-12153984D01*
X3331610Y-12153984D02*
X3312562Y-12153984D01*
X3312562Y-12153984D02*
X3293515Y-12144460D01*
X3293515Y-12144460D02*
X3283991Y-12134936D01*
X3283991Y-12134936D02*
X3274467Y-12115888D01*
X3274467Y-12115888D02*
X3264943Y-12077793D01*
X3264943Y-12077793D02*
X3264943Y-12030174D01*
X3264943Y-12030174D02*
X3274467Y-11992079D01*
X3274467Y-11992079D02*
X3283991Y-11973031D01*
X3283991Y-11973031D02*
X3293515Y-11963508D01*
X3293515Y-11963508D02*
X3312562Y-11953984D01*
X3503039Y-11953984D02*
X3522086Y-11953984D01*
X3522086Y-11953984D02*
X3541134Y-11963508D01*
X3541134Y-11963508D02*
X3550658Y-11973031D01*
X3550658Y-11973031D02*
X3560182Y-11992079D01*
X3560182Y-11992079D02*
X3569705Y-12030174D01*
X3569705Y-12030174D02*
X3569705Y-12077793D01*
X3569705Y-12077793D02*
X3560182Y-12115888D01*
X3560182Y-12115888D02*
X3550658Y-12134936D01*
X3550658Y-12134936D02*
X3541134Y-12144460D01*
X3541134Y-12144460D02*
X3522086Y-12153984D01*
X3522086Y-12153984D02*
X3503039Y-12153984D01*
X3503039Y-12153984D02*
X3483991Y-12144460D01*
X3483991Y-12144460D02*
X3474467Y-12134936D01*
X3474467Y-12134936D02*
X3464943Y-12115888D01*
X3464943Y-12115888D02*
X3455420Y-12077793D01*
X3455420Y-12077793D02*
X3455420Y-12030174D01*
X3455420Y-12030174D02*
X3464943Y-11992079D01*
X3464943Y-11992079D02*
X3474467Y-11973031D01*
X3474467Y-11973031D02*
X3483991Y-11963508D01*
X3483991Y-11963508D02*
X3503039Y-11953984D01*
X3655420Y-12153984D02*
X3655420Y-12020650D01*
X3655420Y-12039698D02*
X3664943Y-12030174D01*
X3664943Y-12030174D02*
X3683991Y-12020650D01*
X3683991Y-12020650D02*
X3712563Y-12020650D01*
X3712563Y-12020650D02*
X3731610Y-12030174D01*
X3731610Y-12030174D02*
X3741134Y-12049222D01*
X3741134Y-12049222D02*
X3741134Y-12153984D01*
X3741134Y-12049222D02*
X3750658Y-12030174D01*
X3750658Y-12030174D02*
X3769705Y-12020650D01*
X3769705Y-12020650D02*
X3798277Y-12020650D01*
X3798277Y-12020650D02*
X3817324Y-12030174D01*
X3817324Y-12030174D02*
X3826848Y-12049222D01*
X3826848Y-12049222D02*
X3826848Y-12153984D01*
X3922086Y-12153984D02*
X3922086Y-12020650D01*
X3922086Y-12039698D02*
X3931610Y-12030174D01*
X3931610Y-12030174D02*
X3950658Y-12020650D01*
X3950658Y-12020650D02*
X3979229Y-12020650D01*
X3979229Y-12020650D02*
X3998277Y-12030174D01*
X3998277Y-12030174D02*
X4007801Y-12049222D01*
X4007801Y-12049222D02*
X4007801Y-12153984D01*
X4007801Y-12049222D02*
X4017324Y-12030174D01*
X4017324Y-12030174D02*
X4036372Y-12020650D01*
X4036372Y-12020650D02*
X4064943Y-12020650D01*
X4064943Y-12020650D02*
X4083991Y-12030174D01*
X4083991Y-12030174D02*
X4093515Y-12049222D01*
X4093515Y-12049222D02*
X4093515Y-12153984D01*
X4483991Y-11944460D02*
X4312563Y-12201603D01*
X4741134Y-11953984D02*
X4760182Y-11953984D01*
X4760182Y-11953984D02*
X4779229Y-11963508D01*
X4779229Y-11963508D02*
X4788753Y-11973031D01*
X4788753Y-11973031D02*
X4798277Y-11992079D01*
X4798277Y-11992079D02*
X4807801Y-12030174D01*
X4807801Y-12030174D02*
X4807801Y-12077793D01*
X4807801Y-12077793D02*
X4798277Y-12115888D01*
X4798277Y-12115888D02*
X4788753Y-12134936D01*
X4788753Y-12134936D02*
X4779229Y-12144460D01*
X4779229Y-12144460D02*
X4760182Y-12153984D01*
X4760182Y-12153984D02*
X4741134Y-12153984D01*
X4741134Y-12153984D02*
X4722087Y-12144460D01*
X4722087Y-12144460D02*
X4712563Y-12134936D01*
X4712563Y-12134936D02*
X4703039Y-12115888D01*
X4703039Y-12115888D02*
X4693515Y-12077793D01*
X4693515Y-12077793D02*
X4693515Y-12030174D01*
X4693515Y-12030174D02*
X4703039Y-11992079D01*
X4703039Y-11992079D02*
X4712563Y-11973031D01*
X4712563Y-11973031D02*
X4722087Y-11963508D01*
X4722087Y-11963508D02*
X4741134Y-11953984D01*
X4893515Y-12134936D02*
X4903039Y-12144460D01*
X4903039Y-12144460D02*
X4893515Y-12153984D01*
X4893515Y-12153984D02*
X4883991Y-12144460D01*
X4883991Y-12144460D02*
X4893515Y-12134936D01*
X4893515Y-12134936D02*
X4893515Y-12153984D01*
X5093515Y-12153984D02*
X4979229Y-12153984D01*
X5036372Y-12153984D02*
X5036372Y-11953984D01*
X5036372Y-11953984D02*
X5017325Y-11982555D01*
X5017325Y-11982555D02*
X4998277Y-12001603D01*
X4998277Y-12001603D02*
X4979229Y-12011127D01*
X5160182Y-11953984D02*
X5283991Y-11953984D01*
X5283991Y-11953984D02*
X5217325Y-12030174D01*
X5217325Y-12030174D02*
X5245896Y-12030174D01*
X5245896Y-12030174D02*
X5264944Y-12039698D01*
X5264944Y-12039698D02*
X5274468Y-12049222D01*
X5274468Y-12049222D02*
X5283991Y-12068269D01*
X5283991Y-12068269D02*
X5283991Y-12115888D01*
X5283991Y-12115888D02*
X5274468Y-12134936D01*
X5274468Y-12134936D02*
X5264944Y-12144460D01*
X5264944Y-12144460D02*
X5245896Y-12153984D01*
X5245896Y-12153984D02*
X5188753Y-12153984D01*
X5188753Y-12153984D02*
X5169706Y-12144460D01*
X5169706Y-12144460D02*
X5160182Y-12134936D01*
X5350658Y-11953984D02*
X5483991Y-11953984D01*
X5483991Y-11953984D02*
X5398277Y-12153984D01*
X5588753Y-12039698D02*
X5569706Y-12030174D01*
X5569706Y-12030174D02*
X5560182Y-12020650D01*
X5560182Y-12020650D02*
X5550658Y-12001603D01*
X5550658Y-12001603D02*
X5550658Y-11992079D01*
X5550658Y-11992079D02*
X5560182Y-11973031D01*
X5560182Y-11973031D02*
X5569706Y-11963508D01*
X5569706Y-11963508D02*
X5588753Y-11953984D01*
X5588753Y-11953984D02*
X5626848Y-11953984D01*
X5626848Y-11953984D02*
X5645896Y-11963508D01*
X5645896Y-11963508D02*
X5655420Y-11973031D01*
X5655420Y-11973031D02*
X5664944Y-11992079D01*
X5664944Y-11992079D02*
X5664944Y-12001603D01*
X5664944Y-12001603D02*
X5655420Y-12020650D01*
X5655420Y-12020650D02*
X5645896Y-12030174D01*
X5645896Y-12030174D02*
X5626848Y-12039698D01*
X5626848Y-12039698D02*
X5588753Y-12039698D01*
X5588753Y-12039698D02*
X5569706Y-12049222D01*
X5569706Y-12049222D02*
X5560182Y-12058746D01*
X5560182Y-12058746D02*
X5550658Y-12077793D01*
X5550658Y-12077793D02*
X5550658Y-12115888D01*
X5550658Y-12115888D02*
X5560182Y-12134936D01*
X5560182Y-12134936D02*
X5569706Y-12144460D01*
X5569706Y-12144460D02*
X5588753Y-12153984D01*
X5588753Y-12153984D02*
X5626848Y-12153984D01*
X5626848Y-12153984D02*
X5645896Y-12144460D01*
X5645896Y-12144460D02*
X5655420Y-12134936D01*
X5655420Y-12134936D02*
X5664944Y-12115888D01*
X5664944Y-12115888D02*
X5664944Y-12077793D01*
X5664944Y-12077793D02*
X5655420Y-12058746D01*
X5655420Y-12058746D02*
X5645896Y-12049222D01*
X5645896Y-12049222D02*
X5626848Y-12039698D01*
X5741134Y-11953984D02*
X5741134Y-11992079D01*
X5817325Y-11953984D02*
X5817325Y-11992079D01*
X6112563Y-12230174D02*
X6103039Y-12220650D01*
X6103039Y-12220650D02*
X6083991Y-12192079D01*
X6083991Y-12192079D02*
X6074468Y-12173031D01*
X6074468Y-12173031D02*
X6064944Y-12144460D01*
X6064944Y-12144460D02*
X6055420Y-12096841D01*
X6055420Y-12096841D02*
X6055420Y-12058746D01*
X6055420Y-12058746D02*
X6064944Y-12011127D01*
X6064944Y-12011127D02*
X6074468Y-11982555D01*
X6074468Y-11982555D02*
X6083991Y-11963508D01*
X6083991Y-11963508D02*
X6103039Y-11934936D01*
X6103039Y-11934936D02*
X6112563Y-11925412D01*
X6179229Y-11973031D02*
X6188753Y-11963508D01*
X6188753Y-11963508D02*
X6207801Y-11953984D01*
X6207801Y-11953984D02*
X6255420Y-11953984D01*
X6255420Y-11953984D02*
X6274468Y-11963508D01*
X6274468Y-11963508D02*
X6283991Y-11973031D01*
X6283991Y-11973031D02*
X6293515Y-11992079D01*
X6293515Y-11992079D02*
X6293515Y-12011127D01*
X6293515Y-12011127D02*
X6283991Y-12039698D01*
X6283991Y-12039698D02*
X6169706Y-12153984D01*
X6169706Y-12153984D02*
X6293515Y-12153984D01*
X6531610Y-12153984D02*
X6531610Y-11953984D01*
X6617325Y-12153984D02*
X6617325Y-12049222D01*
X6617325Y-12049222D02*
X6607801Y-12030174D01*
X6607801Y-12030174D02*
X6588753Y-12020650D01*
X6588753Y-12020650D02*
X6560182Y-12020650D01*
X6560182Y-12020650D02*
X6541134Y-12030174D01*
X6541134Y-12030174D02*
X6531610Y-12039698D01*
X6741134Y-12153984D02*
X6722087Y-12144460D01*
X6722087Y-12144460D02*
X6712563Y-12134936D01*
X6712563Y-12134936D02*
X6703039Y-12115888D01*
X6703039Y-12115888D02*
X6703039Y-12058746D01*
X6703039Y-12058746D02*
X6712563Y-12039698D01*
X6712563Y-12039698D02*
X6722087Y-12030174D01*
X6722087Y-12030174D02*
X6741134Y-12020650D01*
X6741134Y-12020650D02*
X6769706Y-12020650D01*
X6769706Y-12020650D02*
X6788753Y-12030174D01*
X6788753Y-12030174D02*
X6798277Y-12039698D01*
X6798277Y-12039698D02*
X6807801Y-12058746D01*
X6807801Y-12058746D02*
X6807801Y-12115888D01*
X6807801Y-12115888D02*
X6798277Y-12134936D01*
X6798277Y-12134936D02*
X6788753Y-12144460D01*
X6788753Y-12144460D02*
X6769706Y-12153984D01*
X6769706Y-12153984D02*
X6741134Y-12153984D01*
X6922087Y-12153984D02*
X6903039Y-12144460D01*
X6903039Y-12144460D02*
X6893515Y-12125412D01*
X6893515Y-12125412D02*
X6893515Y-11953984D01*
X7074468Y-12144460D02*
X7055420Y-12153984D01*
X7055420Y-12153984D02*
X7017325Y-12153984D01*
X7017325Y-12153984D02*
X6998277Y-12144460D01*
X6998277Y-12144460D02*
X6988753Y-12125412D01*
X6988753Y-12125412D02*
X6988753Y-12049222D01*
X6988753Y-12049222D02*
X6998277Y-12030174D01*
X6998277Y-12030174D02*
X7017325Y-12020650D01*
X7017325Y-12020650D02*
X7055420Y-12020650D01*
X7055420Y-12020650D02*
X7074468Y-12030174D01*
X7074468Y-12030174D02*
X7083991Y-12049222D01*
X7083991Y-12049222D02*
X7083991Y-12068269D01*
X7083991Y-12068269D02*
X6988753Y-12087317D01*
X7160182Y-12144460D02*
X7179230Y-12153984D01*
X7179230Y-12153984D02*
X7217325Y-12153984D01*
X7217325Y-12153984D02*
X7236372Y-12144460D01*
X7236372Y-12144460D02*
X7245896Y-12125412D01*
X7245896Y-12125412D02*
X7245896Y-12115888D01*
X7245896Y-12115888D02*
X7236372Y-12096841D01*
X7236372Y-12096841D02*
X7217325Y-12087317D01*
X7217325Y-12087317D02*
X7188753Y-12087317D01*
X7188753Y-12087317D02*
X7169706Y-12077793D01*
X7169706Y-12077793D02*
X7160182Y-12058746D01*
X7160182Y-12058746D02*
X7160182Y-12049222D01*
X7160182Y-12049222D02*
X7169706Y-12030174D01*
X7169706Y-12030174D02*
X7188753Y-12020650D01*
X7188753Y-12020650D02*
X7217325Y-12020650D01*
X7217325Y-12020650D02*
X7236372Y-12030174D01*
X7312563Y-12230174D02*
X7322087Y-12220650D01*
X7322087Y-12220650D02*
X7341134Y-12192079D01*
X7341134Y-12192079D02*
X7350658Y-12173031D01*
X7350658Y-12173031D02*
X7360182Y-12144460D01*
X7360182Y-12144460D02*
X7369706Y-12096841D01*
X7369706Y-12096841D02*
X7369706Y-12058746D01*
X7369706Y-12058746D02*
X7360182Y-12011127D01*
X7360182Y-12011127D02*
X7350658Y-11982555D01*
X7350658Y-11982555D02*
X7341134Y-11963508D01*
X7341134Y-11963508D02*
X7322087Y-11934936D01*
X7322087Y-11934936D02*
X7312563Y-11925412D01*
X7674468Y-12230174D02*
X7664944Y-12220650D01*
X7664944Y-12220650D02*
X7645896Y-12192079D01*
X7645896Y-12192079D02*
X7636372Y-12173031D01*
X7636372Y-12173031D02*
X7626849Y-12144460D01*
X7626849Y-12144460D02*
X7617325Y-12096841D01*
X7617325Y-12096841D02*
X7617325Y-12058746D01*
X7617325Y-12058746D02*
X7626849Y-12011127D01*
X7626849Y-12011127D02*
X7636372Y-11982555D01*
X7636372Y-11982555D02*
X7645896Y-11963508D01*
X7645896Y-11963508D02*
X7664944Y-11934936D01*
X7664944Y-11934936D02*
X7674468Y-11925412D01*
X7750658Y-12020650D02*
X7750658Y-12153984D01*
X7750658Y-12039698D02*
X7760182Y-12030174D01*
X7760182Y-12030174D02*
X7779230Y-12020650D01*
X7779230Y-12020650D02*
X7807801Y-12020650D01*
X7807801Y-12020650D02*
X7826849Y-12030174D01*
X7826849Y-12030174D02*
X7836372Y-12049222D01*
X7836372Y-12049222D02*
X7836372Y-12153984D01*
X7960182Y-12153984D02*
X7941134Y-12144460D01*
X7941134Y-12144460D02*
X7931611Y-12134936D01*
X7931611Y-12134936D02*
X7922087Y-12115888D01*
X7922087Y-12115888D02*
X7922087Y-12058746D01*
X7922087Y-12058746D02*
X7931611Y-12039698D01*
X7931611Y-12039698D02*
X7941134Y-12030174D01*
X7941134Y-12030174D02*
X7960182Y-12020650D01*
X7960182Y-12020650D02*
X7988753Y-12020650D01*
X7988753Y-12020650D02*
X8007801Y-12030174D01*
X8007801Y-12030174D02*
X8017325Y-12039698D01*
X8017325Y-12039698D02*
X8026849Y-12058746D01*
X8026849Y-12058746D02*
X8026849Y-12115888D01*
X8026849Y-12115888D02*
X8017325Y-12134936D01*
X8017325Y-12134936D02*
X8007801Y-12144460D01*
X8007801Y-12144460D02*
X7988753Y-12153984D01*
X7988753Y-12153984D02*
X7960182Y-12153984D01*
X8083992Y-12020650D02*
X8160182Y-12020650D01*
X8112563Y-11953984D02*
X8112563Y-12125412D01*
X8112563Y-12125412D02*
X8122087Y-12144460D01*
X8122087Y-12144460D02*
X8141134Y-12153984D01*
X8141134Y-12153984D02*
X8160182Y-12153984D01*
X8379230Y-12020650D02*
X8379230Y-12220650D01*
X8379230Y-12030174D02*
X8398277Y-12020650D01*
X8398277Y-12020650D02*
X8436373Y-12020650D01*
X8436373Y-12020650D02*
X8455420Y-12030174D01*
X8455420Y-12030174D02*
X8464944Y-12039698D01*
X8464944Y-12039698D02*
X8474468Y-12058746D01*
X8474468Y-12058746D02*
X8474468Y-12115888D01*
X8474468Y-12115888D02*
X8464944Y-12134936D01*
X8464944Y-12134936D02*
X8455420Y-12144460D01*
X8455420Y-12144460D02*
X8436373Y-12153984D01*
X8436373Y-12153984D02*
X8398277Y-12153984D01*
X8398277Y-12153984D02*
X8379230Y-12144460D01*
X8588754Y-12153984D02*
X8569706Y-12144460D01*
X8569706Y-12144460D02*
X8560182Y-12125412D01*
X8560182Y-12125412D02*
X8560182Y-11953984D01*
X8750658Y-12153984D02*
X8750658Y-12049222D01*
X8750658Y-12049222D02*
X8741135Y-12030174D01*
X8741135Y-12030174D02*
X8722087Y-12020650D01*
X8722087Y-12020650D02*
X8683992Y-12020650D01*
X8683992Y-12020650D02*
X8664944Y-12030174D01*
X8750658Y-12144460D02*
X8731611Y-12153984D01*
X8731611Y-12153984D02*
X8683992Y-12153984D01*
X8683992Y-12153984D02*
X8664944Y-12144460D01*
X8664944Y-12144460D02*
X8655420Y-12125412D01*
X8655420Y-12125412D02*
X8655420Y-12106365D01*
X8655420Y-12106365D02*
X8664944Y-12087317D01*
X8664944Y-12087317D02*
X8683992Y-12077793D01*
X8683992Y-12077793D02*
X8731611Y-12077793D01*
X8731611Y-12077793D02*
X8750658Y-12068269D01*
X8817325Y-12020650D02*
X8893515Y-12020650D01*
X8845896Y-11953984D02*
X8845896Y-12125412D01*
X8845896Y-12125412D02*
X8855420Y-12144460D01*
X8855420Y-12144460D02*
X8874468Y-12153984D01*
X8874468Y-12153984D02*
X8893515Y-12153984D01*
X9036373Y-12144460D02*
X9017325Y-12153984D01*
X9017325Y-12153984D02*
X8979230Y-12153984D01*
X8979230Y-12153984D02*
X8960182Y-12144460D01*
X8960182Y-12144460D02*
X8950658Y-12125412D01*
X8950658Y-12125412D02*
X8950658Y-12049222D01*
X8950658Y-12049222D02*
X8960182Y-12030174D01*
X8960182Y-12030174D02*
X8979230Y-12020650D01*
X8979230Y-12020650D02*
X9017325Y-12020650D01*
X9017325Y-12020650D02*
X9036373Y-12030174D01*
X9036373Y-12030174D02*
X9045896Y-12049222D01*
X9045896Y-12049222D02*
X9045896Y-12068269D01*
X9045896Y-12068269D02*
X8950658Y-12087317D01*
X9217325Y-12153984D02*
X9217325Y-11953984D01*
X9217325Y-12144460D02*
X9198277Y-12153984D01*
X9198277Y-12153984D02*
X9160182Y-12153984D01*
X9160182Y-12153984D02*
X9141135Y-12144460D01*
X9141135Y-12144460D02*
X9131611Y-12134936D01*
X9131611Y-12134936D02*
X9122087Y-12115888D01*
X9122087Y-12115888D02*
X9122087Y-12058746D01*
X9122087Y-12058746D02*
X9131611Y-12039698D01*
X9131611Y-12039698D02*
X9141135Y-12030174D01*
X9141135Y-12030174D02*
X9160182Y-12020650D01*
X9160182Y-12020650D02*
X9198277Y-12020650D01*
X9198277Y-12020650D02*
X9217325Y-12030174D01*
X9293516Y-12230174D02*
X9303039Y-12220650D01*
X9303039Y-12220650D02*
X9322087Y-12192079D01*
X9322087Y-12192079D02*
X9331611Y-12173031D01*
X9331611Y-12173031D02*
X9341135Y-12144460D01*
X9341135Y-12144460D02*
X9350658Y-12096841D01*
X9350658Y-12096841D02*
X9350658Y-12058746D01*
X9350658Y-12058746D02*
X9341135Y-12011127D01*
X9341135Y-12011127D02*
X9331611Y-11982555D01*
X9331611Y-11982555D02*
X9322087Y-11963508D01*
X9322087Y-11963508D02*
X9303039Y-11934936D01*
X9303039Y-11934936D02*
X9293516Y-11925412D01*
M02*
