%TF.GenerationSoftware,KiCad,Pcbnew,8.0.8*%
%TF.CreationDate,2025-02-08T12:51:19+01:00*%
%TF.ProjectId,Overlord,4f766572-6c6f-4726-942e-6b696361645f,rev?*%
%TF.SameCoordinates,Original*%
%TF.FileFunction,Drillmap*%
%TF.FilePolarity,Positive*%
%FSLAX45Y45*%
G04 Gerber Fmt 4.5, Leading zero omitted, Abs format (unit mm)*
G04 Created by KiCad (PCBNEW 8.0.8) date 2025-02-08 12:51:19*
%MOMM*%
%LPD*%
G01*
G04 APERTURE LIST*
%ADD10C,0.050000*%
%ADD11C,0.200000*%
%ADD12C,0.100000*%
%ADD13C,0.104140*%
%ADD14C,0.135000*%
%ADD15C,0.230000*%
%ADD16C,0.325120*%
G04 APERTURE END LIST*
D10*
X2540000Y-11150000D02*
X2540000Y-2540000D01*
X2540000Y-2540000D02*
X18050000Y-2540000D01*
X18050000Y-2540000D02*
X18050000Y-11150000D01*
X18050000Y-11150000D02*
X2540000Y-11150000D01*
D11*
D12*
X2656000Y-2638000D02*
X2696000Y-2678000D01*
X2696000Y-2638000D02*
X2656000Y-2678000D01*
X2656000Y-2892000D02*
X2696000Y-2932000D01*
X2696000Y-2892000D02*
X2656000Y-2932000D01*
X2656000Y-3146000D02*
X2696000Y-3186000D01*
X2696000Y-3146000D02*
X2656000Y-3186000D01*
X2656000Y-3400000D02*
X2696000Y-3440000D01*
X2696000Y-3400000D02*
X2656000Y-3440000D01*
X2656000Y-3654000D02*
X2696000Y-3694000D01*
X2696000Y-3654000D02*
X2656000Y-3694000D01*
X2656000Y-3908000D02*
X2696000Y-3948000D01*
X2696000Y-3908000D02*
X2656000Y-3948000D01*
X2656000Y-4162000D02*
X2696000Y-4202000D01*
X2696000Y-4162000D02*
X2656000Y-4202000D01*
X2656000Y-4416000D02*
X2696000Y-4456000D01*
X2696000Y-4416000D02*
X2656000Y-4456000D01*
X2656000Y-4670000D02*
X2696000Y-4710000D01*
X2696000Y-4670000D02*
X2656000Y-4710000D01*
X2656000Y-4924000D02*
X2696000Y-4964000D01*
X2696000Y-4924000D02*
X2656000Y-4964000D01*
X2656000Y-5178000D02*
X2696000Y-5218000D01*
X2696000Y-5178000D02*
X2656000Y-5218000D01*
X2656000Y-5432000D02*
X2696000Y-5472000D01*
X2696000Y-5432000D02*
X2656000Y-5472000D01*
X2656000Y-5686000D02*
X2696000Y-5726000D01*
X2696000Y-5686000D02*
X2656000Y-5726000D01*
X2656000Y-5940000D02*
X2696000Y-5980000D01*
X2696000Y-5940000D02*
X2656000Y-5980000D01*
X2656000Y-6194000D02*
X2696000Y-6234000D01*
X2696000Y-6194000D02*
X2656000Y-6234000D01*
X2656000Y-6448000D02*
X2696000Y-6488000D01*
X2696000Y-6448000D02*
X2656000Y-6488000D01*
X2656000Y-6702000D02*
X2696000Y-6742000D01*
X2696000Y-6702000D02*
X2656000Y-6742000D01*
X2656000Y-6956000D02*
X2696000Y-6996000D01*
X2696000Y-6956000D02*
X2656000Y-6996000D01*
X2656000Y-7210000D02*
X2696000Y-7250000D01*
X2696000Y-7210000D02*
X2656000Y-7250000D01*
X2656000Y-7464000D02*
X2696000Y-7504000D01*
X2696000Y-7464000D02*
X2656000Y-7504000D01*
X2656000Y-7718000D02*
X2696000Y-7758000D01*
X2696000Y-7718000D02*
X2656000Y-7758000D01*
X2656000Y-7972000D02*
X2696000Y-8012000D01*
X2696000Y-7972000D02*
X2656000Y-8012000D01*
X2656000Y-8226000D02*
X2696000Y-8266000D01*
X2696000Y-8226000D02*
X2656000Y-8266000D01*
X2656000Y-8480000D02*
X2696000Y-8520000D01*
X2696000Y-8480000D02*
X2656000Y-8520000D01*
X2656000Y-8734000D02*
X2696000Y-8774000D01*
X2696000Y-8734000D02*
X2656000Y-8774000D01*
X2656000Y-8988000D02*
X2696000Y-9028000D01*
X2696000Y-8988000D02*
X2656000Y-9028000D01*
X2656000Y-9242000D02*
X2696000Y-9282000D01*
X2696000Y-9242000D02*
X2656000Y-9282000D01*
X2656000Y-9496000D02*
X2696000Y-9536000D01*
X2696000Y-9496000D02*
X2656000Y-9536000D01*
X2656000Y-9750000D02*
X2696000Y-9790000D01*
X2696000Y-9750000D02*
X2656000Y-9790000D01*
X2656000Y-10004000D02*
X2696000Y-10044000D01*
X2696000Y-10004000D02*
X2656000Y-10044000D01*
X2656000Y-10258000D02*
X2696000Y-10298000D01*
X2696000Y-10258000D02*
X2656000Y-10298000D01*
X2656000Y-10512000D02*
X2696000Y-10552000D01*
X2696000Y-10512000D02*
X2656000Y-10552000D01*
X2656000Y-10766000D02*
X2696000Y-10806000D01*
X2696000Y-10766000D02*
X2656000Y-10806000D01*
X2656000Y-11020000D02*
X2696000Y-11060000D01*
X2696000Y-11020000D02*
X2656000Y-11060000D01*
X2910000Y-2638000D02*
X2950000Y-2678000D01*
X2950000Y-2638000D02*
X2910000Y-2678000D01*
X2910000Y-5686000D02*
X2950000Y-5726000D01*
X2950000Y-5686000D02*
X2910000Y-5726000D01*
X2910000Y-8734000D02*
X2950000Y-8774000D01*
X2950000Y-8734000D02*
X2910000Y-8774000D01*
X2910000Y-11020000D02*
X2950000Y-11060000D01*
X2950000Y-11020000D02*
X2910000Y-11060000D01*
X3164000Y-2638000D02*
X3204000Y-2678000D01*
X3204000Y-2638000D02*
X3164000Y-2678000D01*
X3164000Y-5686000D02*
X3204000Y-5726000D01*
X3204000Y-5686000D02*
X3164000Y-5726000D01*
X3164000Y-8734000D02*
X3204000Y-8774000D01*
X3204000Y-8734000D02*
X3164000Y-8774000D01*
X3164000Y-11020000D02*
X3204000Y-11060000D01*
X3204000Y-11020000D02*
X3164000Y-11060000D01*
X3190000Y-10545000D02*
X3230000Y-10585000D01*
X3230000Y-10545000D02*
X3190000Y-10585000D01*
X3355000Y-6970000D02*
X3395000Y-7010000D01*
X3395000Y-6970000D02*
X3355000Y-7010000D01*
X3390000Y-4020000D02*
X3430000Y-4060000D01*
X3430000Y-4020000D02*
X3390000Y-4060000D01*
X3395000Y-4565000D02*
X3435000Y-4605000D01*
X3435000Y-4565000D02*
X3395000Y-4605000D01*
X3410000Y-6465000D02*
X3450000Y-6505000D01*
X3450000Y-6465000D02*
X3410000Y-6505000D01*
X3418000Y-2638000D02*
X3458000Y-2678000D01*
X3458000Y-2638000D02*
X3418000Y-2678000D01*
X3418000Y-5686000D02*
X3458000Y-5726000D01*
X3458000Y-5686000D02*
X3418000Y-5726000D01*
X3418000Y-8734000D02*
X3458000Y-8774000D01*
X3458000Y-8734000D02*
X3418000Y-8774000D01*
X3418000Y-11020000D02*
X3458000Y-11060000D01*
X3458000Y-11020000D02*
X3418000Y-11060000D01*
X3515000Y-8125000D02*
X3555000Y-8165000D01*
X3555000Y-8125000D02*
X3515000Y-8165000D01*
X3585000Y-5160000D02*
X3625000Y-5200000D01*
X3625000Y-5160000D02*
X3585000Y-5200000D01*
X3672000Y-2638000D02*
X3712000Y-2678000D01*
X3712000Y-2638000D02*
X3672000Y-2678000D01*
X3672000Y-5686000D02*
X3712000Y-5726000D01*
X3712000Y-5686000D02*
X3672000Y-5726000D01*
X3672000Y-8734000D02*
X3712000Y-8774000D01*
X3712000Y-8734000D02*
X3672000Y-8774000D01*
X3672000Y-11020000D02*
X3712000Y-11060000D01*
X3712000Y-11020000D02*
X3672000Y-11060000D01*
X3790000Y-9305000D02*
X3830000Y-9345000D01*
X3830000Y-9305000D02*
X3790000Y-9345000D01*
X3926000Y-2638000D02*
X3966000Y-2678000D01*
X3966000Y-2638000D02*
X3926000Y-2678000D01*
X3926000Y-5686000D02*
X3966000Y-5726000D01*
X3966000Y-5686000D02*
X3926000Y-5726000D01*
X3926000Y-8734000D02*
X3966000Y-8774000D01*
X3966000Y-8734000D02*
X3926000Y-8774000D01*
X3926000Y-11020000D02*
X3966000Y-11060000D01*
X3966000Y-11020000D02*
X3926000Y-11060000D01*
X4025000Y-5165000D02*
X4065000Y-5205000D01*
X4065000Y-5165000D02*
X4025000Y-5205000D01*
X4180000Y-2638000D02*
X4220000Y-2678000D01*
X4220000Y-2638000D02*
X4180000Y-2678000D01*
X4180000Y-5940000D02*
X4220000Y-5980000D01*
X4220000Y-5940000D02*
X4180000Y-5980000D01*
X4180000Y-8734000D02*
X4220000Y-8774000D01*
X4220000Y-8734000D02*
X4180000Y-8774000D01*
X4180000Y-11020000D02*
X4220000Y-11060000D01*
X4220000Y-11020000D02*
X4180000Y-11060000D01*
X4255000Y-9105000D02*
X4295000Y-9145000D01*
X4295000Y-9105000D02*
X4255000Y-9145000D01*
X4260000Y-7430000D02*
X4300000Y-7470000D01*
X4300000Y-7430000D02*
X4260000Y-7470000D01*
X4425000Y-4670000D02*
X4465000Y-4710000D01*
X4465000Y-4670000D02*
X4425000Y-4710000D01*
X4434000Y-2638000D02*
X4474000Y-2678000D01*
X4474000Y-2638000D02*
X4434000Y-2678000D01*
X4434000Y-6194000D02*
X4474000Y-6234000D01*
X4474000Y-6194000D02*
X4434000Y-6234000D01*
X4434000Y-8734000D02*
X4474000Y-8774000D01*
X4474000Y-8734000D02*
X4434000Y-8774000D01*
X4434000Y-11020000D02*
X4474000Y-11060000D01*
X4474000Y-11020000D02*
X4434000Y-11060000D01*
X4510000Y-3905000D02*
X4550000Y-3945000D01*
X4550000Y-3905000D02*
X4510000Y-3945000D01*
X4510000Y-4040000D02*
X4550000Y-4080000D01*
X4550000Y-4040000D02*
X4510000Y-4080000D01*
X4610000Y-4795000D02*
X4650000Y-4835000D01*
X4650000Y-4795000D02*
X4610000Y-4835000D01*
X4675000Y-7455000D02*
X4715000Y-7495000D01*
X4715000Y-7455000D02*
X4675000Y-7495000D01*
X4688000Y-2638000D02*
X4728000Y-2678000D01*
X4728000Y-2638000D02*
X4688000Y-2678000D01*
X4688000Y-6194000D02*
X4728000Y-6234000D01*
X4728000Y-6194000D02*
X4688000Y-6234000D01*
X4688000Y-8734000D02*
X4728000Y-8774000D01*
X4728000Y-8734000D02*
X4688000Y-8774000D01*
X4688000Y-11020000D02*
X4728000Y-11060000D01*
X4728000Y-11020000D02*
X4688000Y-11060000D01*
X4815000Y-8235000D02*
X4855000Y-8275000D01*
X4855000Y-8235000D02*
X4815000Y-8275000D01*
X4935000Y-3820000D02*
X4975000Y-3860000D01*
X4975000Y-3820000D02*
X4935000Y-3860000D01*
X4942000Y-2638000D02*
X4982000Y-2678000D01*
X4982000Y-2638000D02*
X4942000Y-2678000D01*
X4942000Y-6194000D02*
X4982000Y-6234000D01*
X4982000Y-6194000D02*
X4942000Y-6234000D01*
X4942000Y-8734000D02*
X4982000Y-8774000D01*
X4982000Y-8734000D02*
X4942000Y-8774000D01*
X4942000Y-11020000D02*
X4982000Y-11060000D01*
X4982000Y-11020000D02*
X4942000Y-11060000D01*
X4945000Y-4200000D02*
X4985000Y-4240000D01*
X4985000Y-4200000D02*
X4945000Y-4240000D01*
X4975000Y-5075000D02*
X5015000Y-5115000D01*
X5015000Y-5075000D02*
X4975000Y-5115000D01*
X5075000Y-6880000D02*
X5115000Y-6920000D01*
X5115000Y-6880000D02*
X5075000Y-6920000D01*
X5196000Y-2638000D02*
X5236000Y-2678000D01*
X5236000Y-2638000D02*
X5196000Y-2678000D01*
X5196000Y-6194000D02*
X5236000Y-6234000D01*
X5236000Y-6194000D02*
X5196000Y-6234000D01*
X5196000Y-8734000D02*
X5236000Y-8774000D01*
X5236000Y-8734000D02*
X5196000Y-8774000D01*
X5196000Y-11020000D02*
X5236000Y-11060000D01*
X5236000Y-11020000D02*
X5196000Y-11060000D01*
X5210000Y-3890000D02*
X5250000Y-3930000D01*
X5250000Y-3890000D02*
X5210000Y-3930000D01*
X5225000Y-5635000D02*
X5265000Y-5675000D01*
X5265000Y-5635000D02*
X5225000Y-5675000D01*
X5260000Y-7580000D02*
X5300000Y-7620000D01*
X5300000Y-7580000D02*
X5260000Y-7620000D01*
X5400000Y-4560000D02*
X5440000Y-4600000D01*
X5440000Y-4560000D02*
X5400000Y-4600000D01*
X5435000Y-8365000D02*
X5475000Y-8405000D01*
X5475000Y-8365000D02*
X5435000Y-8405000D01*
X5450000Y-2638000D02*
X5490000Y-2678000D01*
X5490000Y-2638000D02*
X5450000Y-2678000D01*
X5450000Y-6194000D02*
X5490000Y-6234000D01*
X5490000Y-6194000D02*
X5450000Y-6234000D01*
X5450000Y-8734000D02*
X5490000Y-8774000D01*
X5490000Y-8734000D02*
X5450000Y-8774000D01*
X5450000Y-11020000D02*
X5490000Y-11060000D01*
X5490000Y-11020000D02*
X5450000Y-11060000D01*
X5465000Y-5155000D02*
X5505000Y-5195000D01*
X5505000Y-5155000D02*
X5465000Y-5195000D01*
X5660000Y-6480000D02*
X5700000Y-6520000D01*
X5700000Y-6480000D02*
X5660000Y-6520000D01*
X5704000Y-2638000D02*
X5744000Y-2678000D01*
X5744000Y-2638000D02*
X5704000Y-2678000D01*
X5704000Y-8734000D02*
X5744000Y-8774000D01*
X5744000Y-8734000D02*
X5704000Y-8774000D01*
X5704000Y-11020000D02*
X5744000Y-11060000D01*
X5744000Y-11020000D02*
X5704000Y-11060000D01*
X5705000Y-10890000D02*
X5745000Y-10930000D01*
X5745000Y-10890000D02*
X5705000Y-10930000D01*
X5850000Y-10105000D02*
X5890000Y-10145000D01*
X5890000Y-10105000D02*
X5850000Y-10145000D01*
X5920000Y-5140000D02*
X5960000Y-5180000D01*
X5960000Y-5140000D02*
X5920000Y-5180000D01*
X5958000Y-2638000D02*
X5998000Y-2678000D01*
X5998000Y-2638000D02*
X5958000Y-2678000D01*
X5958000Y-6702000D02*
X5998000Y-6742000D01*
X5998000Y-6702000D02*
X5958000Y-6742000D01*
X5958000Y-6956000D02*
X5998000Y-6996000D01*
X5998000Y-6956000D02*
X5958000Y-6996000D01*
X5958000Y-7210000D02*
X5998000Y-7250000D01*
X5998000Y-7210000D02*
X5958000Y-7250000D01*
X5958000Y-7464000D02*
X5998000Y-7504000D01*
X5998000Y-7464000D02*
X5958000Y-7504000D01*
X5958000Y-7718000D02*
X5998000Y-7758000D01*
X5998000Y-7718000D02*
X5958000Y-7758000D01*
X5958000Y-7972000D02*
X5998000Y-8012000D01*
X5998000Y-7972000D02*
X5958000Y-8012000D01*
X5958000Y-8226000D02*
X5998000Y-8266000D01*
X5998000Y-8226000D02*
X5958000Y-8266000D01*
X5958000Y-8480000D02*
X5998000Y-8520000D01*
X5998000Y-8480000D02*
X5958000Y-8520000D01*
X5958000Y-8734000D02*
X5998000Y-8774000D01*
X5998000Y-8734000D02*
X5958000Y-8774000D01*
X5958000Y-11020000D02*
X5998000Y-11060000D01*
X5998000Y-11020000D02*
X5958000Y-11060000D01*
X6080000Y-4185000D02*
X6120000Y-4225000D01*
X6120000Y-4185000D02*
X6080000Y-4225000D01*
X6170000Y-3785000D02*
X6210000Y-3825000D01*
X6210000Y-3785000D02*
X6170000Y-3825000D01*
X6212000Y-2638000D02*
X6252000Y-2678000D01*
X6252000Y-2638000D02*
X6212000Y-2678000D01*
X6212000Y-11020000D02*
X6252000Y-11060000D01*
X6252000Y-11020000D02*
X6212000Y-11060000D01*
X6290000Y-9140000D02*
X6330000Y-9180000D01*
X6330000Y-9140000D02*
X6290000Y-9180000D01*
X6305000Y-9820000D02*
X6345000Y-9860000D01*
X6345000Y-9820000D02*
X6305000Y-9860000D01*
X6315000Y-8860000D02*
X6355000Y-8900000D01*
X6355000Y-8860000D02*
X6315000Y-8900000D01*
X6466000Y-2638000D02*
X6506000Y-2678000D01*
X6506000Y-2638000D02*
X6466000Y-2678000D01*
X6466000Y-11020000D02*
X6506000Y-11060000D01*
X6506000Y-11020000D02*
X6466000Y-11060000D01*
X6630000Y-9760000D02*
X6670000Y-9800000D01*
X6670000Y-9760000D02*
X6630000Y-9800000D01*
X6715000Y-4910000D02*
X6755000Y-4950000D01*
X6755000Y-4910000D02*
X6715000Y-4950000D01*
X6720000Y-2638000D02*
X6760000Y-2678000D01*
X6760000Y-2638000D02*
X6720000Y-2678000D01*
X6720000Y-11020000D02*
X6760000Y-11060000D01*
X6760000Y-11020000D02*
X6720000Y-11060000D01*
X6790000Y-5520000D02*
X6830000Y-5560000D01*
X6830000Y-5520000D02*
X6790000Y-5560000D01*
X6860000Y-10535000D02*
X6900000Y-10575000D01*
X6900000Y-10535000D02*
X6860000Y-10575000D01*
X6915000Y-9160000D02*
X6955000Y-9200000D01*
X6955000Y-9160000D02*
X6915000Y-9200000D01*
X6935000Y-4540000D02*
X6975000Y-4580000D01*
X6975000Y-4540000D02*
X6935000Y-4580000D01*
X6974000Y-2638000D02*
X7014000Y-2678000D01*
X7014000Y-2638000D02*
X6974000Y-2678000D01*
X6974000Y-11020000D02*
X7014000Y-11060000D01*
X7014000Y-11020000D02*
X6974000Y-11060000D01*
X7005000Y-7955000D02*
X7045000Y-7995000D01*
X7045000Y-7955000D02*
X7005000Y-7995000D01*
X7015000Y-5165000D02*
X7055000Y-5205000D01*
X7055000Y-5165000D02*
X7015000Y-5205000D01*
X7075000Y-10000000D02*
X7115000Y-10040000D01*
X7115000Y-10000000D02*
X7075000Y-10040000D01*
X7220000Y-3880000D02*
X7260000Y-3920000D01*
X7260000Y-3880000D02*
X7220000Y-3920000D01*
X7228000Y-2638000D02*
X7268000Y-2678000D01*
X7268000Y-2638000D02*
X7228000Y-2678000D01*
X7228000Y-11020000D02*
X7268000Y-11060000D01*
X7268000Y-11020000D02*
X7228000Y-11060000D01*
X7250000Y-7465000D02*
X7290000Y-7505000D01*
X7290000Y-7465000D02*
X7250000Y-7505000D01*
X7400000Y-9880000D02*
X7440000Y-9920000D01*
X7440000Y-9880000D02*
X7400000Y-9920000D01*
X7482000Y-2638000D02*
X7522000Y-2678000D01*
X7522000Y-2638000D02*
X7482000Y-2678000D01*
X7482000Y-11020000D02*
X7522000Y-11060000D01*
X7522000Y-11020000D02*
X7482000Y-11060000D01*
X7595000Y-6025000D02*
X7635000Y-6065000D01*
X7635000Y-6025000D02*
X7595000Y-6065000D01*
X7605000Y-9695000D02*
X7645000Y-9735000D01*
X7645000Y-9695000D02*
X7605000Y-9735000D01*
X7720000Y-7225000D02*
X7760000Y-7265000D01*
X7760000Y-7225000D02*
X7720000Y-7265000D01*
X7730000Y-3800000D02*
X7770000Y-3840000D01*
X7770000Y-3800000D02*
X7730000Y-3840000D01*
X7736000Y-2638000D02*
X7776000Y-2678000D01*
X7776000Y-2638000D02*
X7736000Y-2678000D01*
X7736000Y-11020000D02*
X7776000Y-11060000D01*
X7776000Y-11020000D02*
X7736000Y-11060000D01*
X7800000Y-5230000D02*
X7840000Y-5270000D01*
X7840000Y-5230000D02*
X7800000Y-5270000D01*
X7990000Y-2638000D02*
X8030000Y-2678000D01*
X8030000Y-2638000D02*
X7990000Y-2678000D01*
X7990000Y-11020000D02*
X8030000Y-11060000D01*
X8030000Y-11020000D02*
X7990000Y-11060000D01*
X7997500Y-7805000D02*
X8037500Y-7845000D01*
X8037500Y-7805000D02*
X7997500Y-7845000D01*
X8018500Y-4623500D02*
X8058500Y-4663500D01*
X8058500Y-4623500D02*
X8018500Y-4663500D01*
X8065000Y-7913000D02*
X8105000Y-7953000D01*
X8105000Y-7913000D02*
X8065000Y-7953000D01*
X8065000Y-8055000D02*
X8105000Y-8095000D01*
X8105000Y-8055000D02*
X8065000Y-8095000D01*
X8095000Y-3930000D02*
X8135000Y-3970000D01*
X8135000Y-3930000D02*
X8095000Y-3970000D01*
X8095000Y-4040000D02*
X8135000Y-4080000D01*
X8135000Y-4040000D02*
X8095000Y-4080000D01*
X8165000Y-6870000D02*
X8205000Y-6910000D01*
X8205000Y-6870000D02*
X8165000Y-6910000D01*
X8170000Y-8700000D02*
X8210000Y-8740000D01*
X8210000Y-8700000D02*
X8170000Y-8740000D01*
X8190000Y-7395000D02*
X8230000Y-7435000D01*
X8230000Y-7395000D02*
X8190000Y-7435000D01*
X8190500Y-7644000D02*
X8230500Y-7684000D01*
X8230500Y-7644000D02*
X8190500Y-7684000D01*
X8200000Y-8510000D02*
X8240000Y-8550000D01*
X8240000Y-8510000D02*
X8200000Y-8550000D01*
X8244000Y-2638000D02*
X8284000Y-2678000D01*
X8284000Y-2638000D02*
X8244000Y-2678000D01*
X8244000Y-11020000D02*
X8284000Y-11060000D01*
X8284000Y-11020000D02*
X8244000Y-11060000D01*
X8260500Y-4750500D02*
X8300500Y-4790500D01*
X8300500Y-4750500D02*
X8260500Y-4790500D01*
X8275000Y-9025000D02*
X8315000Y-9065000D01*
X8315000Y-9025000D02*
X8275000Y-9065000D01*
X8362500Y-8877500D02*
X8402500Y-8917500D01*
X8402500Y-8877500D02*
X8362500Y-8917500D01*
X8498000Y-2638000D02*
X8538000Y-2678000D01*
X8538000Y-2638000D02*
X8498000Y-2678000D01*
X8498000Y-11020000D02*
X8538000Y-11060000D01*
X8538000Y-11020000D02*
X8498000Y-11060000D01*
X8515000Y-5240000D02*
X8555000Y-5280000D01*
X8555000Y-5240000D02*
X8515000Y-5280000D01*
X8575000Y-4215000D02*
X8615000Y-4255000D01*
X8615000Y-4215000D02*
X8575000Y-4255000D01*
X8735000Y-3695000D02*
X8775000Y-3735000D01*
X8775000Y-3695000D02*
X8735000Y-3735000D01*
X8752000Y-2638000D02*
X8792000Y-2678000D01*
X8792000Y-2638000D02*
X8752000Y-2678000D01*
X8752000Y-11020000D02*
X8792000Y-11060000D01*
X8792000Y-11020000D02*
X8752000Y-11060000D01*
X8790000Y-5760000D02*
X8830000Y-5800000D01*
X8830000Y-5760000D02*
X8790000Y-5800000D01*
X9006000Y-2638000D02*
X9046000Y-2678000D01*
X9046000Y-2638000D02*
X9006000Y-2678000D01*
X9006000Y-11020000D02*
X9046000Y-11060000D01*
X9046000Y-11020000D02*
X9006000Y-11060000D01*
X9035000Y-5730000D02*
X9075000Y-5770000D01*
X9075000Y-5730000D02*
X9035000Y-5770000D01*
X9045000Y-10630000D02*
X9085000Y-10670000D01*
X9085000Y-10630000D02*
X9045000Y-10670000D01*
X9065000Y-3890000D02*
X9105000Y-3930000D01*
X9105000Y-3890000D02*
X9065000Y-3930000D01*
X9090000Y-5260000D02*
X9130000Y-5300000D01*
X9130000Y-5260000D02*
X9090000Y-5300000D01*
X9185000Y-6510000D02*
X9225000Y-6550000D01*
X9225000Y-6510000D02*
X9185000Y-6550000D01*
X9210000Y-8135000D02*
X9250000Y-8175000D01*
X9250000Y-8135000D02*
X9210000Y-8175000D01*
X9250000Y-6865000D02*
X9290000Y-6905000D01*
X9290000Y-6865000D02*
X9250000Y-6905000D01*
X9260000Y-2638000D02*
X9300000Y-2678000D01*
X9300000Y-2638000D02*
X9260000Y-2678000D01*
X9260000Y-11020000D02*
X9300000Y-11060000D01*
X9300000Y-11020000D02*
X9260000Y-11060000D01*
X9288500Y-5720000D02*
X9328500Y-5760000D01*
X9328500Y-5720000D02*
X9288500Y-5760000D01*
X9395000Y-3695000D02*
X9435000Y-3735000D01*
X9435000Y-3695000D02*
X9395000Y-3735000D01*
X9480000Y-5690000D02*
X9520000Y-5730000D01*
X9520000Y-5690000D02*
X9480000Y-5730000D01*
X9514000Y-2638000D02*
X9554000Y-2678000D01*
X9554000Y-2638000D02*
X9514000Y-2678000D01*
X9514000Y-11020000D02*
X9554000Y-11060000D01*
X9554000Y-11020000D02*
X9514000Y-11060000D01*
X9670000Y-4260000D02*
X9710000Y-4300000D01*
X9710000Y-4260000D02*
X9670000Y-4300000D01*
X9670000Y-10095000D02*
X9710000Y-10135000D01*
X9710000Y-10095000D02*
X9670000Y-10135000D01*
X9768000Y-2638000D02*
X9808000Y-2678000D01*
X9808000Y-2638000D02*
X9768000Y-2678000D01*
X9768000Y-11020000D02*
X9808000Y-11060000D01*
X9808000Y-11020000D02*
X9768000Y-11060000D01*
X9960000Y-4845000D02*
X10000000Y-4885000D01*
X10000000Y-4845000D02*
X9960000Y-4885000D01*
X10022000Y-2638000D02*
X10062000Y-2678000D01*
X10062000Y-2638000D02*
X10022000Y-2678000D01*
X10022000Y-11020000D02*
X10062000Y-11060000D01*
X10062000Y-11020000D02*
X10022000Y-11060000D01*
X10095000Y-10585000D02*
X10135000Y-10625000D01*
X10135000Y-10585000D02*
X10095000Y-10625000D01*
X10097500Y-9040000D02*
X10137500Y-9080000D01*
X10137500Y-9040000D02*
X10097500Y-9080000D01*
X10235000Y-9040000D02*
X10275000Y-9080000D01*
X10275000Y-9040000D02*
X10235000Y-9080000D01*
X10276000Y-2638000D02*
X10316000Y-2678000D01*
X10316000Y-2638000D02*
X10276000Y-2678000D01*
X10276000Y-11020000D02*
X10316000Y-11060000D01*
X10316000Y-11020000D02*
X10276000Y-11060000D01*
X10335000Y-4145000D02*
X10375000Y-4185000D01*
X10375000Y-4145000D02*
X10335000Y-4185000D01*
X10372500Y-9040000D02*
X10412500Y-9080000D01*
X10412500Y-9040000D02*
X10372500Y-9080000D01*
X10530000Y-2638000D02*
X10570000Y-2678000D01*
X10570000Y-2638000D02*
X10530000Y-2678000D01*
X10530000Y-11020000D02*
X10570000Y-11060000D01*
X10570000Y-11020000D02*
X10530000Y-11060000D01*
X10565000Y-6525000D02*
X10605000Y-6565000D01*
X10605000Y-6525000D02*
X10565000Y-6565000D01*
X10585000Y-4540000D02*
X10625000Y-4580000D01*
X10625000Y-4540000D02*
X10585000Y-4580000D01*
X10585000Y-8135000D02*
X10625000Y-8175000D01*
X10625000Y-8135000D02*
X10585000Y-8175000D01*
X10630000Y-5195000D02*
X10670000Y-5235000D01*
X10670000Y-5195000D02*
X10630000Y-5235000D01*
X10755000Y-5725000D02*
X10795000Y-5765000D01*
X10795000Y-5725000D02*
X10755000Y-5765000D01*
X10784000Y-2638000D02*
X10824000Y-2678000D01*
X10824000Y-2638000D02*
X10784000Y-2678000D01*
X10784000Y-11020000D02*
X10824000Y-11060000D01*
X10824000Y-11020000D02*
X10784000Y-11060000D01*
X11000000Y-5685000D02*
X11040000Y-5725000D01*
X11040000Y-5685000D02*
X11000000Y-5725000D01*
X11005000Y-10210000D02*
X11045000Y-10250000D01*
X11045000Y-10210000D02*
X11005000Y-10250000D01*
X11035000Y-8430000D02*
X11075000Y-8470000D01*
X11075000Y-8430000D02*
X11035000Y-8470000D01*
X11038000Y-2638000D02*
X11078000Y-2678000D01*
X11078000Y-2638000D02*
X11038000Y-2678000D01*
X11038000Y-11020000D02*
X11078000Y-11060000D01*
X11078000Y-11020000D02*
X11038000Y-11060000D01*
X11225000Y-5680000D02*
X11265000Y-5720000D01*
X11265000Y-5680000D02*
X11225000Y-5720000D01*
X11292000Y-2638000D02*
X11332000Y-2678000D01*
X11332000Y-2638000D02*
X11292000Y-2678000D01*
X11292000Y-11020000D02*
X11332000Y-11060000D01*
X11332000Y-11020000D02*
X11292000Y-11060000D01*
X11350000Y-3875000D02*
X11390000Y-3915000D01*
X11390000Y-3875000D02*
X11350000Y-3915000D01*
X11385000Y-5225000D02*
X11425000Y-5265000D01*
X11425000Y-5225000D02*
X11385000Y-5265000D01*
X11546000Y-2638000D02*
X11586000Y-2678000D01*
X11586000Y-2638000D02*
X11546000Y-2678000D01*
X11546000Y-11020000D02*
X11586000Y-11060000D01*
X11586000Y-11020000D02*
X11546000Y-11060000D01*
X11615000Y-10555000D02*
X11655000Y-10595000D01*
X11655000Y-10555000D02*
X11615000Y-10595000D01*
X11630000Y-9175000D02*
X11670000Y-9215000D01*
X11670000Y-9175000D02*
X11630000Y-9215000D01*
X11651000Y-8266000D02*
X11691000Y-8306000D01*
X11691000Y-8266000D02*
X11651000Y-8306000D01*
X11668500Y-4623500D02*
X11708500Y-4663500D01*
X11708500Y-4623500D02*
X11668500Y-4663500D01*
X11705000Y-3935000D02*
X11745000Y-3975000D01*
X11745000Y-3935000D02*
X11705000Y-3975000D01*
X11705000Y-4040000D02*
X11745000Y-4080000D01*
X11745000Y-4040000D02*
X11705000Y-4080000D01*
X11705000Y-7674334D02*
X11745000Y-7714334D01*
X11745000Y-7674334D02*
X11705000Y-7714334D01*
X11705000Y-7784667D02*
X11745000Y-7824667D01*
X11745000Y-7784667D02*
X11705000Y-7824667D01*
X11705000Y-7895000D02*
X11745000Y-7935000D01*
X11745000Y-7895000D02*
X11705000Y-7935000D01*
X11705000Y-8005333D02*
X11745000Y-8045333D01*
X11745000Y-8005333D02*
X11705000Y-8045333D01*
X11800000Y-2638000D02*
X11840000Y-2678000D01*
X11840000Y-2638000D02*
X11800000Y-2678000D01*
X11800000Y-11020000D02*
X11840000Y-11060000D01*
X11840000Y-11020000D02*
X11800000Y-11060000D01*
X11860500Y-4750500D02*
X11900500Y-4790500D01*
X11900500Y-4750500D02*
X11860500Y-4790500D01*
X11870000Y-3695000D02*
X11910000Y-3735000D01*
X11910000Y-3695000D02*
X11870000Y-3735000D01*
X11880000Y-5285000D02*
X11920000Y-5325000D01*
X11920000Y-5285000D02*
X11880000Y-5325000D01*
X11905000Y-8959509D02*
X11945000Y-8999509D01*
X11945000Y-8959509D02*
X11905000Y-8999509D01*
X11910000Y-9410000D02*
X11950000Y-9450000D01*
X11950000Y-9410000D02*
X11910000Y-9450000D01*
X11925000Y-8840000D02*
X11965000Y-8880000D01*
X11965000Y-8840000D02*
X11925000Y-8880000D01*
X11970000Y-7780000D02*
X12010000Y-7820000D01*
X12010000Y-7780000D02*
X11970000Y-7820000D01*
X12054000Y-2638000D02*
X12094000Y-2678000D01*
X12094000Y-2638000D02*
X12054000Y-2678000D01*
X12054000Y-11020000D02*
X12094000Y-11060000D01*
X12094000Y-11020000D02*
X12054000Y-11060000D01*
X12080000Y-9125000D02*
X12120000Y-9165000D01*
X12120000Y-9125000D02*
X12080000Y-9165000D01*
X12085000Y-6380000D02*
X12125000Y-6420000D01*
X12125000Y-6380000D02*
X12085000Y-6420000D01*
X12090000Y-9625000D02*
X12130000Y-9665000D01*
X12130000Y-9625000D02*
X12090000Y-9665000D01*
X12195000Y-3855000D02*
X12235000Y-3895000D01*
X12235000Y-3855000D02*
X12195000Y-3895000D01*
X12308000Y-2638000D02*
X12348000Y-2678000D01*
X12348000Y-2638000D02*
X12308000Y-2678000D01*
X12308000Y-11020000D02*
X12348000Y-11060000D01*
X12348000Y-11020000D02*
X12308000Y-11060000D01*
X12465000Y-4575000D02*
X12505000Y-4615000D01*
X12505000Y-4575000D02*
X12465000Y-4615000D01*
X12550000Y-5960000D02*
X12590000Y-6000000D01*
X12590000Y-5960000D02*
X12550000Y-6000000D01*
X12562000Y-2638000D02*
X12602000Y-2678000D01*
X12602000Y-2638000D02*
X12562000Y-2678000D01*
X12562000Y-11020000D02*
X12602000Y-11060000D01*
X12602000Y-11020000D02*
X12562000Y-11060000D01*
X12630000Y-6305000D02*
X12670000Y-6345000D01*
X12670000Y-6305000D02*
X12630000Y-6345000D01*
X12675000Y-3865000D02*
X12715000Y-3905000D01*
X12715000Y-3865000D02*
X12675000Y-3905000D01*
X12695000Y-8410000D02*
X12735000Y-8450000D01*
X12735000Y-8410000D02*
X12695000Y-8450000D01*
X12720000Y-5265000D02*
X12760000Y-5305000D01*
X12760000Y-5265000D02*
X12720000Y-5305000D01*
X12775000Y-8950000D02*
X12815000Y-8990000D01*
X12815000Y-8950000D02*
X12775000Y-8990000D01*
X12816000Y-2638000D02*
X12856000Y-2678000D01*
X12856000Y-2638000D02*
X12816000Y-2678000D01*
X12816000Y-11020000D02*
X12856000Y-11060000D01*
X12856000Y-11020000D02*
X12816000Y-11060000D01*
X12835000Y-7350000D02*
X12875000Y-7390000D01*
X12875000Y-7350000D02*
X12835000Y-7390000D01*
X12970000Y-9565000D02*
X13010000Y-9605000D01*
X13010000Y-9565000D02*
X12970000Y-9605000D01*
X13015000Y-4580000D02*
X13055000Y-4620000D01*
X13055000Y-4580000D02*
X13015000Y-4620000D01*
X13070000Y-2638000D02*
X13110000Y-2678000D01*
X13110000Y-2638000D02*
X13070000Y-2678000D01*
X13070000Y-11020000D02*
X13110000Y-11060000D01*
X13110000Y-11020000D02*
X13070000Y-11060000D01*
X13195000Y-8410000D02*
X13235000Y-8450000D01*
X13235000Y-8410000D02*
X13195000Y-8450000D01*
X13324000Y-2638000D02*
X13364000Y-2678000D01*
X13364000Y-2638000D02*
X13324000Y-2678000D01*
X13324000Y-11020000D02*
X13364000Y-11060000D01*
X13364000Y-11020000D02*
X13324000Y-11060000D01*
X13495000Y-9575000D02*
X13535000Y-9615000D01*
X13535000Y-9575000D02*
X13495000Y-9615000D01*
X13578000Y-2638000D02*
X13618000Y-2678000D01*
X13618000Y-2638000D02*
X13578000Y-2678000D01*
X13578000Y-11020000D02*
X13618000Y-11060000D01*
X13618000Y-11020000D02*
X13578000Y-11060000D01*
X13620000Y-6410000D02*
X13660000Y-6450000D01*
X13660000Y-6410000D02*
X13620000Y-6450000D01*
X13690000Y-5080000D02*
X13730000Y-5120000D01*
X13730000Y-5080000D02*
X13690000Y-5120000D01*
X13710000Y-5590000D02*
X13750000Y-5630000D01*
X13750000Y-5590000D02*
X13710000Y-5630000D01*
X13725000Y-8805000D02*
X13765000Y-8845000D01*
X13765000Y-8805000D02*
X13725000Y-8845000D01*
X13770000Y-8250000D02*
X13810000Y-8290000D01*
X13810000Y-8250000D02*
X13770000Y-8290000D01*
X13832000Y-2638000D02*
X13872000Y-2678000D01*
X13872000Y-2638000D02*
X13832000Y-2678000D01*
X13832000Y-11020000D02*
X13872000Y-11060000D01*
X13872000Y-11020000D02*
X13832000Y-11060000D01*
X13895000Y-4150000D02*
X13935000Y-4190000D01*
X13935000Y-4150000D02*
X13895000Y-4190000D01*
X13905000Y-4545000D02*
X13945000Y-4585000D01*
X13945000Y-4545000D02*
X13905000Y-4585000D01*
X14086000Y-2638000D02*
X14126000Y-2678000D01*
X14126000Y-2638000D02*
X14086000Y-2678000D01*
X14086000Y-11020000D02*
X14126000Y-11060000D01*
X14126000Y-11020000D02*
X14086000Y-11060000D01*
X14195000Y-10010000D02*
X14235000Y-10050000D01*
X14235000Y-10010000D02*
X14195000Y-10050000D01*
X14255000Y-5970000D02*
X14295000Y-6010000D01*
X14295000Y-5970000D02*
X14255000Y-6010000D01*
X14340000Y-2638000D02*
X14380000Y-2678000D01*
X14380000Y-2638000D02*
X14340000Y-2678000D01*
X14340000Y-11020000D02*
X14380000Y-11060000D01*
X14380000Y-11020000D02*
X14340000Y-11060000D01*
X14450000Y-5095000D02*
X14490000Y-5135000D01*
X14490000Y-5095000D02*
X14450000Y-5135000D01*
X14594000Y-2638000D02*
X14634000Y-2678000D01*
X14634000Y-2638000D02*
X14594000Y-2678000D01*
X14594000Y-11020000D02*
X14634000Y-11060000D01*
X14634000Y-11020000D02*
X14594000Y-11060000D01*
X14710000Y-10315000D02*
X14750000Y-10355000D01*
X14750000Y-10315000D02*
X14710000Y-10355000D01*
X14715000Y-5980000D02*
X14755000Y-6020000D01*
X14755000Y-5980000D02*
X14715000Y-6020000D01*
X14755000Y-8370000D02*
X14795000Y-8410000D01*
X14795000Y-8370000D02*
X14755000Y-8410000D01*
X14825000Y-5095000D02*
X14865000Y-5135000D01*
X14865000Y-5095000D02*
X14825000Y-5135000D01*
X14830000Y-9575000D02*
X14870000Y-9615000D01*
X14870000Y-9575000D02*
X14830000Y-9615000D01*
X14848000Y-2638000D02*
X14888000Y-2678000D01*
X14888000Y-2638000D02*
X14848000Y-2678000D01*
X14848000Y-11020000D02*
X14888000Y-11060000D01*
X14888000Y-11020000D02*
X14848000Y-11060000D01*
X14860000Y-10650000D02*
X14900000Y-10690000D01*
X14900000Y-10650000D02*
X14860000Y-10690000D01*
X14930000Y-4165000D02*
X14970000Y-4205000D01*
X14970000Y-4165000D02*
X14930000Y-4205000D01*
X15102000Y-2638000D02*
X15142000Y-2678000D01*
X15142000Y-2638000D02*
X15102000Y-2678000D01*
X15102000Y-11020000D02*
X15142000Y-11060000D01*
X15142000Y-11020000D02*
X15102000Y-11060000D01*
X15150000Y-10140000D02*
X15190000Y-10180000D01*
X15190000Y-10140000D02*
X15150000Y-10180000D01*
X15205000Y-7890000D02*
X15245000Y-7930000D01*
X15245000Y-7890000D02*
X15205000Y-7930000D01*
X15273500Y-4623500D02*
X15313500Y-4663500D01*
X15313500Y-4623500D02*
X15273500Y-4663500D01*
X15356000Y-2638000D02*
X15396000Y-2678000D01*
X15396000Y-2638000D02*
X15356000Y-2678000D01*
X15356000Y-11020000D02*
X15396000Y-11060000D01*
X15396000Y-11020000D02*
X15356000Y-11060000D01*
X15390000Y-3915000D02*
X15430000Y-3955000D01*
X15430000Y-3915000D02*
X15390000Y-3955000D01*
X15390000Y-4040000D02*
X15430000Y-4080000D01*
X15430000Y-4040000D02*
X15390000Y-4080000D01*
X15495500Y-4750500D02*
X15535500Y-4790500D01*
X15535500Y-4750500D02*
X15495500Y-4790500D01*
X15510000Y-7220000D02*
X15550000Y-7260000D01*
X15550000Y-7220000D02*
X15510000Y-7260000D01*
X15525000Y-4325000D02*
X15565000Y-4365000D01*
X15565000Y-4325000D02*
X15525000Y-4365000D01*
X15610000Y-2638000D02*
X15650000Y-2678000D01*
X15650000Y-2638000D02*
X15610000Y-2678000D01*
X15610000Y-11020000D02*
X15650000Y-11060000D01*
X15650000Y-11020000D02*
X15610000Y-11060000D01*
X15675000Y-8130000D02*
X15715000Y-8170000D01*
X15715000Y-8130000D02*
X15675000Y-8170000D01*
X15750000Y-3785000D02*
X15790000Y-3825000D01*
X15790000Y-3785000D02*
X15750000Y-3825000D01*
X15850000Y-10015000D02*
X15890000Y-10055000D01*
X15890000Y-10015000D02*
X15850000Y-10055000D01*
X15864000Y-2638000D02*
X15904000Y-2678000D01*
X15904000Y-2638000D02*
X15864000Y-2678000D01*
X15864000Y-11020000D02*
X15904000Y-11060000D01*
X15904000Y-11020000D02*
X15864000Y-11060000D01*
X15870000Y-5095000D02*
X15910000Y-5135000D01*
X15910000Y-5095000D02*
X15870000Y-5135000D01*
X15870000Y-8435000D02*
X15910000Y-8475000D01*
X15910000Y-8435000D02*
X15870000Y-8475000D01*
X15885000Y-8025000D02*
X15925000Y-8065000D01*
X15925000Y-8025000D02*
X15885000Y-8065000D01*
X15980000Y-9145000D02*
X16020000Y-9185000D01*
X16020000Y-9145000D02*
X15980000Y-9185000D01*
X16030000Y-5610000D02*
X16070000Y-5650000D01*
X16070000Y-5610000D02*
X16030000Y-5650000D01*
X16118000Y-2638000D02*
X16158000Y-2678000D01*
X16158000Y-2638000D02*
X16118000Y-2678000D01*
X16118000Y-11020000D02*
X16158000Y-11060000D01*
X16158000Y-11020000D02*
X16118000Y-11060000D01*
X16310000Y-3930000D02*
X16350000Y-3970000D01*
X16350000Y-3930000D02*
X16310000Y-3970000D01*
X16320000Y-5335000D02*
X16360000Y-5375000D01*
X16360000Y-5335000D02*
X16320000Y-5375000D01*
X16372000Y-2638000D02*
X16412000Y-2678000D01*
X16412000Y-2638000D02*
X16372000Y-2678000D01*
X16372000Y-11020000D02*
X16412000Y-11060000D01*
X16412000Y-11020000D02*
X16372000Y-11060000D01*
X16626000Y-2638000D02*
X16666000Y-2678000D01*
X16666000Y-2638000D02*
X16626000Y-2678000D01*
X16626000Y-11020000D02*
X16666000Y-11060000D01*
X16666000Y-11020000D02*
X16626000Y-11060000D01*
X16650000Y-7410000D02*
X16690000Y-7450000D01*
X16690000Y-7410000D02*
X16650000Y-7450000D01*
X16665000Y-4550000D02*
X16705000Y-4590000D01*
X16705000Y-4550000D02*
X16665000Y-4590000D01*
X16730000Y-3855000D02*
X16770000Y-3895000D01*
X16770000Y-3855000D02*
X16730000Y-3895000D01*
X16730000Y-6745000D02*
X16770000Y-6785000D01*
X16770000Y-6745000D02*
X16730000Y-6785000D01*
X16840000Y-4905000D02*
X16880000Y-4945000D01*
X16880000Y-4905000D02*
X16840000Y-4945000D01*
X16880000Y-2638000D02*
X16920000Y-2678000D01*
X16920000Y-2638000D02*
X16880000Y-2678000D01*
X16880000Y-11020000D02*
X16920000Y-11060000D01*
X16920000Y-11020000D02*
X16880000Y-11060000D01*
X17045000Y-3690000D02*
X17085000Y-3730000D01*
X17085000Y-3690000D02*
X17045000Y-3730000D01*
X17134000Y-2638000D02*
X17174000Y-2678000D01*
X17174000Y-2638000D02*
X17134000Y-2678000D01*
X17134000Y-11020000D02*
X17174000Y-11060000D01*
X17174000Y-11020000D02*
X17134000Y-11060000D01*
X17200000Y-10630000D02*
X17240000Y-10670000D01*
X17240000Y-10630000D02*
X17200000Y-10670000D01*
X17388000Y-2638000D02*
X17428000Y-2678000D01*
X17428000Y-2638000D02*
X17388000Y-2678000D01*
X17388000Y-11020000D02*
X17428000Y-11060000D01*
X17428000Y-11020000D02*
X17388000Y-11060000D01*
X17490000Y-9170000D02*
X17530000Y-9210000D01*
X17530000Y-9170000D02*
X17490000Y-9210000D01*
X17505000Y-10325000D02*
X17545000Y-10365000D01*
X17545000Y-10325000D02*
X17505000Y-10365000D01*
X17520000Y-7525000D02*
X17560000Y-7565000D01*
X17560000Y-7525000D02*
X17520000Y-7565000D01*
X17560000Y-8635000D02*
X17600000Y-8675000D01*
X17600000Y-8635000D02*
X17560000Y-8675000D01*
X17642000Y-2638000D02*
X17682000Y-2678000D01*
X17682000Y-2638000D02*
X17642000Y-2678000D01*
X17642000Y-11020000D02*
X17682000Y-11060000D01*
X17682000Y-11020000D02*
X17642000Y-11060000D01*
X17650000Y-7075000D02*
X17690000Y-7115000D01*
X17690000Y-7075000D02*
X17650000Y-7115000D01*
X17896000Y-2638000D02*
X17936000Y-2678000D01*
X17936000Y-2638000D02*
X17896000Y-2678000D01*
X17896000Y-2892000D02*
X17936000Y-2932000D01*
X17936000Y-2892000D02*
X17896000Y-2932000D01*
X17896000Y-3146000D02*
X17936000Y-3186000D01*
X17936000Y-3146000D02*
X17896000Y-3186000D01*
X17896000Y-3400000D02*
X17936000Y-3440000D01*
X17936000Y-3400000D02*
X17896000Y-3440000D01*
X17896000Y-3654000D02*
X17936000Y-3694000D01*
X17936000Y-3654000D02*
X17896000Y-3694000D01*
X17896000Y-3908000D02*
X17936000Y-3948000D01*
X17936000Y-3908000D02*
X17896000Y-3948000D01*
X17896000Y-4162000D02*
X17936000Y-4202000D01*
X17936000Y-4162000D02*
X17896000Y-4202000D01*
X17896000Y-4416000D02*
X17936000Y-4456000D01*
X17936000Y-4416000D02*
X17896000Y-4456000D01*
X17896000Y-4670000D02*
X17936000Y-4710000D01*
X17936000Y-4670000D02*
X17896000Y-4710000D01*
X17896000Y-4924000D02*
X17936000Y-4964000D01*
X17936000Y-4924000D02*
X17896000Y-4964000D01*
X17896000Y-5178000D02*
X17936000Y-5218000D01*
X17936000Y-5178000D02*
X17896000Y-5218000D01*
X17896000Y-5432000D02*
X17936000Y-5472000D01*
X17936000Y-5432000D02*
X17896000Y-5472000D01*
X17896000Y-5686000D02*
X17936000Y-5726000D01*
X17936000Y-5686000D02*
X17896000Y-5726000D01*
X17896000Y-5940000D02*
X17936000Y-5980000D01*
X17936000Y-5940000D02*
X17896000Y-5980000D01*
X17896000Y-6194000D02*
X17936000Y-6234000D01*
X17936000Y-6194000D02*
X17896000Y-6234000D01*
X17896000Y-6448000D02*
X17936000Y-6488000D01*
X17936000Y-6448000D02*
X17896000Y-6488000D01*
X17896000Y-6702000D02*
X17936000Y-6742000D01*
X17936000Y-6702000D02*
X17896000Y-6742000D01*
X17896000Y-6956000D02*
X17936000Y-6996000D01*
X17936000Y-6956000D02*
X17896000Y-6996000D01*
X17896000Y-7210000D02*
X17936000Y-7250000D01*
X17936000Y-7210000D02*
X17896000Y-7250000D01*
X17896000Y-7464000D02*
X17936000Y-7504000D01*
X17936000Y-7464000D02*
X17896000Y-7504000D01*
X17896000Y-7718000D02*
X17936000Y-7758000D01*
X17936000Y-7718000D02*
X17896000Y-7758000D01*
X17896000Y-7972000D02*
X17936000Y-8012000D01*
X17936000Y-7972000D02*
X17896000Y-8012000D01*
X17896000Y-8226000D02*
X17936000Y-8266000D01*
X17936000Y-8226000D02*
X17896000Y-8266000D01*
X17896000Y-8480000D02*
X17936000Y-8520000D01*
X17936000Y-8480000D02*
X17896000Y-8520000D01*
X17896000Y-8734000D02*
X17936000Y-8774000D01*
X17936000Y-8734000D02*
X17896000Y-8774000D01*
X17896000Y-8988000D02*
X17936000Y-9028000D01*
X17936000Y-8988000D02*
X17896000Y-9028000D01*
X17896000Y-9242000D02*
X17936000Y-9282000D01*
X17936000Y-9242000D02*
X17896000Y-9282000D01*
X17896000Y-9496000D02*
X17936000Y-9536000D01*
X17936000Y-9496000D02*
X17896000Y-9536000D01*
X17896000Y-9750000D02*
X17936000Y-9790000D01*
X17936000Y-9750000D02*
X17896000Y-9790000D01*
X17896000Y-10004000D02*
X17936000Y-10044000D01*
X17936000Y-10004000D02*
X17896000Y-10044000D01*
X17896000Y-10258000D02*
X17936000Y-10298000D01*
X17936000Y-10258000D02*
X17896000Y-10298000D01*
X17896000Y-10512000D02*
X17936000Y-10552000D01*
X17936000Y-10512000D02*
X17896000Y-10552000D01*
X17896000Y-10766000D02*
X17936000Y-10806000D01*
X17936000Y-10766000D02*
X17896000Y-10806000D01*
X17896000Y-11020000D02*
X17936000Y-11060000D01*
X17936000Y-11020000D02*
X17896000Y-11060000D01*
X4385000Y-5640000D02*
G75*
G02*
X4305000Y-5640000I-40000J0D01*
G01*
X4305000Y-5640000D02*
G75*
G02*
X4385000Y-5640000I40000J0D01*
G01*
X4735000Y-5640000D02*
G75*
G02*
X4655000Y-5640000I-40000J0D01*
G01*
X4655000Y-5640000D02*
G75*
G02*
X4735000Y-5640000I40000J0D01*
G01*
X8015000Y-5615000D02*
G75*
G02*
X7935000Y-5615000I-40000J0D01*
G01*
X7935000Y-5615000D02*
G75*
G02*
X8015000Y-5615000I40000J0D01*
G01*
X8365000Y-5615000D02*
G75*
G02*
X8285000Y-5615000I-40000J0D01*
G01*
X8285000Y-5615000D02*
G75*
G02*
X8365000Y-5615000I40000J0D01*
G01*
X11639735Y-5615000D02*
G75*
G02*
X11559735Y-5615000I-40000J0D01*
G01*
X11559735Y-5615000D02*
G75*
G02*
X11639735Y-5615000I40000J0D01*
G01*
X11989735Y-5615000D02*
G75*
G02*
X11909735Y-5615000I-40000J0D01*
G01*
X11909735Y-5615000D02*
G75*
G02*
X11989735Y-5615000I40000J0D01*
G01*
X15255000Y-5640000D02*
G75*
G02*
X15175000Y-5640000I-40000J0D01*
G01*
X15175000Y-5640000D02*
G75*
G02*
X15255000Y-5640000I40000J0D01*
G01*
X15605000Y-5640000D02*
G75*
G02*
X15525000Y-5640000I-40000J0D01*
G01*
X15525000Y-5640000D02*
G75*
G02*
X15605000Y-5640000I40000J0D01*
G01*
X16060000Y-8670000D02*
G75*
G02*
X15980000Y-8670000I-40000J0D01*
G01*
X15980000Y-8670000D02*
G75*
G02*
X16060000Y-8670000I40000J0D01*
G01*
X16187000Y-8416000D02*
G75*
G02*
X16107000Y-8416000I-40000J0D01*
G01*
X16107000Y-8416000D02*
G75*
G02*
X16187000Y-8416000I40000J0D01*
G01*
X16314000Y-8670000D02*
G75*
G02*
X16234000Y-8670000I-40000J0D01*
G01*
X16234000Y-8670000D02*
G75*
G02*
X16314000Y-8670000I40000J0D01*
G01*
X16441000Y-8416000D02*
G75*
G02*
X16361000Y-8416000I-40000J0D01*
G01*
X16361000Y-8416000D02*
G75*
G02*
X16441000Y-8416000I40000J0D01*
G01*
X16568000Y-8670000D02*
G75*
G02*
X16488000Y-8670000I-40000J0D01*
G01*
X16488000Y-8670000D02*
G75*
G02*
X16568000Y-8670000I40000J0D01*
G01*
X16695000Y-8416000D02*
G75*
G02*
X16615000Y-8416000I-40000J0D01*
G01*
X16615000Y-8416000D02*
G75*
G02*
X16695000Y-8416000I40000J0D01*
G01*
X16822000Y-8670000D02*
G75*
G02*
X16742000Y-8670000I-40000J0D01*
G01*
X16742000Y-8670000D02*
G75*
G02*
X16822000Y-8670000I40000J0D01*
G01*
X16949000Y-8416000D02*
G75*
G02*
X16869000Y-8416000I-40000J0D01*
G01*
X16869000Y-8416000D02*
G75*
G02*
X16949000Y-8416000I40000J0D01*
G01*
X17076000Y-8670000D02*
G75*
G02*
X16996000Y-8670000I-40000J0D01*
G01*
X16996000Y-8670000D02*
G75*
G02*
X17076000Y-8670000I40000J0D01*
G01*
X17203000Y-8416000D02*
G75*
G02*
X17123000Y-8416000I-40000J0D01*
G01*
X17123000Y-8416000D02*
G75*
G02*
X17203000Y-8416000I40000J0D01*
G01*
X17330000Y-8670000D02*
G75*
G02*
X17250000Y-8670000I-40000J0D01*
G01*
X17250000Y-8670000D02*
G75*
G02*
X17330000Y-8670000I40000J0D01*
G01*
X17457000Y-8416000D02*
G75*
G02*
X17377000Y-8416000I-40000J0D01*
G01*
X17377000Y-8416000D02*
G75*
G02*
X17457000Y-8416000I40000J0D01*
G01*
X4495000Y-9541500D02*
X4495000Y-9636500D01*
X4447500Y-9589000D02*
X4542500Y-9589000D01*
X4495000Y-9741500D02*
X4495000Y-9836500D01*
X4447500Y-9789000D02*
X4542500Y-9789000D01*
X4745000Y-9541500D02*
X4745000Y-9636500D01*
X4697500Y-9589000D02*
X4792500Y-9589000D01*
X4745000Y-9741500D02*
X4745000Y-9836500D01*
X4697500Y-9789000D02*
X4792500Y-9789000D01*
X3936856Y-3585356D02*
X3936856Y-3514644D01*
X3866144Y-3514644D01*
X3866144Y-3585356D01*
X3936856Y-3585356D01*
X4190856Y-3585356D02*
X4190856Y-3514644D01*
X4120144Y-3514644D01*
X4120144Y-3585356D01*
X4190856Y-3585356D01*
X4444856Y-3585356D02*
X4444856Y-3514644D01*
X4374144Y-3514644D01*
X4374144Y-3585356D01*
X4444856Y-3585356D01*
X4698856Y-3585356D02*
X4698856Y-3514644D01*
X4628144Y-3514644D01*
X4628144Y-3585356D01*
X4698856Y-3585356D01*
X4952856Y-3585356D02*
X4952856Y-3514644D01*
X4882144Y-3514644D01*
X4882144Y-3585356D01*
X4952856Y-3585356D01*
X5206856Y-3585356D02*
X5206856Y-3514644D01*
X5136144Y-3514644D01*
X5136144Y-3585356D01*
X5206856Y-3585356D01*
X5240356Y-6585356D02*
X5240356Y-6514644D01*
X5169644Y-6514644D01*
X5169644Y-6585356D01*
X5240356Y-6585356D01*
X5460856Y-3585356D02*
X5460856Y-3514644D01*
X5390144Y-3514644D01*
X5390144Y-3585356D01*
X5460856Y-3585356D01*
X5505356Y-5645356D02*
X5505356Y-5574644D01*
X5434644Y-5574644D01*
X5434644Y-5645356D01*
X5505356Y-5645356D01*
X5600356Y-6945356D02*
X5600356Y-6874644D01*
X5529644Y-6874644D01*
X5529644Y-6945356D01*
X5600356Y-6945356D01*
X5600356Y-7305356D02*
X5600356Y-7234644D01*
X5529644Y-7234644D01*
X5529644Y-7305356D01*
X5600356Y-7305356D01*
X5600356Y-7665356D02*
X5600356Y-7594644D01*
X5529644Y-7594644D01*
X5529644Y-7665356D01*
X5600356Y-7665356D01*
X5600356Y-8025356D02*
X5600356Y-7954644D01*
X5529644Y-7954644D01*
X5529644Y-8025356D01*
X5600356Y-8025356D01*
X5714856Y-3585356D02*
X5714856Y-3514644D01*
X5644144Y-3514644D01*
X5644144Y-3585356D01*
X5714856Y-3585356D01*
X5865356Y-5645356D02*
X5865356Y-5574644D01*
X5794644Y-5574644D01*
X5794644Y-5645356D01*
X5865356Y-5645356D01*
X5968856Y-3585356D02*
X5968856Y-3514644D01*
X5898144Y-3514644D01*
X5898144Y-3585356D01*
X5968856Y-3585356D01*
X5968856Y-9560356D02*
X5968856Y-9489644D01*
X5898144Y-9489644D01*
X5898144Y-9560356D01*
X5968856Y-9560356D01*
X6222856Y-3585356D02*
X6222856Y-3514644D01*
X6152144Y-3514644D01*
X6152144Y-3585356D01*
X6222856Y-3585356D01*
X6222856Y-9560356D02*
X6222856Y-9489644D01*
X6152144Y-9489644D01*
X6152144Y-9560356D01*
X6222856Y-9560356D01*
X6670356Y-10300356D02*
X6670356Y-10229644D01*
X6599644Y-10229644D01*
X6599644Y-10300356D01*
X6670356Y-10300356D01*
X7030356Y-10300356D02*
X7030356Y-10229644D01*
X6959644Y-10229644D01*
X6959644Y-10300356D01*
X7030356Y-10300356D01*
X7040356Y-5645356D02*
X7040356Y-5574644D01*
X6969644Y-5574644D01*
X6969644Y-5645356D01*
X7040356Y-5645356D01*
X7240356Y-6610356D02*
X7240356Y-6539644D01*
X7169644Y-6539644D01*
X7169644Y-6610356D01*
X7240356Y-6610356D01*
X7240356Y-6970356D02*
X7240356Y-6899644D01*
X7169644Y-6899644D01*
X7169644Y-6970356D01*
X7240356Y-6970356D01*
X7390356Y-10300356D02*
X7390356Y-10229644D01*
X7319644Y-10229644D01*
X7319644Y-10300356D01*
X7390356Y-10300356D01*
X7400356Y-5645356D02*
X7400356Y-5574644D01*
X7329644Y-5574644D01*
X7329644Y-5645356D01*
X7400356Y-5645356D01*
X7482356Y-7695856D02*
X7482356Y-7625144D01*
X7411644Y-7625144D01*
X7411644Y-7695856D01*
X7482356Y-7695856D01*
X7736356Y-7695856D02*
X7736356Y-7625144D01*
X7665644Y-7625144D01*
X7665644Y-7695856D01*
X7736356Y-7695856D01*
X7750356Y-10300356D02*
X7750356Y-10229644D01*
X7679644Y-10229644D01*
X7679644Y-10300356D01*
X7750356Y-10300356D01*
X9080356Y-3585356D02*
X9080356Y-3514644D01*
X9009644Y-3514644D01*
X9009644Y-3585356D01*
X9080356Y-3585356D01*
X9334356Y-3585356D02*
X9334356Y-3514644D01*
X9263644Y-3514644D01*
X9263644Y-3585356D01*
X9334356Y-3585356D01*
X9588356Y-3585356D02*
X9588356Y-3514644D01*
X9517644Y-3514644D01*
X9517644Y-3585356D01*
X9588356Y-3585356D01*
X9842356Y-3585356D02*
X9842356Y-3514644D01*
X9771644Y-3514644D01*
X9771644Y-3585356D01*
X9842356Y-3585356D01*
X10096356Y-3585356D02*
X10096356Y-3514644D01*
X10025644Y-3514644D01*
X10025644Y-3585356D01*
X10096356Y-3585356D01*
X10350356Y-3585356D02*
X10350356Y-3514644D01*
X10279644Y-3514644D01*
X10279644Y-3585356D01*
X10350356Y-3585356D01*
X10604356Y-3585356D02*
X10604356Y-3514644D01*
X10533644Y-3514644D01*
X10533644Y-3585356D01*
X10604356Y-3585356D01*
X10858356Y-3585356D02*
X10858356Y-3514644D01*
X10787644Y-3514644D01*
X10787644Y-3585356D01*
X10858356Y-3585356D01*
X11112356Y-3585356D02*
X11112356Y-3514644D01*
X11041644Y-3514644D01*
X11041644Y-3585356D01*
X11112356Y-3585356D01*
X11366356Y-3585356D02*
X11366356Y-3514644D01*
X11295644Y-3514644D01*
X11295644Y-3585356D01*
X11366356Y-3585356D01*
X11620356Y-3585356D02*
X11620356Y-3514644D01*
X11549644Y-3514644D01*
X11549644Y-3585356D01*
X11620356Y-3585356D01*
X12350356Y-10190356D02*
X12350356Y-10119644D01*
X12279644Y-10119644D01*
X12279644Y-10190356D01*
X12350356Y-10190356D01*
X12540356Y-5645356D02*
X12540356Y-5574644D01*
X12469644Y-5574644D01*
X12469644Y-5645356D01*
X12540356Y-5645356D01*
X12710356Y-10190356D02*
X12710356Y-10119644D01*
X12639644Y-10119644D01*
X12639644Y-10190356D01*
X12710356Y-10190356D01*
X12900356Y-5645356D02*
X12900356Y-5574644D01*
X12829644Y-5574644D01*
X12829644Y-5645356D01*
X12900356Y-5645356D01*
X13070356Y-10190356D02*
X13070356Y-10119644D01*
X12999644Y-10119644D01*
X12999644Y-10190356D01*
X13070356Y-10190356D01*
X13430356Y-10190356D02*
X13430356Y-10119644D01*
X13359644Y-10119644D01*
X13359644Y-10190356D01*
X13430356Y-10190356D01*
X13518106Y-7063856D02*
X13518106Y-6993144D01*
X13447394Y-6993144D01*
X13447394Y-7063856D01*
X13518106Y-7063856D01*
X13518106Y-7317856D02*
X13518106Y-7247144D01*
X13447394Y-7247144D01*
X13447394Y-7317856D01*
X13518106Y-7317856D01*
X13790356Y-10190356D02*
X13790356Y-10119644D01*
X13719644Y-10119644D01*
X13719644Y-10190356D01*
X13790356Y-10190356D01*
X14150356Y-7030356D02*
X14150356Y-6959644D01*
X14079644Y-6959644D01*
X14079644Y-7030356D01*
X14150356Y-7030356D01*
X14230356Y-5645356D02*
X14230356Y-5574644D01*
X14159644Y-5574644D01*
X14159644Y-5645356D01*
X14230356Y-5645356D01*
X14350356Y-3585356D02*
X14350356Y-3514644D01*
X14279644Y-3514644D01*
X14279644Y-3585356D01*
X14350356Y-3585356D01*
X14415356Y-8535356D02*
X14415356Y-8464644D01*
X14344644Y-8464644D01*
X14344644Y-8535356D01*
X14415356Y-8535356D01*
X14415356Y-8895356D02*
X14415356Y-8824644D01*
X14344644Y-8824644D01*
X14344644Y-8895356D01*
X14415356Y-8895356D01*
X14510356Y-7030356D02*
X14510356Y-6959644D01*
X14439644Y-6959644D01*
X14439644Y-7030356D01*
X14510356Y-7030356D01*
X14590356Y-5645356D02*
X14590356Y-5574644D01*
X14519644Y-5574644D01*
X14519644Y-5645356D01*
X14590356Y-5645356D01*
X14604356Y-3585356D02*
X14604356Y-3514644D01*
X14533644Y-3514644D01*
X14533644Y-3585356D01*
X14604356Y-3585356D01*
X14775356Y-8895356D02*
X14775356Y-8824644D01*
X14704644Y-8824644D01*
X14704644Y-8895356D01*
X14775356Y-8895356D01*
X14858356Y-3585356D02*
X14858356Y-3514644D01*
X14787644Y-3514644D01*
X14787644Y-3585356D01*
X14858356Y-3585356D01*
X14870356Y-7030356D02*
X14870356Y-6959644D01*
X14799644Y-6959644D01*
X14799644Y-7030356D01*
X14870356Y-7030356D01*
X15112356Y-3585356D02*
X15112356Y-3514644D01*
X15041644Y-3514644D01*
X15041644Y-3585356D01*
X15112356Y-3585356D01*
X15230356Y-7030356D02*
X15230356Y-6959644D01*
X15159644Y-6959644D01*
X15159644Y-7030356D01*
X15230356Y-7030356D01*
X15366356Y-3585356D02*
X15366356Y-3514644D01*
X15295644Y-3514644D01*
X15295644Y-3585356D01*
X15366356Y-3585356D01*
X15590356Y-7030356D02*
X15590356Y-6959644D01*
X15519644Y-6959644D01*
X15519644Y-7030356D01*
X15590356Y-7030356D01*
X15620356Y-3585356D02*
X15620356Y-3514644D01*
X15549644Y-3514644D01*
X15549644Y-3585356D01*
X15620356Y-3585356D01*
X15874356Y-3585356D02*
X15874356Y-3514644D01*
X15803644Y-3514644D01*
X15803644Y-3585356D01*
X15874356Y-3585356D01*
X16128356Y-3585356D02*
X16128356Y-3514644D01*
X16057644Y-3514644D01*
X16057644Y-3585356D01*
X16128356Y-3585356D01*
X16382356Y-3585356D02*
X16382356Y-3514644D01*
X16311644Y-3514644D01*
X16311644Y-3585356D01*
X16382356Y-3585356D01*
X16636356Y-3585356D02*
X16636356Y-3514644D01*
X16565644Y-3514644D01*
X16565644Y-3585356D01*
X16636356Y-3585356D01*
X16890356Y-3585356D02*
X16890356Y-3514644D01*
X16819644Y-3514644D01*
X16819644Y-3585356D01*
X16890356Y-3585356D01*
X17310356Y-8095356D02*
X17310356Y-8024644D01*
X17239644Y-8024644D01*
X17239644Y-8095356D01*
X17310356Y-8095356D01*
X17670356Y-8095356D02*
X17670356Y-8024644D01*
X17599644Y-8024644D01*
X17599644Y-8095356D01*
X17670356Y-8095356D01*
D13*
X9766400Y-9517570D02*
X9818470Y-9465500D01*
X9766400Y-9413430D01*
X9714330Y-9465500D01*
X9766400Y-9517570D01*
X9903500Y-9802070D02*
X9955570Y-9750000D01*
X9903500Y-9697930D01*
X9851430Y-9750000D01*
X9903500Y-9802070D01*
X10040700Y-9517570D02*
X10092770Y-9465500D01*
X10040700Y-9413430D01*
X9988630Y-9465500D01*
X10040700Y-9517570D01*
X10177800Y-9802070D02*
X10229870Y-9750000D01*
X10177800Y-9697930D01*
X10125730Y-9750000D01*
X10177800Y-9802070D01*
X10315000Y-9517570D02*
X10367070Y-9465500D01*
X10315000Y-9413430D01*
X10262930Y-9465500D01*
X10315000Y-9517570D01*
X10452200Y-9802070D02*
X10504270Y-9750000D01*
X10452200Y-9697930D01*
X10400130Y-9750000D01*
X10452200Y-9802070D01*
X10589300Y-9517570D02*
X10641370Y-9465500D01*
X10589300Y-9413430D01*
X10537230Y-9465500D01*
X10589300Y-9517570D01*
X10726500Y-9802070D02*
X10778570Y-9750000D01*
X10726500Y-9697930D01*
X10674430Y-9750000D01*
X10726500Y-9802070D01*
X10863600Y-9517570D02*
X10915670Y-9465500D01*
X10863600Y-9413430D01*
X10811530Y-9465500D01*
X10863600Y-9517570D01*
X15036400Y-9502670D02*
X15088470Y-9450600D01*
X15036400Y-9398530D01*
X14984330Y-9450600D01*
X15036400Y-9502670D01*
X15173500Y-9787170D02*
X15225570Y-9735100D01*
X15173500Y-9683030D01*
X15121430Y-9735100D01*
X15173500Y-9787170D01*
X15310700Y-9502670D02*
X15362770Y-9450600D01*
X15310700Y-9398530D01*
X15258630Y-9450600D01*
X15310700Y-9502670D01*
X15447800Y-9787170D02*
X15499870Y-9735100D01*
X15447800Y-9683030D01*
X15395730Y-9735100D01*
X15447800Y-9787170D01*
X15585000Y-9502670D02*
X15637070Y-9450600D01*
X15585000Y-9398530D01*
X15532930Y-9450600D01*
X15585000Y-9502670D01*
X15722200Y-9787170D02*
X15774270Y-9735100D01*
X15722200Y-9683030D01*
X15670130Y-9735100D01*
X15722200Y-9787170D01*
X15859300Y-9502670D02*
X15911370Y-9450600D01*
X15859300Y-9398530D01*
X15807230Y-9450600D01*
X15859300Y-9502670D01*
X15996500Y-9787170D02*
X16048570Y-9735100D01*
X15996500Y-9683030D01*
X15944430Y-9735100D01*
X15996500Y-9787170D01*
X16133600Y-9502670D02*
X16185670Y-9450600D01*
X16133600Y-9398530D01*
X16081530Y-9450600D01*
X16133600Y-9502670D01*
D14*
X3227500Y-3092500D02*
X3362500Y-3227500D01*
X3362500Y-3092500D02*
X3227500Y-3227500D01*
X3362500Y-3160000D02*
G75*
G02*
X3227500Y-3160000I-67500J0D01*
G01*
X3227500Y-3160000D02*
G75*
G02*
X3362500Y-3160000I67500J0D01*
G01*
X3577500Y-3092500D02*
X3712500Y-3227500D01*
X3712500Y-3092500D02*
X3577500Y-3227500D01*
X3712500Y-3160000D02*
G75*
G02*
X3577500Y-3160000I-67500J0D01*
G01*
X3577500Y-3160000D02*
G75*
G02*
X3712500Y-3160000I67500J0D01*
G01*
X3927500Y-3092500D02*
X4062500Y-3227500D01*
X4062500Y-3092500D02*
X3927500Y-3227500D01*
X4062500Y-3160000D02*
G75*
G02*
X3927500Y-3160000I-67500J0D01*
G01*
X3927500Y-3160000D02*
G75*
G02*
X4062500Y-3160000I67500J0D01*
G01*
X4277500Y-3092500D02*
X4412500Y-3227500D01*
X4412500Y-3092500D02*
X4277500Y-3227500D01*
X4412500Y-3160000D02*
G75*
G02*
X4277500Y-3160000I-67500J0D01*
G01*
X4277500Y-3160000D02*
G75*
G02*
X4412500Y-3160000I67500J0D01*
G01*
X4627500Y-3092500D02*
X4762500Y-3227500D01*
X4762500Y-3092500D02*
X4627500Y-3227500D01*
X4762500Y-3160000D02*
G75*
G02*
X4627500Y-3160000I-67500J0D01*
G01*
X4627500Y-3160000D02*
G75*
G02*
X4762500Y-3160000I67500J0D01*
G01*
X4977500Y-3092500D02*
X5112500Y-3227500D01*
X5112500Y-3092500D02*
X4977500Y-3227500D01*
X5112500Y-3160000D02*
G75*
G02*
X4977500Y-3160000I-67500J0D01*
G01*
X4977500Y-3160000D02*
G75*
G02*
X5112500Y-3160000I67500J0D01*
G01*
X5327500Y-3092500D02*
X5462500Y-3227500D01*
X5462500Y-3092500D02*
X5327500Y-3227500D01*
X5462500Y-3160000D02*
G75*
G02*
X5327500Y-3160000I-67500J0D01*
G01*
X5327500Y-3160000D02*
G75*
G02*
X5462500Y-3160000I67500J0D01*
G01*
X5677500Y-3092500D02*
X5812500Y-3227500D01*
X5812500Y-3092500D02*
X5677500Y-3227500D01*
X5812500Y-3160000D02*
G75*
G02*
X5677500Y-3160000I-67500J0D01*
G01*
X5677500Y-3160000D02*
G75*
G02*
X5812500Y-3160000I67500J0D01*
G01*
X6027500Y-3092500D02*
X6162500Y-3227500D01*
X6162500Y-3092500D02*
X6027500Y-3227500D01*
X6162500Y-3160000D02*
G75*
G02*
X6027500Y-3160000I-67500J0D01*
G01*
X6027500Y-3160000D02*
G75*
G02*
X6162500Y-3160000I67500J0D01*
G01*
X6377500Y-3092500D02*
X6512500Y-3227500D01*
X6512500Y-3092500D02*
X6377500Y-3227500D01*
X6512500Y-3160000D02*
G75*
G02*
X6377500Y-3160000I-67500J0D01*
G01*
X6377500Y-3160000D02*
G75*
G02*
X6512500Y-3160000I67500J0D01*
G01*
X6727500Y-3092500D02*
X6862500Y-3227500D01*
X6862500Y-3092500D02*
X6727500Y-3227500D01*
X6862500Y-3160000D02*
G75*
G02*
X6727500Y-3160000I-67500J0D01*
G01*
X6727500Y-3160000D02*
G75*
G02*
X6862500Y-3160000I67500J0D01*
G01*
X8497500Y-3092500D02*
X8632500Y-3227500D01*
X8632500Y-3092500D02*
X8497500Y-3227500D01*
X8632500Y-3160000D02*
G75*
G02*
X8497500Y-3160000I-67500J0D01*
G01*
X8497500Y-3160000D02*
G75*
G02*
X8632500Y-3160000I67500J0D01*
G01*
X8847500Y-3092500D02*
X8982500Y-3227500D01*
X8982500Y-3092500D02*
X8847500Y-3227500D01*
X8982500Y-3160000D02*
G75*
G02*
X8847500Y-3160000I-67500J0D01*
G01*
X8847500Y-3160000D02*
G75*
G02*
X8982500Y-3160000I67500J0D01*
G01*
X9197500Y-3092500D02*
X9332500Y-3227500D01*
X9332500Y-3092500D02*
X9197500Y-3227500D01*
X9332500Y-3160000D02*
G75*
G02*
X9197500Y-3160000I-67500J0D01*
G01*
X9197500Y-3160000D02*
G75*
G02*
X9332500Y-3160000I67500J0D01*
G01*
X9547500Y-3092500D02*
X9682500Y-3227500D01*
X9682500Y-3092500D02*
X9547500Y-3227500D01*
X9682500Y-3160000D02*
G75*
G02*
X9547500Y-3160000I-67500J0D01*
G01*
X9547500Y-3160000D02*
G75*
G02*
X9682500Y-3160000I67500J0D01*
G01*
X9897500Y-3092500D02*
X10032500Y-3227500D01*
X10032500Y-3092500D02*
X9897500Y-3227500D01*
X10032500Y-3160000D02*
G75*
G02*
X9897500Y-3160000I-67500J0D01*
G01*
X9897500Y-3160000D02*
G75*
G02*
X10032500Y-3160000I67500J0D01*
G01*
X10247500Y-3092500D02*
X10382500Y-3227500D01*
X10382500Y-3092500D02*
X10247500Y-3227500D01*
X10382500Y-3160000D02*
G75*
G02*
X10247500Y-3160000I-67500J0D01*
G01*
X10247500Y-3160000D02*
G75*
G02*
X10382500Y-3160000I67500J0D01*
G01*
X10597500Y-3092500D02*
X10732500Y-3227500D01*
X10732500Y-3092500D02*
X10597500Y-3227500D01*
X10732500Y-3160000D02*
G75*
G02*
X10597500Y-3160000I-67500J0D01*
G01*
X10597500Y-3160000D02*
G75*
G02*
X10732500Y-3160000I67500J0D01*
G01*
X10947500Y-3092500D02*
X11082500Y-3227500D01*
X11082500Y-3092500D02*
X10947500Y-3227500D01*
X11082500Y-3160000D02*
G75*
G02*
X10947500Y-3160000I-67500J0D01*
G01*
X10947500Y-3160000D02*
G75*
G02*
X11082500Y-3160000I67500J0D01*
G01*
X11297500Y-3092500D02*
X11432500Y-3227500D01*
X11432500Y-3092500D02*
X11297500Y-3227500D01*
X11432500Y-3160000D02*
G75*
G02*
X11297500Y-3160000I-67500J0D01*
G01*
X11297500Y-3160000D02*
G75*
G02*
X11432500Y-3160000I67500J0D01*
G01*
X11647500Y-3092500D02*
X11782500Y-3227500D01*
X11782500Y-3092500D02*
X11647500Y-3227500D01*
X11782500Y-3160000D02*
G75*
G02*
X11647500Y-3160000I-67500J0D01*
G01*
X11647500Y-3160000D02*
G75*
G02*
X11782500Y-3160000I67500J0D01*
G01*
X11997500Y-3092500D02*
X12132500Y-3227500D01*
X12132500Y-3092500D02*
X11997500Y-3227500D01*
X12132500Y-3160000D02*
G75*
G02*
X11997500Y-3160000I-67500J0D01*
G01*
X11997500Y-3160000D02*
G75*
G02*
X12132500Y-3160000I67500J0D01*
G01*
X13767500Y-3092500D02*
X13902500Y-3227500D01*
X13902500Y-3092500D02*
X13767500Y-3227500D01*
X13902500Y-3160000D02*
G75*
G02*
X13767500Y-3160000I-67500J0D01*
G01*
X13767500Y-3160000D02*
G75*
G02*
X13902500Y-3160000I67500J0D01*
G01*
X14117500Y-3092500D02*
X14252500Y-3227500D01*
X14252500Y-3092500D02*
X14117500Y-3227500D01*
X14252500Y-3160000D02*
G75*
G02*
X14117500Y-3160000I-67500J0D01*
G01*
X14117500Y-3160000D02*
G75*
G02*
X14252500Y-3160000I67500J0D01*
G01*
X14467500Y-3092500D02*
X14602500Y-3227500D01*
X14602500Y-3092500D02*
X14467500Y-3227500D01*
X14602500Y-3160000D02*
G75*
G02*
X14467500Y-3160000I-67500J0D01*
G01*
X14467500Y-3160000D02*
G75*
G02*
X14602500Y-3160000I67500J0D01*
G01*
X14817500Y-3092500D02*
X14952500Y-3227500D01*
X14952500Y-3092500D02*
X14817500Y-3227500D01*
X14952500Y-3160000D02*
G75*
G02*
X14817500Y-3160000I-67500J0D01*
G01*
X14817500Y-3160000D02*
G75*
G02*
X14952500Y-3160000I67500J0D01*
G01*
X15167500Y-3092500D02*
X15302500Y-3227500D01*
X15302500Y-3092500D02*
X15167500Y-3227500D01*
X15302500Y-3160000D02*
G75*
G02*
X15167500Y-3160000I-67500J0D01*
G01*
X15167500Y-3160000D02*
G75*
G02*
X15302500Y-3160000I67500J0D01*
G01*
X15517500Y-3092500D02*
X15652500Y-3227500D01*
X15652500Y-3092500D02*
X15517500Y-3227500D01*
X15652500Y-3160000D02*
G75*
G02*
X15517500Y-3160000I-67500J0D01*
G01*
X15517500Y-3160000D02*
G75*
G02*
X15652500Y-3160000I67500J0D01*
G01*
X15867500Y-3092500D02*
X16002500Y-3227500D01*
X16002500Y-3092500D02*
X15867500Y-3227500D01*
X16002500Y-3160000D02*
G75*
G02*
X15867500Y-3160000I-67500J0D01*
G01*
X15867500Y-3160000D02*
G75*
G02*
X16002500Y-3160000I67500J0D01*
G01*
X16217500Y-3092500D02*
X16352500Y-3227500D01*
X16352500Y-3092500D02*
X16217500Y-3227500D01*
X16352500Y-3160000D02*
G75*
G02*
X16217500Y-3160000I-67500J0D01*
G01*
X16217500Y-3160000D02*
G75*
G02*
X16352500Y-3160000I67500J0D01*
G01*
X16567500Y-3092500D02*
X16702500Y-3227500D01*
X16702500Y-3092500D02*
X16567500Y-3227500D01*
X16702500Y-3160000D02*
G75*
G02*
X16567500Y-3160000I-67500J0D01*
G01*
X16567500Y-3160000D02*
G75*
G02*
X16702500Y-3160000I67500J0D01*
G01*
X16917500Y-3092500D02*
X17052500Y-3227500D01*
X17052500Y-3092500D02*
X16917500Y-3227500D01*
X17052500Y-3160000D02*
G75*
G02*
X16917500Y-3160000I-67500J0D01*
G01*
X16917500Y-3160000D02*
G75*
G02*
X17052500Y-3160000I67500J0D01*
G01*
X17267500Y-3092500D02*
X17402500Y-3227500D01*
X17402500Y-3092500D02*
X17267500Y-3227500D01*
X17402500Y-3160000D02*
G75*
G02*
X17267500Y-3160000I-67500J0D01*
G01*
X17267500Y-3160000D02*
G75*
G02*
X17402500Y-3160000I67500J0D01*
G01*
D15*
X3905000Y-9960000D02*
X4135000Y-10190000D01*
X4135000Y-9960000D02*
X3905000Y-10190000D01*
X4020000Y-9960000D02*
X4020000Y-10190000D01*
X3905000Y-10075000D02*
X4135000Y-10075000D01*
X5105000Y-9960000D02*
X5335000Y-10190000D01*
X5335000Y-9960000D02*
X5105000Y-10190000D01*
X5220000Y-9960000D02*
X5220000Y-10190000D01*
X5105000Y-10075000D02*
X5335000Y-10075000D01*
D16*
X8902740Y-9445240D02*
X9227860Y-9770360D01*
X9227860Y-9445240D02*
X8902740Y-9770360D01*
X9180248Y-9722748D02*
X9180248Y-9492852D01*
X8950352Y-9492852D01*
X8950352Y-9722748D01*
X9180248Y-9722748D01*
X11402140Y-9445240D02*
X11727260Y-9770360D01*
X11727260Y-9445240D02*
X11402140Y-9770360D01*
X11679648Y-9722748D02*
X11679648Y-9492852D01*
X11449752Y-9492852D01*
X11449752Y-9722748D01*
X11679648Y-9722748D01*
X14172740Y-9430340D02*
X14497860Y-9755460D01*
X14497860Y-9430340D02*
X14172740Y-9755460D01*
X14450248Y-9707848D02*
X14450248Y-9477952D01*
X14220352Y-9477952D01*
X14220352Y-9707848D01*
X14450248Y-9707848D01*
X16672140Y-9430340D02*
X16997260Y-9755460D01*
X16997260Y-9430340D02*
X16672140Y-9755460D01*
X16949648Y-9707848D02*
X16949648Y-9477952D01*
X16719752Y-9477952D01*
X16719752Y-9707848D01*
X16949648Y-9707848D01*
D11*
X2798277Y-11463984D02*
X2798277Y-11263984D01*
X2798277Y-11263984D02*
X2845896Y-11263984D01*
X2845896Y-11263984D02*
X2874467Y-11273508D01*
X2874467Y-11273508D02*
X2893515Y-11292555D01*
X2893515Y-11292555D02*
X2903039Y-11311603D01*
X2903039Y-11311603D02*
X2912562Y-11349698D01*
X2912562Y-11349698D02*
X2912562Y-11378269D01*
X2912562Y-11378269D02*
X2903039Y-11416365D01*
X2903039Y-11416365D02*
X2893515Y-11435412D01*
X2893515Y-11435412D02*
X2874467Y-11454460D01*
X2874467Y-11454460D02*
X2845896Y-11463984D01*
X2845896Y-11463984D02*
X2798277Y-11463984D01*
X2998277Y-11463984D02*
X2998277Y-11330650D01*
X2998277Y-11368746D02*
X3007801Y-11349698D01*
X3007801Y-11349698D02*
X3017324Y-11340174D01*
X3017324Y-11340174D02*
X3036372Y-11330650D01*
X3036372Y-11330650D02*
X3055420Y-11330650D01*
X3122086Y-11463984D02*
X3122086Y-11330650D01*
X3122086Y-11263984D02*
X3112562Y-11273508D01*
X3112562Y-11273508D02*
X3122086Y-11283031D01*
X3122086Y-11283031D02*
X3131610Y-11273508D01*
X3131610Y-11273508D02*
X3122086Y-11263984D01*
X3122086Y-11263984D02*
X3122086Y-11283031D01*
X3245896Y-11463984D02*
X3226848Y-11454460D01*
X3226848Y-11454460D02*
X3217324Y-11435412D01*
X3217324Y-11435412D02*
X3217324Y-11263984D01*
X3350658Y-11463984D02*
X3331610Y-11454460D01*
X3331610Y-11454460D02*
X3322086Y-11435412D01*
X3322086Y-11435412D02*
X3322086Y-11263984D01*
X3579229Y-11463984D02*
X3579229Y-11263984D01*
X3579229Y-11263984D02*
X3645896Y-11406841D01*
X3645896Y-11406841D02*
X3712562Y-11263984D01*
X3712562Y-11263984D02*
X3712562Y-11463984D01*
X3893515Y-11463984D02*
X3893515Y-11359222D01*
X3893515Y-11359222D02*
X3883991Y-11340174D01*
X3883991Y-11340174D02*
X3864943Y-11330650D01*
X3864943Y-11330650D02*
X3826848Y-11330650D01*
X3826848Y-11330650D02*
X3807801Y-11340174D01*
X3893515Y-11454460D02*
X3874467Y-11463984D01*
X3874467Y-11463984D02*
X3826848Y-11463984D01*
X3826848Y-11463984D02*
X3807801Y-11454460D01*
X3807801Y-11454460D02*
X3798277Y-11435412D01*
X3798277Y-11435412D02*
X3798277Y-11416365D01*
X3798277Y-11416365D02*
X3807801Y-11397317D01*
X3807801Y-11397317D02*
X3826848Y-11387793D01*
X3826848Y-11387793D02*
X3874467Y-11387793D01*
X3874467Y-11387793D02*
X3893515Y-11378269D01*
X3988753Y-11330650D02*
X3988753Y-11530650D01*
X3988753Y-11340174D02*
X4007801Y-11330650D01*
X4007801Y-11330650D02*
X4045896Y-11330650D01*
X4045896Y-11330650D02*
X4064943Y-11340174D01*
X4064943Y-11340174D02*
X4074467Y-11349698D01*
X4074467Y-11349698D02*
X4083991Y-11368746D01*
X4083991Y-11368746D02*
X4083991Y-11425888D01*
X4083991Y-11425888D02*
X4074467Y-11444936D01*
X4074467Y-11444936D02*
X4064943Y-11454460D01*
X4064943Y-11454460D02*
X4045896Y-11463984D01*
X4045896Y-11463984D02*
X4007801Y-11463984D01*
X4007801Y-11463984D02*
X3988753Y-11454460D01*
X4169705Y-11444936D02*
X4179229Y-11454460D01*
X4179229Y-11454460D02*
X4169705Y-11463984D01*
X4169705Y-11463984D02*
X4160182Y-11454460D01*
X4160182Y-11454460D02*
X4169705Y-11444936D01*
X4169705Y-11444936D02*
X4169705Y-11463984D01*
X4169705Y-11340174D02*
X4179229Y-11349698D01*
X4179229Y-11349698D02*
X4169705Y-11359222D01*
X4169705Y-11359222D02*
X4160182Y-11349698D01*
X4160182Y-11349698D02*
X4169705Y-11340174D01*
X4169705Y-11340174D02*
X4169705Y-11359222D01*
D12*
X2497500Y-11772500D02*
X2537500Y-11812500D01*
X2537500Y-11772500D02*
X2497500Y-11812500D01*
D11*
X2836372Y-11683984D02*
X2855420Y-11683984D01*
X2855420Y-11683984D02*
X2874467Y-11693508D01*
X2874467Y-11693508D02*
X2883991Y-11703031D01*
X2883991Y-11703031D02*
X2893515Y-11722079D01*
X2893515Y-11722079D02*
X2903039Y-11760174D01*
X2903039Y-11760174D02*
X2903039Y-11807793D01*
X2903039Y-11807793D02*
X2893515Y-11845888D01*
X2893515Y-11845888D02*
X2883991Y-11864936D01*
X2883991Y-11864936D02*
X2874467Y-11874460D01*
X2874467Y-11874460D02*
X2855420Y-11883984D01*
X2855420Y-11883984D02*
X2836372Y-11883984D01*
X2836372Y-11883984D02*
X2817324Y-11874460D01*
X2817324Y-11874460D02*
X2807801Y-11864936D01*
X2807801Y-11864936D02*
X2798277Y-11845888D01*
X2798277Y-11845888D02*
X2788753Y-11807793D01*
X2788753Y-11807793D02*
X2788753Y-11760174D01*
X2788753Y-11760174D02*
X2798277Y-11722079D01*
X2798277Y-11722079D02*
X2807801Y-11703031D01*
X2807801Y-11703031D02*
X2817324Y-11693508D01*
X2817324Y-11693508D02*
X2836372Y-11683984D01*
X2988753Y-11864936D02*
X2998277Y-11874460D01*
X2998277Y-11874460D02*
X2988753Y-11883984D01*
X2988753Y-11883984D02*
X2979229Y-11874460D01*
X2979229Y-11874460D02*
X2988753Y-11864936D01*
X2988753Y-11864936D02*
X2988753Y-11883984D01*
X3169705Y-11750650D02*
X3169705Y-11883984D01*
X3122086Y-11674460D02*
X3074467Y-11817317D01*
X3074467Y-11817317D02*
X3198277Y-11817317D01*
X3312562Y-11683984D02*
X3331610Y-11683984D01*
X3331610Y-11683984D02*
X3350658Y-11693508D01*
X3350658Y-11693508D02*
X3360182Y-11703031D01*
X3360182Y-11703031D02*
X3369705Y-11722079D01*
X3369705Y-11722079D02*
X3379229Y-11760174D01*
X3379229Y-11760174D02*
X3379229Y-11807793D01*
X3379229Y-11807793D02*
X3369705Y-11845888D01*
X3369705Y-11845888D02*
X3360182Y-11864936D01*
X3360182Y-11864936D02*
X3350658Y-11874460D01*
X3350658Y-11874460D02*
X3331610Y-11883984D01*
X3331610Y-11883984D02*
X3312562Y-11883984D01*
X3312562Y-11883984D02*
X3293515Y-11874460D01*
X3293515Y-11874460D02*
X3283991Y-11864936D01*
X3283991Y-11864936D02*
X3274467Y-11845888D01*
X3274467Y-11845888D02*
X3264943Y-11807793D01*
X3264943Y-11807793D02*
X3264943Y-11760174D01*
X3264943Y-11760174D02*
X3274467Y-11722079D01*
X3274467Y-11722079D02*
X3283991Y-11703031D01*
X3283991Y-11703031D02*
X3293515Y-11693508D01*
X3293515Y-11693508D02*
X3312562Y-11683984D01*
X3503039Y-11683984D02*
X3522086Y-11683984D01*
X3522086Y-11683984D02*
X3541134Y-11693508D01*
X3541134Y-11693508D02*
X3550658Y-11703031D01*
X3550658Y-11703031D02*
X3560182Y-11722079D01*
X3560182Y-11722079D02*
X3569705Y-11760174D01*
X3569705Y-11760174D02*
X3569705Y-11807793D01*
X3569705Y-11807793D02*
X3560182Y-11845888D01*
X3560182Y-11845888D02*
X3550658Y-11864936D01*
X3550658Y-11864936D02*
X3541134Y-11874460D01*
X3541134Y-11874460D02*
X3522086Y-11883984D01*
X3522086Y-11883984D02*
X3503039Y-11883984D01*
X3503039Y-11883984D02*
X3483991Y-11874460D01*
X3483991Y-11874460D02*
X3474467Y-11864936D01*
X3474467Y-11864936D02*
X3464943Y-11845888D01*
X3464943Y-11845888D02*
X3455420Y-11807793D01*
X3455420Y-11807793D02*
X3455420Y-11760174D01*
X3455420Y-11760174D02*
X3464943Y-11722079D01*
X3464943Y-11722079D02*
X3474467Y-11703031D01*
X3474467Y-11703031D02*
X3483991Y-11693508D01*
X3483991Y-11693508D02*
X3503039Y-11683984D01*
X3655420Y-11883984D02*
X3655420Y-11750650D01*
X3655420Y-11769698D02*
X3664943Y-11760174D01*
X3664943Y-11760174D02*
X3683991Y-11750650D01*
X3683991Y-11750650D02*
X3712563Y-11750650D01*
X3712563Y-11750650D02*
X3731610Y-11760174D01*
X3731610Y-11760174D02*
X3741134Y-11779222D01*
X3741134Y-11779222D02*
X3741134Y-11883984D01*
X3741134Y-11779222D02*
X3750658Y-11760174D01*
X3750658Y-11760174D02*
X3769705Y-11750650D01*
X3769705Y-11750650D02*
X3798277Y-11750650D01*
X3798277Y-11750650D02*
X3817324Y-11760174D01*
X3817324Y-11760174D02*
X3826848Y-11779222D01*
X3826848Y-11779222D02*
X3826848Y-11883984D01*
X3922086Y-11883984D02*
X3922086Y-11750650D01*
X3922086Y-11769698D02*
X3931610Y-11760174D01*
X3931610Y-11760174D02*
X3950658Y-11750650D01*
X3950658Y-11750650D02*
X3979229Y-11750650D01*
X3979229Y-11750650D02*
X3998277Y-11760174D01*
X3998277Y-11760174D02*
X4007801Y-11779222D01*
X4007801Y-11779222D02*
X4007801Y-11883984D01*
X4007801Y-11779222D02*
X4017324Y-11760174D01*
X4017324Y-11760174D02*
X4036372Y-11750650D01*
X4036372Y-11750650D02*
X4064943Y-11750650D01*
X4064943Y-11750650D02*
X4083991Y-11760174D01*
X4083991Y-11760174D02*
X4093515Y-11779222D01*
X4093515Y-11779222D02*
X4093515Y-11883984D01*
X4483991Y-11674460D02*
X4312563Y-11931603D01*
X4741134Y-11683984D02*
X4760182Y-11683984D01*
X4760182Y-11683984D02*
X4779229Y-11693508D01*
X4779229Y-11693508D02*
X4788753Y-11703031D01*
X4788753Y-11703031D02*
X4798277Y-11722079D01*
X4798277Y-11722079D02*
X4807801Y-11760174D01*
X4807801Y-11760174D02*
X4807801Y-11807793D01*
X4807801Y-11807793D02*
X4798277Y-11845888D01*
X4798277Y-11845888D02*
X4788753Y-11864936D01*
X4788753Y-11864936D02*
X4779229Y-11874460D01*
X4779229Y-11874460D02*
X4760182Y-11883984D01*
X4760182Y-11883984D02*
X4741134Y-11883984D01*
X4741134Y-11883984D02*
X4722087Y-11874460D01*
X4722087Y-11874460D02*
X4712563Y-11864936D01*
X4712563Y-11864936D02*
X4703039Y-11845888D01*
X4703039Y-11845888D02*
X4693515Y-11807793D01*
X4693515Y-11807793D02*
X4693515Y-11760174D01*
X4693515Y-11760174D02*
X4703039Y-11722079D01*
X4703039Y-11722079D02*
X4712563Y-11703031D01*
X4712563Y-11703031D02*
X4722087Y-11693508D01*
X4722087Y-11693508D02*
X4741134Y-11683984D01*
X4893515Y-11864936D02*
X4903039Y-11874460D01*
X4903039Y-11874460D02*
X4893515Y-11883984D01*
X4893515Y-11883984D02*
X4883991Y-11874460D01*
X4883991Y-11874460D02*
X4893515Y-11864936D01*
X4893515Y-11864936D02*
X4893515Y-11883984D01*
X5026848Y-11683984D02*
X5045896Y-11683984D01*
X5045896Y-11683984D02*
X5064944Y-11693508D01*
X5064944Y-11693508D02*
X5074468Y-11703031D01*
X5074468Y-11703031D02*
X5083991Y-11722079D01*
X5083991Y-11722079D02*
X5093515Y-11760174D01*
X5093515Y-11760174D02*
X5093515Y-11807793D01*
X5093515Y-11807793D02*
X5083991Y-11845888D01*
X5083991Y-11845888D02*
X5074468Y-11864936D01*
X5074468Y-11864936D02*
X5064944Y-11874460D01*
X5064944Y-11874460D02*
X5045896Y-11883984D01*
X5045896Y-11883984D02*
X5026848Y-11883984D01*
X5026848Y-11883984D02*
X5007801Y-11874460D01*
X5007801Y-11874460D02*
X4998277Y-11864936D01*
X4998277Y-11864936D02*
X4988753Y-11845888D01*
X4988753Y-11845888D02*
X4979229Y-11807793D01*
X4979229Y-11807793D02*
X4979229Y-11760174D01*
X4979229Y-11760174D02*
X4988753Y-11722079D01*
X4988753Y-11722079D02*
X4998277Y-11703031D01*
X4998277Y-11703031D02*
X5007801Y-11693508D01*
X5007801Y-11693508D02*
X5026848Y-11683984D01*
X5283991Y-11883984D02*
X5169706Y-11883984D01*
X5226848Y-11883984D02*
X5226848Y-11683984D01*
X5226848Y-11683984D02*
X5207801Y-11712555D01*
X5207801Y-11712555D02*
X5188753Y-11731603D01*
X5188753Y-11731603D02*
X5169706Y-11741127D01*
X5464944Y-11683984D02*
X5369706Y-11683984D01*
X5369706Y-11683984D02*
X5360182Y-11779222D01*
X5360182Y-11779222D02*
X5369706Y-11769698D01*
X5369706Y-11769698D02*
X5388753Y-11760174D01*
X5388753Y-11760174D02*
X5436372Y-11760174D01*
X5436372Y-11760174D02*
X5455420Y-11769698D01*
X5455420Y-11769698D02*
X5464944Y-11779222D01*
X5464944Y-11779222D02*
X5474468Y-11798269D01*
X5474468Y-11798269D02*
X5474468Y-11845888D01*
X5474468Y-11845888D02*
X5464944Y-11864936D01*
X5464944Y-11864936D02*
X5455420Y-11874460D01*
X5455420Y-11874460D02*
X5436372Y-11883984D01*
X5436372Y-11883984D02*
X5388753Y-11883984D01*
X5388753Y-11883984D02*
X5369706Y-11874460D01*
X5369706Y-11874460D02*
X5360182Y-11864936D01*
X5541134Y-11683984D02*
X5674467Y-11683984D01*
X5674467Y-11683984D02*
X5588753Y-11883984D01*
X5741134Y-11683984D02*
X5741134Y-11722079D01*
X5817325Y-11683984D02*
X5817325Y-11722079D01*
X6112563Y-11960174D02*
X6103039Y-11950650D01*
X6103039Y-11950650D02*
X6083991Y-11922079D01*
X6083991Y-11922079D02*
X6074468Y-11903031D01*
X6074468Y-11903031D02*
X6064944Y-11874460D01*
X6064944Y-11874460D02*
X6055420Y-11826841D01*
X6055420Y-11826841D02*
X6055420Y-11788746D01*
X6055420Y-11788746D02*
X6064944Y-11741127D01*
X6064944Y-11741127D02*
X6074468Y-11712555D01*
X6074468Y-11712555D02*
X6083991Y-11693508D01*
X6083991Y-11693508D02*
X6103039Y-11664936D01*
X6103039Y-11664936D02*
X6112563Y-11655412D01*
X6169706Y-11683984D02*
X6293515Y-11683984D01*
X6293515Y-11683984D02*
X6226848Y-11760174D01*
X6226848Y-11760174D02*
X6255420Y-11760174D01*
X6255420Y-11760174D02*
X6274468Y-11769698D01*
X6274468Y-11769698D02*
X6283991Y-11779222D01*
X6283991Y-11779222D02*
X6293515Y-11798269D01*
X6293515Y-11798269D02*
X6293515Y-11845888D01*
X6293515Y-11845888D02*
X6283991Y-11864936D01*
X6283991Y-11864936D02*
X6274468Y-11874460D01*
X6274468Y-11874460D02*
X6255420Y-11883984D01*
X6255420Y-11883984D02*
X6198277Y-11883984D01*
X6198277Y-11883984D02*
X6179229Y-11874460D01*
X6179229Y-11874460D02*
X6169706Y-11864936D01*
X6388753Y-11883984D02*
X6426848Y-11883984D01*
X6426848Y-11883984D02*
X6445896Y-11874460D01*
X6445896Y-11874460D02*
X6455420Y-11864936D01*
X6455420Y-11864936D02*
X6474468Y-11836365D01*
X6474468Y-11836365D02*
X6483991Y-11798269D01*
X6483991Y-11798269D02*
X6483991Y-11722079D01*
X6483991Y-11722079D02*
X6474468Y-11703031D01*
X6474468Y-11703031D02*
X6464944Y-11693508D01*
X6464944Y-11693508D02*
X6445896Y-11683984D01*
X6445896Y-11683984D02*
X6407801Y-11683984D01*
X6407801Y-11683984D02*
X6388753Y-11693508D01*
X6388753Y-11693508D02*
X6379229Y-11703031D01*
X6379229Y-11703031D02*
X6369706Y-11722079D01*
X6369706Y-11722079D02*
X6369706Y-11769698D01*
X6369706Y-11769698D02*
X6379229Y-11788746D01*
X6379229Y-11788746D02*
X6388753Y-11798269D01*
X6388753Y-11798269D02*
X6407801Y-11807793D01*
X6407801Y-11807793D02*
X6445896Y-11807793D01*
X6445896Y-11807793D02*
X6464944Y-11798269D01*
X6464944Y-11798269D02*
X6474468Y-11788746D01*
X6474468Y-11788746D02*
X6483991Y-11769698D01*
X6598277Y-11769698D02*
X6579229Y-11760174D01*
X6579229Y-11760174D02*
X6569706Y-11750650D01*
X6569706Y-11750650D02*
X6560182Y-11731603D01*
X6560182Y-11731603D02*
X6560182Y-11722079D01*
X6560182Y-11722079D02*
X6569706Y-11703031D01*
X6569706Y-11703031D02*
X6579229Y-11693508D01*
X6579229Y-11693508D02*
X6598277Y-11683984D01*
X6598277Y-11683984D02*
X6636372Y-11683984D01*
X6636372Y-11683984D02*
X6655420Y-11693508D01*
X6655420Y-11693508D02*
X6664944Y-11703031D01*
X6664944Y-11703031D02*
X6674468Y-11722079D01*
X6674468Y-11722079D02*
X6674468Y-11731603D01*
X6674468Y-11731603D02*
X6664944Y-11750650D01*
X6664944Y-11750650D02*
X6655420Y-11760174D01*
X6655420Y-11760174D02*
X6636372Y-11769698D01*
X6636372Y-11769698D02*
X6598277Y-11769698D01*
X6598277Y-11769698D02*
X6579229Y-11779222D01*
X6579229Y-11779222D02*
X6569706Y-11788746D01*
X6569706Y-11788746D02*
X6560182Y-11807793D01*
X6560182Y-11807793D02*
X6560182Y-11845888D01*
X6560182Y-11845888D02*
X6569706Y-11864936D01*
X6569706Y-11864936D02*
X6579229Y-11874460D01*
X6579229Y-11874460D02*
X6598277Y-11883984D01*
X6598277Y-11883984D02*
X6636372Y-11883984D01*
X6636372Y-11883984D02*
X6655420Y-11874460D01*
X6655420Y-11874460D02*
X6664944Y-11864936D01*
X6664944Y-11864936D02*
X6674468Y-11845888D01*
X6674468Y-11845888D02*
X6674468Y-11807793D01*
X6674468Y-11807793D02*
X6664944Y-11788746D01*
X6664944Y-11788746D02*
X6655420Y-11779222D01*
X6655420Y-11779222D02*
X6636372Y-11769698D01*
X6912563Y-11883984D02*
X6912563Y-11683984D01*
X6998277Y-11883984D02*
X6998277Y-11779222D01*
X6998277Y-11779222D02*
X6988753Y-11760174D01*
X6988753Y-11760174D02*
X6969706Y-11750650D01*
X6969706Y-11750650D02*
X6941134Y-11750650D01*
X6941134Y-11750650D02*
X6922087Y-11760174D01*
X6922087Y-11760174D02*
X6912563Y-11769698D01*
X7122087Y-11883984D02*
X7103039Y-11874460D01*
X7103039Y-11874460D02*
X7093515Y-11864936D01*
X7093515Y-11864936D02*
X7083991Y-11845888D01*
X7083991Y-11845888D02*
X7083991Y-11788746D01*
X7083991Y-11788746D02*
X7093515Y-11769698D01*
X7093515Y-11769698D02*
X7103039Y-11760174D01*
X7103039Y-11760174D02*
X7122087Y-11750650D01*
X7122087Y-11750650D02*
X7150658Y-11750650D01*
X7150658Y-11750650D02*
X7169706Y-11760174D01*
X7169706Y-11760174D02*
X7179230Y-11769698D01*
X7179230Y-11769698D02*
X7188753Y-11788746D01*
X7188753Y-11788746D02*
X7188753Y-11845888D01*
X7188753Y-11845888D02*
X7179230Y-11864936D01*
X7179230Y-11864936D02*
X7169706Y-11874460D01*
X7169706Y-11874460D02*
X7150658Y-11883984D01*
X7150658Y-11883984D02*
X7122087Y-11883984D01*
X7303039Y-11883984D02*
X7283991Y-11874460D01*
X7283991Y-11874460D02*
X7274468Y-11855412D01*
X7274468Y-11855412D02*
X7274468Y-11683984D01*
X7455420Y-11874460D02*
X7436372Y-11883984D01*
X7436372Y-11883984D02*
X7398277Y-11883984D01*
X7398277Y-11883984D02*
X7379230Y-11874460D01*
X7379230Y-11874460D02*
X7369706Y-11855412D01*
X7369706Y-11855412D02*
X7369706Y-11779222D01*
X7369706Y-11779222D02*
X7379230Y-11760174D01*
X7379230Y-11760174D02*
X7398277Y-11750650D01*
X7398277Y-11750650D02*
X7436372Y-11750650D01*
X7436372Y-11750650D02*
X7455420Y-11760174D01*
X7455420Y-11760174D02*
X7464944Y-11779222D01*
X7464944Y-11779222D02*
X7464944Y-11798269D01*
X7464944Y-11798269D02*
X7369706Y-11817317D01*
X7541134Y-11874460D02*
X7560182Y-11883984D01*
X7560182Y-11883984D02*
X7598277Y-11883984D01*
X7598277Y-11883984D02*
X7617325Y-11874460D01*
X7617325Y-11874460D02*
X7626849Y-11855412D01*
X7626849Y-11855412D02*
X7626849Y-11845888D01*
X7626849Y-11845888D02*
X7617325Y-11826841D01*
X7617325Y-11826841D02*
X7598277Y-11817317D01*
X7598277Y-11817317D02*
X7569706Y-11817317D01*
X7569706Y-11817317D02*
X7550658Y-11807793D01*
X7550658Y-11807793D02*
X7541134Y-11788746D01*
X7541134Y-11788746D02*
X7541134Y-11779222D01*
X7541134Y-11779222D02*
X7550658Y-11760174D01*
X7550658Y-11760174D02*
X7569706Y-11750650D01*
X7569706Y-11750650D02*
X7598277Y-11750650D01*
X7598277Y-11750650D02*
X7617325Y-11760174D01*
X7693515Y-11960174D02*
X7703039Y-11950650D01*
X7703039Y-11950650D02*
X7722087Y-11922079D01*
X7722087Y-11922079D02*
X7731611Y-11903031D01*
X7731611Y-11903031D02*
X7741134Y-11874460D01*
X7741134Y-11874460D02*
X7750658Y-11826841D01*
X7750658Y-11826841D02*
X7750658Y-11788746D01*
X7750658Y-11788746D02*
X7741134Y-11741127D01*
X7741134Y-11741127D02*
X7731611Y-11712555D01*
X7731611Y-11712555D02*
X7722087Y-11693508D01*
X7722087Y-11693508D02*
X7703039Y-11664936D01*
X7703039Y-11664936D02*
X7693515Y-11655412D01*
D12*
X2537500Y-12056500D02*
G75*
G02*
X2457500Y-12056500I-40000J0D01*
G01*
X2457500Y-12056500D02*
G75*
G02*
X2537500Y-12056500I40000J0D01*
G01*
D11*
X2836372Y-11947984D02*
X2855420Y-11947984D01*
X2855420Y-11947984D02*
X2874467Y-11957508D01*
X2874467Y-11957508D02*
X2883991Y-11967031D01*
X2883991Y-11967031D02*
X2893515Y-11986079D01*
X2893515Y-11986079D02*
X2903039Y-12024174D01*
X2903039Y-12024174D02*
X2903039Y-12071793D01*
X2903039Y-12071793D02*
X2893515Y-12109888D01*
X2893515Y-12109888D02*
X2883991Y-12128936D01*
X2883991Y-12128936D02*
X2874467Y-12138460D01*
X2874467Y-12138460D02*
X2855420Y-12147984D01*
X2855420Y-12147984D02*
X2836372Y-12147984D01*
X2836372Y-12147984D02*
X2817324Y-12138460D01*
X2817324Y-12138460D02*
X2807801Y-12128936D01*
X2807801Y-12128936D02*
X2798277Y-12109888D01*
X2798277Y-12109888D02*
X2788753Y-12071793D01*
X2788753Y-12071793D02*
X2788753Y-12024174D01*
X2788753Y-12024174D02*
X2798277Y-11986079D01*
X2798277Y-11986079D02*
X2807801Y-11967031D01*
X2807801Y-11967031D02*
X2817324Y-11957508D01*
X2817324Y-11957508D02*
X2836372Y-11947984D01*
X2988753Y-12128936D02*
X2998277Y-12138460D01*
X2998277Y-12138460D02*
X2988753Y-12147984D01*
X2988753Y-12147984D02*
X2979229Y-12138460D01*
X2979229Y-12138460D02*
X2988753Y-12128936D01*
X2988753Y-12128936D02*
X2988753Y-12147984D01*
X3112562Y-12033698D02*
X3093515Y-12024174D01*
X3093515Y-12024174D02*
X3083991Y-12014650D01*
X3083991Y-12014650D02*
X3074467Y-11995603D01*
X3074467Y-11995603D02*
X3074467Y-11986079D01*
X3074467Y-11986079D02*
X3083991Y-11967031D01*
X3083991Y-11967031D02*
X3093515Y-11957508D01*
X3093515Y-11957508D02*
X3112562Y-11947984D01*
X3112562Y-11947984D02*
X3150658Y-11947984D01*
X3150658Y-11947984D02*
X3169705Y-11957508D01*
X3169705Y-11957508D02*
X3179229Y-11967031D01*
X3179229Y-11967031D02*
X3188753Y-11986079D01*
X3188753Y-11986079D02*
X3188753Y-11995603D01*
X3188753Y-11995603D02*
X3179229Y-12014650D01*
X3179229Y-12014650D02*
X3169705Y-12024174D01*
X3169705Y-12024174D02*
X3150658Y-12033698D01*
X3150658Y-12033698D02*
X3112562Y-12033698D01*
X3112562Y-12033698D02*
X3093515Y-12043222D01*
X3093515Y-12043222D02*
X3083991Y-12052746D01*
X3083991Y-12052746D02*
X3074467Y-12071793D01*
X3074467Y-12071793D02*
X3074467Y-12109888D01*
X3074467Y-12109888D02*
X3083991Y-12128936D01*
X3083991Y-12128936D02*
X3093515Y-12138460D01*
X3093515Y-12138460D02*
X3112562Y-12147984D01*
X3112562Y-12147984D02*
X3150658Y-12147984D01*
X3150658Y-12147984D02*
X3169705Y-12138460D01*
X3169705Y-12138460D02*
X3179229Y-12128936D01*
X3179229Y-12128936D02*
X3188753Y-12109888D01*
X3188753Y-12109888D02*
X3188753Y-12071793D01*
X3188753Y-12071793D02*
X3179229Y-12052746D01*
X3179229Y-12052746D02*
X3169705Y-12043222D01*
X3169705Y-12043222D02*
X3150658Y-12033698D01*
X3312562Y-11947984D02*
X3331610Y-11947984D01*
X3331610Y-11947984D02*
X3350658Y-11957508D01*
X3350658Y-11957508D02*
X3360182Y-11967031D01*
X3360182Y-11967031D02*
X3369705Y-11986079D01*
X3369705Y-11986079D02*
X3379229Y-12024174D01*
X3379229Y-12024174D02*
X3379229Y-12071793D01*
X3379229Y-12071793D02*
X3369705Y-12109888D01*
X3369705Y-12109888D02*
X3360182Y-12128936D01*
X3360182Y-12128936D02*
X3350658Y-12138460D01*
X3350658Y-12138460D02*
X3331610Y-12147984D01*
X3331610Y-12147984D02*
X3312562Y-12147984D01*
X3312562Y-12147984D02*
X3293515Y-12138460D01*
X3293515Y-12138460D02*
X3283991Y-12128936D01*
X3283991Y-12128936D02*
X3274467Y-12109888D01*
X3274467Y-12109888D02*
X3264943Y-12071793D01*
X3264943Y-12071793D02*
X3264943Y-12024174D01*
X3264943Y-12024174D02*
X3274467Y-11986079D01*
X3274467Y-11986079D02*
X3283991Y-11967031D01*
X3283991Y-11967031D02*
X3293515Y-11957508D01*
X3293515Y-11957508D02*
X3312562Y-11947984D01*
X3503039Y-11947984D02*
X3522086Y-11947984D01*
X3522086Y-11947984D02*
X3541134Y-11957508D01*
X3541134Y-11957508D02*
X3550658Y-11967031D01*
X3550658Y-11967031D02*
X3560182Y-11986079D01*
X3560182Y-11986079D02*
X3569705Y-12024174D01*
X3569705Y-12024174D02*
X3569705Y-12071793D01*
X3569705Y-12071793D02*
X3560182Y-12109888D01*
X3560182Y-12109888D02*
X3550658Y-12128936D01*
X3550658Y-12128936D02*
X3541134Y-12138460D01*
X3541134Y-12138460D02*
X3522086Y-12147984D01*
X3522086Y-12147984D02*
X3503039Y-12147984D01*
X3503039Y-12147984D02*
X3483991Y-12138460D01*
X3483991Y-12138460D02*
X3474467Y-12128936D01*
X3474467Y-12128936D02*
X3464943Y-12109888D01*
X3464943Y-12109888D02*
X3455420Y-12071793D01*
X3455420Y-12071793D02*
X3455420Y-12024174D01*
X3455420Y-12024174D02*
X3464943Y-11986079D01*
X3464943Y-11986079D02*
X3474467Y-11967031D01*
X3474467Y-11967031D02*
X3483991Y-11957508D01*
X3483991Y-11957508D02*
X3503039Y-11947984D01*
X3655420Y-12147984D02*
X3655420Y-12014650D01*
X3655420Y-12033698D02*
X3664943Y-12024174D01*
X3664943Y-12024174D02*
X3683991Y-12014650D01*
X3683991Y-12014650D02*
X3712563Y-12014650D01*
X3712563Y-12014650D02*
X3731610Y-12024174D01*
X3731610Y-12024174D02*
X3741134Y-12043222D01*
X3741134Y-12043222D02*
X3741134Y-12147984D01*
X3741134Y-12043222D02*
X3750658Y-12024174D01*
X3750658Y-12024174D02*
X3769705Y-12014650D01*
X3769705Y-12014650D02*
X3798277Y-12014650D01*
X3798277Y-12014650D02*
X3817324Y-12024174D01*
X3817324Y-12024174D02*
X3826848Y-12043222D01*
X3826848Y-12043222D02*
X3826848Y-12147984D01*
X3922086Y-12147984D02*
X3922086Y-12014650D01*
X3922086Y-12033698D02*
X3931610Y-12024174D01*
X3931610Y-12024174D02*
X3950658Y-12014650D01*
X3950658Y-12014650D02*
X3979229Y-12014650D01*
X3979229Y-12014650D02*
X3998277Y-12024174D01*
X3998277Y-12024174D02*
X4007801Y-12043222D01*
X4007801Y-12043222D02*
X4007801Y-12147984D01*
X4007801Y-12043222D02*
X4017324Y-12024174D01*
X4017324Y-12024174D02*
X4036372Y-12014650D01*
X4036372Y-12014650D02*
X4064943Y-12014650D01*
X4064943Y-12014650D02*
X4083991Y-12024174D01*
X4083991Y-12024174D02*
X4093515Y-12043222D01*
X4093515Y-12043222D02*
X4093515Y-12147984D01*
X4483991Y-11938460D02*
X4312563Y-12195603D01*
X4741134Y-11947984D02*
X4760182Y-11947984D01*
X4760182Y-11947984D02*
X4779229Y-11957508D01*
X4779229Y-11957508D02*
X4788753Y-11967031D01*
X4788753Y-11967031D02*
X4798277Y-11986079D01*
X4798277Y-11986079D02*
X4807801Y-12024174D01*
X4807801Y-12024174D02*
X4807801Y-12071793D01*
X4807801Y-12071793D02*
X4798277Y-12109888D01*
X4798277Y-12109888D02*
X4788753Y-12128936D01*
X4788753Y-12128936D02*
X4779229Y-12138460D01*
X4779229Y-12138460D02*
X4760182Y-12147984D01*
X4760182Y-12147984D02*
X4741134Y-12147984D01*
X4741134Y-12147984D02*
X4722087Y-12138460D01*
X4722087Y-12138460D02*
X4712563Y-12128936D01*
X4712563Y-12128936D02*
X4703039Y-12109888D01*
X4703039Y-12109888D02*
X4693515Y-12071793D01*
X4693515Y-12071793D02*
X4693515Y-12024174D01*
X4693515Y-12024174D02*
X4703039Y-11986079D01*
X4703039Y-11986079D02*
X4712563Y-11967031D01*
X4712563Y-11967031D02*
X4722087Y-11957508D01*
X4722087Y-11957508D02*
X4741134Y-11947984D01*
X4893515Y-12128936D02*
X4903039Y-12138460D01*
X4903039Y-12138460D02*
X4893515Y-12147984D01*
X4893515Y-12147984D02*
X4883991Y-12138460D01*
X4883991Y-12138460D02*
X4893515Y-12128936D01*
X4893515Y-12128936D02*
X4893515Y-12147984D01*
X5026848Y-11947984D02*
X5045896Y-11947984D01*
X5045896Y-11947984D02*
X5064944Y-11957508D01*
X5064944Y-11957508D02*
X5074468Y-11967031D01*
X5074468Y-11967031D02*
X5083991Y-11986079D01*
X5083991Y-11986079D02*
X5093515Y-12024174D01*
X5093515Y-12024174D02*
X5093515Y-12071793D01*
X5093515Y-12071793D02*
X5083991Y-12109888D01*
X5083991Y-12109888D02*
X5074468Y-12128936D01*
X5074468Y-12128936D02*
X5064944Y-12138460D01*
X5064944Y-12138460D02*
X5045896Y-12147984D01*
X5045896Y-12147984D02*
X5026848Y-12147984D01*
X5026848Y-12147984D02*
X5007801Y-12138460D01*
X5007801Y-12138460D02*
X4998277Y-12128936D01*
X4998277Y-12128936D02*
X4988753Y-12109888D01*
X4988753Y-12109888D02*
X4979229Y-12071793D01*
X4979229Y-12071793D02*
X4979229Y-12024174D01*
X4979229Y-12024174D02*
X4988753Y-11986079D01*
X4988753Y-11986079D02*
X4998277Y-11967031D01*
X4998277Y-11967031D02*
X5007801Y-11957508D01*
X5007801Y-11957508D02*
X5026848Y-11947984D01*
X5160182Y-11947984D02*
X5283991Y-11947984D01*
X5283991Y-11947984D02*
X5217325Y-12024174D01*
X5217325Y-12024174D02*
X5245896Y-12024174D01*
X5245896Y-12024174D02*
X5264944Y-12033698D01*
X5264944Y-12033698D02*
X5274468Y-12043222D01*
X5274468Y-12043222D02*
X5283991Y-12062269D01*
X5283991Y-12062269D02*
X5283991Y-12109888D01*
X5283991Y-12109888D02*
X5274468Y-12128936D01*
X5274468Y-12128936D02*
X5264944Y-12138460D01*
X5264944Y-12138460D02*
X5245896Y-12147984D01*
X5245896Y-12147984D02*
X5188753Y-12147984D01*
X5188753Y-12147984D02*
X5169706Y-12138460D01*
X5169706Y-12138460D02*
X5160182Y-12128936D01*
X5474468Y-12147984D02*
X5360182Y-12147984D01*
X5417325Y-12147984D02*
X5417325Y-11947984D01*
X5417325Y-11947984D02*
X5398277Y-11976555D01*
X5398277Y-11976555D02*
X5379229Y-11995603D01*
X5379229Y-11995603D02*
X5360182Y-12005127D01*
X5655420Y-11947984D02*
X5560182Y-11947984D01*
X5560182Y-11947984D02*
X5550658Y-12043222D01*
X5550658Y-12043222D02*
X5560182Y-12033698D01*
X5560182Y-12033698D02*
X5579229Y-12024174D01*
X5579229Y-12024174D02*
X5626848Y-12024174D01*
X5626848Y-12024174D02*
X5645896Y-12033698D01*
X5645896Y-12033698D02*
X5655420Y-12043222D01*
X5655420Y-12043222D02*
X5664944Y-12062269D01*
X5664944Y-12062269D02*
X5664944Y-12109888D01*
X5664944Y-12109888D02*
X5655420Y-12128936D01*
X5655420Y-12128936D02*
X5645896Y-12138460D01*
X5645896Y-12138460D02*
X5626848Y-12147984D01*
X5626848Y-12147984D02*
X5579229Y-12147984D01*
X5579229Y-12147984D02*
X5560182Y-12138460D01*
X5560182Y-12138460D02*
X5550658Y-12128936D01*
X5741134Y-11947984D02*
X5741134Y-11986079D01*
X5817325Y-11947984D02*
X5817325Y-11986079D01*
X6112563Y-12224174D02*
X6103039Y-12214650D01*
X6103039Y-12214650D02*
X6083991Y-12186079D01*
X6083991Y-12186079D02*
X6074468Y-12167031D01*
X6074468Y-12167031D02*
X6064944Y-12138460D01*
X6064944Y-12138460D02*
X6055420Y-12090841D01*
X6055420Y-12090841D02*
X6055420Y-12052746D01*
X6055420Y-12052746D02*
X6064944Y-12005127D01*
X6064944Y-12005127D02*
X6074468Y-11976555D01*
X6074468Y-11976555D02*
X6083991Y-11957508D01*
X6083991Y-11957508D02*
X6103039Y-11928936D01*
X6103039Y-11928936D02*
X6112563Y-11919412D01*
X6179229Y-11967031D02*
X6188753Y-11957508D01*
X6188753Y-11957508D02*
X6207801Y-11947984D01*
X6207801Y-11947984D02*
X6255420Y-11947984D01*
X6255420Y-11947984D02*
X6274468Y-11957508D01*
X6274468Y-11957508D02*
X6283991Y-11967031D01*
X6283991Y-11967031D02*
X6293515Y-11986079D01*
X6293515Y-11986079D02*
X6293515Y-12005127D01*
X6293515Y-12005127D02*
X6283991Y-12033698D01*
X6283991Y-12033698D02*
X6169706Y-12147984D01*
X6169706Y-12147984D02*
X6293515Y-12147984D01*
X6417325Y-11947984D02*
X6436372Y-11947984D01*
X6436372Y-11947984D02*
X6455420Y-11957508D01*
X6455420Y-11957508D02*
X6464944Y-11967031D01*
X6464944Y-11967031D02*
X6474468Y-11986079D01*
X6474468Y-11986079D02*
X6483991Y-12024174D01*
X6483991Y-12024174D02*
X6483991Y-12071793D01*
X6483991Y-12071793D02*
X6474468Y-12109888D01*
X6474468Y-12109888D02*
X6464944Y-12128936D01*
X6464944Y-12128936D02*
X6455420Y-12138460D01*
X6455420Y-12138460D02*
X6436372Y-12147984D01*
X6436372Y-12147984D02*
X6417325Y-12147984D01*
X6417325Y-12147984D02*
X6398277Y-12138460D01*
X6398277Y-12138460D02*
X6388753Y-12128936D01*
X6388753Y-12128936D02*
X6379229Y-12109888D01*
X6379229Y-12109888D02*
X6369706Y-12071793D01*
X6369706Y-12071793D02*
X6369706Y-12024174D01*
X6369706Y-12024174D02*
X6379229Y-11986079D01*
X6379229Y-11986079D02*
X6388753Y-11967031D01*
X6388753Y-11967031D02*
X6398277Y-11957508D01*
X6398277Y-11957508D02*
X6417325Y-11947984D01*
X6722087Y-12147984D02*
X6722087Y-11947984D01*
X6807801Y-12147984D02*
X6807801Y-12043222D01*
X6807801Y-12043222D02*
X6798277Y-12024174D01*
X6798277Y-12024174D02*
X6779230Y-12014650D01*
X6779230Y-12014650D02*
X6750658Y-12014650D01*
X6750658Y-12014650D02*
X6731610Y-12024174D01*
X6731610Y-12024174D02*
X6722087Y-12033698D01*
X6931610Y-12147984D02*
X6912563Y-12138460D01*
X6912563Y-12138460D02*
X6903039Y-12128936D01*
X6903039Y-12128936D02*
X6893515Y-12109888D01*
X6893515Y-12109888D02*
X6893515Y-12052746D01*
X6893515Y-12052746D02*
X6903039Y-12033698D01*
X6903039Y-12033698D02*
X6912563Y-12024174D01*
X6912563Y-12024174D02*
X6931610Y-12014650D01*
X6931610Y-12014650D02*
X6960182Y-12014650D01*
X6960182Y-12014650D02*
X6979230Y-12024174D01*
X6979230Y-12024174D02*
X6988753Y-12033698D01*
X6988753Y-12033698D02*
X6998277Y-12052746D01*
X6998277Y-12052746D02*
X6998277Y-12109888D01*
X6998277Y-12109888D02*
X6988753Y-12128936D01*
X6988753Y-12128936D02*
X6979230Y-12138460D01*
X6979230Y-12138460D02*
X6960182Y-12147984D01*
X6960182Y-12147984D02*
X6931610Y-12147984D01*
X7112563Y-12147984D02*
X7093515Y-12138460D01*
X7093515Y-12138460D02*
X7083991Y-12119412D01*
X7083991Y-12119412D02*
X7083991Y-11947984D01*
X7264944Y-12138460D02*
X7245896Y-12147984D01*
X7245896Y-12147984D02*
X7207801Y-12147984D01*
X7207801Y-12147984D02*
X7188753Y-12138460D01*
X7188753Y-12138460D02*
X7179230Y-12119412D01*
X7179230Y-12119412D02*
X7179230Y-12043222D01*
X7179230Y-12043222D02*
X7188753Y-12024174D01*
X7188753Y-12024174D02*
X7207801Y-12014650D01*
X7207801Y-12014650D02*
X7245896Y-12014650D01*
X7245896Y-12014650D02*
X7264944Y-12024174D01*
X7264944Y-12024174D02*
X7274468Y-12043222D01*
X7274468Y-12043222D02*
X7274468Y-12062269D01*
X7274468Y-12062269D02*
X7179230Y-12081317D01*
X7350658Y-12138460D02*
X7369706Y-12147984D01*
X7369706Y-12147984D02*
X7407801Y-12147984D01*
X7407801Y-12147984D02*
X7426849Y-12138460D01*
X7426849Y-12138460D02*
X7436372Y-12119412D01*
X7436372Y-12119412D02*
X7436372Y-12109888D01*
X7436372Y-12109888D02*
X7426849Y-12090841D01*
X7426849Y-12090841D02*
X7407801Y-12081317D01*
X7407801Y-12081317D02*
X7379230Y-12081317D01*
X7379230Y-12081317D02*
X7360182Y-12071793D01*
X7360182Y-12071793D02*
X7350658Y-12052746D01*
X7350658Y-12052746D02*
X7350658Y-12043222D01*
X7350658Y-12043222D02*
X7360182Y-12024174D01*
X7360182Y-12024174D02*
X7379230Y-12014650D01*
X7379230Y-12014650D02*
X7407801Y-12014650D01*
X7407801Y-12014650D02*
X7426849Y-12024174D01*
X7503039Y-12224174D02*
X7512563Y-12214650D01*
X7512563Y-12214650D02*
X7531611Y-12186079D01*
X7531611Y-12186079D02*
X7541134Y-12167031D01*
X7541134Y-12167031D02*
X7550658Y-12138460D01*
X7550658Y-12138460D02*
X7560182Y-12090841D01*
X7560182Y-12090841D02*
X7560182Y-12052746D01*
X7560182Y-12052746D02*
X7550658Y-12005127D01*
X7550658Y-12005127D02*
X7541134Y-11976555D01*
X7541134Y-11976555D02*
X7531611Y-11957508D01*
X7531611Y-11957508D02*
X7512563Y-11928936D01*
X7512563Y-11928936D02*
X7503039Y-11919412D01*
D12*
X2490000Y-12273000D02*
X2490000Y-12368000D01*
X2442500Y-12320500D02*
X2537500Y-12320500D01*
D11*
X2836372Y-12211984D02*
X2855420Y-12211984D01*
X2855420Y-12211984D02*
X2874467Y-12221508D01*
X2874467Y-12221508D02*
X2883991Y-12231031D01*
X2883991Y-12231031D02*
X2893515Y-12250079D01*
X2893515Y-12250079D02*
X2903039Y-12288174D01*
X2903039Y-12288174D02*
X2903039Y-12335793D01*
X2903039Y-12335793D02*
X2893515Y-12373888D01*
X2893515Y-12373888D02*
X2883991Y-12392936D01*
X2883991Y-12392936D02*
X2874467Y-12402460D01*
X2874467Y-12402460D02*
X2855420Y-12411984D01*
X2855420Y-12411984D02*
X2836372Y-12411984D01*
X2836372Y-12411984D02*
X2817324Y-12402460D01*
X2817324Y-12402460D02*
X2807801Y-12392936D01*
X2807801Y-12392936D02*
X2798277Y-12373888D01*
X2798277Y-12373888D02*
X2788753Y-12335793D01*
X2788753Y-12335793D02*
X2788753Y-12288174D01*
X2788753Y-12288174D02*
X2798277Y-12250079D01*
X2798277Y-12250079D02*
X2807801Y-12231031D01*
X2807801Y-12231031D02*
X2817324Y-12221508D01*
X2817324Y-12221508D02*
X2836372Y-12211984D01*
X2988753Y-12392936D02*
X2998277Y-12402460D01*
X2998277Y-12402460D02*
X2988753Y-12411984D01*
X2988753Y-12411984D02*
X2979229Y-12402460D01*
X2979229Y-12402460D02*
X2988753Y-12392936D01*
X2988753Y-12392936D02*
X2988753Y-12411984D01*
X3093515Y-12411984D02*
X3131610Y-12411984D01*
X3131610Y-12411984D02*
X3150658Y-12402460D01*
X3150658Y-12402460D02*
X3160182Y-12392936D01*
X3160182Y-12392936D02*
X3179229Y-12364365D01*
X3179229Y-12364365D02*
X3188753Y-12326269D01*
X3188753Y-12326269D02*
X3188753Y-12250079D01*
X3188753Y-12250079D02*
X3179229Y-12231031D01*
X3179229Y-12231031D02*
X3169705Y-12221508D01*
X3169705Y-12221508D02*
X3150658Y-12211984D01*
X3150658Y-12211984D02*
X3112562Y-12211984D01*
X3112562Y-12211984D02*
X3093515Y-12221508D01*
X3093515Y-12221508D02*
X3083991Y-12231031D01*
X3083991Y-12231031D02*
X3074467Y-12250079D01*
X3074467Y-12250079D02*
X3074467Y-12297698D01*
X3074467Y-12297698D02*
X3083991Y-12316746D01*
X3083991Y-12316746D02*
X3093515Y-12326269D01*
X3093515Y-12326269D02*
X3112562Y-12335793D01*
X3112562Y-12335793D02*
X3150658Y-12335793D01*
X3150658Y-12335793D02*
X3169705Y-12326269D01*
X3169705Y-12326269D02*
X3179229Y-12316746D01*
X3179229Y-12316746D02*
X3188753Y-12297698D01*
X3369705Y-12211984D02*
X3274467Y-12211984D01*
X3274467Y-12211984D02*
X3264943Y-12307222D01*
X3264943Y-12307222D02*
X3274467Y-12297698D01*
X3274467Y-12297698D02*
X3293515Y-12288174D01*
X3293515Y-12288174D02*
X3341134Y-12288174D01*
X3341134Y-12288174D02*
X3360182Y-12297698D01*
X3360182Y-12297698D02*
X3369705Y-12307222D01*
X3369705Y-12307222D02*
X3379229Y-12326269D01*
X3379229Y-12326269D02*
X3379229Y-12373888D01*
X3379229Y-12373888D02*
X3369705Y-12392936D01*
X3369705Y-12392936D02*
X3360182Y-12402460D01*
X3360182Y-12402460D02*
X3341134Y-12411984D01*
X3341134Y-12411984D02*
X3293515Y-12411984D01*
X3293515Y-12411984D02*
X3274467Y-12402460D01*
X3274467Y-12402460D02*
X3264943Y-12392936D01*
X3503039Y-12211984D02*
X3522086Y-12211984D01*
X3522086Y-12211984D02*
X3541134Y-12221508D01*
X3541134Y-12221508D02*
X3550658Y-12231031D01*
X3550658Y-12231031D02*
X3560182Y-12250079D01*
X3560182Y-12250079D02*
X3569705Y-12288174D01*
X3569705Y-12288174D02*
X3569705Y-12335793D01*
X3569705Y-12335793D02*
X3560182Y-12373888D01*
X3560182Y-12373888D02*
X3550658Y-12392936D01*
X3550658Y-12392936D02*
X3541134Y-12402460D01*
X3541134Y-12402460D02*
X3522086Y-12411984D01*
X3522086Y-12411984D02*
X3503039Y-12411984D01*
X3503039Y-12411984D02*
X3483991Y-12402460D01*
X3483991Y-12402460D02*
X3474467Y-12392936D01*
X3474467Y-12392936D02*
X3464943Y-12373888D01*
X3464943Y-12373888D02*
X3455420Y-12335793D01*
X3455420Y-12335793D02*
X3455420Y-12288174D01*
X3455420Y-12288174D02*
X3464943Y-12250079D01*
X3464943Y-12250079D02*
X3474467Y-12231031D01*
X3474467Y-12231031D02*
X3483991Y-12221508D01*
X3483991Y-12221508D02*
X3503039Y-12211984D01*
X3655420Y-12411984D02*
X3655420Y-12278650D01*
X3655420Y-12297698D02*
X3664943Y-12288174D01*
X3664943Y-12288174D02*
X3683991Y-12278650D01*
X3683991Y-12278650D02*
X3712563Y-12278650D01*
X3712563Y-12278650D02*
X3731610Y-12288174D01*
X3731610Y-12288174D02*
X3741134Y-12307222D01*
X3741134Y-12307222D02*
X3741134Y-12411984D01*
X3741134Y-12307222D02*
X3750658Y-12288174D01*
X3750658Y-12288174D02*
X3769705Y-12278650D01*
X3769705Y-12278650D02*
X3798277Y-12278650D01*
X3798277Y-12278650D02*
X3817324Y-12288174D01*
X3817324Y-12288174D02*
X3826848Y-12307222D01*
X3826848Y-12307222D02*
X3826848Y-12411984D01*
X3922086Y-12411984D02*
X3922086Y-12278650D01*
X3922086Y-12297698D02*
X3931610Y-12288174D01*
X3931610Y-12288174D02*
X3950658Y-12278650D01*
X3950658Y-12278650D02*
X3979229Y-12278650D01*
X3979229Y-12278650D02*
X3998277Y-12288174D01*
X3998277Y-12288174D02*
X4007801Y-12307222D01*
X4007801Y-12307222D02*
X4007801Y-12411984D01*
X4007801Y-12307222D02*
X4017324Y-12288174D01*
X4017324Y-12288174D02*
X4036372Y-12278650D01*
X4036372Y-12278650D02*
X4064943Y-12278650D01*
X4064943Y-12278650D02*
X4083991Y-12288174D01*
X4083991Y-12288174D02*
X4093515Y-12307222D01*
X4093515Y-12307222D02*
X4093515Y-12411984D01*
X4483991Y-12202460D02*
X4312563Y-12459603D01*
X4741134Y-12211984D02*
X4760182Y-12211984D01*
X4760182Y-12211984D02*
X4779229Y-12221508D01*
X4779229Y-12221508D02*
X4788753Y-12231031D01*
X4788753Y-12231031D02*
X4798277Y-12250079D01*
X4798277Y-12250079D02*
X4807801Y-12288174D01*
X4807801Y-12288174D02*
X4807801Y-12335793D01*
X4807801Y-12335793D02*
X4798277Y-12373888D01*
X4798277Y-12373888D02*
X4788753Y-12392936D01*
X4788753Y-12392936D02*
X4779229Y-12402460D01*
X4779229Y-12402460D02*
X4760182Y-12411984D01*
X4760182Y-12411984D02*
X4741134Y-12411984D01*
X4741134Y-12411984D02*
X4722087Y-12402460D01*
X4722087Y-12402460D02*
X4712563Y-12392936D01*
X4712563Y-12392936D02*
X4703039Y-12373888D01*
X4703039Y-12373888D02*
X4693515Y-12335793D01*
X4693515Y-12335793D02*
X4693515Y-12288174D01*
X4693515Y-12288174D02*
X4703039Y-12250079D01*
X4703039Y-12250079D02*
X4712563Y-12231031D01*
X4712563Y-12231031D02*
X4722087Y-12221508D01*
X4722087Y-12221508D02*
X4741134Y-12211984D01*
X4893515Y-12392936D02*
X4903039Y-12402460D01*
X4903039Y-12402460D02*
X4893515Y-12411984D01*
X4893515Y-12411984D02*
X4883991Y-12402460D01*
X4883991Y-12402460D02*
X4893515Y-12392936D01*
X4893515Y-12392936D02*
X4893515Y-12411984D01*
X5026848Y-12211984D02*
X5045896Y-12211984D01*
X5045896Y-12211984D02*
X5064944Y-12221508D01*
X5064944Y-12221508D02*
X5074468Y-12231031D01*
X5074468Y-12231031D02*
X5083991Y-12250079D01*
X5083991Y-12250079D02*
X5093515Y-12288174D01*
X5093515Y-12288174D02*
X5093515Y-12335793D01*
X5093515Y-12335793D02*
X5083991Y-12373888D01*
X5083991Y-12373888D02*
X5074468Y-12392936D01*
X5074468Y-12392936D02*
X5064944Y-12402460D01*
X5064944Y-12402460D02*
X5045896Y-12411984D01*
X5045896Y-12411984D02*
X5026848Y-12411984D01*
X5026848Y-12411984D02*
X5007801Y-12402460D01*
X5007801Y-12402460D02*
X4998277Y-12392936D01*
X4998277Y-12392936D02*
X4988753Y-12373888D01*
X4988753Y-12373888D02*
X4979229Y-12335793D01*
X4979229Y-12335793D02*
X4979229Y-12288174D01*
X4979229Y-12288174D02*
X4988753Y-12250079D01*
X4988753Y-12250079D02*
X4998277Y-12231031D01*
X4998277Y-12231031D02*
X5007801Y-12221508D01*
X5007801Y-12221508D02*
X5026848Y-12211984D01*
X5160182Y-12211984D02*
X5283991Y-12211984D01*
X5283991Y-12211984D02*
X5217325Y-12288174D01*
X5217325Y-12288174D02*
X5245896Y-12288174D01*
X5245896Y-12288174D02*
X5264944Y-12297698D01*
X5264944Y-12297698D02*
X5274468Y-12307222D01*
X5274468Y-12307222D02*
X5283991Y-12326269D01*
X5283991Y-12326269D02*
X5283991Y-12373888D01*
X5283991Y-12373888D02*
X5274468Y-12392936D01*
X5274468Y-12392936D02*
X5264944Y-12402460D01*
X5264944Y-12402460D02*
X5245896Y-12411984D01*
X5245896Y-12411984D02*
X5188753Y-12411984D01*
X5188753Y-12411984D02*
X5169706Y-12402460D01*
X5169706Y-12402460D02*
X5160182Y-12392936D01*
X5350658Y-12211984D02*
X5483991Y-12211984D01*
X5483991Y-12211984D02*
X5398277Y-12411984D01*
X5645896Y-12278650D02*
X5645896Y-12411984D01*
X5598277Y-12202460D02*
X5550658Y-12345317D01*
X5550658Y-12345317D02*
X5674467Y-12345317D01*
X5741134Y-12211984D02*
X5741134Y-12250079D01*
X5817325Y-12211984D02*
X5817325Y-12250079D01*
X6112563Y-12488174D02*
X6103039Y-12478650D01*
X6103039Y-12478650D02*
X6083991Y-12450079D01*
X6083991Y-12450079D02*
X6074468Y-12431031D01*
X6074468Y-12431031D02*
X6064944Y-12402460D01*
X6064944Y-12402460D02*
X6055420Y-12354841D01*
X6055420Y-12354841D02*
X6055420Y-12316746D01*
X6055420Y-12316746D02*
X6064944Y-12269127D01*
X6064944Y-12269127D02*
X6074468Y-12240555D01*
X6074468Y-12240555D02*
X6083991Y-12221508D01*
X6083991Y-12221508D02*
X6103039Y-12192936D01*
X6103039Y-12192936D02*
X6112563Y-12183412D01*
X6274468Y-12278650D02*
X6274468Y-12411984D01*
X6226848Y-12202460D02*
X6179229Y-12345317D01*
X6179229Y-12345317D02*
X6303039Y-12345317D01*
X6531610Y-12411984D02*
X6531610Y-12211984D01*
X6617325Y-12411984D02*
X6617325Y-12307222D01*
X6617325Y-12307222D02*
X6607801Y-12288174D01*
X6607801Y-12288174D02*
X6588753Y-12278650D01*
X6588753Y-12278650D02*
X6560182Y-12278650D01*
X6560182Y-12278650D02*
X6541134Y-12288174D01*
X6541134Y-12288174D02*
X6531610Y-12297698D01*
X6741134Y-12411984D02*
X6722087Y-12402460D01*
X6722087Y-12402460D02*
X6712563Y-12392936D01*
X6712563Y-12392936D02*
X6703039Y-12373888D01*
X6703039Y-12373888D02*
X6703039Y-12316746D01*
X6703039Y-12316746D02*
X6712563Y-12297698D01*
X6712563Y-12297698D02*
X6722087Y-12288174D01*
X6722087Y-12288174D02*
X6741134Y-12278650D01*
X6741134Y-12278650D02*
X6769706Y-12278650D01*
X6769706Y-12278650D02*
X6788753Y-12288174D01*
X6788753Y-12288174D02*
X6798277Y-12297698D01*
X6798277Y-12297698D02*
X6807801Y-12316746D01*
X6807801Y-12316746D02*
X6807801Y-12373888D01*
X6807801Y-12373888D02*
X6798277Y-12392936D01*
X6798277Y-12392936D02*
X6788753Y-12402460D01*
X6788753Y-12402460D02*
X6769706Y-12411984D01*
X6769706Y-12411984D02*
X6741134Y-12411984D01*
X6922087Y-12411984D02*
X6903039Y-12402460D01*
X6903039Y-12402460D02*
X6893515Y-12383412D01*
X6893515Y-12383412D02*
X6893515Y-12211984D01*
X7074468Y-12402460D02*
X7055420Y-12411984D01*
X7055420Y-12411984D02*
X7017325Y-12411984D01*
X7017325Y-12411984D02*
X6998277Y-12402460D01*
X6998277Y-12402460D02*
X6988753Y-12383412D01*
X6988753Y-12383412D02*
X6988753Y-12307222D01*
X6988753Y-12307222D02*
X6998277Y-12288174D01*
X6998277Y-12288174D02*
X7017325Y-12278650D01*
X7017325Y-12278650D02*
X7055420Y-12278650D01*
X7055420Y-12278650D02*
X7074468Y-12288174D01*
X7074468Y-12288174D02*
X7083991Y-12307222D01*
X7083991Y-12307222D02*
X7083991Y-12326269D01*
X7083991Y-12326269D02*
X6988753Y-12345317D01*
X7160182Y-12402460D02*
X7179230Y-12411984D01*
X7179230Y-12411984D02*
X7217325Y-12411984D01*
X7217325Y-12411984D02*
X7236372Y-12402460D01*
X7236372Y-12402460D02*
X7245896Y-12383412D01*
X7245896Y-12383412D02*
X7245896Y-12373888D01*
X7245896Y-12373888D02*
X7236372Y-12354841D01*
X7236372Y-12354841D02*
X7217325Y-12345317D01*
X7217325Y-12345317D02*
X7188753Y-12345317D01*
X7188753Y-12345317D02*
X7169706Y-12335793D01*
X7169706Y-12335793D02*
X7160182Y-12316746D01*
X7160182Y-12316746D02*
X7160182Y-12307222D01*
X7160182Y-12307222D02*
X7169706Y-12288174D01*
X7169706Y-12288174D02*
X7188753Y-12278650D01*
X7188753Y-12278650D02*
X7217325Y-12278650D01*
X7217325Y-12278650D02*
X7236372Y-12288174D01*
X7312563Y-12488174D02*
X7322087Y-12478650D01*
X7322087Y-12478650D02*
X7341134Y-12450079D01*
X7341134Y-12450079D02*
X7350658Y-12431031D01*
X7350658Y-12431031D02*
X7360182Y-12402460D01*
X7360182Y-12402460D02*
X7369706Y-12354841D01*
X7369706Y-12354841D02*
X7369706Y-12316746D01*
X7369706Y-12316746D02*
X7360182Y-12269127D01*
X7360182Y-12269127D02*
X7350658Y-12240555D01*
X7350658Y-12240555D02*
X7341134Y-12221508D01*
X7341134Y-12221508D02*
X7322087Y-12192936D01*
X7322087Y-12192936D02*
X7312563Y-12183412D01*
D12*
X2522856Y-12619856D02*
X2522856Y-12549144D01*
X2452144Y-12549144D01*
X2452144Y-12619856D01*
X2522856Y-12619856D01*
D11*
X2903039Y-12675984D02*
X2788753Y-12675984D01*
X2845896Y-12675984D02*
X2845896Y-12475984D01*
X2845896Y-12475984D02*
X2826848Y-12504555D01*
X2826848Y-12504555D02*
X2807801Y-12523603D01*
X2807801Y-12523603D02*
X2788753Y-12533127D01*
X2988753Y-12656936D02*
X2998277Y-12666460D01*
X2998277Y-12666460D02*
X2988753Y-12675984D01*
X2988753Y-12675984D02*
X2979229Y-12666460D01*
X2979229Y-12666460D02*
X2988753Y-12656936D01*
X2988753Y-12656936D02*
X2988753Y-12675984D01*
X3122086Y-12475984D02*
X3141134Y-12475984D01*
X3141134Y-12475984D02*
X3160182Y-12485508D01*
X3160182Y-12485508D02*
X3169705Y-12495031D01*
X3169705Y-12495031D02*
X3179229Y-12514079D01*
X3179229Y-12514079D02*
X3188753Y-12552174D01*
X3188753Y-12552174D02*
X3188753Y-12599793D01*
X3188753Y-12599793D02*
X3179229Y-12637888D01*
X3179229Y-12637888D02*
X3169705Y-12656936D01*
X3169705Y-12656936D02*
X3160182Y-12666460D01*
X3160182Y-12666460D02*
X3141134Y-12675984D01*
X3141134Y-12675984D02*
X3122086Y-12675984D01*
X3122086Y-12675984D02*
X3103039Y-12666460D01*
X3103039Y-12666460D02*
X3093515Y-12656936D01*
X3093515Y-12656936D02*
X3083991Y-12637888D01*
X3083991Y-12637888D02*
X3074467Y-12599793D01*
X3074467Y-12599793D02*
X3074467Y-12552174D01*
X3074467Y-12552174D02*
X3083991Y-12514079D01*
X3083991Y-12514079D02*
X3093515Y-12495031D01*
X3093515Y-12495031D02*
X3103039Y-12485508D01*
X3103039Y-12485508D02*
X3122086Y-12475984D01*
X3312562Y-12475984D02*
X3331610Y-12475984D01*
X3331610Y-12475984D02*
X3350658Y-12485508D01*
X3350658Y-12485508D02*
X3360182Y-12495031D01*
X3360182Y-12495031D02*
X3369705Y-12514079D01*
X3369705Y-12514079D02*
X3379229Y-12552174D01*
X3379229Y-12552174D02*
X3379229Y-12599793D01*
X3379229Y-12599793D02*
X3369705Y-12637888D01*
X3369705Y-12637888D02*
X3360182Y-12656936D01*
X3360182Y-12656936D02*
X3350658Y-12666460D01*
X3350658Y-12666460D02*
X3331610Y-12675984D01*
X3331610Y-12675984D02*
X3312562Y-12675984D01*
X3312562Y-12675984D02*
X3293515Y-12666460D01*
X3293515Y-12666460D02*
X3283991Y-12656936D01*
X3283991Y-12656936D02*
X3274467Y-12637888D01*
X3274467Y-12637888D02*
X3264943Y-12599793D01*
X3264943Y-12599793D02*
X3264943Y-12552174D01*
X3264943Y-12552174D02*
X3274467Y-12514079D01*
X3274467Y-12514079D02*
X3283991Y-12495031D01*
X3283991Y-12495031D02*
X3293515Y-12485508D01*
X3293515Y-12485508D02*
X3312562Y-12475984D01*
X3503039Y-12475984D02*
X3522086Y-12475984D01*
X3522086Y-12475984D02*
X3541134Y-12485508D01*
X3541134Y-12485508D02*
X3550658Y-12495031D01*
X3550658Y-12495031D02*
X3560182Y-12514079D01*
X3560182Y-12514079D02*
X3569705Y-12552174D01*
X3569705Y-12552174D02*
X3569705Y-12599793D01*
X3569705Y-12599793D02*
X3560182Y-12637888D01*
X3560182Y-12637888D02*
X3550658Y-12656936D01*
X3550658Y-12656936D02*
X3541134Y-12666460D01*
X3541134Y-12666460D02*
X3522086Y-12675984D01*
X3522086Y-12675984D02*
X3503039Y-12675984D01*
X3503039Y-12675984D02*
X3483991Y-12666460D01*
X3483991Y-12666460D02*
X3474467Y-12656936D01*
X3474467Y-12656936D02*
X3464943Y-12637888D01*
X3464943Y-12637888D02*
X3455420Y-12599793D01*
X3455420Y-12599793D02*
X3455420Y-12552174D01*
X3455420Y-12552174D02*
X3464943Y-12514079D01*
X3464943Y-12514079D02*
X3474467Y-12495031D01*
X3474467Y-12495031D02*
X3483991Y-12485508D01*
X3483991Y-12485508D02*
X3503039Y-12475984D01*
X3655420Y-12675984D02*
X3655420Y-12542650D01*
X3655420Y-12561698D02*
X3664943Y-12552174D01*
X3664943Y-12552174D02*
X3683991Y-12542650D01*
X3683991Y-12542650D02*
X3712563Y-12542650D01*
X3712563Y-12542650D02*
X3731610Y-12552174D01*
X3731610Y-12552174D02*
X3741134Y-12571222D01*
X3741134Y-12571222D02*
X3741134Y-12675984D01*
X3741134Y-12571222D02*
X3750658Y-12552174D01*
X3750658Y-12552174D02*
X3769705Y-12542650D01*
X3769705Y-12542650D02*
X3798277Y-12542650D01*
X3798277Y-12542650D02*
X3817324Y-12552174D01*
X3817324Y-12552174D02*
X3826848Y-12571222D01*
X3826848Y-12571222D02*
X3826848Y-12675984D01*
X3922086Y-12675984D02*
X3922086Y-12542650D01*
X3922086Y-12561698D02*
X3931610Y-12552174D01*
X3931610Y-12552174D02*
X3950658Y-12542650D01*
X3950658Y-12542650D02*
X3979229Y-12542650D01*
X3979229Y-12542650D02*
X3998277Y-12552174D01*
X3998277Y-12552174D02*
X4007801Y-12571222D01*
X4007801Y-12571222D02*
X4007801Y-12675984D01*
X4007801Y-12571222D02*
X4017324Y-12552174D01*
X4017324Y-12552174D02*
X4036372Y-12542650D01*
X4036372Y-12542650D02*
X4064943Y-12542650D01*
X4064943Y-12542650D02*
X4083991Y-12552174D01*
X4083991Y-12552174D02*
X4093515Y-12571222D01*
X4093515Y-12571222D02*
X4093515Y-12675984D01*
X4483991Y-12466460D02*
X4312563Y-12723603D01*
X4741134Y-12475984D02*
X4760182Y-12475984D01*
X4760182Y-12475984D02*
X4779229Y-12485508D01*
X4779229Y-12485508D02*
X4788753Y-12495031D01*
X4788753Y-12495031D02*
X4798277Y-12514079D01*
X4798277Y-12514079D02*
X4807801Y-12552174D01*
X4807801Y-12552174D02*
X4807801Y-12599793D01*
X4807801Y-12599793D02*
X4798277Y-12637888D01*
X4798277Y-12637888D02*
X4788753Y-12656936D01*
X4788753Y-12656936D02*
X4779229Y-12666460D01*
X4779229Y-12666460D02*
X4760182Y-12675984D01*
X4760182Y-12675984D02*
X4741134Y-12675984D01*
X4741134Y-12675984D02*
X4722087Y-12666460D01*
X4722087Y-12666460D02*
X4712563Y-12656936D01*
X4712563Y-12656936D02*
X4703039Y-12637888D01*
X4703039Y-12637888D02*
X4693515Y-12599793D01*
X4693515Y-12599793D02*
X4693515Y-12552174D01*
X4693515Y-12552174D02*
X4703039Y-12514079D01*
X4703039Y-12514079D02*
X4712563Y-12495031D01*
X4712563Y-12495031D02*
X4722087Y-12485508D01*
X4722087Y-12485508D02*
X4741134Y-12475984D01*
X4893515Y-12656936D02*
X4903039Y-12666460D01*
X4903039Y-12666460D02*
X4893515Y-12675984D01*
X4893515Y-12675984D02*
X4883991Y-12666460D01*
X4883991Y-12666460D02*
X4893515Y-12656936D01*
X4893515Y-12656936D02*
X4893515Y-12675984D01*
X5026848Y-12475984D02*
X5045896Y-12475984D01*
X5045896Y-12475984D02*
X5064944Y-12485508D01*
X5064944Y-12485508D02*
X5074468Y-12495031D01*
X5074468Y-12495031D02*
X5083991Y-12514079D01*
X5083991Y-12514079D02*
X5093515Y-12552174D01*
X5093515Y-12552174D02*
X5093515Y-12599793D01*
X5093515Y-12599793D02*
X5083991Y-12637888D01*
X5083991Y-12637888D02*
X5074468Y-12656936D01*
X5074468Y-12656936D02*
X5064944Y-12666460D01*
X5064944Y-12666460D02*
X5045896Y-12675984D01*
X5045896Y-12675984D02*
X5026848Y-12675984D01*
X5026848Y-12675984D02*
X5007801Y-12666460D01*
X5007801Y-12666460D02*
X4998277Y-12656936D01*
X4998277Y-12656936D02*
X4988753Y-12637888D01*
X4988753Y-12637888D02*
X4979229Y-12599793D01*
X4979229Y-12599793D02*
X4979229Y-12552174D01*
X4979229Y-12552174D02*
X4988753Y-12514079D01*
X4988753Y-12514079D02*
X4998277Y-12495031D01*
X4998277Y-12495031D02*
X5007801Y-12485508D01*
X5007801Y-12485508D02*
X5026848Y-12475984D01*
X5160182Y-12475984D02*
X5283991Y-12475984D01*
X5283991Y-12475984D02*
X5217325Y-12552174D01*
X5217325Y-12552174D02*
X5245896Y-12552174D01*
X5245896Y-12552174D02*
X5264944Y-12561698D01*
X5264944Y-12561698D02*
X5274468Y-12571222D01*
X5274468Y-12571222D02*
X5283991Y-12590269D01*
X5283991Y-12590269D02*
X5283991Y-12637888D01*
X5283991Y-12637888D02*
X5274468Y-12656936D01*
X5274468Y-12656936D02*
X5264944Y-12666460D01*
X5264944Y-12666460D02*
X5245896Y-12675984D01*
X5245896Y-12675984D02*
X5188753Y-12675984D01*
X5188753Y-12675984D02*
X5169706Y-12666460D01*
X5169706Y-12666460D02*
X5160182Y-12656936D01*
X5379229Y-12675984D02*
X5417325Y-12675984D01*
X5417325Y-12675984D02*
X5436372Y-12666460D01*
X5436372Y-12666460D02*
X5445896Y-12656936D01*
X5445896Y-12656936D02*
X5464944Y-12628365D01*
X5464944Y-12628365D02*
X5474468Y-12590269D01*
X5474468Y-12590269D02*
X5474468Y-12514079D01*
X5474468Y-12514079D02*
X5464944Y-12495031D01*
X5464944Y-12495031D02*
X5455420Y-12485508D01*
X5455420Y-12485508D02*
X5436372Y-12475984D01*
X5436372Y-12475984D02*
X5398277Y-12475984D01*
X5398277Y-12475984D02*
X5379229Y-12485508D01*
X5379229Y-12485508D02*
X5369706Y-12495031D01*
X5369706Y-12495031D02*
X5360182Y-12514079D01*
X5360182Y-12514079D02*
X5360182Y-12561698D01*
X5360182Y-12561698D02*
X5369706Y-12580746D01*
X5369706Y-12580746D02*
X5379229Y-12590269D01*
X5379229Y-12590269D02*
X5398277Y-12599793D01*
X5398277Y-12599793D02*
X5436372Y-12599793D01*
X5436372Y-12599793D02*
X5455420Y-12590269D01*
X5455420Y-12590269D02*
X5464944Y-12580746D01*
X5464944Y-12580746D02*
X5474468Y-12561698D01*
X5645896Y-12542650D02*
X5645896Y-12675984D01*
X5598277Y-12466460D02*
X5550658Y-12609317D01*
X5550658Y-12609317D02*
X5674467Y-12609317D01*
X5741134Y-12475984D02*
X5741134Y-12514079D01*
X5817325Y-12475984D02*
X5817325Y-12514079D01*
X6112563Y-12752174D02*
X6103039Y-12742650D01*
X6103039Y-12742650D02*
X6083991Y-12714079D01*
X6083991Y-12714079D02*
X6074468Y-12695031D01*
X6074468Y-12695031D02*
X6064944Y-12666460D01*
X6064944Y-12666460D02*
X6055420Y-12618841D01*
X6055420Y-12618841D02*
X6055420Y-12580746D01*
X6055420Y-12580746D02*
X6064944Y-12533127D01*
X6064944Y-12533127D02*
X6074468Y-12504555D01*
X6074468Y-12504555D02*
X6083991Y-12485508D01*
X6083991Y-12485508D02*
X6103039Y-12456936D01*
X6103039Y-12456936D02*
X6112563Y-12447412D01*
X6169706Y-12475984D02*
X6303039Y-12475984D01*
X6303039Y-12475984D02*
X6217325Y-12675984D01*
X6369706Y-12495031D02*
X6379229Y-12485508D01*
X6379229Y-12485508D02*
X6398277Y-12475984D01*
X6398277Y-12475984D02*
X6445896Y-12475984D01*
X6445896Y-12475984D02*
X6464944Y-12485508D01*
X6464944Y-12485508D02*
X6474468Y-12495031D01*
X6474468Y-12495031D02*
X6483991Y-12514079D01*
X6483991Y-12514079D02*
X6483991Y-12533127D01*
X6483991Y-12533127D02*
X6474468Y-12561698D01*
X6474468Y-12561698D02*
X6360182Y-12675984D01*
X6360182Y-12675984D02*
X6483991Y-12675984D01*
X6722087Y-12675984D02*
X6722087Y-12475984D01*
X6807801Y-12675984D02*
X6807801Y-12571222D01*
X6807801Y-12571222D02*
X6798277Y-12552174D01*
X6798277Y-12552174D02*
X6779230Y-12542650D01*
X6779230Y-12542650D02*
X6750658Y-12542650D01*
X6750658Y-12542650D02*
X6731610Y-12552174D01*
X6731610Y-12552174D02*
X6722087Y-12561698D01*
X6931610Y-12675984D02*
X6912563Y-12666460D01*
X6912563Y-12666460D02*
X6903039Y-12656936D01*
X6903039Y-12656936D02*
X6893515Y-12637888D01*
X6893515Y-12637888D02*
X6893515Y-12580746D01*
X6893515Y-12580746D02*
X6903039Y-12561698D01*
X6903039Y-12561698D02*
X6912563Y-12552174D01*
X6912563Y-12552174D02*
X6931610Y-12542650D01*
X6931610Y-12542650D02*
X6960182Y-12542650D01*
X6960182Y-12542650D02*
X6979230Y-12552174D01*
X6979230Y-12552174D02*
X6988753Y-12561698D01*
X6988753Y-12561698D02*
X6998277Y-12580746D01*
X6998277Y-12580746D02*
X6998277Y-12637888D01*
X6998277Y-12637888D02*
X6988753Y-12656936D01*
X6988753Y-12656936D02*
X6979230Y-12666460D01*
X6979230Y-12666460D02*
X6960182Y-12675984D01*
X6960182Y-12675984D02*
X6931610Y-12675984D01*
X7112563Y-12675984D02*
X7093515Y-12666460D01*
X7093515Y-12666460D02*
X7083991Y-12647412D01*
X7083991Y-12647412D02*
X7083991Y-12475984D01*
X7264944Y-12666460D02*
X7245896Y-12675984D01*
X7245896Y-12675984D02*
X7207801Y-12675984D01*
X7207801Y-12675984D02*
X7188753Y-12666460D01*
X7188753Y-12666460D02*
X7179230Y-12647412D01*
X7179230Y-12647412D02*
X7179230Y-12571222D01*
X7179230Y-12571222D02*
X7188753Y-12552174D01*
X7188753Y-12552174D02*
X7207801Y-12542650D01*
X7207801Y-12542650D02*
X7245896Y-12542650D01*
X7245896Y-12542650D02*
X7264944Y-12552174D01*
X7264944Y-12552174D02*
X7274468Y-12571222D01*
X7274468Y-12571222D02*
X7274468Y-12590269D01*
X7274468Y-12590269D02*
X7179230Y-12609317D01*
X7350658Y-12666460D02*
X7369706Y-12675984D01*
X7369706Y-12675984D02*
X7407801Y-12675984D01*
X7407801Y-12675984D02*
X7426849Y-12666460D01*
X7426849Y-12666460D02*
X7436372Y-12647412D01*
X7436372Y-12647412D02*
X7436372Y-12637888D01*
X7436372Y-12637888D02*
X7426849Y-12618841D01*
X7426849Y-12618841D02*
X7407801Y-12609317D01*
X7407801Y-12609317D02*
X7379230Y-12609317D01*
X7379230Y-12609317D02*
X7360182Y-12599793D01*
X7360182Y-12599793D02*
X7350658Y-12580746D01*
X7350658Y-12580746D02*
X7350658Y-12571222D01*
X7350658Y-12571222D02*
X7360182Y-12552174D01*
X7360182Y-12552174D02*
X7379230Y-12542650D01*
X7379230Y-12542650D02*
X7407801Y-12542650D01*
X7407801Y-12542650D02*
X7426849Y-12552174D01*
X7503039Y-12752174D02*
X7512563Y-12742650D01*
X7512563Y-12742650D02*
X7531611Y-12714079D01*
X7531611Y-12714079D02*
X7541134Y-12695031D01*
X7541134Y-12695031D02*
X7550658Y-12666460D01*
X7550658Y-12666460D02*
X7560182Y-12618841D01*
X7560182Y-12618841D02*
X7560182Y-12580746D01*
X7560182Y-12580746D02*
X7550658Y-12533127D01*
X7550658Y-12533127D02*
X7541134Y-12504555D01*
X7541134Y-12504555D02*
X7531611Y-12485508D01*
X7531611Y-12485508D02*
X7512563Y-12456936D01*
X7512563Y-12456936D02*
X7503039Y-12447412D01*
D13*
X2485430Y-12900570D02*
X2537500Y-12848500D01*
X2485430Y-12796430D01*
X2433360Y-12848500D01*
X2485430Y-12900570D01*
D11*
X2903039Y-12939984D02*
X2788753Y-12939984D01*
X2845896Y-12939984D02*
X2845896Y-12739984D01*
X2845896Y-12739984D02*
X2826848Y-12768555D01*
X2826848Y-12768555D02*
X2807801Y-12787603D01*
X2807801Y-12787603D02*
X2788753Y-12797127D01*
X2988753Y-12920936D02*
X2998277Y-12930460D01*
X2998277Y-12930460D02*
X2988753Y-12939984D01*
X2988753Y-12939984D02*
X2979229Y-12930460D01*
X2979229Y-12930460D02*
X2988753Y-12920936D01*
X2988753Y-12920936D02*
X2988753Y-12939984D01*
X3122086Y-12739984D02*
X3141134Y-12739984D01*
X3141134Y-12739984D02*
X3160182Y-12749508D01*
X3160182Y-12749508D02*
X3169705Y-12759031D01*
X3169705Y-12759031D02*
X3179229Y-12778079D01*
X3179229Y-12778079D02*
X3188753Y-12816174D01*
X3188753Y-12816174D02*
X3188753Y-12863793D01*
X3188753Y-12863793D02*
X3179229Y-12901888D01*
X3179229Y-12901888D02*
X3169705Y-12920936D01*
X3169705Y-12920936D02*
X3160182Y-12930460D01*
X3160182Y-12930460D02*
X3141134Y-12939984D01*
X3141134Y-12939984D02*
X3122086Y-12939984D01*
X3122086Y-12939984D02*
X3103039Y-12930460D01*
X3103039Y-12930460D02*
X3093515Y-12920936D01*
X3093515Y-12920936D02*
X3083991Y-12901888D01*
X3083991Y-12901888D02*
X3074467Y-12863793D01*
X3074467Y-12863793D02*
X3074467Y-12816174D01*
X3074467Y-12816174D02*
X3083991Y-12778079D01*
X3083991Y-12778079D02*
X3093515Y-12759031D01*
X3093515Y-12759031D02*
X3103039Y-12749508D01*
X3103039Y-12749508D02*
X3122086Y-12739984D01*
X3360182Y-12806650D02*
X3360182Y-12939984D01*
X3312562Y-12730460D02*
X3264943Y-12873317D01*
X3264943Y-12873317D02*
X3388753Y-12873317D01*
X3569705Y-12939984D02*
X3455420Y-12939984D01*
X3512562Y-12939984D02*
X3512562Y-12739984D01*
X3512562Y-12739984D02*
X3493515Y-12768555D01*
X3493515Y-12768555D02*
X3474467Y-12787603D01*
X3474467Y-12787603D02*
X3455420Y-12797127D01*
X3655420Y-12939984D02*
X3655420Y-12806650D01*
X3655420Y-12825698D02*
X3664943Y-12816174D01*
X3664943Y-12816174D02*
X3683991Y-12806650D01*
X3683991Y-12806650D02*
X3712563Y-12806650D01*
X3712563Y-12806650D02*
X3731610Y-12816174D01*
X3731610Y-12816174D02*
X3741134Y-12835222D01*
X3741134Y-12835222D02*
X3741134Y-12939984D01*
X3741134Y-12835222D02*
X3750658Y-12816174D01*
X3750658Y-12816174D02*
X3769705Y-12806650D01*
X3769705Y-12806650D02*
X3798277Y-12806650D01*
X3798277Y-12806650D02*
X3817324Y-12816174D01*
X3817324Y-12816174D02*
X3826848Y-12835222D01*
X3826848Y-12835222D02*
X3826848Y-12939984D01*
X3922086Y-12939984D02*
X3922086Y-12806650D01*
X3922086Y-12825698D02*
X3931610Y-12816174D01*
X3931610Y-12816174D02*
X3950658Y-12806650D01*
X3950658Y-12806650D02*
X3979229Y-12806650D01*
X3979229Y-12806650D02*
X3998277Y-12816174D01*
X3998277Y-12816174D02*
X4007801Y-12835222D01*
X4007801Y-12835222D02*
X4007801Y-12939984D01*
X4007801Y-12835222D02*
X4017324Y-12816174D01*
X4017324Y-12816174D02*
X4036372Y-12806650D01*
X4036372Y-12806650D02*
X4064943Y-12806650D01*
X4064943Y-12806650D02*
X4083991Y-12816174D01*
X4083991Y-12816174D02*
X4093515Y-12835222D01*
X4093515Y-12835222D02*
X4093515Y-12939984D01*
X4483991Y-12730460D02*
X4312563Y-12987603D01*
X4741134Y-12739984D02*
X4760182Y-12739984D01*
X4760182Y-12739984D02*
X4779229Y-12749508D01*
X4779229Y-12749508D02*
X4788753Y-12759031D01*
X4788753Y-12759031D02*
X4798277Y-12778079D01*
X4798277Y-12778079D02*
X4807801Y-12816174D01*
X4807801Y-12816174D02*
X4807801Y-12863793D01*
X4807801Y-12863793D02*
X4798277Y-12901888D01*
X4798277Y-12901888D02*
X4788753Y-12920936D01*
X4788753Y-12920936D02*
X4779229Y-12930460D01*
X4779229Y-12930460D02*
X4760182Y-12939984D01*
X4760182Y-12939984D02*
X4741134Y-12939984D01*
X4741134Y-12939984D02*
X4722087Y-12930460D01*
X4722087Y-12930460D02*
X4712563Y-12920936D01*
X4712563Y-12920936D02*
X4703039Y-12901888D01*
X4703039Y-12901888D02*
X4693515Y-12863793D01*
X4693515Y-12863793D02*
X4693515Y-12816174D01*
X4693515Y-12816174D02*
X4703039Y-12778079D01*
X4703039Y-12778079D02*
X4712563Y-12759031D01*
X4712563Y-12759031D02*
X4722087Y-12749508D01*
X4722087Y-12749508D02*
X4741134Y-12739984D01*
X4893515Y-12920936D02*
X4903039Y-12930460D01*
X4903039Y-12930460D02*
X4893515Y-12939984D01*
X4893515Y-12939984D02*
X4883991Y-12930460D01*
X4883991Y-12930460D02*
X4893515Y-12920936D01*
X4893515Y-12920936D02*
X4893515Y-12939984D01*
X5026848Y-12739984D02*
X5045896Y-12739984D01*
X5045896Y-12739984D02*
X5064944Y-12749508D01*
X5064944Y-12749508D02*
X5074468Y-12759031D01*
X5074468Y-12759031D02*
X5083991Y-12778079D01*
X5083991Y-12778079D02*
X5093515Y-12816174D01*
X5093515Y-12816174D02*
X5093515Y-12863793D01*
X5093515Y-12863793D02*
X5083991Y-12901888D01*
X5083991Y-12901888D02*
X5074468Y-12920936D01*
X5074468Y-12920936D02*
X5064944Y-12930460D01*
X5064944Y-12930460D02*
X5045896Y-12939984D01*
X5045896Y-12939984D02*
X5026848Y-12939984D01*
X5026848Y-12939984D02*
X5007801Y-12930460D01*
X5007801Y-12930460D02*
X4998277Y-12920936D01*
X4998277Y-12920936D02*
X4988753Y-12901888D01*
X4988753Y-12901888D02*
X4979229Y-12863793D01*
X4979229Y-12863793D02*
X4979229Y-12816174D01*
X4979229Y-12816174D02*
X4988753Y-12778079D01*
X4988753Y-12778079D02*
X4998277Y-12759031D01*
X4998277Y-12759031D02*
X5007801Y-12749508D01*
X5007801Y-12749508D02*
X5026848Y-12739984D01*
X5264944Y-12806650D02*
X5264944Y-12939984D01*
X5217325Y-12730460D02*
X5169706Y-12873317D01*
X5169706Y-12873317D02*
X5293515Y-12873317D01*
X5474468Y-12939984D02*
X5360182Y-12939984D01*
X5417325Y-12939984D02*
X5417325Y-12739984D01*
X5417325Y-12739984D02*
X5398277Y-12768555D01*
X5398277Y-12768555D02*
X5379229Y-12787603D01*
X5379229Y-12787603D02*
X5360182Y-12797127D01*
X5598277Y-12739984D02*
X5617325Y-12739984D01*
X5617325Y-12739984D02*
X5636372Y-12749508D01*
X5636372Y-12749508D02*
X5645896Y-12759031D01*
X5645896Y-12759031D02*
X5655420Y-12778079D01*
X5655420Y-12778079D02*
X5664944Y-12816174D01*
X5664944Y-12816174D02*
X5664944Y-12863793D01*
X5664944Y-12863793D02*
X5655420Y-12901888D01*
X5655420Y-12901888D02*
X5645896Y-12920936D01*
X5645896Y-12920936D02*
X5636372Y-12930460D01*
X5636372Y-12930460D02*
X5617325Y-12939984D01*
X5617325Y-12939984D02*
X5598277Y-12939984D01*
X5598277Y-12939984D02*
X5579229Y-12930460D01*
X5579229Y-12930460D02*
X5569706Y-12920936D01*
X5569706Y-12920936D02*
X5560182Y-12901888D01*
X5560182Y-12901888D02*
X5550658Y-12863793D01*
X5550658Y-12863793D02*
X5550658Y-12816174D01*
X5550658Y-12816174D02*
X5560182Y-12778079D01*
X5560182Y-12778079D02*
X5569706Y-12759031D01*
X5569706Y-12759031D02*
X5579229Y-12749508D01*
X5579229Y-12749508D02*
X5598277Y-12739984D01*
X5741134Y-12739984D02*
X5741134Y-12778079D01*
X5817325Y-12739984D02*
X5817325Y-12778079D01*
X6112563Y-13016174D02*
X6103039Y-13006650D01*
X6103039Y-13006650D02*
X6083991Y-12978079D01*
X6083991Y-12978079D02*
X6074468Y-12959031D01*
X6074468Y-12959031D02*
X6064944Y-12930460D01*
X6064944Y-12930460D02*
X6055420Y-12882841D01*
X6055420Y-12882841D02*
X6055420Y-12844746D01*
X6055420Y-12844746D02*
X6064944Y-12797127D01*
X6064944Y-12797127D02*
X6074468Y-12768555D01*
X6074468Y-12768555D02*
X6083991Y-12749508D01*
X6083991Y-12749508D02*
X6103039Y-12720936D01*
X6103039Y-12720936D02*
X6112563Y-12711412D01*
X6293515Y-12939984D02*
X6179229Y-12939984D01*
X6236372Y-12939984D02*
X6236372Y-12739984D01*
X6236372Y-12739984D02*
X6217325Y-12768555D01*
X6217325Y-12768555D02*
X6198277Y-12787603D01*
X6198277Y-12787603D02*
X6179229Y-12797127D01*
X6407801Y-12825698D02*
X6388753Y-12816174D01*
X6388753Y-12816174D02*
X6379229Y-12806650D01*
X6379229Y-12806650D02*
X6369706Y-12787603D01*
X6369706Y-12787603D02*
X6369706Y-12778079D01*
X6369706Y-12778079D02*
X6379229Y-12759031D01*
X6379229Y-12759031D02*
X6388753Y-12749508D01*
X6388753Y-12749508D02*
X6407801Y-12739984D01*
X6407801Y-12739984D02*
X6445896Y-12739984D01*
X6445896Y-12739984D02*
X6464944Y-12749508D01*
X6464944Y-12749508D02*
X6474468Y-12759031D01*
X6474468Y-12759031D02*
X6483991Y-12778079D01*
X6483991Y-12778079D02*
X6483991Y-12787603D01*
X6483991Y-12787603D02*
X6474468Y-12806650D01*
X6474468Y-12806650D02*
X6464944Y-12816174D01*
X6464944Y-12816174D02*
X6445896Y-12825698D01*
X6445896Y-12825698D02*
X6407801Y-12825698D01*
X6407801Y-12825698D02*
X6388753Y-12835222D01*
X6388753Y-12835222D02*
X6379229Y-12844746D01*
X6379229Y-12844746D02*
X6369706Y-12863793D01*
X6369706Y-12863793D02*
X6369706Y-12901888D01*
X6369706Y-12901888D02*
X6379229Y-12920936D01*
X6379229Y-12920936D02*
X6388753Y-12930460D01*
X6388753Y-12930460D02*
X6407801Y-12939984D01*
X6407801Y-12939984D02*
X6445896Y-12939984D01*
X6445896Y-12939984D02*
X6464944Y-12930460D01*
X6464944Y-12930460D02*
X6474468Y-12920936D01*
X6474468Y-12920936D02*
X6483991Y-12901888D01*
X6483991Y-12901888D02*
X6483991Y-12863793D01*
X6483991Y-12863793D02*
X6474468Y-12844746D01*
X6474468Y-12844746D02*
X6464944Y-12835222D01*
X6464944Y-12835222D02*
X6445896Y-12825698D01*
X6722087Y-12939984D02*
X6722087Y-12739984D01*
X6807801Y-12939984D02*
X6807801Y-12835222D01*
X6807801Y-12835222D02*
X6798277Y-12816174D01*
X6798277Y-12816174D02*
X6779230Y-12806650D01*
X6779230Y-12806650D02*
X6750658Y-12806650D01*
X6750658Y-12806650D02*
X6731610Y-12816174D01*
X6731610Y-12816174D02*
X6722087Y-12825698D01*
X6931610Y-12939984D02*
X6912563Y-12930460D01*
X6912563Y-12930460D02*
X6903039Y-12920936D01*
X6903039Y-12920936D02*
X6893515Y-12901888D01*
X6893515Y-12901888D02*
X6893515Y-12844746D01*
X6893515Y-12844746D02*
X6903039Y-12825698D01*
X6903039Y-12825698D02*
X6912563Y-12816174D01*
X6912563Y-12816174D02*
X6931610Y-12806650D01*
X6931610Y-12806650D02*
X6960182Y-12806650D01*
X6960182Y-12806650D02*
X6979230Y-12816174D01*
X6979230Y-12816174D02*
X6988753Y-12825698D01*
X6988753Y-12825698D02*
X6998277Y-12844746D01*
X6998277Y-12844746D02*
X6998277Y-12901888D01*
X6998277Y-12901888D02*
X6988753Y-12920936D01*
X6988753Y-12920936D02*
X6979230Y-12930460D01*
X6979230Y-12930460D02*
X6960182Y-12939984D01*
X6960182Y-12939984D02*
X6931610Y-12939984D01*
X7112563Y-12939984D02*
X7093515Y-12930460D01*
X7093515Y-12930460D02*
X7083991Y-12911412D01*
X7083991Y-12911412D02*
X7083991Y-12739984D01*
X7264944Y-12930460D02*
X7245896Y-12939984D01*
X7245896Y-12939984D02*
X7207801Y-12939984D01*
X7207801Y-12939984D02*
X7188753Y-12930460D01*
X7188753Y-12930460D02*
X7179230Y-12911412D01*
X7179230Y-12911412D02*
X7179230Y-12835222D01*
X7179230Y-12835222D02*
X7188753Y-12816174D01*
X7188753Y-12816174D02*
X7207801Y-12806650D01*
X7207801Y-12806650D02*
X7245896Y-12806650D01*
X7245896Y-12806650D02*
X7264944Y-12816174D01*
X7264944Y-12816174D02*
X7274468Y-12835222D01*
X7274468Y-12835222D02*
X7274468Y-12854269D01*
X7274468Y-12854269D02*
X7179230Y-12873317D01*
X7350658Y-12930460D02*
X7369706Y-12939984D01*
X7369706Y-12939984D02*
X7407801Y-12939984D01*
X7407801Y-12939984D02*
X7426849Y-12930460D01*
X7426849Y-12930460D02*
X7436372Y-12911412D01*
X7436372Y-12911412D02*
X7436372Y-12901888D01*
X7436372Y-12901888D02*
X7426849Y-12882841D01*
X7426849Y-12882841D02*
X7407801Y-12873317D01*
X7407801Y-12873317D02*
X7379230Y-12873317D01*
X7379230Y-12873317D02*
X7360182Y-12863793D01*
X7360182Y-12863793D02*
X7350658Y-12844746D01*
X7350658Y-12844746D02*
X7350658Y-12835222D01*
X7350658Y-12835222D02*
X7360182Y-12816174D01*
X7360182Y-12816174D02*
X7379230Y-12806650D01*
X7379230Y-12806650D02*
X7407801Y-12806650D01*
X7407801Y-12806650D02*
X7426849Y-12816174D01*
X7503039Y-13016174D02*
X7512563Y-13006650D01*
X7512563Y-13006650D02*
X7531611Y-12978079D01*
X7531611Y-12978079D02*
X7541134Y-12959031D01*
X7541134Y-12959031D02*
X7550658Y-12930460D01*
X7550658Y-12930460D02*
X7560182Y-12882841D01*
X7560182Y-12882841D02*
X7560182Y-12844746D01*
X7560182Y-12844746D02*
X7550658Y-12797127D01*
X7550658Y-12797127D02*
X7541134Y-12768555D01*
X7541134Y-12768555D02*
X7531611Y-12749508D01*
X7531611Y-12749508D02*
X7512563Y-12720936D01*
X7512563Y-12720936D02*
X7503039Y-12711412D01*
D14*
X2402500Y-13045000D02*
X2537500Y-13180000D01*
X2537500Y-13045000D02*
X2402500Y-13180000D01*
X2537500Y-13112500D02*
G75*
G02*
X2402500Y-13112500I-67500J0D01*
G01*
X2402500Y-13112500D02*
G75*
G02*
X2537500Y-13112500I67500J0D01*
G01*
D11*
X2903039Y-13203984D02*
X2788753Y-13203984D01*
X2845896Y-13203984D02*
X2845896Y-13003984D01*
X2845896Y-13003984D02*
X2826848Y-13032555D01*
X2826848Y-13032555D02*
X2807801Y-13051603D01*
X2807801Y-13051603D02*
X2788753Y-13061127D01*
X2988753Y-13184936D02*
X2998277Y-13194460D01*
X2998277Y-13194460D02*
X2988753Y-13203984D01*
X2988753Y-13203984D02*
X2979229Y-13194460D01*
X2979229Y-13194460D02*
X2988753Y-13184936D01*
X2988753Y-13184936D02*
X2988753Y-13203984D01*
X3064943Y-13003984D02*
X3188753Y-13003984D01*
X3188753Y-13003984D02*
X3122086Y-13080174D01*
X3122086Y-13080174D02*
X3150658Y-13080174D01*
X3150658Y-13080174D02*
X3169705Y-13089698D01*
X3169705Y-13089698D02*
X3179229Y-13099222D01*
X3179229Y-13099222D02*
X3188753Y-13118269D01*
X3188753Y-13118269D02*
X3188753Y-13165888D01*
X3188753Y-13165888D02*
X3179229Y-13184936D01*
X3179229Y-13184936D02*
X3169705Y-13194460D01*
X3169705Y-13194460D02*
X3150658Y-13203984D01*
X3150658Y-13203984D02*
X3093515Y-13203984D01*
X3093515Y-13203984D02*
X3074467Y-13194460D01*
X3074467Y-13194460D02*
X3064943Y-13184936D01*
X3369705Y-13003984D02*
X3274467Y-13003984D01*
X3274467Y-13003984D02*
X3264943Y-13099222D01*
X3264943Y-13099222D02*
X3274467Y-13089698D01*
X3274467Y-13089698D02*
X3293515Y-13080174D01*
X3293515Y-13080174D02*
X3341134Y-13080174D01*
X3341134Y-13080174D02*
X3360182Y-13089698D01*
X3360182Y-13089698D02*
X3369705Y-13099222D01*
X3369705Y-13099222D02*
X3379229Y-13118269D01*
X3379229Y-13118269D02*
X3379229Y-13165888D01*
X3379229Y-13165888D02*
X3369705Y-13184936D01*
X3369705Y-13184936D02*
X3360182Y-13194460D01*
X3360182Y-13194460D02*
X3341134Y-13203984D01*
X3341134Y-13203984D02*
X3293515Y-13203984D01*
X3293515Y-13203984D02*
X3274467Y-13194460D01*
X3274467Y-13194460D02*
X3264943Y-13184936D01*
X3503039Y-13003984D02*
X3522086Y-13003984D01*
X3522086Y-13003984D02*
X3541134Y-13013508D01*
X3541134Y-13013508D02*
X3550658Y-13023031D01*
X3550658Y-13023031D02*
X3560182Y-13042079D01*
X3560182Y-13042079D02*
X3569705Y-13080174D01*
X3569705Y-13080174D02*
X3569705Y-13127793D01*
X3569705Y-13127793D02*
X3560182Y-13165888D01*
X3560182Y-13165888D02*
X3550658Y-13184936D01*
X3550658Y-13184936D02*
X3541134Y-13194460D01*
X3541134Y-13194460D02*
X3522086Y-13203984D01*
X3522086Y-13203984D02*
X3503039Y-13203984D01*
X3503039Y-13203984D02*
X3483991Y-13194460D01*
X3483991Y-13194460D02*
X3474467Y-13184936D01*
X3474467Y-13184936D02*
X3464943Y-13165888D01*
X3464943Y-13165888D02*
X3455420Y-13127793D01*
X3455420Y-13127793D02*
X3455420Y-13080174D01*
X3455420Y-13080174D02*
X3464943Y-13042079D01*
X3464943Y-13042079D02*
X3474467Y-13023031D01*
X3474467Y-13023031D02*
X3483991Y-13013508D01*
X3483991Y-13013508D02*
X3503039Y-13003984D01*
X3655420Y-13203984D02*
X3655420Y-13070650D01*
X3655420Y-13089698D02*
X3664943Y-13080174D01*
X3664943Y-13080174D02*
X3683991Y-13070650D01*
X3683991Y-13070650D02*
X3712563Y-13070650D01*
X3712563Y-13070650D02*
X3731610Y-13080174D01*
X3731610Y-13080174D02*
X3741134Y-13099222D01*
X3741134Y-13099222D02*
X3741134Y-13203984D01*
X3741134Y-13099222D02*
X3750658Y-13080174D01*
X3750658Y-13080174D02*
X3769705Y-13070650D01*
X3769705Y-13070650D02*
X3798277Y-13070650D01*
X3798277Y-13070650D02*
X3817324Y-13080174D01*
X3817324Y-13080174D02*
X3826848Y-13099222D01*
X3826848Y-13099222D02*
X3826848Y-13203984D01*
X3922086Y-13203984D02*
X3922086Y-13070650D01*
X3922086Y-13089698D02*
X3931610Y-13080174D01*
X3931610Y-13080174D02*
X3950658Y-13070650D01*
X3950658Y-13070650D02*
X3979229Y-13070650D01*
X3979229Y-13070650D02*
X3998277Y-13080174D01*
X3998277Y-13080174D02*
X4007801Y-13099222D01*
X4007801Y-13099222D02*
X4007801Y-13203984D01*
X4007801Y-13099222D02*
X4017324Y-13080174D01*
X4017324Y-13080174D02*
X4036372Y-13070650D01*
X4036372Y-13070650D02*
X4064943Y-13070650D01*
X4064943Y-13070650D02*
X4083991Y-13080174D01*
X4083991Y-13080174D02*
X4093515Y-13099222D01*
X4093515Y-13099222D02*
X4093515Y-13203984D01*
X4483991Y-12994460D02*
X4312563Y-13251603D01*
X4741134Y-13003984D02*
X4760182Y-13003984D01*
X4760182Y-13003984D02*
X4779229Y-13013508D01*
X4779229Y-13013508D02*
X4788753Y-13023031D01*
X4788753Y-13023031D02*
X4798277Y-13042079D01*
X4798277Y-13042079D02*
X4807801Y-13080174D01*
X4807801Y-13080174D02*
X4807801Y-13127793D01*
X4807801Y-13127793D02*
X4798277Y-13165888D01*
X4798277Y-13165888D02*
X4788753Y-13184936D01*
X4788753Y-13184936D02*
X4779229Y-13194460D01*
X4779229Y-13194460D02*
X4760182Y-13203984D01*
X4760182Y-13203984D02*
X4741134Y-13203984D01*
X4741134Y-13203984D02*
X4722087Y-13194460D01*
X4722087Y-13194460D02*
X4712563Y-13184936D01*
X4712563Y-13184936D02*
X4703039Y-13165888D01*
X4703039Y-13165888D02*
X4693515Y-13127793D01*
X4693515Y-13127793D02*
X4693515Y-13080174D01*
X4693515Y-13080174D02*
X4703039Y-13042079D01*
X4703039Y-13042079D02*
X4712563Y-13023031D01*
X4712563Y-13023031D02*
X4722087Y-13013508D01*
X4722087Y-13013508D02*
X4741134Y-13003984D01*
X4893515Y-13184936D02*
X4903039Y-13194460D01*
X4903039Y-13194460D02*
X4893515Y-13203984D01*
X4893515Y-13203984D02*
X4883991Y-13194460D01*
X4883991Y-13194460D02*
X4893515Y-13184936D01*
X4893515Y-13184936D02*
X4893515Y-13203984D01*
X5026848Y-13003984D02*
X5045896Y-13003984D01*
X5045896Y-13003984D02*
X5064944Y-13013508D01*
X5064944Y-13013508D02*
X5074468Y-13023031D01*
X5074468Y-13023031D02*
X5083991Y-13042079D01*
X5083991Y-13042079D02*
X5093515Y-13080174D01*
X5093515Y-13080174D02*
X5093515Y-13127793D01*
X5093515Y-13127793D02*
X5083991Y-13165888D01*
X5083991Y-13165888D02*
X5074468Y-13184936D01*
X5074468Y-13184936D02*
X5064944Y-13194460D01*
X5064944Y-13194460D02*
X5045896Y-13203984D01*
X5045896Y-13203984D02*
X5026848Y-13203984D01*
X5026848Y-13203984D02*
X5007801Y-13194460D01*
X5007801Y-13194460D02*
X4998277Y-13184936D01*
X4998277Y-13184936D02*
X4988753Y-13165888D01*
X4988753Y-13165888D02*
X4979229Y-13127793D01*
X4979229Y-13127793D02*
X4979229Y-13080174D01*
X4979229Y-13080174D02*
X4988753Y-13042079D01*
X4988753Y-13042079D02*
X4998277Y-13023031D01*
X4998277Y-13023031D02*
X5007801Y-13013508D01*
X5007801Y-13013508D02*
X5026848Y-13003984D01*
X5274468Y-13003984D02*
X5179229Y-13003984D01*
X5179229Y-13003984D02*
X5169706Y-13099222D01*
X5169706Y-13099222D02*
X5179229Y-13089698D01*
X5179229Y-13089698D02*
X5198277Y-13080174D01*
X5198277Y-13080174D02*
X5245896Y-13080174D01*
X5245896Y-13080174D02*
X5264944Y-13089698D01*
X5264944Y-13089698D02*
X5274468Y-13099222D01*
X5274468Y-13099222D02*
X5283991Y-13118269D01*
X5283991Y-13118269D02*
X5283991Y-13165888D01*
X5283991Y-13165888D02*
X5274468Y-13184936D01*
X5274468Y-13184936D02*
X5264944Y-13194460D01*
X5264944Y-13194460D02*
X5245896Y-13203984D01*
X5245896Y-13203984D02*
X5198277Y-13203984D01*
X5198277Y-13203984D02*
X5179229Y-13194460D01*
X5179229Y-13194460D02*
X5169706Y-13184936D01*
X5350658Y-13003984D02*
X5474468Y-13003984D01*
X5474468Y-13003984D02*
X5407801Y-13080174D01*
X5407801Y-13080174D02*
X5436372Y-13080174D01*
X5436372Y-13080174D02*
X5455420Y-13089698D01*
X5455420Y-13089698D02*
X5464944Y-13099222D01*
X5464944Y-13099222D02*
X5474468Y-13118269D01*
X5474468Y-13118269D02*
X5474468Y-13165888D01*
X5474468Y-13165888D02*
X5464944Y-13184936D01*
X5464944Y-13184936D02*
X5455420Y-13194460D01*
X5455420Y-13194460D02*
X5436372Y-13203984D01*
X5436372Y-13203984D02*
X5379229Y-13203984D01*
X5379229Y-13203984D02*
X5360182Y-13194460D01*
X5360182Y-13194460D02*
X5350658Y-13184936D01*
X5664944Y-13203984D02*
X5550658Y-13203984D01*
X5607801Y-13203984D02*
X5607801Y-13003984D01*
X5607801Y-13003984D02*
X5588753Y-13032555D01*
X5588753Y-13032555D02*
X5569706Y-13051603D01*
X5569706Y-13051603D02*
X5550658Y-13061127D01*
X5741134Y-13003984D02*
X5741134Y-13042079D01*
X5817325Y-13003984D02*
X5817325Y-13042079D01*
X6112563Y-13280174D02*
X6103039Y-13270650D01*
X6103039Y-13270650D02*
X6083991Y-13242079D01*
X6083991Y-13242079D02*
X6074468Y-13223031D01*
X6074468Y-13223031D02*
X6064944Y-13194460D01*
X6064944Y-13194460D02*
X6055420Y-13146841D01*
X6055420Y-13146841D02*
X6055420Y-13108746D01*
X6055420Y-13108746D02*
X6064944Y-13061127D01*
X6064944Y-13061127D02*
X6074468Y-13032555D01*
X6074468Y-13032555D02*
X6083991Y-13013508D01*
X6083991Y-13013508D02*
X6103039Y-12984936D01*
X6103039Y-12984936D02*
X6112563Y-12975412D01*
X6169706Y-13003984D02*
X6293515Y-13003984D01*
X6293515Y-13003984D02*
X6226848Y-13080174D01*
X6226848Y-13080174D02*
X6255420Y-13080174D01*
X6255420Y-13080174D02*
X6274468Y-13089698D01*
X6274468Y-13089698D02*
X6283991Y-13099222D01*
X6283991Y-13099222D02*
X6293515Y-13118269D01*
X6293515Y-13118269D02*
X6293515Y-13165888D01*
X6293515Y-13165888D02*
X6283991Y-13184936D01*
X6283991Y-13184936D02*
X6274468Y-13194460D01*
X6274468Y-13194460D02*
X6255420Y-13203984D01*
X6255420Y-13203984D02*
X6198277Y-13203984D01*
X6198277Y-13203984D02*
X6179229Y-13194460D01*
X6179229Y-13194460D02*
X6169706Y-13184936D01*
X6360182Y-13003984D02*
X6483991Y-13003984D01*
X6483991Y-13003984D02*
X6417325Y-13080174D01*
X6417325Y-13080174D02*
X6445896Y-13080174D01*
X6445896Y-13080174D02*
X6464944Y-13089698D01*
X6464944Y-13089698D02*
X6474468Y-13099222D01*
X6474468Y-13099222D02*
X6483991Y-13118269D01*
X6483991Y-13118269D02*
X6483991Y-13165888D01*
X6483991Y-13165888D02*
X6474468Y-13184936D01*
X6474468Y-13184936D02*
X6464944Y-13194460D01*
X6464944Y-13194460D02*
X6445896Y-13203984D01*
X6445896Y-13203984D02*
X6388753Y-13203984D01*
X6388753Y-13203984D02*
X6369706Y-13194460D01*
X6369706Y-13194460D02*
X6360182Y-13184936D01*
X6722087Y-13203984D02*
X6722087Y-13003984D01*
X6807801Y-13203984D02*
X6807801Y-13099222D01*
X6807801Y-13099222D02*
X6798277Y-13080174D01*
X6798277Y-13080174D02*
X6779230Y-13070650D01*
X6779230Y-13070650D02*
X6750658Y-13070650D01*
X6750658Y-13070650D02*
X6731610Y-13080174D01*
X6731610Y-13080174D02*
X6722087Y-13089698D01*
X6931610Y-13203984D02*
X6912563Y-13194460D01*
X6912563Y-13194460D02*
X6903039Y-13184936D01*
X6903039Y-13184936D02*
X6893515Y-13165888D01*
X6893515Y-13165888D02*
X6893515Y-13108746D01*
X6893515Y-13108746D02*
X6903039Y-13089698D01*
X6903039Y-13089698D02*
X6912563Y-13080174D01*
X6912563Y-13080174D02*
X6931610Y-13070650D01*
X6931610Y-13070650D02*
X6960182Y-13070650D01*
X6960182Y-13070650D02*
X6979230Y-13080174D01*
X6979230Y-13080174D02*
X6988753Y-13089698D01*
X6988753Y-13089698D02*
X6998277Y-13108746D01*
X6998277Y-13108746D02*
X6998277Y-13165888D01*
X6998277Y-13165888D02*
X6988753Y-13184936D01*
X6988753Y-13184936D02*
X6979230Y-13194460D01*
X6979230Y-13194460D02*
X6960182Y-13203984D01*
X6960182Y-13203984D02*
X6931610Y-13203984D01*
X7112563Y-13203984D02*
X7093515Y-13194460D01*
X7093515Y-13194460D02*
X7083991Y-13175412D01*
X7083991Y-13175412D02*
X7083991Y-13003984D01*
X7264944Y-13194460D02*
X7245896Y-13203984D01*
X7245896Y-13203984D02*
X7207801Y-13203984D01*
X7207801Y-13203984D02*
X7188753Y-13194460D01*
X7188753Y-13194460D02*
X7179230Y-13175412D01*
X7179230Y-13175412D02*
X7179230Y-13099222D01*
X7179230Y-13099222D02*
X7188753Y-13080174D01*
X7188753Y-13080174D02*
X7207801Y-13070650D01*
X7207801Y-13070650D02*
X7245896Y-13070650D01*
X7245896Y-13070650D02*
X7264944Y-13080174D01*
X7264944Y-13080174D02*
X7274468Y-13099222D01*
X7274468Y-13099222D02*
X7274468Y-13118269D01*
X7274468Y-13118269D02*
X7179230Y-13137317D01*
X7350658Y-13194460D02*
X7369706Y-13203984D01*
X7369706Y-13203984D02*
X7407801Y-13203984D01*
X7407801Y-13203984D02*
X7426849Y-13194460D01*
X7426849Y-13194460D02*
X7436372Y-13175412D01*
X7436372Y-13175412D02*
X7436372Y-13165888D01*
X7436372Y-13165888D02*
X7426849Y-13146841D01*
X7426849Y-13146841D02*
X7407801Y-13137317D01*
X7407801Y-13137317D02*
X7379230Y-13137317D01*
X7379230Y-13137317D02*
X7360182Y-13127793D01*
X7360182Y-13127793D02*
X7350658Y-13108746D01*
X7350658Y-13108746D02*
X7350658Y-13099222D01*
X7350658Y-13099222D02*
X7360182Y-13080174D01*
X7360182Y-13080174D02*
X7379230Y-13070650D01*
X7379230Y-13070650D02*
X7407801Y-13070650D01*
X7407801Y-13070650D02*
X7426849Y-13080174D01*
X7503039Y-13280174D02*
X7512563Y-13270650D01*
X7512563Y-13270650D02*
X7531611Y-13242079D01*
X7531611Y-13242079D02*
X7541134Y-13223031D01*
X7541134Y-13223031D02*
X7550658Y-13194460D01*
X7550658Y-13194460D02*
X7560182Y-13146841D01*
X7560182Y-13146841D02*
X7560182Y-13108746D01*
X7560182Y-13108746D02*
X7550658Y-13061127D01*
X7550658Y-13061127D02*
X7541134Y-13032555D01*
X7541134Y-13032555D02*
X7531611Y-13013508D01*
X7531611Y-13013508D02*
X7512563Y-12984936D01*
X7512563Y-12984936D02*
X7503039Y-12975412D01*
X2337500Y-13276500D02*
X2537500Y-13476500D01*
X2537500Y-13276500D02*
X2337500Y-13476500D01*
X2437500Y-13276500D02*
X2437500Y-13476500D01*
X2337500Y-13376500D02*
X2537500Y-13376500D01*
X2788753Y-13287031D02*
X2798277Y-13277508D01*
X2798277Y-13277508D02*
X2817324Y-13267984D01*
X2817324Y-13267984D02*
X2864943Y-13267984D01*
X2864943Y-13267984D02*
X2883991Y-13277508D01*
X2883991Y-13277508D02*
X2893515Y-13287031D01*
X2893515Y-13287031D02*
X2903039Y-13306079D01*
X2903039Y-13306079D02*
X2903039Y-13325127D01*
X2903039Y-13325127D02*
X2893515Y-13353698D01*
X2893515Y-13353698D02*
X2779229Y-13467984D01*
X2779229Y-13467984D02*
X2903039Y-13467984D01*
X2988753Y-13448936D02*
X2998277Y-13458460D01*
X2998277Y-13458460D02*
X2988753Y-13467984D01*
X2988753Y-13467984D02*
X2979229Y-13458460D01*
X2979229Y-13458460D02*
X2988753Y-13448936D01*
X2988753Y-13448936D02*
X2988753Y-13467984D01*
X3064943Y-13267984D02*
X3188753Y-13267984D01*
X3188753Y-13267984D02*
X3122086Y-13344174D01*
X3122086Y-13344174D02*
X3150658Y-13344174D01*
X3150658Y-13344174D02*
X3169705Y-13353698D01*
X3169705Y-13353698D02*
X3179229Y-13363222D01*
X3179229Y-13363222D02*
X3188753Y-13382269D01*
X3188753Y-13382269D02*
X3188753Y-13429888D01*
X3188753Y-13429888D02*
X3179229Y-13448936D01*
X3179229Y-13448936D02*
X3169705Y-13458460D01*
X3169705Y-13458460D02*
X3150658Y-13467984D01*
X3150658Y-13467984D02*
X3093515Y-13467984D01*
X3093515Y-13467984D02*
X3074467Y-13458460D01*
X3074467Y-13458460D02*
X3064943Y-13448936D01*
X3312562Y-13267984D02*
X3331610Y-13267984D01*
X3331610Y-13267984D02*
X3350658Y-13277508D01*
X3350658Y-13277508D02*
X3360182Y-13287031D01*
X3360182Y-13287031D02*
X3369705Y-13306079D01*
X3369705Y-13306079D02*
X3379229Y-13344174D01*
X3379229Y-13344174D02*
X3379229Y-13391793D01*
X3379229Y-13391793D02*
X3369705Y-13429888D01*
X3369705Y-13429888D02*
X3360182Y-13448936D01*
X3360182Y-13448936D02*
X3350658Y-13458460D01*
X3350658Y-13458460D02*
X3331610Y-13467984D01*
X3331610Y-13467984D02*
X3312562Y-13467984D01*
X3312562Y-13467984D02*
X3293515Y-13458460D01*
X3293515Y-13458460D02*
X3283991Y-13448936D01*
X3283991Y-13448936D02*
X3274467Y-13429888D01*
X3274467Y-13429888D02*
X3264943Y-13391793D01*
X3264943Y-13391793D02*
X3264943Y-13344174D01*
X3264943Y-13344174D02*
X3274467Y-13306079D01*
X3274467Y-13306079D02*
X3283991Y-13287031D01*
X3283991Y-13287031D02*
X3293515Y-13277508D01*
X3293515Y-13277508D02*
X3312562Y-13267984D01*
X3503039Y-13267984D02*
X3522086Y-13267984D01*
X3522086Y-13267984D02*
X3541134Y-13277508D01*
X3541134Y-13277508D02*
X3550658Y-13287031D01*
X3550658Y-13287031D02*
X3560182Y-13306079D01*
X3560182Y-13306079D02*
X3569705Y-13344174D01*
X3569705Y-13344174D02*
X3569705Y-13391793D01*
X3569705Y-13391793D02*
X3560182Y-13429888D01*
X3560182Y-13429888D02*
X3550658Y-13448936D01*
X3550658Y-13448936D02*
X3541134Y-13458460D01*
X3541134Y-13458460D02*
X3522086Y-13467984D01*
X3522086Y-13467984D02*
X3503039Y-13467984D01*
X3503039Y-13467984D02*
X3483991Y-13458460D01*
X3483991Y-13458460D02*
X3474467Y-13448936D01*
X3474467Y-13448936D02*
X3464943Y-13429888D01*
X3464943Y-13429888D02*
X3455420Y-13391793D01*
X3455420Y-13391793D02*
X3455420Y-13344174D01*
X3455420Y-13344174D02*
X3464943Y-13306079D01*
X3464943Y-13306079D02*
X3474467Y-13287031D01*
X3474467Y-13287031D02*
X3483991Y-13277508D01*
X3483991Y-13277508D02*
X3503039Y-13267984D01*
X3655420Y-13467984D02*
X3655420Y-13334650D01*
X3655420Y-13353698D02*
X3664943Y-13344174D01*
X3664943Y-13344174D02*
X3683991Y-13334650D01*
X3683991Y-13334650D02*
X3712563Y-13334650D01*
X3712563Y-13334650D02*
X3731610Y-13344174D01*
X3731610Y-13344174D02*
X3741134Y-13363222D01*
X3741134Y-13363222D02*
X3741134Y-13467984D01*
X3741134Y-13363222D02*
X3750658Y-13344174D01*
X3750658Y-13344174D02*
X3769705Y-13334650D01*
X3769705Y-13334650D02*
X3798277Y-13334650D01*
X3798277Y-13334650D02*
X3817324Y-13344174D01*
X3817324Y-13344174D02*
X3826848Y-13363222D01*
X3826848Y-13363222D02*
X3826848Y-13467984D01*
X3922086Y-13467984D02*
X3922086Y-13334650D01*
X3922086Y-13353698D02*
X3931610Y-13344174D01*
X3931610Y-13344174D02*
X3950658Y-13334650D01*
X3950658Y-13334650D02*
X3979229Y-13334650D01*
X3979229Y-13334650D02*
X3998277Y-13344174D01*
X3998277Y-13344174D02*
X4007801Y-13363222D01*
X4007801Y-13363222D02*
X4007801Y-13467984D01*
X4007801Y-13363222D02*
X4017324Y-13344174D01*
X4017324Y-13344174D02*
X4036372Y-13334650D01*
X4036372Y-13334650D02*
X4064943Y-13334650D01*
X4064943Y-13334650D02*
X4083991Y-13344174D01*
X4083991Y-13344174D02*
X4093515Y-13363222D01*
X4093515Y-13363222D02*
X4093515Y-13467984D01*
X4483991Y-13258460D02*
X4312563Y-13515603D01*
X4741134Y-13267984D02*
X4760182Y-13267984D01*
X4760182Y-13267984D02*
X4779229Y-13277508D01*
X4779229Y-13277508D02*
X4788753Y-13287031D01*
X4788753Y-13287031D02*
X4798277Y-13306079D01*
X4798277Y-13306079D02*
X4807801Y-13344174D01*
X4807801Y-13344174D02*
X4807801Y-13391793D01*
X4807801Y-13391793D02*
X4798277Y-13429888D01*
X4798277Y-13429888D02*
X4788753Y-13448936D01*
X4788753Y-13448936D02*
X4779229Y-13458460D01*
X4779229Y-13458460D02*
X4760182Y-13467984D01*
X4760182Y-13467984D02*
X4741134Y-13467984D01*
X4741134Y-13467984D02*
X4722087Y-13458460D01*
X4722087Y-13458460D02*
X4712563Y-13448936D01*
X4712563Y-13448936D02*
X4703039Y-13429888D01*
X4703039Y-13429888D02*
X4693515Y-13391793D01*
X4693515Y-13391793D02*
X4693515Y-13344174D01*
X4693515Y-13344174D02*
X4703039Y-13306079D01*
X4703039Y-13306079D02*
X4712563Y-13287031D01*
X4712563Y-13287031D02*
X4722087Y-13277508D01*
X4722087Y-13277508D02*
X4741134Y-13267984D01*
X4893515Y-13448936D02*
X4903039Y-13458460D01*
X4903039Y-13458460D02*
X4893515Y-13467984D01*
X4893515Y-13467984D02*
X4883991Y-13458460D01*
X4883991Y-13458460D02*
X4893515Y-13448936D01*
X4893515Y-13448936D02*
X4893515Y-13467984D01*
X5026848Y-13267984D02*
X5045896Y-13267984D01*
X5045896Y-13267984D02*
X5064944Y-13277508D01*
X5064944Y-13277508D02*
X5074468Y-13287031D01*
X5074468Y-13287031D02*
X5083991Y-13306079D01*
X5083991Y-13306079D02*
X5093515Y-13344174D01*
X5093515Y-13344174D02*
X5093515Y-13391793D01*
X5093515Y-13391793D02*
X5083991Y-13429888D01*
X5083991Y-13429888D02*
X5074468Y-13448936D01*
X5074468Y-13448936D02*
X5064944Y-13458460D01*
X5064944Y-13458460D02*
X5045896Y-13467984D01*
X5045896Y-13467984D02*
X5026848Y-13467984D01*
X5026848Y-13467984D02*
X5007801Y-13458460D01*
X5007801Y-13458460D02*
X4998277Y-13448936D01*
X4998277Y-13448936D02*
X4988753Y-13429888D01*
X4988753Y-13429888D02*
X4979229Y-13391793D01*
X4979229Y-13391793D02*
X4979229Y-13344174D01*
X4979229Y-13344174D02*
X4988753Y-13306079D01*
X4988753Y-13306079D02*
X4998277Y-13287031D01*
X4998277Y-13287031D02*
X5007801Y-13277508D01*
X5007801Y-13277508D02*
X5026848Y-13267984D01*
X5188753Y-13467984D02*
X5226848Y-13467984D01*
X5226848Y-13467984D02*
X5245896Y-13458460D01*
X5245896Y-13458460D02*
X5255420Y-13448936D01*
X5255420Y-13448936D02*
X5274468Y-13420365D01*
X5274468Y-13420365D02*
X5283991Y-13382269D01*
X5283991Y-13382269D02*
X5283991Y-13306079D01*
X5283991Y-13306079D02*
X5274468Y-13287031D01*
X5274468Y-13287031D02*
X5264944Y-13277508D01*
X5264944Y-13277508D02*
X5245896Y-13267984D01*
X5245896Y-13267984D02*
X5207801Y-13267984D01*
X5207801Y-13267984D02*
X5188753Y-13277508D01*
X5188753Y-13277508D02*
X5179229Y-13287031D01*
X5179229Y-13287031D02*
X5169706Y-13306079D01*
X5169706Y-13306079D02*
X5169706Y-13353698D01*
X5169706Y-13353698D02*
X5179229Y-13372746D01*
X5179229Y-13372746D02*
X5188753Y-13382269D01*
X5188753Y-13382269D02*
X5207801Y-13391793D01*
X5207801Y-13391793D02*
X5245896Y-13391793D01*
X5245896Y-13391793D02*
X5264944Y-13382269D01*
X5264944Y-13382269D02*
X5274468Y-13372746D01*
X5274468Y-13372746D02*
X5283991Y-13353698D01*
X5407801Y-13267984D02*
X5426849Y-13267984D01*
X5426849Y-13267984D02*
X5445896Y-13277508D01*
X5445896Y-13277508D02*
X5455420Y-13287031D01*
X5455420Y-13287031D02*
X5464944Y-13306079D01*
X5464944Y-13306079D02*
X5474468Y-13344174D01*
X5474468Y-13344174D02*
X5474468Y-13391793D01*
X5474468Y-13391793D02*
X5464944Y-13429888D01*
X5464944Y-13429888D02*
X5455420Y-13448936D01*
X5455420Y-13448936D02*
X5445896Y-13458460D01*
X5445896Y-13458460D02*
X5426849Y-13467984D01*
X5426849Y-13467984D02*
X5407801Y-13467984D01*
X5407801Y-13467984D02*
X5388753Y-13458460D01*
X5388753Y-13458460D02*
X5379229Y-13448936D01*
X5379229Y-13448936D02*
X5369706Y-13429888D01*
X5369706Y-13429888D02*
X5360182Y-13391793D01*
X5360182Y-13391793D02*
X5360182Y-13344174D01*
X5360182Y-13344174D02*
X5369706Y-13306079D01*
X5369706Y-13306079D02*
X5379229Y-13287031D01*
X5379229Y-13287031D02*
X5388753Y-13277508D01*
X5388753Y-13277508D02*
X5407801Y-13267984D01*
X5645896Y-13267984D02*
X5607801Y-13267984D01*
X5607801Y-13267984D02*
X5588753Y-13277508D01*
X5588753Y-13277508D02*
X5579229Y-13287031D01*
X5579229Y-13287031D02*
X5560182Y-13315603D01*
X5560182Y-13315603D02*
X5550658Y-13353698D01*
X5550658Y-13353698D02*
X5550658Y-13429888D01*
X5550658Y-13429888D02*
X5560182Y-13448936D01*
X5560182Y-13448936D02*
X5569706Y-13458460D01*
X5569706Y-13458460D02*
X5588753Y-13467984D01*
X5588753Y-13467984D02*
X5626848Y-13467984D01*
X5626848Y-13467984D02*
X5645896Y-13458460D01*
X5645896Y-13458460D02*
X5655420Y-13448936D01*
X5655420Y-13448936D02*
X5664944Y-13429888D01*
X5664944Y-13429888D02*
X5664944Y-13382269D01*
X5664944Y-13382269D02*
X5655420Y-13363222D01*
X5655420Y-13363222D02*
X5645896Y-13353698D01*
X5645896Y-13353698D02*
X5626848Y-13344174D01*
X5626848Y-13344174D02*
X5588753Y-13344174D01*
X5588753Y-13344174D02*
X5569706Y-13353698D01*
X5569706Y-13353698D02*
X5560182Y-13363222D01*
X5560182Y-13363222D02*
X5550658Y-13382269D01*
X5741134Y-13267984D02*
X5741134Y-13306079D01*
X5817325Y-13267984D02*
X5817325Y-13306079D01*
X6112563Y-13544174D02*
X6103039Y-13534650D01*
X6103039Y-13534650D02*
X6083991Y-13506079D01*
X6083991Y-13506079D02*
X6074468Y-13487031D01*
X6074468Y-13487031D02*
X6064944Y-13458460D01*
X6064944Y-13458460D02*
X6055420Y-13410841D01*
X6055420Y-13410841D02*
X6055420Y-13372746D01*
X6055420Y-13372746D02*
X6064944Y-13325127D01*
X6064944Y-13325127D02*
X6074468Y-13296555D01*
X6074468Y-13296555D02*
X6083991Y-13277508D01*
X6083991Y-13277508D02*
X6103039Y-13248936D01*
X6103039Y-13248936D02*
X6112563Y-13239412D01*
X6179229Y-13287031D02*
X6188753Y-13277508D01*
X6188753Y-13277508D02*
X6207801Y-13267984D01*
X6207801Y-13267984D02*
X6255420Y-13267984D01*
X6255420Y-13267984D02*
X6274468Y-13277508D01*
X6274468Y-13277508D02*
X6283991Y-13287031D01*
X6283991Y-13287031D02*
X6293515Y-13306079D01*
X6293515Y-13306079D02*
X6293515Y-13325127D01*
X6293515Y-13325127D02*
X6283991Y-13353698D01*
X6283991Y-13353698D02*
X6169706Y-13467984D01*
X6169706Y-13467984D02*
X6293515Y-13467984D01*
X6531610Y-13467984D02*
X6531610Y-13267984D01*
X6617325Y-13467984D02*
X6617325Y-13363222D01*
X6617325Y-13363222D02*
X6607801Y-13344174D01*
X6607801Y-13344174D02*
X6588753Y-13334650D01*
X6588753Y-13334650D02*
X6560182Y-13334650D01*
X6560182Y-13334650D02*
X6541134Y-13344174D01*
X6541134Y-13344174D02*
X6531610Y-13353698D01*
X6741134Y-13467984D02*
X6722087Y-13458460D01*
X6722087Y-13458460D02*
X6712563Y-13448936D01*
X6712563Y-13448936D02*
X6703039Y-13429888D01*
X6703039Y-13429888D02*
X6703039Y-13372746D01*
X6703039Y-13372746D02*
X6712563Y-13353698D01*
X6712563Y-13353698D02*
X6722087Y-13344174D01*
X6722087Y-13344174D02*
X6741134Y-13334650D01*
X6741134Y-13334650D02*
X6769706Y-13334650D01*
X6769706Y-13334650D02*
X6788753Y-13344174D01*
X6788753Y-13344174D02*
X6798277Y-13353698D01*
X6798277Y-13353698D02*
X6807801Y-13372746D01*
X6807801Y-13372746D02*
X6807801Y-13429888D01*
X6807801Y-13429888D02*
X6798277Y-13448936D01*
X6798277Y-13448936D02*
X6788753Y-13458460D01*
X6788753Y-13458460D02*
X6769706Y-13467984D01*
X6769706Y-13467984D02*
X6741134Y-13467984D01*
X6922087Y-13467984D02*
X6903039Y-13458460D01*
X6903039Y-13458460D02*
X6893515Y-13439412D01*
X6893515Y-13439412D02*
X6893515Y-13267984D01*
X7074468Y-13458460D02*
X7055420Y-13467984D01*
X7055420Y-13467984D02*
X7017325Y-13467984D01*
X7017325Y-13467984D02*
X6998277Y-13458460D01*
X6998277Y-13458460D02*
X6988753Y-13439412D01*
X6988753Y-13439412D02*
X6988753Y-13363222D01*
X6988753Y-13363222D02*
X6998277Y-13344174D01*
X6998277Y-13344174D02*
X7017325Y-13334650D01*
X7017325Y-13334650D02*
X7055420Y-13334650D01*
X7055420Y-13334650D02*
X7074468Y-13344174D01*
X7074468Y-13344174D02*
X7083991Y-13363222D01*
X7083991Y-13363222D02*
X7083991Y-13382269D01*
X7083991Y-13382269D02*
X6988753Y-13401317D01*
X7160182Y-13458460D02*
X7179230Y-13467984D01*
X7179230Y-13467984D02*
X7217325Y-13467984D01*
X7217325Y-13467984D02*
X7236372Y-13458460D01*
X7236372Y-13458460D02*
X7245896Y-13439412D01*
X7245896Y-13439412D02*
X7245896Y-13429888D01*
X7245896Y-13429888D02*
X7236372Y-13410841D01*
X7236372Y-13410841D02*
X7217325Y-13401317D01*
X7217325Y-13401317D02*
X7188753Y-13401317D01*
X7188753Y-13401317D02*
X7169706Y-13391793D01*
X7169706Y-13391793D02*
X7160182Y-13372746D01*
X7160182Y-13372746D02*
X7160182Y-13363222D01*
X7160182Y-13363222D02*
X7169706Y-13344174D01*
X7169706Y-13344174D02*
X7188753Y-13334650D01*
X7188753Y-13334650D02*
X7217325Y-13334650D01*
X7217325Y-13334650D02*
X7236372Y-13344174D01*
X7312563Y-13544174D02*
X7322087Y-13534650D01*
X7322087Y-13534650D02*
X7341134Y-13506079D01*
X7341134Y-13506079D02*
X7350658Y-13487031D01*
X7350658Y-13487031D02*
X7360182Y-13458460D01*
X7360182Y-13458460D02*
X7369706Y-13410841D01*
X7369706Y-13410841D02*
X7369706Y-13372746D01*
X7369706Y-13372746D02*
X7360182Y-13325127D01*
X7360182Y-13325127D02*
X7350658Y-13296555D01*
X7350658Y-13296555D02*
X7341134Y-13277508D01*
X7341134Y-13277508D02*
X7322087Y-13248936D01*
X7322087Y-13248936D02*
X7312563Y-13239412D01*
X2337500Y-13596500D02*
X2537500Y-13796500D01*
X2537500Y-13596500D02*
X2337500Y-13796500D01*
X2508211Y-13767211D02*
X2508211Y-13625789D01*
X2366789Y-13625789D01*
X2366789Y-13767211D01*
X2508211Y-13767211D01*
X2779229Y-13587984D02*
X2903039Y-13587984D01*
X2903039Y-13587984D02*
X2836372Y-13664174D01*
X2836372Y-13664174D02*
X2864943Y-13664174D01*
X2864943Y-13664174D02*
X2883991Y-13673698D01*
X2883991Y-13673698D02*
X2893515Y-13683222D01*
X2893515Y-13683222D02*
X2903039Y-13702269D01*
X2903039Y-13702269D02*
X2903039Y-13749888D01*
X2903039Y-13749888D02*
X2893515Y-13768936D01*
X2893515Y-13768936D02*
X2883991Y-13778460D01*
X2883991Y-13778460D02*
X2864943Y-13787984D01*
X2864943Y-13787984D02*
X2807801Y-13787984D01*
X2807801Y-13787984D02*
X2788753Y-13778460D01*
X2788753Y-13778460D02*
X2779229Y-13768936D01*
X2988753Y-13768936D02*
X2998277Y-13778460D01*
X2998277Y-13778460D02*
X2988753Y-13787984D01*
X2988753Y-13787984D02*
X2979229Y-13778460D01*
X2979229Y-13778460D02*
X2988753Y-13768936D01*
X2988753Y-13768936D02*
X2988753Y-13787984D01*
X3074467Y-13607031D02*
X3083991Y-13597508D01*
X3083991Y-13597508D02*
X3103039Y-13587984D01*
X3103039Y-13587984D02*
X3150658Y-13587984D01*
X3150658Y-13587984D02*
X3169705Y-13597508D01*
X3169705Y-13597508D02*
X3179229Y-13607031D01*
X3179229Y-13607031D02*
X3188753Y-13626079D01*
X3188753Y-13626079D02*
X3188753Y-13645127D01*
X3188753Y-13645127D02*
X3179229Y-13673698D01*
X3179229Y-13673698D02*
X3064943Y-13787984D01*
X3064943Y-13787984D02*
X3188753Y-13787984D01*
X3369705Y-13587984D02*
X3274467Y-13587984D01*
X3274467Y-13587984D02*
X3264943Y-13683222D01*
X3264943Y-13683222D02*
X3274467Y-13673698D01*
X3274467Y-13673698D02*
X3293515Y-13664174D01*
X3293515Y-13664174D02*
X3341134Y-13664174D01*
X3341134Y-13664174D02*
X3360182Y-13673698D01*
X3360182Y-13673698D02*
X3369705Y-13683222D01*
X3369705Y-13683222D02*
X3379229Y-13702269D01*
X3379229Y-13702269D02*
X3379229Y-13749888D01*
X3379229Y-13749888D02*
X3369705Y-13768936D01*
X3369705Y-13768936D02*
X3360182Y-13778460D01*
X3360182Y-13778460D02*
X3341134Y-13787984D01*
X3341134Y-13787984D02*
X3293515Y-13787984D01*
X3293515Y-13787984D02*
X3274467Y-13778460D01*
X3274467Y-13778460D02*
X3264943Y-13768936D01*
X3569705Y-13787984D02*
X3455420Y-13787984D01*
X3512562Y-13787984D02*
X3512562Y-13587984D01*
X3512562Y-13587984D02*
X3493515Y-13616555D01*
X3493515Y-13616555D02*
X3474467Y-13635603D01*
X3474467Y-13635603D02*
X3455420Y-13645127D01*
X3655420Y-13787984D02*
X3655420Y-13654650D01*
X3655420Y-13673698D02*
X3664943Y-13664174D01*
X3664943Y-13664174D02*
X3683991Y-13654650D01*
X3683991Y-13654650D02*
X3712563Y-13654650D01*
X3712563Y-13654650D02*
X3731610Y-13664174D01*
X3731610Y-13664174D02*
X3741134Y-13683222D01*
X3741134Y-13683222D02*
X3741134Y-13787984D01*
X3741134Y-13683222D02*
X3750658Y-13664174D01*
X3750658Y-13664174D02*
X3769705Y-13654650D01*
X3769705Y-13654650D02*
X3798277Y-13654650D01*
X3798277Y-13654650D02*
X3817324Y-13664174D01*
X3817324Y-13664174D02*
X3826848Y-13683222D01*
X3826848Y-13683222D02*
X3826848Y-13787984D01*
X3922086Y-13787984D02*
X3922086Y-13654650D01*
X3922086Y-13673698D02*
X3931610Y-13664174D01*
X3931610Y-13664174D02*
X3950658Y-13654650D01*
X3950658Y-13654650D02*
X3979229Y-13654650D01*
X3979229Y-13654650D02*
X3998277Y-13664174D01*
X3998277Y-13664174D02*
X4007801Y-13683222D01*
X4007801Y-13683222D02*
X4007801Y-13787984D01*
X4007801Y-13683222D02*
X4017324Y-13664174D01*
X4017324Y-13664174D02*
X4036372Y-13654650D01*
X4036372Y-13654650D02*
X4064943Y-13654650D01*
X4064943Y-13654650D02*
X4083991Y-13664174D01*
X4083991Y-13664174D02*
X4093515Y-13683222D01*
X4093515Y-13683222D02*
X4093515Y-13787984D01*
X4483991Y-13578460D02*
X4312563Y-13835603D01*
X4741134Y-13587984D02*
X4760182Y-13587984D01*
X4760182Y-13587984D02*
X4779229Y-13597508D01*
X4779229Y-13597508D02*
X4788753Y-13607031D01*
X4788753Y-13607031D02*
X4798277Y-13626079D01*
X4798277Y-13626079D02*
X4807801Y-13664174D01*
X4807801Y-13664174D02*
X4807801Y-13711793D01*
X4807801Y-13711793D02*
X4798277Y-13749888D01*
X4798277Y-13749888D02*
X4788753Y-13768936D01*
X4788753Y-13768936D02*
X4779229Y-13778460D01*
X4779229Y-13778460D02*
X4760182Y-13787984D01*
X4760182Y-13787984D02*
X4741134Y-13787984D01*
X4741134Y-13787984D02*
X4722087Y-13778460D01*
X4722087Y-13778460D02*
X4712563Y-13768936D01*
X4712563Y-13768936D02*
X4703039Y-13749888D01*
X4703039Y-13749888D02*
X4693515Y-13711793D01*
X4693515Y-13711793D02*
X4693515Y-13664174D01*
X4693515Y-13664174D02*
X4703039Y-13626079D01*
X4703039Y-13626079D02*
X4712563Y-13607031D01*
X4712563Y-13607031D02*
X4722087Y-13597508D01*
X4722087Y-13597508D02*
X4741134Y-13587984D01*
X4893515Y-13768936D02*
X4903039Y-13778460D01*
X4903039Y-13778460D02*
X4893515Y-13787984D01*
X4893515Y-13787984D02*
X4883991Y-13778460D01*
X4883991Y-13778460D02*
X4893515Y-13768936D01*
X4893515Y-13768936D02*
X4893515Y-13787984D01*
X5093515Y-13787984D02*
X4979229Y-13787984D01*
X5036372Y-13787984D02*
X5036372Y-13587984D01*
X5036372Y-13587984D02*
X5017325Y-13616555D01*
X5017325Y-13616555D02*
X4998277Y-13635603D01*
X4998277Y-13635603D02*
X4979229Y-13645127D01*
X5169706Y-13607031D02*
X5179229Y-13597508D01*
X5179229Y-13597508D02*
X5198277Y-13587984D01*
X5198277Y-13587984D02*
X5245896Y-13587984D01*
X5245896Y-13587984D02*
X5264944Y-13597508D01*
X5264944Y-13597508D02*
X5274468Y-13607031D01*
X5274468Y-13607031D02*
X5283991Y-13626079D01*
X5283991Y-13626079D02*
X5283991Y-13645127D01*
X5283991Y-13645127D02*
X5274468Y-13673698D01*
X5274468Y-13673698D02*
X5160182Y-13787984D01*
X5160182Y-13787984D02*
X5283991Y-13787984D01*
X5398277Y-13673698D02*
X5379229Y-13664174D01*
X5379229Y-13664174D02*
X5369706Y-13654650D01*
X5369706Y-13654650D02*
X5360182Y-13635603D01*
X5360182Y-13635603D02*
X5360182Y-13626079D01*
X5360182Y-13626079D02*
X5369706Y-13607031D01*
X5369706Y-13607031D02*
X5379229Y-13597508D01*
X5379229Y-13597508D02*
X5398277Y-13587984D01*
X5398277Y-13587984D02*
X5436372Y-13587984D01*
X5436372Y-13587984D02*
X5455420Y-13597508D01*
X5455420Y-13597508D02*
X5464944Y-13607031D01*
X5464944Y-13607031D02*
X5474468Y-13626079D01*
X5474468Y-13626079D02*
X5474468Y-13635603D01*
X5474468Y-13635603D02*
X5464944Y-13654650D01*
X5464944Y-13654650D02*
X5455420Y-13664174D01*
X5455420Y-13664174D02*
X5436372Y-13673698D01*
X5436372Y-13673698D02*
X5398277Y-13673698D01*
X5398277Y-13673698D02*
X5379229Y-13683222D01*
X5379229Y-13683222D02*
X5369706Y-13692746D01*
X5369706Y-13692746D02*
X5360182Y-13711793D01*
X5360182Y-13711793D02*
X5360182Y-13749888D01*
X5360182Y-13749888D02*
X5369706Y-13768936D01*
X5369706Y-13768936D02*
X5379229Y-13778460D01*
X5379229Y-13778460D02*
X5398277Y-13787984D01*
X5398277Y-13787984D02*
X5436372Y-13787984D01*
X5436372Y-13787984D02*
X5455420Y-13778460D01*
X5455420Y-13778460D02*
X5464944Y-13768936D01*
X5464944Y-13768936D02*
X5474468Y-13749888D01*
X5474468Y-13749888D02*
X5474468Y-13711793D01*
X5474468Y-13711793D02*
X5464944Y-13692746D01*
X5464944Y-13692746D02*
X5455420Y-13683222D01*
X5455420Y-13683222D02*
X5436372Y-13673698D01*
X5598277Y-13587984D02*
X5617325Y-13587984D01*
X5617325Y-13587984D02*
X5636372Y-13597508D01*
X5636372Y-13597508D02*
X5645896Y-13607031D01*
X5645896Y-13607031D02*
X5655420Y-13626079D01*
X5655420Y-13626079D02*
X5664944Y-13664174D01*
X5664944Y-13664174D02*
X5664944Y-13711793D01*
X5664944Y-13711793D02*
X5655420Y-13749888D01*
X5655420Y-13749888D02*
X5645896Y-13768936D01*
X5645896Y-13768936D02*
X5636372Y-13778460D01*
X5636372Y-13778460D02*
X5617325Y-13787984D01*
X5617325Y-13787984D02*
X5598277Y-13787984D01*
X5598277Y-13787984D02*
X5579229Y-13778460D01*
X5579229Y-13778460D02*
X5569706Y-13768936D01*
X5569706Y-13768936D02*
X5560182Y-13749888D01*
X5560182Y-13749888D02*
X5550658Y-13711793D01*
X5550658Y-13711793D02*
X5550658Y-13664174D01*
X5550658Y-13664174D02*
X5560182Y-13626079D01*
X5560182Y-13626079D02*
X5569706Y-13607031D01*
X5569706Y-13607031D02*
X5579229Y-13597508D01*
X5579229Y-13597508D02*
X5598277Y-13587984D01*
X5741134Y-13587984D02*
X5741134Y-13626079D01*
X5817325Y-13587984D02*
X5817325Y-13626079D01*
X6112563Y-13864174D02*
X6103039Y-13854650D01*
X6103039Y-13854650D02*
X6083991Y-13826079D01*
X6083991Y-13826079D02*
X6074468Y-13807031D01*
X6074468Y-13807031D02*
X6064944Y-13778460D01*
X6064944Y-13778460D02*
X6055420Y-13730841D01*
X6055420Y-13730841D02*
X6055420Y-13692746D01*
X6055420Y-13692746D02*
X6064944Y-13645127D01*
X6064944Y-13645127D02*
X6074468Y-13616555D01*
X6074468Y-13616555D02*
X6083991Y-13597508D01*
X6083991Y-13597508D02*
X6103039Y-13568936D01*
X6103039Y-13568936D02*
X6112563Y-13559412D01*
X6274468Y-13654650D02*
X6274468Y-13787984D01*
X6226848Y-13578460D02*
X6179229Y-13721317D01*
X6179229Y-13721317D02*
X6303039Y-13721317D01*
X6531610Y-13787984D02*
X6531610Y-13587984D01*
X6617325Y-13787984D02*
X6617325Y-13683222D01*
X6617325Y-13683222D02*
X6607801Y-13664174D01*
X6607801Y-13664174D02*
X6588753Y-13654650D01*
X6588753Y-13654650D02*
X6560182Y-13654650D01*
X6560182Y-13654650D02*
X6541134Y-13664174D01*
X6541134Y-13664174D02*
X6531610Y-13673698D01*
X6741134Y-13787984D02*
X6722087Y-13778460D01*
X6722087Y-13778460D02*
X6712563Y-13768936D01*
X6712563Y-13768936D02*
X6703039Y-13749888D01*
X6703039Y-13749888D02*
X6703039Y-13692746D01*
X6703039Y-13692746D02*
X6712563Y-13673698D01*
X6712563Y-13673698D02*
X6722087Y-13664174D01*
X6722087Y-13664174D02*
X6741134Y-13654650D01*
X6741134Y-13654650D02*
X6769706Y-13654650D01*
X6769706Y-13654650D02*
X6788753Y-13664174D01*
X6788753Y-13664174D02*
X6798277Y-13673698D01*
X6798277Y-13673698D02*
X6807801Y-13692746D01*
X6807801Y-13692746D02*
X6807801Y-13749888D01*
X6807801Y-13749888D02*
X6798277Y-13768936D01*
X6798277Y-13768936D02*
X6788753Y-13778460D01*
X6788753Y-13778460D02*
X6769706Y-13787984D01*
X6769706Y-13787984D02*
X6741134Y-13787984D01*
X6922087Y-13787984D02*
X6903039Y-13778460D01*
X6903039Y-13778460D02*
X6893515Y-13759412D01*
X6893515Y-13759412D02*
X6893515Y-13587984D01*
X7074468Y-13778460D02*
X7055420Y-13787984D01*
X7055420Y-13787984D02*
X7017325Y-13787984D01*
X7017325Y-13787984D02*
X6998277Y-13778460D01*
X6998277Y-13778460D02*
X6988753Y-13759412D01*
X6988753Y-13759412D02*
X6988753Y-13683222D01*
X6988753Y-13683222D02*
X6998277Y-13664174D01*
X6998277Y-13664174D02*
X7017325Y-13654650D01*
X7017325Y-13654650D02*
X7055420Y-13654650D01*
X7055420Y-13654650D02*
X7074468Y-13664174D01*
X7074468Y-13664174D02*
X7083991Y-13683222D01*
X7083991Y-13683222D02*
X7083991Y-13702269D01*
X7083991Y-13702269D02*
X6988753Y-13721317D01*
X7160182Y-13778460D02*
X7179230Y-13787984D01*
X7179230Y-13787984D02*
X7217325Y-13787984D01*
X7217325Y-13787984D02*
X7236372Y-13778460D01*
X7236372Y-13778460D02*
X7245896Y-13759412D01*
X7245896Y-13759412D02*
X7245896Y-13749888D01*
X7245896Y-13749888D02*
X7236372Y-13730841D01*
X7236372Y-13730841D02*
X7217325Y-13721317D01*
X7217325Y-13721317D02*
X7188753Y-13721317D01*
X7188753Y-13721317D02*
X7169706Y-13711793D01*
X7169706Y-13711793D02*
X7160182Y-13692746D01*
X7160182Y-13692746D02*
X7160182Y-13683222D01*
X7160182Y-13683222D02*
X7169706Y-13664174D01*
X7169706Y-13664174D02*
X7188753Y-13654650D01*
X7188753Y-13654650D02*
X7217325Y-13654650D01*
X7217325Y-13654650D02*
X7236372Y-13664174D01*
X7312563Y-13864174D02*
X7322087Y-13854650D01*
X7322087Y-13854650D02*
X7341134Y-13826079D01*
X7341134Y-13826079D02*
X7350658Y-13807031D01*
X7350658Y-13807031D02*
X7360182Y-13778460D01*
X7360182Y-13778460D02*
X7369706Y-13730841D01*
X7369706Y-13730841D02*
X7369706Y-13692746D01*
X7369706Y-13692746D02*
X7360182Y-13645127D01*
X7360182Y-13645127D02*
X7350658Y-13616555D01*
X7350658Y-13616555D02*
X7341134Y-13597508D01*
X7341134Y-13597508D02*
X7322087Y-13568936D01*
X7322087Y-13568936D02*
X7312563Y-13559412D01*
M02*
