G04 #@! TF.GenerationSoftware,KiCad,Pcbnew,8.0.8*
G04 #@! TF.CreationDate,2025-02-08T12:50:56+01:00*
G04 #@! TF.ProjectId,Overlord,4f766572-6c6f-4726-942e-6b696361645f,rev?*
G04 #@! TF.SameCoordinates,Original*
G04 #@! TF.FileFunction,Soldermask,Bot*
G04 #@! TF.FilePolarity,Negative*
%FSLAX46Y46*%
G04 Gerber Fmt 4.6, Leading zero omitted, Abs format (unit mm)*
G04 Created by KiCad (PCBNEW 8.0.8) date 2025-02-08 12:50:56*
%MOMM*%
%LPD*%
G01*
G04 APERTURE LIST*
G04 Aperture macros list*
%AMRoundRect*
0 Rectangle with rounded corners*
0 $1 Rounding radius*
0 $2 $3 $4 $5 $6 $7 $8 $9 X,Y pos of 4 corners*
0 Add a 4 corners polygon primitive as box body*
4,1,4,$2,$3,$4,$5,$6,$7,$8,$9,$2,$3,0*
0 Add four circle primitives for the rounded corners*
1,1,$1+$1,$2,$3*
1,1,$1+$1,$4,$5*
1,1,$1+$1,$6,$7*
1,1,$1+$1,$8,$9*
0 Add four rect primitives between the rounded corners*
20,1,$1+$1,$2,$3,$4,$5,0*
20,1,$1+$1,$4,$5,$6,$7,0*
20,1,$1+$1,$6,$7,$8,$9,0*
20,1,$1+$1,$8,$9,$2,$3,0*%
G04 Aperture macros list end*
%ADD10C,3.500000*%
%ADD11R,1.700000X1.700000*%
%ADD12C,1.500000*%
%ADD13RoundRect,0.250000X0.400000X-0.650000X0.400000X0.650000X-0.400000X0.650000X-0.400000X-0.650000X0*%
%ADD14O,1.300000X1.800000*%
%ADD15O,1.700000X1.700000*%
%ADD16R,2.025000X2.025000*%
%ADD17C,2.025000*%
%ADD18R,1.600000X1.600000*%
%ADD19C,1.600000*%
%ADD20C,4.000000*%
%ADD21C,1.562000*%
%ADD22C,4.877000*%
G04 APERTURE END LIST*
D10*
X171960000Y-43450000D03*
X33960000Y-93450000D03*
D11*
X72050000Y-69350000D03*
D12*
X158400000Y-88180000D03*
X175970000Y-88180000D03*
D13*
X160200000Y-86700000D03*
D14*
X161470000Y-84160000D03*
X162740000Y-86700000D03*
X164010000Y-84160000D03*
X165279999Y-86700000D03*
X166550000Y-84160000D03*
X167820000Y-86700000D03*
X169090000Y-84160000D03*
X170360000Y-86700000D03*
X171630000Y-84160000D03*
X172900000Y-86700000D03*
X174170000Y-84160000D03*
D11*
X134827500Y-72825000D03*
D15*
X134827500Y-70285000D03*
D11*
X133950000Y-101550000D03*
X55650000Y-76300000D03*
X148350000Y-69950000D03*
D16*
X85650000Y-31600000D03*
D17*
X89150000Y-31600000D03*
X92650000Y-31600000D03*
X96150000Y-31600000D03*
X99650000Y-31600000D03*
X103150000Y-31600000D03*
X106650000Y-31600000D03*
X110150000Y-31600000D03*
X113650000Y-31600000D03*
X117150000Y-31600000D03*
X120650000Y-31600000D03*
D11*
X73650000Y-56100000D03*
X73550000Y-102650000D03*
X126750000Y-101550000D03*
X115850000Y-35500000D03*
D15*
X113310000Y-35500000D03*
X110770001Y-35500000D03*
X108230000Y-35500000D03*
X105690000Y-35500000D03*
X103150000Y-35500000D03*
X100610000Y-35500000D03*
X98069999Y-35500000D03*
X95530000Y-35500000D03*
X92990000Y-35500000D03*
X90450000Y-35500000D03*
D18*
X79750000Y-56150000D03*
D19*
X83250000Y-56150000D03*
D11*
X61875000Y-35500000D03*
D15*
X59335000Y-35500000D03*
X56795001Y-35500000D03*
X54255000Y-35500000D03*
X51715000Y-35500000D03*
X49175000Y-35500000D03*
X46635000Y-35500000D03*
X44094999Y-35500000D03*
X41555000Y-35500000D03*
X39015000Y-35500000D03*
D11*
X155550000Y-69950000D03*
X55650000Y-72700000D03*
X176350000Y-80600000D03*
X123150000Y-101550000D03*
X141150000Y-69950000D03*
X172749999Y-80600000D03*
X147400000Y-88600000D03*
D18*
X43450000Y-56400000D03*
D19*
X46950000Y-56400000D03*
D11*
X58300000Y-56100000D03*
D18*
X47450000Y-95890000D03*
D19*
X44950000Y-95890000D03*
X44950000Y-97890000D03*
X47450000Y-97890000D03*
D20*
X52200000Y-100750000D03*
X40200000Y-100750000D03*
D11*
X66350000Y-102650000D03*
X137550000Y-101550000D03*
D18*
X115997349Y-56150000D03*
D19*
X119497349Y-56150000D03*
D11*
X130350000Y-101550000D03*
X55650000Y-79900000D03*
X151950000Y-69950000D03*
X77149999Y-102650000D03*
X54700000Y-56100000D03*
X128650000Y-56100000D03*
X70050000Y-56100000D03*
X74470001Y-76605000D03*
D15*
X77010001Y-76605000D03*
D11*
X69950001Y-102650000D03*
X168550000Y-35500000D03*
D15*
X166010000Y-35500000D03*
X163470001Y-35500000D03*
X160930000Y-35500000D03*
X158390000Y-35500000D03*
X155850000Y-35500000D03*
X153310000Y-35500000D03*
X150769999Y-35500000D03*
X148230000Y-35500000D03*
X145690000Y-35500000D03*
X143150000Y-35500000D03*
D21*
X161336000Y-94506000D03*
X158593000Y-94506000D03*
X155850000Y-94506000D03*
X153107000Y-94506000D03*
X150364000Y-94506000D03*
X159965000Y-97351000D03*
X157222000Y-97351000D03*
X154478000Y-97351000D03*
X151735000Y-97351000D03*
D22*
X168347000Y-95929000D03*
X143353000Y-95929000D03*
D16*
X138350000Y-31600000D03*
D17*
X141850000Y-31600000D03*
X145350000Y-31600000D03*
X148850000Y-31600000D03*
X152350000Y-31600000D03*
X155850000Y-31600000D03*
X159350000Y-31600000D03*
X162850000Y-31600000D03*
X166350000Y-31600000D03*
X169850000Y-31600000D03*
X173350000Y-31600000D03*
D11*
X145550000Y-56100000D03*
D16*
X32950000Y-31600000D03*
D17*
X36450000Y-31600000D03*
X39950000Y-31600000D03*
X43450000Y-31600000D03*
X46950000Y-31600000D03*
X50450000Y-31600000D03*
X53950000Y-31600000D03*
X57450000Y-31600000D03*
X60950000Y-31600000D03*
X64450000Y-31600000D03*
X67950000Y-31600000D03*
D18*
X152150000Y-56400000D03*
D19*
X155650000Y-56400000D03*
D11*
X141950000Y-56100000D03*
X72050000Y-65750000D03*
X144750000Y-69950000D03*
X125050001Y-56100000D03*
X52050000Y-65500000D03*
X143800000Y-88600000D03*
D21*
X108636000Y-94655000D03*
X105893000Y-94655000D03*
X103150000Y-94655000D03*
X100407000Y-94655000D03*
X97664000Y-94655000D03*
X107265000Y-97500000D03*
X104522000Y-97500000D03*
X101778000Y-97500000D03*
X99035000Y-97500000D03*
D22*
X115647000Y-96078000D03*
X90653000Y-96078000D03*
D11*
X143800000Y-85000000D03*
X61875000Y-95250000D03*
D15*
X59335000Y-95250000D03*
D11*
X55650000Y-69100000D03*
M02*
