G04 #@! TF.GenerationSoftware,KiCad,Pcbnew,8.0.8*
G04 #@! TF.CreationDate,2025-02-08T12:50:56+01:00*
G04 #@! TF.ProjectId,Overlord,4f766572-6c6f-4726-942e-6b696361645f,rev?*
G04 #@! TF.SameCoordinates,Original*
G04 #@! TF.FileFunction,Paste,Top*
G04 #@! TF.FilePolarity,Positive*
%FSLAX46Y46*%
G04 Gerber Fmt 4.6, Leading zero omitted, Abs format (unit mm)*
G04 Created by KiCad (PCBNEW 8.0.8) date 2025-02-08 12:50:56*
%MOMM*%
%LPD*%
G01*
G04 APERTURE LIST*
G04 Aperture macros list*
%AMRoundRect*
0 Rectangle with rounded corners*
0 $1 Rounding radius*
0 $2 $3 $4 $5 $6 $7 $8 $9 X,Y pos of 4 corners*
0 Add a 4 corners polygon primitive as box body*
4,1,4,$2,$3,$4,$5,$6,$7,$8,$9,$2,$3,0*
0 Add four circle primitives for the rounded corners*
1,1,$1+$1,$2,$3*
1,1,$1+$1,$4,$5*
1,1,$1+$1,$6,$7*
1,1,$1+$1,$8,$9*
0 Add four rect primitives between the rounded corners*
20,1,$1+$1,$2,$3,$4,$5,0*
20,1,$1+$1,$4,$5,$6,$7,0*
20,1,$1+$1,$6,$7,$8,$9,0*
20,1,$1+$1,$8,$9,$2,$3,0*%
G04 Aperture macros list end*
%ADD10RoundRect,0.250000X0.450000X-0.350000X0.450000X0.350000X-0.450000X0.350000X-0.450000X-0.350000X0*%
%ADD11RoundRect,0.250000X0.350000X0.450000X-0.350000X0.450000X-0.350000X-0.450000X0.350000X-0.450000X0*%
%ADD12RoundRect,0.250000X0.325000X0.450000X-0.325000X0.450000X-0.325000X-0.450000X0.325000X-0.450000X0*%
%ADD13RoundRect,0.250000X-0.475000X0.337500X-0.475000X-0.337500X0.475000X-0.337500X0.475000X0.337500X0*%
%ADD14RoundRect,0.250000X0.475000X-0.337500X0.475000X0.337500X-0.475000X0.337500X-0.475000X-0.337500X0*%
%ADD15RoundRect,0.250000X-0.350000X-0.450000X0.350000X-0.450000X0.350000X0.450000X-0.350000X0.450000X0*%
%ADD16RoundRect,0.250000X-0.450000X0.350000X-0.450000X-0.350000X0.450000X-0.350000X0.450000X0.350000X0*%
%ADD17RoundRect,0.250000X0.337500X0.475000X-0.337500X0.475000X-0.337500X-0.475000X0.337500X-0.475000X0*%
%ADD18RoundRect,0.250000X-0.337500X-0.475000X0.337500X-0.475000X0.337500X0.475000X-0.337500X0.475000X0*%
%ADD19RoundRect,0.250000X0.450000X-0.325000X0.450000X0.325000X-0.450000X0.325000X-0.450000X-0.325000X0*%
%ADD20R,1.750000X0.800000*%
%ADD21R,1.750000X0.700000*%
%ADD22R,2.790000X0.740000*%
%ADD23RoundRect,0.250000X-0.450000X0.325000X-0.450000X-0.325000X0.450000X-0.325000X0.450000X0.325000X0*%
%ADD24R,1.050000X0.650000*%
%ADD25RoundRect,0.375000X0.375000X-0.625000X0.375000X0.625000X-0.375000X0.625000X-0.375000X-0.625000X0*%
%ADD26RoundRect,0.500000X1.400000X-0.500000X1.400000X0.500000X-1.400000X0.500000X-1.400000X-0.500000X0*%
%ADD27R,1.500000X0.900000*%
%ADD28R,0.900000X1.500000*%
%ADD29R,0.900000X0.900000*%
%ADD30RoundRect,0.150000X-0.725000X-0.150000X0.725000X-0.150000X0.725000X0.150000X-0.725000X0.150000X0*%
%ADD31R,0.650000X1.050000*%
%ADD32R,1.475000X0.450000*%
%ADD33RoundRect,0.250000X0.262500X0.450000X-0.262500X0.450000X-0.262500X-0.450000X0.262500X-0.450000X0*%
%ADD34RoundRect,0.250000X-0.325000X-0.450000X0.325000X-0.450000X0.325000X0.450000X-0.325000X0.450000X0*%
%ADD35RoundRect,0.150000X0.825000X0.150000X-0.825000X0.150000X-0.825000X-0.150000X0.825000X-0.150000X0*%
%ADD36R,0.910000X0.910000*%
%ADD37R,0.460000X0.910000*%
G04 APERTURE END LIST*
D10*
X126047349Y-49875000D03*
X126047349Y-47875000D03*
X94089017Y-49875000D03*
X94089017Y-47875000D03*
D11*
X155550000Y-88450000D03*
X153550000Y-88450000D03*
D12*
X63274999Y-59960000D03*
X61225001Y-59960000D03*
D10*
X141805683Y-49875001D03*
X141805683Y-47875001D03*
D13*
X40510000Y-90812500D03*
X40510000Y-92887500D03*
D12*
X63274999Y-66040000D03*
X61225001Y-66040000D03*
D14*
X39330684Y-49942500D03*
X39330684Y-47867500D03*
X75589017Y-49942500D03*
X75589017Y-47867500D03*
D11*
X70400000Y-98400000D03*
X68400000Y-98400000D03*
D15*
X67200000Y-76800000D03*
X69200000Y-76800000D03*
D10*
X109747350Y-49875001D03*
X109747350Y-47875001D03*
D16*
X73489017Y-41775000D03*
X73489017Y-43775000D03*
D17*
X42537500Y-82900000D03*
X40462500Y-82900000D03*
D10*
X33030684Y-49875001D03*
X33030684Y-47875001D03*
D16*
X57730683Y-41775000D03*
X57730683Y-43775000D03*
D18*
X29762500Y-78900000D03*
X31837500Y-78900000D03*
D11*
X61600001Y-98250000D03*
X59600001Y-98250000D03*
D14*
X35130684Y-43782501D03*
X35130684Y-41707501D03*
X164405682Y-43782500D03*
X164405682Y-41707500D03*
X128247350Y-49942500D03*
X128247350Y-47867500D03*
D19*
X38100000Y-69524999D03*
X38100000Y-67475001D03*
D14*
X87589017Y-43782500D03*
X87589017Y-41707500D03*
D15*
X65995000Y-59915000D03*
X67995000Y-59915000D03*
D20*
X48155683Y-50295000D03*
D21*
X48155683Y-48975000D03*
X48155683Y-47705000D03*
X48155683Y-46435000D03*
X48155683Y-45165000D03*
X48155683Y-43895000D03*
X48155683Y-42625000D03*
D20*
X48155683Y-41305000D03*
X42505683Y-41305000D03*
D21*
X42505683Y-42625000D03*
X42505683Y-43895000D03*
X42505683Y-45165000D03*
X42505683Y-46435000D03*
X42505683Y-47705000D03*
X42505683Y-48975000D03*
D20*
X42505683Y-50295000D03*
D14*
X148105683Y-43782501D03*
X148105683Y-41707501D03*
D16*
X33030684Y-41775001D03*
X33030684Y-43775001D03*
D14*
X123847349Y-43782500D03*
X123847349Y-41707500D03*
X107647350Y-49942501D03*
X107647350Y-47867501D03*
D10*
X146005682Y-49875001D03*
X146005682Y-47875001D03*
D14*
X91889017Y-43782500D03*
X91889017Y-41707500D03*
D13*
X161650000Y-71062500D03*
X161650000Y-73137500D03*
D15*
X140875000Y-74220000D03*
X142875000Y-74220000D03*
D13*
X173450000Y-71062500D03*
X173450000Y-73137500D03*
D10*
X105547350Y-49875001D03*
X105547350Y-47875001D03*
D18*
X149094166Y-80630000D03*
X151169166Y-80630000D03*
D14*
X107647350Y-43782501D03*
X107647350Y-41707501D03*
D16*
X130247349Y-41775000D03*
X130247349Y-43775000D03*
D11*
X135700000Y-91800000D03*
X133700000Y-91800000D03*
D18*
X96475000Y-61100000D03*
X98550000Y-61100000D03*
D17*
X47337500Y-84300000D03*
X45262500Y-84300000D03*
D14*
X75589017Y-43782500D03*
X75589017Y-41707500D03*
D22*
X69030000Y-81000000D03*
X73100000Y-81000000D03*
X69030000Y-82270000D03*
X73100000Y-82270000D03*
X69030000Y-83540000D03*
X73100000Y-83540000D03*
D20*
X120672349Y-50295000D03*
D21*
X120672349Y-48975000D03*
X120672349Y-47705000D03*
X120672349Y-46435000D03*
X120672349Y-45165000D03*
X120672349Y-43895000D03*
X120672349Y-42625000D03*
D20*
X120672349Y-41305000D03*
X115022349Y-41305000D03*
D21*
X115022349Y-42625000D03*
X115022349Y-43895000D03*
X115022349Y-45165000D03*
X115022349Y-46435000D03*
X115022349Y-47705000D03*
X115022349Y-48975000D03*
D20*
X115022349Y-50295000D03*
D11*
X135700000Y-88300000D03*
X133700000Y-88300000D03*
D10*
X37230684Y-49875001D03*
X37230684Y-47875001D03*
D16*
X93989017Y-41775000D03*
X93989017Y-43775000D03*
D17*
X170587500Y-77650000D03*
X168512500Y-77650000D03*
D14*
X160105682Y-49942500D03*
X160105682Y-47867500D03*
X35130684Y-49942501D03*
X35130684Y-47867501D03*
D20*
X156930683Y-50295000D03*
D21*
X156930683Y-48975000D03*
X156930683Y-47705000D03*
X156930683Y-46435000D03*
X156930683Y-45165000D03*
X156930683Y-43895000D03*
X156930683Y-42625000D03*
D20*
X156930683Y-41305000D03*
X151280683Y-41305000D03*
D21*
X151280683Y-42625000D03*
X151280683Y-43895000D03*
X151280683Y-45165000D03*
X151280683Y-46435000D03*
X151280683Y-47705000D03*
X151280683Y-48975000D03*
D20*
X151280683Y-50295000D03*
D11*
X155275000Y-80600000D03*
X153275000Y-80600000D03*
D10*
X89789017Y-49875000D03*
X89789017Y-47875000D03*
X130347350Y-49875000D03*
X130347350Y-47875000D03*
D16*
X53530684Y-41775000D03*
X53530684Y-43775000D03*
X162305682Y-41775000D03*
X162305682Y-43775000D03*
D10*
X166605683Y-49875000D03*
X166605683Y-47875000D03*
D23*
X50400000Y-77147501D03*
X50400000Y-79197499D03*
D24*
X75625000Y-66325000D03*
X79775000Y-66325000D03*
X75625000Y-68475000D03*
X79775000Y-68475000D03*
D25*
X29800000Y-67650000D03*
X32100000Y-67650000D03*
D26*
X32100000Y-61350000D03*
D25*
X34400000Y-67650000D03*
D17*
X37637500Y-78900000D03*
X35562500Y-78900000D03*
D16*
X109747350Y-41775001D03*
X109747350Y-43775001D03*
D14*
X164505683Y-49942500D03*
X164505683Y-47867500D03*
D13*
X74700000Y-91162500D03*
X74700000Y-93237500D03*
D15*
X65995000Y-65995000D03*
X67995000Y-65995000D03*
D11*
X155275000Y-77200000D03*
X153275000Y-77200000D03*
D14*
X111847350Y-43782502D03*
X111847350Y-41707502D03*
D16*
X126047349Y-41775001D03*
X126047349Y-43775001D03*
D11*
X123300000Y-88400000D03*
X121300000Y-88400000D03*
X155550000Y-86350000D03*
X153550000Y-86350000D03*
D10*
X53530683Y-49875000D03*
X53530683Y-47875000D03*
D14*
X55730684Y-49942500D03*
X55730684Y-47867500D03*
X71389017Y-43782500D03*
X71389017Y-41707500D03*
D27*
X90500004Y-65749998D03*
X90500004Y-67019998D03*
X90500004Y-68289998D03*
X90500004Y-69559998D03*
X90500004Y-70829998D03*
X90500004Y-72099998D03*
X90500004Y-73369998D03*
X90500004Y-74639998D03*
X90500004Y-75909998D03*
X90500004Y-77179998D03*
X90500004Y-78449998D03*
X90500004Y-79719998D03*
X90500004Y-80989998D03*
X90500004Y-82259998D03*
D28*
X92265005Y-83509998D03*
X93535004Y-83509998D03*
X94805004Y-83509998D03*
X96075004Y-83509997D03*
X97345004Y-83509998D03*
X98615004Y-83509998D03*
X99885004Y-83509998D03*
X101155004Y-83509998D03*
X102425004Y-83509997D03*
X103695004Y-83509998D03*
X104965004Y-83509998D03*
X106235003Y-83509998D03*
D27*
X108000004Y-82259998D03*
X108000004Y-80989998D03*
X108000004Y-79719998D03*
X108000004Y-78449998D03*
X108000004Y-77179998D03*
X108000004Y-75909998D03*
X108000004Y-74639998D03*
X108000004Y-73369998D03*
X108000004Y-72099998D03*
X108000004Y-70829998D03*
X108000004Y-69559998D03*
X108000004Y-68289998D03*
X108000004Y-67019998D03*
X108000004Y-65749998D03*
D29*
X96350004Y-72069998D03*
X96350004Y-73469998D03*
X96350004Y-74869998D03*
X97750004Y-72069998D03*
X97750004Y-73469998D03*
X97750004Y-74869998D03*
X99150004Y-72069998D03*
X99150004Y-73469998D03*
X99150004Y-74869998D03*
D30*
X145525000Y-74195000D03*
X145525000Y-75465000D03*
X145525000Y-76735000D03*
X145525000Y-78005000D03*
X150675000Y-78005000D03*
X150675000Y-76735000D03*
X150675000Y-75465000D03*
X150675000Y-74195000D03*
D11*
X135700000Y-85420000D03*
X133700000Y-85420000D03*
D14*
X55630683Y-43782500D03*
X55630683Y-41707500D03*
D18*
X129519166Y-91800000D03*
X131594166Y-91800000D03*
D14*
X143905683Y-49942501D03*
X143905683Y-47867501D03*
D11*
X127413333Y-91800000D03*
X125413333Y-91800000D03*
D15*
X65995000Y-62955000D03*
X67995000Y-62955000D03*
D11*
X126450000Y-93900000D03*
X124450000Y-93900000D03*
D10*
X73489018Y-49875000D03*
X73489018Y-47875000D03*
D31*
X99800000Y-51450000D03*
X99800000Y-55600000D03*
X97650000Y-51450000D03*
X97650000Y-55600000D03*
D32*
X164512000Y-70725000D03*
X164512000Y-71375000D03*
X164512000Y-72025000D03*
X164512000Y-72675000D03*
X164512000Y-73325000D03*
X164512000Y-73975000D03*
X164512000Y-74625000D03*
X164512000Y-75275000D03*
X170388000Y-75275000D03*
X170388000Y-74625000D03*
X170388000Y-73975000D03*
X170388000Y-73325000D03*
X170388000Y-72675000D03*
X170388000Y-72025000D03*
X170388000Y-71375000D03*
X170388000Y-70725000D03*
D14*
X128147349Y-43782500D03*
X128147349Y-41707500D03*
D18*
X76462500Y-63500000D03*
X78537500Y-63500000D03*
D17*
X92637500Y-55400000D03*
X90562500Y-55400000D03*
D14*
X71389017Y-49942500D03*
X71389017Y-47867500D03*
X148105683Y-49942501D03*
X148105683Y-47867501D03*
X123847349Y-49942500D03*
X123847349Y-47867500D03*
X143905683Y-43782501D03*
X143905683Y-41707501D03*
D33*
X30912500Y-71600000D03*
X29087500Y-71600000D03*
D16*
X105547350Y-41775001D03*
X105547350Y-43775001D03*
D18*
X98762500Y-59000000D03*
X100837500Y-59000000D03*
D22*
X126335000Y-71190000D03*
X122265000Y-71190000D03*
X126335000Y-69920000D03*
X122265000Y-69920000D03*
X126335000Y-68650000D03*
X122265000Y-68650000D03*
X126335000Y-67380000D03*
X122265000Y-67380000D03*
X126335000Y-66110000D03*
X122265000Y-66110000D03*
D16*
X89789017Y-41775001D03*
X89789017Y-43775001D03*
D15*
X121300000Y-85420000D03*
X123300000Y-85420000D03*
D20*
X84414016Y-50295000D03*
D21*
X84414016Y-48975000D03*
X84414016Y-47705000D03*
X84414016Y-46435000D03*
X84414016Y-45165000D03*
X84414016Y-43895000D03*
X84414016Y-42625000D03*
D20*
X84414016Y-41305000D03*
X78764016Y-41305000D03*
D21*
X78764016Y-42625000D03*
X78764016Y-43895000D03*
X78764016Y-45165000D03*
X78764016Y-46435000D03*
X78764016Y-47705000D03*
X78764016Y-48975000D03*
D20*
X78764016Y-50295000D03*
D12*
X63274999Y-63000000D03*
X61225001Y-63000000D03*
D14*
X51330683Y-49942500D03*
X51330683Y-47867500D03*
X39330684Y-43782502D03*
X39330684Y-41707502D03*
D10*
X162305682Y-49875000D03*
X162305682Y-47875000D03*
D34*
X37975001Y-64200000D03*
X40024999Y-64200000D03*
D30*
X125925000Y-85395000D03*
X125925000Y-86665000D03*
X125925000Y-87935000D03*
X125925000Y-89205000D03*
X131075000Y-89205000D03*
X131075000Y-87935000D03*
X131075000Y-86665000D03*
X131075000Y-85395000D03*
D19*
X50400000Y-74624999D03*
X50400000Y-72575001D03*
D17*
X166487500Y-77650000D03*
X164412500Y-77650000D03*
D16*
X146005683Y-41775001D03*
X146005683Y-43775001D03*
D15*
X155250000Y-74400000D03*
X157250000Y-74400000D03*
D14*
X51330683Y-43782500D03*
X51330683Y-41707500D03*
D33*
X34212500Y-74600000D03*
X32387500Y-74600000D03*
D16*
X69289017Y-41775001D03*
X69289017Y-43775001D03*
D11*
X146988333Y-80600000D03*
X144988333Y-80600000D03*
X142875000Y-80600000D03*
X140875000Y-80600000D03*
D14*
X87589017Y-49942500D03*
X87589017Y-47867500D03*
D10*
X57830684Y-49875000D03*
X57830684Y-47875000D03*
D11*
X155550000Y-84250000D03*
X153550000Y-84250000D03*
D14*
X111847350Y-49942500D03*
X111847350Y-47867500D03*
D23*
X50050000Y-81475001D03*
X50050000Y-83524999D03*
D14*
X160105682Y-43782500D03*
X160105682Y-41707500D03*
D19*
X38100000Y-74024999D03*
X38100000Y-71975001D03*
D33*
X47112500Y-80100000D03*
X45287500Y-80100000D03*
D16*
X37230684Y-41775001D03*
X37230684Y-43775001D03*
D35*
X71975000Y-94975000D03*
X71975000Y-93705000D03*
X71975000Y-92435000D03*
X71975000Y-91165000D03*
X67025000Y-91165000D03*
X67025000Y-92435000D03*
X67025000Y-93705000D03*
X67025000Y-94975000D03*
D16*
X141805683Y-41775002D03*
X141805683Y-43775002D03*
X166505682Y-41775000D03*
X166505682Y-43775000D03*
D14*
X161650000Y-77237500D03*
X161650000Y-75162500D03*
D25*
X42700000Y-77049999D03*
X45000000Y-77049999D03*
D26*
X45000000Y-70749999D03*
D25*
X47300000Y-77049999D03*
D14*
X91989017Y-49942500D03*
X91989017Y-47867500D03*
D36*
X43540000Y-92250000D03*
D37*
X45260000Y-92250000D03*
X45260000Y-89950000D03*
X43340000Y-89950000D03*
D10*
X69289017Y-49875000D03*
X69289017Y-47875000D03*
D33*
X42362500Y-79600000D03*
X40537500Y-79600000D03*
D11*
X142875000Y-77200000D03*
X140875000Y-77200000D03*
M02*
